<svg viewBox="0 0 800 100" width="100%" xmlns="http://www.w3.org/2000/svg">
    <rect width="800" height="100" fill="#0d1117" />
    <!-- Subtle arc -->
    <path d="M 200,20 Q 400,60 600,20" fill="none" stroke="#14b8a6" stroke-width="1" stroke-dasharray="4 8" opacity="0.4" />
    <!-- Small central motifs -->
    <g transform="translate(400, 75) rotate(0)">
    <circle cx="0" cy="0" r="10" fill="none" stroke="#14b8a6" stroke-width="1" opacity="0.4" />
    <circle cx="0" cy="0" r="9" fill="none" stroke="#14b8a6" stroke-width="0.5" stroke-dasharray="4 4" opacity="0.6" />
    <circle cx="0" cy="0" r="7.5" fill="none" stroke="#14b8a6" stroke-width="1" opacity="0.3" />
    <!-- Outer triangles -->
    <polygon points="0,-10 8.66,5 -8.66,5" fill="none" stroke="#14b8a6" stroke-width="0.5" opacity="0.5" />
    <polygon points="0,10 -8.66,-5 8.66,-5" fill="none" stroke="#14b8a6" stroke-width="0.5" opacity="0.5" />
    <!-- Inner square -->
    <rect x="-5.300000000000001" y="-5.300000000000001" width="10.600000000000001" height="10.600000000000001" fill="none" stroke="#14b8a6" stroke-width="0.5" opacity="0.4" transform="rotate(45)" />
    <!-- Central dot -->
    <circle cx="0" cy="0" r="0.5" fill="#14b8a6" opacity="0.8" />
  </g>
    <!-- Text -->
    <path fill="#e2e8f0" opacity="0.7" d="M409.77 58.87L409.77 58.87Q408.09 58.87 406.53 58.29Q404.97 57.72 403.74 56.65Q402.52 55.58 401.81 54.08Q401.10 52.58 401.10 50.76L401.10 50.76Q401.10 49.00 401.85 47.52Q402.59 46.03 403.89 44.92Q405.18 43.82 406.85 43.21Q408.52 42.60 410.37 42.60L410.37 42.60Q411.30 42.60 411.95 42.67Q412.60 42.74 413.21 42.87Q413.82 43.00 414.64 43.22L414.64 43.22Q415 43.32 415.16 43.51Q415.31 43.70 415.34 44.04L415.34 44.04Q415.38 44.59 415.46 45.22Q415.53 45.86 415.55 46.80L415.55 46.80Q415.58 46.96 415.40 47.07Q415.22 47.18 415.01 47.13Q414.81 47.08 414.74 46.82L414.74 46.82Q414.50 45.91 414.18 45.25Q413.87 44.59 413.25 44.16L413.25 44.16Q412.65 43.75 411.80 43.54Q410.94 43.34 409.96 43.34L409.96 43.34Q408.57 43.34 407.38 43.90Q406.19 44.47 405.34 45.44Q404.49 46.41 404.01 47.64Q403.53 48.86 403.53 50.18L403.53 50.18Q403.53 51.64 404.00 53.06Q404.46 54.48 405.34 55.62Q406.22 56.76 407.43 57.44Q408.64 58.12 410.13 58.12L410.13 58.12Q411.86 58.12 412.98 57.33Q414.11 56.54 414.90 55.12L414.90 55.12Q415.07 54.81 415.40 54.81Q415.72 54.81 415.72 55.20L415.72 55.20Q415.72 55.39 415.62 55.81Q415.53 56.23 415.37 56.70Q415.22 57.16 415.07 57.52L415.07 57.52Q414.90 57.86 414.80 57.96Q414.69 58.05 414.30 58.17L414.30 58.17Q413.42 58.53 412.18 58.70Q410.94 58.87 409.77 58.87ZM418.22 58.58L418.22 58.58Q417.98 58.58 417.86 58.52Q417.74 58.46 417.74 58.32L417.74 58.32Q417.74 58.12 417.88 58.06Q418.02 58.00 418.29 57.93L418.29 57.93Q418.74 57.81 418.97 57.58Q419.20 57.36 419.20 57.02L419.20 57.02L419.20 51.86Q419.20 51.21 419.01 50.73Q418.82 50.25 418.22 50.13L418.22 50.13Q418.12 50.11 418.05 50.01Q417.98 49.92 417.98 49.82L417.98 49.82Q417.98 49.58 418.19 49.53L418.19 49.53Q418.82 49.34 419.50 48.97Q420.18 48.60 420.57 48.36L420.57 48.36Q420.71 48.26 420.80 48.22Q420.88 48.19 420.93 48.19L420.93 48.19Q421.05 48.19 421.05 48.36L421.05 48.36Q421.05 48.43 421.04 48.72Q421.02 49.00 421.01 49.39Q421 49.77 420.98 50.16L420.98 50.16Q420.98 50.20 421.02 50.20L421.02 50.20Q421.41 49.72 421.88 49.36Q422.34 49.00 422.84 48.79Q423.33 48.57 423.78 48.57L423.78 48.57Q424.29 48.57 424.61 48.79Q424.94 49.00 424.94 49.34L424.94 49.34Q424.94 49.58 424.80 49.87Q424.67 50.16 424.46 50.37Q424.24 50.59 424 50.59L424 50.59Q423.86 50.59 423.69 50.53Q423.52 50.47 423.33 50.37L423.33 50.37Q423.14 50.30 422.94 50.23Q422.75 50.16 422.56 50.16L422.56 50.16Q421.98 50.16 421.44 50.56Q420.90 50.97 420.90 52.17L420.90 52.17L420.90 57.02Q420.90 57.33 421.24 57.54Q421.58 57.74 422.18 57.93L422.18 57.93Q422.44 58.00 422.58 58.08Q422.73 58.15 422.73 58.32L422.73 58.32Q422.73 58.58 422.25 58.58L422.25 58.58Q421.53 58.58 421.16 58.52Q420.78 58.46 420.16 58.46L420.16 58.46Q419.75 58.46 419.50 58.48Q419.25 58.51 418.97 58.54Q418.70 58.58 418.22 58.58ZM427.86 58.84L427.86 58.84Q427.43 58.84 426.99 58.51Q426.54 58.17 426.24 57.69Q425.94 57.21 425.94 56.78L425.94 56.78Q425.94 56.01 426.35 55.58Q426.76 55.15 427.65 54.79L427.65 54.79L430.10 53.78Q430.58 53.59 430.66 53.44Q430.74 53.30 430.77 52.82L430.77 52.82L430.82 51.28Q430.84 50.66 430.47 50.20Q430.10 49.75 429.40 49.75L429.40 49.75Q429.04 49.75 428.68 49.87Q428.32 49.99 428.08 50.18L428.08 50.18Q427.94 50.28 427.89 50.47Q427.84 50.66 427.84 50.88L427.84 50.88Q427.84 50.97 427.85 51.09Q427.86 51.21 427.86 51.31L427.86 51.31Q427.86 51.43 427.56 51.63Q427.26 51.84 426.89 51.99Q426.52 52.15 426.28 52.15L426.28 52.15Q426.16 52.15 426.09 52.09Q426.02 52.03 426.02 51.93L426.02 51.93Q426.02 51.55 426.27 51.10Q426.52 50.66 426.98 50.28L426.98 50.28Q427.53 49.77 428.18 49.39Q428.82 49.00 429.45 48.79Q430.07 48.57 430.55 48.57L430.55 48.57Q431.42 48.57 431.98 49.18Q432.54 49.80 432.52 50.71L432.52 50.71L432.40 56.47Q432.38 56.97 432.63 57.28Q432.88 57.60 433.26 57.60L433.26 57.60Q433.86 57.60 434.15 57.33L434.15 57.33Q434.27 57.21 434.34 57.21L434.34 57.21Q434.46 57.21 434.54 57.28Q434.61 57.36 434.61 57.48L434.61 57.48Q434.61 57.74 434.34 58.00L434.34 58.00Q433.96 58.39 433.52 58.62Q433.07 58.84 432.69 58.84L432.69 58.84Q431.58 58.84 430.94 57.60L430.94 57.60L430.86 57.60Q430.07 58.24 429.35 58.54Q428.63 58.84 427.86 58.84ZM428.99 57.69L428.99 57.69Q429.47 57.69 429.81 57.54Q430.14 57.38 430.41 57.12L430.41 57.12Q430.53 57.00 430.61 56.79Q430.70 56.59 430.72 56.13L430.72 56.13L430.77 54.96Q430.79 54.69 430.74 54.57Q430.70 54.45 430.55 54.45L430.55 54.45Q430.50 54.45 430.38 54.48Q430.26 54.50 430.07 54.57L430.07 54.57Q428.80 55.03 428.31 55.52Q427.82 56.01 427.82 56.42L427.82 56.42Q427.82 57.04 428.19 57.37Q428.56 57.69 428.99 57.69ZM435.69 58.58L435.69 58.58Q435.45 58.58 435.33 58.52Q435.21 58.46 435.21 58.32L435.21 58.32Q435.21 58.12 435.36 58.05Q435.52 57.98 435.76 57.93L435.76 57.93Q436.31 57.81 436.55 57.58Q436.79 57.36 436.79 56.88L436.79 56.88L436.79 50.11Q436.55 50.11 436.24 50.10Q435.93 50.08 435.54 50.06L435.54 50.06Q435.47 50.04 435.34 49.89Q435.21 49.75 435.21 49.63L435.21 49.63Q435.21 49.58 435.28 49.54Q435.35 49.51 435.38 49.48L435.38 49.48Q435.81 49.27 436.12 49.10Q436.43 48.93 436.79 48.76L436.79 48.76Q436.79 46.68 437.31 45.28Q437.82 43.89 438.64 43.08Q439.46 42.26 440.37 41.91Q441.28 41.56 442.07 41.56L442.07 41.56Q443.42 41.56 444.06 41.97Q444.71 42.38 444.71 43.00L444.71 43.00Q444.71 43.48 444.47 43.72Q444.23 43.96 443.90 43.96L443.90 43.96Q443.68 43.96 443.50 43.80Q443.32 43.63 443.08 43.41L443.08 43.41Q442.77 43.10 442.31 42.82Q441.86 42.55 441.06 42.55L441.06 42.55Q439.94 42.55 439.20 43.53Q438.47 44.52 438.47 46.56L438.47 46.56L438.47 48.67Q438.47 48.81 438.56 48.86Q438.64 48.91 438.74 48.91L438.74 48.91L441.74 48.91Q441.86 48.91 441.95 48.98Q442.05 49.05 442.05 49.17L442.05 49.17Q442.05 49.34 442.01 49.53Q441.98 49.72 441.90 49.87L441.90 49.87Q441.83 50.06 441.69 50.06L441.69 50.06L438.93 50.06Q438.64 50.06 438.56 50.14Q438.47 50.23 438.47 50.37L438.47 50.37L438.47 56.88Q438.47 57.36 438.78 57.58Q439.10 57.81 440.06 57.93L440.06 57.93Q440.61 58.00 440.61 58.32L440.61 58.32Q440.61 58.46 440.49 58.52Q440.37 58.58 440.13 58.58L440.13 58.58Q439.41 58.58 438.86 58.52Q438.30 58.46 437.68 58.46L437.68 58.46Q437.27 58.46 437.01 58.48Q436.74 58.51 436.46 58.54Q436.17 58.58 435.69 58.58ZM446.80 58.84L446.80 58.84Q445.62 58.84 444.96 58.12Q444.30 57.40 444.30 55.99L444.30 55.99L444.30 50.42Q444.30 50.23 444.16 50.14Q444.02 50.06 443.54 50.06L443.54 50.06L443.39 50.06Q443.27 50.06 443.19 49.90Q443.10 49.75 443.10 49.58L443.10 49.58Q443.10 49.53 443.18 49.44Q443.25 49.34 443.27 49.32L443.27 49.32Q443.75 48.98 444.15 48.64Q444.54 48.31 444.87 47.98Q445.19 47.66 445.41 47.40L445.41 47.40Q445.53 47.28 445.61 47.19Q445.70 47.11 445.82 47.11L445.82 47.11Q445.94 47.11 446.04 47.16Q446.15 47.20 446.13 47.37L446.13 47.37L446.01 48.45Q445.98 48.72 446.13 48.81Q446.27 48.91 446.58 48.91L446.58 48.91L449.32 48.91Q449.42 48.91 449.49 49.06Q449.56 49.22 449.56 49.44L449.56 49.44Q449.56 49.65 449.49 49.86Q449.42 50.06 449.32 50.06L449.32 50.06L446.94 50.06Q446.34 50.06 446.16 50.16Q445.98 50.25 445.98 50.73L445.98 50.73L445.98 55.46Q445.98 56.42 446.39 56.97Q446.80 57.52 447.57 57.52L447.57 57.52Q448.26 57.52 448.65 57.42Q449.03 57.31 449.34 57.09L449.34 57.09Q449.39 57.04 449.44 57.04L449.44 57.04Q449.54 57.04 449.57 57.15Q449.61 57.26 449.61 57.38L449.61 57.38Q449.61 57.50 449.21 57.86Q448.82 58.22 448.18 58.53Q447.54 58.84 446.80 58.84ZM454.91 58.87L454.91 58.87Q453.59 58.87 452.61 58.22Q451.62 57.57 451.07 56.38Q450.52 55.20 450.52 53.64L450.52 53.64Q450.52 52.24 451.16 51.10Q451.79 49.96 452.85 49.27Q453.90 48.57 455.15 48.57L455.15 48.57Q456.11 48.57 456.86 48.96Q457.60 49.34 458.02 50.02Q458.44 50.71 458.44 51.60L458.44 51.60Q458.44 52.34 457.72 52.34L457.72 52.34L452.66 52.34Q452.32 52.34 452.19 52.52Q452.06 52.70 452.06 53.23L452.06 53.23Q452.06 54.38 452.56 55.33Q453.06 56.28 453.90 56.84Q454.74 57.40 455.75 57.40L455.75 57.40Q456.47 57.40 457.06 57.13Q457.65 56.85 458.10 56.32L458.10 56.32Q458.20 56.20 458.25 56.17Q458.30 56.13 458.37 56.13L458.37 56.13Q458.56 56.13 458.56 56.37L458.56 56.37Q458.56 56.83 458.13 57.38L458.13 57.38Q457.77 57.84 457.26 58.17Q456.76 58.51 456.16 58.69Q455.56 58.87 454.91 58.87ZM452.70 51.60L452.70 51.60L454.89 51.60Q455.46 51.60 455.87 51.57Q456.28 51.55 456.66 51.48L456.66 51.48Q456.78 51.45 456.82 51.32Q456.86 51.19 456.86 50.95L456.86 50.95Q456.86 50.25 456.24 49.76Q455.63 49.27 454.79 49.27L454.79 49.27Q454.24 49.27 453.69 49.59Q453.14 49.92 452.78 50.40Q452.42 50.88 452.42 51.36L452.42 51.36Q452.42 51.60 452.70 51.60ZM467.73 58.96L467.73 58.96Q467.68 58.96 467.57 58.87Q467.46 58.77 467.46 58.72L467.46 58.72Q467.46 58.48 467.52 58.04Q467.58 57.60 467.58 57.28L467.58 57.28L467.58 57.14Q467.22 57.69 466.43 58.27Q465.64 58.84 464.44 58.84L464.44 58.84Q463.07 58.84 462.08 58.12Q461.08 57.40 460.54 56.28Q460.00 55.15 460.00 53.95L460.00 53.95Q460.00 52.56 460.65 51.33Q461.30 50.11 462.51 49.34Q463.72 48.57 465.40 48.57L465.40 48.57Q465.88 48.57 466.37 48.66Q466.86 48.74 467.13 48.84L467.13 48.84Q467.34 48.91 467.44 48.91L467.44 48.91Q467.61 48.91 467.61 48.33L467.61 48.33L467.61 44.92Q467.61 43.94 467.30 43.60Q466.98 43.27 466.41 43.17L466.41 43.17Q466.19 43.12 466.19 42.86L466.19 42.86Q466.19 42.64 466.38 42.57L466.38 42.57Q467.44 42.31 468.04 42.07Q468.64 41.83 468.98 41.68L468.98 41.68Q469.07 41.64 469.16 41.62Q469.24 41.61 469.29 41.61L469.29 41.61Q469.43 41.61 469.46 41.76L469.46 41.76Q469.46 41.90 469.42 42.25Q469.38 42.60 469.34 43.27Q469.29 43.94 469.29 45.02L469.29 45.02L469.29 55.87Q469.29 56.68 469.41 57.06Q469.53 57.43 469.79 57.43L469.79 57.43Q469.91 57.43 470.21 57.40Q470.51 57.38 470.82 57.36L470.82 57.36Q471.26 57.33 471.26 57.57L471.26 57.57Q471.26 57.74 471.15 57.87Q471.04 58.00 470.92 58.00L470.92 58.00Q470.25 58.10 469.60 58.28Q468.95 58.46 468.11 58.82L468.11 58.82Q467.92 58.92 467.86 58.94Q467.80 58.96 467.73 58.96ZM465.30 57.60L465.30 57.60Q465.93 57.60 466.53 57.27Q467.13 56.95 467.58 56.42L467.58 56.42L467.61 52.10Q467.61 51.45 467.24 50.83Q466.86 50.20 466.20 49.81Q465.54 49.41 464.66 49.41L464.66 49.41Q464.10 49.41 463.41 49.75Q462.71 50.08 462.21 50.94Q461.70 51.79 461.70 53.40L461.70 53.40Q461.70 54.76 462.11 55.59Q462.52 56.42 463.11 56.85Q463.70 57.28 464.31 57.44Q464.92 57.60 465.30 57.60ZM481.53 59.06L481.53 59.06Q481.48 59.06 481.43 59.01Q481.38 58.96 481.36 58.89L481.36 58.89L478.02 50.61Q477.86 50.13 477.50 49.83Q477.14 49.53 476.78 49.44L476.78 49.44Q476.58 49.36 476.40 49.27Q476.22 49.17 476.22 49.00L476.22 49.00Q476.22 48.86 476.40 48.82Q476.58 48.79 476.70 48.79L476.70 48.79Q477.02 48.79 477.29 48.81Q477.57 48.84 477.86 48.87Q478.14 48.91 478.46 48.91L478.46 48.91Q478.79 48.91 479.13 48.87Q479.46 48.84 479.79 48.81Q480.11 48.79 480.45 48.79L480.45 48.79Q480.54 48.79 480.74 48.82Q480.93 48.86 480.93 49.00L480.93 49.00Q480.93 49.17 480.75 49.27Q480.57 49.36 480.38 49.44L480.38 49.44Q480.14 49.51 480.00 49.78Q479.87 50.06 479.87 50.40L479.87 50.40Q479.87 50.71 479.99 51.02L479.99 51.02L481.86 55.84Q481.89 55.94 481.98 55.94L481.98 55.94Q482.08 55.94 482.10 55.84L482.10 55.84L483.74 51.96Q483.86 51.64 483.89 51.36Q483.93 51.07 483.93 50.80L483.93 50.80Q483.93 50.28 483.52 49.94Q483.11 49.60 482.70 49.44L482.70 49.44Q482.51 49.36 482.33 49.27Q482.15 49.17 482.15 49.00L482.15 49.00Q482.15 48.86 482.32 48.82Q482.49 48.79 482.63 48.79L482.63 48.79Q482.97 48.79 483.36 48.85Q483.76 48.91 484.43 48.91L484.43 48.91Q485.10 48.91 485.58 48.85Q486.06 48.79 486.45 48.79L486.45 48.79Q486.57 48.79 486.75 48.82Q486.93 48.86 486.93 49.00L486.93 49.00Q486.93 49.17 486.75 49.27Q486.57 49.36 486.38 49.44L486.38 49.44Q486.11 49.53 485.84 49.70Q485.56 49.87 485.56 50.30L485.56 50.30Q485.56 50.44 485.60 50.62Q485.63 50.80 485.73 51.02L485.73 51.02L487.53 55.65Q487.65 55.92 487.72 55.92L487.72 55.92Q487.82 55.92 487.91 55.68L487.91 55.68L489.74 51.43Q489.83 51.24 489.87 50.95Q489.90 50.66 489.90 50.49L489.90 50.49Q489.90 50.06 489.62 49.80Q489.33 49.53 489.06 49.44L489.06 49.44Q488.87 49.36 488.69 49.27Q488.51 49.17 488.51 49.00L488.51 49.00Q488.51 48.86 488.69 48.82Q488.87 48.79 488.99 48.79L488.99 48.79Q489.52 48.79 489.83 48.85Q490.14 48.91 490.79 48.91L490.79 48.91Q491.25 48.91 491.44 48.87Q491.63 48.84 491.78 48.81Q491.92 48.79 492.18 48.79L492.18 48.79Q492.33 48.79 492.50 48.82Q492.66 48.86 492.66 49.00L492.66 49.00Q492.66 49.17 492.48 49.27Q492.30 49.36 492.11 49.44L492.11 49.44Q491.75 49.53 491.42 50Q491.08 50.47 490.84 51.02L490.84 51.02L487.55 58.89Q487.48 59.06 487.34 59.06L487.34 59.06Q487.24 59.06 487.14 58.89L487.14 58.89L484.65 52.70Q484.58 52.51 484.50 52.48L484.50 52.48Q484.43 52.48 484.34 52.72L484.34 52.72L481.72 58.89Q481.65 59.06 481.53 59.06ZM493.60 58.58L493.60 58.58Q493.38 58.58 493.25 58.52Q493.12 58.46 493.12 58.32L493.12 58.32Q493.12 58.12 493.30 58.05Q493.48 57.98 493.67 57.93L493.67 57.93Q494.18 57.81 494.44 57.63Q494.70 57.45 494.70 57.02L494.70 57.02L494.70 51.81Q494.70 51.16 494.48 50.66Q494.25 50.16 493.62 50.06L493.62 50.06Q493.50 50.04 493.44 49.96Q493.38 49.89 493.38 49.75L493.38 49.75Q493.38 49.48 493.60 49.46L493.60 49.46Q494.56 49.24 495.18 48.87Q495.81 48.50 496.12 48.26L496.12 48.26Q496.34 48.09 496.46 48.09L496.46 48.09Q496.60 48.09 496.60 48.21L496.60 48.21Q496.60 48.40 496.54 48.97Q496.48 49.53 496.43 50.22Q496.38 50.90 496.38 51.45L496.38 51.45L496.38 57.02Q496.38 57.43 496.66 57.62Q496.94 57.81 497.42 57.93L497.42 57.93Q497.61 57.98 497.79 58.05Q497.97 58.12 497.97 58.32L497.97 58.32Q497.97 58.58 497.49 58.58L497.49 58.58Q497.03 58.58 496.76 58.54Q496.48 58.51 496.23 58.48Q495.98 58.46 495.54 58.46L495.54 58.46Q495.14 58.46 494.87 58.48Q494.61 58.51 494.34 58.54Q494.08 58.58 493.60 58.58ZM495.52 46.12L495.52 46.12Q495.02 46.12 494.67 45.78Q494.32 45.43 494.32 44.92L494.32 44.92Q494.32 44.40 494.67 44.05Q495.02 43.70 495.52 43.70L495.52 43.70Q496.05 43.70 496.40 44.05Q496.74 44.40 496.74 44.92L496.74 44.92Q496.74 45.43 496.40 45.78Q496.05 46.12 495.52 46.12ZM502.96 58.84L502.96 58.84Q501.78 58.84 501.12 58.12Q500.46 57.40 500.46 55.99L500.46 55.99L500.46 50.42Q500.46 50.23 500.32 50.14Q500.18 50.06 499.70 50.06L499.70 50.06L499.55 50.06Q499.43 50.06 499.35 49.90Q499.26 49.75 499.26 49.58L499.26 49.58Q499.26 49.53 499.34 49.44Q499.41 49.34 499.43 49.32L499.43 49.32Q499.91 48.98 500.31 48.64Q500.70 48.31 501.03 47.98Q501.35 47.66 501.57 47.40L501.57 47.40Q501.69 47.28 501.77 47.19Q501.86 47.11 501.98 47.11L501.98 47.11Q502.10 47.11 502.20 47.16Q502.31 47.20 502.29 47.37L502.29 47.37L502.17 48.45Q502.14 48.72 502.29 48.81Q502.43 48.91 502.74 48.91L502.74 48.91L505.48 48.91Q505.58 48.91 505.65 49.06Q505.72 49.22 505.72 49.44L505.72 49.44Q505.72 49.65 505.65 49.86Q505.58 50.06 505.48 50.06L505.48 50.06L503.10 50.06Q502.50 50.06 502.32 50.16Q502.14 50.25 502.14 50.73L502.14 50.73L502.14 55.46Q502.14 56.42 502.55 56.97Q502.96 57.52 503.73 57.52L503.73 57.52Q504.42 57.52 504.81 57.42Q505.19 57.31 505.50 57.09L505.50 57.09Q505.55 57.04 505.60 57.04L505.60 57.04Q505.70 57.04 505.73 57.15Q505.77 57.26 505.77 57.38L505.77 57.38Q505.77 57.50 505.37 57.86Q504.98 58.22 504.34 58.53Q503.70 58.84 502.96 58.84ZM506.90 58.58L506.90 58.58Q506.42 58.58 506.42 58.32L506.42 58.32Q506.42 58.10 506.97 57.93L506.97 57.93Q507.33 57.81 507.65 57.62Q507.98 57.43 508.00 56.95L508.00 56.95L508.00 44.92Q508.00 44.28 507.78 43.78Q507.57 43.29 506.94 43.20L506.94 43.20Q506.73 43.15 506.73 42.86L506.73 42.86Q506.73 42.64 506.92 42.57L506.92 42.57Q507.26 42.45 507.72 42.31Q508.19 42.16 508.70 41.98Q509.20 41.80 509.58 41.64L509.58 41.64Q509.68 41.59 509.73 41.59L509.73 41.59Q509.80 41.59 509.85 41.64Q509.90 41.68 509.90 41.76L509.90 41.76Q509.90 41.90 509.84 42.16Q509.78 42.43 509.73 43.08Q509.68 43.72 509.68 45.02L509.68 45.02L509.68 49.20Q509.68 49.58 509.72 49.75Q509.75 49.92 509.85 50.08L509.85 50.08Q510.23 49.80 510.80 49.45Q511.36 49.10 512.06 48.84Q512.75 48.57 513.50 48.57L513.50 48.57Q514.67 48.57 515.45 49.50Q516.23 50.42 516.23 51.84L516.23 51.84L516.23 56.88Q516.23 57.36 516.54 57.58Q516.86 57.81 517.22 57.93L517.22 57.93Q517.48 58.00 517.62 58.09Q517.77 58.17 517.77 58.32L517.77 58.32Q517.77 58.58 517.29 58.58L517.29 58.58Q516.81 58.58 516.56 58.54Q516.30 58.51 516.08 58.48Q515.85 58.46 515.42 58.46L515.42 58.46Q515.01 58.46 514.77 58.48Q514.53 58.51 514.28 58.54Q514.02 58.58 513.54 58.58L513.54 58.58Q513.06 58.58 513.06 58.32L513.06 58.32Q513.06 58.15 513.21 58.09Q513.35 58.03 513.62 57.93L513.62 57.93Q513.98 57.81 514.26 57.58Q514.55 57.36 514.55 56.88L514.55 56.88L514.55 51.98Q514.55 51.38 514.20 50.89Q513.86 50.40 513.35 50.11Q512.85 49.82 512.32 49.82L512.32 49.82Q511.86 49.82 511.26 49.95Q510.66 50.08 510.33 50.35L510.33 50.35Q509.94 50.66 509.81 51.00Q509.68 51.33 509.68 52.08L509.68 52.08L509.68 56.95Q509.70 57.43 509.98 57.62Q510.26 57.81 510.62 57.93L510.62 57.93Q510.88 58.00 511.01 58.09Q511.14 58.17 511.14 58.32L511.14 58.32Q511.14 58.58 510.66 58.58L510.66 58.58Q510.18 58.58 509.94 58.54Q509.70 58.51 509.49 58.48Q509.27 58.46 508.84 58.46L508.84 58.46Q508.43 58.46 508.18 58.48Q507.93 58.51 507.65 58.54Q507.38 58.58 506.90 58.58ZM533.92 58.51L524.32 58.51L524.32 47.16L533.92 47.16L533.92 58.51ZM525.52 48.36L525.52 57.31L532.72 57.31L532.72 48.36L525.52 48.36ZM546.14 58.84L546.14 58.84Q545.61 58.84 545.08 58.75Q544.55 58.65 544.07 58.53L544.07 58.53Q543.54 58.39 543.15 58.27Q542.75 58.15 542.63 58.15L542.63 58.15Q542.49 58.15 542.36 58.24Q542.22 58.34 542.10 58.46L542.10 58.46Q541.98 58.58 541.89 58.58L541.89 58.58Q541.79 58.58 541.67 58.50Q541.55 58.41 541.55 58.29L541.55 58.29Q541.55 58.08 541.64 57.55Q541.72 57.02 541.72 56.56L541.72 56.56L541.72 44.92Q541.72 44.30 541.41 43.84Q541.10 43.39 540.62 43.17L540.62 43.17Q540.52 43.12 540.41 43.04Q540.30 42.96 540.30 42.81L540.30 42.81Q540.30 42.69 540.40 42.64Q540.50 42.60 540.59 42.57L540.59 42.57Q540.90 42.50 541.44 42.31Q541.98 42.12 542.46 41.92Q542.94 41.73 543.11 41.66L543.11 41.66Q543.26 41.59 543.33 41.59L543.33 41.59Q543.38 41.59 543.42 41.64Q543.47 41.68 543.47 41.76L543.47 41.76Q543.47 41.85 543.44 42.56Q543.40 43.27 543.40 44.28L543.40 44.28L543.40 49.20Q543.40 49.65 543.45 49.81Q543.50 49.96 543.62 49.99L543.62 49.99Q544.36 49.36 545.34 48.97Q546.33 48.57 547.12 48.57L547.12 48.57Q548.34 48.57 549.32 49.20Q550.29 49.82 550.86 50.89Q551.44 51.96 551.44 53.30L551.44 53.30Q551.44 54.93 550.77 56.19Q550.10 57.45 548.91 58.15Q547.72 58.84 546.14 58.84ZM546.69 58.10L546.69 58.10Q547.60 58.10 548.26 57.54Q548.92 56.97 549.28 56Q549.64 55.03 549.64 53.83L549.64 53.83Q549.64 52.89 549.29 51.91Q548.94 50.92 548.21 50.25Q547.48 49.58 546.33 49.58L546.33 49.58Q545.37 49.58 544.65 49.89Q543.93 50.20 543.40 50.68L543.40 50.68L543.40 55.34Q543.40 56.18 543.87 56.80Q544.34 57.43 545.09 57.76Q545.85 58.10 546.69 58.10ZM553.82 65.35L553.82 65.35Q553.36 65.35 552.98 65.12Q552.59 64.89 552.59 64.36L552.59 64.36Q552.59 63.93 552.80 63.61Q553 63.28 553.38 63.28L553.38 63.28Q553.65 63.28 553.90 63.36Q554.15 63.43 554.34 63.43L554.34 63.43Q554.49 63.43 554.60 63.37Q554.70 63.31 554.80 63.16L554.80 63.16Q555.06 62.73 555.41 62.08Q555.76 61.44 556.13 60.62Q556.50 59.80 556.84 58.89L556.84 58.89Q556.91 58.68 556.91 58.34L556.91 58.34Q556.91 58.15 556.89 57.97Q556.86 57.79 556.82 57.64L556.82 57.64L554.03 50.61Q553.86 50.18 553.59 49.86Q553.31 49.53 552.95 49.44L552.95 49.44Q552.76 49.36 552.58 49.27Q552.40 49.17 552.40 49.00L552.40 49.00Q552.40 48.86 552.58 48.82Q552.76 48.79 552.88 48.79L552.88 48.79Q553.36 48.79 553.59 48.81Q553.82 48.84 554.02 48.87Q554.22 48.91 554.63 48.91L554.63 48.91Q555.06 48.91 555.28 48.87Q555.50 48.84 555.74 48.81Q555.98 48.79 556.46 48.79L556.46 48.79Q556.60 48.79 556.77 48.85Q556.94 48.91 556.94 49.05L556.94 49.05Q556.94 49.22 556.68 49.38Q556.43 49.53 556.24 49.58L556.24 49.58Q556 49.65 555.88 49.83Q555.76 50.01 555.76 50.35L555.76 50.35Q555.76 50.49 555.83 50.70Q555.90 50.90 555.95 51.02L555.95 51.02L557.90 55.82Q557.94 55.96 558.04 55.96L558.04 55.96Q558.11 55.96 558.16 55.82L558.16 55.82L559.82 51.43Q559.89 51.26 559.95 50.98Q560.01 50.71 560.01 50.54L560.01 50.54Q560.01 50.08 559.88 49.90Q559.74 49.72 559.53 49.63L559.53 49.63Q559.34 49.53 559.08 49.38Q558.83 49.22 558.83 49.05L558.83 49.05Q558.83 48.91 559.01 48.85Q559.19 48.79 559.31 48.79L559.31 48.79Q559.65 48.79 560.00 48.85Q560.34 48.91 561.02 48.91L561.02 48.91Q561.47 48.91 561.68 48.87Q561.88 48.84 562.02 48.81Q562.17 48.79 562.43 48.79L562.43 48.79Q562.55 48.79 562.73 48.82Q562.91 48.86 562.91 49.00L562.91 49.00Q562.91 49.17 562.73 49.27Q562.55 49.36 562.36 49.44L562.36 49.44Q562 49.53 561.59 50Q561.18 50.47 560.94 51.04L560.94 51.04L557.68 58.82Q557.66 58.89 557.43 59.44Q557.20 60.00 556.86 60.81Q556.53 61.63 556.13 62.56Q555.74 63.50 555.38 64.36L555.38 64.36Q555.16 64.84 554.75 65.10Q554.34 65.35 553.82 65.35ZM572.73 58.63L572.73 58.63Q572.42 58.63 572.22 58.57Q572.03 58.51 572.03 58.36L572.03 58.36Q572.03 58.20 572.22 58.10Q572.42 58.00 572.82 57.93L572.82 57.93Q573.74 57.76 574.22 57.34Q574.70 56.92 574.70 56.06L574.70 56.06L574.70 46.75Q574.70 45.64 574.65 45.06Q574.60 44.47 574.49 44.23Q574.38 43.99 574.19 43.96L574.19 43.96Q573.86 43.89 573.48 43.88Q573.11 43.87 572.49 43.87L572.49 43.87L571.36 43.87Q570.78 43.87 570.22 44.10Q569.66 44.32 569.39 44.80L569.39 44.80Q569.32 44.92 569.15 45.15Q568.98 45.38 568.79 45.55Q568.60 45.72 568.41 45.72L568.41 45.72Q568.31 45.72 568.28 45.62Q568.24 45.52 568.24 45.40L568.24 45.40Q568.24 45.16 568.36 44.92L568.36 44.92Q568.70 44.23 568.85 43.69Q569.01 43.15 569.10 42.40L569.10 42.40Q569.15 42.00 569.28 41.92Q569.42 41.85 569.51 41.85L569.51 41.85Q569.61 41.85 569.81 42.14Q570.02 42.43 570.11 42.62L570.11 42.62Q570.26 42.86 570.77 42.98Q571.29 43.10 571.79 43.10L571.79 43.10L580.24 43.10Q581.08 43.10 581.61 43.00Q582.14 42.91 582.52 42.74L582.52 42.74Q582.81 42.60 582.99 42.43Q583.17 42.26 583.46 42.26L583.46 42.26Q583.53 42.26 583.58 42.44Q583.62 42.62 583.62 42.81L583.62 42.81Q583.62 42.93 583.59 43.15Q583.55 43.36 583.53 43.48L583.53 43.48Q583.46 43.92 583.40 44.11Q583.34 44.30 583.31 44.44Q583.29 44.59 583.29 44.90L583.29 44.90L583.29 45.19Q583.29 45.40 583.19 45.68Q583.10 45.96 582.90 45.96L582.90 45.96Q582.74 45.96 582.64 45.69Q582.54 45.43 582.45 44.97L582.45 44.97Q582.35 44.47 581.87 44.17Q581.39 43.87 580.24 43.87L580.24 43.87L577.82 43.87Q577.29 43.87 577.02 44.01Q576.76 44.16 576.69 44.73Q576.62 45.31 576.62 46.63L576.62 46.63L576.62 56.06Q576.62 56.92 577.12 57.34Q577.62 57.76 578.51 57.93L578.51 57.93Q578.92 58.00 579.11 58.10Q579.30 58.20 579.30 58.36L579.30 58.36Q579.30 58.51 579.11 58.57Q578.92 58.63 578.61 58.63L578.61 58.63Q577.96 58.63 577.54 58.59Q577.12 58.56 576.74 58.53Q576.35 58.51 575.80 58.51L575.80 58.51Q575.20 58.51 574.76 58.53Q574.31 58.56 573.84 58.59Q573.38 58.63 572.73 58.63ZM584.61 58.58L584.61 58.58Q584.13 58.58 584.13 58.32L584.13 58.32Q584.13 58.10 584.68 57.93L584.68 57.93Q585.04 57.81 585.36 57.62Q585.69 57.43 585.71 56.95L585.71 56.95L585.71 44.92Q585.71 44.28 585.50 43.78Q585.28 43.29 584.66 43.20L584.66 43.20Q584.44 43.15 584.44 42.86L584.44 42.86Q584.44 42.64 584.63 42.57L584.63 42.57Q584.97 42.45 585.44 42.31Q585.90 42.16 586.41 41.98Q586.91 41.80 587.30 41.64L587.30 41.64Q587.39 41.59 587.44 41.59L587.44 41.59Q587.51 41.59 587.56 41.64Q587.61 41.68 587.61 41.76L587.61 41.76Q587.61 41.90 587.55 42.16Q587.49 42.43 587.44 43.08Q587.39 43.72 587.39 45.02L587.39 45.02L587.39 49.20Q587.39 49.58 587.43 49.75Q587.46 49.92 587.56 50.08L587.56 50.08Q587.94 49.80 588.51 49.45Q589.07 49.10 589.77 48.84Q590.46 48.57 591.21 48.57L591.21 48.57Q592.38 48.57 593.16 49.50Q593.94 50.42 593.94 51.84L593.94 51.84L593.94 56.88Q593.94 57.36 594.26 57.58Q594.57 57.81 594.93 57.93L594.93 57.93Q595.19 58.00 595.34 58.09Q595.48 58.17 595.48 58.32L595.48 58.32Q595.48 58.58 595.00 58.58L595.00 58.58Q594.52 58.58 594.27 58.54Q594.02 58.51 593.79 58.48Q593.56 58.46 593.13 58.46L593.13 58.46Q592.72 58.46 592.48 58.48Q592.24 58.51 591.99 58.54Q591.74 58.58 591.26 58.58L591.26 58.58Q590.78 58.58 590.78 58.32L590.78 58.32Q590.78 58.15 590.92 58.09Q591.06 58.03 591.33 57.93L591.33 57.93Q591.69 57.81 591.98 57.58Q592.26 57.36 592.26 56.88L592.26 56.88L592.26 51.98Q592.26 51.38 591.92 50.89Q591.57 50.40 591.06 50.11Q590.56 49.82 590.03 49.82L590.03 49.82Q589.58 49.82 588.98 49.95Q588.38 50.08 588.04 50.35L588.04 50.35Q587.66 50.66 587.52 51.00Q587.39 51.33 587.39 52.08L587.39 52.08L587.39 56.95Q587.42 57.43 587.69 57.62Q587.97 57.81 588.33 57.93L588.33 57.93Q588.59 58.00 588.72 58.09Q588.86 58.17 588.86 58.32L588.86 58.32Q588.86 58.58 588.38 58.58L588.38 58.58Q587.90 58.58 587.66 58.54Q587.42 58.51 587.20 58.48Q586.98 58.46 586.55 58.46L586.55 58.46Q586.14 58.46 585.89 58.48Q585.64 58.51 585.36 58.54Q585.09 58.58 584.61 58.58ZM604.82 58.96L604.82 58.96Q604.65 58.96 604.65 58.77L604.65 58.77Q604.65 58.53 604.71 58.06Q604.77 57.60 604.77 57.28L604.77 57.28Q604.77 57.24 604.77 57.20Q604.77 57.16 604.77 57.14L604.77 57.14Q603.83 58.05 602.88 58.45Q601.94 58.84 600.81 58.84L600.81 58.84Q600.04 58.84 599.42 58.52Q598.79 58.20 598.43 57.56Q598.07 56.92 598.07 55.99L598.07 55.99L598.07 51.12Q598.07 50.59 597.83 50.28Q597.59 49.96 597.04 49.75L597.04 49.75Q596.92 49.70 596.82 49.63Q596.73 49.56 596.73 49.36L596.73 49.36Q596.73 49.15 596.84 49.08Q596.94 49.00 597.09 48.98L597.09 48.98Q597.90 48.93 598.35 48.85Q598.79 48.76 599.46 48.60L599.46 48.60Q599.54 48.57 599.57 48.57Q599.61 48.57 599.66 48.57L599.66 48.57Q599.92 48.57 599.90 48.91L599.90 48.91Q599.82 49.46 599.79 49.83Q599.75 50.20 599.75 50.76L599.75 50.76L599.75 55.44Q599.75 56.01 600.04 56.50Q600.33 57.00 600.80 57.31Q601.26 57.62 601.77 57.62L601.77 57.62Q602.39 57.62 602.86 57.55Q603.33 57.48 603.78 57.14L603.78 57.14Q604.05 56.95 604.46 56.52Q604.86 56.08 604.86 55.34L604.86 55.34L604.86 50.95Q604.86 50.44 604.56 50.19Q604.26 49.94 603.88 49.84Q603.50 49.75 603.26 49.75L603.26 49.75Q603.04 49.75 602.90 49.66Q602.75 49.58 602.75 49.34L602.75 49.34Q602.75 49.12 602.91 49.05Q603.06 48.98 603.26 48.98L603.26 48.98Q604.00 48.96 604.49 48.92Q604.98 48.88 605.38 48.80Q605.78 48.72 606.21 48.60L606.21 48.60Q606.26 48.57 606.33 48.56Q606.40 48.55 606.45 48.55L606.45 48.55Q606.76 48.55 606.76 48.81L606.76 48.81Q606.76 48.84 606.75 48.90Q606.74 48.96 606.71 49.03L606.71 49.03Q606.69 49.10 606.65 49.44Q606.62 49.77 606.58 50.13Q606.54 50.49 606.54 50.68L606.54 50.68L606.54 56.23Q606.54 56.88 606.68 57.15Q606.81 57.43 606.98 57.43L606.98 57.43Q607.17 57.43 607.54 57.39Q607.91 57.36 608.08 57.36L608.08 57.36Q608.20 57.36 608.32 57.40Q608.44 57.45 608.44 57.67L608.44 57.67Q608.44 57.86 608.34 57.92Q608.25 57.98 608.10 58.00L608.10 58.00Q607.17 58.12 606.50 58.36Q605.82 58.60 605.30 58.82L605.30 58.82Q605.22 58.84 605.08 58.90Q604.94 58.96 604.82 58.96ZM612.14 58.84L612.14 58.84Q611.39 58.84 610.74 58.62Q610.10 58.39 609.64 57.98L609.64 57.98Q609.52 57.72 609.46 57.09Q609.40 56.47 609.38 56.06L609.38 56.06Q609.38 55.84 609.69 55.84L609.69 55.84Q609.78 55.84 609.87 55.88Q609.95 55.92 609.98 56.01L609.98 56.01Q610.29 57.19 610.97 57.69Q611.66 58.20 612.35 58.20L612.35 58.20Q613.05 58.20 613.54 57.73Q614.03 57.26 614.03 56.56L614.03 56.56Q614.03 55.92 613.60 55.45Q613.17 54.98 612.09 54.31L612.09 54.31Q611.27 53.80 610.77 53.35Q610.26 52.89 610.04 52.41Q609.81 51.93 609.81 51.33L609.81 51.33Q609.81 50.56 610.17 49.94Q610.53 49.32 611.25 48.94Q611.97 48.57 613.05 48.57L613.05 48.57Q613.77 48.57 614.25 48.72Q614.73 48.86 614.97 49.03L614.97 49.03Q615.16 49.29 615.29 49.86Q615.42 50.42 615.42 50.92L615.42 50.92Q615.42 51.09 615.18 51.09L615.18 51.09Q615.04 51.09 614.91 51.03Q614.78 50.97 614.73 50.88L614.73 50.88Q614.42 50.08 613.95 49.66Q613.48 49.24 612.78 49.24L612.78 49.24Q612.18 49.24 611.72 49.60Q611.25 49.96 611.25 50.66L611.25 50.66Q611.25 51.21 611.60 51.64Q611.94 52.08 612.90 52.63L612.90 52.63Q614.30 53.42 614.98 54.10Q615.66 54.79 615.66 55.92L615.66 55.92Q615.66 57.21 614.68 58.03Q613.70 58.84 612.14 58.84ZM617.37 58.58L617.37 58.58Q616.89 58.58 616.89 58.32L616.89 58.32Q616.89 58.10 617.44 57.93L617.44 57.93Q617.80 57.81 618.12 57.62Q618.45 57.43 618.47 56.95L618.47 56.95L618.47 44.92Q618.47 44.28 618.26 43.78Q618.04 43.29 617.42 43.20L617.42 43.20Q617.20 43.15 617.20 42.86L617.20 42.86Q617.20 42.64 617.39 42.57L617.39 42.57Q617.73 42.45 618.20 42.31Q618.66 42.16 619.17 41.98Q619.67 41.80 620.06 41.64L620.06 41.64Q620.15 41.59 620.20 41.59L620.20 41.59Q620.27 41.59 620.32 41.64Q620.37 41.68 620.37 41.76L620.37 41.76Q620.37 41.90 620.31 42.16Q620.25 42.43 620.20 43.08Q620.15 43.72 620.15 45.02L620.15 45.02L620.15 49.20Q620.15 49.58 620.19 49.75Q620.22 49.92 620.32 50.08L620.32 50.08Q620.70 49.80 621.27 49.45Q621.83 49.10 622.53 48.84Q623.22 48.57 623.97 48.57L623.97 48.57Q625.14 48.57 625.92 49.50Q626.70 50.42 626.70 51.84L626.70 51.84L626.70 56.88Q626.70 57.36 627.02 57.58Q627.33 57.81 627.69 57.93L627.69 57.93Q627.95 58.00 628.10 58.09Q628.24 58.17 628.24 58.32L628.24 58.32Q628.24 58.58 627.76 58.58L627.76 58.58Q627.28 58.58 627.03 58.54Q626.78 58.51 626.55 58.48Q626.32 58.46 625.89 58.46L625.89 58.46Q625.48 58.46 625.24 58.48Q625.00 58.51 624.75 58.54Q624.50 58.58 624.02 58.58L624.02 58.58Q623.54 58.58 623.54 58.32L623.54 58.32Q623.54 58.15 623.68 58.09Q623.82 58.03 624.09 57.93L624.09 57.93Q624.45 57.81 624.74 57.58Q625.02 57.36 625.02 56.88L625.02 56.88L625.02 51.98Q625.02 51.38 624.68 50.89Q624.33 50.40 623.82 50.11Q623.32 49.82 622.79 49.82L622.79 49.82Q622.34 49.82 621.74 49.95Q621.14 50.08 620.80 50.35L620.80 50.35Q620.42 50.66 620.28 51.00Q620.15 51.33 620.15 52.08L620.15 52.08L620.15 56.95Q620.18 57.43 620.45 57.62Q620.73 57.81 621.09 57.93L621.09 57.93Q621.35 58.00 621.48 58.09Q621.62 58.17 621.62 58.32L621.62 58.32Q621.62 58.58 621.14 58.58L621.14 58.58Q620.66 58.58 620.42 58.54Q620.18 58.51 619.96 58.48Q619.74 58.46 619.31 58.46L619.31 58.46Q618.90 58.46 618.65 58.48Q618.40 58.51 618.12 58.54Q617.85 58.58 617.37 58.58ZM631.60 58.84L631.60 58.84Q631.17 58.84 630.72 58.51Q630.28 58.17 629.98 57.69Q629.68 57.21 629.68 56.78L629.68 56.78Q629.68 56.01 630.09 55.58Q630.50 55.15 631.38 54.79L631.38 54.79L633.83 53.78Q634.31 53.59 634.40 53.44Q634.48 53.30 634.50 52.82L634.50 52.82L634.55 51.28Q634.58 50.66 634.20 50.20Q633.83 49.75 633.14 49.75L633.14 49.75Q632.78 49.75 632.42 49.87Q632.06 49.99 631.82 50.18L631.82 50.18Q631.67 50.28 631.62 50.47Q631.58 50.66 631.58 50.88L631.58 50.88Q631.58 50.97 631.59 51.09Q631.60 51.21 631.60 51.31L631.60 51.31Q631.60 51.43 631.30 51.63Q631.00 51.84 630.63 51.99Q630.26 52.15 630.02 52.15L630.02 52.15Q629.90 52.15 629.82 52.09Q629.75 52.03 629.75 51.93L629.75 51.93Q629.75 51.55 630.00 51.10Q630.26 50.66 630.71 50.28L630.71 50.28Q631.26 49.77 631.91 49.39Q632.56 49.00 633.18 48.79Q633.81 48.57 634.29 48.57L634.29 48.57Q635.15 48.57 635.72 49.18Q636.28 49.80 636.26 50.71L636.26 50.71L636.14 56.47Q636.11 56.97 636.36 57.28Q636.62 57.60 637.00 57.60L637.00 57.60Q637.60 57.60 637.89 57.33L637.89 57.33Q638.01 57.21 638.08 57.21L638.08 57.21Q638.20 57.21 638.27 57.28Q638.34 57.36 638.34 57.48L638.34 57.48Q638.34 57.74 638.08 58.00L638.08 58.00Q637.70 58.39 637.25 58.62Q636.81 58.84 636.42 58.84L636.42 58.84Q635.32 58.84 634.67 57.60L634.67 57.60L634.60 57.60Q633.81 58.24 633.09 58.54Q632.37 58.84 631.60 58.84ZM632.73 57.69L632.73 57.69Q633.21 57.69 633.54 57.54Q633.88 57.38 634.14 57.12L634.14 57.12Q634.26 57.00 634.35 56.79Q634.43 56.59 634.46 56.13L634.46 56.13L634.50 54.96Q634.53 54.69 634.48 54.57Q634.43 54.45 634.29 54.45L634.29 54.45Q634.24 54.45 634.12 54.48Q634.00 54.50 633.81 54.57L633.81 54.57Q632.54 55.03 632.04 55.52Q631.55 56.01 631.55 56.42L631.55 56.42Q631.55 57.04 631.92 57.37Q632.30 57.69 632.73 57.69ZM639.54 58.58L639.54 58.58Q639.30 58.58 639.18 58.52Q639.06 58.46 639.06 58.32L639.06 58.32Q639.06 58.12 639.21 58.06Q639.35 58.00 639.62 57.93L639.62 57.93Q640.07 57.81 640.30 57.58Q640.53 57.36 640.53 57.02L640.53 57.02L640.53 51.86Q640.53 51.21 640.34 50.73Q640.14 50.25 639.54 50.13L639.54 50.13Q639.45 50.11 639.38 50.01Q639.30 49.92 639.30 49.82L639.30 49.82Q639.30 49.58 639.52 49.53L639.52 49.53Q640.14 49.34 640.83 48.97Q641.51 48.60 641.90 48.36L641.90 48.36Q642.04 48.26 642.12 48.22Q642.21 48.19 642.26 48.19L642.26 48.19Q642.38 48.19 642.38 48.36L642.38 48.36Q642.38 48.43 642.36 48.72Q642.35 49.00 642.34 49.39Q642.33 49.77 642.30 50.16L642.30 50.16Q642.30 50.20 642.35 50.20L642.35 50.20Q642.74 49.72 643.20 49.36Q643.67 49.00 644.16 48.79Q644.66 48.57 645.11 48.57L645.11 48.57Q645.62 48.57 645.94 48.79Q646.26 49.00 646.26 49.34L646.26 49.34Q646.26 49.58 646.13 49.87Q646.00 50.16 645.78 50.37Q645.57 50.59 645.33 50.59L645.33 50.59Q645.18 50.59 645.02 50.53Q644.85 50.47 644.66 50.37L644.66 50.37Q644.46 50.30 644.27 50.23Q644.08 50.16 643.89 50.16L643.89 50.16Q643.31 50.16 642.77 50.56Q642.23 50.97 642.23 52.17L642.23 52.17L642.23 57.02Q642.23 57.33 642.57 57.54Q642.90 57.74 643.50 57.93L643.50 57.93Q643.77 58.00 643.91 58.08Q644.06 58.15 644.06 58.32L644.06 58.32Q644.06 58.58 643.58 58.58L643.58 58.58Q642.86 58.58 642.48 58.52Q642.11 58.46 641.49 58.46L641.49 58.46Q641.08 58.46 640.83 58.48Q640.58 58.51 640.30 58.54Q640.02 58.58 639.54 58.58Z"/>
  </svg>