<svg viewBox="0 0 800 150" width="100%" xmlns="http://www.w3.org/2000/svg">
    <rect width="800" height="150" fill="#0d1117" rx="8" />
    <rect width="800" height="150" fill="none" stroke="#581c87" stroke-width="2" stroke-opacity="0.2" rx="8" />
    
      <g transform="translate(150, 75)">
        <animateTransform attributeName="transform" type="rotate" from="360 0 0" to="0 0 0" dur="45s" repeatCount="indefinite" />
        <circle r="60" fill="none" stroke="#581c87" stroke-width="2" opacity="0.5" />
        <path d="M0,-51L48.504,-15.76L29.977,41.26L-29.977,41.26L-48.504,-15.76Z" fill="none" stroke="#581c87" stroke-width="1.5" opacity="0.8" />
        <path d="M29.977,-41.26L48.504,15.76L0,51L-48.504,15.76L-29.977,-41.26Z" fill="none" stroke="#581c87" stroke-width="1.5" opacity="0.8" />
        <circle r="24" fill="none" stroke="#581c87" stroke-width="1" opacity="0.6" stroke-dasharray="2 6" />
      </g>
    
    <path fill="#e2e8f0" d="M292.54 50.45L292.54 50.45Q290.34 50.45 288.34 49.66Q286.34 48.88 284.78 47.47Q283.23 46.06 282.34 44.16Q281.44 42.26 281.44 40.05L281.44 40.05Q281.44 37.68 282.37 35.63Q283.30 33.58 284.93 32.05Q286.56 30.51 288.69 29.65Q290.82 28.78 293.22 28.78L293.22 28.78Q293.76 28.78 294.70 28.90Q295.65 29.01 296.66 29.17Q297.66 29.33 298.48 29.50Q299.30 29.68 299.62 29.84L299.62 29.84Q299.78 29.90 299.82 29.98Q299.87 30.06 299.90 30.22L299.90 30.22Q300.03 31.15 300.13 32.06Q300.22 32.98 300.22 33.62L300.22 33.62Q300.22 33.84 300.08 34.05Q299.94 34.26 299.74 34.26L299.74 34.26Q299.42 34.26 299.26 33.97Q299.10 33.68 299.01 33.39L299.01 33.39Q298.82 32.88 298.61 32.51Q298.40 32.14 298.02 31.70L298.02 31.70Q297.82 31.44 297.20 31.04Q296.58 30.64 295.52 30.32Q294.46 30 292.93 30L292.93 30Q291.07 30 289.54 30.78Q288 31.57 286.90 32.93Q285.79 34.29 285.20 36.02Q284.61 37.74 284.61 39.63L284.61 39.63Q284.61 41.90 285.31 43.70Q286.02 45.49 287.20 46.74Q288.38 47.98 289.89 48.62Q291.39 49.26 292.99 49.26L292.99 49.26Q294.85 49.26 295.73 48.82Q296.61 48.37 296.90 48.08L296.90 48.08Q297.25 47.73 297.55 47.09Q297.86 46.45 297.86 45.62L297.86 45.62Q297.86 45.33 297.87 45.01Q297.89 44.69 297.90 44.37Q297.92 44.05 297.92 43.76L297.92 43.76Q297.92 43.41 297.89 43.17Q297.86 42.93 297.76 42.80L297.76 42.80Q297.50 42.45 296.86 42.22Q296.22 42 295.58 41.90Q294.94 41.81 294.62 41.81L294.62 41.81Q294.50 41.81 294.24 41.65Q293.98 41.49 293.98 41.26L293.98 41.26Q293.98 41.01 294.24 40.86Q294.50 40.72 294.62 40.72L294.62 40.72Q295.42 40.72 296 40.75Q296.58 40.78 297.18 40.82Q297.79 40.85 298.66 40.85L298.66 40.85Q299.49 40.85 300.06 40.78Q300.64 40.72 301.50 40.72L301.50 40.72Q301.63 40.72 301.90 40.82Q302.18 40.91 302.18 41.23L302.18 41.23Q302.18 41.46 301.90 41.62Q301.63 41.78 301.50 41.81L301.50 41.81Q300.80 42 300.53 42.37Q300.26 42.74 300.16 43.38L300.16 43.38Q300.06 44.08 300.03 44.62Q300 45.17 300 45.78L300 45.78L300 46.64Q300 46.80 300.06 46.90Q300.13 46.99 300.19 47.15L300.19 47.15Q300.29 47.31 300.45 47.44Q300.61 47.57 300.61 47.70L300.61 47.70Q300.61 47.82 300.56 48.03Q300.51 48.24 300.16 48.30L300.16 48.30Q299.94 48.34 299.28 48.67Q298.62 49.01 297.63 49.42Q296.64 49.84 295.36 50.14Q294.08 50.45 292.54 50.45ZM304.90 50.10L304.90 50.10Q304.58 50.10 304.42 50.02Q304.26 49.94 304.26 49.74L304.26 49.74Q304.26 49.49 304.45 49.41Q304.64 49.33 304.99 49.23L304.99 49.23Q305.60 49.07 305.90 48.77Q306.21 48.46 306.21 48.02L306.21 48.02L306.21 41.14Q306.21 40.27 305.95 39.63Q305.70 38.99 304.90 38.83L304.90 38.83Q304.77 38.80 304.67 38.67Q304.58 38.54 304.58 38.42L304.58 38.42Q304.58 38.10 304.86 38.03L304.86 38.03Q305.70 37.78 306.61 37.28Q307.52 36.78 308.03 36.46L308.03 36.46Q308.22 36.34 308.34 36.29Q308.45 36.24 308.51 36.24L308.51 36.24Q308.67 36.24 308.67 36.46L308.67 36.46Q308.67 36.56 308.66 36.94Q308.64 37.33 308.62 37.84Q308.61 38.35 308.58 38.86L308.58 38.86Q308.58 38.93 308.64 38.93L308.64 38.93Q309.15 38.29 309.78 37.81Q310.40 37.33 311.06 37.04Q311.71 36.75 312.32 36.75L312.32 36.75Q312.99 36.75 313.42 37.04Q313.86 37.33 313.86 37.78L313.86 37.78Q313.86 38.10 313.68 38.48Q313.50 38.86 313.22 39.15Q312.93 39.44 312.61 39.44L312.61 39.44Q312.42 39.44 312.19 39.36Q311.97 39.28 311.71 39.15L311.71 39.15Q311.46 39.06 311.20 38.96Q310.94 38.86 310.69 38.86L310.69 38.86Q309.92 38.86 309.20 39.41Q308.48 39.95 308.48 41.55L308.48 41.55L308.48 48.02Q308.48 48.43 308.93 48.70Q309.38 48.98 310.18 49.23L310.18 49.23Q310.53 49.33 310.72 49.42Q310.91 49.52 310.91 49.74L310.91 49.74Q310.91 50.10 310.27 50.10L310.27 50.10Q309.31 50.10 308.82 50.02Q308.32 49.94 307.49 49.94L307.49 49.94Q306.94 49.94 306.61 49.97Q306.27 50 305.90 50.05Q305.54 50.10 304.90 50.10ZM315.42 50.10L315.42 50.10Q315.14 50.10 314.96 50.02Q314.78 49.94 314.78 49.74L314.78 49.74Q314.78 49.49 315.02 49.39Q315.26 49.30 315.52 49.23L315.52 49.23Q316.19 49.07 316.54 48.83Q316.90 48.59 316.90 48.02L316.90 48.02L316.90 41.07Q316.90 40.21 316.59 39.54Q316.29 38.86 315.46 38.74L315.46 38.74Q315.30 38.70 315.22 38.61Q315.14 38.51 315.14 38.32L315.14 38.32Q315.14 37.97 315.42 37.94L315.42 37.94Q316.70 37.65 317.54 37.15Q318.37 36.66 318.78 36.34L318.78 36.34Q319.07 36.11 319.23 36.11L319.23 36.11Q319.42 36.11 319.42 36.27L319.42 36.27Q319.42 36.53 319.34 37.28Q319.26 38.03 319.20 38.94Q319.14 39.86 319.14 40.59L319.14 40.59L319.14 48.02Q319.14 48.56 319.50 48.82Q319.87 49.07 320.51 49.23L320.51 49.23Q320.77 49.30 321.01 49.39Q321.25 49.49 321.25 49.74L321.25 49.74Q321.25 50.10 320.61 50.10L320.61 50.10Q320.00 50.10 319.63 50.05Q319.26 50 318.93 49.97Q318.59 49.94 318.02 49.94L318.02 49.94Q317.47 49.94 317.12 49.97Q316.77 50 316.42 50.05Q316.06 50.10 315.42 50.10ZM317.98 33.49L317.98 33.49Q317.31 33.49 316.85 33.02Q316.38 32.56 316.38 31.89L316.38 31.89Q316.38 31.18 316.85 30.72Q317.31 30.26 317.98 30.26L317.98 30.26Q318.69 30.26 319.15 30.72Q319.62 31.18 319.62 31.89L319.62 31.89Q319.62 32.56 319.15 33.02Q318.69 33.49 317.98 33.49ZM323.26 50.10L323.26 50.10Q323.01 50.10 322.82 50.03Q322.62 49.97 322.62 49.74L322.62 49.74Q322.62 49.52 322.83 49.42Q323.04 49.33 323.36 49.23L323.36 49.23Q323.81 49.07 324.27 48.86Q324.74 48.66 324.74 48.02L324.74 48.02L324.74 41.14Q324.74 40.27 324.54 39.62Q324.35 38.96 323.52 38.83L323.52 38.83Q323.39 38.80 323.31 38.70Q323.23 38.61 323.23 38.42L323.23 38.42Q323.23 38.10 323.49 38.03L323.49 38.03Q324.35 37.81 324.86 37.57Q325.38 37.33 325.78 37.02Q326.18 36.72 326.75 36.37L326.75 36.37Q326.82 36.34 326.88 36.29Q326.94 36.24 327.04 36.24L327.04 36.24Q327.23 36.24 327.23 36.46L327.23 36.46Q327.23 36.69 327.15 37.38Q327.07 38.06 327.07 38.51L327.07 38.51Q327.07 38.83 327.14 38.90L327.14 38.90L327.20 38.90Q327.94 38.19 329.14 37.47Q330.34 36.75 332.19 36.75L332.19 36.75Q333.34 36.75 334.11 37.25Q334.88 37.74 335.39 38.96L335.39 38.96L335.49 38.96Q336.51 38.03 337.82 37.39Q339.14 36.75 340.70 36.75L340.70 36.75Q341.76 36.75 342.46 37.39Q343.17 38.03 343.54 39.06Q343.90 40.08 343.90 41.20L343.90 41.20L343.90 48.02Q343.90 48.66 344.35 48.86Q344.80 49.07 345.28 49.23L345.28 49.23Q345.60 49.33 345.81 49.42Q346.02 49.52 346.02 49.74L346.02 49.74Q346.02 49.94 345.87 50.02Q345.73 50.10 345.38 50.10L345.38 50.10Q344.74 50.10 344.38 50.05Q344.03 50 343.73 49.97Q343.42 49.94 342.85 49.94L342.85 49.94Q342.30 49.94 341.95 49.97Q341.60 50 341.22 50.05Q340.83 50.10 340.19 50.10L340.19 50.10Q339.90 50.10 339.73 50.02Q339.55 49.94 339.55 49.74L339.55 49.74Q339.55 49.49 339.76 49.39Q339.97 49.30 340.29 49.23L340.29 49.23Q340.80 49.10 341.23 48.88Q341.66 48.66 341.66 48.02L341.66 48.02L341.66 41.30Q341.66 40.53 341.31 39.84Q340.96 39.15 340.38 38.70Q339.81 38.26 339.10 38.26L339.10 38.26Q338.30 38.26 337.62 38.45Q336.93 38.64 336.32 39.12L336.32 39.12Q335.42 39.82 335.42 41.42L335.42 41.42L335.42 48.02Q335.42 48.66 335.90 48.88Q336.38 49.10 336.86 49.23L336.86 49.23Q337.18 49.30 337.39 49.41Q337.60 49.52 337.60 49.74L337.60 49.74Q337.60 49.94 337.44 50.02Q337.28 50.10 336.96 50.10L336.96 50.10Q336.32 50.10 335.95 50.05Q335.58 50 335.25 49.97Q334.91 49.94 334.34 49.94L334.34 49.94Q333.79 49.94 333.44 49.97Q333.09 50 332.70 50.05Q332.32 50.10 331.68 50.10L331.68 50.10Q331.42 50.10 331.23 50.02Q331.04 49.94 331.04 49.74L331.04 49.74Q331.04 49.49 331.28 49.41Q331.52 49.33 331.78 49.23L331.78 49.23Q332.26 49.07 332.72 48.86Q333.18 48.66 333.18 48.02L333.18 48.02L333.18 41.30Q333.18 40.53 332.83 39.84Q332.48 39.15 331.90 38.70Q331.33 38.26 330.62 38.26L330.62 38.26Q329.82 38.26 329.14 38.45Q328.45 38.64 327.84 39.12L327.84 39.12Q326.98 39.76 326.98 41.42L326.98 41.42L326.98 48.02Q326.98 48.66 327.42 48.86Q327.87 49.07 328.35 49.23L328.35 49.23Q328.61 49.33 328.85 49.41Q329.09 49.49 329.09 49.74L329.09 49.74Q329.09 49.94 328.91 50.02Q328.74 50.10 328.45 50.10L328.45 50.10Q327.81 50.10 327.44 50.05Q327.07 50 326.75 49.97Q326.43 49.94 325.86 49.94L325.86 49.94Q325.31 49.94 324.98 49.97Q324.64 50 324.27 50.05Q323.90 50.10 323.26 50.10ZM354.24 50.45L354.24 50.45Q352.45 50.45 351.01 49.62Q349.57 48.78 348.72 47.33Q347.87 45.87 347.87 44.02L347.87 44.02Q347.87 42.67 348.40 41.39Q348.93 40.11 349.89 39.06Q350.85 38 352.13 37.38Q353.41 36.75 354.88 36.75L354.88 36.75Q356.74 36.75 358.22 37.65Q359.71 38.54 360.59 40Q361.47 41.46 361.47 43.18L361.47 43.18Q361.47 45.04 360.66 46.70Q359.84 48.37 358.24 49.41Q356.64 50.45 354.24 50.45ZM354.91 49.49L354.91 49.49Q356.00 49.49 356.86 49.07Q357.73 48.66 358.21 47.73L358.21 47.73Q358.59 46.99 358.72 45.94Q358.85 44.88 358.85 43.95L358.85 43.95Q358.85 42.42 358.29 40.99Q357.73 39.57 356.72 38.66Q355.71 37.74 354.34 37.74L354.34 37.74Q353.47 37.74 352.78 38.02Q352.10 38.29 351.52 39.02L351.52 39.02Q350.88 39.82 350.69 40.98Q350.50 42.13 350.50 43.28L350.50 43.28Q350.50 44.85 351.07 46.27Q351.65 47.70 352.64 48.59Q353.63 49.49 354.91 49.49ZM364.00 50.10L364.00 50.10Q363.71 50.10 363.54 50.02Q363.36 49.94 363.36 49.74L363.36 49.74Q363.36 49.49 363.60 49.39Q363.84 49.30 364.10 49.23L364.10 49.23Q364.77 49.07 365.12 48.83Q365.47 48.59 365.47 48.02L365.47 48.02L365.47 41.07Q365.47 40.21 365.17 39.54Q364.86 38.86 364.03 38.74L364.03 38.74Q363.87 38.70 363.79 38.61Q363.71 38.51 363.71 38.32L363.71 38.32Q363.71 37.97 364.00 37.94L364.00 37.94Q365.28 37.65 366.11 37.15Q366.94 36.66 367.36 36.34L367.36 36.34Q367.65 36.11 367.81 36.11L367.81 36.11Q368.00 36.11 368.00 36.27L368.00 36.27Q368.00 36.53 367.92 37.28Q367.84 38.03 367.78 38.94Q367.71 39.86 367.71 40.59L367.71 40.59L367.71 48.02Q367.71 48.56 368.08 48.82Q368.45 49.07 369.09 49.23L369.09 49.23Q369.34 49.30 369.58 49.39Q369.82 49.49 369.82 49.74L369.82 49.74Q369.82 50.10 369.18 50.10L369.18 50.10Q368.58 50.10 368.21 50.05Q367.84 50 367.50 49.97Q367.17 49.94 366.59 49.94L366.59 49.94Q366.05 49.94 365.70 49.97Q365.34 50 364.99 50.05Q364.64 50.10 364.00 50.10ZM366.56 33.49L366.56 33.49Q365.89 33.49 365.42 33.02Q364.96 32.56 364.96 31.89L364.96 31.89Q364.96 31.18 365.42 30.72Q365.89 30.26 366.56 30.26L366.56 30.26Q367.26 30.26 367.73 30.72Q368.19 31.18 368.19 31.89L368.19 31.89Q368.19 32.56 367.73 33.02Q367.26 33.49 366.56 33.49ZM372.00 50.10L372.00 50.10Q371.68 50.10 371.52 50.02Q371.36 49.94 371.36 49.74L371.36 49.74Q371.36 49.49 371.55 49.41Q371.74 49.33 372.10 49.23L372.10 49.23Q372.70 49.07 373.01 48.77Q373.31 48.46 373.31 48.02L373.31 48.02L373.31 41.14Q373.31 40.27 373.06 39.63Q372.80 38.99 372.00 38.83L372.00 38.83Q371.87 38.80 371.78 38.67Q371.68 38.54 371.68 38.42L371.68 38.42Q371.68 38.10 371.97 38.03L371.97 38.03Q372.80 37.78 373.71 37.28Q374.62 36.78 375.14 36.46L375.14 36.46Q375.33 36.34 375.44 36.29Q375.55 36.24 375.62 36.24L375.62 36.24Q375.78 36.24 375.78 36.46L375.78 36.46Q375.78 36.56 375.76 36.94Q375.74 37.33 375.73 37.84Q375.71 38.35 375.68 38.86L375.68 38.86Q375.68 38.93 375.74 38.93L375.74 38.93Q376.26 38.29 376.88 37.81Q377.50 37.33 378.16 37.04Q378.82 36.75 379.42 36.75L379.42 36.75Q380.10 36.75 380.53 37.04Q380.96 37.33 380.96 37.78L380.96 37.78Q380.96 38.10 380.78 38.48Q380.61 38.86 380.32 39.15Q380.03 39.44 379.71 39.44L379.71 39.44Q379.52 39.44 379.30 39.36Q379.07 39.28 378.82 39.15L378.82 39.15Q378.56 39.06 378.30 38.96Q378.05 38.86 377.79 38.86L377.79 38.86Q377.02 38.86 376.30 39.41Q375.58 39.95 375.58 41.55L375.58 41.55L375.58 48.02Q375.58 48.43 376.03 48.70Q376.48 48.98 377.28 49.23L377.28 49.23Q377.63 49.33 377.82 49.42Q378.02 49.52 378.02 49.74L378.02 49.74Q378.02 50.10 377.38 50.10L377.38 50.10Q376.42 50.10 375.92 50.02Q375.42 49.94 374.59 49.94L374.59 49.94Q374.05 49.94 373.71 49.97Q373.38 50 373.01 50.05Q372.64 50.10 372.00 50.10ZM387.94 50.48L387.94 50.48Q386.18 50.48 384.86 49.62Q383.55 48.75 382.82 47.17Q382.08 45.58 382.08 43.50L382.08 43.50Q382.08 41.65 382.93 40.13Q383.78 38.61 385.18 37.68Q386.59 36.75 388.26 36.75L388.26 36.75Q389.54 36.75 390.53 37.26Q391.52 37.78 392.08 38.69Q392.64 39.60 392.64 40.78L392.64 40.78Q392.64 41.78 391.68 41.78L391.68 41.78L384.93 41.78Q384.48 41.78 384.30 42.02Q384.13 42.26 384.13 42.96L384.13 42.96Q384.13 44.50 384.80 45.76Q385.47 47.02 386.59 47.78Q387.71 48.53 389.06 48.53L389.06 48.53Q390.02 48.53 390.80 48.16Q391.58 47.79 392.19 47.09L392.19 47.09Q392.32 46.93 392.38 46.88Q392.45 46.83 392.54 46.83L392.54 46.83Q392.80 46.83 392.80 47.15L392.80 47.15Q392.80 47.76 392.22 48.50L392.22 48.50Q391.74 49.10 391.07 49.55Q390.40 50 389.60 50.24Q388.80 50.48 387.94 50.48ZM384.99 40.78L384.99 40.78L387.90 40.78Q388.67 40.78 389.22 40.75Q389.76 40.72 390.27 40.62L390.27 40.62Q390.43 40.59 390.48 40.42Q390.53 40.24 390.53 39.92L390.53 39.92Q390.53 38.99 389.71 38.34Q388.90 37.68 387.78 37.68L387.78 37.68Q387.04 37.68 386.30 38.11Q385.57 38.54 385.09 39.18Q384.61 39.82 384.61 40.46L384.61 40.46Q384.61 40.78 384.99 40.78ZM407.49 50.45L407.49 50.45Q405.70 50.45 404.26 49.62Q402.82 48.78 401.97 47.33Q401.12 45.87 401.12 44.02L401.12 44.02Q401.12 42.67 401.65 41.39Q402.18 40.11 403.14 39.06Q404.10 38 405.38 37.38Q406.66 36.75 408.13 36.75L408.13 36.75Q409.98 36.75 411.47 37.65Q412.96 38.54 413.84 40Q414.72 41.46 414.72 43.18L414.72 43.18Q414.72 45.04 413.90 46.70Q413.09 48.37 411.49 49.41Q409.89 50.45 407.49 50.45ZM408.16 49.49L408.16 49.49Q409.25 49.49 410.11 49.07Q410.98 48.66 411.46 47.73L411.46 47.73Q411.84 46.99 411.97 45.94Q412.10 44.88 412.10 43.95L412.10 43.95Q412.10 42.42 411.54 40.99Q410.98 39.57 409.97 38.66Q408.96 37.74 407.58 37.74L407.58 37.74Q406.72 37.74 406.03 38.02Q405.34 38.29 404.77 39.02L404.77 39.02Q404.13 39.82 403.94 40.98Q403.74 42.13 403.74 43.28L403.74 43.28Q403.74 44.85 404.32 46.27Q404.90 47.70 405.89 48.59Q406.88 49.49 408.16 49.49ZM417.25 50.10L417.25 50.10Q416.93 50.10 416.77 50.02Q416.61 49.94 416.61 49.74L416.61 49.74Q416.61 49.49 416.82 49.39Q417.02 49.30 417.34 49.23L417.34 49.23Q418.08 49.07 418.40 48.77Q418.72 48.46 418.72 47.82L418.72 47.82L418.72 38.80Q418.40 38.80 417.98 38.78Q417.57 38.77 417.06 38.74L417.06 38.74Q416.96 38.70 416.78 38.51Q416.61 38.32 416.61 38.16L416.61 38.16Q416.61 38.10 416.70 38.05Q416.80 38 416.83 37.97L416.83 37.97Q417.41 37.68 417.82 37.46Q418.24 37.23 418.72 37.01L418.72 37.01Q418.72 34.22 419.41 32.37Q420.10 30.51 421.18 29.42Q422.27 28.34 423.49 27.87Q424.70 27.41 425.76 27.41L425.76 27.41Q427.55 27.41 428.42 27.95Q429.28 28.50 429.28 29.33L429.28 29.33Q429.28 29.97 428.96 30.29Q428.64 30.61 428.19 30.61L428.19 30.61Q427.90 30.61 427.66 30.38Q427.42 30.16 427.10 29.87L427.10 29.87Q426.69 29.46 426.08 29.09Q425.47 28.72 424.42 28.72L424.42 28.72Q422.91 28.72 421.94 30.03Q420.96 31.34 420.96 34.06L420.96 34.06L420.96 36.88Q420.96 37.07 421.07 37.14Q421.18 37.20 421.31 37.20L421.31 37.20L425.31 37.20Q425.47 37.20 425.60 37.30Q425.73 37.39 425.73 37.55L425.73 37.55Q425.73 37.78 425.68 38.03Q425.63 38.29 425.54 38.48L425.54 38.48Q425.44 38.74 425.25 38.74L425.25 38.74L421.57 38.74Q421.18 38.74 421.07 38.85Q420.96 38.96 420.96 39.15L420.96 39.15L420.96 47.82Q420.96 48.46 421.38 48.77Q421.79 49.07 423.07 49.23L423.07 49.23Q423.81 49.33 423.81 49.74L423.81 49.74Q423.81 49.94 423.65 50.02Q423.49 50.10 423.17 50.10L423.17 50.10Q422.21 50.10 421.47 50.02Q420.74 49.94 419.90 49.94L419.90 49.94Q419.36 49.94 419.01 49.97Q418.66 50 418.27 50.05Q417.89 50.10 417.25 50.10ZM433.95 50.16L433.95 50.16Q433.54 50.16 433.28 50.08Q433.02 50 433.02 49.81L433.02 49.81Q433.02 49.42 434.08 49.23L434.08 49.23Q435.30 49.01 435.94 48.50Q436.58 47.98 436.58 46.83L436.58 46.83L436.58 32.43Q436.58 31.28 436.10 30.74Q435.62 30.19 434.43 30.10L434.43 30.10Q433.89 30.03 433.63 29.86Q433.38 29.68 433.38 29.46L433.38 29.46Q433.38 29.26 433.63 29.18Q433.89 29.10 434.30 29.10L434.30 29.10Q435.17 29.10 435.65 29.10Q436.13 29.10 436.56 29.12Q436.99 29.14 437.63 29.14L437.63 29.14Q438.24 29.14 438.69 29.09Q439.14 29.04 439.70 29.01Q440.26 28.98 441.18 28.98L441.18 28.98Q444.93 28.98 446.77 30.05Q448.61 31.12 448.61 33.74L448.61 33.74Q448.61 34.83 448.24 35.65Q447.87 36.46 447.52 36.82L447.52 36.82Q447.01 37.33 446.59 37.60Q446.18 37.87 445.38 38.19L445.38 38.19Q445.25 38.22 445.25 38.34Q445.25 38.45 445.38 38.51L445.38 38.51Q446.11 38.74 446.90 39.09Q447.68 39.44 448.37 40Q449.06 40.56 449.49 41.47Q449.92 42.38 449.92 43.79L449.92 43.79Q449.92 45.55 449.36 46.58Q448.80 47.60 448.03 48.14Q447.26 48.69 446.59 49.04L446.59 49.04Q445.60 49.55 444.29 49.84Q442.98 50.13 441.15 50.13L441.15 50.13Q440.74 50.13 439.90 50.06Q439.07 50 438.11 50L438.11 50Q437.28 50 436.70 50.03Q436.13 50.06 435.50 50.11Q434.88 50.16 433.95 50.16ZM441.60 48.82L441.60 48.82Q443.01 48.82 444.22 48.18Q445.44 47.54 446.18 46.43Q446.91 45.33 446.91 43.95L446.91 43.95Q446.91 42.70 446.50 41.89Q446.08 41.07 445.54 40.56Q444.99 40.05 444.54 39.82L444.54 39.82Q444.13 39.57 443.23 39.30Q442.34 39.02 440.90 39.02L440.90 39.02Q439.87 39.02 439.47 39.44Q439.07 39.86 439.07 40.18L439.07 40.18L439.07 46.54Q439.07 47.89 439.73 48.35Q440.38 48.82 441.60 48.82ZM440.54 38.13L440.54 38.13Q441.41 38.13 442.42 37.94Q443.42 37.74 444.42 37.20L444.42 37.20Q444.77 37.01 445.31 36.27Q445.86 35.54 445.86 34.16L445.86 34.16Q445.86 33.23 445.50 32.26Q445.15 31.28 444.16 30.61Q443.17 29.94 441.18 29.94L441.18 29.94Q439.87 29.94 439.47 30.29Q439.07 30.64 439.07 31.38L439.07 31.38L439.07 36.94Q439.07 37.78 439.62 37.95Q440.16 38.13 440.54 38.13ZM454.94 50.45L454.94 50.45Q454.37 50.45 453.78 50Q453.18 49.55 452.78 48.91Q452.38 48.27 452.38 47.70L452.38 47.70Q452.38 46.67 452.93 46.10Q453.47 45.52 454.66 45.04L454.66 45.04L457.92 43.70Q458.56 43.44 458.67 43.25Q458.78 43.06 458.82 42.42L458.82 42.42L458.88 40.37Q458.91 39.54 458.42 38.93Q457.92 38.32 456.99 38.32L456.99 38.32Q456.51 38.32 456.03 38.48Q455.55 38.64 455.23 38.90L455.23 38.90Q455.04 39.02 454.98 39.28Q454.91 39.54 454.91 39.82L454.91 39.82Q454.91 39.95 454.93 40.11Q454.94 40.27 454.94 40.40L454.94 40.40Q454.94 40.56 454.54 40.83Q454.14 41.10 453.65 41.31Q453.15 41.52 452.83 41.52L452.83 41.52Q452.67 41.52 452.58 41.44Q452.48 41.36 452.48 41.23L452.48 41.23Q452.48 40.72 452.82 40.13Q453.15 39.54 453.76 39.02L453.76 39.02Q454.50 38.35 455.36 37.84Q456.22 37.33 457.06 37.04Q457.89 36.75 458.53 36.75L458.53 36.75Q459.68 36.75 460.43 37.57Q461.18 38.38 461.15 39.60L461.15 39.60L460.99 47.28Q460.96 47.95 461.30 48.37Q461.63 48.78 462.14 48.78L462.14 48.78Q462.94 48.78 463.33 48.43L463.33 48.43Q463.49 48.27 463.58 48.27L463.58 48.27Q463.74 48.27 463.84 48.37Q463.94 48.46 463.94 48.62L463.94 48.62Q463.94 48.98 463.58 49.33L463.58 49.33Q463.07 49.84 462.48 50.14Q461.89 50.45 461.38 50.45L461.38 50.45Q459.90 50.45 459.04 48.78L459.04 48.78L458.94 48.78Q457.89 49.65 456.93 50.05Q455.97 50.45 454.94 50.45ZM456.45 48.91L456.45 48.91Q457.09 48.91 457.54 48.70Q457.98 48.50 458.34 48.14L458.34 48.14Q458.50 47.98 458.61 47.71Q458.72 47.44 458.75 46.83L458.75 46.83L458.82 45.26Q458.85 44.91 458.78 44.75Q458.72 44.59 458.53 44.59L458.53 44.59Q458.46 44.59 458.30 44.62Q458.14 44.66 457.89 44.75L457.89 44.75Q456.19 45.36 455.54 46.02Q454.88 46.67 454.88 47.22L454.88 47.22Q454.88 48.05 455.38 48.48Q455.87 48.91 456.45 48.91ZM470.78 50.48L470.78 50.48Q469.18 50.48 467.89 49.66Q466.59 48.85 465.84 47.42Q465.09 46 465.09 44.24L465.09 44.24Q465.09 42.16 466.00 40.46Q466.91 38.77 468.45 37.76Q469.98 36.75 471.84 36.75L471.84 36.75Q473.92 36.75 475.49 37.87L475.49 37.87Q475.87 38.16 475.87 38.48L475.87 38.48Q475.87 38.74 475.65 39.06Q475.42 39.38 475.10 39.58Q474.78 39.79 474.50 39.79L474.50 39.79Q474.34 39.79 474.18 39.68Q474.02 39.57 473.82 39.44L473.82 39.44Q473.12 38.90 472.26 38.42Q471.39 37.94 470.82 37.94L470.82 37.94Q469.25 37.94 468.27 39.39Q467.30 40.85 467.30 43.22L467.30 43.22Q467.30 44.72 467.95 45.94Q468.61 47.15 469.71 47.86Q470.82 48.56 472.16 48.56L472.16 48.56Q473.09 48.56 473.76 48.26Q474.43 47.95 475.20 47.18L475.20 47.18Q475.26 47.12 475.36 47.07Q475.46 47.02 475.52 47.02L475.52 47.02Q475.87 47.02 475.87 47.47L475.87 47.47Q475.87 47.66 475.76 47.90Q475.65 48.14 475.39 48.46L475.39 48.46Q474.88 49.10 474.18 49.57Q473.47 50.03 472.62 50.26Q471.78 50.48 470.78 50.48ZM478.34 50.10L478.34 50.10Q477.60 50.10 477.60 49.74L477.60 49.74Q477.60 49.49 477.84 49.41Q478.08 49.33 478.34 49.23L478.34 49.23Q478.82 49.07 479.26 48.82Q479.71 48.56 479.71 47.92L479.71 47.92L479.71 31.89Q479.71 30.77 479.39 30.26Q479.07 29.74 478.27 29.55L478.27 29.55Q477.98 29.49 477.98 29.14L477.98 29.14Q477.98 28.82 478.24 28.75L478.24 28.75Q479.07 28.56 479.68 28.35Q480.29 28.14 480.78 27.94Q481.28 27.73 481.76 27.54L481.76 27.54Q481.95 27.44 482.05 27.44L482.05 27.44Q482.14 27.44 482.19 27.50Q482.24 27.57 482.24 27.73L482.24 27.73Q482.24 28.05 482.10 29.01Q481.95 29.97 481.95 32.02L481.95 32.02L481.95 42.51Q481.95 42.80 482.11 42.80L482.11 42.80Q482.30 42.80 482.61 42.64Q482.91 42.48 483.26 42.16L483.26 42.16Q484.58 41.04 485.46 40.13Q486.34 39.22 486.66 38.86L486.66 38.86Q486.82 38.67 486.88 38.56Q486.94 38.45 486.94 38.38L486.94 38.38Q486.94 38.22 486.67 38.10Q486.40 37.97 486.11 37.90L486.11 37.90Q485.73 37.81 485.73 37.58L485.73 37.58Q485.73 37.42 485.92 37.31Q486.11 37.20 486.43 37.20L486.43 37.20L488.00 37.20Q488.51 37.20 489.07 37.10Q489.63 37.01 490.13 36.91Q490.62 36.82 490.91 36.82L490.91 36.82Q491.36 36.82 491.36 37.14L491.36 37.14Q491.36 37.33 491.14 37.47Q490.91 37.62 490.56 37.71L490.56 37.71Q489.95 37.87 489.42 38.16Q488.90 38.45 488.45 38.70L488.45 38.70Q488.26 38.83 487.57 39.39Q486.88 39.95 486.00 40.69Q485.12 41.42 484.35 42.10L484.35 42.10Q484.16 42.29 484.16 42.42L484.16 42.42Q484.16 42.45 484.19 42.51Q484.22 42.58 484.26 42.64L484.26 42.64Q485.09 43.66 486.05 44.72Q487.01 45.78 487.82 46.58Q488.64 47.38 488.96 47.70L488.96 47.70Q489.50 48.21 490.19 48.61Q490.88 49.01 491.36 49.17L491.36 49.17Q491.71 49.30 492.02 49.39Q492.32 49.49 492.32 49.74L492.32 49.74Q492.32 50.10 491.68 50.10L491.68 50.10Q490.43 50.10 488.88 50.05Q487.33 50 485.70 50L485.70 50Q485.12 50 485.12 49.71L485.12 49.71Q485.12 49.52 485.28 49.39Q485.44 49.26 485.66 49.20L485.66 49.20Q486.02 49.07 486.27 48.91Q486.53 48.75 486.53 48.46L486.53 48.46Q486.53 48.37 486.46 48.26Q486.40 48.14 486.30 48.02L486.30 48.02L482.43 43.63Q482.24 43.41 482.11 43.41L482.11 43.41Q481.95 43.41 481.95 43.63L481.95 43.63Q481.92 44.08 481.92 44.61Q481.92 45.14 481.92 45.68L481.92 45.68Q481.92 46.22 481.92 46.80Q481.92 47.38 481.95 47.92L481.95 47.92Q481.95 48.56 482.27 48.82Q482.59 49.07 483.07 49.23L483.07 49.23Q483.33 49.33 483.57 49.41Q483.81 49.49 483.81 49.74L483.81 49.74Q483.81 49.97 483.50 50.03Q483.20 50.10 483.07 50.10L483.07 50.10Q482.46 50.10 482.18 50.05Q481.89 50 481.65 49.97Q481.41 49.94 480.83 49.94L480.83 49.94Q480.29 49.94 479.97 49.97Q479.65 50 479.31 50.05Q478.98 50.10 478.34 50.10ZM498.82 50.48L498.82 50.48Q497.06 50.48 495.74 49.62Q494.43 48.75 493.70 47.17Q492.96 45.58 492.96 43.50L492.96 43.50Q492.96 41.65 493.81 40.13Q494.66 38.61 496.06 37.68Q497.47 36.75 499.14 36.75L499.14 36.75Q500.42 36.75 501.41 37.26Q502.40 37.78 502.96 38.69Q503.52 39.60 503.52 40.78L503.52 40.78Q503.52 41.78 502.56 41.78L502.56 41.78L495.81 41.78Q495.36 41.78 495.18 42.02Q495.01 42.26 495.01 42.96L495.01 42.96Q495.01 44.50 495.68 45.76Q496.35 47.02 497.47 47.78Q498.59 48.53 499.94 48.53L499.94 48.53Q500.90 48.53 501.68 48.16Q502.46 47.79 503.07 47.09L503.07 47.09Q503.20 46.93 503.26 46.88Q503.33 46.83 503.42 46.83L503.42 46.83Q503.68 46.83 503.68 47.15L503.68 47.15Q503.68 47.76 503.10 48.50L503.10 48.50Q502.62 49.10 501.95 49.55Q501.28 50 500.48 50.24Q499.68 50.48 498.82 50.48ZM495.87 40.78L495.87 40.78L498.78 40.78Q499.55 40.78 500.10 40.75Q500.64 40.72 501.15 40.62L501.15 40.62Q501.31 40.59 501.36 40.42Q501.41 40.24 501.41 39.92L501.41 39.92Q501.41 38.99 500.59 38.34Q499.78 37.68 498.66 37.68L498.66 37.68Q497.92 37.68 497.18 38.11Q496.45 38.54 495.97 39.18Q495.49 39.82 495.49 40.46L495.49 40.46Q495.49 40.78 495.87 40.78ZM505.89 50.10L505.89 50.10Q505.60 50.10 505.42 50.02Q505.25 49.94 505.25 49.74L505.25 49.74Q505.25 49.49 505.44 49.41Q505.63 49.33 505.98 49.23L505.98 49.23Q506.46 49.10 506.91 48.88Q507.36 48.66 507.36 48.02L507.36 48.02L507.36 41.14Q507.36 40.27 507.18 39.66Q507.01 39.06 506.18 38.83L506.18 38.83Q506.05 38.77 505.95 38.69Q505.86 38.61 505.86 38.42L505.86 38.42Q505.86 38.06 506.14 38.03L506.14 38.03Q507.26 37.74 507.97 37.33Q508.67 36.91 509.34 36.40L509.34 36.40Q509.44 36.34 509.52 36.29Q509.60 36.24 509.70 36.24L509.70 36.24Q509.76 36.24 509.81 36.30Q509.86 36.37 509.86 36.46L509.86 36.46Q509.86 36.69 509.78 37.38Q509.70 38.06 509.70 38.51L509.70 38.51Q509.70 38.64 509.71 38.75Q509.73 38.86 509.76 38.90L509.76 38.90Q510.88 37.84 512.14 37.30Q513.41 36.75 514.91 36.75L514.91 36.75Q516.48 36.75 517.50 38.03Q518.53 39.31 518.53 41.20L518.53 41.20L518.53 48.02Q518.53 48.66 518.98 48.86Q519.42 49.07 519.90 49.23L519.90 49.23Q520.16 49.33 520.40 49.44Q520.64 49.55 520.64 49.81L520.64 49.81Q520.64 50 520.42 50.05Q520.19 50.10 520.00 50.10L520.00 50.10Q519.36 50.10 519.01 50.05Q518.66 50 518.34 49.97Q518.02 49.94 517.44 49.94L517.44 49.94Q516.90 49.94 516.54 49.97Q516.19 50 515.82 50.05Q515.46 50.10 514.82 50.10L514.82 50.10Q514.66 50.10 514.42 50.05Q514.18 50 514.18 49.81L514.18 49.81Q514.18 49.55 514.42 49.44Q514.66 49.33 514.91 49.23L514.91 49.23Q515.39 49.07 515.84 48.86Q516.29 48.66 516.29 48.02L516.29 48.02L516.29 41.30Q516.29 39.89 515.50 39.10Q514.72 38.32 513.41 38.29L513.41 38.29Q512.26 38.29 511.39 38.66Q510.53 39.02 509.86 39.57L509.86 39.57Q509.73 39.70 509.66 39.90Q509.60 40.11 509.60 40.30L509.60 40.30L509.60 48.02Q509.60 48.66 510.05 48.88Q510.50 49.10 510.98 49.23L510.98 49.23Q511.71 49.42 511.71 49.74L511.71 49.74Q511.71 49.94 511.55 50.02Q511.39 50.10 511.07 50.10L511.07 50.10Q510.43 50.10 510.06 50.05Q509.70 50 509.38 49.97Q509.06 49.94 508.48 49.94L508.48 49.94Q507.94 49.94 507.60 49.97Q507.26 50 506.90 50.05Q506.53 50.10 505.89 50.10ZM532.80 50.61L532.80 50.61Q532.74 50.61 532.59 50.48Q532.45 50.35 532.45 50.29L532.45 50.29Q532.45 49.97 532.53 49.38Q532.61 48.78 532.61 48.37L532.61 48.37L532.61 48.18Q532.13 48.91 531.07 49.68Q530.02 50.45 528.42 50.45L528.42 50.45Q526.59 50.45 525.26 49.49Q523.94 48.53 523.22 47.02Q522.50 45.52 522.50 43.92L522.50 43.92Q522.50 42.06 523.36 40.43Q524.22 38.80 525.84 37.78Q527.46 36.75 529.70 36.75L529.70 36.75Q530.34 36.75 530.99 36.86Q531.65 36.98 532.00 37.10L532.00 37.10Q532.29 37.20 532.42 37.20L532.42 37.20Q532.64 37.20 532.64 36.43L532.64 36.43L532.64 31.89Q532.64 30.58 532.22 30.13Q531.81 29.68 531.04 29.55L531.04 29.55Q530.75 29.49 530.75 29.14L530.75 29.14Q530.75 28.85 531.01 28.75L531.01 28.75Q532.42 28.40 533.22 28.08Q534.02 27.76 534.46 27.57L534.46 27.57Q534.59 27.50 534.70 27.49Q534.82 27.47 534.88 27.47L534.88 27.47Q535.07 27.47 535.10 27.66L535.10 27.66Q535.10 27.86 535.06 28.32Q535.01 28.78 534.94 29.68Q534.88 30.58 534.88 32.02L534.88 32.02L534.88 46.48Q534.88 47.57 535.04 48.06Q535.20 48.56 535.55 48.56L535.55 48.56Q535.71 48.56 536.11 48.53Q536.51 48.50 536.93 48.46L536.93 48.46Q537.50 48.43 537.50 48.75L537.50 48.75Q537.50 48.98 537.36 49.15Q537.22 49.33 537.06 49.33L537.06 49.33Q536.16 49.46 535.30 49.70Q534.43 49.94 533.31 50.42L533.31 50.42Q533.06 50.54 532.98 50.58Q532.90 50.61 532.80 50.61ZM529.57 48.78L529.57 48.78Q530.40 48.78 531.20 48.35Q532.00 47.92 532.61 47.22L532.61 47.22L532.64 41.46Q532.64 40.59 532.14 39.76Q531.65 38.93 530.77 38.40Q529.89 37.87 528.70 37.87L528.70 37.87Q527.97 37.87 527.04 38.32Q526.11 38.77 525.44 39.90Q524.77 41.04 524.77 43.18L524.77 43.18Q524.77 45.01 525.31 46.11Q525.86 47.22 526.64 47.79Q527.42 48.37 528.24 48.58Q529.06 48.78 529.57 48.78Z"/>
    <path fill="#581c87" opacity="0.8" d="M292.02 90.31L292.02 90.31Q291.86 90.31 291.38 90.04Q290.91 89.77 290.48 89.17L290.48 89.17Q290.40 89.08 290.04 88.63Q289.67 88.18 289.10 87.51Q288.53 86.83 287.87 86.04Q287.20 85.25 286.53 84.46Q285.87 83.66 285.29 82.99Q284.72 82.31 284.33 81.86Q283.94 81.40 283.85 81.29L283.85 81.29Q283.73 81.13 283.64 81.06Q283.55 81 283.47 81L283.47 81Q283.38 81 283.35 81.14Q283.31 81.27 283.31 81.38L283.31 81.38Q283.29 82.26 283.28 83.41Q283.26 84.56 283.24 85.79Q283.22 87.01 283.22 88.13L283.22 88.13Q283.22 88.61 283.46 89.03Q283.71 89.44 284.37 89.57L284.37 89.57Q284.68 89.62 284.82 89.69Q284.97 89.77 284.97 89.89L284.97 89.89Q284.97 90 284.82 90.05Q284.68 90.09 284.45 90.09L284.45 90.09Q283.96 90.09 283.72 90.06Q283.47 90.04 283.29 90.02Q283.10 90 282.75 90L282.75 90Q282.43 90 282.25 90.02Q282.07 90.04 281.84 90.06Q281.60 90.09 281.12 90.09L281.12 90.09Q280.88 90.09 280.74 90.05Q280.59 90 280.59 89.89L280.59 89.89Q280.59 89.77 280.74 89.69Q280.88 89.62 281.19 89.55L281.19 89.55Q281.71 89.41 281.94 89.02Q282.18 88.63 282.23 88.07L282.23 88.07Q282.30 87.39 282.38 86.27Q282.45 85.14 282.50 83.75Q282.56 82.35 282.56 80.87L282.56 80.87Q282.56 79.92 282.06 79.51Q281.57 79.09 280.77 78.84L280.77 78.84Q280.70 78.80 280.46 78.69Q280.22 78.57 280.22 78.41L280.22 78.41Q280.22 78.25 280.38 78.20Q280.54 78.16 280.63 78.16L280.63 78.16Q281.15 78.17 281.48 78.18Q281.80 78.19 282.05 78.21Q282.30 78.23 282.61 78.24Q282.92 78.25 283.40 78.25L283.40 78.25Q283.56 78.25 283.65 78.34Q283.74 78.43 283.83 78.55L283.83 78.55Q283.91 78.66 284.31 79.16Q284.72 79.65 285.32 80.40Q285.92 81.14 286.64 82.02Q287.36 82.89 288.08 83.76Q288.80 84.64 289.41 85.38Q290.03 86.13 290.43 86.62Q290.84 87.10 290.91 87.19L290.91 87.19Q290.98 87.26 291.12 87.41Q291.25 87.55 291.36 87.55L291.36 87.55Q291.52 87.55 291.54 87.17L291.54 87.17Q291.54 86.92 291.55 86.21Q291.56 85.50 291.56 84.48Q291.57 83.47 291.57 82.28Q291.57 81.09 291.57 79.85L291.57 79.85Q291.56 79.49 291.20 79.20Q290.84 78.91 290.53 78.86L290.53 78.86Q290.22 78.80 289.97 78.71Q289.72 78.62 289.72 78.50L289.72 78.50Q289.72 78.39 289.97 78.34Q290.22 78.30 290.46 78.30L290.46 78.30Q290.64 78.30 290.81 78.30Q290.98 78.30 291.15 78.30Q291.32 78.30 291.48 78.30L291.48 78.30Q291.92 78.30 292.17 78.29Q292.42 78.28 292.72 78.26Q293.01 78.25 293.55 78.25L293.55 78.25Q293.79 78.25 293.93 78.29Q294.08 78.34 294.08 78.44L294.08 78.44Q294.08 78.70 293.48 78.80L293.48 78.80Q292.82 78.93 292.60 79.13Q292.38 79.33 292.35 79.78L292.35 79.78Q292.35 79.87 292.34 80.48Q292.33 81.09 292.33 82.03Q292.33 82.96 292.32 84.04Q292.31 85.12 292.31 86.19Q292.31 87.26 292.31 88.11L292.31 88.11Q292.31 88.54 292.34 88.89Q292.37 89.24 292.38 89.49Q292.40 89.73 292.40 89.86L292.40 89.86Q292.40 90.14 292.29 90.22Q292.17 90.31 292.02 90.31ZM298.47 90.25L298.47 90.25Q297.46 90.25 296.65 89.78Q295.84 89.32 295.36 88.50Q294.89 87.68 294.89 86.63L294.89 86.63Q294.89 85.88 295.18 85.16Q295.48 84.44 296.02 83.84Q296.56 83.25 297.28 82.90Q298.00 82.55 298.83 82.55L298.83 82.55Q299.87 82.55 300.71 83.05Q301.55 83.56 302.04 84.38Q302.54 85.19 302.54 86.17L302.54 86.17Q302.54 87.21 302.08 88.15Q301.62 89.08 300.72 89.67Q299.82 90.25 298.47 90.25ZM298.85 89.71L298.85 89.71Q299.46 89.71 299.94 89.48Q300.43 89.24 300.70 88.72L300.70 88.72Q300.92 88.31 300.99 87.71Q301.06 87.12 301.06 86.60L301.06 86.60Q301.06 85.73 300.75 84.93Q300.43 84.13 299.86 83.62Q299.30 83.11 298.52 83.11L298.52 83.11Q298.04 83.11 297.65 83.26Q297.26 83.41 296.94 83.83L296.94 83.83Q296.58 84.28 296.47 84.92Q296.36 85.57 296.36 86.22L296.36 86.22Q296.36 87.10 296.69 87.90Q297.01 88.70 297.57 89.21Q298.13 89.71 298.85 89.71ZM309.59 90.34L309.59 90.34Q309.56 90.34 309.48 90.27Q309.39 90.20 309.39 90.16L309.39 90.16Q309.39 89.98 309.44 89.65Q309.48 89.32 309.48 89.08L309.48 89.08L309.48 88.97Q309.21 89.39 308.62 89.82Q308.03 90.25 307.13 90.25L307.13 90.25Q306.10 90.25 305.35 89.71Q304.61 89.17 304.20 88.33Q303.80 87.48 303.80 86.58L303.80 86.58Q303.80 85.54 304.28 84.62Q304.77 83.70 305.68 83.12Q306.59 82.55 307.85 82.55L307.85 82.55Q308.21 82.55 308.58 82.61Q308.94 82.67 309.14 82.75L309.14 82.75Q309.30 82.80 309.38 82.80L309.38 82.80Q309.50 82.80 309.50 82.37L309.50 82.37L309.50 79.81Q309.50 79.07 309.27 78.82Q309.03 78.57 308.60 78.50L308.60 78.50Q308.44 78.46 308.44 78.26L308.44 78.26Q308.44 78.10 308.58 78.05L308.58 78.05Q309.38 77.85 309.83 77.67Q310.28 77.49 310.53 77.38L310.53 77.38Q310.60 77.35 310.66 77.34Q310.73 77.33 310.76 77.33L310.76 77.33Q310.87 77.33 310.89 77.44L310.89 77.44Q310.89 77.54 310.86 77.80Q310.83 78.07 310.80 78.57Q310.76 79.07 310.76 79.88L310.76 79.88L310.76 88.02Q310.76 88.63 310.85 88.91Q310.94 89.19 311.14 89.19L311.14 89.19Q311.23 89.19 311.46 89.17Q311.68 89.15 311.91 89.14L311.91 89.14Q312.24 89.12 312.24 89.30L312.24 89.30Q312.24 89.42 312.16 89.52Q312.08 89.62 311.99 89.62L311.99 89.62Q311.48 89.69 311.00 89.83Q310.51 89.96 309.88 90.23L309.88 90.23Q309.74 90.31 309.69 90.32Q309.65 90.34 309.59 90.34ZM307.77 89.32L307.77 89.32Q308.24 89.32 308.69 89.07Q309.14 88.83 309.48 88.43L309.48 88.43L309.50 85.19Q309.50 84.71 309.22 84.24Q308.94 83.77 308.45 83.47Q307.95 83.18 307.29 83.18L307.29 83.18Q306.87 83.18 306.35 83.43Q305.83 83.68 305.45 84.32Q305.07 84.96 305.07 86.17L305.07 86.17Q305.07 87.19 305.38 87.81Q305.69 88.43 306.13 88.76Q306.57 89.08 307.03 89.20Q307.49 89.32 307.77 89.32ZM316.11 90.27L316.11 90.27Q315.12 90.27 314.38 89.78Q313.64 89.30 313.23 88.41Q312.81 87.52 312.81 86.35L312.81 86.35Q312.81 85.30 313.29 84.45Q313.77 83.59 314.56 83.07Q315.35 82.55 316.29 82.55L316.29 82.55Q317.01 82.55 317.57 82.84Q318.12 83.12 318.44 83.64Q318.75 84.15 318.75 84.82L318.75 84.82Q318.75 85.37 318.21 85.37L318.21 85.37L314.42 85.37Q314.16 85.37 314.07 85.51Q313.97 85.64 313.97 86.04L313.97 86.04Q313.97 86.90 314.34 87.61Q314.72 88.33 315.35 88.75Q315.98 89.17 316.74 89.17L316.74 89.17Q317.28 89.17 317.72 88.97Q318.16 88.76 318.50 88.36L318.50 88.36Q318.57 88.27 318.61 88.25Q318.65 88.22 318.70 88.22L318.70 88.22Q318.84 88.22 318.84 88.40L318.84 88.40Q318.84 88.74 318.52 89.15L318.52 89.15Q318.25 89.50 317.87 89.75Q317.49 90 317.04 90.14Q316.59 90.27 316.11 90.27ZM314.45 84.82L314.45 84.82L316.09 84.82Q316.52 84.82 316.83 84.80Q317.13 84.78 317.42 84.73L317.42 84.73Q317.51 84.71 317.54 84.61Q317.57 84.51 317.57 84.33L317.57 84.33Q317.57 83.81 317.11 83.44Q316.65 83.07 316.02 83.07L316.02 83.07Q315.60 83.07 315.19 83.31Q314.78 83.56 314.51 83.92Q314.24 84.28 314.24 84.64L314.24 84.64Q314.24 84.82 314.45 84.82ZM321.36 90.25L321.36 90.25Q320.97 90.25 320.67 89.95Q320.37 89.66 320.37 89.26L320.37 89.26Q320.37 88.85 320.67 88.56Q320.97 88.27 321.36 88.27L321.36 88.27Q321.78 88.27 322.07 88.56Q322.35 88.85 322.35 89.26L322.35 89.26Q322.35 89.66 322.07 89.95Q321.78 90.25 321.36 90.25ZM323.45 95.17L323.45 95.17Q323.36 95.17 323.22 95.12Q323.07 95.08 323.07 94.99L323.07 94.99Q323.07 94.88 323.16 94.79Q323.25 94.70 323.27 94.68L323.27 94.68Q323.60 94.59 323.90 94.34Q324.21 94.09 324.46 93.55L324.46 93.55Q324.66 93.13 324.78 92.51Q324.89 91.89 324.95 91.21Q325 90.52 325.02 89.87Q325.04 89.23 325.04 88.76L325.04 88.76L325.04 84.98Q325.04 84.49 324.86 84.12Q324.68 83.75 324.21 83.66L324.21 83.66Q324.14 83.65 324.10 83.57Q324.06 83.50 324.06 83.43L324.06 83.43Q324.06 83.25 324.19 83.21L324.19 83.21Q324.87 83.05 325.34 82.76Q325.81 82.48 326.06 82.31L326.06 82.31Q326.15 82.26 326.22 82.22Q326.28 82.19 326.30 82.19L326.30 82.19Q326.42 82.19 326.42 82.28L326.42 82.28Q326.37 82.84 326.33 83.64Q326.30 84.44 326.30 85.05L326.30 85.05L326.30 88.36Q326.30 88.92 326.27 89.67Q326.24 90.41 326.13 91.22Q326.03 92.02 325.76 92.74L325.76 92.74Q325.54 93.35 325.13 93.91Q324.71 94.46 324.26 94.81Q323.81 95.17 323.45 95.17ZM325.52 80.71L325.52 80.71Q325.14 80.71 324.88 80.45Q324.62 80.19 324.62 79.81L324.62 79.81Q324.62 79.42 324.88 79.16Q325.14 78.89 325.52 78.89L325.52 78.89Q325.92 78.89 326.18 79.16Q326.44 79.42 326.44 79.81L326.44 79.81Q326.44 80.19 326.18 80.45Q325.92 80.71 325.52 80.71ZM330.09 90.25L330.09 90.25Q329.54 90.25 329.05 90.08Q328.56 89.91 328.22 89.60L328.22 89.60Q328.13 89.41 328.09 88.94Q328.04 88.47 328.02 88.16L328.02 88.16Q328.02 88.00 328.26 88.00L328.26 88.00Q328.33 88.00 328.39 88.03Q328.46 88.06 328.47 88.13L328.47 88.13Q328.71 89.01 329.22 89.39Q329.73 89.77 330.26 89.77L330.26 89.77Q330.78 89.77 331.15 89.42Q331.52 89.06 331.52 88.54L331.52 88.54Q331.52 88.06 331.19 87.70Q330.87 87.35 330.06 86.85L330.06 86.85Q329.45 86.47 329.07 86.13Q328.69 85.79 328.52 85.43Q328.35 85.07 328.35 84.62L328.35 84.62Q328.35 84.04 328.62 83.57Q328.89 83.11 329.43 82.83Q329.97 82.55 330.78 82.55L330.78 82.55Q331.32 82.55 331.68 82.66Q332.04 82.76 332.22 82.89L332.22 82.89Q332.36 83.09 332.46 83.51Q332.56 83.93 332.56 84.31L332.56 84.31Q332.56 84.44 332.38 84.44L332.38 84.44Q332.27 84.44 332.17 84.39Q332.07 84.35 332.04 84.28L332.04 84.28Q331.80 83.68 331.45 83.37Q331.10 83.05 330.58 83.05L330.58 83.05Q330.13 83.05 329.78 83.32Q329.43 83.59 329.43 84.11L329.43 84.11Q329.43 84.53 329.69 84.85Q329.95 85.18 330.67 85.59L330.67 85.59Q331.71 86.18 332.23 86.70Q332.74 87.21 332.74 88.06L332.74 88.06Q332.74 89.03 332.00 89.64Q331.26 90.25 330.09 90.25ZM334.00 92.65L334.00 92.65Q333.68 92.65 333.68 92.45L333.68 92.45Q333.68 92.38 333.74 92.31Q333.80 92.25 333.93 92.23L333.93 92.23Q334.32 92.14 334.72 91.93Q335.12 91.71 335.39 91.31Q335.66 90.90 335.66 90.27L335.66 90.27Q335.66 90.05 335.46 89.78Q335.26 89.50 334.95 89.48L334.95 89.48Q334.56 89.44 334.33 89.23Q334.11 89.01 334.11 88.72L334.11 88.72Q334.11 88.36 334.41 88.13Q334.70 87.89 335.10 87.89L335.10 87.89Q335.75 87.89 336.17 88.39Q336.59 88.88 336.59 89.64L336.59 89.64Q336.59 90.32 336.32 90.87Q336.05 91.42 335.64 91.82Q335.22 92.21 334.78 92.43Q334.34 92.65 334.00 92.65ZM342.01 90.09L342.01 90.09Q341.78 90.09 341.63 90.05Q341.49 90 341.49 89.89L341.49 89.89Q341.49 89.68 342.08 89.57L342.08 89.57Q342.77 89.44 343.08 89.15Q343.40 88.87 343.40 88.20L343.40 88.20L343.40 80.60Q343.40 79.79 343.19 79.36Q342.98 78.93 342.30 78.80L342.30 78.80Q341.99 78.75 341.85 78.66Q341.70 78.57 341.70 78.44L341.70 78.44Q341.70 78.34 341.85 78.29Q341.99 78.25 342.23 78.25L342.23 78.25Q342.71 78.25 342.96 78.25Q343.20 78.25 343.41 78.25Q343.63 78.26 343.99 78.26L343.99 78.26Q344.35 78.26 344.72 78.24Q345.09 78.21 345.41 78.18Q345.74 78.16 345.99 78.16L345.99 78.16Q348.04 78.16 349.29 79.00Q350.54 79.85 350.54 81.36L350.54 81.36Q350.54 82.46 350.11 83.39Q349.68 84.31 348.79 84.87Q347.90 85.43 346.51 85.43L346.51 85.43Q346.11 85.43 345.91 85.31Q345.70 85.19 345.70 85.09L345.70 85.09Q345.70 85.01 345.80 84.92Q345.90 84.83 345.99 84.83L345.99 84.83Q346.08 84.83 346.27 84.85Q346.46 84.87 346.82 84.87L346.82 84.87Q347.90 84.87 348.45 83.97Q348.99 83.07 348.99 81.49L348.99 81.49Q348.99 80.05 348.15 79.35Q347.30 78.66 345.99 78.66L345.99 78.66Q345.48 78.66 345.16 78.83Q344.84 79.00 344.84 79.42L344.84 79.42L344.84 88.00Q344.84 88.65 345.11 89.05Q345.38 89.44 346.04 89.57L346.04 89.57Q346.35 89.62 346.49 89.69Q346.64 89.77 346.64 89.89L346.64 89.89Q346.64 90 346.49 90.05Q346.35 90.09 346.11 90.09L346.11 90.09Q345.63 90.09 345.37 90.05Q345.11 90.02 344.90 89.99Q344.69 89.96 344.35 89.96L344.35 89.96Q343.90 89.96 343.55 89.99Q343.20 90.02 342.85 90.05Q342.50 90.09 342.01 90.09ZM352.14 95.13L352.14 95.13Q351.80 95.13 351.51 94.96Q351.23 94.79 351.23 94.39L351.23 94.39Q351.23 94.07 351.38 93.83Q351.53 93.58 351.82 93.58L351.82 93.58Q352.02 93.58 352.21 93.64Q352.40 93.69 352.54 93.69L352.54 93.69Q352.65 93.69 352.73 93.64Q352.81 93.60 352.88 93.49L352.88 93.49Q353.08 93.17 353.34 92.68Q353.60 92.20 353.88 91.58Q354.16 90.97 354.41 90.29L354.41 90.29Q354.47 90.13 354.47 89.87L354.47 89.87Q354.47 89.73 354.45 89.59Q354.43 89.46 354.39 89.35L354.39 89.35L352.31 84.08Q352.18 83.75 351.97 83.51Q351.77 83.27 351.50 83.20L351.50 83.20Q351.35 83.14 351.22 83.07Q351.08 83.00 351.08 82.87L351.08 82.87Q351.08 82.76 351.22 82.74Q351.35 82.71 351.44 82.71L351.44 82.71Q351.80 82.71 351.97 82.73Q352.14 82.75 352.30 82.77Q352.45 82.80 352.76 82.80L352.76 82.80Q353.08 82.80 353.24 82.77Q353.40 82.75 353.58 82.73Q353.76 82.71 354.12 82.71L354.12 82.71Q354.23 82.71 354.36 82.75Q354.48 82.80 354.48 82.91L354.48 82.91Q354.48 83.03 354.30 83.15Q354.11 83.27 353.96 83.30L353.96 83.30Q353.78 83.36 353.69 83.49Q353.60 83.63 353.60 83.88L353.60 83.88Q353.60 83.99 353.66 84.14Q353.71 84.29 353.75 84.38L353.75 84.38L355.20 87.98Q355.24 88.09 355.31 88.09L355.31 88.09Q355.37 88.09 355.40 87.98L355.40 87.98L356.64 84.69Q356.70 84.56 356.74 84.36Q356.79 84.15 356.79 84.02L356.79 84.02Q356.79 83.68 356.69 83.55Q356.59 83.41 356.43 83.34L356.43 83.34Q356.28 83.27 356.10 83.15Q355.91 83.03 355.91 82.91L355.91 82.91Q355.91 82.80 356.04 82.75Q356.18 82.71 356.27 82.71L356.27 82.71Q356.52 82.71 356.78 82.75Q357.04 82.80 357.54 82.80L357.54 82.80Q357.89 82.80 358.04 82.77Q358.19 82.75 358.30 82.73Q358.41 82.71 358.61 82.71L358.61 82.71Q358.70 82.71 358.83 82.74Q358.97 82.76 358.97 82.87L358.97 82.87Q358.97 83.00 358.83 83.07Q358.70 83.14 358.55 83.20L358.55 83.20Q358.28 83.27 357.98 83.62Q357.67 83.97 357.49 84.40L357.49 84.40L355.04 90.23Q355.02 90.29 354.85 90.70Q354.68 91.12 354.43 91.73Q354.18 92.34 353.88 93.04Q353.58 93.74 353.31 94.39L353.31 94.39Q353.15 94.75 352.85 94.94Q352.54 95.13 352.14 95.13ZM362.28 90.25L362.28 90.25Q361.40 90.25 360.90 89.71Q360.41 89.17 360.41 88.11L360.41 88.11L360.41 83.93Q360.41 83.79 360.30 83.73Q360.19 83.66 359.83 83.66L359.83 83.66L359.72 83.66Q359.63 83.66 359.57 83.55Q359.51 83.43 359.51 83.30L359.51 83.30Q359.51 83.27 359.56 83.20Q359.61 83.12 359.63 83.11L359.63 83.11Q359.99 82.85 360.29 82.60Q360.59 82.35 360.83 82.11Q361.07 81.86 361.23 81.67L361.23 81.67Q361.32 81.58 361.39 81.51Q361.45 81.45 361.54 81.45L361.54 81.45Q361.63 81.45 361.71 81.49Q361.79 81.52 361.77 81.65L361.77 81.65L361.68 82.46Q361.67 82.66 361.77 82.73Q361.88 82.80 362.12 82.80L362.12 82.80L364.17 82.80Q364.24 82.80 364.29 82.92Q364.35 83.03 364.35 83.20L364.35 83.20Q364.35 83.36 364.29 83.51Q364.24 83.66 364.17 83.66L364.17 83.66L362.39 83.66Q361.94 83.66 361.80 83.74Q361.67 83.81 361.67 84.17L361.67 84.17L361.67 87.71Q361.67 88.43 361.97 88.85Q362.28 89.26 362.85 89.26L362.85 89.26Q363.38 89.26 363.66 89.18Q363.95 89.10 364.19 88.94L364.19 88.94Q364.22 88.90 364.26 88.90L364.26 88.90Q364.33 88.90 364.36 88.98Q364.38 89.06 364.38 89.15L364.38 89.15Q364.38 89.24 364.09 89.51Q363.79 89.78 363.31 90.02Q362.84 90.25 362.28 90.25ZM365.23 90.05L365.23 90.05Q364.87 90.05 364.87 89.86L364.87 89.86Q364.87 89.69 365.28 89.57L365.28 89.57Q365.55 89.48 365.80 89.33Q366.04 89.19 366.06 88.83L366.06 88.83L366.06 79.81Q366.06 79.33 365.90 78.96Q365.73 78.59 365.27 78.52L365.27 78.52Q365.10 78.48 365.10 78.26L365.10 78.26Q365.10 78.10 365.25 78.05L365.25 78.05Q365.50 77.96 365.85 77.85Q366.20 77.74 366.58 77.61Q366.96 77.47 367.25 77.35L367.25 77.35Q367.32 77.31 367.35 77.31L367.35 77.31Q367.41 77.31 367.44 77.35Q367.48 77.38 367.48 77.44L367.48 77.44Q367.48 77.54 367.44 77.74Q367.39 77.94 367.35 78.43Q367.32 78.91 367.32 79.88L367.32 79.88L367.32 83.02Q367.32 83.30 367.35 83.43Q367.37 83.56 367.44 83.68L367.44 83.68Q367.73 83.47 368.16 83.20Q368.58 82.94 369.10 82.75Q369.62 82.55 370.18 82.55L370.18 82.55Q371.06 82.55 371.65 83.24Q372.23 83.93 372.23 85.00L372.23 85.00L372.23 88.78Q372.23 89.14 372.47 89.31Q372.70 89.48 372.97 89.57L372.97 89.57Q373.17 89.62 373.28 89.69Q373.38 89.75 373.38 89.86L373.38 89.86Q373.38 90.05 373.02 90.05L373.02 90.05Q372.66 90.05 372.48 90.03Q372.29 90 372.12 89.98Q371.94 89.96 371.62 89.96L371.62 89.96Q371.31 89.96 371.13 89.98Q370.95 90 370.77 90.03Q370.58 90.05 370.22 90.05L370.22 90.05Q369.86 90.05 369.86 89.86L369.86 89.86Q369.86 89.73 369.96 89.69Q370.07 89.64 370.27 89.57L370.27 89.57Q370.54 89.48 370.76 89.31Q370.97 89.14 370.97 88.78L370.97 88.78L370.97 85.10Q370.97 84.65 370.71 84.28Q370.45 83.92 370.07 83.70Q369.69 83.48 369.30 83.48L369.30 83.48Q368.96 83.48 368.51 83.58Q368.06 83.68 367.80 83.88L367.80 83.88Q367.52 84.11 367.42 84.37Q367.32 84.62 367.32 85.18L367.32 85.18L367.32 88.83Q367.34 89.19 367.54 89.33Q367.75 89.48 368.02 89.57L368.02 89.57Q368.22 89.62 368.32 89.69Q368.42 89.75 368.42 89.86L368.42 89.86Q368.42 90.05 368.06 90.05L368.06 90.05Q367.70 90.05 367.52 90.03Q367.34 90 367.17 89.98Q367.01 89.96 366.69 89.96L366.69 89.96Q366.38 89.96 366.19 89.98Q366.00 90 365.80 90.03Q365.59 90.05 365.23 90.05ZM378.01 90.25L378.01 90.25Q377.00 90.25 376.19 89.78Q375.38 89.32 374.91 88.50Q374.43 87.68 374.43 86.63L374.43 86.63Q374.43 85.88 374.73 85.16Q375.02 84.44 375.56 83.84Q376.10 83.25 376.82 82.90Q377.54 82.55 378.37 82.55L378.37 82.55Q379.41 82.55 380.25 83.05Q381.09 83.56 381.58 84.38Q382.08 85.19 382.08 86.17L382.08 86.17Q382.08 87.21 381.62 88.15Q381.16 89.08 380.26 89.67Q379.36 90.25 378.01 90.25ZM378.39 89.71L378.39 89.71Q379 89.71 379.49 89.48Q379.97 89.24 380.24 88.72L380.24 88.72Q380.46 88.31 380.53 87.71Q380.60 87.12 380.60 86.60L380.60 86.60Q380.60 85.73 380.29 84.93Q379.97 84.13 379.41 83.62Q378.84 83.11 378.06 83.11L378.06 83.11Q377.58 83.11 377.19 83.26Q376.80 83.41 376.48 83.83L376.48 83.83Q376.12 84.28 376.01 84.92Q375.90 85.57 375.90 86.22L375.90 86.22Q375.90 87.10 376.23 87.90Q376.55 88.70 377.11 89.21Q377.67 89.71 378.39 89.71ZM383.50 90.05L383.50 90.05Q383.34 90.05 383.24 90.01Q383.14 89.96 383.14 89.86L383.14 89.86Q383.14 89.71 383.25 89.67Q383.36 89.62 383.55 89.57L383.55 89.57Q383.82 89.50 384.08 89.37Q384.33 89.24 384.33 88.88L384.33 88.88L384.33 85.01Q384.33 84.53 384.23 84.19Q384.13 83.84 383.66 83.72L383.66 83.72Q383.59 83.68 383.54 83.64Q383.48 83.59 383.48 83.48L383.48 83.48Q383.48 83.29 383.64 83.27L383.64 83.27Q384.27 83.11 384.67 82.87Q385.07 82.64 385.44 82.35L385.44 82.35Q385.50 82.31 385.54 82.29Q385.59 82.26 385.64 82.26L385.64 82.26Q385.68 82.26 385.71 82.30Q385.73 82.33 385.73 82.39L385.73 82.39Q385.73 82.51 385.69 82.90Q385.64 83.29 385.64 83.54L385.64 83.54Q385.64 83.61 385.65 83.67Q385.66 83.74 385.68 83.75L385.68 83.75Q386.31 83.16 387.02 82.85Q387.73 82.55 388.58 82.55L388.58 82.55Q389.46 82.55 390.03 83.27Q390.61 83.99 390.61 85.05L390.61 85.05L390.61 88.88Q390.61 89.24 390.86 89.36Q391.11 89.48 391.38 89.57L391.38 89.57Q391.53 89.62 391.66 89.69Q391.80 89.75 391.80 89.89L391.80 89.89Q391.80 90 391.67 90.03Q391.55 90.05 391.44 90.05L391.44 90.05Q391.08 90.05 390.88 90.03Q390.68 90 390.50 89.98Q390.32 89.96 390.00 89.96L390.00 89.96Q389.69 89.96 389.49 89.98Q389.30 90 389.09 90.03Q388.88 90.05 388.52 90.05L388.52 90.05Q388.43 90.05 388.30 90.03Q388.16 90 388.16 89.89L388.16 89.89Q388.16 89.75 388.30 89.69Q388.43 89.62 388.58 89.57L388.58 89.57Q388.85 89.48 389.10 89.36Q389.35 89.24 389.35 88.88L389.35 88.88L389.35 85.10Q389.35 84.31 388.91 83.87Q388.47 83.43 387.73 83.41L387.73 83.41Q387.08 83.41 386.60 83.62Q386.11 83.83 385.73 84.13L385.73 84.13Q385.66 84.20 385.62 84.32Q385.59 84.44 385.59 84.55L385.59 84.55L385.59 88.88Q385.59 89.24 385.84 89.37Q386.09 89.50 386.36 89.57L386.36 89.57Q386.78 89.68 386.78 89.86L386.78 89.86Q386.78 89.96 386.69 90.01Q386.60 90.05 386.42 90.05L386.42 90.05Q386.06 90.05 385.85 90.03Q385.64 90 385.46 89.98Q385.28 89.96 384.96 89.96L384.96 89.96Q384.65 89.96 384.46 89.98Q384.27 90 384.07 90.03Q383.86 90.05 383.50 90.05ZM392.90 92.65L392.90 92.65Q392.57 92.65 392.57 92.45L392.57 92.45Q392.57 92.38 392.64 92.31Q392.70 92.25 392.82 92.23L392.82 92.23Q393.22 92.14 393.62 91.93Q394.01 91.71 394.28 91.31Q394.55 90.90 394.55 90.27L394.55 90.27Q394.55 90.05 394.35 89.78Q394.16 89.50 393.85 89.48L393.85 89.48Q393.45 89.44 393.23 89.23Q393.00 89.01 393.00 88.72L393.00 88.72Q393.00 88.36 393.30 88.13Q393.60 87.89 393.99 87.89L393.99 87.89Q394.64 87.89 395.07 88.39Q395.49 88.88 395.49 89.64L395.49 89.64Q395.49 90.32 395.22 90.87Q394.95 91.42 394.53 91.82Q394.12 92.21 393.68 92.43Q393.24 92.65 392.90 92.65ZM400.91 90.09L400.91 90.09Q400.67 90.09 400.53 90.05Q400.38 90 400.38 89.89L400.38 89.89Q400.38 89.68 400.98 89.57L400.98 89.57Q401.66 89.44 401.98 89.15Q402.29 88.87 402.29 88.20L402.29 88.20L402.29 80.60Q402.29 79.79 402.09 79.36Q401.88 78.93 401.19 78.80L401.19 78.80Q400.89 78.75 400.74 78.66Q400.60 78.57 400.60 78.44L400.60 78.44Q400.60 78.34 400.74 78.29Q400.89 78.25 401.12 78.25L401.12 78.25Q401.61 78.25 401.85 78.25Q402.09 78.25 402.31 78.25Q402.53 78.26 402.89 78.26L402.89 78.26Q403.25 78.26 403.62 78.24Q403.98 78.21 404.31 78.18Q404.63 78.16 404.88 78.16L404.88 78.16Q406.94 78.16 408.19 79.00Q409.44 79.85 409.44 81.36L409.44 81.36Q409.44 82.46 409.01 83.39Q408.57 84.31 407.68 84.87Q406.79 85.43 405.41 85.43L405.41 85.43Q405.01 85.43 404.80 85.31Q404.60 85.19 404.60 85.09L404.60 85.09Q404.60 85.01 404.70 84.92Q404.79 84.83 404.88 84.83L404.88 84.83Q404.97 84.83 405.16 84.85Q405.35 84.87 405.71 84.87L405.71 84.87Q406.79 84.87 407.34 83.97Q407.89 83.07 407.89 81.49L407.89 81.49Q407.89 80.05 407.04 79.35Q406.20 78.66 404.88 78.66L404.88 78.66Q404.38 78.66 404.06 78.83Q403.73 79.00 403.73 79.42L403.73 79.42L403.73 88.00Q403.73 88.65 404.00 89.05Q404.27 89.44 404.94 89.57L404.94 89.57Q405.24 89.62 405.39 89.69Q405.53 89.77 405.53 89.89L405.53 89.89Q405.53 90 405.39 90.05Q405.24 90.09 405.01 90.09L405.01 90.09Q404.52 90.09 404.26 90.05Q404.00 90.02 403.80 89.99Q403.59 89.96 403.25 89.96L403.25 89.96Q402.80 89.96 402.45 89.99Q402.09 90.02 401.74 90.05Q401.39 90.09 400.91 90.09ZM414.10 90.25L414.10 90.25Q413.09 90.25 412.28 89.78Q411.47 89.32 411.00 88.50Q410.52 87.68 410.52 86.63L410.52 86.63Q410.52 85.88 410.82 85.16Q411.11 84.44 411.65 83.84Q412.19 83.25 412.91 82.90Q413.63 82.55 414.46 82.55L414.46 82.55Q415.50 82.55 416.34 83.05Q417.18 83.56 417.67 84.38Q418.17 85.19 418.17 86.17L418.17 86.17Q418.17 87.21 417.71 88.15Q417.25 89.08 416.35 89.67Q415.45 90.25 414.10 90.25ZM414.48 89.71L414.48 89.71Q415.09 89.71 415.58 89.48Q416.06 89.24 416.33 88.72L416.33 88.72Q416.55 88.31 416.62 87.71Q416.69 87.12 416.69 86.60L416.69 86.60Q416.69 85.73 416.38 84.93Q416.06 84.13 415.50 83.62Q414.93 83.11 414.15 83.11L414.15 83.11Q413.67 83.11 413.28 83.26Q412.89 83.41 412.57 83.83L412.57 83.83Q412.21 84.28 412.10 84.92Q411.99 85.57 411.99 86.22L411.99 86.22Q411.99 87.10 412.32 87.90Q412.64 88.70 413.20 89.21Q413.76 89.71 414.48 89.71ZM421.39 90.25L421.39 90.25Q420.83 90.25 420.35 90.08Q419.86 89.91 419.52 89.60L419.52 89.60Q419.43 89.41 419.38 88.94Q419.34 88.47 419.32 88.16L419.32 88.16Q419.32 88.00 419.55 88.00L419.55 88.00Q419.63 88.00 419.69 88.03Q419.75 88.06 419.77 88.13L419.77 88.13Q420.00 89.01 420.52 89.39Q421.03 89.77 421.55 89.77L421.55 89.77Q422.07 89.77 422.44 89.42Q422.81 89.06 422.81 88.54L422.81 88.54Q422.81 88.06 422.49 87.70Q422.16 87.35 421.35 86.85L421.35 86.85Q420.74 86.47 420.36 86.13Q419.99 85.79 419.82 85.43Q419.64 85.07 419.64 84.62L419.64 84.62Q419.64 84.04 419.91 83.57Q420.18 83.11 420.72 82.83Q421.26 82.55 422.07 82.55L422.07 82.55Q422.61 82.55 422.97 82.66Q423.33 82.76 423.51 82.89L423.51 82.89Q423.66 83.09 423.76 83.51Q423.86 83.93 423.86 84.31L423.86 84.31Q423.86 84.44 423.68 84.44L423.68 84.44Q423.57 84.44 423.47 84.39Q423.37 84.35 423.33 84.28L423.33 84.28Q423.10 83.68 422.75 83.37Q422.40 83.05 421.88 83.05L421.88 83.05Q421.43 83.05 421.08 83.32Q420.72 83.59 420.72 84.11L420.72 84.11Q420.72 84.53 420.99 84.85Q421.25 85.18 421.97 85.59L421.97 85.59Q423.01 86.18 423.52 86.70Q424.04 87.21 424.04 88.06L424.04 88.06Q424.04 89.03 423.30 89.64Q422.56 90.25 421.39 90.25ZM428.01 90.25L428.01 90.25Q427.13 90.25 426.64 89.71Q426.14 89.17 426.14 88.11L426.14 88.11L426.14 83.93Q426.14 83.79 426.03 83.73Q425.93 83.66 425.57 83.66L425.57 83.66L425.46 83.66Q425.37 83.66 425.31 83.55Q425.24 83.43 425.24 83.30L425.24 83.30Q425.24 83.27 425.30 83.20Q425.35 83.12 425.37 83.11L425.37 83.11Q425.73 82.85 426.03 82.60Q426.32 82.35 426.57 82.11Q426.81 81.86 426.97 81.67L426.97 81.67Q427.06 81.58 427.12 81.51Q427.19 81.45 427.28 81.45L427.28 81.45Q427.37 81.45 427.45 81.49Q427.53 81.52 427.51 81.65L427.51 81.65L427.42 82.46Q427.40 82.66 427.51 82.73Q427.62 82.80 427.85 82.80L427.85 82.80L429.90 82.80Q429.98 82.80 430.03 82.92Q430.08 83.03 430.08 83.20L430.08 83.20Q430.08 83.36 430.03 83.51Q429.98 83.66 429.90 83.66L429.90 83.66L428.12 83.66Q427.67 83.66 427.54 83.74Q427.40 83.81 427.40 84.17L427.40 84.17L427.40 87.71Q427.40 88.43 427.71 88.85Q428.01 89.26 428.59 89.26L428.59 89.26Q429.11 89.26 429.40 89.18Q429.69 89.10 429.92 88.94L429.92 88.94Q429.96 88.90 429.99 88.90L429.99 88.90Q430.07 88.90 430.09 88.98Q430.12 89.06 430.12 89.15L430.12 89.15Q430.12 89.24 429.82 89.51Q429.53 89.78 429.05 90.02Q428.57 90.25 428.01 90.25ZM433.77 95.22L433.77 95.22Q432.24 95.22 431.35 94.64Q430.46 94.05 430.46 93.06L430.46 93.06Q430.46 92.59 430.61 92.27Q430.75 91.94 431.06 91.71L431.06 91.71Q431.31 91.49 431.73 91.16Q432.15 90.83 432.60 90.47L432.60 90.47L433.36 90.50Q432.50 91.06 432.15 91.57Q431.81 92.07 431.81 92.79L431.81 92.79Q431.81 93.51 432.45 94.00Q433.09 94.50 434.03 94.50L434.03 94.50Q435.09 94.50 435.74 94.01L435.74 94.01Q436.19 93.67 436.44 93.12Q436.69 92.57 436.69 91.96L436.69 91.96Q436.69 91.57 436.41 91.31Q436.13 91.04 435.54 90.88Q434.94 90.72 433.99 90.67L433.99 90.67Q432.30 90.54 431.64 90.22Q430.98 89.89 430.98 89.21L430.98 89.21Q430.98 89.03 431.08 88.88Q431.18 88.72 431.40 88.54L431.40 88.54Q431.81 88.22 432.01 88.06Q432.21 87.91 432.31 87.80Q432.41 87.70 432.50 87.53L432.50 87.53L433.11 87.84Q432.71 87.98 432.44 88.23Q432.17 88.47 432.17 88.67L432.17 88.67Q432.17 88.92 432.44 89.11Q432.71 89.30 433.23 89.41Q433.76 89.51 434.51 89.57L434.51 89.57Q436.17 89.66 436.98 90.11Q437.79 90.56 437.79 91.39L437.79 91.39Q437.79 92.09 437.44 92.76Q437.09 93.44 436.51 94.00Q435.93 94.55 435.22 94.89Q434.51 95.22 433.77 95.22ZM433.99 87.46L433.99 87.46Q434.67 87.46 435.12 86.77Q435.57 86.08 435.57 85.05L435.57 85.05Q435.57 84.53 435.33 84.07Q435.09 83.61 434.70 83.33Q434.31 83.05 433.86 83.05L433.86 83.05Q433.45 83.05 433.08 83.35Q432.71 83.65 432.49 84.11Q432.26 84.58 432.26 85.14L432.26 85.14Q432.26 85.77 432.50 86.30Q432.73 86.83 433.13 87.15Q433.52 87.46 433.99 87.46ZM433.88 88.09L433.88 88.09Q433.14 88.09 432.48 87.71Q431.81 87.34 431.39 86.72Q430.97 86.09 430.97 85.36L430.97 85.36Q430.97 84.51 431.41 83.87Q431.85 83.23 432.57 82.87Q433.29 82.51 434.10 82.51L434.10 82.51Q434.62 82.51 435.01 82.65Q435.39 82.78 435.77 82.89L435.77 82.89Q436.20 83.02 436.46 83.04Q436.71 83.07 436.98 83.07L436.98 83.07Q437.19 83.07 437.52 83.04Q437.84 83.02 437.97 83.02L437.97 83.02Q438.20 83.02 438.20 83.29L438.20 83.29Q438.20 83.45 438.02 83.63L438.02 83.63Q437.93 83.72 437.88 83.72L437.88 83.72L437.39 83.72Q436.91 83.72 436.85 83.86L436.85 83.86Q436.83 83.93 436.81 84.07Q436.78 84.20 436.76 84.37Q436.74 84.53 436.74 84.69L436.74 84.69Q436.74 85.61 436.35 86.38Q435.95 87.16 435.30 87.62Q434.66 88.09 433.88 88.09ZM438.98 90.05L438.98 90.05Q438.80 90.05 438.71 90.01Q438.62 89.96 438.62 89.86L438.62 89.86Q438.62 89.71 438.72 89.67Q438.83 89.62 439.03 89.57L439.03 89.57Q439.37 89.48 439.54 89.31Q439.71 89.14 439.71 88.88L439.71 88.88L439.71 85.01Q439.71 84.53 439.57 84.17Q439.43 83.81 438.98 83.72L438.98 83.72Q438.90 83.70 438.85 83.63Q438.80 83.56 438.80 83.48L438.80 83.48Q438.80 83.30 438.96 83.27L438.96 83.27Q439.43 83.12 439.94 82.84Q440.45 82.57 440.74 82.39L440.74 82.39Q440.85 82.31 440.91 82.29Q440.97 82.26 441.01 82.26L441.01 82.26Q441.10 82.26 441.10 82.39L441.10 82.39Q441.10 82.44 441.09 82.66Q441.08 82.87 441.07 83.16Q441.06 83.45 441.05 83.74L441.05 83.74Q441.05 83.77 441.08 83.77L441.08 83.77Q441.37 83.41 441.72 83.14Q442.07 82.87 442.44 82.71Q442.81 82.55 443.15 82.55L443.15 82.55Q443.53 82.55 443.77 82.71Q444.02 82.87 444.02 83.12L444.02 83.12Q444.02 83.30 443.92 83.52Q443.82 83.74 443.66 83.90Q443.49 84.06 443.31 84.06L443.31 84.06Q443.21 84.06 443.08 84.02Q442.95 83.97 442.81 83.90L442.81 83.90Q442.67 83.84 442.52 83.79Q442.38 83.74 442.23 83.74L442.23 83.74Q441.80 83.74 441.40 84.04Q440.99 84.35 440.99 85.25L440.99 85.25L440.99 88.88Q440.99 89.12 441.24 89.27Q441.50 89.42 441.95 89.57L441.95 89.57Q442.14 89.62 442.25 89.68Q442.36 89.73 442.36 89.86L442.36 89.86Q442.36 90.05 442.00 90.05L442.00 90.05Q441.46 90.05 441.18 90.01Q440.90 89.96 440.43 89.96L440.43 89.96Q440.13 89.96 439.94 89.98Q439.75 90 439.54 90.03Q439.34 90.05 438.98 90.05ZM447.94 90.27L447.94 90.27Q446.95 90.27 446.21 89.78Q445.47 89.30 445.06 88.41Q444.65 87.52 444.65 86.35L444.65 86.35Q444.65 85.30 445.12 84.45Q445.60 83.59 446.39 83.07Q447.18 82.55 448.12 82.55L448.12 82.55Q448.84 82.55 449.40 82.84Q449.96 83.12 450.27 83.64Q450.59 84.15 450.59 84.82L450.59 84.82Q450.59 85.37 450.05 85.37L450.05 85.37L446.25 85.37Q446.00 85.37 445.90 85.51Q445.80 85.64 445.80 86.04L445.80 86.04Q445.80 86.90 446.18 87.61Q446.55 88.33 447.18 88.75Q447.81 89.17 448.57 89.17L448.57 89.17Q449.11 89.17 449.55 88.97Q449.99 88.76 450.33 88.36L450.33 88.36Q450.41 88.27 450.44 88.25Q450.48 88.22 450.53 88.22L450.53 88.22Q450.68 88.22 450.68 88.40L450.68 88.40Q450.68 88.74 450.35 89.15L450.35 89.15Q450.08 89.50 449.70 89.75Q449.33 90 448.88 90.14Q448.43 90.27 447.94 90.27ZM446.28 84.82L446.28 84.82L447.92 84.82Q448.35 84.82 448.66 84.80Q448.97 84.78 449.25 84.73L449.25 84.73Q449.34 84.71 449.37 84.61Q449.40 84.51 449.40 84.33L449.40 84.33Q449.40 83.81 448.94 83.44Q448.48 83.07 447.85 83.07L447.85 83.07Q447.44 83.07 447.02 83.31Q446.61 83.56 446.34 83.92Q446.07 84.28 446.07 84.64L446.07 84.64Q446.07 84.82 446.28 84.82ZM454.80 90.29L454.80 90.29Q454.04 90.29 453.40 90.06Q452.76 89.84 452.26 89.42L452.26 89.42Q452.19 89.35 452.13 89.26Q452.06 89.17 452.03 89.06L452.03 89.06Q451.94 88.70 451.91 88.13Q451.88 87.55 451.85 87.17L451.85 87.17Q451.85 87.05 451.95 86.98Q452.06 86.92 452.21 86.92L452.21 86.92Q452.30 86.92 452.39 86.97Q452.48 87.01 452.49 87.12L452.49 87.12Q452.85 88.51 453.57 89.10Q454.28 89.69 455.05 89.69L455.05 89.69Q455.68 89.69 456.17 89.42Q456.65 89.15 456.93 88.66Q457.21 88.16 457.21 87.50L457.21 87.50Q457.21 86.76 456.97 86.30Q456.72 85.84 456.27 85.50Q455.82 85.16 455.18 84.76L455.18 84.76Q454.47 84.31 453.79 83.85Q453.11 83.39 452.66 82.79Q452.21 82.19 452.21 81.32L452.21 81.32Q452.21 80.41 452.62 79.67Q453.03 78.93 453.87 78.49Q454.71 78.05 455.97 78.05L455.97 78.05Q456.62 78.05 457.09 78.18Q457.57 78.32 457.86 78.44L457.86 78.44Q458.00 78.50 458.10 78.62Q458.20 78.75 458.24 78.89L458.24 78.89Q458.34 79.27 458.47 79.76Q458.60 80.24 458.60 80.68L458.60 80.68Q458.60 80.87 458.33 80.87L458.33 80.87Q458.16 80.87 458.01 80.80Q457.86 80.73 457.82 80.62L457.82 80.62Q457.44 79.67 456.94 79.16Q456.44 78.66 455.66 78.66L455.66 78.66Q455.12 78.66 454.65 78.86Q454.19 79.06 453.89 79.51Q453.59 79.96 453.59 80.71L453.59 80.71Q453.59 81.25 453.94 81.69Q454.29 82.13 454.87 82.53Q455.45 82.93 456.11 83.34L456.11 83.34Q456.74 83.72 457.35 84.17Q457.95 84.62 458.34 85.24Q458.72 85.86 458.72 86.76L458.72 86.76Q458.72 87.82 458.24 88.62Q457.75 89.42 456.87 89.86Q455.99 90.29 454.80 90.29ZM472.89 94.46L472.89 94.46Q471.59 94.46 470.68 94.09Q469.77 93.73 468.91 93.11L468.91 93.11Q468.21 92.61 467.58 92.15Q466.95 91.69 466.07 90.97L466.07 90.97Q465.44 90.45 464.91 90.22Q464.37 90 464.00 89.82L464.00 89.82Q463.26 89.48 462.59 88.99Q461.93 88.51 461.41 87.84Q460.90 87.17 460.60 86.30Q460.31 85.43 460.31 84.33L460.31 84.33Q460.31 83.11 460.70 81.98Q461.10 80.86 461.87 79.97Q462.65 79.09 463.80 78.57Q464.95 78.05 466.44 78.05L466.44 78.05Q467.63 78.05 468.71 78.47Q469.79 78.89 470.62 79.68Q471.45 80.46 471.93 81.55Q472.42 82.64 472.42 83.97L472.42 83.97Q472.42 85.34 471.93 86.58Q471.43 87.82 470.46 88.74Q469.49 89.66 468.05 90.04L468.05 90.04Q467.90 90.07 467.90 90.16L467.90 90.16Q467.90 90.25 467.97 90.32L467.97 90.32Q468.50 90.88 469.05 91.36Q469.59 91.84 470.26 92.32L470.26 92.32Q471.16 92.97 471.94 93.21Q472.73 93.46 473.77 93.46L473.77 93.46Q474.09 93.46 474.37 93.42Q474.65 93.38 474.78 93.33L474.78 93.33Q474.87 93.29 474.96 93.28Q475.05 93.26 475.12 93.26L475.12 93.26Q475.32 93.26 475.32 93.40L475.32 93.40Q475.32 93.56 475.26 93.65Q475.19 93.74 474.99 93.87L474.99 93.87Q474.49 94.18 473.94 94.32Q473.39 94.46 472.89 94.46ZM466.55 89.53L466.55 89.53Q468.62 89.53 469.66 88.25Q470.69 86.98 470.69 84.85L470.69 84.85Q470.69 83.61 470.40 82.51Q470.12 81.41 469.55 80.58Q468.98 79.74 468.14 79.27Q467.29 78.80 466.16 78.80L466.16 78.80Q464.12 78.80 463.08 80.06Q462.03 81.32 462.03 83.43L462.03 83.43Q462.03 84.69 462.31 85.79Q462.59 86.89 463.16 87.73Q463.73 88.58 464.57 89.06Q465.42 89.53 466.55 89.53ZM474.22 90.09L474.22 90.09Q473.99 90.09 473.85 90.03Q473.72 89.96 473.72 89.87L473.72 89.87Q473.72 89.71 473.89 89.65Q474.06 89.59 474.11 89.57L474.11 89.57Q474.81 89.42 475.19 89.14Q475.57 88.87 475.57 88.27L475.57 88.27L475.57 79.92Q475.57 79.49 475.48 79.28Q475.39 79.07 475.16 78.97Q474.92 78.88 474.47 78.80L474.47 78.80Q473.88 78.70 473.88 78.44L473.88 78.44Q473.88 78.34 474.02 78.29Q474.17 78.25 474.40 78.25L474.40 78.25Q474.89 78.25 475.18 78.26Q475.48 78.28 475.75 78.29Q476.02 78.30 476.42 78.30L476.42 78.30Q476.87 78.30 477.19 78.29Q477.51 78.28 477.86 78.26Q478.20 78.25 478.68 78.25L478.68 78.25Q478.92 78.25 479.06 78.29Q479.21 78.34 479.21 78.44L479.21 78.44Q479.21 78.57 479.06 78.66Q478.92 78.75 478.61 78.80L478.61 78.80Q477.95 78.93 477.48 79.10Q477.01 79.27 477.01 79.79L477.01 79.79L477.01 88.27Q477.01 88.83 477.26 89.10Q477.51 89.37 478.40 89.37L478.40 89.37L480.63 89.37Q481.11 89.37 481.48 89.22Q481.85 89.06 482.03 88.90L482.03 88.90Q482.39 88.60 482.56 88.35Q482.73 88.11 482.97 87.62L482.97 87.62Q483.00 87.52 483.12 87.30Q483.24 87.08 483.36 87.08L483.36 87.08Q483.47 87.08 483.53 87.19Q483.58 87.30 483.58 87.41L483.58 87.41Q483.58 87.43 483.57 87.45Q483.56 87.48 483.56 87.50L483.56 87.50Q483.44 87.97 483.34 88.34Q483.24 88.72 483.18 89.06Q483.11 89.41 483.08 89.78L483.08 89.78Q483.06 89.91 483.01 90Q482.97 90.09 482.82 90.09L482.82 90.09Q481.92 90.09 481.10 90.07Q480.27 90.05 479.50 90.05Q478.74 90.04 478.04 90.02Q477.33 90 476.65 90L476.65 90Q476.20 90 475.63 90.02Q475.07 90.04 474.64 90.06Q474.22 90.09 474.22 90.09ZM484.43 92.65L484.43 92.65Q484.10 92.65 484.10 92.45L484.10 92.45Q484.10 92.38 484.17 92.31Q484.23 92.25 484.35 92.23L484.35 92.23Q484.75 92.14 485.15 91.93Q485.54 91.71 485.81 91.31Q486.08 90.90 486.08 90.27L486.08 90.27Q486.08 90.05 485.88 89.78Q485.69 89.50 485.38 89.48L485.38 89.48Q484.98 89.44 484.76 89.23Q484.53 89.01 484.53 88.72L484.53 88.72Q484.53 88.36 484.83 88.13Q485.13 87.89 485.52 87.89L485.52 87.89Q486.17 87.89 486.60 88.39Q487.02 88.88 487.02 89.64L487.02 89.64Q487.02 90.32 486.75 90.87Q486.48 91.42 486.06 91.82Q485.65 92.21 485.21 92.43Q484.77 92.65 484.43 92.65ZM502.95 90.38L502.95 90.38Q502.44 90.38 501.99 90.30Q501.54 90.22 501.17 90Q500.79 89.78 500.46 89.41L500.46 89.41Q500.03 88.87 499.64 88.37Q499.24 87.88 498.80 87.23Q498.36 86.58 497.73 85.57L497.73 85.57Q497.46 85.12 496.95 84.87L496.95 84.87Q496.56 84.67 496.17 84.59Q495.78 84.51 495.53 84.49L495.53 84.49Q495.39 84.47 495.33 84.58Q495.26 84.69 495.26 84.85L495.26 84.85L495.26 88.02Q495.26 88.60 495.53 89.02Q495.80 89.44 496.47 89.57L496.47 89.57Q496.77 89.62 496.92 89.69Q497.06 89.77 497.06 89.89L497.06 89.89Q497.06 90 496.92 90.05Q496.77 90.09 496.54 90.09L496.54 90.09Q496.05 90.09 495.79 90.05Q495.53 90.02 495.33 89.99Q495.12 89.96 494.78 89.96L494.78 89.96Q494.33 89.96 493.98 89.99Q493.62 90.02 493.27 90.05Q492.92 90.09 492.44 90.09L492.44 90.09Q492.20 90.09 492.06 90.05Q491.91 90 491.91 89.89L491.91 89.89Q491.91 89.68 492.51 89.57L492.51 89.57Q493.19 89.44 493.51 89.15Q493.82 88.87 493.82 88.20L493.82 88.20L493.82 80.53Q493.82 79.85 493.76 79.50Q493.70 79.15 493.47 79.00Q493.25 78.86 492.72 78.80L492.72 78.80Q492.42 78.77 492.27 78.67Q492.13 78.57 492.13 78.44L492.13 78.44Q492.13 78.34 492.27 78.29Q492.42 78.25 492.65 78.25L492.65 78.25Q493.14 78.25 493.38 78.25Q493.62 78.25 493.84 78.25Q494.06 78.26 494.42 78.26L494.42 78.26Q494.76 78.26 495.03 78.24Q495.30 78.21 495.63 78.19Q495.96 78.17 496.49 78.17L496.49 78.17Q498.47 78.17 499.50 78.91Q500.54 79.65 500.54 81.13L500.54 81.13Q500.54 81.94 500.21 82.52Q499.89 83.11 499.40 83.50Q498.92 83.90 498.41 84.15L498.41 84.15Q498.34 84.17 498.35 84.23Q498.36 84.29 498.41 84.38L498.41 84.38Q498.97 85.23 499.48 85.99Q500.00 86.74 500.61 87.46Q501.22 88.18 502.07 88.96L502.07 88.96Q502.53 89.37 503.02 89.46Q503.51 89.55 504.14 89.55L504.14 89.55Q504.41 89.55 504.41 89.75L504.41 89.75Q504.41 90.02 504.14 90.15Q503.87 90.29 503.52 90.33Q503.18 90.38 502.95 90.38ZM496.22 84.08L496.22 84.08Q497.04 84.08 497.65 83.70Q498.25 83.32 498.58 82.71Q498.92 82.10 498.92 81.41L498.92 81.41Q498.92 80.68 498.73 80.06Q498.54 79.45 497.97 79.08Q497.40 78.71 496.27 78.71L496.27 78.71Q495.69 78.71 495.51 79.08Q495.33 79.45 495.30 80.39L495.30 80.39Q495.28 80.84 495.27 81.60Q495.26 82.37 495.26 83.45L495.26 83.45Q495.26 83.90 495.51 83.99Q495.77 84.08 496.22 84.08ZM508.15 90.27L508.15 90.27Q507.16 90.27 506.42 89.78Q505.68 89.30 505.27 88.41Q504.86 87.52 504.86 86.35L504.86 86.35Q504.86 85.30 505.33 84.45Q505.81 83.59 506.60 83.07Q507.39 82.55 508.33 82.55L508.33 82.55Q509.05 82.55 509.61 82.84Q510.17 83.12 510.48 83.64Q510.80 84.15 510.80 84.82L510.80 84.82Q510.80 85.37 510.26 85.37L510.26 85.37L506.46 85.37Q506.21 85.37 506.11 85.51Q506.01 85.64 506.01 86.04L506.01 86.04Q506.01 86.90 506.39 87.61Q506.76 88.33 507.39 88.75Q508.02 89.17 508.78 89.17L508.78 89.17Q509.32 89.17 509.76 88.97Q510.20 88.76 510.54 88.36L510.54 88.36Q510.62 88.27 510.65 88.25Q510.69 88.22 510.74 88.22L510.74 88.22Q510.89 88.22 510.89 88.40L510.89 88.40Q510.89 88.74 510.56 89.15L510.56 89.15Q510.29 89.50 509.91 89.75Q509.54 90 509.09 90.14Q508.64 90.27 508.15 90.27ZM506.49 84.82L506.49 84.82L508.13 84.82Q508.56 84.82 508.87 84.80Q509.18 84.78 509.46 84.73L509.46 84.73Q509.55 84.71 509.58 84.61Q509.61 84.51 509.61 84.33L509.61 84.33Q509.61 83.81 509.15 83.44Q508.69 83.07 508.06 83.07L508.06 83.07Q507.65 83.07 507.23 83.31Q506.82 83.56 506.55 83.92Q506.28 84.28 506.28 84.64L506.28 84.64Q506.28 84.82 506.49 84.82ZM517.76 90.34L517.76 90.34Q517.73 90.34 517.64 90.27Q517.56 90.20 517.56 90.16L517.56 90.16Q517.56 89.98 517.61 89.65Q517.65 89.32 517.65 89.08L517.65 89.08L517.65 88.97Q517.38 89.39 516.79 89.82Q516.20 90.25 515.30 90.25L515.30 90.25Q514.27 90.25 513.52 89.71Q512.78 89.17 512.37 88.33Q511.97 87.48 511.97 86.58L511.97 86.58Q511.97 85.54 512.45 84.62Q512.94 83.70 513.85 83.12Q514.76 82.55 516.02 82.55L516.02 82.55Q516.38 82.55 516.75 82.61Q517.11 82.67 517.31 82.75L517.31 82.75Q517.47 82.80 517.55 82.80L517.55 82.80Q517.67 82.80 517.67 82.37L517.67 82.37L517.67 79.81Q517.67 79.07 517.44 78.82Q517.20 78.57 516.77 78.50L516.77 78.50Q516.61 78.46 516.61 78.26L516.61 78.26Q516.61 78.10 516.75 78.05L516.75 78.05Q517.55 77.85 518.00 77.67Q518.45 77.49 518.70 77.38L518.70 77.38Q518.77 77.35 518.83 77.34Q518.90 77.33 518.93 77.33L518.93 77.33Q519.04 77.33 519.06 77.44L519.06 77.44Q519.06 77.54 519.03 77.80Q519.00 78.07 518.97 78.57Q518.93 79.07 518.93 79.88L518.93 79.88L518.93 88.02Q518.93 88.63 519.02 88.91Q519.11 89.19 519.31 89.19L519.31 89.19Q519.40 89.19 519.63 89.17Q519.85 89.15 520.08 89.14L520.08 89.14Q520.41 89.12 520.41 89.30L520.41 89.30Q520.41 89.42 520.33 89.52Q520.25 89.62 520.16 89.62L520.16 89.62Q519.65 89.69 519.17 89.83Q518.68 89.96 518.05 90.23L518.05 90.23Q517.91 90.31 517.86 90.32Q517.82 90.34 517.76 90.34ZM515.94 89.32L515.94 89.32Q516.41 89.32 516.86 89.07Q517.31 88.83 517.65 88.43L517.65 88.43L517.67 85.19Q517.67 84.71 517.39 84.24Q517.11 83.77 516.62 83.47Q516.12 83.18 515.46 83.18L515.46 83.18Q515.04 83.18 514.52 83.43Q514 83.68 513.62 84.32Q513.24 84.96 513.24 86.17L513.24 86.17Q513.24 87.19 513.55 87.81Q513.86 88.43 514.30 88.76Q514.74 89.08 515.20 89.20Q515.66 89.32 515.94 89.32ZM521.24 90.05L521.24 90.05Q521.07 90.05 520.97 90.01Q520.88 89.96 520.88 89.86L520.88 89.86Q520.88 89.71 521.01 89.66Q521.15 89.60 521.29 89.57L521.29 89.57Q521.67 89.48 521.87 89.34Q522.06 89.21 522.06 88.88L522.06 88.88L522.06 84.98Q522.06 84.49 521.89 84.11Q521.72 83.74 521.25 83.66L521.25 83.66Q521.16 83.65 521.12 83.59Q521.07 83.54 521.07 83.43L521.07 83.43Q521.07 83.23 521.24 83.21L521.24 83.21Q521.96 83.05 522.42 82.77Q522.89 82.49 523.13 82.31L523.13 82.31Q523.29 82.19 523.38 82.19L523.38 82.19Q523.49 82.19 523.49 82.28L523.49 82.28Q523.49 82.42 523.44 82.84Q523.40 83.27 523.36 83.78Q523.32 84.29 523.32 84.71L523.32 84.71L523.32 88.88Q523.32 89.19 523.53 89.33Q523.74 89.48 524.10 89.57L524.10 89.57Q524.24 89.60 524.38 89.66Q524.51 89.71 524.51 89.86L524.51 89.86Q524.51 90.05 524.15 90.05L524.15 90.05Q523.81 90.05 523.60 90.03Q523.40 90 523.21 89.98Q523.02 89.96 522.69 89.96L522.69 89.96Q522.39 89.96 522.19 89.98Q521.99 90 521.79 90.03Q521.60 90.05 521.24 90.05ZM522.68 80.71L522.68 80.71Q522.30 80.71 522.04 80.45Q521.78 80.19 521.78 79.81L521.78 79.81Q521.78 79.42 522.04 79.16Q522.30 78.89 522.68 78.89L522.68 78.89Q523.07 78.89 523.33 79.16Q523.59 79.42 523.59 79.81L523.59 79.81Q523.59 80.19 523.33 80.45Q523.07 80.71 522.68 80.71ZM527.45 90.25L527.45 90.25Q526.89 90.25 526.40 90.08Q525.92 89.91 525.57 89.60L525.57 89.60Q525.48 89.41 525.44 88.94Q525.39 88.47 525.38 88.16L525.38 88.16Q525.38 88.00 525.61 88.00L525.61 88.00Q525.68 88.00 525.74 88.03Q525.81 88.06 525.83 88.13L525.83 88.13Q526.06 89.01 526.57 89.39Q527.09 89.77 527.61 89.77L527.61 89.77Q528.13 89.77 528.50 89.42Q528.87 89.06 528.87 88.54L528.87 88.54Q528.87 88.06 528.54 87.70Q528.22 87.35 527.41 86.85L527.41 86.85Q526.80 86.47 526.42 86.13Q526.04 85.79 525.87 85.43Q525.70 85.07 525.70 84.62L525.70 84.62Q525.70 84.04 525.97 83.57Q526.24 83.11 526.78 82.83Q527.32 82.55 528.13 82.55L528.13 82.55Q528.67 82.55 529.03 82.66Q529.39 82.76 529.57 82.89L529.57 82.89Q529.71 83.09 529.81 83.51Q529.91 83.93 529.91 84.31L529.91 84.31Q529.91 84.44 529.73 84.44L529.73 84.44Q529.62 84.44 529.52 84.39Q529.43 84.35 529.39 84.28L529.39 84.28Q529.16 83.68 528.80 83.37Q528.45 83.05 527.93 83.05L527.93 83.05Q527.48 83.05 527.13 83.32Q526.78 83.59 526.78 84.11L526.78 84.11Q526.78 84.53 527.04 84.85Q527.30 85.18 528.02 85.59L528.02 85.59Q529.07 86.18 529.58 86.70Q530.09 87.21 530.09 88.06L530.09 88.06Q530.09 89.03 529.35 89.64Q528.62 90.25 527.45 90.25Z"/>
  </svg>