<svg viewBox="0 0 800 150" width="100%" xmlns="http://www.w3.org/2000/svg">
    <rect width="800" height="150" fill="#0d1117" rx="8" />
    <rect width="800" height="150" fill="none" stroke="#94a3b8" stroke-width="2" stroke-opacity="0.2" rx="8" />
    
      <g transform="translate(150, 75)">
        <animateTransform attributeName="transform" type="rotate" from="0 0 0" to="360 0 0" dur="35s" repeatCount="indefinite" />
        <path d="M0,-60L51.962,-30L51.962,30L0,60L-51.962,30L-51.962,-30Z" fill="none" stroke="#94a3b8" stroke-width="1.5" opacity="0.6" />
        <path d="M24,-41.569L48,0L24,41.569L-24,41.569L-48,0L-24,-41.569Z" fill="none" stroke="#94a3b8" stroke-width="1.5" opacity="0.6" />
        <circle r="36" fill="none" stroke="#94a3b8" stroke-width="2" opacity="0.5" stroke-dasharray="8 4" />
        <circle r="12" fill="#94a3b8" opacity="0.7" />
      </g>
      <!-- Small interlocked gear -->
      <g transform="translate(216, 105)">
        <animateTransform attributeName="transform" type="rotate" from="360 0 0" to="0 0 0" dur="20s" repeatCount="indefinite" />
        <path d="M0,-24L20.785,-12L20.785,12L0,24L-20.785,12L-20.785,-12Z" fill="none" stroke="#94a3b8" stroke-width="1.5" opacity="0.8" />
        <circle r="12" fill="none" stroke="#94a3b8" stroke-width="1" opacity="0.8" />
      </g>
    
    <path fill="#e2e8f0" d="M292.54 50.45L292.54 50.45Q290.34 50.45 288.34 49.66Q286.34 48.88 284.78 47.47Q283.23 46.06 282.34 44.16Q281.44 42.26 281.44 40.05L281.44 40.05Q281.44 37.68 282.37 35.63Q283.30 33.58 284.93 32.05Q286.56 30.51 288.69 29.65Q290.82 28.78 293.22 28.78L293.22 28.78Q293.76 28.78 294.70 28.90Q295.65 29.01 296.66 29.17Q297.66 29.33 298.48 29.50Q299.30 29.68 299.62 29.84L299.62 29.84Q299.78 29.90 299.82 29.98Q299.87 30.06 299.90 30.22L299.90 30.22Q300.03 31.15 300.13 32.06Q300.22 32.98 300.22 33.62L300.22 33.62Q300.22 33.84 300.08 34.05Q299.94 34.26 299.74 34.26L299.74 34.26Q299.42 34.26 299.26 33.97Q299.10 33.68 299.01 33.39L299.01 33.39Q298.82 32.88 298.61 32.51Q298.40 32.14 298.02 31.70L298.02 31.70Q297.82 31.44 297.20 31.04Q296.58 30.64 295.52 30.32Q294.46 30 292.93 30L292.93 30Q291.07 30 289.54 30.78Q288 31.57 286.90 32.93Q285.79 34.29 285.20 36.02Q284.61 37.74 284.61 39.63L284.61 39.63Q284.61 41.90 285.31 43.70Q286.02 45.49 287.20 46.74Q288.38 47.98 289.89 48.62Q291.39 49.26 292.99 49.26L292.99 49.26Q294.85 49.26 295.73 48.82Q296.61 48.37 296.90 48.08L296.90 48.08Q297.25 47.73 297.55 47.09Q297.86 46.45 297.86 45.62L297.86 45.62Q297.86 45.33 297.87 45.01Q297.89 44.69 297.90 44.37Q297.92 44.05 297.92 43.76L297.92 43.76Q297.92 43.41 297.89 43.17Q297.86 42.93 297.76 42.80L297.76 42.80Q297.50 42.45 296.86 42.22Q296.22 42 295.58 41.90Q294.94 41.81 294.62 41.81L294.62 41.81Q294.50 41.81 294.24 41.65Q293.98 41.49 293.98 41.26L293.98 41.26Q293.98 41.01 294.24 40.86Q294.50 40.72 294.62 40.72L294.62 40.72Q295.42 40.72 296 40.75Q296.58 40.78 297.18 40.82Q297.79 40.85 298.66 40.85L298.66 40.85Q299.49 40.85 300.06 40.78Q300.64 40.72 301.50 40.72L301.50 40.72Q301.63 40.72 301.90 40.82Q302.18 40.91 302.18 41.23L302.18 41.23Q302.18 41.46 301.90 41.62Q301.63 41.78 301.50 41.81L301.50 41.81Q300.80 42 300.53 42.37Q300.26 42.74 300.16 43.38L300.16 43.38Q300.06 44.08 300.03 44.62Q300 45.17 300 45.78L300 45.78L300 46.64Q300 46.80 300.06 46.90Q300.13 46.99 300.19 47.15L300.19 47.15Q300.29 47.31 300.45 47.44Q300.61 47.57 300.61 47.70L300.61 47.70Q300.61 47.82 300.56 48.03Q300.51 48.24 300.16 48.30L300.16 48.30Q299.94 48.34 299.28 48.67Q298.62 49.01 297.63 49.42Q296.64 49.84 295.36 50.14Q294.08 50.45 292.54 50.45ZM304.90 50.10L304.90 50.10Q304.58 50.10 304.42 50.02Q304.26 49.94 304.26 49.74L304.26 49.74Q304.26 49.49 304.45 49.41Q304.64 49.33 304.99 49.23L304.99 49.23Q305.60 49.07 305.90 48.77Q306.21 48.46 306.21 48.02L306.21 48.02L306.21 41.14Q306.21 40.27 305.95 39.63Q305.70 38.99 304.90 38.83L304.90 38.83Q304.77 38.80 304.67 38.67Q304.58 38.54 304.58 38.42L304.58 38.42Q304.58 38.10 304.86 38.03L304.86 38.03Q305.70 37.78 306.61 37.28Q307.52 36.78 308.03 36.46L308.03 36.46Q308.22 36.34 308.34 36.29Q308.45 36.24 308.51 36.24L308.51 36.24Q308.67 36.24 308.67 36.46L308.67 36.46Q308.67 36.56 308.66 36.94Q308.64 37.33 308.62 37.84Q308.61 38.35 308.58 38.86L308.58 38.86Q308.58 38.93 308.64 38.93L308.64 38.93Q309.15 38.29 309.78 37.81Q310.40 37.33 311.06 37.04Q311.71 36.75 312.32 36.75L312.32 36.75Q312.99 36.75 313.42 37.04Q313.86 37.33 313.86 37.78L313.86 37.78Q313.86 38.10 313.68 38.48Q313.50 38.86 313.22 39.15Q312.93 39.44 312.61 39.44L312.61 39.44Q312.42 39.44 312.19 39.36Q311.97 39.28 311.71 39.15L311.71 39.15Q311.46 39.06 311.20 38.96Q310.94 38.86 310.69 38.86L310.69 38.86Q309.92 38.86 309.20 39.41Q308.48 39.95 308.48 41.55L308.48 41.55L308.48 48.02Q308.48 48.43 308.93 48.70Q309.38 48.98 310.18 49.23L310.18 49.23Q310.53 49.33 310.72 49.42Q310.91 49.52 310.91 49.74L310.91 49.74Q310.91 50.10 310.27 50.10L310.27 50.10Q309.31 50.10 308.82 50.02Q308.32 49.94 307.49 49.94L307.49 49.94Q306.94 49.94 306.61 49.97Q306.27 50 305.90 50.05Q305.54 50.10 304.90 50.10ZM315.42 50.10L315.42 50.10Q315.14 50.10 314.96 50.02Q314.78 49.94 314.78 49.74L314.78 49.74Q314.78 49.49 315.02 49.39Q315.26 49.30 315.52 49.23L315.52 49.23Q316.19 49.07 316.54 48.83Q316.90 48.59 316.90 48.02L316.90 48.02L316.90 41.07Q316.90 40.21 316.59 39.54Q316.29 38.86 315.46 38.74L315.46 38.74Q315.30 38.70 315.22 38.61Q315.14 38.51 315.14 38.32L315.14 38.32Q315.14 37.97 315.42 37.94L315.42 37.94Q316.70 37.65 317.54 37.15Q318.37 36.66 318.78 36.34L318.78 36.34Q319.07 36.11 319.23 36.11L319.23 36.11Q319.42 36.11 319.42 36.27L319.42 36.27Q319.42 36.53 319.34 37.28Q319.26 38.03 319.20 38.94Q319.14 39.86 319.14 40.59L319.14 40.59L319.14 48.02Q319.14 48.56 319.50 48.82Q319.87 49.07 320.51 49.23L320.51 49.23Q320.77 49.30 321.01 49.39Q321.25 49.49 321.25 49.74L321.25 49.74Q321.25 50.10 320.61 50.10L320.61 50.10Q320.00 50.10 319.63 50.05Q319.26 50 318.93 49.97Q318.59 49.94 318.02 49.94L318.02 49.94Q317.47 49.94 317.12 49.97Q316.77 50 316.42 50.05Q316.06 50.10 315.42 50.10ZM317.98 33.49L317.98 33.49Q317.31 33.49 316.85 33.02Q316.38 32.56 316.38 31.89L316.38 31.89Q316.38 31.18 316.85 30.72Q317.31 30.26 317.98 30.26L317.98 30.26Q318.69 30.26 319.15 30.72Q319.62 31.18 319.62 31.89L319.62 31.89Q319.62 32.56 319.15 33.02Q318.69 33.49 317.98 33.49ZM323.26 50.10L323.26 50.10Q323.01 50.10 322.82 50.03Q322.62 49.97 322.62 49.74L322.62 49.74Q322.62 49.52 322.83 49.42Q323.04 49.33 323.36 49.23L323.36 49.23Q323.81 49.07 324.27 48.86Q324.74 48.66 324.74 48.02L324.74 48.02L324.74 41.14Q324.74 40.27 324.54 39.62Q324.35 38.96 323.52 38.83L323.52 38.83Q323.39 38.80 323.31 38.70Q323.23 38.61 323.23 38.42L323.23 38.42Q323.23 38.10 323.49 38.03L323.49 38.03Q324.35 37.81 324.86 37.57Q325.38 37.33 325.78 37.02Q326.18 36.72 326.75 36.37L326.75 36.37Q326.82 36.34 326.88 36.29Q326.94 36.24 327.04 36.24L327.04 36.24Q327.23 36.24 327.23 36.46L327.23 36.46Q327.23 36.69 327.15 37.38Q327.07 38.06 327.07 38.51L327.07 38.51Q327.07 38.83 327.14 38.90L327.14 38.90L327.20 38.90Q327.94 38.19 329.14 37.47Q330.34 36.75 332.19 36.75L332.19 36.75Q333.34 36.75 334.11 37.25Q334.88 37.74 335.39 38.96L335.39 38.96L335.49 38.96Q336.51 38.03 337.82 37.39Q339.14 36.75 340.70 36.75L340.70 36.75Q341.76 36.75 342.46 37.39Q343.17 38.03 343.54 39.06Q343.90 40.08 343.90 41.20L343.90 41.20L343.90 48.02Q343.90 48.66 344.35 48.86Q344.80 49.07 345.28 49.23L345.28 49.23Q345.60 49.33 345.81 49.42Q346.02 49.52 346.02 49.74L346.02 49.74Q346.02 49.94 345.87 50.02Q345.73 50.10 345.38 50.10L345.38 50.10Q344.74 50.10 344.38 50.05Q344.03 50 343.73 49.97Q343.42 49.94 342.85 49.94L342.85 49.94Q342.30 49.94 341.95 49.97Q341.60 50 341.22 50.05Q340.83 50.10 340.19 50.10L340.19 50.10Q339.90 50.10 339.73 50.02Q339.55 49.94 339.55 49.74L339.55 49.74Q339.55 49.49 339.76 49.39Q339.97 49.30 340.29 49.23L340.29 49.23Q340.80 49.10 341.23 48.88Q341.66 48.66 341.66 48.02L341.66 48.02L341.66 41.30Q341.66 40.53 341.31 39.84Q340.96 39.15 340.38 38.70Q339.81 38.26 339.10 38.26L339.10 38.26Q338.30 38.26 337.62 38.45Q336.93 38.64 336.32 39.12L336.32 39.12Q335.42 39.82 335.42 41.42L335.42 41.42L335.42 48.02Q335.42 48.66 335.90 48.88Q336.38 49.10 336.86 49.23L336.86 49.23Q337.18 49.30 337.39 49.41Q337.60 49.52 337.60 49.74L337.60 49.74Q337.60 49.94 337.44 50.02Q337.28 50.10 336.96 50.10L336.96 50.10Q336.32 50.10 335.95 50.05Q335.58 50 335.25 49.97Q334.91 49.94 334.34 49.94L334.34 49.94Q333.79 49.94 333.44 49.97Q333.09 50 332.70 50.05Q332.32 50.10 331.68 50.10L331.68 50.10Q331.42 50.10 331.23 50.02Q331.04 49.94 331.04 49.74L331.04 49.74Q331.04 49.49 331.28 49.41Q331.52 49.33 331.78 49.23L331.78 49.23Q332.26 49.07 332.72 48.86Q333.18 48.66 333.18 48.02L333.18 48.02L333.18 41.30Q333.18 40.53 332.83 39.84Q332.48 39.15 331.90 38.70Q331.33 38.26 330.62 38.26L330.62 38.26Q329.82 38.26 329.14 38.45Q328.45 38.64 327.84 39.12L327.84 39.12Q326.98 39.76 326.98 41.42L326.98 41.42L326.98 48.02Q326.98 48.66 327.42 48.86Q327.87 49.07 328.35 49.23L328.35 49.23Q328.61 49.33 328.85 49.41Q329.09 49.49 329.09 49.74L329.09 49.74Q329.09 49.94 328.91 50.02Q328.74 50.10 328.45 50.10L328.45 50.10Q327.81 50.10 327.44 50.05Q327.07 50 326.75 49.97Q326.43 49.94 325.86 49.94L325.86 49.94Q325.31 49.94 324.98 49.97Q324.64 50 324.27 50.05Q323.90 50.10 323.26 50.10ZM354.24 50.45L354.24 50.45Q352.45 50.45 351.01 49.62Q349.57 48.78 348.72 47.33Q347.87 45.87 347.87 44.02L347.87 44.02Q347.87 42.67 348.40 41.39Q348.93 40.11 349.89 39.06Q350.85 38 352.13 37.38Q353.41 36.75 354.88 36.75L354.88 36.75Q356.74 36.75 358.22 37.65Q359.71 38.54 360.59 40Q361.47 41.46 361.47 43.18L361.47 43.18Q361.47 45.04 360.66 46.70Q359.84 48.37 358.24 49.41Q356.64 50.45 354.24 50.45ZM354.91 49.49L354.91 49.49Q356.00 49.49 356.86 49.07Q357.73 48.66 358.21 47.73L358.21 47.73Q358.59 46.99 358.72 45.94Q358.85 44.88 358.85 43.95L358.85 43.95Q358.85 42.42 358.29 40.99Q357.73 39.57 356.72 38.66Q355.71 37.74 354.34 37.74L354.34 37.74Q353.47 37.74 352.78 38.02Q352.10 38.29 351.52 39.02L351.52 39.02Q350.88 39.82 350.69 40.98Q350.50 42.13 350.50 43.28L350.50 43.28Q350.50 44.85 351.07 46.27Q351.65 47.70 352.64 48.59Q353.63 49.49 354.91 49.49ZM364.00 50.10L364.00 50.10Q363.71 50.10 363.54 50.02Q363.36 49.94 363.36 49.74L363.36 49.74Q363.36 49.49 363.60 49.39Q363.84 49.30 364.10 49.23L364.10 49.23Q364.77 49.07 365.12 48.83Q365.47 48.59 365.47 48.02L365.47 48.02L365.47 41.07Q365.47 40.21 365.17 39.54Q364.86 38.86 364.03 38.74L364.03 38.74Q363.87 38.70 363.79 38.61Q363.71 38.51 363.71 38.32L363.71 38.32Q363.71 37.97 364.00 37.94L364.00 37.94Q365.28 37.65 366.11 37.15Q366.94 36.66 367.36 36.34L367.36 36.34Q367.65 36.11 367.81 36.11L367.81 36.11Q368.00 36.11 368.00 36.27L368.00 36.27Q368.00 36.53 367.92 37.28Q367.84 38.03 367.78 38.94Q367.71 39.86 367.71 40.59L367.71 40.59L367.71 48.02Q367.71 48.56 368.08 48.82Q368.45 49.07 369.09 49.23L369.09 49.23Q369.34 49.30 369.58 49.39Q369.82 49.49 369.82 49.74L369.82 49.74Q369.82 50.10 369.18 50.10L369.18 50.10Q368.58 50.10 368.21 50.05Q367.84 50 367.50 49.97Q367.17 49.94 366.59 49.94L366.59 49.94Q366.05 49.94 365.70 49.97Q365.34 50 364.99 50.05Q364.64 50.10 364.00 50.10ZM366.56 33.49L366.56 33.49Q365.89 33.49 365.42 33.02Q364.96 32.56 364.96 31.89L364.96 31.89Q364.96 31.18 365.42 30.72Q365.89 30.26 366.56 30.26L366.56 30.26Q367.26 30.26 367.73 30.72Q368.19 31.18 368.19 31.89L368.19 31.89Q368.19 32.56 367.73 33.02Q367.26 33.49 366.56 33.49ZM372.00 50.10L372.00 50.10Q371.68 50.10 371.52 50.02Q371.36 49.94 371.36 49.74L371.36 49.74Q371.36 49.49 371.55 49.41Q371.74 49.33 372.10 49.23L372.10 49.23Q372.70 49.07 373.01 48.77Q373.31 48.46 373.31 48.02L373.31 48.02L373.31 41.14Q373.31 40.27 373.06 39.63Q372.80 38.99 372.00 38.83L372.00 38.83Q371.87 38.80 371.78 38.67Q371.68 38.54 371.68 38.42L371.68 38.42Q371.68 38.10 371.97 38.03L371.97 38.03Q372.80 37.78 373.71 37.28Q374.62 36.78 375.14 36.46L375.14 36.46Q375.33 36.34 375.44 36.29Q375.55 36.24 375.62 36.24L375.62 36.24Q375.78 36.24 375.78 36.46L375.78 36.46Q375.78 36.56 375.76 36.94Q375.74 37.33 375.73 37.84Q375.71 38.35 375.68 38.86L375.68 38.86Q375.68 38.93 375.74 38.93L375.74 38.93Q376.26 38.29 376.88 37.81Q377.50 37.33 378.16 37.04Q378.82 36.75 379.42 36.75L379.42 36.75Q380.10 36.75 380.53 37.04Q380.96 37.33 380.96 37.78L380.96 37.78Q380.96 38.10 380.78 38.48Q380.61 38.86 380.32 39.15Q380.03 39.44 379.71 39.44L379.71 39.44Q379.52 39.44 379.30 39.36Q379.07 39.28 378.82 39.15L378.82 39.15Q378.56 39.06 378.30 38.96Q378.05 38.86 377.79 38.86L377.79 38.86Q377.02 38.86 376.30 39.41Q375.58 39.95 375.58 41.55L375.58 41.55L375.58 48.02Q375.58 48.43 376.03 48.70Q376.48 48.98 377.28 49.23L377.28 49.23Q377.63 49.33 377.82 49.42Q378.02 49.52 378.02 49.74L378.02 49.74Q378.02 50.10 377.38 50.10L377.38 50.10Q376.42 50.10 375.92 50.02Q375.42 49.94 374.59 49.94L374.59 49.94Q374.05 49.94 373.71 49.97Q373.38 50 373.01 50.05Q372.64 50.10 372.00 50.10ZM387.94 50.48L387.94 50.48Q386.18 50.48 384.86 49.62Q383.55 48.75 382.82 47.17Q382.08 45.58 382.08 43.50L382.08 43.50Q382.08 41.65 382.93 40.13Q383.78 38.61 385.18 37.68Q386.59 36.75 388.26 36.75L388.26 36.75Q389.54 36.75 390.53 37.26Q391.52 37.78 392.08 38.69Q392.64 39.60 392.64 40.78L392.64 40.78Q392.64 41.78 391.68 41.78L391.68 41.78L384.93 41.78Q384.48 41.78 384.30 42.02Q384.13 42.26 384.13 42.96L384.13 42.96Q384.13 44.50 384.80 45.76Q385.47 47.02 386.59 47.78Q387.71 48.53 389.06 48.53L389.06 48.53Q390.02 48.53 390.80 48.16Q391.58 47.79 392.19 47.09L392.19 47.09Q392.32 46.93 392.38 46.88Q392.45 46.83 392.54 46.83L392.54 46.83Q392.80 46.83 392.80 47.15L392.80 47.15Q392.80 47.76 392.22 48.50L392.22 48.50Q391.74 49.10 391.07 49.55Q390.40 50 389.60 50.24Q388.80 50.48 387.94 50.48ZM384.99 40.78L384.99 40.78L387.90 40.78Q388.67 40.78 389.22 40.75Q389.76 40.72 390.27 40.62L390.27 40.62Q390.43 40.59 390.48 40.42Q390.53 40.24 390.53 39.92L390.53 39.92Q390.53 38.99 389.71 38.34Q388.90 37.68 387.78 37.68L387.78 37.68Q387.04 37.68 386.30 38.11Q385.57 38.54 385.09 39.18Q384.61 39.82 384.61 40.46L384.61 40.46Q384.61 40.78 384.99 40.78ZM407.49 50.45L407.49 50.45Q405.70 50.45 404.26 49.62Q402.82 48.78 401.97 47.33Q401.12 45.87 401.12 44.02L401.12 44.02Q401.12 42.67 401.65 41.39Q402.18 40.11 403.14 39.06Q404.10 38 405.38 37.38Q406.66 36.75 408.13 36.75L408.13 36.75Q409.98 36.75 411.47 37.65Q412.96 38.54 413.84 40Q414.72 41.46 414.72 43.18L414.72 43.18Q414.72 45.04 413.90 46.70Q413.09 48.37 411.49 49.41Q409.89 50.45 407.49 50.45ZM408.16 49.49L408.16 49.49Q409.25 49.49 410.11 49.07Q410.98 48.66 411.46 47.73L411.46 47.73Q411.84 46.99 411.97 45.94Q412.10 44.88 412.10 43.95L412.10 43.95Q412.10 42.42 411.54 40.99Q410.98 39.57 409.97 38.66Q408.96 37.74 407.58 37.74L407.58 37.74Q406.72 37.74 406.03 38.02Q405.34 38.29 404.77 39.02L404.77 39.02Q404.13 39.82 403.94 40.98Q403.74 42.13 403.74 43.28L403.74 43.28Q403.74 44.85 404.32 46.27Q404.90 47.70 405.89 48.59Q406.88 49.49 408.16 49.49ZM417.25 50.10L417.25 50.10Q416.93 50.10 416.77 50.02Q416.61 49.94 416.61 49.74L416.61 49.74Q416.61 49.49 416.82 49.39Q417.02 49.30 417.34 49.23L417.34 49.23Q418.08 49.07 418.40 48.77Q418.72 48.46 418.72 47.82L418.72 47.82L418.72 38.80Q418.40 38.80 417.98 38.78Q417.57 38.77 417.06 38.74L417.06 38.74Q416.96 38.70 416.78 38.51Q416.61 38.32 416.61 38.16L416.61 38.16Q416.61 38.10 416.70 38.05Q416.80 38 416.83 37.97L416.83 37.97Q417.41 37.68 417.82 37.46Q418.24 37.23 418.72 37.01L418.72 37.01Q418.72 34.22 419.41 32.37Q420.10 30.51 421.18 29.42Q422.27 28.34 423.49 27.87Q424.70 27.41 425.76 27.41L425.76 27.41Q427.55 27.41 428.42 27.95Q429.28 28.50 429.28 29.33L429.28 29.33Q429.28 29.97 428.96 30.29Q428.64 30.61 428.19 30.61L428.19 30.61Q427.90 30.61 427.66 30.38Q427.42 30.16 427.10 29.87L427.10 29.87Q426.69 29.46 426.08 29.09Q425.47 28.72 424.42 28.72L424.42 28.72Q422.91 28.72 421.94 30.03Q420.96 31.34 420.96 34.06L420.96 34.06L420.96 36.88Q420.96 37.07 421.07 37.14Q421.18 37.20 421.31 37.20L421.31 37.20L425.31 37.20Q425.47 37.20 425.60 37.30Q425.73 37.39 425.73 37.55L425.73 37.55Q425.73 37.78 425.68 38.03Q425.63 38.29 425.54 38.48L425.54 38.48Q425.44 38.74 425.25 38.74L425.25 38.74L421.57 38.74Q421.18 38.74 421.07 38.85Q420.96 38.96 420.96 39.15L420.96 39.15L420.96 47.82Q420.96 48.46 421.38 48.77Q421.79 49.07 423.07 49.23L423.07 49.23Q423.81 49.33 423.81 49.74L423.81 49.74Q423.81 49.94 423.65 50.02Q423.49 50.10 423.17 50.10L423.17 50.10Q422.21 50.10 421.47 50.02Q420.74 49.94 419.90 49.94L419.90 49.94Q419.36 49.94 419.01 49.97Q418.66 50 418.27 50.05Q417.89 50.10 417.25 50.10ZM439.26 50.16L439.26 50.16Q438.85 50.16 438.59 50.08Q438.34 50 438.34 49.81L438.34 49.81Q438.34 49.58 438.59 49.46Q438.85 49.33 439.39 49.23L439.39 49.23Q440.61 49.01 441.25 48.45Q441.89 47.89 441.89 46.74L441.89 46.74L441.89 34.32Q441.89 32.85 441.82 32.06Q441.76 31.28 441.62 30.96Q441.47 30.64 441.22 30.61L441.22 30.61Q440.77 30.51 440.27 30.50Q439.78 30.48 438.94 30.48L438.94 30.48L437.44 30.48Q436.67 30.48 435.92 30.78Q435.17 31.09 434.82 31.73L434.82 31.73Q434.72 31.89 434.50 32.19Q434.27 32.50 434.02 32.72Q433.76 32.94 433.50 32.94L433.50 32.94Q433.38 32.94 433.33 32.82Q433.28 32.69 433.28 32.53L433.28 32.53Q433.28 32.21 433.44 31.89L433.44 31.89Q433.89 30.96 434.10 30.24Q434.30 29.52 434.43 28.53L434.43 28.53Q434.50 27.98 434.67 27.89Q434.85 27.79 434.98 27.79L434.98 27.79Q435.10 27.79 435.38 28.18Q435.65 28.56 435.78 28.82L435.78 28.82Q435.97 29.14 436.66 29.30Q437.34 29.46 438.02 29.46L438.02 29.46L449.28 29.46Q450.40 29.46 451.10 29.33Q451.81 29.20 452.32 28.98L452.32 28.98Q452.70 28.78 452.94 28.56Q453.18 28.34 453.57 28.34L453.57 28.34Q453.66 28.34 453.73 28.58Q453.79 28.82 453.79 29.07L453.79 29.07Q453.79 29.23 453.74 29.52Q453.70 29.81 453.66 29.97L453.66 29.97Q453.57 30.54 453.49 30.80Q453.41 31.06 453.38 31.25Q453.34 31.44 453.34 31.86L453.34 31.86L453.34 32.24Q453.34 32.53 453.22 32.90Q453.09 33.26 452.83 33.26L452.83 33.26Q452.61 33.26 452.48 32.91Q452.35 32.56 452.22 31.95L452.22 31.95Q452.10 31.28 451.46 30.88Q450.82 30.48 449.28 30.48L449.28 30.48L446.05 30.48Q445.34 30.48 444.99 30.67Q444.64 30.86 444.54 31.63Q444.45 32.40 444.45 34.16L444.45 34.16L444.45 46.74Q444.45 47.89 445.12 48.45Q445.79 49.01 446.98 49.23L446.98 49.23Q447.52 49.33 447.78 49.46Q448.03 49.58 448.03 49.81L448.03 49.81Q448.03 50 447.78 50.08Q447.52 50.16 447.10 50.16L447.10 50.16Q446.24 50.16 445.68 50.11Q445.12 50.06 444.61 50.03Q444.10 50 443.36 50L443.36 50Q442.56 50 441.97 50.03Q441.38 50.06 440.75 50.11Q440.13 50.16 439.26 50.16ZM461.34 50.45L461.34 50.45Q459.55 50.45 458.11 49.62Q456.67 48.78 455.82 47.33Q454.98 45.87 454.98 44.02L454.98 44.02Q454.98 42.67 455.50 41.39Q456.03 40.11 456.99 39.06Q457.95 38 459.23 37.38Q460.51 36.75 461.98 36.75L461.98 36.75Q463.84 36.75 465.33 37.65Q466.82 38.54 467.70 40Q468.58 41.46 468.58 43.18L468.58 43.18Q468.58 45.04 467.76 46.70Q466.94 48.37 465.34 49.41Q463.74 50.45 461.34 50.45ZM462.02 49.49L462.02 49.49Q463.10 49.49 463.97 49.07Q464.83 48.66 465.31 47.73L465.31 47.73Q465.70 46.99 465.82 45.94Q465.95 44.88 465.95 43.95L465.95 43.95Q465.95 42.42 465.39 40.99Q464.83 39.57 463.82 38.66Q462.82 37.74 461.44 37.74L461.44 37.74Q460.58 37.74 459.89 38.02Q459.20 38.29 458.62 39.02L458.62 39.02Q457.98 39.82 457.79 40.98Q457.60 42.13 457.60 43.28L457.60 43.28Q457.60 44.85 458.18 46.27Q458.75 47.70 459.74 48.59Q460.74 49.49 462.02 49.49ZM477.18 50.45L477.18 50.45Q475.39 50.45 473.95 49.62Q472.51 48.78 471.66 47.33Q470.82 45.87 470.82 44.02L470.82 44.02Q470.82 42.67 471.34 41.39Q471.87 40.11 472.83 39.06Q473.79 38 475.07 37.38Q476.35 36.75 477.82 36.75L477.82 36.75Q479.68 36.75 481.17 37.65Q482.66 38.54 483.54 40Q484.42 41.46 484.42 43.18L484.42 43.18Q484.42 45.04 483.60 46.70Q482.78 48.37 481.18 49.41Q479.58 50.45 477.18 50.45ZM477.86 49.49L477.86 49.49Q478.94 49.49 479.81 49.07Q480.67 48.66 481.15 47.73L481.15 47.73Q481.54 46.99 481.66 45.94Q481.79 44.88 481.79 43.95L481.79 43.95Q481.79 42.42 481.23 40.99Q480.67 39.57 479.66 38.66Q478.66 37.74 477.28 37.74L477.28 37.74Q476.42 37.74 475.73 38.02Q475.04 38.29 474.46 39.02L474.46 39.02Q473.82 39.82 473.63 40.98Q473.44 42.13 473.44 43.28L473.44 43.28Q473.44 44.85 474.02 46.27Q474.59 47.70 475.58 48.59Q476.58 49.49 477.86 49.49ZM486.78 50.10L486.78 50.10Q486.62 50.10 486.38 50.05Q486.14 50 486.14 49.81L486.14 49.81Q486.14 49.55 486.38 49.44Q486.62 49.33 486.88 49.23L486.88 49.23Q487.36 49.07 487.81 48.86Q488.26 48.66 488.26 48.02L488.26 48.02L488.26 31.89Q488.26 30.96 487.92 30.34Q487.58 29.71 486.78 29.55L486.78 29.55Q486.53 29.49 486.53 29.14L486.53 29.14Q486.53 28.82 486.75 28.75L486.75 28.75Q487.58 28.56 488.19 28.35Q488.80 28.14 489.33 27.92Q489.86 27.70 490.37 27.50L490.37 27.50Q490.50 27.44 490.56 27.44L490.56 27.44Q490.62 27.44 490.67 27.52Q490.72 27.60 490.72 27.66L490.72 27.66Q490.72 27.95 490.61 28.90Q490.50 29.84 490.50 32.02L490.50 32.02L490.50 48.02Q490.50 48.66 490.94 48.86Q491.39 49.07 491.87 49.23L491.87 49.23Q492.13 49.33 492.37 49.44Q492.61 49.55 492.61 49.81L492.61 49.81Q492.61 50 492.37 50.05Q492.13 50.10 491.97 50.10L491.97 50.10Q491.36 50.10 490.99 50.05Q490.62 50 490.29 49.97Q489.95 49.94 489.38 49.94L489.38 49.94Q488.83 49.94 488.48 49.97Q488.13 50 487.78 50.05Q487.42 50.10 486.78 50.10ZM494.62 50.10L494.62 50.10Q494.34 50.10 494.16 50.02Q493.98 49.94 493.98 49.74L493.98 49.74Q493.98 49.49 494.22 49.39Q494.46 49.30 494.72 49.23L494.72 49.23Q495.39 49.07 495.74 48.83Q496.10 48.59 496.10 48.02L496.10 48.02L496.10 41.07Q496.10 40.21 495.79 39.54Q495.49 38.86 494.66 38.74L494.66 38.74Q494.50 38.70 494.42 38.61Q494.34 38.51 494.34 38.32L494.34 38.32Q494.34 37.97 494.62 37.94L494.62 37.94Q495.90 37.65 496.74 37.15Q497.57 36.66 497.98 36.34L497.98 36.34Q498.27 36.11 498.43 36.11L498.43 36.11Q498.62 36.11 498.62 36.27L498.62 36.27Q498.62 36.53 498.54 37.28Q498.46 38.03 498.40 38.94Q498.34 39.86 498.34 40.59L498.34 40.59L498.34 48.02Q498.34 48.56 498.70 48.82Q499.07 49.07 499.71 49.23L499.71 49.23Q499.97 49.30 500.21 49.39Q500.45 49.49 500.45 49.74L500.45 49.74Q500.45 50.10 499.81 50.10L499.81 50.10Q499.20 50.10 498.83 50.05Q498.46 50 498.13 49.97Q497.79 49.94 497.22 49.94L497.22 49.94Q496.67 49.94 496.32 49.97Q495.97 50 495.62 50.05Q495.26 50.10 494.62 50.10ZM497.18 33.49L497.18 33.49Q496.51 33.49 496.05 33.02Q495.58 32.56 495.58 31.89L495.58 31.89Q495.58 31.18 496.05 30.72Q496.51 30.26 497.18 30.26L497.18 30.26Q497.89 30.26 498.35 30.72Q498.82 31.18 498.82 31.89L498.82 31.89Q498.82 32.56 498.35 33.02Q497.89 33.49 497.18 33.49ZM502.46 50.10L502.46 50.10Q502.18 50.10 502.00 50.02Q501.82 49.94 501.82 49.74L501.82 49.74Q501.82 49.49 502.02 49.41Q502.21 49.33 502.56 49.23L502.56 49.23Q503.04 49.10 503.49 48.88Q503.94 48.66 503.94 48.02L503.94 48.02L503.94 41.14Q503.94 40.27 503.76 39.66Q503.58 39.06 502.75 38.83L502.75 38.83Q502.62 38.77 502.53 38.69Q502.43 38.61 502.43 38.42L502.43 38.42Q502.43 38.06 502.72 38.03L502.72 38.03Q503.84 37.74 504.54 37.33Q505.25 36.91 505.92 36.40L505.92 36.40Q506.02 36.34 506.10 36.29Q506.18 36.24 506.27 36.24L506.27 36.24Q506.34 36.24 506.38 36.30Q506.43 36.37 506.43 36.46L506.43 36.46Q506.43 36.69 506.35 37.38Q506.27 38.06 506.27 38.51L506.27 38.51Q506.27 38.64 506.29 38.75Q506.30 38.86 506.34 38.90L506.34 38.90Q507.46 37.84 508.72 37.30Q509.98 36.75 511.49 36.75L511.49 36.75Q513.06 36.75 514.08 38.03Q515.10 39.31 515.10 41.20L515.10 41.20L515.10 48.02Q515.10 48.66 515.55 48.86Q516.00 49.07 516.48 49.23L516.48 49.23Q516.74 49.33 516.98 49.44Q517.22 49.55 517.22 49.81L517.22 49.81Q517.22 50 516.99 50.05Q516.77 50.10 516.58 50.10L516.58 50.10Q515.94 50.10 515.58 50.05Q515.23 50 514.91 49.97Q514.59 49.94 514.02 49.94L514.02 49.94Q513.47 49.94 513.12 49.97Q512.77 50 512.40 50.05Q512.03 50.10 511.39 50.10L511.39 50.10Q511.23 50.10 510.99 50.05Q510.75 50 510.75 49.81L510.75 49.81Q510.75 49.55 510.99 49.44Q511.23 49.33 511.49 49.23L511.49 49.23Q511.97 49.07 512.42 48.86Q512.86 48.66 512.86 48.02L512.86 48.02L512.86 41.30Q512.86 39.89 512.08 39.10Q511.30 38.32 509.98 38.29L509.98 38.29Q508.83 38.29 507.97 38.66Q507.10 39.02 506.43 39.57L506.43 39.57Q506.30 39.70 506.24 39.90Q506.18 40.11 506.18 40.30L506.18 40.30L506.18 48.02Q506.18 48.66 506.62 48.88Q507.07 49.10 507.55 49.23L507.55 49.23Q508.29 49.42 508.29 49.74L508.29 49.74Q508.29 49.94 508.13 50.02Q507.97 50.10 507.65 50.10L507.65 50.10Q507.01 50.10 506.64 50.05Q506.27 50 505.95 49.97Q505.63 49.94 505.06 49.94L505.06 49.94Q504.51 49.94 504.18 49.97Q503.84 50 503.47 50.05Q503.10 50.10 502.46 50.10ZM524.19 59.28L524.19 59.28Q521.47 59.28 519.89 58.24Q518.30 57.20 518.30 55.44L518.30 55.44Q518.30 54.61 518.56 54.03Q518.82 53.46 519.36 53.04L519.36 53.04Q519.81 52.66 520.56 52.06Q521.31 51.47 522.11 50.83L522.11 50.83L523.46 50.90Q521.92 51.89 521.31 52.78Q520.70 53.68 520.70 54.96L520.70 54.96Q520.70 56.24 521.84 57.12Q522.98 58 524.64 58L524.64 58Q526.53 58 527.68 57.14L527.68 57.14Q528.48 56.53 528.93 55.55Q529.38 54.58 529.38 53.49L529.38 53.49Q529.38 52.78 528.88 52.32Q528.38 51.86 527.33 51.57Q526.27 51.28 524.58 51.18L524.58 51.18Q521.57 50.96 520.40 50.38Q519.23 49.81 519.23 48.59L519.23 48.59Q519.23 48.27 519.41 48Q519.58 47.73 519.97 47.41L519.97 47.41Q520.70 46.83 521.06 46.56Q521.41 46.29 521.58 46.10Q521.76 45.90 521.92 45.62L521.92 45.62L523.01 46.16Q522.30 46.42 521.82 46.85Q521.34 47.28 521.34 47.63L521.34 47.63Q521.34 48.08 521.82 48.42Q522.30 48.75 523.23 48.94Q524.16 49.14 525.50 49.23L525.50 49.23Q528.45 49.39 529.89 50.19Q531.33 50.99 531.33 52.46L531.33 52.46Q531.33 53.71 530.70 54.91Q530.08 56.11 529.06 57.10Q528.03 58.10 526.77 58.69Q525.50 59.28 524.19 59.28ZM524.58 45.49L524.58 45.49Q525.79 45.49 526.59 44.26Q527.39 43.02 527.39 41.20L527.39 41.20Q527.39 40.27 526.96 39.46Q526.53 38.64 525.84 38.14Q525.15 37.65 524.35 37.65L524.35 37.65Q523.62 37.65 522.96 38.18Q522.30 38.70 521.90 39.54Q521.50 40.37 521.50 41.36L521.50 41.36Q521.50 42.48 521.92 43.42Q522.34 44.37 523.04 44.93Q523.74 45.49 524.58 45.49ZM524.38 46.61L524.38 46.61Q523.07 46.61 521.89 45.94Q520.70 45.26 519.95 44.16Q519.20 43.06 519.20 41.74L519.20 41.74Q519.20 40.24 519.98 39.10Q520.77 37.97 522.05 37.33Q523.33 36.69 524.77 36.69L524.77 36.69Q525.70 36.69 526.38 36.93Q527.07 37.17 527.74 37.36L527.74 37.36Q528.51 37.58 528.96 37.63Q529.41 37.68 529.89 37.68L529.89 37.68Q530.27 37.68 530.85 37.63Q531.42 37.58 531.65 37.58L531.65 37.58Q532.06 37.58 532.06 38.06L532.06 38.06Q532.06 38.35 531.74 38.67L531.74 38.67Q531.58 38.83 531.49 38.83L531.49 38.83L530.62 38.83Q529.76 38.83 529.66 39.09L529.66 39.09Q529.63 39.22 529.58 39.46Q529.54 39.70 529.50 39.98Q529.47 40.27 529.47 40.56L529.47 40.56Q529.47 42.19 528.77 43.57Q528.06 44.94 526.91 45.78Q525.76 46.61 524.38 46.61Z"/>
    <path fill="#94a3b8" opacity="0.8" d="M286.68 90.13L286.68 90.13Q286.50 90.13 285.88 90.09Q285.26 90.05 284.45 90.03Q283.65 90 282.93 90L282.93 90Q282.57 90 282.33 90.02Q282.09 90.04 281.81 90.06Q281.53 90.09 281.04 90.09L281.04 90.09Q280.81 90.09 280.67 90.04Q280.52 89.98 280.52 89.86L280.52 89.86Q280.52 89.71 280.67 89.67Q280.81 89.62 281.12 89.57L281.12 89.57Q281.80 89.44 282.06 89.15Q282.32 88.87 282.32 88.22L282.32 88.22L282.32 80.12Q282.32 79.47 282.06 79.20Q281.80 78.93 281.12 78.80L281.12 78.80Q280.81 78.75 280.67 78.69Q280.52 78.62 280.52 78.48L280.52 78.48Q280.52 78.35 280.67 78.30Q280.81 78.25 281.04 78.25L281.04 78.25Q281.51 78.25 281.79 78.25Q282.07 78.26 282.34 78.27Q282.61 78.28 283.04 78.28L283.04 78.28Q283.33 78.28 283.77 78.26Q284.21 78.25 284.69 78.21Q285.17 78.17 285.55 78.16Q285.94 78.14 286.12 78.14L286.12 78.14Q287.96 78.14 289.25 78.58Q290.55 79.02 291.36 79.80Q292.17 80.59 292.56 81.62Q292.94 82.66 292.94 83.84L292.94 83.84Q292.94 85.14 292.46 86.27Q291.97 87.41 291.11 88.28Q290.24 89.15 289.11 89.64Q287.97 90.13 286.68 90.13ZM286.46 89.50L286.46 89.50Q287.87 89.50 288.95 88.81Q290.03 88.13 290.63 86.92Q291.23 85.72 291.23 84.15L291.23 84.15Q291.23 82.85 290.80 81.84Q290.37 80.82 289.65 80.13Q288.93 79.43 288.03 79.06Q287.13 78.70 286.21 78.70L286.21 78.70Q285.44 78.70 284.89 78.74Q284.34 78.79 284.05 79.02Q283.76 79.25 283.76 79.79L283.76 79.79L283.76 87.82Q283.76 88.54 284.16 88.90Q284.55 89.26 285.18 89.38Q285.80 89.50 286.46 89.50ZM297.78 90.25L297.78 90.25Q296.78 90.25 295.97 89.78Q295.16 89.32 294.68 88.50Q294.20 87.68 294.20 86.63L294.20 86.63Q294.20 85.88 294.50 85.16Q294.80 84.44 295.34 83.84Q295.88 83.25 296.60 82.90Q297.32 82.55 298.14 82.55L298.14 82.55Q299.19 82.55 300.02 83.05Q300.86 83.56 301.36 84.38Q301.85 85.19 301.85 86.17L301.85 86.17Q301.85 87.21 301.39 88.15Q300.93 89.08 300.03 89.67Q299.13 90.25 297.78 90.25ZM298.16 89.71L298.16 89.71Q298.77 89.71 299.26 89.48Q299.75 89.24 300.02 88.72L300.02 88.72Q300.23 88.31 300.30 87.71Q300.38 87.12 300.38 86.60L300.38 86.60Q300.38 85.73 300.06 84.93Q299.75 84.13 299.18 83.62Q298.61 83.11 297.84 83.11L297.84 83.11Q297.35 83.11 296.96 83.26Q296.58 83.41 296.25 83.83L296.25 83.83Q295.89 84.28 295.79 84.92Q295.68 85.57 295.68 86.22L295.68 86.22Q295.68 87.10 296.00 87.90Q296.33 88.70 296.88 89.21Q297.44 89.71 298.16 89.71ZM306.32 90.27L306.32 90.27Q305.42 90.27 304.69 89.81Q303.96 89.35 303.54 88.55Q303.11 87.75 303.11 86.76L303.11 86.76Q303.11 85.59 303.63 84.64Q304.14 83.68 305.00 83.11Q305.87 82.55 306.91 82.55L306.91 82.55Q308.08 82.55 308.96 83.18L308.96 83.18Q309.18 83.34 309.18 83.52L309.18 83.52Q309.18 83.66 309.05 83.84Q308.93 84.02 308.75 84.14Q308.57 84.26 308.40 84.26L308.40 84.26Q308.31 84.26 308.22 84.19Q308.13 84.13 308.03 84.06L308.03 84.06Q307.63 83.75 307.14 83.48Q306.66 83.21 306.33 83.21L306.33 83.21Q305.45 83.21 304.90 84.03Q304.35 84.85 304.35 86.18L304.35 86.18Q304.35 87.03 304.72 87.71Q305.09 88.40 305.71 88.79Q306.33 89.19 307.09 89.19L307.09 89.19Q307.61 89.19 307.99 89.02Q308.37 88.85 308.80 88.42L308.80 88.42Q308.84 88.38 308.89 88.35Q308.94 88.33 308.98 88.33L308.98 88.33Q309.18 88.33 309.18 88.58L309.18 88.58Q309.18 88.69 309.12 88.82Q309.05 88.96 308.91 89.14L308.91 89.14Q308.62 89.50 308.22 89.76Q307.83 90.02 307.35 90.14Q306.87 90.27 306.32 90.27ZM310.56 90.05L310.56 90.05Q310.15 90.05 310.15 89.86L310.15 89.86Q310.15 89.71 310.29 89.67Q310.42 89.62 310.56 89.57L310.56 89.57Q310.83 89.48 311.09 89.33Q311.34 89.19 311.34 88.83L311.34 88.83L311.34 79.81Q311.34 79.18 311.16 78.89Q310.98 78.61 310.53 78.50L310.53 78.50Q310.37 78.46 310.37 78.26L310.37 78.26Q310.37 78.08 310.51 78.05L310.51 78.05Q310.98 77.94 311.32 77.82Q311.66 77.71 311.94 77.59Q312.22 77.47 312.49 77.36L312.49 77.36Q312.60 77.31 312.65 77.31L312.65 77.31Q312.71 77.31 312.73 77.35Q312.76 77.38 312.76 77.47L312.76 77.47Q312.76 77.65 312.68 78.19Q312.60 78.73 312.60 79.88L312.60 79.88L312.60 85.79Q312.60 85.95 312.69 85.95L312.69 85.95Q312.80 85.95 312.97 85.86Q313.14 85.77 313.34 85.59L313.34 85.59Q314.07 84.96 314.57 84.45Q315.06 83.93 315.24 83.74L315.24 83.74Q315.33 83.63 315.37 83.56Q315.41 83.50 315.41 83.47L315.41 83.47Q315.41 83.38 315.25 83.30Q315.10 83.23 314.94 83.20L314.94 83.20Q314.72 83.14 314.72 83.02L314.72 83.02Q314.72 82.93 314.83 82.86Q314.94 82.80 315.12 82.80L315.12 82.80L316.00 82.80Q316.29 82.80 316.60 82.75Q316.92 82.69 317.20 82.64Q317.48 82.58 317.64 82.58L317.64 82.58Q317.89 82.58 317.89 82.76L317.89 82.76Q317.89 82.87 317.76 82.95Q317.64 83.03 317.44 83.09L317.44 83.09Q317.10 83.18 316.80 83.34Q316.50 83.50 316.25 83.65L316.25 83.65Q316.14 83.72 315.76 84.03Q315.37 84.35 314.88 84.76Q314.38 85.18 313.95 85.55L313.95 85.55Q313.84 85.66 313.84 85.73L313.84 85.73Q313.84 85.75 313.86 85.79Q313.88 85.82 313.89 85.86L313.89 85.86Q314.36 86.44 314.90 87.03Q315.44 87.62 315.90 88.07Q316.36 88.52 316.54 88.70L316.54 88.70Q316.85 88.99 317.23 89.22Q317.62 89.44 317.89 89.53L317.89 89.53Q318.09 89.60 318.26 89.66Q318.43 89.71 318.43 89.86L318.43 89.86Q318.43 90.05 318.07 90.05L318.07 90.05Q317.37 90.05 316.50 90.03Q315.62 90 314.70 90L314.70 90Q314.38 90 314.38 89.84L314.38 89.84Q314.38 89.73 314.47 89.66Q314.56 89.59 314.69 89.55L314.69 89.55Q314.88 89.48 315.03 89.39Q315.17 89.30 315.17 89.14L315.17 89.14Q315.17 89.08 315.14 89.02Q315.10 88.96 315.05 88.88L315.05 88.88L312.87 86.42Q312.76 86.29 312.69 86.29L312.69 86.29Q312.60 86.29 312.60 86.42L312.60 86.42Q312.58 86.67 312.58 86.97Q312.58 87.26 312.58 87.57L312.58 87.57Q312.58 87.88 312.58 88.20Q312.58 88.52 312.60 88.83L312.60 88.83Q312.60 89.19 312.78 89.33Q312.96 89.48 313.23 89.57L313.23 89.57Q313.37 89.62 313.51 89.67Q313.64 89.71 313.64 89.86L313.64 89.86Q313.64 89.98 313.47 90.02Q313.30 90.05 313.23 90.05L313.23 90.05Q312.89 90.05 312.72 90.03Q312.56 90 312.43 89.98Q312.29 89.96 311.97 89.96L311.97 89.96Q311.66 89.96 311.48 89.98Q311.30 90 311.11 90.03Q310.92 90.05 310.56 90.05ZM322.08 90.27L322.08 90.27Q321.09 90.27 320.36 89.78Q319.62 89.30 319.20 88.41Q318.79 87.52 318.79 86.35L318.79 86.35Q318.79 85.30 319.27 84.45Q319.74 83.59 320.54 83.07Q321.33 82.55 322.26 82.55L322.26 82.55Q322.98 82.55 323.54 82.84Q324.10 83.12 324.42 83.64Q324.73 84.15 324.73 84.82L324.73 84.82Q324.73 85.37 324.19 85.37L324.19 85.37L320.39 85.37Q320.14 85.37 320.04 85.51Q319.94 85.64 319.94 86.04L319.94 86.04Q319.94 86.90 320.32 87.61Q320.70 88.33 321.33 88.75Q321.96 89.17 322.71 89.17L322.71 89.17Q323.25 89.17 323.70 88.97Q324.14 88.76 324.48 88.36L324.48 88.36Q324.55 88.27 324.59 88.25Q324.62 88.22 324.68 88.22L324.68 88.22Q324.82 88.22 324.82 88.40L324.82 88.40Q324.82 88.74 324.50 89.15L324.50 89.15Q324.23 89.50 323.85 89.75Q323.47 90 323.02 90.14Q322.57 90.27 322.08 90.27ZM320.43 84.82L320.43 84.82L322.07 84.82Q322.50 84.82 322.80 84.80Q323.11 84.78 323.40 84.73L323.40 84.73Q323.49 84.71 323.52 84.61Q323.54 84.51 323.54 84.33L323.54 84.33Q323.54 83.81 323.08 83.44Q322.62 83.07 321.99 83.07L321.99 83.07Q321.58 83.07 321.17 83.31Q320.75 83.56 320.48 83.92Q320.21 84.28 320.21 84.64L320.21 84.64Q320.21 84.82 320.43 84.82ZM326.15 90.05L326.15 90.05Q325.97 90.05 325.88 90.01Q325.79 89.96 325.79 89.86L325.79 89.86Q325.79 89.71 325.90 89.67Q326.01 89.62 326.21 89.57L326.21 89.57Q326.55 89.48 326.72 89.31Q326.89 89.14 326.89 88.88L326.89 88.88L326.89 85.01Q326.89 84.53 326.75 84.17Q326.60 83.81 326.15 83.72L326.15 83.72Q326.08 83.70 326.03 83.63Q325.97 83.56 325.97 83.48L325.97 83.48Q325.97 83.30 326.13 83.27L326.13 83.27Q326.60 83.12 327.12 82.84Q327.63 82.57 327.92 82.39L327.92 82.39Q328.02 82.31 328.09 82.29Q328.15 82.26 328.19 82.26L328.19 82.26Q328.28 82.26 328.28 82.39L328.28 82.39Q328.28 82.44 328.27 82.66Q328.26 82.87 328.25 83.16Q328.24 83.45 328.22 83.74L328.22 83.74Q328.22 83.77 328.26 83.77L328.26 83.77Q328.55 83.41 328.90 83.14Q329.25 82.87 329.62 82.71Q329.99 82.55 330.33 82.55L330.33 82.55Q330.71 82.55 330.95 82.71Q331.19 82.87 331.19 83.12L331.19 83.12Q331.19 83.30 331.09 83.52Q330.99 83.74 330.83 83.90Q330.67 84.06 330.49 84.06L330.49 84.06Q330.38 84.06 330.26 84.02Q330.13 83.97 329.99 83.90L329.99 83.90Q329.84 83.84 329.70 83.79Q329.55 83.74 329.41 83.74L329.41 83.74Q328.98 83.74 328.57 84.04Q328.17 84.35 328.17 85.25L328.17 85.25L328.17 88.88Q328.17 89.12 328.42 89.27Q328.67 89.42 329.12 89.57L329.12 89.57Q329.32 89.62 329.43 89.68Q329.54 89.73 329.54 89.86L329.54 89.86Q329.54 90.05 329.18 90.05L329.18 90.05Q328.64 90.05 328.36 90.01Q328.08 89.96 327.61 89.96L327.61 89.96Q327.30 89.96 327.12 89.98Q326.93 90 326.72 90.03Q326.51 90.05 326.15 90.05ZM331.97 92.65L331.97 92.65Q331.64 92.65 331.64 92.45L331.64 92.45Q331.64 92.38 331.71 92.31Q331.77 92.25 331.89 92.23L331.89 92.23Q332.29 92.14 332.69 91.93Q333.08 91.71 333.35 91.31Q333.62 90.90 333.62 90.27L333.62 90.27Q333.62 90.05 333.42 89.78Q333.23 89.50 332.92 89.48L332.92 89.48Q332.52 89.44 332.30 89.23Q332.07 89.01 332.07 88.72L332.07 88.72Q332.07 88.36 332.37 88.13Q332.67 87.89 333.06 87.89L333.06 87.89Q333.71 87.89 334.14 88.39Q334.56 88.88 334.56 89.64L334.56 89.64Q334.56 90.32 334.29 90.87Q334.02 91.42 333.60 91.82Q333.19 92.21 332.75 92.43Q332.31 92.65 331.97 92.65ZM346.08 90.25L346.08 90.25Q344.84 90.25 343.71 89.81Q342.59 89.37 341.71 88.58Q340.84 87.79 340.34 86.72Q339.83 85.64 339.83 84.40L339.83 84.40Q339.83 83.07 340.35 81.92Q340.88 80.77 341.79 79.90Q342.71 79.04 343.91 78.55Q345.11 78.07 346.46 78.07L346.46 78.07Q346.76 78.07 347.29 78.13Q347.82 78.19 348.39 78.28Q348.96 78.37 349.42 78.47Q349.88 78.57 350.06 78.66L350.06 78.66Q350.15 78.70 350.17 78.74Q350.20 78.79 350.22 78.88L350.22 78.88Q350.29 79.40 350.34 79.91Q350.40 80.42 350.40 80.78L350.40 80.78Q350.40 80.91 350.32 81.03Q350.24 81.14 350.13 81.14L350.13 81.14Q349.95 81.14 349.86 80.98Q349.77 80.82 349.71 80.66L349.71 80.66Q349.61 80.37 349.49 80.16Q349.37 79.96 349.16 79.70L349.16 79.70Q349.05 79.56 348.70 79.33Q348.35 79.11 347.75 78.93Q347.16 78.75 346.29 78.75L346.29 78.75Q345.25 78.75 344.39 79.19Q343.52 79.63 342.90 80.40Q342.28 81.16 341.95 82.13Q341.61 83.11 341.61 84.17L341.61 84.17Q341.61 85.45 342.01 86.45Q342.41 87.46 343.07 88.16Q343.74 88.87 344.58 89.23Q345.43 89.59 346.33 89.59L346.33 89.59Q347.37 89.59 347.87 89.33Q348.36 89.08 348.53 88.92L348.53 88.92Q348.72 88.72 348.90 88.36Q349.07 88.00 349.07 87.53L349.07 87.53Q349.07 87.37 349.08 87.19Q349.08 87.01 349.09 86.83Q349.10 86.65 349.10 86.49L349.10 86.49Q349.10 86.29 349.08 86.16Q349.07 86.02 349.01 85.95L349.01 85.95Q348.87 85.75 348.51 85.63Q348.15 85.50 347.79 85.45Q347.43 85.39 347.25 85.39L347.25 85.39Q347.18 85.39 347.03 85.30Q346.89 85.21 346.89 85.09L346.89 85.09Q346.89 84.94 347.03 84.86Q347.18 84.78 347.25 84.78L347.25 84.78Q347.70 84.78 348.02 84.80Q348.35 84.82 348.69 84.83Q349.03 84.85 349.52 84.85L349.52 84.85Q349.98 84.85 350.31 84.82Q350.63 84.78 351.12 84.78L351.12 84.78Q351.19 84.78 351.34 84.83Q351.50 84.89 351.50 85.07L351.50 85.07Q351.50 85.19 351.34 85.28Q351.19 85.37 351.12 85.39L351.12 85.39Q350.72 85.50 350.57 85.71Q350.42 85.91 350.36 86.27L350.36 86.27Q350.31 86.67 350.29 86.98Q350.27 87.28 350.27 87.62L350.27 87.62L350.27 88.11Q350.27 88.20 350.31 88.25Q350.34 88.31 350.38 88.40L350.38 88.40Q350.43 88.49 350.52 88.56Q350.61 88.63 350.61 88.70L350.61 88.70Q350.61 88.78 350.59 88.89Q350.56 89.01 350.36 89.05L350.36 89.05Q350.24 89.06 349.87 89.25Q349.50 89.44 348.94 89.68Q348.38 89.91 347.66 90.08Q346.94 90.25 346.08 90.25ZM352.94 90.05L352.94 90.05Q352.77 90.05 352.68 90.01Q352.58 89.96 352.58 89.86L352.58 89.86Q352.58 89.71 352.71 89.66Q352.85 89.60 352.99 89.57L352.99 89.57Q353.37 89.48 353.57 89.34Q353.76 89.21 353.76 88.88L353.76 88.88L353.76 84.98Q353.76 84.49 353.59 84.11Q353.42 83.74 352.95 83.66L352.95 83.66Q352.86 83.65 352.82 83.59Q352.77 83.54 352.77 83.43L352.77 83.43Q352.77 83.23 352.94 83.21L352.94 83.21Q353.66 83.05 354.12 82.77Q354.59 82.49 354.83 82.31L354.83 82.31Q354.99 82.19 355.08 82.19L355.08 82.19Q355.19 82.19 355.19 82.28L355.19 82.28Q355.19 82.42 355.14 82.84Q355.10 83.27 355.06 83.78Q355.02 84.29 355.02 84.71L355.02 84.71L355.02 88.88Q355.02 89.19 355.23 89.33Q355.44 89.48 355.80 89.57L355.80 89.57Q355.94 89.60 356.08 89.66Q356.21 89.71 356.21 89.86L356.21 89.86Q356.21 90.05 355.85 90.05L355.85 90.05Q355.51 90.05 355.30 90.03Q355.10 90 354.91 89.98Q354.72 89.96 354.39 89.96L354.39 89.96Q354.09 89.96 353.89 89.98Q353.69 90 353.49 90.03Q353.30 90.05 352.94 90.05ZM354.38 80.71L354.38 80.71Q354.00 80.71 353.74 80.45Q353.48 80.19 353.48 79.81L353.48 79.81Q353.48 79.42 353.74 79.16Q354.00 78.89 354.38 78.89L354.38 78.89Q354.77 78.89 355.03 79.16Q355.29 79.42 355.29 79.81L355.29 79.81Q355.29 80.19 355.03 80.45Q354.77 80.71 354.38 80.71ZM359.96 90.25L359.96 90.25Q359.07 90.25 358.58 89.71Q358.08 89.17 358.08 88.11L358.08 88.11L358.08 83.93Q358.08 83.79 357.98 83.73Q357.87 83.66 357.51 83.66L357.51 83.66L357.40 83.66Q357.31 83.66 357.25 83.55Q357.18 83.43 357.18 83.30L357.18 83.30Q357.18 83.27 357.24 83.20Q357.29 83.12 357.31 83.11L357.31 83.11Q357.67 82.85 357.97 82.60Q358.26 82.35 358.51 82.11Q358.75 81.86 358.91 81.67L358.91 81.67Q359.00 81.58 359.07 81.51Q359.13 81.45 359.22 81.45L359.22 81.45Q359.31 81.45 359.39 81.49Q359.47 81.52 359.45 81.65L359.45 81.65L359.36 82.46Q359.34 82.66 359.45 82.73Q359.56 82.80 359.79 82.80L359.79 82.80L361.85 82.80Q361.92 82.80 361.97 82.92Q362.03 83.03 362.03 83.20L362.03 83.20Q362.03 83.36 361.97 83.51Q361.92 83.66 361.85 83.66L361.85 83.66L360.06 83.66Q359.61 83.66 359.48 83.74Q359.34 83.81 359.34 84.17L359.34 84.17L359.34 87.71Q359.34 88.43 359.65 88.85Q359.96 89.26 360.53 89.26L360.53 89.26Q361.05 89.26 361.34 89.18Q361.63 89.10 361.86 88.94L361.86 88.94Q361.90 88.90 361.94 88.90L361.94 88.90Q362.01 88.90 362.04 88.98Q362.06 89.06 362.06 89.15L362.06 89.15Q362.06 89.24 361.77 89.51Q361.47 89.78 360.99 90.02Q360.51 90.25 359.96 90.25ZM362.89 92.65L362.89 92.65Q362.57 92.65 362.57 92.45L362.57 92.45Q362.57 92.38 362.63 92.31Q362.69 92.25 362.82 92.23L362.82 92.23Q363.21 92.14 363.61 91.93Q364.01 91.71 364.28 91.31Q364.55 90.90 364.55 90.27L364.55 90.27Q364.55 90.05 364.35 89.78Q364.15 89.50 363.84 89.48L363.84 89.48Q363.45 89.44 363.22 89.23Q363.00 89.01 363.00 88.72L363.00 88.72Q363.00 88.36 363.30 88.13Q363.59 87.89 363.99 87.89L363.99 87.89Q364.64 87.89 365.06 88.39Q365.48 88.88 365.48 89.64L365.48 89.64Q365.48 90.32 365.21 90.87Q364.94 91.42 364.53 91.82Q364.11 92.21 363.67 92.43Q363.23 92.65 362.89 92.65ZM370.43 90.09L370.43 90.09Q370.20 90.09 370.05 90.03Q369.91 89.96 369.91 89.86L369.91 89.86Q369.91 89.73 370.06 89.63Q370.22 89.53 370.50 89.44L370.50 89.44Q370.97 89.30 371.37 89.01Q371.76 88.72 372.05 88.06L372.05 88.06Q372.56 86.90 372.98 85.90Q373.40 84.89 373.78 83.92Q374.16 82.94 374.56 81.89Q374.97 80.84 375.42 79.60L375.42 79.60Q375.51 79.34 375.58 79.09Q375.65 78.84 375.67 78.55L375.67 78.55Q375.83 78.50 375.99 78.44Q376.16 78.39 376.32 78.28L376.32 78.28Q376.48 78.17 376.54 77.96Q376.61 77.74 376.66 77.67L376.66 77.67Q376.68 77.65 376.71 77.65Q376.73 77.65 376.75 77.69L376.75 77.69Q376.79 77.76 376.81 77.87Q376.84 77.98 376.88 78.08L376.88 78.08Q377.31 79.45 377.78 80.87Q378.24 82.30 378.69 83.62Q379.13 84.94 379.50 86.00Q379.86 87.05 380.08 87.70L380.08 87.70Q380.33 88.42 380.62 88.78Q380.91 89.14 381.22 89.28Q381.54 89.42 381.90 89.50L381.90 89.50Q382.20 89.55 382.35 89.67Q382.49 89.78 382.49 89.91L382.49 89.91Q382.49 90.02 382.35 90.05Q382.20 90.09 381.97 90.09L381.97 90.09Q381.72 90.09 381.29 90.06Q380.85 90.04 380.37 90.01Q379.88 89.98 379.47 89.98L379.47 89.98Q379.13 89.98 378.77 89.98Q378.41 89.98 378.10 89.99Q377.79 90 377.58 90L377.58 90Q377.34 90 377.20 89.95Q377.06 89.89 377.06 89.78L377.06 89.78Q377.06 89.66 377.24 89.57Q377.42 89.48 377.65 89.44L377.65 89.44Q378.24 89.35 378.50 89.14Q378.75 88.92 378.75 88.63L378.75 88.63Q378.75 88.36 378.63 87.85Q378.51 87.34 378.35 86.75Q378.19 86.17 378.05 85.72L378.05 85.72Q378.01 85.57 377.91 85.55Q377.81 85.52 377.56 85.52L377.56 85.52L374.16 85.52Q374.09 85.52 374.01 85.58Q373.92 85.64 373.85 85.84L373.85 85.84Q373.80 86.02 373.67 86.41Q373.55 86.80 373.42 87.23Q373.29 87.66 373.20 88.00Q373.11 88.34 373.11 88.43L373.11 88.43Q373.11 88.83 373.42 89.09Q373.73 89.35 374.16 89.46L374.16 89.46Q374.75 89.62 374.75 89.82L374.75 89.82Q374.75 89.93 374.61 89.97Q374.46 90.02 374.23 90.02L374.23 90.02Q374.00 90.02 373.55 90Q373.10 89.98 372.59 89.98L372.59 89.98Q372.00 89.98 371.44 90.04Q370.88 90.09 370.43 90.09ZM374.64 84.92L374.64 84.92L377.43 84.92Q377.69 84.92 377.69 84.83L377.69 84.83Q377.69 84.80 377.68 84.75Q377.67 84.71 377.65 84.65L377.65 84.65L376.25 80.26Q376.14 79.94 376.08 79.94L376.08 79.94Q376.05 79.94 375.94 80.24L375.94 80.24L374.30 84.65Q374.27 84.76 374.27 84.80L374.27 84.80Q374.27 84.89 374.37 84.91Q374.46 84.92 374.64 84.92ZM388.43 90.29L388.43 90.29Q388.40 90.29 388.32 90.13Q388.25 89.96 388.18 89.78L388.18 89.78L384.29 80.03Q384.08 79.56 383.77 79.26Q383.46 78.97 383.00 78.84L383.00 78.84Q382.71 78.75 382.56 78.66Q382.40 78.57 382.40 78.44L382.40 78.44Q382.40 78.34 382.55 78.29Q382.69 78.25 382.92 78.25L382.92 78.25Q383.34 78.25 383.71 78.27Q384.08 78.30 384.53 78.30L384.53 78.30Q385.03 78.30 385.48 78.28Q385.93 78.26 386.20 78.26L386.20 78.26Q386.43 78.26 386.58 78.31Q386.72 78.35 386.72 78.46L386.72 78.46Q386.72 78.59 386.58 78.66Q386.43 78.73 386.13 78.82L386.13 78.82Q385.91 78.88 385.84 79.05Q385.77 79.22 385.77 79.42L385.77 79.42Q385.77 79.70 385.84 79.95Q385.91 80.19 385.91 80.19L385.91 80.19Q386.33 81.23 386.67 82.10Q387.01 82.96 387.34 83.76Q387.68 84.56 388.05 85.40Q388.41 86.24 388.86 87.26L388.86 87.26Q388.95 87.46 389.02 87.44Q389.08 87.43 389.13 87.28L389.13 87.28L390.54 83.81Q390.59 83.66 390.62 83.56Q390.65 83.47 390.65 83.39L390.65 83.39Q390.65 83.29 390.61 83.17Q390.57 83.05 390.50 82.87L390.50 82.87L389.48 80.32Q389.24 79.74 388.74 79.35Q388.23 78.97 387.77 78.84L387.77 78.84Q387.48 78.75 387.33 78.66Q387.17 78.57 387.17 78.44L387.17 78.44Q387.17 78.34 387.32 78.29Q387.46 78.25 387.69 78.25L387.69 78.25Q387.98 78.25 388.24 78.26Q388.50 78.28 388.78 78.29Q389.06 78.30 389.39 78.30L389.39 78.30Q389.80 78.30 390.15 78.28Q390.50 78.26 390.77 78.26L390.77 78.26Q391.01 78.26 391.15 78.31Q391.29 78.35 391.29 78.46L391.29 78.46Q391.29 78.61 391.11 78.70Q390.93 78.79 390.75 78.89Q390.56 79.00 390.56 79.22L390.56 79.22Q390.56 79.25 390.57 79.29Q390.57 79.33 390.59 79.36L390.59 79.36Q390.63 79.43 390.73 79.71Q390.83 79.99 390.96 80.33Q391.10 80.68 391.22 80.97Q391.35 81.27 391.40 81.40L391.40 81.40Q391.49 81.61 391.56 81.62Q391.62 81.63 391.73 81.40L391.73 81.40Q391.87 81.07 392.02 80.66Q392.18 80.24 392.29 79.88Q392.41 79.51 392.45 79.36L392.45 79.36Q392.46 79.31 392.46 79.24L392.46 79.24Q392.46 79.02 392.30 78.91Q392.14 78.80 391.97 78.70Q391.80 78.61 391.80 78.46L391.80 78.46Q391.80 78.35 391.94 78.31Q392.09 78.26 392.32 78.26L392.32 78.26Q392.72 78.26 392.86 78.28Q393.00 78.30 393.26 78.30L393.26 78.30Q393.56 78.30 393.78 78.27Q393.99 78.25 394.32 78.25L394.32 78.25Q394.55 78.25 394.70 78.29Q394.84 78.34 394.84 78.44L394.84 78.44Q394.84 78.57 394.70 78.65Q394.55 78.73 394.25 78.80L394.25 78.80Q393.67 78.93 393.46 79.11Q393.26 79.29 393.02 79.67L393.02 79.67Q392.93 79.83 392.76 80.21Q392.59 80.59 392.40 81.04Q392.21 81.49 392.07 81.88L392.07 81.88Q392.01 82.01 391.97 82.24Q391.92 82.48 391.96 82.57L391.96 82.57L393.81 87.34Q393.85 87.43 393.90 87.39Q393.96 87.35 394.01 87.23L394.01 87.23Q394.46 86.04 395.03 84.19Q395.60 82.33 396.21 80.26L396.21 80.26Q396.26 80.10 396.29 79.93Q396.32 79.76 396.32 79.61L396.32 79.61Q396.32 79.34 396.20 79.13Q396.08 78.91 395.78 78.84L395.78 78.84Q395.60 78.79 395.39 78.70Q395.18 78.61 395.18 78.48L395.18 78.48Q395.18 78.37 395.33 78.33Q395.47 78.28 395.70 78.28L395.70 78.28Q396.06 78.28 396.36 78.29Q396.66 78.30 397.00 78.30L397.00 78.30Q397.45 78.30 397.86 78.27Q398.28 78.25 398.62 78.25L398.62 78.25Q398.85 78.25 399.00 78.29Q399.14 78.34 399.14 78.44L399.14 78.44Q399.14 78.57 399.00 78.65Q398.85 78.73 398.55 78.80L398.55 78.80Q398.12 78.89 397.82 79.17Q397.52 79.45 397.35 79.78Q397.18 80.12 397.07 80.39L397.07 80.39L393.89 89.80Q393.87 89.87 393.78 90.05Q393.69 90.22 393.60 90.22L393.60 90.22Q393.53 90.22 393.44 90.11Q393.35 90 393.29 89.87L393.29 89.87Q392.82 88.79 392.48 87.94Q392.14 87.08 391.83 86.22Q391.51 85.36 391.08 84.31L391.08 84.31Q391.02 84.19 390.99 84.21Q390.95 84.24 390.88 84.42L390.88 84.42Q390.45 85.45 390.13 86.24Q389.82 87.03 389.51 87.85Q389.21 88.67 388.83 89.73L388.83 89.73Q388.76 89.91 388.65 90.10Q388.54 90.29 388.43 90.29ZM402.56 90.29L402.56 90.29Q401.81 90.29 401.17 90.06Q400.53 89.84 400.02 89.42L400.02 89.42Q399.95 89.35 399.89 89.26Q399.83 89.17 399.79 89.06L399.79 89.06Q399.70 88.70 399.67 88.13Q399.65 87.55 399.61 87.17L399.61 87.17Q399.61 87.05 399.72 86.98Q399.83 86.92 399.97 86.92L399.97 86.92Q400.06 86.92 400.15 86.97Q400.24 87.01 400.26 87.12L400.26 87.12Q400.62 88.51 401.33 89.10Q402.04 89.69 402.81 89.69L402.81 89.69Q403.44 89.69 403.93 89.42Q404.42 89.15 404.70 88.66Q404.97 88.16 404.97 87.50L404.97 87.50Q404.97 86.76 404.73 86.30Q404.49 85.84 404.04 85.50Q403.59 85.16 402.94 84.76L402.94 84.76Q402.24 84.31 401.55 83.85Q400.87 83.39 400.42 82.79Q399.97 82.19 399.97 81.32L399.97 81.32Q399.97 80.41 400.38 79.67Q400.80 78.93 401.64 78.49Q402.47 78.05 403.73 78.05L403.73 78.05Q404.38 78.05 404.86 78.18Q405.33 78.32 405.62 78.44L405.62 78.44Q405.77 78.50 405.87 78.62Q405.96 78.75 406.00 78.89L406.00 78.89Q406.11 79.27 406.23 79.76Q406.36 80.24 406.36 80.68L406.36 80.68Q406.36 80.87 406.09 80.87L406.09 80.87Q405.93 80.87 405.78 80.80Q405.62 80.73 405.59 80.62L405.59 80.62Q405.21 79.67 404.70 79.16Q404.20 78.66 403.43 78.66L403.43 78.66Q402.89 78.66 402.42 78.86Q401.95 79.06 401.65 79.51Q401.36 79.96 401.36 80.71L401.36 80.71Q401.36 81.25 401.71 81.69Q402.06 82.13 402.63 82.53Q403.21 82.93 403.88 83.34L403.88 83.34Q404.51 83.72 405.11 84.17Q405.71 84.62 406.10 85.24Q406.49 85.86 406.49 86.76L406.49 86.76Q406.49 87.82 406.00 88.62Q405.51 89.42 404.63 89.86Q403.75 90.29 402.56 90.29ZM407.94 92.65L407.94 92.65Q407.62 92.65 407.62 92.45L407.62 92.45Q407.62 92.38 407.68 92.31Q407.75 92.25 407.87 92.23L407.87 92.23Q408.27 92.14 408.66 91.93Q409.06 91.71 409.33 91.31Q409.60 90.90 409.60 90.27L409.60 90.27Q409.60 90.05 409.40 89.78Q409.20 89.50 408.90 89.48L408.90 89.48Q408.50 89.44 408.28 89.23Q408.05 89.01 408.05 88.72L408.05 88.72Q408.05 88.36 408.35 88.13Q408.65 87.89 409.04 87.89L409.04 87.89Q409.69 87.89 410.11 88.39Q410.54 88.88 410.54 89.64L410.54 89.64Q410.54 90.32 410.27 90.87Q410.00 91.42 409.58 91.82Q409.17 92.21 408.73 92.43Q408.29 92.65 407.94 92.65ZM422.33 90.27L422.33 90.27Q421.07 90.27 419.90 89.84Q418.73 89.41 417.81 88.61Q416.89 87.80 416.36 86.68Q415.83 85.55 415.83 84.19L415.83 84.19Q415.83 82.87 416.39 81.76Q416.94 80.64 417.92 79.81Q418.89 78.98 420.14 78.53Q421.39 78.07 422.78 78.07L422.78 78.07Q423.48 78.07 423.96 78.12Q424.45 78.17 424.91 78.27Q425.37 78.37 425.98 78.53L425.98 78.53Q426.25 78.61 426.37 78.75Q426.48 78.89 426.50 79.15L426.50 79.15Q426.54 79.56 426.59 80.04Q426.65 80.51 426.66 81.22L426.66 81.22Q426.68 81.34 426.55 81.42Q426.41 81.50 426.26 81.47Q426.11 81.43 426.05 81.23L426.05 81.23Q425.87 80.55 425.64 80.06Q425.40 79.56 424.94 79.24L424.94 79.24Q424.49 78.93 423.85 78.78Q423.21 78.62 422.47 78.62L422.47 78.62Q421.43 78.62 420.54 79.05Q419.64 79.47 419.01 80.20Q418.37 80.93 418.01 81.85Q417.65 82.76 417.65 83.75L417.65 83.75Q417.65 84.85 418.00 85.91Q418.35 86.98 419.01 87.83Q419.66 88.69 420.57 89.20Q421.48 89.71 422.60 89.71L422.60 89.71Q423.89 89.71 424.74 89.12Q425.58 88.52 426.18 87.46L426.18 87.46Q426.30 87.23 426.55 87.23Q426.79 87.23 426.79 87.52L426.79 87.52Q426.79 87.66 426.72 87.97Q426.65 88.29 426.53 88.64Q426.41 88.99 426.30 89.26L426.30 89.26Q426.18 89.51 426.10 89.59Q426.02 89.66 425.73 89.75L425.73 89.75Q425.06 90.02 424.14 90.14Q423.21 90.27 422.33 90.27ZM428.64 90.09L428.64 90.09Q428.41 90.09 428.27 90.05Q428.12 90 428.12 89.89L428.12 89.89Q428.12 89.68 428.72 89.57L428.72 89.57Q429.40 89.44 429.76 89.15Q430.12 88.87 430.12 88.24L430.12 88.24L430.12 80.10Q430.12 79.47 429.86 79.20Q429.60 78.93 428.91 78.80L428.91 78.80Q428.32 78.70 428.32 78.44L428.32 78.44Q428.32 78.34 428.46 78.29Q428.61 78.25 428.84 78.25L428.84 78.25Q429.33 78.25 429.64 78.26Q429.96 78.28 430.25 78.29Q430.53 78.30 430.95 78.30L430.95 78.30Q431.34 78.30 431.60 78.29Q431.85 78.28 432.14 78.26Q432.42 78.25 432.91 78.25L432.91 78.25Q433.14 78.25 433.29 78.29Q433.43 78.34 433.43 78.44L433.43 78.44Q433.43 78.57 433.29 78.66Q433.14 78.75 432.84 78.80L432.84 78.80Q432.17 78.93 431.87 79.20Q431.56 79.47 431.56 80.10L431.56 80.10L431.56 88.24Q431.56 88.87 431.94 89.15Q432.32 89.44 432.98 89.57L432.98 89.57Q433.29 89.62 433.43 89.69Q433.58 89.77 433.58 89.89L433.58 89.89Q433.58 90 433.43 90.05Q433.29 90.09 433.05 90.09L433.05 90.09Q432.57 90.09 432.25 90.06Q431.94 90.04 431.65 90.02Q431.36 90 430.95 90L430.95 90Q430.50 90 430.17 90.02Q429.83 90.04 429.48 90.06Q429.13 90.09 428.64 90.09ZM434.57 91.12L434.57 91.12Q434.39 91.12 434.31 91.03Q434.22 90.95 434.28 90.85L434.28 90.85L439.62 78.34Q439.71 78.14 439.90 78.08Q440.09 78.03 440.33 78.03L440.33 78.03Q440.51 78.03 440.56 78.12Q440.61 78.21 440.56 78.34L440.56 78.34L435.21 90.85Q435.14 91.03 434.95 91.07Q434.76 91.12 434.57 91.12ZM448.41 90.27L448.41 90.27Q447.15 90.27 445.98 89.84Q444.81 89.41 443.89 88.61Q442.97 87.80 442.44 86.68Q441.91 85.55 441.91 84.19L441.91 84.19Q441.91 82.87 442.47 81.76Q443.03 80.64 444.00 79.81Q444.97 78.98 446.22 78.53Q447.47 78.07 448.86 78.07L448.86 78.07Q449.56 78.07 450.05 78.12Q450.53 78.17 450.99 78.27Q451.45 78.37 452.06 78.53L452.06 78.53Q452.33 78.61 452.45 78.75Q452.57 78.89 452.58 79.15L452.58 79.15Q452.62 79.56 452.67 80.04Q452.73 80.51 452.75 81.22L452.75 81.22Q452.76 81.34 452.63 81.42Q452.49 81.50 452.34 81.47Q452.19 81.43 452.13 81.23L452.13 81.23Q451.95 80.55 451.72 80.06Q451.49 79.56 451.02 79.24L451.02 79.24Q450.57 78.93 449.93 78.78Q449.29 78.62 448.55 78.62L448.55 78.62Q447.51 78.62 446.62 79.05Q445.73 79.47 445.09 80.20Q444.45 80.93 444.09 81.85Q443.73 82.76 443.73 83.75L443.73 83.75Q443.73 84.85 444.08 85.91Q444.43 86.98 445.09 87.83Q445.74 88.69 446.65 89.20Q447.56 89.71 448.68 89.71L448.68 89.71Q449.97 89.71 450.82 89.12Q451.67 88.52 452.26 87.46L452.26 87.46Q452.39 87.23 452.63 87.23Q452.87 87.23 452.87 87.52L452.87 87.52Q452.87 87.66 452.80 87.97Q452.73 88.29 452.61 88.64Q452.49 88.99 452.39 89.26L452.39 89.26Q452.26 89.51 452.18 89.59Q452.10 89.66 451.81 89.75L451.81 89.75Q451.14 90.02 450.22 90.14Q449.29 90.27 448.41 90.27ZM460.54 90.13L460.54 90.13Q460.36 90.13 459.74 90.09Q459.12 90.05 458.32 90.03Q457.52 90 456.80 90L456.80 90Q456.44 90 456.19 90.02Q455.95 90.04 455.67 90.06Q455.39 90.09 454.91 90.09L454.91 90.09Q454.67 90.09 454.53 90.04Q454.38 89.98 454.38 89.86L454.38 89.86Q454.38 89.71 454.53 89.67Q454.67 89.62 454.98 89.57L454.98 89.57Q455.66 89.44 455.92 89.15Q456.18 88.87 456.18 88.22L456.18 88.22L456.18 80.12Q456.18 79.47 455.92 79.20Q455.66 78.93 454.98 78.80L454.98 78.80Q454.67 78.75 454.53 78.69Q454.38 78.62 454.38 78.48L454.38 78.48Q454.38 78.35 454.53 78.30Q454.67 78.25 454.91 78.25L454.91 78.25Q455.37 78.25 455.65 78.25Q455.93 78.26 456.20 78.27Q456.47 78.28 456.90 78.28L456.90 78.28Q457.19 78.28 457.63 78.26Q458.07 78.25 458.55 78.21Q459.03 78.17 459.42 78.16Q459.80 78.14 459.98 78.14L459.98 78.14Q461.82 78.14 463.11 78.58Q464.41 79.02 465.22 79.80Q466.03 80.59 466.42 81.62Q466.80 82.66 466.80 83.84L466.80 83.84Q466.80 85.14 466.32 86.27Q465.83 87.41 464.97 88.28Q464.10 89.15 462.97 89.64Q461.84 90.13 460.54 90.13ZM460.32 89.50L460.32 89.50Q461.73 89.50 462.81 88.81Q463.89 88.13 464.49 86.92Q465.09 85.72 465.09 84.15L465.09 84.15Q465.09 82.85 464.66 81.84Q464.23 80.82 463.51 80.13Q462.79 79.43 461.89 79.06Q460.99 78.70 460.07 78.70L460.07 78.70Q459.30 78.70 458.75 78.74Q458.20 78.79 457.91 79.02Q457.62 79.25 457.62 79.79L457.62 79.79L457.62 87.82Q457.62 88.54 458.02 88.90Q458.42 89.26 459.04 89.38Q459.66 89.50 460.32 89.50Z"/>
  </svg>