<svg viewBox="0 0 800 150" width="100%" xmlns="http://www.w3.org/2000/svg">
    <rect width="800" height="150" fill="#0d1117" rx="8" />
    <rect width="800" height="150" fill="none" stroke="#14b8a6" stroke-width="2" stroke-opacity="0.2" rx="8" />
    
      <g transform="translate(150, 75)">
        <animateTransform attributeName="transform" type="rotate" from="0 0 0" to="360 0 0" dur="40s" repeatCount="indefinite" />
        <circle r="60" fill="none" stroke="#14b8a6" stroke-width="1" opacity="0.6" stroke-dasharray="4 4" />
        <circle r="54" fill="none" stroke="#14b8a6" stroke-width="0.5" opacity="0.4" />
        <path d="M0,-48L41.569,24L-41.569,24Z" fill="none" stroke="#14b8a6" stroke-width="1.5" opacity="0.7" />
        <path d="M41.569,-24L0,48L-41.569,-24Z" fill="none" stroke="#14b8a6" stroke-width="1.5" opacity="0.7" />
        <path d="M0,24L-20.785,-12L20.785,-12Z" fill="none" stroke="#14b8a6" stroke-width="1.5" opacity="0.9" />
      </g>
    
    <path fill="#e2e8f0" d="M292.54 50.45L292.54 50.45Q290.34 50.45 288.34 49.66Q286.34 48.88 284.78 47.47Q283.23 46.06 282.34 44.16Q281.44 42.26 281.44 40.05L281.44 40.05Q281.44 37.68 282.37 35.63Q283.30 33.58 284.93 32.05Q286.56 30.51 288.69 29.65Q290.82 28.78 293.22 28.78L293.22 28.78Q293.76 28.78 294.70 28.90Q295.65 29.01 296.66 29.17Q297.66 29.33 298.48 29.50Q299.30 29.68 299.62 29.84L299.62 29.84Q299.78 29.90 299.82 29.98Q299.87 30.06 299.90 30.22L299.90 30.22Q300.03 31.15 300.13 32.06Q300.22 32.98 300.22 33.62L300.22 33.62Q300.22 33.84 300.08 34.05Q299.94 34.26 299.74 34.26L299.74 34.26Q299.42 34.26 299.26 33.97Q299.10 33.68 299.01 33.39L299.01 33.39Q298.82 32.88 298.61 32.51Q298.40 32.14 298.02 31.70L298.02 31.70Q297.82 31.44 297.20 31.04Q296.58 30.64 295.52 30.32Q294.46 30 292.93 30L292.93 30Q291.07 30 289.54 30.78Q288 31.57 286.90 32.93Q285.79 34.29 285.20 36.02Q284.61 37.74 284.61 39.63L284.61 39.63Q284.61 41.90 285.31 43.70Q286.02 45.49 287.20 46.74Q288.38 47.98 289.89 48.62Q291.39 49.26 292.99 49.26L292.99 49.26Q294.85 49.26 295.73 48.82Q296.61 48.37 296.90 48.08L296.90 48.08Q297.25 47.73 297.55 47.09Q297.86 46.45 297.86 45.62L297.86 45.62Q297.86 45.33 297.87 45.01Q297.89 44.69 297.90 44.37Q297.92 44.05 297.92 43.76L297.92 43.76Q297.92 43.41 297.89 43.17Q297.86 42.93 297.76 42.80L297.76 42.80Q297.50 42.45 296.86 42.22Q296.22 42 295.58 41.90Q294.94 41.81 294.62 41.81L294.62 41.81Q294.50 41.81 294.24 41.65Q293.98 41.49 293.98 41.26L293.98 41.26Q293.98 41.01 294.24 40.86Q294.50 40.72 294.62 40.72L294.62 40.72Q295.42 40.72 296 40.75Q296.58 40.78 297.18 40.82Q297.79 40.85 298.66 40.85L298.66 40.85Q299.49 40.85 300.06 40.78Q300.64 40.72 301.50 40.72L301.50 40.72Q301.63 40.72 301.90 40.82Q302.18 40.91 302.18 41.23L302.18 41.23Q302.18 41.46 301.90 41.62Q301.63 41.78 301.50 41.81L301.50 41.81Q300.80 42 300.53 42.37Q300.26 42.74 300.16 43.38L300.16 43.38Q300.06 44.08 300.03 44.62Q300 45.17 300 45.78L300 45.78L300 46.64Q300 46.80 300.06 46.90Q300.13 46.99 300.19 47.15L300.19 47.15Q300.29 47.31 300.45 47.44Q300.61 47.57 300.61 47.70L300.61 47.70Q300.61 47.82 300.56 48.03Q300.51 48.24 300.16 48.30L300.16 48.30Q299.94 48.34 299.28 48.67Q298.62 49.01 297.63 49.42Q296.64 49.84 295.36 50.14Q294.08 50.45 292.54 50.45ZM304.90 50.10L304.90 50.10Q304.58 50.10 304.42 50.02Q304.26 49.94 304.26 49.74L304.26 49.74Q304.26 49.49 304.45 49.41Q304.64 49.33 304.99 49.23L304.99 49.23Q305.60 49.07 305.90 48.77Q306.21 48.46 306.21 48.02L306.21 48.02L306.21 41.14Q306.21 40.27 305.95 39.63Q305.70 38.99 304.90 38.83L304.90 38.83Q304.77 38.80 304.67 38.67Q304.58 38.54 304.58 38.42L304.58 38.42Q304.58 38.10 304.86 38.03L304.86 38.03Q305.70 37.78 306.61 37.28Q307.52 36.78 308.03 36.46L308.03 36.46Q308.22 36.34 308.34 36.29Q308.45 36.24 308.51 36.24L308.51 36.24Q308.67 36.24 308.67 36.46L308.67 36.46Q308.67 36.56 308.66 36.94Q308.64 37.33 308.62 37.84Q308.61 38.35 308.58 38.86L308.58 38.86Q308.58 38.93 308.64 38.93L308.64 38.93Q309.15 38.29 309.78 37.81Q310.40 37.33 311.06 37.04Q311.71 36.75 312.32 36.75L312.32 36.75Q312.99 36.75 313.42 37.04Q313.86 37.33 313.86 37.78L313.86 37.78Q313.86 38.10 313.68 38.48Q313.50 38.86 313.22 39.15Q312.93 39.44 312.61 39.44L312.61 39.44Q312.42 39.44 312.19 39.36Q311.97 39.28 311.71 39.15L311.71 39.15Q311.46 39.06 311.20 38.96Q310.94 38.86 310.69 38.86L310.69 38.86Q309.92 38.86 309.20 39.41Q308.48 39.95 308.48 41.55L308.48 41.55L308.48 48.02Q308.48 48.43 308.93 48.70Q309.38 48.98 310.18 49.23L310.18 49.23Q310.53 49.33 310.72 49.42Q310.91 49.52 310.91 49.74L310.91 49.74Q310.91 50.10 310.27 50.10L310.27 50.10Q309.31 50.10 308.82 50.02Q308.32 49.94 307.49 49.94L307.49 49.94Q306.94 49.94 306.61 49.97Q306.27 50 305.90 50.05Q305.54 50.10 304.90 50.10ZM315.42 50.10L315.42 50.10Q315.14 50.10 314.96 50.02Q314.78 49.94 314.78 49.74L314.78 49.74Q314.78 49.49 315.02 49.39Q315.26 49.30 315.52 49.23L315.52 49.23Q316.19 49.07 316.54 48.83Q316.90 48.59 316.90 48.02L316.90 48.02L316.90 41.07Q316.90 40.21 316.59 39.54Q316.29 38.86 315.46 38.74L315.46 38.74Q315.30 38.70 315.22 38.61Q315.14 38.51 315.14 38.32L315.14 38.32Q315.14 37.97 315.42 37.94L315.42 37.94Q316.70 37.65 317.54 37.15Q318.37 36.66 318.78 36.34L318.78 36.34Q319.07 36.11 319.23 36.11L319.23 36.11Q319.42 36.11 319.42 36.27L319.42 36.27Q319.42 36.53 319.34 37.28Q319.26 38.03 319.20 38.94Q319.14 39.86 319.14 40.59L319.14 40.59L319.14 48.02Q319.14 48.56 319.50 48.82Q319.87 49.07 320.51 49.23L320.51 49.23Q320.77 49.30 321.01 49.39Q321.25 49.49 321.25 49.74L321.25 49.74Q321.25 50.10 320.61 50.10L320.61 50.10Q320.00 50.10 319.63 50.05Q319.26 50 318.93 49.97Q318.59 49.94 318.02 49.94L318.02 49.94Q317.47 49.94 317.12 49.97Q316.77 50 316.42 50.05Q316.06 50.10 315.42 50.10ZM317.98 33.49L317.98 33.49Q317.31 33.49 316.85 33.02Q316.38 32.56 316.38 31.89L316.38 31.89Q316.38 31.18 316.85 30.72Q317.31 30.26 317.98 30.26L317.98 30.26Q318.69 30.26 319.15 30.72Q319.62 31.18 319.62 31.89L319.62 31.89Q319.62 32.56 319.15 33.02Q318.69 33.49 317.98 33.49ZM323.26 50.10L323.26 50.10Q323.01 50.10 322.82 50.03Q322.62 49.97 322.62 49.74L322.62 49.74Q322.62 49.52 322.83 49.42Q323.04 49.33 323.36 49.23L323.36 49.23Q323.81 49.07 324.27 48.86Q324.74 48.66 324.74 48.02L324.74 48.02L324.74 41.14Q324.74 40.27 324.54 39.62Q324.35 38.96 323.52 38.83L323.52 38.83Q323.39 38.80 323.31 38.70Q323.23 38.61 323.23 38.42L323.23 38.42Q323.23 38.10 323.49 38.03L323.49 38.03Q324.35 37.81 324.86 37.57Q325.38 37.33 325.78 37.02Q326.18 36.72 326.75 36.37L326.75 36.37Q326.82 36.34 326.88 36.29Q326.94 36.24 327.04 36.24L327.04 36.24Q327.23 36.24 327.23 36.46L327.23 36.46Q327.23 36.69 327.15 37.38Q327.07 38.06 327.07 38.51L327.07 38.51Q327.07 38.83 327.14 38.90L327.14 38.90L327.20 38.90Q327.94 38.19 329.14 37.47Q330.34 36.75 332.19 36.75L332.19 36.75Q333.34 36.75 334.11 37.25Q334.88 37.74 335.39 38.96L335.39 38.96L335.49 38.96Q336.51 38.03 337.82 37.39Q339.14 36.75 340.70 36.75L340.70 36.75Q341.76 36.75 342.46 37.39Q343.17 38.03 343.54 39.06Q343.90 40.08 343.90 41.20L343.90 41.20L343.90 48.02Q343.90 48.66 344.35 48.86Q344.80 49.07 345.28 49.23L345.28 49.23Q345.60 49.33 345.81 49.42Q346.02 49.52 346.02 49.74L346.02 49.74Q346.02 49.94 345.87 50.02Q345.73 50.10 345.38 50.10L345.38 50.10Q344.74 50.10 344.38 50.05Q344.03 50 343.73 49.97Q343.42 49.94 342.85 49.94L342.85 49.94Q342.30 49.94 341.95 49.97Q341.60 50 341.22 50.05Q340.83 50.10 340.19 50.10L340.19 50.10Q339.90 50.10 339.73 50.02Q339.55 49.94 339.55 49.74L339.55 49.74Q339.55 49.49 339.76 49.39Q339.97 49.30 340.29 49.23L340.29 49.23Q340.80 49.10 341.23 48.88Q341.66 48.66 341.66 48.02L341.66 48.02L341.66 41.30Q341.66 40.53 341.31 39.84Q340.96 39.15 340.38 38.70Q339.81 38.26 339.10 38.26L339.10 38.26Q338.30 38.26 337.62 38.45Q336.93 38.64 336.32 39.12L336.32 39.12Q335.42 39.82 335.42 41.42L335.42 41.42L335.42 48.02Q335.42 48.66 335.90 48.88Q336.38 49.10 336.86 49.23L336.86 49.23Q337.18 49.30 337.39 49.41Q337.60 49.52 337.60 49.74L337.60 49.74Q337.60 49.94 337.44 50.02Q337.28 50.10 336.96 50.10L336.96 50.10Q336.32 50.10 335.95 50.05Q335.58 50 335.25 49.97Q334.91 49.94 334.34 49.94L334.34 49.94Q333.79 49.94 333.44 49.97Q333.09 50 332.70 50.05Q332.32 50.10 331.68 50.10L331.68 50.10Q331.42 50.10 331.23 50.02Q331.04 49.94 331.04 49.74L331.04 49.74Q331.04 49.49 331.28 49.41Q331.52 49.33 331.78 49.23L331.78 49.23Q332.26 49.07 332.72 48.86Q333.18 48.66 333.18 48.02L333.18 48.02L333.18 41.30Q333.18 40.53 332.83 39.84Q332.48 39.15 331.90 38.70Q331.33 38.26 330.62 38.26L330.62 38.26Q329.82 38.26 329.14 38.45Q328.45 38.64 327.84 39.12L327.84 39.12Q326.98 39.76 326.98 41.42L326.98 41.42L326.98 48.02Q326.98 48.66 327.42 48.86Q327.87 49.07 328.35 49.23L328.35 49.23Q328.61 49.33 328.85 49.41Q329.09 49.49 329.09 49.74L329.09 49.74Q329.09 49.94 328.91 50.02Q328.74 50.10 328.45 50.10L328.45 50.10Q327.81 50.10 327.44 50.05Q327.07 50 326.75 49.97Q326.43 49.94 325.86 49.94L325.86 49.94Q325.31 49.94 324.98 49.97Q324.64 50 324.27 50.05Q323.90 50.10 323.26 50.10ZM354.24 50.45L354.24 50.45Q352.45 50.45 351.01 49.62Q349.57 48.78 348.72 47.33Q347.87 45.87 347.87 44.02L347.87 44.02Q347.87 42.67 348.40 41.39Q348.93 40.11 349.89 39.06Q350.85 38 352.13 37.38Q353.41 36.75 354.88 36.75L354.88 36.75Q356.74 36.75 358.22 37.65Q359.71 38.54 360.59 40Q361.47 41.46 361.47 43.18L361.47 43.18Q361.47 45.04 360.66 46.70Q359.84 48.37 358.24 49.41Q356.64 50.45 354.24 50.45ZM354.91 49.49L354.91 49.49Q356.00 49.49 356.86 49.07Q357.73 48.66 358.21 47.73L358.21 47.73Q358.59 46.99 358.72 45.94Q358.85 44.88 358.85 43.95L358.85 43.95Q358.85 42.42 358.29 40.99Q357.73 39.57 356.72 38.66Q355.71 37.74 354.34 37.74L354.34 37.74Q353.47 37.74 352.78 38.02Q352.10 38.29 351.52 39.02L351.52 39.02Q350.88 39.82 350.69 40.98Q350.50 42.13 350.50 43.28L350.50 43.28Q350.50 44.85 351.07 46.27Q351.65 47.70 352.64 48.59Q353.63 49.49 354.91 49.49ZM364.00 50.10L364.00 50.10Q363.71 50.10 363.54 50.02Q363.36 49.94 363.36 49.74L363.36 49.74Q363.36 49.49 363.60 49.39Q363.84 49.30 364.10 49.23L364.10 49.23Q364.77 49.07 365.12 48.83Q365.47 48.59 365.47 48.02L365.47 48.02L365.47 41.07Q365.47 40.21 365.17 39.54Q364.86 38.86 364.03 38.74L364.03 38.74Q363.87 38.70 363.79 38.61Q363.71 38.51 363.71 38.32L363.71 38.32Q363.71 37.97 364.00 37.94L364.00 37.94Q365.28 37.65 366.11 37.15Q366.94 36.66 367.36 36.34L367.36 36.34Q367.65 36.11 367.81 36.11L367.81 36.11Q368.00 36.11 368.00 36.27L368.00 36.27Q368.00 36.53 367.92 37.28Q367.84 38.03 367.78 38.94Q367.71 39.86 367.71 40.59L367.71 40.59L367.71 48.02Q367.71 48.56 368.08 48.82Q368.45 49.07 369.09 49.23L369.09 49.23Q369.34 49.30 369.58 49.39Q369.82 49.49 369.82 49.74L369.82 49.74Q369.82 50.10 369.18 50.10L369.18 50.10Q368.58 50.10 368.21 50.05Q367.84 50 367.50 49.97Q367.17 49.94 366.59 49.94L366.59 49.94Q366.05 49.94 365.70 49.97Q365.34 50 364.99 50.05Q364.64 50.10 364.00 50.10ZM366.56 33.49L366.56 33.49Q365.89 33.49 365.42 33.02Q364.96 32.56 364.96 31.89L364.96 31.89Q364.96 31.18 365.42 30.72Q365.89 30.26 366.56 30.26L366.56 30.26Q367.26 30.26 367.73 30.72Q368.19 31.18 368.19 31.89L368.19 31.89Q368.19 32.56 367.73 33.02Q367.26 33.49 366.56 33.49ZM372.00 50.10L372.00 50.10Q371.68 50.10 371.52 50.02Q371.36 49.94 371.36 49.74L371.36 49.74Q371.36 49.49 371.55 49.41Q371.74 49.33 372.10 49.23L372.10 49.23Q372.70 49.07 373.01 48.77Q373.31 48.46 373.31 48.02L373.31 48.02L373.31 41.14Q373.31 40.27 373.06 39.63Q372.80 38.99 372.00 38.83L372.00 38.83Q371.87 38.80 371.78 38.67Q371.68 38.54 371.68 38.42L371.68 38.42Q371.68 38.10 371.97 38.03L371.97 38.03Q372.80 37.78 373.71 37.28Q374.62 36.78 375.14 36.46L375.14 36.46Q375.33 36.34 375.44 36.29Q375.55 36.24 375.62 36.24L375.62 36.24Q375.78 36.24 375.78 36.46L375.78 36.46Q375.78 36.56 375.76 36.94Q375.74 37.33 375.73 37.84Q375.71 38.35 375.68 38.86L375.68 38.86Q375.68 38.93 375.74 38.93L375.74 38.93Q376.26 38.29 376.88 37.81Q377.50 37.33 378.16 37.04Q378.82 36.75 379.42 36.75L379.42 36.75Q380.10 36.75 380.53 37.04Q380.96 37.33 380.96 37.78L380.96 37.78Q380.96 38.10 380.78 38.48Q380.61 38.86 380.32 39.15Q380.03 39.44 379.71 39.44L379.71 39.44Q379.52 39.44 379.30 39.36Q379.07 39.28 378.82 39.15L378.82 39.15Q378.56 39.06 378.30 38.96Q378.05 38.86 377.79 38.86L377.79 38.86Q377.02 38.86 376.30 39.41Q375.58 39.95 375.58 41.55L375.58 41.55L375.58 48.02Q375.58 48.43 376.03 48.70Q376.48 48.98 377.28 49.23L377.28 49.23Q377.63 49.33 377.82 49.42Q378.02 49.52 378.02 49.74L378.02 49.74Q378.02 50.10 377.38 50.10L377.38 50.10Q376.42 50.10 375.92 50.02Q375.42 49.94 374.59 49.94L374.59 49.94Q374.05 49.94 373.71 49.97Q373.38 50 373.01 50.05Q372.64 50.10 372.00 50.10ZM387.94 50.48L387.94 50.48Q386.18 50.48 384.86 49.62Q383.55 48.75 382.82 47.17Q382.08 45.58 382.08 43.50L382.08 43.50Q382.08 41.65 382.93 40.13Q383.78 38.61 385.18 37.68Q386.59 36.75 388.26 36.75L388.26 36.75Q389.54 36.75 390.53 37.26Q391.52 37.78 392.08 38.69Q392.64 39.60 392.64 40.78L392.64 40.78Q392.64 41.78 391.68 41.78L391.68 41.78L384.93 41.78Q384.48 41.78 384.30 42.02Q384.13 42.26 384.13 42.96L384.13 42.96Q384.13 44.50 384.80 45.76Q385.47 47.02 386.59 47.78Q387.71 48.53 389.06 48.53L389.06 48.53Q390.02 48.53 390.80 48.16Q391.58 47.79 392.19 47.09L392.19 47.09Q392.32 46.93 392.38 46.88Q392.45 46.83 392.54 46.83L392.54 46.83Q392.80 46.83 392.80 47.15L392.80 47.15Q392.80 47.76 392.22 48.50L392.22 48.50Q391.74 49.10 391.07 49.55Q390.40 50 389.60 50.24Q388.80 50.48 387.94 50.48ZM384.99 40.78L384.99 40.78L387.90 40.78Q388.67 40.78 389.22 40.75Q389.76 40.72 390.27 40.62L390.27 40.62Q390.43 40.59 390.48 40.42Q390.53 40.24 390.53 39.92L390.53 39.92Q390.53 38.99 389.71 38.34Q388.90 37.68 387.78 37.68L387.78 37.68Q387.04 37.68 386.30 38.11Q385.57 38.54 385.09 39.18Q384.61 39.82 384.61 40.46L384.61 40.46Q384.61 40.78 384.99 40.78ZM407.49 50.45L407.49 50.45Q405.70 50.45 404.26 49.62Q402.82 48.78 401.97 47.33Q401.12 45.87 401.12 44.02L401.12 44.02Q401.12 42.67 401.65 41.39Q402.18 40.11 403.14 39.06Q404.10 38 405.38 37.38Q406.66 36.75 408.13 36.75L408.13 36.75Q409.98 36.75 411.47 37.65Q412.96 38.54 413.84 40Q414.72 41.46 414.72 43.18L414.72 43.18Q414.72 45.04 413.90 46.70Q413.09 48.37 411.49 49.41Q409.89 50.45 407.49 50.45ZM408.16 49.49L408.16 49.49Q409.25 49.49 410.11 49.07Q410.98 48.66 411.46 47.73L411.46 47.73Q411.84 46.99 411.97 45.94Q412.10 44.88 412.10 43.95L412.10 43.95Q412.10 42.42 411.54 40.99Q410.98 39.57 409.97 38.66Q408.96 37.74 407.58 37.74L407.58 37.74Q406.72 37.74 406.03 38.02Q405.34 38.29 404.77 39.02L404.77 39.02Q404.13 39.82 403.94 40.98Q403.74 42.13 403.74 43.28L403.74 43.28Q403.74 44.85 404.32 46.27Q404.90 47.70 405.89 48.59Q406.88 49.49 408.16 49.49ZM417.25 50.10L417.25 50.10Q416.93 50.10 416.77 50.02Q416.61 49.94 416.61 49.74L416.61 49.74Q416.61 49.49 416.82 49.39Q417.02 49.30 417.34 49.23L417.34 49.23Q418.08 49.07 418.40 48.77Q418.72 48.46 418.72 47.82L418.72 47.82L418.72 38.80Q418.40 38.80 417.98 38.78Q417.57 38.77 417.06 38.74L417.06 38.74Q416.96 38.70 416.78 38.51Q416.61 38.32 416.61 38.16L416.61 38.16Q416.61 38.10 416.70 38.05Q416.80 38 416.83 37.97L416.83 37.97Q417.41 37.68 417.82 37.46Q418.24 37.23 418.72 37.01L418.72 37.01Q418.72 34.22 419.41 32.37Q420.10 30.51 421.18 29.42Q422.27 28.34 423.49 27.87Q424.70 27.41 425.76 27.41L425.76 27.41Q427.55 27.41 428.42 27.95Q429.28 28.50 429.28 29.33L429.28 29.33Q429.28 29.97 428.96 30.29Q428.64 30.61 428.19 30.61L428.19 30.61Q427.90 30.61 427.66 30.38Q427.42 30.16 427.10 29.87L427.10 29.87Q426.69 29.46 426.08 29.09Q425.47 28.72 424.42 28.72L424.42 28.72Q422.91 28.72 421.94 30.03Q420.96 31.34 420.96 34.06L420.96 34.06L420.96 36.88Q420.96 37.07 421.07 37.14Q421.18 37.20 421.31 37.20L421.31 37.20L425.31 37.20Q425.47 37.20 425.60 37.30Q425.73 37.39 425.73 37.55L425.73 37.55Q425.73 37.78 425.68 38.03Q425.63 38.29 425.54 38.48L425.54 38.48Q425.44 38.74 425.25 38.74L425.25 38.74L421.57 38.74Q421.18 38.74 421.07 38.85Q420.96 38.96 420.96 39.15L420.96 39.15L420.96 47.82Q420.96 48.46 421.38 48.77Q421.79 49.07 423.07 49.23L423.07 49.23Q423.81 49.33 423.81 49.74L423.81 49.74Q423.81 49.94 423.65 50.02Q423.49 50.10 423.17 50.10L423.17 50.10Q422.21 50.10 421.47 50.02Q420.74 49.94 419.90 49.94L419.90 49.94Q419.36 49.94 419.01 49.97Q418.66 50 418.27 50.05Q417.89 50.10 417.25 50.10ZM434.30 50.16L434.30 50.16Q433.89 50.16 433.63 50.08Q433.38 50 433.38 49.81L433.38 49.81Q433.38 49.42 434.43 49.23L434.43 49.23Q435.65 49.01 436.11 48.50Q436.58 47.98 436.58 46.80L436.58 46.80L436.58 33.30Q436.58 31.86 436.21 31.09Q435.84 30.32 434.62 30.10L434.62 30.10Q434.08 30 433.82 29.84Q433.57 29.68 433.57 29.46L433.57 29.46Q433.57 29.26 433.82 29.18Q434.08 29.10 434.50 29.10L434.50 29.10Q435.68 29.10 436.50 29.14Q437.31 29.17 438.11 29.18Q438.91 29.20 440.00 29.20L440.00 29.20Q440.93 29.20 441.98 29.20Q443.04 29.20 444.03 29.20L444.03 29.20Q445.06 29.20 445.84 29.04Q446.62 28.88 447.20 28.88L447.20 28.88Q447.36 28.88 447.55 28.94Q447.74 29.01 447.78 29.17L447.78 29.17Q447.84 29.52 447.87 30.21Q447.90 30.90 447.92 31.54Q447.94 32.18 447.94 32.40L447.94 32.40Q447.94 33.07 447.65 33.07L447.65 33.07Q447.49 33.07 447.36 32.96Q447.23 32.85 447.17 32.69L447.17 32.69Q447.04 32.14 446.85 31.74Q446.66 31.34 446.43 31.12L446.43 31.12Q445.98 30.61 445.44 30.43Q444.90 30.26 444.29 30.26L444.29 30.26L440.22 30.26Q439.49 30.26 439.33 30.74Q439.17 31.22 439.14 31.86L439.14 31.86Q439.10 32.46 439.10 33.34Q439.10 34.22 439.10 35.06L439.10 35.06Q439.10 35.86 439.10 36.69Q439.10 37.52 439.14 38.10L439.14 38.10Q439.14 38.35 439.18 38.58Q439.23 38.80 439.46 38.80L439.46 38.80Q440.48 38.80 441.54 38.75Q442.59 38.70 443.17 38.70L443.17 38.70Q443.87 38.70 444.38 38.32Q444.90 37.94 445.12 37.39L445.12 37.39Q445.18 37.26 445.38 37.06Q445.57 36.85 445.70 36.85L445.70 36.85Q445.82 36.85 445.98 36.99Q446.14 37.14 446.11 37.36L446.11 37.36Q446.08 37.90 446.05 38.32Q446.02 38.74 446.02 39.12L446.02 39.12Q446.02 39.60 446.05 40.10Q446.08 40.59 446.11 41.30L446.11 41.30Q446.11 41.52 446.06 41.68Q446.02 41.84 445.82 41.84L445.82 41.84Q445.50 41.84 445.33 41.55Q445.15 41.26 445.09 41.10L445.09 41.10Q444.86 40.37 444.42 40.10Q443.97 39.82 443.58 39.82L443.58 39.82Q443.17 39.82 442.77 39.81Q442.37 39.79 441.98 39.79L441.98 39.79Q441.44 39.79 440.93 39.79Q440.42 39.79 439.90 39.86L439.90 39.86Q439.58 39.89 439.36 40.06Q439.14 40.24 439.14 40.66L439.14 40.66Q439.14 42.13 439.15 43.65Q439.17 45.17 439.23 46.77L439.23 46.77Q439.30 47.79 439.73 48.40Q440.16 49.01 441.34 49.23L441.34 49.23Q441.89 49.33 442.14 49.46Q442.40 49.58 442.40 49.81L442.40 49.81Q442.40 50 442.14 50.08Q441.89 50.16 441.47 50.16L441.47 50.16Q440.61 50.16 440.14 50.10Q439.68 50.03 439.31 49.98Q438.94 49.94 438.34 49.94L438.34 49.94Q437.57 49.94 436.98 49.98Q436.38 50.03 435.78 50.10Q435.17 50.16 434.30 50.16ZM450.37 50.10L450.37 50.10Q450.05 50.10 449.89 50.02Q449.73 49.94 449.73 49.74L449.73 49.74Q449.73 49.49 449.92 49.41Q450.11 49.33 450.46 49.23L450.46 49.23Q451.07 49.07 451.38 48.77Q451.68 48.46 451.68 48.02L451.68 48.02L451.68 41.14Q451.68 40.27 451.42 39.63Q451.17 38.99 450.37 38.83L450.37 38.83Q450.24 38.80 450.14 38.67Q450.05 38.54 450.05 38.42L450.05 38.42Q450.05 38.10 450.34 38.03L450.34 38.03Q451.17 37.78 452.08 37.28Q452.99 36.78 453.50 36.46L453.50 36.46Q453.70 36.34 453.81 36.29Q453.92 36.24 453.98 36.24L453.98 36.24Q454.14 36.24 454.14 36.46L454.14 36.46Q454.14 36.56 454.13 36.94Q454.11 37.33 454.10 37.84Q454.08 38.35 454.05 38.86L454.05 38.86Q454.05 38.93 454.11 38.93L454.11 38.93Q454.62 38.29 455.25 37.81Q455.87 37.33 456.53 37.04Q457.18 36.75 457.79 36.75L457.79 36.75Q458.46 36.75 458.90 37.04Q459.33 37.33 459.33 37.78L459.33 37.78Q459.33 38.10 459.15 38.48Q458.98 38.86 458.69 39.15Q458.40 39.44 458.08 39.44L458.08 39.44Q457.89 39.44 457.66 39.36Q457.44 39.28 457.18 39.15L457.18 39.15Q456.93 39.06 456.67 38.96Q456.42 38.86 456.16 38.86L456.16 38.86Q455.39 38.86 454.67 39.41Q453.95 39.95 453.95 41.55L453.95 41.55L453.95 48.02Q453.95 48.43 454.40 48.70Q454.85 48.98 455.65 49.23L455.65 49.23Q456.00 49.33 456.19 49.42Q456.38 49.52 456.38 49.74L456.38 49.74Q456.38 50.10 455.74 50.10L455.74 50.10Q454.78 50.10 454.29 50.02Q453.79 49.94 452.96 49.94L452.96 49.94Q452.42 49.94 452.08 49.97Q451.74 50 451.38 50.05Q451.01 50.10 450.37 50.10ZM466.98 50.45L466.98 50.45Q465.18 50.45 463.74 49.62Q462.30 48.78 461.46 47.33Q460.61 45.87 460.61 44.02L460.61 44.02Q460.61 42.67 461.14 41.39Q461.66 40.11 462.62 39.06Q463.58 38 464.86 37.38Q466.14 36.75 467.62 36.75L467.62 36.75Q469.47 36.75 470.96 37.65Q472.45 38.54 473.33 40Q474.21 41.46 474.21 43.18L474.21 43.18Q474.21 45.04 473.39 46.70Q472.58 48.37 470.98 49.41Q469.38 50.45 466.98 50.45ZM467.65 49.49L467.65 49.49Q468.74 49.49 469.60 49.07Q470.46 48.66 470.94 47.73L470.94 47.73Q471.33 46.99 471.46 45.94Q471.58 44.88 471.58 43.95L471.58 43.95Q471.58 42.42 471.02 40.99Q470.46 39.57 469.46 38.66Q468.45 37.74 467.07 37.74L467.07 37.74Q466.21 37.74 465.52 38.02Q464.83 38.29 464.26 39.02L464.26 39.02Q463.62 39.82 463.42 40.98Q463.23 42.13 463.23 43.28L463.23 43.28Q463.23 44.85 463.81 46.27Q464.38 47.70 465.38 48.59Q466.37 49.49 467.65 49.49ZM476.74 50.10L476.74 50.10Q476.45 50.10 476.27 50.02Q476.10 49.94 476.10 49.74L476.10 49.74Q476.10 49.49 476.29 49.41Q476.48 49.33 476.83 49.23L476.83 49.23Q477.31 49.10 477.76 48.88Q478.21 48.66 478.21 48.02L478.21 48.02L478.21 41.14Q478.21 40.27 478.03 39.66Q477.86 39.06 477.02 38.83L477.02 38.83Q476.90 38.77 476.80 38.69Q476.70 38.61 476.70 38.42L476.70 38.42Q476.70 38.06 476.99 38.03L476.99 38.03Q478.11 37.74 478.82 37.33Q479.52 36.91 480.19 36.40L480.19 36.40Q480.29 36.34 480.37 36.29Q480.45 36.24 480.54 36.24L480.54 36.24Q480.61 36.24 480.66 36.30Q480.70 36.37 480.70 36.46L480.70 36.46Q480.70 36.69 480.62 37.38Q480.54 38.06 480.54 38.51L480.54 38.51Q480.54 38.64 480.56 38.75Q480.58 38.86 480.61 38.90L480.61 38.90Q481.73 37.84 482.99 37.30Q484.26 36.75 485.76 36.75L485.76 36.75Q487.33 36.75 488.35 38.03Q489.38 39.31 489.38 41.20L489.38 41.20L489.38 48.02Q489.38 48.66 489.82 48.86Q490.27 49.07 490.75 49.23L490.75 49.23Q491.01 49.33 491.25 49.44Q491.49 49.55 491.49 49.81L491.49 49.81Q491.49 50 491.26 50.05Q491.04 50.10 490.85 50.10L490.85 50.10Q490.21 50.10 489.86 50.05Q489.50 50 489.18 49.97Q488.86 49.94 488.29 49.94L488.29 49.94Q487.74 49.94 487.39 49.97Q487.04 50 486.67 50.05Q486.30 50.10 485.66 50.10L485.66 50.10Q485.50 50.10 485.26 50.05Q485.02 50 485.02 49.81L485.02 49.81Q485.02 49.55 485.26 49.44Q485.50 49.33 485.76 49.23L485.76 49.23Q486.24 49.07 486.69 48.86Q487.14 48.66 487.14 48.02L487.14 48.02L487.14 41.30Q487.14 39.89 486.35 39.10Q485.57 38.32 484.26 38.29L484.26 38.29Q483.10 38.29 482.24 38.66Q481.38 39.02 480.70 39.57L480.70 39.57Q480.58 39.70 480.51 39.90Q480.45 40.11 480.45 40.30L480.45 40.30L480.45 48.02Q480.45 48.66 480.90 48.88Q481.34 49.10 481.82 49.23L481.82 49.23Q482.56 49.42 482.56 49.74L482.56 49.74Q482.56 49.94 482.40 50.02Q482.24 50.10 481.92 50.10L481.92 50.10Q481.28 50.10 480.91 50.05Q480.54 50 480.22 49.97Q479.90 49.94 479.33 49.94L479.33 49.94Q478.78 49.94 478.45 49.97Q478.11 50 477.74 50.05Q477.38 50.10 476.74 50.10ZM498.27 50.45L498.27 50.45Q496.70 50.45 495.82 49.49Q494.94 48.53 494.94 46.64L494.94 46.64L494.94 39.22Q494.94 38.96 494.75 38.85Q494.56 38.74 493.92 38.74L493.92 38.74L493.73 38.74Q493.57 38.74 493.46 38.53Q493.34 38.32 493.34 38.10L493.34 38.10Q493.34 38.03 493.44 37.90Q493.54 37.78 493.57 37.74L493.57 37.74Q494.21 37.30 494.74 36.85Q495.26 36.40 495.70 35.97Q496.13 35.54 496.42 35.18L496.42 35.18Q496.58 35.02 496.69 34.91Q496.80 34.80 496.96 34.80L496.96 34.80Q497.12 34.80 497.26 34.86Q497.41 34.93 497.38 35.15L497.38 35.15L497.22 36.59Q497.18 36.94 497.38 37.07Q497.57 37.20 497.98 37.20L497.98 37.20L501.63 37.20Q501.76 37.20 501.86 37.41Q501.95 37.62 501.95 37.90L501.95 37.90Q501.95 38.19 501.86 38.46Q501.76 38.74 501.63 38.74L501.63 38.74L498.46 38.74Q497.66 38.74 497.42 38.86Q497.18 38.99 497.18 39.63L497.18 39.63L497.18 45.94Q497.18 47.22 497.73 47.95Q498.27 48.69 499.30 48.69L499.30 48.69Q500.22 48.69 500.74 48.54Q501.25 48.40 501.66 48.11L501.66 48.11Q501.73 48.05 501.79 48.05L501.79 48.05Q501.92 48.05 501.97 48.19Q502.02 48.34 502.02 48.50L502.02 48.50Q502.02 48.66 501.49 49.14Q500.96 49.62 500.11 50.03Q499.26 50.45 498.27 50.45ZM509.09 50.48L509.09 50.48Q507.33 50.48 506.02 49.62Q504.70 48.75 503.97 47.17Q503.23 45.58 503.23 43.50L503.23 43.50Q503.23 41.65 504.08 40.13Q504.93 38.61 506.34 37.68Q507.74 36.75 509.41 36.75L509.41 36.75Q510.69 36.75 511.68 37.26Q512.67 37.78 513.23 38.69Q513.79 39.60 513.79 40.78L513.79 40.78Q513.79 41.78 512.83 41.78L512.83 41.78L506.08 41.78Q505.63 41.78 505.46 42.02Q505.28 42.26 505.28 42.96L505.28 42.96Q505.28 44.50 505.95 45.76Q506.62 47.02 507.74 47.78Q508.86 48.53 510.21 48.53L510.21 48.53Q511.17 48.53 511.95 48.16Q512.74 47.79 513.34 47.09L513.34 47.09Q513.47 46.93 513.54 46.88Q513.60 46.83 513.70 46.83L513.70 46.83Q513.95 46.83 513.95 47.15L513.95 47.15Q513.95 47.76 513.38 48.50L513.38 48.50Q512.90 49.10 512.22 49.55Q511.55 50 510.75 50.24Q509.95 50.48 509.09 50.48ZM506.14 40.78L506.14 40.78L509.06 40.78Q509.82 40.78 510.37 40.75Q510.91 40.72 511.42 40.62L511.42 40.62Q511.58 40.59 511.63 40.42Q511.68 40.24 511.68 39.92L511.68 39.92Q511.68 38.99 510.86 38.34Q510.05 37.68 508.93 37.68L508.93 37.68Q508.19 37.68 507.46 38.11Q506.72 38.54 506.24 39.18Q505.76 39.82 505.76 40.46L505.76 40.46Q505.76 40.78 506.14 40.78ZM516.16 50.10L516.16 50.10Q515.87 50.10 515.70 50.02Q515.52 49.94 515.52 49.74L515.52 49.74Q515.52 49.49 515.71 49.41Q515.90 49.33 516.26 49.23L516.26 49.23Q516.74 49.10 517.18 48.88Q517.63 48.66 517.63 48.02L517.63 48.02L517.63 41.14Q517.63 40.27 517.46 39.66Q517.28 39.06 516.45 38.83L516.45 38.83Q516.32 38.77 516.22 38.69Q516.13 38.61 516.13 38.42L516.13 38.42Q516.13 38.06 516.42 38.03L516.42 38.03Q517.54 37.74 518.24 37.33Q518.94 36.91 519.62 36.40L519.62 36.40Q519.71 36.34 519.79 36.29Q519.87 36.24 519.97 36.24L519.97 36.24Q520.03 36.24 520.08 36.30Q520.13 36.37 520.13 36.46L520.13 36.46Q520.13 36.69 520.05 37.38Q519.97 38.06 519.97 38.51L519.97 38.51Q519.97 38.64 519.98 38.75Q520.00 38.86 520.03 38.90L520.03 38.90Q521.15 37.84 522.42 37.30Q523.68 36.75 525.18 36.75L525.18 36.75Q526.75 36.75 527.78 38.03Q528.80 39.31 528.80 41.20L528.80 41.20L528.80 48.02Q528.80 48.66 529.25 48.86Q529.70 49.07 530.18 49.23L530.18 49.23Q530.43 49.33 530.67 49.44Q530.91 49.55 530.91 49.81L530.91 49.81Q530.91 50 530.69 50.05Q530.46 50.10 530.27 50.10L530.27 50.10Q529.63 50.10 529.28 50.05Q528.93 50 528.61 49.97Q528.29 49.94 527.71 49.94L527.71 49.94Q527.17 49.94 526.82 49.97Q526.46 50 526.10 50.05Q525.73 50.10 525.09 50.10L525.09 50.10Q524.93 50.10 524.69 50.05Q524.45 50 524.45 49.81L524.45 49.81Q524.45 49.55 524.69 49.44Q524.93 49.33 525.18 49.23L525.18 49.23Q525.66 49.07 526.11 48.86Q526.56 48.66 526.56 48.02L526.56 48.02L526.56 41.30Q526.56 39.89 525.78 39.10Q524.99 38.32 523.68 38.29L523.68 38.29Q522.53 38.29 521.66 38.66Q520.80 39.02 520.13 39.57L520.13 39.57Q520.00 39.70 519.94 39.90Q519.87 40.11 519.87 40.30L519.87 40.30L519.87 48.02Q519.87 48.66 520.32 48.88Q520.77 49.10 521.25 49.23L521.25 49.23Q521.98 49.42 521.98 49.74L521.98 49.74Q521.98 49.94 521.82 50.02Q521.66 50.10 521.34 50.10L521.34 50.10Q520.70 50.10 520.34 50.05Q519.97 50 519.65 49.97Q519.33 49.94 518.75 49.94L518.75 49.94Q518.21 49.94 517.87 49.97Q517.54 50 517.17 50.05Q516.80 50.10 516.16 50.10ZM543.07 50.61L543.07 50.61Q543.01 50.61 542.86 50.48Q542.72 50.35 542.72 50.29L542.72 50.29Q542.72 49.97 542.80 49.38Q542.88 48.78 542.88 48.37L542.88 48.37L542.88 48.18Q542.40 48.91 541.34 49.68Q540.29 50.45 538.69 50.45L538.69 50.45Q536.86 50.45 535.54 49.49Q534.21 48.53 533.49 47.02Q532.77 45.52 532.77 43.92L532.77 43.92Q532.77 42.06 533.63 40.43Q534.50 38.80 536.11 37.78Q537.73 36.75 539.97 36.75L539.97 36.75Q540.61 36.75 541.26 36.86Q541.92 36.98 542.27 37.10L542.27 37.10Q542.56 37.20 542.69 37.20L542.69 37.20Q542.91 37.20 542.91 36.43L542.91 36.43L542.91 31.89Q542.91 30.58 542.50 30.13Q542.08 29.68 541.31 29.55L541.31 29.55Q541.02 29.49 541.02 29.14L541.02 29.14Q541.02 28.85 541.28 28.75L541.28 28.75Q542.69 28.40 543.49 28.08Q544.29 27.76 544.74 27.57L544.74 27.57Q544.86 27.50 544.98 27.49Q545.09 27.47 545.15 27.47L545.15 27.47Q545.34 27.47 545.38 27.66L545.38 27.66Q545.38 27.86 545.33 28.32Q545.28 28.78 545.22 29.68Q545.15 30.58 545.15 32.02L545.15 32.02L545.15 46.48Q545.15 47.57 545.31 48.06Q545.47 48.56 545.82 48.56L545.82 48.56Q545.98 48.56 546.38 48.53Q546.78 48.50 547.20 48.46L547.20 48.46Q547.78 48.43 547.78 48.75L547.78 48.75Q547.78 48.98 547.63 49.15Q547.49 49.33 547.33 49.33L547.33 49.33Q546.43 49.46 545.57 49.70Q544.70 49.94 543.58 50.42L543.58 50.42Q543.33 50.54 543.25 50.58Q543.17 50.61 543.07 50.61ZM539.84 48.78L539.84 48.78Q540.67 48.78 541.47 48.35Q542.27 47.92 542.88 47.22L542.88 47.22L542.91 41.46Q542.91 40.59 542.42 39.76Q541.92 38.93 541.04 38.40Q540.16 37.87 538.98 37.87L538.98 37.87Q538.24 37.87 537.31 38.32Q536.38 38.77 535.71 39.90Q535.04 41.04 535.04 43.18L535.04 43.18Q535.04 45.01 535.58 46.11Q536.13 47.22 536.91 47.79Q537.70 48.37 538.51 48.58Q539.33 48.78 539.84 48.78Z"/>
    <path fill="#14b8a6" opacity="0.8" d="M291.47 90.38L291.47 90.38Q290.96 90.38 290.51 90.30Q290.06 90.22 289.68 90Q289.31 89.78 288.98 89.41L288.98 89.41Q288.55 88.87 288.15 88.37Q287.76 87.88 287.32 87.23Q286.88 86.58 286.25 85.57L286.25 85.57Q285.98 85.12 285.47 84.87L285.47 84.87Q285.08 84.67 284.69 84.59Q284.30 84.51 284.05 84.49L284.05 84.49Q283.91 84.47 283.84 84.58Q283.78 84.69 283.78 84.85L283.78 84.85L283.78 88.02Q283.78 88.60 284.05 89.02Q284.32 89.44 284.99 89.57L284.99 89.57Q285.29 89.62 285.44 89.69Q285.58 89.77 285.58 89.89L285.58 89.89Q285.58 90 285.44 90.05Q285.29 90.09 285.06 90.09L285.06 90.09Q284.57 90.09 284.31 90.05Q284.05 90.02 283.84 89.99Q283.64 89.96 283.29 89.96L283.29 89.96Q282.84 89.96 282.49 89.99Q282.14 90.02 281.79 90.05Q281.44 90.09 280.95 90.09L280.95 90.09Q280.72 90.09 280.58 90.05Q280.43 90 280.43 89.89L280.43 89.89Q280.43 89.68 281.03 89.57L281.03 89.57Q281.71 89.44 282.02 89.15Q282.34 88.87 282.34 88.20L282.34 88.20L282.34 80.53Q282.34 79.85 282.28 79.50Q282.21 79.15 281.99 79.00Q281.76 78.86 281.24 78.80L281.24 78.80Q280.94 78.77 280.79 78.67Q280.65 78.57 280.65 78.44L280.65 78.44Q280.65 78.34 280.79 78.29Q280.94 78.25 281.17 78.25L281.17 78.25Q281.66 78.25 281.90 78.25Q282.14 78.25 282.36 78.25Q282.57 78.26 282.93 78.26L282.93 78.26Q283.28 78.26 283.55 78.24Q283.82 78.21 284.15 78.19Q284.48 78.17 285.00 78.17L285.00 78.17Q286.98 78.17 288.02 78.91Q289.05 79.65 289.05 81.13L289.05 81.13Q289.05 81.94 288.73 82.52Q288.41 83.11 287.92 83.50Q287.43 83.90 286.93 84.15L286.93 84.15Q286.86 84.17 286.87 84.23Q286.88 84.29 286.93 84.38L286.93 84.38Q287.49 85.23 288.00 85.99Q288.51 86.74 289.13 87.46Q289.74 88.18 290.58 88.96L290.58 88.96Q291.05 89.37 291.54 89.46Q292.02 89.55 292.65 89.55L292.65 89.55Q292.92 89.55 292.92 89.75L292.92 89.75Q292.92 90.02 292.65 90.15Q292.38 90.29 292.04 90.33Q291.70 90.38 291.47 90.38ZM284.73 84.08L284.73 84.08Q285.56 84.08 286.17 83.70Q286.77 83.32 287.10 82.71Q287.43 82.10 287.43 81.41L287.43 81.41Q287.43 80.68 287.25 80.06Q287.06 79.45 286.49 79.08Q285.92 78.71 284.79 78.71L284.79 78.71Q284.21 78.71 284.03 79.08Q283.85 79.45 283.82 80.39L283.82 80.39Q283.80 80.84 283.79 81.60Q283.78 82.37 283.78 83.45L283.78 83.45Q283.78 83.90 284.03 83.99Q284.28 84.08 284.73 84.08ZM296.67 90.27L296.67 90.27Q295.68 90.27 294.94 89.78Q294.20 89.30 293.79 88.41Q293.37 87.52 293.37 86.35L293.37 86.35Q293.37 85.30 293.85 84.45Q294.33 83.59 295.12 83.07Q295.91 82.55 296.85 82.55L296.85 82.55Q297.57 82.55 298.13 82.84Q298.68 83.12 299.00 83.64Q299.31 84.15 299.31 84.82L299.31 84.82Q299.31 85.37 298.77 85.37L298.77 85.37L294.98 85.37Q294.72 85.37 294.63 85.51Q294.53 85.64 294.53 86.04L294.53 86.04Q294.53 86.90 294.90 87.61Q295.28 88.33 295.91 88.75Q296.54 89.17 297.30 89.17L297.30 89.17Q297.84 89.17 298.28 88.97Q298.72 88.76 299.06 88.36L299.06 88.36Q299.13 88.27 299.17 88.25Q299.21 88.22 299.26 88.22L299.26 88.22Q299.40 88.22 299.40 88.40L299.40 88.40Q299.40 88.74 299.08 89.15L299.08 89.15Q298.81 89.50 298.43 89.75Q298.05 90 297.60 90.14Q297.15 90.27 296.67 90.27ZM295.01 84.82L295.01 84.82L296.65 84.82Q297.08 84.82 297.39 84.80Q297.69 84.78 297.98 84.73L297.98 84.73Q298.07 84.71 298.10 84.61Q298.13 84.51 298.13 84.33L298.13 84.33Q298.13 83.81 297.67 83.44Q297.21 83.07 296.58 83.07L296.58 83.07Q296.16 83.07 295.75 83.31Q295.34 83.56 295.07 83.92Q294.80 84.28 294.80 84.64L294.80 84.64Q294.80 84.82 295.01 84.82ZM301.96 90.25L301.96 90.25Q301.64 90.25 301.30 90Q300.97 89.75 300.75 89.39Q300.52 89.03 300.52 88.70L300.52 88.70Q300.52 88.13 300.83 87.80Q301.13 87.48 301.80 87.21L301.80 87.21L303.63 86.45Q303.99 86.31 304.06 86.20Q304.12 86.09 304.14 85.73L304.14 85.73L304.17 84.58Q304.19 84.11 303.91 83.77Q303.63 83.43 303.11 83.43L303.11 83.43Q302.84 83.43 302.57 83.52Q302.30 83.61 302.12 83.75L302.12 83.75Q302.01 83.83 301.98 83.97Q301.94 84.11 301.94 84.28L301.94 84.28Q301.94 84.35 301.95 84.44Q301.96 84.53 301.96 84.60L301.96 84.60Q301.96 84.69 301.74 84.84Q301.51 85.00 301.23 85.11Q300.95 85.23 300.77 85.23L300.77 85.23Q300.68 85.23 300.63 85.19Q300.57 85.14 300.57 85.07L300.57 85.07Q300.57 84.78 300.76 84.45Q300.95 84.11 301.29 83.83L301.29 83.83Q301.71 83.45 302.19 83.16Q302.68 82.87 303.15 82.71Q303.62 82.55 303.98 82.55L303.98 82.55Q304.62 82.55 305.05 83.01Q305.47 83.47 305.45 84.15L305.45 84.15L305.36 88.47Q305.34 88.85 305.53 89.08Q305.72 89.32 306.01 89.32L306.01 89.32Q306.46 89.32 306.68 89.12L306.68 89.12Q306.77 89.03 306.82 89.03L306.82 89.03Q306.91 89.03 306.96 89.08Q307.02 89.14 307.02 89.23L307.02 89.23Q307.02 89.42 306.82 89.62L306.82 89.62Q306.53 89.91 306.20 90.08Q305.87 90.25 305.58 90.25L305.58 90.25Q304.75 90.25 304.26 89.32L304.26 89.32L304.21 89.32Q303.62 89.80 303.08 90.03Q302.54 90.25 301.96 90.25ZM302.81 89.39L302.81 89.39Q303.17 89.39 303.42 89.27Q303.67 89.15 303.87 88.96L303.87 88.96Q303.96 88.87 304.02 88.71Q304.08 88.56 304.10 88.22L304.10 88.22L304.14 87.34Q304.16 87.14 304.12 87.05Q304.08 86.96 303.98 86.96L303.98 86.96Q303.94 86.96 303.85 86.98Q303.76 86.99 303.62 87.05L303.62 87.05Q302.66 87.39 302.29 87.76Q301.92 88.13 301.92 88.43L301.92 88.43Q301.92 88.90 302.20 89.14Q302.48 89.39 302.81 89.39ZM310.87 90.27L310.87 90.27Q309.97 90.27 309.24 89.81Q308.51 89.35 308.09 88.55Q307.67 87.75 307.67 86.76L307.67 86.76Q307.67 85.59 308.18 84.64Q308.69 83.68 309.56 83.11Q310.42 82.55 311.46 82.55L311.46 82.55Q312.63 82.55 313.52 83.18L313.52 83.18Q313.73 83.34 313.73 83.52L313.73 83.52Q313.73 83.66 313.61 83.84Q313.48 84.02 313.30 84.14Q313.12 84.26 312.96 84.26L312.96 84.26Q312.87 84.26 312.78 84.19Q312.69 84.13 312.58 84.06L312.58 84.06Q312.18 83.75 311.70 83.48Q311.21 83.21 310.89 83.21L310.89 83.21Q310.01 83.21 309.46 84.03Q308.91 84.85 308.91 86.18L308.91 86.18Q308.91 87.03 309.28 87.71Q309.65 88.40 310.27 88.79Q310.89 89.19 311.64 89.19L311.64 89.19Q312.17 89.19 312.54 89.02Q312.92 88.85 313.35 88.42L313.35 88.42Q313.39 88.38 313.44 88.35Q313.50 88.33 313.53 88.33L313.53 88.33Q313.73 88.33 313.73 88.58L313.73 88.58Q313.73 88.69 313.67 88.82Q313.61 88.96 313.46 89.14L313.46 89.14Q313.17 89.50 312.78 89.76Q312.38 90.02 311.91 90.14Q311.43 90.27 310.87 90.27ZM317.76 90.25L317.76 90.25Q316.88 90.25 316.39 89.71Q315.89 89.17 315.89 88.11L315.89 88.11L315.89 83.93Q315.89 83.79 315.78 83.73Q315.68 83.66 315.32 83.66L315.32 83.66L315.21 83.66Q315.12 83.66 315.06 83.55Q314.99 83.43 314.99 83.30L314.99 83.30Q314.99 83.27 315.05 83.20Q315.10 83.12 315.12 83.11L315.12 83.11Q315.48 82.85 315.78 82.60Q316.07 82.35 316.31 82.11Q316.56 81.86 316.72 81.67L316.72 81.67Q316.81 81.58 316.87 81.51Q316.94 81.45 317.03 81.45L317.03 81.45Q317.12 81.45 317.20 81.49Q317.28 81.52 317.26 81.65L317.26 81.65L317.17 82.46Q317.15 82.66 317.26 82.73Q317.37 82.80 317.60 82.80L317.60 82.80L319.65 82.80Q319.73 82.80 319.78 82.92Q319.83 83.03 319.83 83.20L319.83 83.20Q319.83 83.36 319.78 83.51Q319.73 83.66 319.65 83.66L319.65 83.66L317.87 83.66Q317.42 83.66 317.29 83.74Q317.15 83.81 317.15 84.17L317.15 84.17L317.15 87.71Q317.15 88.43 317.46 88.85Q317.76 89.26 318.34 89.26L318.34 89.26Q318.86 89.26 319.15 89.18Q319.44 89.10 319.67 88.94L319.67 88.94Q319.71 88.90 319.74 88.90L319.74 88.90Q319.82 88.90 319.84 88.98Q319.87 89.06 319.87 89.15L319.87 89.15Q319.87 89.24 319.57 89.51Q319.28 89.78 318.80 90.02Q318.32 90.25 317.76 90.25ZM320.70 92.65L320.70 92.65Q320.37 92.65 320.37 92.45L320.37 92.45Q320.37 92.38 320.44 92.31Q320.50 92.25 320.63 92.23L320.63 92.23Q321.02 92.14 321.42 91.93Q321.81 91.71 322.08 91.31Q322.35 90.90 322.35 90.27L322.35 90.27Q322.35 90.05 322.16 89.78Q321.96 89.50 321.65 89.48L321.65 89.48Q321.26 89.44 321.03 89.23Q320.81 89.01 320.81 88.72L320.81 88.72Q320.81 88.36 321.10 88.13Q321.40 87.89 321.80 87.89L321.80 87.89Q322.44 87.89 322.87 88.39Q323.29 88.88 323.29 89.64L323.29 89.64Q323.29 90.32 323.02 90.87Q322.75 91.42 322.34 91.82Q321.92 92.21 321.48 92.43Q321.04 92.65 320.70 92.65ZM333.48 90.22L333.48 90.22Q333.33 90.22 333.28 90.09L333.28 90.09Q333.21 89.89 333.10 89.56Q332.99 89.23 332.90 88.99L332.90 88.99L329.61 80.15Q329.43 79.65 329.12 79.31Q328.82 78.97 328.35 78.84L328.35 78.84Q328.06 78.75 327.91 78.66Q327.75 78.57 327.75 78.44L327.75 78.44Q327.75 78.34 327.90 78.29Q328.04 78.25 328.28 78.25L328.28 78.25Q328.56 78.25 328.92 78.26Q329.27 78.28 329.66 78.29Q330.06 78.30 330.47 78.30L330.47 78.30Q330.83 78.30 331.18 78.29Q331.53 78.28 331.83 78.27Q332.13 78.26 332.31 78.26L332.31 78.26Q332.54 78.26 332.69 78.31Q332.83 78.35 332.83 78.46L332.83 78.46Q332.83 78.59 332.69 78.69Q332.54 78.79 332.24 78.82L332.24 78.82Q331.73 78.88 331.40 79.05Q331.07 79.22 331.07 79.52L331.07 79.52Q331.07 79.83 331.15 80.06Q331.23 80.28 331.26 80.41L331.26 80.41L333.86 87.25Q333.89 87.32 333.95 87.34Q334 87.35 334.05 87.23L334.05 87.23L336.52 80.75Q336.88 79.79 336.56 79.35Q336.25 78.91 335.67 78.84L335.67 78.84Q335.40 78.80 335.24 78.70Q335.08 78.61 335.08 78.48L335.08 78.48Q335.08 78.37 335.22 78.33Q335.37 78.28 335.60 78.28L335.60 78.28Q335.84 78.28 336.12 78.28Q336.41 78.28 336.73 78.29Q337.04 78.30 337.38 78.30L337.38 78.30Q337.91 78.30 338.50 78.27Q339.09 78.25 339.44 78.25L339.44 78.25Q339.67 78.25 339.81 78.29Q339.96 78.34 339.96 78.44L339.96 78.44Q339.96 78.57 339.81 78.65Q339.67 78.73 339.36 78.80L339.36 78.80Q338.70 78.95 338.25 79.42Q337.80 79.88 337.60 80.37L337.60 80.37L334.22 88.58Q334.18 88.67 334.08 88.95Q333.98 89.23 333.87 89.55Q333.77 89.87 333.66 90.09L333.66 90.09Q333.64 90.14 333.59 90.18Q333.53 90.22 333.48 90.22ZM346.44 90.34L346.44 90.34Q346.31 90.34 346.31 90.20L346.31 90.20Q346.31 90.02 346.36 89.67Q346.40 89.32 346.40 89.08L346.40 89.08Q346.40 89.05 346.40 89.02Q346.40 88.99 346.40 88.97L346.40 88.97Q345.70 89.66 344.99 89.95Q344.28 90.25 343.43 90.25L343.43 90.25Q342.86 90.25 342.39 90.01Q341.92 89.77 341.65 89.29Q341.38 88.81 341.38 88.11L341.38 88.11L341.38 84.46Q341.38 84.06 341.20 83.83Q341.02 83.59 340.61 83.43L340.61 83.43Q340.52 83.39 340.44 83.34Q340.37 83.29 340.37 83.14L340.37 83.14Q340.37 82.98 340.45 82.93Q340.53 82.87 340.64 82.85L340.64 82.85Q341.25 82.82 341.59 82.75Q341.92 82.69 342.42 82.57L342.42 82.57Q342.48 82.55 342.50 82.55Q342.53 82.55 342.57 82.55L342.57 82.55Q342.77 82.55 342.75 82.80L342.75 82.80Q342.69 83.21 342.67 83.49Q342.64 83.77 342.64 84.19L342.64 84.19L342.64 87.70Q342.64 88.13 342.86 88.50Q343.07 88.87 343.42 89.10Q343.77 89.33 344.15 89.33L344.15 89.33Q344.62 89.33 344.97 89.28Q345.32 89.23 345.66 88.97L345.66 88.97Q345.86 88.83 346.17 88.51Q346.47 88.18 346.47 87.62L346.47 87.62L346.47 84.33Q346.47 83.95 346.25 83.76Q346.02 83.57 345.74 83.50Q345.45 83.43 345.27 83.43L345.27 83.43Q345.11 83.43 345.00 83.37Q344.89 83.30 344.89 83.12L344.89 83.12Q344.89 82.96 345.01 82.91Q345.12 82.85 345.27 82.85L345.27 82.85Q345.83 82.84 346.20 82.81Q346.56 82.78 346.86 82.72Q347.16 82.66 347.48 82.57L347.48 82.57Q347.52 82.55 347.57 82.54Q347.63 82.53 347.66 82.53L347.66 82.53Q347.90 82.53 347.90 82.73L347.90 82.73Q347.90 82.75 347.89 82.79Q347.88 82.84 347.86 82.89L347.86 82.89Q347.84 82.94 347.81 83.20Q347.79 83.45 347.76 83.72Q347.73 83.99 347.73 84.13L347.73 84.13L347.73 88.29Q347.73 88.78 347.83 88.98Q347.93 89.19 348.06 89.19L348.06 89.19Q348.20 89.19 348.48 89.16Q348.76 89.14 348.89 89.14L348.89 89.14Q348.98 89.14 349.07 89.17Q349.16 89.21 349.16 89.37L349.16 89.37Q349.16 89.51 349.08 89.56Q349.01 89.60 348.90 89.62L348.90 89.62Q348.20 89.71 347.70 89.89Q347.19 90.07 346.80 90.23L346.80 90.23Q346.74 90.25 346.64 90.30Q346.53 90.34 346.44 90.34ZM353.17 90.27L353.17 90.27Q352.18 90.27 351.44 89.78Q350.70 89.30 350.29 88.41Q349.88 87.52 349.88 86.35L349.88 86.35Q349.88 85.30 350.35 84.45Q350.83 83.59 351.62 83.07Q352.41 82.55 353.35 82.55L353.35 82.55Q354.07 82.55 354.63 82.84Q355.19 83.12 355.50 83.64Q355.82 84.15 355.82 84.82L355.82 84.82Q355.82 85.37 355.28 85.37L355.28 85.37L351.48 85.37Q351.23 85.37 351.13 85.51Q351.03 85.64 351.03 86.04L351.03 86.04Q351.03 86.90 351.41 87.61Q351.78 88.33 352.41 88.75Q353.04 89.17 353.80 89.17L353.80 89.17Q354.34 89.17 354.78 88.97Q355.22 88.76 355.56 88.36L355.56 88.36Q355.64 88.27 355.67 88.25Q355.71 88.22 355.76 88.22L355.76 88.22Q355.91 88.22 355.91 88.40L355.91 88.40Q355.91 88.74 355.58 89.15L355.58 89.15Q355.31 89.50 354.93 89.75Q354.56 90 354.11 90.14Q353.66 90.27 353.17 90.27ZM351.51 84.82L351.51 84.82L353.15 84.82Q353.58 84.82 353.89 84.80Q354.20 84.78 354.48 84.73L354.48 84.73Q354.57 84.71 354.60 84.61Q354.63 84.51 354.63 84.33L354.63 84.33Q354.63 83.81 354.17 83.44Q353.71 83.07 353.08 83.07L353.08 83.07Q352.67 83.07 352.25 83.31Q351.84 83.56 351.57 83.92Q351.30 84.28 351.30 84.64L351.30 84.64Q351.30 84.82 351.51 84.82ZM357.04 92.65L357.04 92.65Q356.72 92.65 356.72 92.45L356.72 92.45Q356.72 92.38 356.78 92.31Q356.84 92.25 356.97 92.23L356.97 92.23Q357.36 92.14 357.76 91.93Q358.16 91.71 358.43 91.31Q358.70 90.90 358.70 90.27L358.70 90.27Q358.70 90.05 358.50 89.78Q358.30 89.50 357.99 89.48L357.99 89.48Q357.60 89.44 357.37 89.23Q357.15 89.01 357.15 88.72L357.15 88.72Q357.15 88.36 357.44 88.13Q357.74 87.89 358.14 87.89L358.14 87.89Q358.79 87.89 359.21 88.39Q359.63 88.88 359.63 89.64L359.63 89.64Q359.63 90.32 359.36 90.87Q359.09 91.42 358.68 91.82Q358.26 92.21 357.82 92.43Q357.38 92.65 357.04 92.65ZM367.95 90.09L367.95 90.09Q367.71 90.09 367.57 90.05Q367.43 90 367.43 89.89L367.43 89.89Q367.43 89.77 367.57 89.69Q367.71 89.62 368.02 89.57L368.02 89.57Q368.70 89.44 369.06 89.13Q369.42 88.81 369.42 88.16L369.42 88.16L369.42 81.18Q369.42 80.35 369.39 79.91Q369.35 79.47 369.27 79.29Q369.19 79.11 369.05 79.09L369.05 79.09Q368.79 79.04 368.51 79.03Q368.24 79.02 367.77 79.02L367.77 79.02L366.92 79.02Q366.49 79.02 366.07 79.19Q365.64 79.36 365.45 79.72L365.45 79.72Q365.39 79.81 365.27 79.98Q365.14 80.15 365.00 80.28Q364.85 80.41 364.71 80.41L364.71 80.41Q364.64 80.41 364.61 80.33Q364.58 80.26 364.58 80.17L364.58 80.17Q364.58 79.99 364.67 79.81L364.67 79.81Q364.92 79.29 365.04 78.88Q365.16 78.48 365.23 77.92L365.23 77.92Q365.27 77.62 365.37 77.56Q365.46 77.51 365.54 77.51L365.54 77.51Q365.61 77.51 365.76 77.72Q365.91 77.94 365.99 78.08L365.99 78.08Q366.09 78.26 366.48 78.35Q366.87 78.44 367.25 78.44L367.25 78.44L373.58 78.44Q374.21 78.44 374.61 78.37Q375.00 78.30 375.29 78.17L375.29 78.17Q375.51 78.07 375.64 77.94Q375.78 77.81 375.99 77.81L375.99 77.81Q376.05 77.81 376.08 77.95Q376.12 78.08 376.12 78.23L376.12 78.23Q376.12 78.32 376.09 78.48Q376.07 78.64 376.05 78.73L376.05 78.73Q375.99 79.06 375.95 79.20Q375.90 79.34 375.89 79.45Q375.87 79.56 375.87 79.79L375.87 79.79L375.87 80.01Q375.87 80.17 375.80 80.38Q375.72 80.59 375.58 80.59L375.58 80.59Q375.45 80.59 375.38 80.39Q375.31 80.19 375.24 79.85L375.24 79.85Q375.17 79.47 374.81 79.25Q374.45 79.02 373.58 79.02L373.58 79.02L371.76 79.02Q371.37 79.02 371.17 79.13Q370.97 79.24 370.92 79.67Q370.86 80.10 370.86 81.09L370.86 81.09L370.86 88.16Q370.86 88.81 371.24 89.13Q371.62 89.44 372.29 89.57L372.29 89.57Q372.59 89.62 372.74 89.69Q372.88 89.77 372.88 89.89L372.88 89.89Q372.88 90 372.74 90.05Q372.59 90.09 372.36 90.09L372.36 90.09Q371.87 90.09 371.56 90.06Q371.24 90.04 370.95 90.02Q370.67 90 370.25 90L370.25 90Q369.80 90 369.47 90.02Q369.14 90.04 368.79 90.06Q368.43 90.09 367.95 90.09ZM378.26 90.25L378.26 90.25Q377.94 90.25 377.61 90Q377.27 89.75 377.05 89.39Q376.82 89.03 376.82 88.70L376.82 88.70Q376.82 88.13 377.13 87.80Q377.43 87.48 378.10 87.21L378.10 87.21L379.94 86.45Q380.30 86.31 380.36 86.20Q380.42 86.09 380.44 85.73L380.44 85.73L380.48 84.58Q380.49 84.11 380.22 83.77Q379.94 83.43 379.41 83.43L379.41 83.43Q379.14 83.43 378.87 83.52Q378.60 83.61 378.42 83.75L378.42 83.75Q378.32 83.83 378.28 83.97Q378.24 84.11 378.24 84.28L378.24 84.28Q378.24 84.35 378.25 84.44Q378.26 84.53 378.26 84.60L378.26 84.60Q378.26 84.69 378.04 84.84Q377.81 85.00 377.53 85.11Q377.25 85.23 377.07 85.23L377.07 85.23Q376.98 85.23 376.93 85.19Q376.88 85.14 376.88 85.07L376.88 85.07Q376.88 84.78 377.06 84.45Q377.25 84.11 377.60 83.83L377.60 83.83Q378.01 83.45 378.50 83.16Q378.98 82.87 379.45 82.71Q379.92 82.55 380.28 82.55L380.28 82.55Q380.93 82.55 381.35 83.01Q381.77 83.47 381.75 84.15L381.75 84.15L381.66 88.47Q381.65 88.85 381.83 89.08Q382.02 89.32 382.31 89.32L382.31 89.32Q382.76 89.32 382.98 89.12L382.98 89.12Q383.07 89.03 383.12 89.03L383.12 89.03Q383.21 89.03 383.27 89.08Q383.32 89.14 383.32 89.23L383.32 89.23Q383.32 89.42 383.12 89.62L383.12 89.62Q382.83 89.91 382.50 90.08Q382.17 90.25 381.88 90.25L381.88 90.25Q381.05 90.25 380.57 89.32L380.57 89.32L380.51 89.32Q379.92 89.80 379.38 90.03Q378.84 90.25 378.26 90.25ZM379.11 89.39L379.11 89.39Q379.47 89.39 379.72 89.27Q379.97 89.15 380.17 88.96L380.17 88.96Q380.26 88.87 380.32 88.71Q380.39 88.56 380.40 88.22L380.40 88.22L380.44 87.34Q380.46 87.14 380.42 87.05Q380.39 86.96 380.28 86.96L380.28 86.96Q380.24 86.96 380.15 86.98Q380.06 86.99 379.92 87.05L379.92 87.05Q378.96 87.39 378.60 87.76Q378.23 88.13 378.23 88.43L378.23 88.43Q378.23 88.90 378.50 89.14Q378.78 89.39 379.11 89.39ZM384.13 90.05L384.13 90.05Q383.97 90.05 383.87 90.01Q383.77 89.96 383.77 89.86L383.77 89.86Q383.77 89.71 383.91 89.66Q384.04 89.60 384.18 89.57L384.18 89.57Q384.56 89.48 384.76 89.34Q384.96 89.21 384.96 88.88L384.96 88.88L384.96 84.98Q384.96 84.49 384.79 84.11Q384.62 83.74 384.15 83.66L384.15 83.66Q384.06 83.65 384.01 83.59Q383.97 83.54 383.97 83.43L383.97 83.43Q383.97 83.23 384.13 83.21L384.13 83.21Q384.85 83.05 385.32 82.77Q385.79 82.49 386.02 82.31L386.02 82.31Q386.18 82.19 386.27 82.19L386.27 82.19Q386.38 82.19 386.38 82.28L386.38 82.28Q386.38 82.42 386.34 82.84Q386.29 83.27 386.25 83.78Q386.22 84.29 386.22 84.71L386.22 84.71L386.22 88.88Q386.22 89.19 386.43 89.33Q386.63 89.48 386.99 89.57L386.99 89.57Q387.14 89.60 387.27 89.66Q387.41 89.71 387.41 89.86L387.41 89.86Q387.41 90.05 387.05 90.05L387.05 90.05Q386.70 90.05 386.50 90.03Q386.29 90 386.10 89.98Q385.91 89.96 385.59 89.96L385.59 89.96Q385.28 89.96 385.08 89.98Q384.89 90 384.69 90.03Q384.49 90.05 384.13 90.05ZM385.57 80.71L385.57 80.71Q385.19 80.71 384.93 80.45Q384.67 80.19 384.67 79.81L384.67 79.81Q384.67 79.42 384.93 79.16Q385.19 78.89 385.57 78.89L385.57 78.89Q385.97 78.89 386.23 79.16Q386.49 79.42 386.49 79.81L386.49 79.81Q386.49 80.19 386.23 80.45Q385.97 80.71 385.57 80.71ZM388.45 90.05L388.45 90.05Q388.36 90.05 388.23 90.03Q388.09 90 388.09 89.89L388.09 89.89Q388.09 89.75 388.23 89.69Q388.36 89.62 388.50 89.57L388.50 89.57Q388.77 89.48 389.03 89.36Q389.28 89.24 389.28 88.88L389.28 88.88L389.28 79.81Q389.28 79.29 389.09 78.94Q388.90 78.59 388.45 78.50L388.45 78.50Q388.31 78.46 388.31 78.26L388.31 78.26Q388.31 78.08 388.43 78.05L388.43 78.05Q388.90 77.94 389.24 77.82Q389.58 77.71 389.88 77.58Q390.18 77.45 390.47 77.35L390.47 77.35Q390.54 77.31 390.57 77.31L390.57 77.31Q390.61 77.31 390.64 77.36Q390.66 77.40 390.66 77.44L390.66 77.44Q390.66 77.60 390.60 78.13Q390.54 78.66 390.54 79.88L390.54 79.88L390.54 88.88Q390.54 89.24 390.79 89.36Q391.04 89.48 391.31 89.57L391.31 89.57Q391.46 89.62 391.59 89.69Q391.73 89.75 391.73 89.89L391.73 89.89Q391.73 90 391.59 90.03Q391.46 90.05 391.37 90.05L391.37 90.05Q391.02 90.05 390.82 90.03Q390.61 90 390.42 89.98Q390.23 89.96 389.91 89.96L389.91 89.96Q389.60 89.96 389.40 89.98Q389.21 90 389.01 90.03Q388.81 90.05 388.45 90.05ZM396.14 90.41L396.14 90.41Q396.10 90.41 396.06 90.38Q396.03 90.34 396.01 90.29L396.01 90.29L393.51 84.08Q393.38 83.72 393.11 83.49Q392.84 83.27 392.57 83.20L392.57 83.20Q392.43 83.14 392.29 83.07Q392.16 83.00 392.16 82.87L392.16 82.87Q392.16 82.76 392.29 82.74Q392.43 82.71 392.52 82.71L392.52 82.71Q392.75 82.71 392.96 82.73Q393.17 82.75 393.38 82.77Q393.60 82.80 393.83 82.80L393.83 82.80Q394.08 82.80 394.34 82.77Q394.59 82.75 394.83 82.73Q395.07 82.71 395.33 82.71L395.33 82.71Q395.40 82.71 395.54 82.74Q395.69 82.76 395.69 82.87L395.69 82.87Q395.69 83.00 395.55 83.07Q395.42 83.14 395.27 83.20L395.27 83.20Q395.09 83.25 394.99 83.46Q394.89 83.66 394.89 83.92L394.89 83.92Q394.89 84.15 394.98 84.38L394.98 84.38L396.39 88.00Q396.41 88.07 396.48 88.07L396.48 88.07Q396.55 88.07 396.57 88.00L396.57 88.00L397.79 85.09Q397.88 84.85 397.91 84.64Q397.94 84.42 397.94 84.22L397.94 84.22Q397.94 83.83 397.63 83.57Q397.32 83.32 397.02 83.20L397.02 83.20Q396.87 83.14 396.74 83.07Q396.60 83.00 396.60 82.87L396.60 82.87Q396.60 82.76 396.73 82.74Q396.86 82.71 396.96 82.71L396.96 82.71Q397.22 82.71 397.51 82.75Q397.81 82.80 398.31 82.80L398.31 82.80Q398.82 82.80 399.18 82.75Q399.54 82.71 399.83 82.71L399.83 82.71Q399.92 82.71 400.05 82.74Q400.19 82.76 400.19 82.87L400.19 82.87Q400.19 83.00 400.05 83.07Q399.92 83.14 399.77 83.20L399.77 83.20Q399.57 83.27 399.37 83.39Q399.16 83.52 399.16 83.84L399.16 83.84Q399.16 83.95 399.19 84.09Q399.21 84.22 399.29 84.38L399.29 84.38L400.64 87.86Q400.73 88.06 400.78 88.06L400.78 88.06Q400.85 88.06 400.92 87.88L400.92 87.88L402.29 84.69Q402.36 84.55 402.39 84.33Q402.42 84.11 402.42 83.99L402.42 83.99Q402.42 83.66 402.20 83.47Q401.99 83.27 401.79 83.20L401.79 83.20Q401.64 83.14 401.51 83.07Q401.37 83.00 401.37 82.87L401.37 82.87Q401.37 82.76 401.51 82.74Q401.64 82.71 401.73 82.71L401.73 82.71Q402.13 82.71 402.36 82.75Q402.60 82.80 403.08 82.80L403.08 82.80Q403.43 82.80 403.57 82.77Q403.71 82.75 403.82 82.73Q403.93 82.71 404.13 82.71L404.13 82.71Q404.24 82.71 404.36 82.74Q404.49 82.76 404.49 82.87L404.49 82.87Q404.49 83.00 404.35 83.07Q404.22 83.14 404.07 83.20L404.07 83.20Q403.80 83.27 403.55 83.62Q403.30 83.97 403.12 84.38L403.12 84.38L400.65 90.29Q400.60 90.41 400.49 90.41L400.49 90.41Q400.42 90.41 400.35 90.29L400.35 90.29L398.48 85.64Q398.42 85.50 398.37 85.48L398.37 85.48Q398.31 85.48 398.24 85.66L398.24 85.66L396.28 90.29Q396.23 90.41 396.14 90.41ZM405.19 90.05L405.19 90.05Q405.03 90.05 404.93 90.01Q404.83 89.96 404.83 89.86L404.83 89.86Q404.83 89.71 404.97 89.66Q405.10 89.60 405.24 89.57L405.24 89.57Q405.62 89.48 405.82 89.34Q406.02 89.21 406.02 88.88L406.02 88.88L406.02 84.98Q406.02 84.49 405.85 84.11Q405.68 83.74 405.21 83.66L405.21 83.66Q405.12 83.65 405.07 83.59Q405.03 83.54 405.03 83.43L405.03 83.43Q405.03 83.23 405.19 83.21L405.19 83.21Q405.91 83.05 406.38 82.77Q406.85 82.49 407.08 82.31L407.08 82.31Q407.24 82.19 407.33 82.19L407.33 82.19Q407.44 82.19 407.44 82.28L407.44 82.28Q407.44 82.42 407.40 82.84Q407.35 83.27 407.31 83.78Q407.28 84.29 407.28 84.71L407.28 84.71L407.28 88.88Q407.28 89.19 407.49 89.33Q407.69 89.48 408.05 89.57L408.05 89.57Q408.20 89.60 408.33 89.66Q408.47 89.71 408.47 89.86L408.47 89.86Q408.47 90.05 408.11 90.05L408.11 90.05Q407.76 90.05 407.56 90.03Q407.35 90 407.16 89.98Q406.97 89.96 406.65 89.96L406.65 89.96Q406.34 89.96 406.14 89.98Q405.95 90 405.75 90.03Q405.55 90.05 405.19 90.05ZM406.63 80.71L406.63 80.71Q406.25 80.71 405.99 80.45Q405.73 80.19 405.73 79.81L405.73 79.81Q405.73 79.42 405.99 79.16Q406.25 78.89 406.63 78.89L406.63 78.89Q407.03 78.89 407.29 79.16Q407.55 79.42 407.55 79.81L407.55 79.81Q407.55 80.19 407.29 80.45Q407.03 80.71 406.63 80.71ZM409.60 90.05L409.60 90.05Q409.44 90.05 409.34 90.01Q409.24 89.96 409.24 89.86L409.24 89.86Q409.24 89.71 409.35 89.67Q409.46 89.62 409.65 89.57L409.65 89.57Q409.92 89.50 410.18 89.37Q410.43 89.24 410.43 88.88L410.43 88.88L410.43 85.01Q410.43 84.53 410.33 84.19Q410.23 83.84 409.76 83.72L409.76 83.72Q409.69 83.68 409.64 83.64Q409.58 83.59 409.58 83.48L409.58 83.48Q409.58 83.29 409.74 83.27L409.74 83.27Q410.37 83.11 410.77 82.87Q411.17 82.64 411.54 82.35L411.54 82.35Q411.60 82.31 411.64 82.29Q411.69 82.26 411.74 82.26L411.74 82.26Q411.78 82.26 411.81 82.30Q411.83 82.33 411.83 82.39L411.83 82.39Q411.83 82.51 411.79 82.90Q411.74 83.29 411.74 83.54L411.74 83.54Q411.74 83.61 411.75 83.67Q411.76 83.74 411.78 83.75L411.78 83.75Q412.41 83.16 413.12 82.85Q413.83 82.55 414.68 82.55L414.68 82.55Q415.56 82.55 416.13 83.27Q416.71 83.99 416.71 85.05L416.71 85.05L416.71 88.88Q416.71 89.24 416.96 89.36Q417.21 89.48 417.48 89.57L417.48 89.57Q417.63 89.62 417.76 89.69Q417.90 89.75 417.90 89.89L417.90 89.89Q417.90 90 417.77 90.03Q417.65 90.05 417.54 90.05L417.54 90.05Q417.18 90.05 416.98 90.03Q416.78 90 416.60 89.98Q416.42 89.96 416.10 89.96L416.10 89.96Q415.79 89.96 415.59 89.98Q415.40 90 415.19 90.03Q414.98 90.05 414.62 90.05L414.62 90.05Q414.53 90.05 414.40 90.03Q414.26 90 414.26 89.89L414.26 89.89Q414.26 89.75 414.40 89.69Q414.53 89.62 414.68 89.57L414.68 89.57Q414.95 89.48 415.20 89.36Q415.45 89.24 415.45 88.88L415.45 88.88L415.45 85.10Q415.45 84.31 415.01 83.87Q414.57 83.43 413.83 83.41L413.83 83.41Q413.18 83.41 412.70 83.62Q412.21 83.83 411.83 84.13L411.83 84.13Q411.76 84.20 411.72 84.32Q411.69 84.44 411.69 84.55L411.69 84.55L411.69 88.88Q411.69 89.24 411.94 89.37Q412.19 89.50 412.46 89.57L412.46 89.57Q412.88 89.68 412.88 89.86L412.88 89.86Q412.88 89.96 412.79 90.01Q412.70 90.05 412.52 90.05L412.52 90.05Q412.16 90.05 411.95 90.03Q411.74 90 411.56 89.98Q411.38 89.96 411.06 89.96L411.06 89.96Q410.75 89.96 410.56 89.98Q410.37 90 410.17 90.03Q409.96 90.05 409.60 90.05ZM424.74 90.34L424.74 90.34Q424.70 90.34 424.62 90.27Q424.54 90.20 424.54 90.16L424.54 90.16Q424.54 89.98 424.59 89.65Q424.63 89.32 424.63 89.08L424.63 89.08L424.63 88.97Q424.36 89.39 423.77 89.82Q423.17 90.25 422.27 90.25L422.27 90.25Q421.25 90.25 420.50 89.71Q419.75 89.17 419.35 88.33Q418.94 87.48 418.94 86.58L418.94 86.58Q418.94 85.54 419.43 84.62Q419.91 83.70 420.82 83.12Q421.73 82.55 422.99 82.55L422.99 82.55Q423.35 82.55 423.72 82.61Q424.09 82.67 424.29 82.75L424.29 82.75Q424.45 82.80 424.52 82.80L424.52 82.80Q424.65 82.80 424.65 82.37L424.65 82.37L424.65 79.81Q424.65 79.07 424.41 78.82Q424.18 78.57 423.75 78.50L423.75 78.50Q423.59 78.46 423.59 78.26L423.59 78.26Q423.59 78.10 423.73 78.05L423.73 78.05Q424.52 77.85 424.97 77.67Q425.42 77.49 425.67 77.38L425.67 77.38Q425.75 77.35 425.81 77.34Q425.87 77.33 425.91 77.33L425.91 77.33Q426.02 77.33 426.03 77.44L426.03 77.44Q426.03 77.54 426.01 77.80Q425.98 78.07 425.94 78.57Q425.91 79.07 425.91 79.88L425.91 79.88L425.91 88.02Q425.91 88.63 426.00 88.91Q426.09 89.19 426.29 89.19L426.29 89.19Q426.38 89.19 426.60 89.17Q426.83 89.15 427.06 89.14L427.06 89.14Q427.38 89.12 427.38 89.30L427.38 89.30Q427.38 89.42 427.30 89.52Q427.22 89.62 427.13 89.62L427.13 89.62Q426.63 89.69 426.14 89.83Q425.66 89.96 425.03 90.23L425.03 90.23Q424.88 90.31 424.84 90.32Q424.79 90.34 424.74 90.34ZM422.92 89.32L422.92 89.32Q423.39 89.32 423.84 89.07Q424.29 88.83 424.63 88.43L424.63 88.43L424.65 85.19Q424.65 84.71 424.37 84.24Q424.09 83.77 423.60 83.47Q423.10 83.18 422.43 83.18L422.43 83.18Q422.02 83.18 421.50 83.43Q420.98 83.68 420.60 84.32Q420.22 84.96 420.22 86.17L420.22 86.17Q420.22 87.19 420.53 87.81Q420.83 88.43 421.27 88.76Q421.71 89.08 422.17 89.20Q422.63 89.32 422.92 89.32ZM428.10 92.65L428.10 92.65Q427.78 92.65 427.78 92.45L427.78 92.45Q427.78 92.38 427.84 92.31Q427.91 92.25 428.03 92.23L428.03 92.23Q428.43 92.14 428.82 91.93Q429.22 91.71 429.49 91.31Q429.76 90.90 429.76 90.27L429.76 90.27Q429.76 90.05 429.56 89.78Q429.36 89.50 429.06 89.48L429.06 89.48Q428.66 89.44 428.44 89.23Q428.21 89.01 428.21 88.72L428.21 88.72Q428.21 88.36 428.51 88.13Q428.81 87.89 429.20 87.89L429.20 87.89Q429.85 87.89 430.27 88.39Q430.70 88.88 430.70 89.64L430.70 89.64Q430.70 90.32 430.43 90.87Q430.16 91.42 429.74 91.82Q429.33 92.21 428.89 92.43Q428.45 92.65 428.10 92.65ZM441.84 90.13L441.84 90.13Q441.66 90.13 441.04 90.09Q440.42 90.05 439.62 90.03Q438.81 90 438.09 90L438.09 90Q437.73 90 437.49 90.02Q437.25 90.04 436.97 90.06Q436.69 90.09 436.20 90.09L436.20 90.09Q435.97 90.09 435.83 90.04Q435.68 89.98 435.68 89.86L435.68 89.86Q435.68 89.71 435.83 89.67Q435.97 89.62 436.28 89.57L436.28 89.57Q436.96 89.44 437.22 89.15Q437.48 88.87 437.48 88.22L437.48 88.22L437.48 80.12Q437.48 79.47 437.22 79.20Q436.96 78.93 436.28 78.80L436.28 78.80Q435.97 78.75 435.83 78.69Q435.68 78.62 435.68 78.48L435.68 78.48Q435.68 78.35 435.83 78.30Q435.97 78.25 436.20 78.25L436.20 78.25Q436.67 78.25 436.95 78.25Q437.23 78.26 437.50 78.27Q437.77 78.28 438.20 78.28L438.20 78.28Q438.49 78.28 438.93 78.26Q439.37 78.25 439.85 78.21Q440.33 78.17 440.71 78.16Q441.10 78.14 441.28 78.14L441.28 78.14Q443.12 78.14 444.41 78.58Q445.71 79.02 446.52 79.80Q447.33 80.59 447.72 81.62Q448.10 82.66 448.10 83.84L448.10 83.84Q448.10 85.14 447.62 86.27Q447.13 87.41 446.27 88.28Q445.40 89.15 444.27 89.64Q443.13 90.13 441.84 90.13ZM441.62 89.50L441.62 89.50Q443.03 89.50 444.11 88.81Q445.19 88.13 445.79 86.92Q446.39 85.72 446.39 84.15L446.39 84.15Q446.39 82.85 445.96 81.84Q445.53 80.82 444.81 80.13Q444.09 79.43 443.19 79.06Q442.29 78.70 441.37 78.70L441.37 78.70Q440.60 78.70 440.05 78.74Q439.50 78.79 439.21 79.02Q438.92 79.25 438.92 79.79L438.92 79.79L438.92 87.82Q438.92 88.54 439.32 88.90Q439.71 89.26 440.34 89.38Q440.96 89.50 441.62 89.50ZM451.63 90.68L451.63 90.68Q451.22 90.68 450.75 90.55Q450.28 90.41 449.96 90.23Q449.63 90.05 449.63 89.91L449.63 89.91Q449.63 89.78 449.78 89.59Q449.92 89.39 450.11 89.23Q450.30 89.08 450.42 89.08L450.42 89.08Q450.62 89.08 450.78 89.19Q450.95 89.30 451.13 89.44L451.13 89.44Q451.36 89.64 451.67 89.82Q451.97 90 452.48 90L452.48 90Q453.14 90 453.74 89.66Q454.33 89.32 454.72 88.71Q455.10 88.11 455.10 87.37L455.10 87.37Q455.10 86.67 454.87 86.02Q454.64 85.37 454.18 84.95Q453.72 84.53 453.02 84.53L453.02 84.53Q452.82 84.53 452.49 84.57Q452.15 84.62 451.85 84.80L451.85 84.80Q451.76 84.85 451.64 84.79Q451.52 84.73 451.54 84.64L451.54 84.64Q451.61 84.40 451.76 84.25Q451.90 84.10 452.08 84.02L452.08 84.02Q452.24 83.95 452.60 83.75Q452.96 83.54 453.37 83.22Q453.77 82.91 454.06 82.50Q454.35 82.10 454.35 81.61L454.35 81.61Q454.35 80.87 453.87 80.31Q453.39 79.74 452.66 79.74L452.66 79.74Q451.95 79.74 451.53 79.98Q451.11 80.23 450.86 80.54Q450.60 80.86 450.48 81.10Q450.35 81.34 450.24 81.34L450.24 81.34Q450.17 81.34 450.06 81.23Q449.96 81.13 449.96 81L449.96 81Q449.96 80.77 450.15 80.38Q450.35 79.99 450.78 79.60Q451.20 79.20 451.86 78.93Q452.51 78.66 453.43 78.66L453.43 78.66Q454.02 78.66 454.56 78.92Q455.09 79.18 455.43 79.64Q455.77 80.10 455.77 80.71L455.77 80.71Q455.77 81.14 455.59 81.61Q455.41 82.08 455.00 82.54Q454.58 83.00 453.88 83.41L453.88 83.41Q453.83 83.43 453.83 83.47Q453.83 83.52 453.90 83.52L453.90 83.52Q454.67 83.52 455.28 83.91Q455.90 84.29 456.27 84.93Q456.63 85.57 456.63 86.35L456.63 86.35Q456.63 87.35 456.20 88.16Q455.77 88.96 455.05 89.52Q454.33 90.09 453.44 90.39Q452.55 90.68 451.63 90.68ZM459.44 90.25L459.44 90.25Q459.05 90.25 458.75 89.95Q458.45 89.66 458.45 89.26L458.45 89.26Q458.45 88.85 458.75 88.56Q459.05 88.27 459.44 88.27L459.44 88.27Q459.86 88.27 460.14 88.56Q460.43 88.85 460.43 89.26L460.43 89.26Q460.43 89.66 460.14 89.95Q459.86 90.25 459.44 90.25ZM461.53 95.17L461.53 95.17Q461.44 95.17 461.30 95.12Q461.15 95.08 461.15 94.99L461.15 94.99Q461.15 94.88 461.24 94.79Q461.33 94.70 461.35 94.68L461.35 94.68Q461.67 94.59 461.98 94.34Q462.29 94.09 462.54 93.55L462.54 93.55Q462.74 93.13 462.85 92.51Q462.97 91.89 463.02 91.21Q463.08 90.52 463.10 89.87Q463.11 89.23 463.11 88.76L463.11 88.76L463.11 84.98Q463.11 84.49 462.93 84.12Q462.75 83.75 462.29 83.66L462.29 83.66Q462.21 83.65 462.18 83.57Q462.14 83.50 462.14 83.43L462.14 83.43Q462.14 83.25 462.27 83.21L462.27 83.21Q462.95 83.05 463.42 82.76Q463.89 82.48 464.14 82.31L464.14 82.31Q464.23 82.26 464.29 82.22Q464.36 82.19 464.37 82.19L464.37 82.19Q464.50 82.19 464.50 82.28L464.50 82.28Q464.45 82.84 464.41 83.64Q464.37 84.44 464.37 85.05L464.37 85.05L464.37 88.36Q464.37 88.92 464.35 89.67Q464.32 90.41 464.21 91.22Q464.10 92.02 463.83 92.74L463.83 92.74Q463.62 93.35 463.20 93.91Q462.79 94.46 462.34 94.81Q461.89 95.17 461.53 95.17ZM463.60 80.71L463.60 80.71Q463.22 80.71 462.96 80.45Q462.70 80.19 462.70 79.81L462.70 79.81Q462.70 79.42 462.96 79.16Q463.22 78.89 463.60 78.89L463.60 78.89Q464.00 78.89 464.26 79.16Q464.52 79.42 464.52 79.81L464.52 79.81Q464.52 80.19 464.26 80.45Q464.00 80.71 463.60 80.71ZM468.17 90.25L468.17 90.25Q467.61 90.25 467.13 90.08Q466.64 89.91 466.30 89.60L466.30 89.60Q466.21 89.41 466.17 88.94Q466.12 88.47 466.10 88.16L466.10 88.16Q466.10 88.00 466.34 88.00L466.34 88.00Q466.41 88.00 466.47 88.03Q466.53 88.06 466.55 88.13L466.55 88.13Q466.79 89.01 467.30 89.39Q467.81 89.77 468.33 89.77L468.33 89.77Q468.86 89.77 469.23 89.42Q469.59 89.06 469.59 88.54L469.59 88.54Q469.59 88.06 469.27 87.70Q468.95 87.35 468.14 86.85L468.14 86.85Q467.52 86.47 467.15 86.13Q466.77 85.79 466.60 85.43Q466.43 85.07 466.43 84.62L466.43 84.62Q466.43 84.04 466.70 83.57Q466.97 83.11 467.51 82.83Q468.05 82.55 468.86 82.55L468.86 82.55Q469.40 82.55 469.76 82.66Q470.12 82.76 470.30 82.89L470.30 82.89Q470.44 83.09 470.54 83.51Q470.64 83.93 470.64 84.31L470.64 84.31Q470.64 84.44 470.46 84.44L470.46 84.44Q470.35 84.44 470.25 84.39Q470.15 84.35 470.12 84.28L470.12 84.28Q469.88 83.68 469.53 83.37Q469.18 83.05 468.66 83.05L468.66 83.05Q468.21 83.05 467.86 83.32Q467.51 83.59 467.51 84.11L467.51 84.11Q467.51 84.53 467.77 84.85Q468.03 85.18 468.75 85.59L468.75 85.59Q469.79 86.18 470.31 86.70Q470.82 87.21 470.82 88.06L470.82 88.06Q470.82 89.03 470.08 89.64Q469.34 90.25 468.17 90.25Z"/>
  </svg>