<svg viewBox="0 0 800 120" width="100%" xmlns="http://www.w3.org/2000/svg">
    <rect width="800" height="120" fill="#0d1117" />
    <!-- Decorative magic circle on the left -->
    <g transform="translate(50, 60) rotate(0)">
    <circle cx="0" cy="0" r="40" fill="none" stroke="#14b8a6" stroke-width="1" opacity="0.4" />
    <circle cx="0" cy="0" r="36" fill="none" stroke="#14b8a6" stroke-width="0.5" stroke-dasharray="4 4" opacity="0.6" />
    <circle cx="0" cy="0" r="30" fill="none" stroke="#14b8a6" stroke-width="1" opacity="0.3" />
    <!-- Outer triangles -->
    <polygon points="0,-40 34.64,20 -34.64,20" fill="none" stroke="#14b8a6" stroke-width="0.5" opacity="0.5" />
    <polygon points="0,40 -34.64,-20 34.64,-20" fill="none" stroke="#14b8a6" stroke-width="0.5" opacity="0.5" />
    <!-- Inner square -->
    <rect x="-21.200000000000003" y="-21.200000000000003" width="42.400000000000006" height="42.400000000000006" fill="none" stroke="#14b8a6" stroke-width="0.5" opacity="0.4" transform="rotate(45)" />
    <!-- Central dot -->
    <circle cx="0" cy="0" r="2" fill="#14b8a6" opacity="0.8" />
  </g>
    <!-- The text -->
    <path fill="#e2e8f0" d="M110.27 60.24L110.27 60.24Q109.65 60.24 109.26 60.12Q108.88 60 108.88 59.71L108.88 59.71Q108.88 59.38 109.26 59.18Q109.65 58.99 110.46 58.85L110.46 58.85Q112.29 58.51 113.25 57.67Q114.21 56.83 114.21 55.10L114.21 55.10L114.21 36.48Q114.21 34.27 114.11 33.10Q114.02 31.92 113.80 31.44Q113.58 30.96 113.20 30.91L113.20 30.91Q112.53 30.77 111.78 30.74Q111.04 30.72 109.79 30.72L109.79 30.72L107.54 30.72Q106.38 30.72 105.26 31.18Q104.13 31.63 103.60 32.59L103.60 32.59Q103.46 32.83 103.12 33.29Q102.78 33.74 102.40 34.08Q102.02 34.42 101.63 34.42L101.63 34.42Q101.44 34.42 101.37 34.22Q101.30 34.03 101.30 33.79L101.30 33.79Q101.30 33.31 101.54 32.83L101.54 32.83Q102.21 31.44 102.52 30.36Q102.83 29.28 103.02 27.79L103.02 27.79Q103.12 26.98 103.38 26.83Q103.65 26.69 103.84 26.69L103.84 26.69Q104.03 26.69 104.44 27.26Q104.85 27.84 105.04 28.22L105.04 28.22Q105.33 28.70 106.36 28.94Q107.39 29.18 108.40 29.18L108.40 29.18L125.30 29.18Q126.98 29.18 128.03 28.99Q129.09 28.80 129.86 28.46L129.86 28.46Q130.43 28.18 130.79 27.84Q131.15 27.50 131.73 27.50L131.73 27.50Q131.87 27.50 131.97 27.86Q132.06 28.22 132.06 28.61L132.06 28.61Q132.06 28.85 131.99 29.28Q131.92 29.71 131.87 29.95L131.87 29.95Q131.73 30.82 131.61 31.20Q131.49 31.58 131.44 31.87Q131.39 32.16 131.39 32.78L131.39 32.78L131.39 33.36Q131.39 33.79 131.20 34.34Q131.01 34.90 130.62 34.90L130.62 34.90Q130.29 34.90 130.10 34.37Q129.90 33.84 129.71 32.93L129.71 32.93Q129.52 31.92 128.56 31.32Q127.60 30.72 125.30 30.72L125.30 30.72L120.45 30.72Q119.39 30.72 118.86 31.01Q118.34 31.30 118.19 32.45Q118.05 33.60 118.05 36.24L118.05 36.24L118.05 55.10Q118.05 56.83 119.06 57.67Q120.06 58.51 121.84 58.85L121.84 58.85Q122.66 58.99 123.04 59.18Q123.42 59.38 123.42 59.71L123.42 59.71Q123.42 60 123.04 60.12Q122.66 60.24 122.03 60.24L122.03 60.24Q120.74 60.24 119.90 60.17Q119.06 60.10 118.29 60.05Q117.52 60 116.42 60L116.42 60Q115.22 60 114.33 60.05Q113.44 60.10 112.50 60.17Q111.57 60.24 110.27 60.24ZM134.03 60.14L134.03 60.14Q133.07 60.14 133.07 59.62L133.07 59.62Q133.07 59.18 134.18 58.85L134.18 58.85Q134.90 58.61 135.54 58.22Q136.19 57.84 136.24 56.88L136.24 56.88L136.24 32.83Q136.24 31.54 135.81 30.55Q135.38 29.57 134.13 29.38L134.13 29.38Q133.70 29.28 133.70 28.70L133.70 28.70Q133.70 28.27 134.08 28.13L134.08 28.13Q134.75 27.89 135.69 27.60Q136.62 27.31 137.63 26.95Q138.64 26.59 139.41 26.26L139.41 26.26Q139.60 26.16 139.70 26.16L139.70 26.16Q139.84 26.16 139.94 26.26Q140.03 26.35 140.03 26.50L140.03 26.50Q140.03 26.78 139.91 27.31Q139.79 27.84 139.70 29.14Q139.60 30.43 139.60 33.02L139.60 33.02L139.60 41.38Q139.60 42.14 139.67 42.48Q139.74 42.82 139.94 43.15L139.94 43.15Q140.70 42.58 141.83 41.88Q142.96 41.18 144.35 40.66Q145.74 40.13 147.23 40.13L147.23 40.13Q149.58 40.13 151.14 41.98Q152.70 43.82 152.70 46.66L152.70 46.66L152.70 56.74Q152.70 57.70 153.33 58.15Q153.95 58.61 154.67 58.85L154.67 58.85Q155.20 58.99 155.49 59.16Q155.78 59.33 155.78 59.62L155.78 59.62Q155.78 60.14 154.82 60.14L154.82 60.14Q153.86 60.14 153.35 60.07Q152.85 60 152.39 59.95Q151.94 59.90 151.07 59.90L151.07 59.90Q150.26 59.90 149.78 59.95Q149.30 60 148.79 60.07Q148.29 60.14 147.33 60.14L147.33 60.14Q146.37 60.14 146.37 59.62L146.37 59.62Q146.37 59.28 146.66 59.16Q146.94 59.04 147.47 58.85L147.47 58.85Q148.19 58.61 148.77 58.15Q149.34 57.70 149.34 56.74L149.34 56.74L149.34 46.94Q149.34 45.74 148.65 44.76Q147.95 43.78 146.94 43.20Q145.94 42.62 144.88 42.62L144.88 42.62Q143.97 42.62 142.77 42.89Q141.57 43.15 140.90 43.68L140.90 43.68Q140.13 44.30 139.86 44.98Q139.60 45.65 139.60 47.14L139.60 47.14L139.60 56.88Q139.65 57.84 140.20 58.22Q140.75 58.61 141.47 58.85L141.47 58.85Q142 58.99 142.26 59.16Q142.53 59.33 142.53 59.62L142.53 59.62Q142.53 60.14 141.57 60.14L141.57 60.14Q140.61 60.14 140.13 60.07Q139.65 60 139.22 59.95Q138.78 59.90 137.92 59.90L137.92 59.90Q137.10 59.90 136.60 59.95Q136.10 60 135.54 60.07Q134.99 60.14 134.03 60.14ZM167.10 60.72L167.10 60.72Q164.46 60.72 162.50 59.42Q160.53 58.13 159.42 55.75Q158.32 53.38 158.32 50.26L158.32 50.26Q158.32 47.47 159.59 45.19Q160.86 42.91 162.98 41.52Q165.09 40.13 167.58 40.13L167.58 40.13Q169.50 40.13 170.99 40.90Q172.48 41.66 173.32 43.03Q174.16 44.40 174.16 46.18L174.16 46.18Q174.16 47.66 172.72 47.66L172.72 47.66L162.59 47.66Q161.92 47.66 161.66 48.02Q161.39 48.38 161.39 49.44L161.39 49.44Q161.39 51.74 162.40 53.64Q163.41 55.54 165.09 56.66Q166.77 57.79 168.78 57.79L168.78 57.79Q170.22 57.79 171.40 57.24Q172.58 56.69 173.49 55.63L173.49 55.63Q173.68 55.39 173.78 55.32Q173.87 55.25 174.02 55.25L174.02 55.25Q174.40 55.25 174.40 55.73L174.40 55.73Q174.40 56.64 173.54 57.74L173.54 57.74Q172.82 58.66 171.81 59.33Q170.80 60 169.60 60.36Q168.40 60.72 167.10 60.72ZM162.69 46.18L162.69 46.18L167.06 46.18Q168.21 46.18 169.02 46.13Q169.84 46.08 170.61 45.94L170.61 45.94Q170.85 45.89 170.92 45.62Q170.99 45.36 170.99 44.88L170.99 44.88Q170.99 43.49 169.77 42.50Q168.54 41.52 166.86 41.52L166.86 41.52Q165.76 41.52 164.66 42.17Q163.55 42.82 162.83 43.78Q162.11 44.74 162.11 45.70L162.11 45.70Q162.11 46.18 162.69 46.18ZM204.02 60.67L204.02 60.67Q200.70 60.67 197.70 59.50Q194.70 58.32 192.38 56.21Q190.05 54.10 188.70 51.24Q187.36 48.38 187.36 45.07L187.36 45.07Q187.36 41.52 188.75 38.45Q190.14 35.38 192.59 33.07Q195.04 30.77 198.23 29.47Q201.42 28.18 205.02 28.18L205.02 28.18Q205.84 28.18 207.26 28.34Q208.67 28.51 210.18 28.75Q211.70 28.99 212.92 29.26Q214.14 29.52 214.62 29.76L214.62 29.76Q214.86 29.86 214.94 29.98Q215.01 30.10 215.06 30.34L215.06 30.34Q215.25 31.73 215.39 33.10Q215.54 34.46 215.54 35.42L215.54 35.42Q215.54 35.76 215.32 36.07Q215.10 36.38 214.82 36.38L214.82 36.38Q214.34 36.38 214.10 35.95Q213.86 35.52 213.71 35.09L213.71 35.09Q213.42 34.32 213.11 33.77Q212.80 33.22 212.22 32.54L212.22 32.54Q211.94 32.16 211 31.56Q210.06 30.96 208.48 30.48Q206.90 30 204.59 30L204.59 30Q201.81 30 199.50 31.18Q197.20 32.35 195.54 34.39Q193.89 36.43 193 39.02Q192.11 41.62 192.11 44.45L192.11 44.45Q192.11 47.86 193.17 50.54Q194.22 53.23 196 55.10Q197.78 56.98 200.03 57.94Q202.29 58.90 204.69 58.90L204.69 58.90Q207.47 58.90 208.79 58.22Q210.11 57.55 210.54 57.12L210.54 57.12Q211.07 56.59 211.53 55.63Q211.98 54.67 211.98 53.42L211.98 53.42Q211.98 52.99 212.01 52.51Q212.03 52.03 212.06 51.55Q212.08 51.07 212.08 50.64L212.08 50.64Q212.08 50.11 212.03 49.75Q211.98 49.39 211.84 49.20L211.84 49.20Q211.46 48.67 210.50 48.34Q209.54 48 208.58 47.86Q207.62 47.71 207.14 47.71L207.14 47.71Q206.94 47.71 206.56 47.47Q206.18 47.23 206.18 46.90L206.18 46.90Q206.18 46.51 206.56 46.30Q206.94 46.08 207.14 46.08L207.14 46.08Q208.34 46.08 209.20 46.13Q210.06 46.18 210.98 46.22Q211.89 46.27 213.18 46.27L213.18 46.27Q214.43 46.27 215.30 46.18Q216.16 46.08 217.46 46.08L217.46 46.08Q217.65 46.08 218.06 46.22Q218.46 46.37 218.46 46.85L218.46 46.85Q218.46 47.18 218.06 47.42Q217.65 47.66 217.46 47.71L217.46 47.71Q216.40 48 215.99 48.55Q215.58 49.10 215.44 50.06L215.44 50.06Q215.30 51.12 215.25 51.94Q215.20 52.75 215.20 53.66L215.20 53.66L215.20 54.96Q215.20 55.20 215.30 55.34Q215.39 55.49 215.49 55.73L215.49 55.73Q215.63 55.97 215.87 56.16Q216.11 56.35 216.11 56.54L216.11 56.54Q216.11 56.74 216.04 57.05Q215.97 57.36 215.44 57.46L215.44 57.46Q215.10 57.50 214.12 58.01Q213.14 58.51 211.65 59.14Q210.16 59.76 208.24 60.22Q206.32 60.67 204.02 60.67ZM222.54 60.14L222.54 60.14Q222.06 60.14 221.82 60.02Q221.58 59.90 221.58 59.62L221.58 59.62Q221.58 59.23 221.87 59.11Q222.16 58.99 222.69 58.85L222.69 58.85Q223.60 58.61 224.06 58.15Q224.51 57.70 224.51 57.02L224.51 57.02L224.51 46.70Q224.51 45.41 224.13 44.45Q223.74 43.49 222.54 43.25L222.54 43.25Q222.35 43.20 222.21 43.01Q222.06 42.82 222.06 42.62L222.06 42.62Q222.06 42.14 222.50 42.05L222.50 42.05Q223.74 41.66 225.11 40.92Q226.48 40.18 227.25 39.70L227.25 39.70Q227.54 39.50 227.70 39.43Q227.87 39.36 227.97 39.36L227.97 39.36Q228.21 39.36 228.21 39.70L228.21 39.70Q228.21 39.84 228.18 40.42Q228.16 40.99 228.14 41.76Q228.11 42.53 228.06 43.30L228.06 43.30Q228.06 43.39 228.16 43.39L228.16 43.39Q228.93 42.43 229.86 41.71Q230.80 40.99 231.78 40.56Q232.77 40.13 233.68 40.13L233.68 40.13Q234.69 40.13 235.34 40.56Q235.98 40.99 235.98 41.66L235.98 41.66Q235.98 42.14 235.72 42.72Q235.46 43.30 235.02 43.73Q234.59 44.16 234.11 44.16L234.11 44.16Q233.82 44.16 233.49 44.04Q233.15 43.92 232.77 43.73L232.77 43.73Q232.38 43.58 232.00 43.44Q231.62 43.30 231.23 43.30L231.23 43.30Q230.08 43.30 229.00 44.11Q227.92 44.93 227.92 47.33L227.92 47.33L227.92 57.02Q227.92 57.65 228.59 58.06Q229.26 58.46 230.46 58.85L230.46 58.85Q230.99 58.99 231.28 59.14Q231.57 59.28 231.57 59.62L231.57 59.62Q231.57 60.14 230.61 60.14L230.61 60.14Q229.17 60.14 228.42 60.02Q227.68 59.90 226.43 59.90L226.43 59.90Q225.62 59.90 225.11 59.95Q224.61 60 224.06 60.07Q223.50 60.14 222.54 60.14ZM238.34 60.14L238.34 60.14Q237.90 60.14 237.64 60.02Q237.38 59.90 237.38 59.62L237.38 59.62Q237.38 59.23 237.74 59.09Q238.10 58.94 238.48 58.85L238.48 58.85Q239.49 58.61 240.02 58.25Q240.54 57.89 240.54 57.02L240.54 57.02L240.54 46.61Q240.54 45.31 240.09 44.30Q239.63 43.30 238.38 43.10L238.38 43.10Q238.14 43.06 238.02 42.91Q237.90 42.77 237.90 42.48L237.90 42.48Q237.90 41.95 238.34 41.90L238.34 41.90Q240.26 41.47 241.50 40.73Q242.75 39.98 243.38 39.50L243.38 39.50Q243.81 39.17 244.05 39.17L244.05 39.17Q244.34 39.17 244.34 39.41L244.34 39.41Q244.34 39.79 244.22 40.92Q244.10 42.05 244 43.42Q243.90 44.78 243.90 45.89L243.90 45.89L243.90 57.02Q243.90 57.84 244.46 58.22Q245.01 58.61 245.97 58.85L245.97 58.85Q246.35 58.94 246.71 59.09Q247.07 59.23 247.07 59.62L247.07 59.62Q247.07 60.14 246.11 60.14L246.11 60.14Q245.20 60.14 244.65 60.07Q244.10 60 243.59 59.95Q243.09 59.90 242.22 59.90L242.22 59.90Q241.41 59.90 240.88 59.95Q240.35 60 239.82 60.07Q239.30 60.14 238.34 60.14ZM242.18 35.23L242.18 35.23Q241.17 35.23 240.47 34.54Q239.78 33.84 239.78 32.83L239.78 32.83Q239.78 31.78 240.47 31.08Q241.17 30.38 242.18 30.38L242.18 30.38Q243.23 30.38 243.93 31.08Q244.62 31.78 244.62 32.83L244.62 32.83Q244.62 33.84 243.93 34.54Q243.23 35.23 242.18 35.23ZM250.10 60.14L250.10 60.14Q249.71 60.14 249.42 60.05Q249.14 59.95 249.14 59.62L249.14 59.62Q249.14 59.28 249.45 59.14Q249.76 58.99 250.24 58.85L250.24 58.85Q250.91 58.61 251.61 58.30Q252.30 57.98 252.30 57.02L252.30 57.02L252.30 46.70Q252.30 45.41 252.02 44.42Q251.73 43.44 250.48 43.25L250.48 43.25Q250.29 43.20 250.17 43.06Q250.05 42.91 250.05 42.62L250.05 42.62Q250.05 42.14 250.43 42.05L250.43 42.05Q251.73 41.71 252.50 41.35Q253.26 40.99 253.86 40.54Q254.46 40.08 255.33 39.55L255.33 39.55Q255.42 39.50 255.52 39.43Q255.62 39.36 255.76 39.36L255.76 39.36Q256.05 39.36 256.05 39.70L256.05 39.70Q256.05 40.03 255.93 41.06Q255.81 42.10 255.81 42.77L255.81 42.77Q255.81 43.25 255.90 43.34L255.90 43.34L256.00 43.34Q257.10 42.29 258.90 41.21Q260.70 40.13 263.49 40.13L263.49 40.13Q265.22 40.13 266.37 40.87Q267.52 41.62 268.29 43.44L268.29 43.44L268.43 43.44Q269.97 42.05 271.94 41.09Q273.90 40.13 276.26 40.13L276.26 40.13Q277.84 40.13 278.90 41.09Q279.95 42.05 280.50 43.58Q281.06 45.12 281.06 46.80L281.06 46.80L281.06 57.02Q281.06 57.98 281.73 58.30Q282.40 58.61 283.12 58.85L283.12 58.85Q283.60 58.99 283.91 59.14Q284.22 59.28 284.22 59.62L284.22 59.62Q284.22 59.90 284.01 60.02Q283.79 60.14 283.26 60.14L283.26 60.14Q282.30 60.14 281.78 60.07Q281.25 60 280.79 59.95Q280.34 59.90 279.47 59.90L279.47 59.90Q278.66 59.90 278.13 59.95Q277.60 60 277.02 60.07Q276.45 60.14 275.49 60.14L275.49 60.14Q275.06 60.14 274.79 60.02Q274.53 59.90 274.53 59.62L274.53 59.62Q274.53 59.23 274.84 59.09Q275.15 58.94 275.63 58.85L275.63 58.85Q276.40 58.66 277.05 58.32Q277.70 57.98 277.70 57.02L277.70 57.02L277.70 46.94Q277.70 45.79 277.17 44.76Q276.64 43.73 275.78 43.06Q274.91 42.38 273.86 42.38L273.86 42.38Q272.66 42.38 271.62 42.67Q270.59 42.96 269.68 43.68L269.68 43.68Q268.34 44.74 268.34 47.14L268.34 47.14L268.34 57.02Q268.34 57.98 269.06 58.32Q269.78 58.66 270.50 58.85L270.50 58.85Q270.98 58.94 271.29 59.11Q271.60 59.28 271.60 59.62L271.60 59.62Q271.60 59.90 271.36 60.02Q271.12 60.14 270.64 60.14L270.64 60.14Q269.68 60.14 269.13 60.07Q268.58 60 268.07 59.95Q267.57 59.90 266.70 59.90L266.70 59.90Q265.89 59.90 265.36 59.95Q264.83 60 264.26 60.07Q263.68 60.14 262.72 60.14L262.72 60.14Q262.34 60.14 262.05 60.02Q261.76 59.90 261.76 59.62L261.76 59.62Q261.76 59.23 262.12 59.11Q262.48 58.99 262.86 58.85L262.86 58.85Q263.58 58.61 264.28 58.30Q264.98 57.98 264.98 57.02L264.98 57.02L264.98 46.94Q264.98 45.79 264.45 44.76Q263.92 43.73 263.06 43.06Q262.19 42.38 261.14 42.38L261.14 42.38Q259.94 42.38 258.90 42.67Q257.87 42.96 256.96 43.68L256.96 43.68Q255.66 44.64 255.66 47.14L255.66 47.14L255.66 57.02Q255.66 57.98 256.34 58.30Q257.01 58.61 257.73 58.85L257.73 58.85Q258.11 58.99 258.47 59.11Q258.83 59.23 258.83 59.62L258.83 59.62Q258.83 59.90 258.57 60.02Q258.30 60.14 257.87 60.14L257.87 60.14Q256.91 60.14 256.36 60.07Q255.81 60 255.33 59.95Q254.85 59.90 253.98 59.90L253.98 59.90Q253.17 59.90 252.66 59.95Q252.16 60 251.61 60.07Q251.06 60.14 250.10 60.14ZM296.56 60.67L296.56 60.67Q293.87 60.67 291.71 59.42Q289.55 58.18 288.28 55.99Q287.01 53.81 287.01 51.02L287.01 51.02Q287.01 49.01 287.80 47.09Q288.59 45.17 290.03 43.58Q291.47 42 293.39 41.06Q295.31 40.13 297.52 40.13L297.52 40.13Q300.30 40.13 302.54 41.47Q304.77 42.82 306.09 45Q307.41 47.18 307.41 49.78L307.41 49.78Q307.41 52.56 306.18 55.06Q304.96 57.55 302.56 59.11Q300.16 60.67 296.56 60.67ZM297.57 59.23L297.57 59.23Q299.20 59.23 300.50 58.61Q301.79 57.98 302.51 56.59L302.51 56.59Q303.09 55.49 303.28 53.90Q303.47 52.32 303.47 50.93L303.47 50.93Q303.47 48.62 302.63 46.49Q301.79 44.35 300.28 42.98Q298.77 41.62 296.70 41.62L296.70 41.62Q295.41 41.62 294.38 42.02Q293.34 42.43 292.48 43.54L292.48 43.54Q291.52 44.74 291.23 46.46Q290.94 48.19 290.94 49.92L290.94 49.92Q290.94 52.27 291.81 54.41Q292.67 56.54 294.16 57.89Q295.65 59.23 297.57 59.23ZM311.20 60.14L311.20 60.14Q310.77 60.14 310.50 60.02Q310.24 59.90 310.24 59.62L310.24 59.62Q310.24 59.23 310.60 59.09Q310.96 58.94 311.34 58.85L311.34 58.85Q312.35 58.61 312.88 58.25Q313.41 57.89 313.41 57.02L313.41 57.02L313.41 46.61Q313.41 45.31 312.95 44.30Q312.50 43.30 311.25 43.10L311.25 43.10Q311.01 43.06 310.89 42.91Q310.77 42.77 310.77 42.48L310.77 42.48Q310.77 41.95 311.20 41.90L311.20 41.90Q313.12 41.47 314.37 40.73Q315.62 39.98 316.24 39.50L316.24 39.50Q316.67 39.17 316.91 39.17L316.91 39.17Q317.20 39.17 317.20 39.41L317.20 39.41Q317.20 39.79 317.08 40.92Q316.96 42.05 316.86 43.42Q316.77 44.78 316.77 45.89L316.77 45.89L316.77 57.02Q316.77 57.84 317.32 58.22Q317.87 58.61 318.83 58.85L318.83 58.85Q319.22 58.94 319.58 59.09Q319.94 59.23 319.94 59.62L319.94 59.62Q319.94 60.14 318.98 60.14L318.98 60.14Q318.06 60.14 317.51 60.07Q316.96 60 316.46 59.95Q315.95 59.90 315.09 59.90L315.09 59.90Q314.27 59.90 313.74 59.95Q313.22 60 312.69 60.07Q312.16 60.14 311.20 60.14ZM315.04 35.23L315.04 35.23Q314.03 35.23 313.34 34.54Q312.64 33.84 312.64 32.83L312.64 32.83Q312.64 31.78 313.34 31.08Q314.03 30.38 315.04 30.38L315.04 30.38Q316.10 30.38 316.79 31.08Q317.49 31.78 317.49 32.83L317.49 32.83Q317.49 33.84 316.79 34.54Q316.10 35.23 315.04 35.23ZM323.20 60.14L323.20 60.14Q322.72 60.14 322.48 60.02Q322.24 59.90 322.24 59.62L322.24 59.62Q322.24 59.23 322.53 59.11Q322.82 58.99 323.34 58.85L323.34 58.85Q324.26 58.61 324.71 58.15Q325.17 57.70 325.17 57.02L325.17 57.02L325.17 46.70Q325.17 45.41 324.78 44.45Q324.40 43.49 323.20 43.25L323.20 43.25Q323.01 43.20 322.86 43.01Q322.72 42.82 322.72 42.62L322.72 42.62Q322.72 42.14 323.15 42.05L323.15 42.05Q324.40 41.66 325.77 40.92Q327.14 40.18 327.90 39.70L327.90 39.70Q328.19 39.50 328.36 39.43Q328.53 39.36 328.62 39.36L328.62 39.36Q328.86 39.36 328.86 39.70L328.86 39.70Q328.86 39.84 328.84 40.42Q328.82 40.99 328.79 41.76Q328.77 42.53 328.72 43.30L328.72 43.30Q328.72 43.39 328.82 43.39L328.82 43.39Q329.58 42.43 330.52 41.71Q331.46 40.99 332.44 40.56Q333.42 40.13 334.34 40.13L334.34 40.13Q335.34 40.13 335.99 40.56Q336.64 40.99 336.64 41.66L336.64 41.66Q336.64 42.14 336.38 42.72Q336.11 43.30 335.68 43.73Q335.25 44.16 334.77 44.16L334.77 44.16Q334.48 44.16 334.14 44.04Q333.81 43.92 333.42 43.73L333.42 43.73Q333.04 43.58 332.66 43.44Q332.27 43.30 331.89 43.30L331.89 43.30Q330.74 43.30 329.66 44.11Q328.58 44.93 328.58 47.33L328.58 47.33L328.58 57.02Q328.58 57.65 329.25 58.06Q329.92 58.46 331.12 58.85L331.12 58.85Q331.65 58.99 331.94 59.14Q332.22 59.28 332.22 59.62L332.22 59.62Q332.22 60.14 331.26 60.14L331.26 60.14Q329.82 60.14 329.08 60.02Q328.34 59.90 327.09 59.90L327.09 59.90Q326.27 59.90 325.77 59.95Q325.26 60 324.71 60.07Q324.16 60.14 323.20 60.14ZM347.10 60.72L347.10 60.72Q344.46 60.72 342.50 59.42Q340.53 58.13 339.42 55.75Q338.32 53.38 338.32 50.26L338.32 50.26Q338.32 47.47 339.59 45.19Q340.86 42.91 342.98 41.52Q345.09 40.13 347.58 40.13L347.58 40.13Q349.50 40.13 350.99 40.90Q352.48 41.66 353.32 43.03Q354.16 44.40 354.16 46.18L354.16 46.18Q354.16 47.66 352.72 47.66L352.72 47.66L342.59 47.66Q341.92 47.66 341.66 48.02Q341.39 48.38 341.39 49.44L341.39 49.44Q341.39 51.74 342.40 53.64Q343.41 55.54 345.09 56.66Q346.77 57.79 348.78 57.79L348.78 57.79Q350.22 57.79 351.40 57.24Q352.58 56.69 353.49 55.63L353.49 55.63Q353.68 55.39 353.78 55.32Q353.87 55.25 354.02 55.25L354.02 55.25Q354.40 55.25 354.40 55.73L354.40 55.73Q354.40 56.64 353.54 57.74L353.54 57.74Q352.82 58.66 351.81 59.33Q350.80 60 349.60 60.36Q348.40 60.72 347.10 60.72ZM342.69 46.18L342.69 46.18L347.06 46.18Q348.21 46.18 349.02 46.13Q349.84 46.08 350.61 45.94L350.61 45.94Q350.85 45.89 350.92 45.62Q350.99 45.36 350.99 44.88L350.99 44.88Q350.99 43.49 349.77 42.50Q348.54 41.52 346.86 41.52L346.86 41.52Q345.76 41.52 344.66 42.17Q343.55 42.82 342.83 43.78Q342.11 44.74 342.11 45.70L342.11 45.70Q342.11 46.18 342.69 46.18Z"/>
    <!-- Decorative line -->
    <path d="M 100,80 L 750,80" fill="none" stroke="#14b8a6" stroke-width="1" opacity="0.5" />
    <circle cx="750" cy="80" r="3" fill="#14b8a6" opacity="0.8" />
  </svg>