<svg viewBox="0 0 800 120" width="100%" xmlns="http://www.w3.org/2000/svg">
    <rect width="800" height="120" fill="#0d1117" />
    <!-- Decorative magic circle on the left -->
    <g transform="translate(50, 60) rotate(0)">
    <circle cx="0" cy="0" r="40" fill="none" stroke="#14b8a6" stroke-width="1" opacity="0.4" />
    <circle cx="0" cy="0" r="36" fill="none" stroke="#14b8a6" stroke-width="0.5" stroke-dasharray="4 4" opacity="0.6" />
    <circle cx="0" cy="0" r="30" fill="none" stroke="#14b8a6" stroke-width="1" opacity="0.3" />
    <!-- Outer triangles -->
    <polygon points="0,-40 34.64,20 -34.64,20" fill="none" stroke="#14b8a6" stroke-width="0.5" opacity="0.5" />
    <polygon points="0,40 -34.64,-20 34.64,-20" fill="none" stroke="#14b8a6" stroke-width="0.5" opacity="0.5" />
    <!-- Inner square -->
    <rect x="-21.200000000000003" y="-21.200000000000003" width="42.400000000000006" height="42.400000000000006" fill="none" stroke="#14b8a6" stroke-width="0.5" opacity="0.4" transform="rotate(45)" />
    <!-- Central dot -->
    <circle cx="0" cy="0" r="2" fill="#14b8a6" opacity="0.8" />
  </g>
    <!-- The text -->
    <path fill="#e2e8f0" d="M109.79 60.77L109.79 60.77Q107.78 60.77 106.07 60.17Q104.37 59.57 103.02 58.46L103.02 58.46Q102.83 58.27 102.66 58.03Q102.50 57.79 102.40 57.50L102.40 57.50Q102.16 56.54 102.09 55.01Q102.02 53.47 101.92 52.46L101.92 52.46Q101.92 52.13 102.21 51.96Q102.50 51.79 102.88 51.79L102.88 51.79Q103.12 51.79 103.36 51.91Q103.60 52.03 103.65 52.32L103.65 52.32Q104.61 56.02 106.50 57.60Q108.40 59.18 110.46 59.18L110.46 59.18Q112.14 59.18 113.44 58.46Q114.74 57.74 115.48 56.42Q116.22 55.10 116.22 53.33L116.22 53.33Q116.22 51.36 115.58 50.14Q114.93 48.91 113.73 48Q112.53 47.09 110.80 46.03L110.80 46.03Q108.93 44.83 107.10 43.61Q105.28 42.38 104.08 40.78Q102.88 39.17 102.88 36.86L102.88 36.86Q102.88 34.42 103.98 32.45Q105.09 30.48 107.32 29.30Q109.55 28.13 112.91 28.13L112.91 28.13Q114.64 28.13 115.91 28.49Q117.18 28.85 117.95 29.18L117.95 29.18Q118.34 29.33 118.60 29.66Q118.86 30 118.96 30.38L118.96 30.38Q119.25 31.39 119.58 32.69Q119.92 33.98 119.92 35.14L119.92 35.14Q119.92 35.66 119.20 35.66L119.20 35.66Q118.77 35.66 118.36 35.47Q117.95 35.28 117.86 34.99L117.86 34.99Q116.85 32.45 115.50 31.10Q114.16 29.76 112.10 29.76L112.10 29.76Q110.66 29.76 109.41 30.29Q108.16 30.82 107.37 32.02Q106.58 33.22 106.58 35.23L106.58 35.23Q106.58 36.67 107.51 37.85Q108.45 39.02 109.98 40.08Q111.52 41.14 113.30 42.24L113.30 42.24Q114.98 43.25 116.58 44.45Q118.19 45.65 119.22 47.30Q120.26 48.96 120.26 51.36L120.26 51.36Q120.26 54.19 118.96 56.33Q117.66 58.46 115.31 59.62Q112.96 60.77 109.79 60.77ZM132.54 60.72L132.54 60.72Q129.90 60.72 127.94 59.42Q125.97 58.13 124.86 55.75Q123.76 53.38 123.76 50.26L123.76 50.26Q123.76 47.47 125.03 45.19Q126.30 42.91 128.42 41.52Q130.53 40.13 133.02 40.13L133.02 40.13Q134.94 40.13 136.43 40.90Q137.92 41.66 138.76 43.03Q139.60 44.40 139.60 46.18L139.60 46.18Q139.60 47.66 138.16 47.66L138.16 47.66L128.03 47.66Q127.36 47.66 127.10 48.02Q126.83 48.38 126.83 49.44L126.83 49.44Q126.83 51.74 127.84 53.64Q128.85 55.54 130.53 56.66Q132.21 57.79 134.22 57.79L134.22 57.79Q135.66 57.79 136.84 57.24Q138.02 56.69 138.93 55.63L138.93 55.63Q139.12 55.39 139.22 55.32Q139.31 55.25 139.46 55.25L139.46 55.25Q139.84 55.25 139.84 55.73L139.84 55.73Q139.84 56.64 138.98 57.74L138.98 57.74Q138.26 58.66 137.25 59.33Q136.24 60 135.04 60.36Q133.84 60.72 132.54 60.72ZM128.13 46.18L128.13 46.18L132.50 46.18Q133.65 46.18 134.46 46.13Q135.28 46.08 136.05 45.94L136.05 45.94Q136.29 45.89 136.36 45.62Q136.43 45.36 136.43 44.88L136.43 44.88Q136.43 43.49 135.21 42.50Q133.98 41.52 132.30 41.52L132.30 41.52Q131.20 41.52 130.10 42.17Q128.99 42.82 128.27 43.78Q127.55 44.74 127.55 45.70L127.55 45.70Q127.55 46.18 128.13 46.18ZM143.15 60.14L143.15 60.14Q142.72 60.14 142.46 60.02Q142.19 59.90 142.19 59.62L142.19 59.62Q142.19 59.23 142.48 59.11Q142.77 58.99 143.30 58.85L143.30 58.85Q144.02 58.66 144.69 58.32Q145.36 57.98 145.36 57.02L145.36 57.02L145.36 46.70Q145.36 45.41 145.10 44.50Q144.83 43.58 143.58 43.25L143.58 43.25Q143.39 43.15 143.25 43.03Q143.10 42.91 143.10 42.62L143.10 42.62Q143.10 42.10 143.54 42.05L143.54 42.05Q145.22 41.62 146.27 40.99Q147.33 40.37 148.34 39.60L148.34 39.60Q148.48 39.50 148.60 39.43Q148.72 39.36 148.86 39.36L148.86 39.36Q148.96 39.36 149.03 39.46Q149.10 39.55 149.10 39.70L149.10 39.70Q149.10 40.03 148.98 41.06Q148.86 42.10 148.86 42.77L148.86 42.77Q148.86 42.96 148.89 43.13Q148.91 43.30 148.96 43.34L148.96 43.34Q150.64 41.76 152.54 40.94Q154.43 40.13 156.69 40.13L156.69 40.13Q159.04 40.13 160.58 42.05Q162.11 43.97 162.11 46.80L162.11 46.80L162.11 57.02Q162.11 57.98 162.78 58.30Q163.46 58.61 164.18 58.85L164.18 58.85Q164.56 58.99 164.92 59.16Q165.28 59.33 165.28 59.71L165.28 59.71Q165.28 60 164.94 60.07Q164.61 60.14 164.32 60.14L164.32 60.14Q163.36 60.14 162.83 60.07Q162.30 60 161.82 59.95Q161.34 59.90 160.48 59.90L160.48 59.90Q159.66 59.90 159.14 59.95Q158.61 60 158.06 60.07Q157.50 60.14 156.54 60.14L156.54 60.14Q156.30 60.14 155.94 60.07Q155.58 60 155.58 59.71L155.58 59.71Q155.58 59.33 155.94 59.16Q156.30 58.99 156.69 58.85L156.69 58.85Q157.41 58.61 158.08 58.30Q158.75 57.98 158.75 57.02L158.75 57.02L158.75 46.94Q158.75 44.83 157.58 43.66Q156.40 42.48 154.43 42.43L154.43 42.43Q152.70 42.43 151.41 42.98Q150.11 43.54 149.10 44.35L149.10 44.35Q148.91 44.54 148.82 44.86Q148.72 45.17 148.72 45.46L148.72 45.46L148.72 57.02Q148.72 57.98 149.39 58.32Q150.06 58.66 150.78 58.85L150.78 58.85Q151.89 59.14 151.89 59.62L151.89 59.62Q151.89 59.90 151.65 60.02Q151.41 60.14 150.93 60.14L150.93 60.14Q149.97 60.14 149.42 60.07Q148.86 60 148.38 59.95Q147.90 59.90 147.04 59.90L147.04 59.90Q146.22 59.90 145.72 59.95Q145.22 60 144.66 60.07Q144.11 60.14 143.15 60.14ZM183.52 60.91L183.52 60.91Q183.42 60.91 183.21 60.72Q182.99 60.53 182.99 60.43L182.99 60.43Q182.99 59.95 183.11 59.06Q183.23 58.18 183.23 57.55L183.23 57.55L183.23 57.26Q182.51 58.37 180.93 59.52Q179.34 60.67 176.94 60.67L176.94 60.67Q174.21 60.67 172.22 59.23Q170.22 57.79 169.14 55.54Q168.06 53.28 168.06 50.88L168.06 50.88Q168.06 48.10 169.36 45.65Q170.66 43.20 173.08 41.66Q175.50 40.13 178.86 40.13L178.86 40.13Q179.82 40.13 180.81 40.30Q181.79 40.46 182.32 40.66L182.32 40.66Q182.75 40.80 182.94 40.80L182.94 40.80Q183.28 40.80 183.28 39.65L183.28 39.65L183.28 32.83Q183.28 30.86 182.66 30.19Q182.03 29.52 180.88 29.33L180.88 29.33Q180.45 29.23 180.45 28.70L180.45 28.70Q180.45 28.27 180.83 28.13L180.83 28.13Q182.94 27.60 184.14 27.12Q185.34 26.64 186.02 26.35L186.02 26.35Q186.21 26.26 186.38 26.23Q186.54 26.21 186.64 26.21L186.64 26.21Q186.93 26.21 186.98 26.50L186.98 26.50Q186.98 26.78 186.90 27.48Q186.83 28.18 186.74 29.52Q186.64 30.86 186.64 33.02L186.64 33.02L186.64 54.72Q186.64 56.35 186.88 57.10Q187.12 57.84 187.65 57.84L187.65 57.84Q187.89 57.84 188.49 57.79Q189.09 57.74 189.71 57.70L189.71 57.70Q190.58 57.65 190.58 58.13L190.58 58.13Q190.58 58.46 190.36 58.73Q190.14 58.99 189.90 58.99L189.90 58.99Q188.56 59.18 187.26 59.54Q185.97 59.90 184.29 60.62L184.29 60.62Q183.90 60.82 183.78 60.86Q183.66 60.91 183.52 60.91ZM178.67 58.18L178.67 58.18Q179.92 58.18 181.12 57.53Q182.32 56.88 183.23 55.82L183.23 55.82L183.28 47.18Q183.28 45.89 182.54 44.64Q181.79 43.39 180.47 42.60Q179.15 41.81 177.38 41.81L177.38 41.81Q176.27 41.81 174.88 42.48Q173.49 43.15 172.48 44.86Q171.47 46.56 171.47 49.78L171.47 49.78Q171.47 52.51 172.29 54.17Q173.10 55.82 174.28 56.69Q175.46 57.55 176.68 57.86Q177.90 58.18 178.67 58.18ZM205.89 60.67L205.89 60.67Q205.02 60.67 204.14 60Q203.25 59.33 202.65 58.37Q202.05 57.41 202.05 56.54L202.05 56.54Q202.05 55.01 202.86 54.14Q203.68 53.28 205.46 52.56L205.46 52.56L210.35 50.54Q211.31 50.16 211.48 49.87Q211.65 49.58 211.70 48.62L211.70 48.62L211.79 45.55Q211.84 44.30 211.10 43.39Q210.35 42.48 208.96 42.48L208.96 42.48Q208.24 42.48 207.52 42.72Q206.80 42.96 206.32 43.34L206.32 43.34Q206.03 43.54 205.94 43.92Q205.84 44.30 205.84 44.74L205.84 44.74Q205.84 44.93 205.86 45.17Q205.89 45.41 205.89 45.60L205.89 45.60Q205.89 45.84 205.29 46.25Q204.69 46.66 203.94 46.97Q203.20 47.28 202.72 47.28L202.72 47.28Q202.48 47.28 202.34 47.16Q202.19 47.04 202.19 46.85L202.19 46.85Q202.19 46.08 202.70 45.19Q203.20 44.30 204.11 43.54L204.11 43.54Q205.22 42.53 206.51 41.76Q207.81 40.99 209.06 40.56Q210.30 40.13 211.26 40.13L211.26 40.13Q212.99 40.13 214.12 41.35Q215.25 42.58 215.20 44.40L215.20 44.40L214.96 55.92Q214.91 56.93 215.42 57.55Q215.92 58.18 216.69 58.18L216.69 58.18Q217.89 58.18 218.46 57.65L218.46 57.65Q218.70 57.41 218.85 57.41L218.85 57.41Q219.09 57.41 219.23 57.55Q219.38 57.70 219.38 57.94L219.38 57.94Q219.38 58.46 218.85 58.99L218.85 58.99Q218.08 59.76 217.19 60.22Q216.30 60.67 215.54 60.67L215.54 60.67Q213.33 60.67 212.03 58.18L212.03 58.18L211.89 58.18Q210.30 59.47 208.86 60.07Q207.42 60.67 205.89 60.67ZM208.14 58.37L208.14 58.37Q209.10 58.37 209.78 58.06Q210.45 57.74 210.98 57.22L210.98 57.22Q211.22 56.98 211.38 56.57Q211.55 56.16 211.60 55.25L211.60 55.25L211.70 52.90Q211.74 52.37 211.65 52.13Q211.55 51.89 211.26 51.89L211.26 51.89Q211.17 51.89 210.93 51.94Q210.69 51.98 210.30 52.13L210.30 52.13Q207.76 53.04 206.78 54.02Q205.79 55.01 205.79 55.82L205.79 55.82Q205.79 57.07 206.54 57.72Q207.28 58.37 208.14 58.37ZM259.60 61.01L259.60 61.01Q258.26 61.01 257.06 60.79Q255.86 60.58 254.85 60Q253.84 59.42 252.98 58.42L252.98 58.42Q251.82 56.98 250.77 55.66Q249.71 54.34 248.54 52.61Q247.36 50.88 245.68 48.19L245.68 48.19Q244.96 46.99 243.62 46.32L243.62 46.32Q242.56 45.79 241.53 45.58Q240.50 45.36 239.82 45.31L239.82 45.31Q239.44 45.26 239.27 45.55Q239.10 45.84 239.10 46.27L239.10 46.27L239.10 54.72Q239.10 56.26 239.82 57.38Q240.54 58.51 242.32 58.85L242.32 58.85Q243.14 58.99 243.52 59.18Q243.90 59.38 243.90 59.71L243.90 59.71Q243.90 60 243.52 60.12Q243.14 60.24 242.51 60.24L242.51 60.24Q241.22 60.24 240.52 60.14Q239.82 60.05 239.27 59.98Q238.72 59.90 237.81 59.90L237.81 59.90Q236.61 59.90 235.67 59.98Q234.74 60.05 233.80 60.14Q232.86 60.24 231.57 60.24L231.57 60.24Q230.94 60.24 230.56 60.12Q230.18 60 230.18 59.71L230.18 59.71Q230.18 59.14 231.76 58.85L231.76 58.85Q233.58 58.51 234.42 57.74Q235.26 56.98 235.26 55.20L235.26 55.20L235.26 34.75Q235.26 32.93 235.10 31.99Q234.93 31.06 234.33 30.67Q233.73 30.29 232.34 30.14L232.34 30.14Q231.52 30.05 231.14 29.78Q230.75 29.52 230.75 29.18L230.75 29.18Q230.75 28.90 231.14 28.78Q231.52 28.66 232.14 28.66L232.14 28.66Q233.44 28.66 234.09 28.66Q234.74 28.66 235.31 28.68Q235.89 28.70 236.85 28.70L236.85 28.70Q237.76 28.70 238.48 28.63Q239.20 28.56 240.09 28.51Q240.98 28.46 242.37 28.46L242.37 28.46Q247.65 28.46 250.41 30.43Q253.17 32.40 253.17 36.34L253.17 36.34Q253.17 38.50 252.30 40.06Q251.44 41.62 250.14 42.67Q248.85 43.73 247.50 44.40L247.50 44.40Q247.31 44.45 247.34 44.62Q247.36 44.78 247.50 45.02L247.50 45.02Q248.99 47.28 250.36 49.30Q251.73 51.31 253.36 53.23Q254.99 55.15 257.25 57.22L257.25 57.22Q258.50 58.32 259.79 58.56Q261.09 58.80 262.77 58.80L262.77 58.80Q263.49 58.80 263.49 59.33L263.49 59.33Q263.49 60.05 262.77 60.41Q262.05 60.77 261.14 60.89Q260.22 61.01 259.60 61.01ZM241.65 44.21L241.65 44.21Q243.86 44.21 245.46 43.20Q247.07 42.19 247.96 40.56Q248.85 38.93 248.85 37.10L248.85 37.10Q248.85 35.14 248.34 33.50Q247.84 31.87 246.33 30.89Q244.82 29.90 241.79 29.90L241.79 29.90Q240.26 29.90 239.78 30.89Q239.30 31.87 239.20 34.37L239.20 34.37Q239.15 35.57 239.13 37.61Q239.10 39.65 239.10 42.53L239.10 42.53Q239.10 43.73 239.78 43.97Q240.45 44.21 241.65 44.21ZM268.86 60.67L268.86 60.67Q268 60.67 267.11 60Q266.22 59.33 265.62 58.37Q265.02 57.41 265.02 56.54L265.02 56.54Q265.02 55.01 265.84 54.14Q266.66 53.28 268.43 52.56L268.43 52.56L273.33 50.54Q274.29 50.16 274.46 49.87Q274.62 49.58 274.67 48.62L274.67 48.62L274.77 45.55Q274.82 44.30 274.07 43.39Q273.33 42.48 271.94 42.48L271.94 42.48Q271.22 42.48 270.50 42.72Q269.78 42.96 269.30 43.34L269.30 43.34Q269.01 43.54 268.91 43.92Q268.82 44.30 268.82 44.74L268.82 44.74Q268.82 44.93 268.84 45.17Q268.86 45.41 268.86 45.60L268.86 45.60Q268.86 45.84 268.26 46.25Q267.66 46.66 266.92 46.97Q266.18 47.28 265.70 47.28L265.70 47.28Q265.46 47.28 265.31 47.16Q265.17 47.04 265.17 46.85L265.17 46.85Q265.17 46.08 265.67 45.19Q266.18 44.30 267.09 43.54L267.09 43.54Q268.19 42.53 269.49 41.76Q270.78 40.99 272.03 40.56Q273.28 40.13 274.24 40.13L274.24 40.13Q275.97 40.13 277.10 41.35Q278.22 42.58 278.18 44.40L278.18 44.40L277.94 55.92Q277.89 56.93 278.39 57.55Q278.90 58.18 279.66 58.18L279.66 58.18Q280.86 58.18 281.44 57.65L281.44 57.65Q281.68 57.41 281.82 57.41L281.82 57.41Q282.06 57.41 282.21 57.55Q282.35 57.70 282.35 57.94L282.35 57.94Q282.35 58.46 281.82 58.99L281.82 58.99Q281.06 59.76 280.17 60.22Q279.28 60.67 278.51 60.67L278.51 60.67Q276.30 60.67 275.01 58.18L275.01 58.18L274.86 58.18Q273.28 59.47 271.84 60.07Q270.40 60.67 268.86 60.67ZM271.12 58.37L271.12 58.37Q272.08 58.37 272.75 58.06Q273.42 57.74 273.95 57.22L273.95 57.22Q274.19 56.98 274.36 56.57Q274.53 56.16 274.58 55.25L274.58 55.25L274.67 52.90Q274.72 52.37 274.62 52.13Q274.53 51.89 274.24 51.89L274.24 51.89Q274.14 51.89 273.90 51.94Q273.66 51.98 273.28 52.13L273.28 52.13Q270.74 53.04 269.75 54.02Q268.77 55.01 268.77 55.82L268.77 55.82Q268.77 57.07 269.51 57.72Q270.26 58.37 271.12 58.37ZM292.96 61.01L292.67 61.01Q292.48 61.01 292.19 60.26Q291.90 59.52 291.81 59.18L291.81 59.18Q291.47 58.37 291.18 57.48Q290.90 56.59 290.61 55.82L290.61 55.82Q289.55 52.85 288.33 49.99Q287.10 47.14 285.95 44.21L285.95 44.21Q285.62 43.34 284.92 42.65Q284.22 41.95 283.50 41.76L283.50 41.76Q283.12 41.62 282.88 41.47Q282.64 41.33 282.64 40.99L282.64 40.99Q282.64 40.70 283 40.63Q283.36 40.56 283.60 40.56L283.60 40.56Q284.56 40.56 284.99 40.61Q285.42 40.66 285.86 40.73Q286.29 40.80 287.10 40.80L287.10 40.80Q287.97 40.80 288.40 40.73Q288.83 40.66 289.31 40.61Q289.79 40.56 290.70 40.56L290.70 40.56Q290.94 40.56 291.30 40.63Q291.66 40.70 291.66 40.99L291.66 40.99Q291.66 41.33 291.33 41.52Q290.99 41.71 290.56 41.86L290.56 41.86Q290.08 42.05 289.84 42.60Q289.60 43.15 289.60 43.82L289.60 43.82Q289.60 44.16 289.65 44.50Q289.70 44.83 289.79 45.12L289.79 45.12L293.58 55.20Q293.63 55.25 293.66 55.25Q293.68 55.25 293.73 55.20L293.73 55.20L297.38 45.84Q297.57 45.36 297.66 44.81Q297.76 44.26 297.76 43.87L297.76 43.87Q297.76 42.91 297.47 42.50Q297.18 42.10 296.51 41.86L296.51 41.86Q295.89 41.62 295.65 41.47Q295.41 41.33 295.41 40.99L295.41 40.99Q295.41 40.70 295.72 40.63Q296.03 40.56 296.37 40.56L296.37 40.56Q296.90 40.56 297.76 40.68Q298.62 40.80 299.87 40.80L299.87 40.80Q301.12 40.80 301.58 40.68Q302.03 40.56 302.70 40.56L302.70 40.56Q303.09 40.56 303.38 40.63Q303.66 40.70 303.66 40.99L303.66 40.99Q303.66 41.52 302.56 41.86L302.56 41.86Q301.84 42.05 300.98 42.96Q300.11 43.87 299.58 45.07L299.58 45.07L295.84 54.10Q295.74 54.29 295.46 55.03Q295.17 55.78 294.83 56.66Q294.50 57.55 294.26 58.20Q294.02 58.85 294.02 58.85L294.02 58.85Q294.02 58.85 293.82 59.30Q293.63 59.76 293.39 60.26Q293.15 60.77 292.96 61.01L292.96 61.01ZM313.65 60.72L313.65 60.72Q311.01 60.72 309.04 59.42Q307.07 58.13 305.97 55.75Q304.86 53.38 304.86 50.26L304.86 50.26Q304.86 47.47 306.14 45.19Q307.41 42.91 309.52 41.52Q311.63 40.13 314.13 40.13L314.13 40.13Q316.05 40.13 317.54 40.90Q319.02 41.66 319.86 43.03Q320.70 44.40 320.70 46.18L320.70 46.18Q320.70 47.66 319.26 47.66L319.26 47.66L309.14 47.66Q308.46 47.66 308.20 48.02Q307.94 48.38 307.94 49.44L307.94 49.44Q307.94 51.74 308.94 53.64Q309.95 55.54 311.63 56.66Q313.31 57.79 315.33 57.79L315.33 57.79Q316.77 57.79 317.94 57.24Q319.12 56.69 320.03 55.63L320.03 55.63Q320.22 55.39 320.32 55.32Q320.42 55.25 320.56 55.25L320.56 55.25Q320.94 55.25 320.94 55.73L320.94 55.73Q320.94 56.64 320.08 57.74L320.08 57.74Q319.36 58.66 318.35 59.33Q317.34 60 316.14 60.36Q314.94 60.72 313.65 60.72ZM309.23 46.18L309.23 46.18L313.60 46.18Q314.75 46.18 315.57 46.13Q316.38 46.08 317.15 45.94L317.15 45.94Q317.39 45.89 317.46 45.62Q317.54 45.36 317.54 44.88L317.54 44.88Q317.54 43.49 316.31 42.50Q315.09 41.52 313.41 41.52L313.41 41.52Q312.30 41.52 311.20 42.17Q310.10 42.82 309.38 43.78Q308.66 44.74 308.66 45.70L308.66 45.70Q308.66 46.18 309.23 46.18ZM324.26 60.14L324.26 60.14Q323.82 60.14 323.56 60.02Q323.30 59.90 323.30 59.62L323.30 59.62Q323.30 59.23 323.58 59.11Q323.87 58.99 324.40 58.85L324.40 58.85Q325.12 58.66 325.79 58.32Q326.46 57.98 326.46 57.02L326.46 57.02L326.46 46.70Q326.46 45.41 326.20 44.50Q325.94 43.58 324.69 43.25L324.69 43.25Q324.50 43.15 324.35 43.03Q324.21 42.91 324.21 42.62L324.21 42.62Q324.21 42.10 324.64 42.05L324.64 42.05Q326.32 41.62 327.38 40.99Q328.43 40.37 329.44 39.60L329.44 39.60Q329.58 39.50 329.70 39.43Q329.82 39.36 329.97 39.36L329.97 39.36Q330.06 39.36 330.14 39.46Q330.21 39.55 330.21 39.70L330.21 39.70Q330.21 40.03 330.09 41.06Q329.97 42.10 329.97 42.77L329.97 42.77Q329.97 42.96 329.99 43.13Q330.02 43.30 330.06 43.34L330.06 43.34Q331.74 41.76 333.64 40.94Q335.54 40.13 337.79 40.13L337.79 40.13Q340.14 40.13 341.68 42.05Q343.22 43.97 343.22 46.80L343.22 46.80L343.22 57.02Q343.22 57.98 343.89 58.30Q344.56 58.61 345.28 58.85L345.28 58.85Q345.66 58.99 346.02 59.16Q346.38 59.33 346.38 59.71L346.38 59.71Q346.38 60 346.05 60.07Q345.71 60.14 345.42 60.14L345.42 60.14Q344.46 60.14 343.94 60.07Q343.41 60 342.93 59.95Q342.45 59.90 341.58 59.90L341.58 59.90Q340.77 59.90 340.24 59.95Q339.71 60 339.16 60.07Q338.61 60.14 337.65 60.14L337.65 60.14Q337.41 60.14 337.05 60.07Q336.69 60 336.69 59.71L336.69 59.71Q336.69 59.33 337.05 59.16Q337.41 58.99 337.79 58.85L337.79 58.85Q338.51 58.61 339.18 58.30Q339.86 57.98 339.86 57.02L339.86 57.02L339.86 46.94Q339.86 44.83 338.68 43.66Q337.50 42.48 335.54 42.43L335.54 42.43Q333.81 42.43 332.51 42.98Q331.22 43.54 330.21 44.35L330.21 44.35Q330.02 44.54 329.92 44.86Q329.82 45.17 329.82 45.46L329.82 45.46L329.82 57.02Q329.82 57.98 330.50 58.32Q331.17 58.66 331.89 58.85L331.89 58.85Q332.99 59.14 332.99 59.62L332.99 59.62Q332.99 59.90 332.75 60.02Q332.51 60.14 332.03 60.14L332.03 60.14Q331.07 60.14 330.52 60.07Q329.97 60 329.49 59.95Q329.01 59.90 328.14 59.90L328.14 59.90Q327.33 59.90 326.82 59.95Q326.32 60 325.77 60.07Q325.22 60.14 324.26 60.14Z"/>
    <!-- Decorative line -->
    <path d="M 100,80 L 750,80" fill="none" stroke="#14b8a6" stroke-width="1" opacity="0.5" />
    <circle cx="750" cy="80" r="3" fill="#14b8a6" opacity="0.8" />
  </svg>