<svg viewBox="0 0 800 120" width="100%" xmlns="http://www.w3.org/2000/svg">
    <rect width="800" height="120" fill="#0d1117" />
    <!-- Decorative magic circle on the left -->
    <g transform="translate(50, 60) rotate(0)">
    <circle cx="0" cy="0" r="40" fill="none" stroke="#14b8a6" stroke-width="1" opacity="0.4" />
    <circle cx="0" cy="0" r="36" fill="none" stroke="#14b8a6" stroke-width="0.5" stroke-dasharray="4 4" opacity="0.6" />
    <circle cx="0" cy="0" r="30" fill="none" stroke="#14b8a6" stroke-width="1" opacity="0.3" />
    <!-- Outer triangles -->
    <polygon points="0,-40 34.64,20 -34.64,20" fill="none" stroke="#14b8a6" stroke-width="0.5" opacity="0.5" />
    <polygon points="0,40 -34.64,-20 34.64,-20" fill="none" stroke="#14b8a6" stroke-width="0.5" opacity="0.5" />
    <!-- Inner square -->
    <rect x="-21.200000000000003" y="-21.200000000000003" width="42.400000000000006" height="42.400000000000006" fill="none" stroke="#14b8a6" stroke-width="0.5" opacity="0.4" transform="rotate(45)" />
    <!-- Central dot -->
    <circle cx="0" cy="0" r="2" fill="#14b8a6" opacity="0.8" />
  </g>
    <!-- The text -->
    <path fill="#e2e8f0" d="M110.27 60.24L110.27 60.24Q109.65 60.24 109.26 60.12Q108.88 60 108.88 59.71L108.88 59.71Q108.88 59.38 109.26 59.18Q109.65 58.99 110.46 58.85L110.46 58.85Q112.29 58.51 113.25 57.67Q114.21 56.83 114.21 55.10L114.21 55.10L114.21 36.48Q114.21 34.27 114.11 33.10Q114.02 31.92 113.80 31.44Q113.58 30.96 113.20 30.91L113.20 30.91Q112.53 30.77 111.78 30.74Q111.04 30.72 109.79 30.72L109.79 30.72L107.54 30.72Q106.38 30.72 105.26 31.18Q104.13 31.63 103.60 32.59L103.60 32.59Q103.46 32.83 103.12 33.29Q102.78 33.74 102.40 34.08Q102.02 34.42 101.63 34.42L101.63 34.42Q101.44 34.42 101.37 34.22Q101.30 34.03 101.30 33.79L101.30 33.79Q101.30 33.31 101.54 32.83L101.54 32.83Q102.21 31.44 102.52 30.36Q102.83 29.28 103.02 27.79L103.02 27.79Q103.12 26.98 103.38 26.83Q103.65 26.69 103.84 26.69L103.84 26.69Q104.03 26.69 104.44 27.26Q104.85 27.84 105.04 28.22L105.04 28.22Q105.33 28.70 106.36 28.94Q107.39 29.18 108.40 29.18L108.40 29.18L125.30 29.18Q126.98 29.18 128.03 28.99Q129.09 28.80 129.86 28.46L129.86 28.46Q130.43 28.18 130.79 27.84Q131.15 27.50 131.73 27.50L131.73 27.50Q131.87 27.50 131.97 27.86Q132.06 28.22 132.06 28.61L132.06 28.61Q132.06 28.85 131.99 29.28Q131.92 29.71 131.87 29.95L131.87 29.95Q131.73 30.82 131.61 31.20Q131.49 31.58 131.44 31.87Q131.39 32.16 131.39 32.78L131.39 32.78L131.39 33.36Q131.39 33.79 131.20 34.34Q131.01 34.90 130.62 34.90L130.62 34.90Q130.29 34.90 130.10 34.37Q129.90 33.84 129.71 32.93L129.71 32.93Q129.52 31.92 128.56 31.32Q127.60 30.72 125.30 30.72L125.30 30.72L120.45 30.72Q119.39 30.72 118.86 31.01Q118.34 31.30 118.19 32.45Q118.05 33.60 118.05 36.24L118.05 36.24L118.05 55.10Q118.05 56.83 119.06 57.67Q120.06 58.51 121.84 58.85L121.84 58.85Q122.66 58.99 123.04 59.18Q123.42 59.38 123.42 59.71L123.42 59.71Q123.42 60 123.04 60.12Q122.66 60.24 122.03 60.24L122.03 60.24Q120.74 60.24 119.90 60.17Q119.06 60.10 118.29 60.05Q117.52 60 116.42 60L116.42 60Q115.22 60 114.33 60.05Q113.44 60.10 112.50 60.17Q111.57 60.24 110.27 60.24ZM142.38 60.72L142.38 60.72Q139.74 60.72 137.78 59.42Q135.81 58.13 134.70 55.75Q133.60 53.38 133.60 50.26L133.60 50.26Q133.60 47.47 134.87 45.19Q136.14 42.91 138.26 41.52Q140.37 40.13 142.86 40.13L142.86 40.13Q144.78 40.13 146.27 40.90Q147.76 41.66 148.60 43.03Q149.44 44.40 149.44 46.18L149.44 46.18Q149.44 47.66 148 47.66L148 47.66L137.87 47.66Q137.20 47.66 136.94 48.02Q136.67 48.38 136.67 49.44L136.67 49.44Q136.67 51.74 137.68 53.64Q138.69 55.54 140.37 56.66Q142.05 57.79 144.06 57.79L144.06 57.79Q145.50 57.79 146.68 57.24Q147.86 56.69 148.77 55.63L148.77 55.63Q148.96 55.39 149.06 55.32Q149.15 55.25 149.30 55.25L149.30 55.25Q149.68 55.25 149.68 55.73L149.68 55.73Q149.68 56.64 148.82 57.74L148.82 57.74Q148.10 58.66 147.09 59.33Q146.08 60 144.88 60.36Q143.68 60.72 142.38 60.72ZM137.97 46.18L137.97 46.18L142.34 46.18Q143.49 46.18 144.30 46.13Q145.12 46.08 145.89 45.94L145.89 45.94Q146.13 45.89 146.20 45.62Q146.27 45.36 146.27 44.88L146.27 44.88Q146.27 43.49 145.05 42.50Q143.82 41.52 142.14 41.52L142.14 41.52Q141.04 41.52 139.94 42.17Q138.83 42.82 138.11 43.78Q137.39 44.74 137.39 45.70L137.39 45.70Q137.39 46.18 137.97 46.18ZM161.10 60.72L161.10 60.72Q158.70 60.72 156.76 59.50Q154.82 58.27 153.69 56.14Q152.56 54 152.56 51.36L152.56 51.36Q152.56 48.24 153.93 45.70Q155.30 43.15 157.60 41.64Q159.90 40.13 162.69 40.13L162.69 40.13Q165.81 40.13 168.16 41.81L168.16 41.81Q168.74 42.24 168.74 42.72L168.74 42.72Q168.74 43.10 168.40 43.58Q168.06 44.06 167.58 44.38Q167.10 44.69 166.67 44.69L166.67 44.69Q166.43 44.69 166.19 44.52Q165.95 44.35 165.66 44.16L165.66 44.16Q164.61 43.34 163.31 42.62Q162.02 41.90 161.15 41.90L161.15 41.90Q158.80 41.90 157.34 44.09Q155.87 46.27 155.87 49.82L155.87 49.82Q155.87 52.08 156.86 53.90Q157.84 55.73 159.50 56.78Q161.15 57.84 163.17 57.84L163.17 57.84Q164.56 57.84 165.57 57.38Q166.58 56.93 167.73 55.78L167.73 55.78Q167.82 55.68 167.97 55.61Q168.11 55.54 168.21 55.54L168.21 55.54Q168.74 55.54 168.74 56.21L168.74 56.21Q168.74 56.50 168.57 56.86Q168.40 57.22 168.02 57.70L168.02 57.70Q167.25 58.66 166.19 59.35Q165.14 60.05 163.86 60.38Q162.59 60.72 161.10 60.72ZM172.29 60.14L172.29 60.14Q171.33 60.14 171.33 59.62L171.33 59.62Q171.33 59.18 172.43 58.85L172.43 58.85Q173.15 58.61 173.80 58.22Q174.45 57.84 174.50 56.88L174.50 56.88L174.50 32.83Q174.50 31.54 174.06 30.55Q173.63 29.57 172.38 29.38L172.38 29.38Q171.95 29.28 171.95 28.70L171.95 28.70Q171.95 28.27 172.34 28.13L172.34 28.13Q173.01 27.89 173.94 27.60Q174.88 27.31 175.89 26.95Q176.90 26.59 177.66 26.26L177.66 26.26Q177.86 26.16 177.95 26.16L177.95 26.16Q178.10 26.16 178.19 26.26Q178.29 26.35 178.29 26.50L178.29 26.50Q178.29 26.78 178.17 27.31Q178.05 27.84 177.95 29.14Q177.86 30.43 177.86 33.02L177.86 33.02L177.86 41.38Q177.86 42.14 177.93 42.48Q178 42.82 178.19 43.15L178.19 43.15Q178.96 42.58 180.09 41.88Q181.22 41.18 182.61 40.66Q184 40.13 185.49 40.13L185.49 40.13Q187.84 40.13 189.40 41.98Q190.96 43.82 190.96 46.66L190.96 46.66L190.96 56.74Q190.96 57.70 191.58 58.15Q192.21 58.61 192.93 58.85L192.93 58.85Q193.46 58.99 193.74 59.16Q194.03 59.33 194.03 59.62L194.03 59.62Q194.03 60.14 193.07 60.14L193.07 60.14Q192.11 60.14 191.61 60.07Q191.10 60 190.65 59.95Q190.19 59.90 189.33 59.90L189.33 59.90Q188.51 59.90 188.03 59.95Q187.55 60 187.05 60.07Q186.54 60.14 185.58 60.14L185.58 60.14Q184.62 60.14 184.62 59.62L184.62 59.62Q184.62 59.28 184.91 59.16Q185.20 59.04 185.73 58.85L185.73 58.85Q186.45 58.61 187.02 58.15Q187.60 57.70 187.60 56.74L187.60 56.74L187.60 46.94Q187.60 45.74 186.90 44.76Q186.21 43.78 185.20 43.20Q184.19 42.62 183.14 42.62L183.14 42.62Q182.22 42.62 181.02 42.89Q179.82 43.15 179.15 43.68L179.15 43.68Q178.38 44.30 178.12 44.98Q177.86 45.65 177.86 47.14L177.86 47.14L177.86 56.88Q177.90 57.84 178.46 58.22Q179.01 58.61 179.73 58.85L179.73 58.85Q180.26 58.99 180.52 59.16Q180.78 59.33 180.78 59.62L180.78 59.62Q180.78 60.14 179.82 60.14L179.82 60.14Q178.86 60.14 178.38 60.07Q177.90 60 177.47 59.95Q177.04 59.90 176.18 59.90L176.18 59.90Q175.36 59.90 174.86 59.95Q174.35 60 173.80 60.07Q173.25 60.14 172.29 60.14ZM197.25 60.14L197.25 60.14Q196.82 60.14 196.55 60.02Q196.29 59.90 196.29 59.62L196.29 59.62Q196.29 59.23 196.58 59.11Q196.86 58.99 197.39 58.85L197.39 58.85Q198.11 58.66 198.78 58.32Q199.46 57.98 199.46 57.02L199.46 57.02L199.46 46.70Q199.46 45.41 199.19 44.50Q198.93 43.58 197.68 43.25L197.68 43.25Q197.49 43.15 197.34 43.03Q197.20 42.91 197.20 42.62L197.20 42.62Q197.20 42.10 197.63 42.05L197.63 42.05Q199.31 41.62 200.37 40.99Q201.42 40.37 202.43 39.60L202.43 39.60Q202.58 39.50 202.70 39.43Q202.82 39.36 202.96 39.36L202.96 39.36Q203.06 39.36 203.13 39.46Q203.20 39.55 203.20 39.70L203.20 39.70Q203.20 40.03 203.08 41.06Q202.96 42.10 202.96 42.77L202.96 42.77Q202.96 42.96 202.98 43.13Q203.01 43.30 203.06 43.34L203.06 43.34Q204.74 41.76 206.63 40.94Q208.53 40.13 210.78 40.13L210.78 40.13Q213.14 40.13 214.67 42.05Q216.21 43.97 216.21 46.80L216.21 46.80L216.21 57.02Q216.21 57.98 216.88 58.30Q217.55 58.61 218.27 58.85L218.27 58.85Q218.66 58.99 219.02 59.16Q219.38 59.33 219.38 59.71L219.38 59.71Q219.38 60 219.04 60.07Q218.70 60.14 218.42 60.14L218.42 60.14Q217.46 60.14 216.93 60.07Q216.40 60 215.92 59.95Q215.44 59.90 214.58 59.90L214.58 59.90Q213.76 59.90 213.23 59.95Q212.70 60 212.15 60.07Q211.60 60.14 210.64 60.14L210.64 60.14Q210.40 60.14 210.04 60.07Q209.68 60 209.68 59.71L209.68 59.71Q209.68 59.33 210.04 59.16Q210.40 58.99 210.78 58.85L210.78 58.85Q211.50 58.61 212.18 58.30Q212.85 57.98 212.85 57.02L212.85 57.02L212.85 46.94Q212.85 44.83 211.67 43.66Q210.50 42.48 208.53 42.43L208.53 42.43Q206.80 42.43 205.50 42.98Q204.21 43.54 203.20 44.35L203.20 44.35Q203.01 44.54 202.91 44.86Q202.82 45.17 202.82 45.46L202.82 45.46L202.82 57.02Q202.82 57.98 203.49 58.32Q204.16 58.66 204.88 58.85L204.88 58.85Q205.98 59.14 205.98 59.62L205.98 59.62Q205.98 59.90 205.74 60.02Q205.50 60.14 205.02 60.14L205.02 60.14Q204.06 60.14 203.51 60.07Q202.96 60 202.48 59.95Q202 59.90 201.14 59.90L201.14 59.90Q200.32 59.90 199.82 59.95Q199.31 60 198.76 60.07Q198.21 60.14 197.25 60.14ZM222.59 60.14L222.59 60.14Q222.16 60.14 221.90 60.02Q221.63 59.90 221.63 59.62L221.63 59.62Q221.63 59.23 221.99 59.09Q222.35 58.94 222.74 58.85L222.74 58.85Q223.74 58.61 224.27 58.25Q224.80 57.89 224.80 57.02L224.80 57.02L224.80 46.61Q224.80 45.31 224.34 44.30Q223.89 43.30 222.64 43.10L222.64 43.10Q222.40 43.06 222.28 42.91Q222.16 42.77 222.16 42.48L222.16 42.48Q222.16 41.95 222.59 41.90L222.59 41.90Q224.51 41.47 225.76 40.73Q227.01 39.98 227.63 39.50L227.63 39.50Q228.06 39.17 228.30 39.17L228.30 39.17Q228.59 39.17 228.59 39.41L228.59 39.41Q228.59 39.79 228.47 40.92Q228.35 42.05 228.26 43.42Q228.16 44.78 228.16 45.89L228.16 45.89L228.16 57.02Q228.16 57.84 228.71 58.22Q229.26 58.61 230.22 58.85L230.22 58.85Q230.61 58.94 230.97 59.09Q231.33 59.23 231.33 59.62L231.33 59.62Q231.33 60.14 230.37 60.14L230.37 60.14Q229.46 60.14 228.90 60.07Q228.35 60 227.85 59.95Q227.34 59.90 226.48 59.90L226.48 59.90Q225.66 59.90 225.14 59.95Q224.61 60 224.08 60.07Q223.55 60.14 222.59 60.14ZM226.43 35.23L226.43 35.23Q225.42 35.23 224.73 34.54Q224.03 33.84 224.03 32.83L224.03 32.83Q224.03 31.78 224.73 31.08Q225.42 30.38 226.43 30.38L226.43 30.38Q227.49 30.38 228.18 31.08Q228.88 31.78 228.88 32.83L228.88 32.83Q228.88 33.84 228.18 34.54Q227.49 35.23 226.43 35.23ZM242.46 60.72L242.46 60.72Q240.06 60.72 238.12 59.50Q236.18 58.27 235.05 56.14Q233.92 54 233.92 51.36L233.92 51.36Q233.92 48.24 235.29 45.70Q236.66 43.15 238.96 41.64Q241.26 40.13 244.05 40.13L244.05 40.13Q247.17 40.13 249.52 41.81L249.52 41.81Q250.10 42.24 250.10 42.72L250.10 42.72Q250.10 43.10 249.76 43.58Q249.42 44.06 248.94 44.38Q248.46 44.69 248.03 44.69L248.03 44.69Q247.79 44.69 247.55 44.52Q247.31 44.35 247.02 44.16L247.02 44.16Q245.97 43.34 244.67 42.62Q243.38 41.90 242.51 41.90L242.51 41.90Q240.16 41.90 238.70 44.09Q237.23 46.27 237.23 49.82L237.23 49.82Q237.23 52.08 238.22 53.90Q239.20 55.73 240.86 56.78Q242.51 57.84 244.53 57.84L244.53 57.84Q245.92 57.84 246.93 57.38Q247.94 56.93 249.09 55.78L249.09 55.78Q249.18 55.68 249.33 55.61Q249.47 55.54 249.57 55.54L249.57 55.54Q250.10 55.54 250.10 56.21L250.10 56.21Q250.10 56.50 249.93 56.86Q249.76 57.22 249.38 57.70L249.38 57.70Q248.61 58.66 247.55 59.35Q246.50 60.05 245.22 60.38Q243.95 60.72 242.46 60.72ZM257.39 60.67L257.39 60.67Q256.53 60.67 255.64 60Q254.75 59.33 254.15 58.37Q253.55 57.41 253.55 56.54L253.55 56.54Q253.55 55.01 254.37 54.14Q255.18 53.28 256.96 52.56L256.96 52.56L261.86 50.54Q262.82 50.16 262.98 49.87Q263.15 49.58 263.20 48.62L263.20 48.62L263.30 45.55Q263.34 44.30 262.60 43.39Q261.86 42.48 260.46 42.48L260.46 42.48Q259.74 42.48 259.02 42.72Q258.30 42.96 257.82 43.34L257.82 43.34Q257.54 43.54 257.44 43.92Q257.34 44.30 257.34 44.74L257.34 44.74Q257.34 44.93 257.37 45.17Q257.39 45.41 257.39 45.60L257.39 45.60Q257.39 45.84 256.79 46.25Q256.19 46.66 255.45 46.97Q254.70 47.28 254.22 47.28L254.22 47.28Q253.98 47.28 253.84 47.16Q253.70 47.04 253.70 46.85L253.70 46.85Q253.70 46.08 254.20 45.19Q254.70 44.30 255.62 43.54L255.62 43.54Q256.72 42.53 258.02 41.76Q259.31 40.99 260.56 40.56Q261.81 40.13 262.77 40.13L262.77 40.13Q264.50 40.13 265.62 41.35Q266.75 42.58 266.70 44.40L266.70 44.40L266.46 55.92Q266.42 56.93 266.92 57.55Q267.42 58.18 268.19 58.18L268.19 58.18Q269.39 58.18 269.97 57.65L269.97 57.65Q270.21 57.41 270.35 57.41L270.35 57.41Q270.59 57.41 270.74 57.55Q270.88 57.70 270.88 57.94L270.88 57.94Q270.88 58.46 270.35 58.99L270.35 58.99Q269.58 59.76 268.70 60.22Q267.81 60.67 267.04 60.67L267.04 60.67Q264.83 60.67 263.54 58.18L263.54 58.18L263.39 58.18Q261.81 59.47 260.37 60.07Q258.93 60.67 257.39 60.67ZM259.65 58.37L259.65 58.37Q260.61 58.37 261.28 58.06Q261.95 57.74 262.48 57.22L262.48 57.22Q262.72 56.98 262.89 56.57Q263.06 56.16 263.10 55.25L263.10 55.25L263.20 52.90Q263.25 52.37 263.15 52.13Q263.06 51.89 262.77 51.89L262.77 51.89Q262.67 51.89 262.43 51.94Q262.19 51.98 261.81 52.13L261.81 52.13Q259.26 53.04 258.28 54.02Q257.30 55.01 257.30 55.82L257.30 55.82Q257.30 57.07 258.04 57.72Q258.78 58.37 259.65 58.37ZM272.80 60.14L272.80 60.14Q272.56 60.14 272.20 60.07Q271.84 60 271.84 59.71L271.84 59.71Q271.84 59.33 272.20 59.16Q272.56 58.99 272.94 58.85L272.94 58.85Q273.66 58.61 274.34 58.30Q275.01 57.98 275.01 57.02L275.01 57.02L275.01 32.83Q275.01 31.44 274.50 30.50Q274 29.57 272.80 29.33L272.80 29.33Q272.42 29.23 272.42 28.70L272.42 28.70Q272.42 28.22 272.75 28.13L272.75 28.13Q274 27.84 274.91 27.53Q275.82 27.22 276.62 26.88Q277.41 26.54 278.18 26.26L278.18 26.26Q278.37 26.16 278.46 26.16L278.46 26.16Q278.56 26.16 278.63 26.28Q278.70 26.40 278.70 26.50L278.70 26.50Q278.70 26.93 278.54 28.34Q278.37 29.76 278.37 33.02L278.37 33.02L278.37 57.02Q278.37 57.98 279.04 58.30Q279.71 58.61 280.43 58.85L280.43 58.85Q280.82 58.99 281.18 59.16Q281.54 59.33 281.54 59.71L281.54 59.71Q281.54 60 281.18 60.07Q280.82 60.14 280.58 60.14L280.58 60.14Q279.66 60.14 279.11 60.07Q278.56 60 278.06 59.95Q277.55 59.90 276.69 59.90L276.69 59.90Q275.87 59.90 275.34 59.95Q274.82 60 274.29 60.07Q273.76 60.14 272.80 60.14ZM301.84 60.77L301.84 60.77Q299.82 60.77 298.12 60.17Q296.42 59.57 295.07 58.46L295.07 58.46Q294.88 58.27 294.71 58.03Q294.54 57.79 294.45 57.50L294.45 57.50Q294.21 56.54 294.14 55.01Q294.06 53.47 293.97 52.46L293.97 52.46Q293.97 52.13 294.26 51.96Q294.54 51.79 294.93 51.79L294.93 51.79Q295.17 51.79 295.41 51.91Q295.65 52.03 295.70 52.32L295.70 52.32Q296.66 56.02 298.55 57.60Q300.45 59.18 302.51 59.18L302.51 59.18Q304.19 59.18 305.49 58.46Q306.78 57.74 307.53 56.42Q308.27 55.10 308.27 53.33L308.27 53.33Q308.27 51.36 307.62 50.14Q306.98 48.91 305.78 48Q304.58 47.09 302.85 46.03L302.85 46.03Q300.98 44.83 299.15 43.61Q297.33 42.38 296.13 40.78Q294.93 39.17 294.93 36.86L294.93 36.86Q294.93 34.42 296.03 32.45Q297.14 30.48 299.37 29.30Q301.60 28.13 304.96 28.13L304.96 28.13Q306.69 28.13 307.96 28.49Q309.23 28.85 310 29.18L310 29.18Q310.38 29.33 310.65 29.66Q310.91 30 311.01 30.38L311.01 30.38Q311.30 31.39 311.63 32.69Q311.97 33.98 311.97 35.14L311.97 35.14Q311.97 35.66 311.25 35.66L311.25 35.66Q310.82 35.66 310.41 35.47Q310 35.28 309.90 34.99L309.90 34.99Q308.90 32.45 307.55 31.10Q306.21 29.76 304.14 29.76L304.14 29.76Q302.70 29.76 301.46 30.29Q300.21 30.82 299.42 32.02Q298.62 33.22 298.62 35.23L298.62 35.23Q298.62 36.67 299.56 37.85Q300.50 39.02 302.03 40.08Q303.57 41.14 305.34 42.24L305.34 42.24Q307.02 43.25 308.63 44.45Q310.24 45.65 311.27 47.30Q312.30 48.96 312.30 51.36L312.30 51.36Q312.30 54.19 311.01 56.33Q309.71 58.46 307.36 59.62Q305.01 60.77 301.84 60.77ZM316.38 60.14L316.38 60.14Q315.28 60.14 315.28 59.62L315.28 59.62Q315.28 59.23 315.64 59.11Q316 58.99 316.38 58.85L316.38 58.85Q317.10 58.61 317.78 58.22Q318.45 57.84 318.45 56.88L318.45 56.88L318.45 32.83Q318.45 31.15 317.97 30.38Q317.49 29.62 316.29 29.33L316.29 29.33Q315.86 29.23 315.86 28.70L315.86 28.70Q315.86 28.22 316.24 28.13L316.24 28.13Q317.49 27.84 318.40 27.53Q319.31 27.22 320.06 26.90Q320.80 26.59 321.52 26.30L321.52 26.30Q321.81 26.16 321.95 26.16L321.95 26.16Q322.10 26.16 322.17 26.26Q322.24 26.35 322.24 26.59L322.24 26.59Q322.24 27.07 322.02 28.51Q321.81 29.95 321.81 33.02L321.81 33.02L321.81 48.77Q321.81 49.20 322.05 49.20L322.05 49.20Q322.34 49.20 322.79 48.96Q323.25 48.72 323.78 48.24L323.78 48.24Q325.74 46.56 327.06 45.19Q328.38 43.82 328.86 43.30L328.86 43.30Q329.10 43.01 329.20 42.84Q329.30 42.67 329.30 42.58L329.30 42.58Q329.30 42.34 328.89 42.14Q328.48 41.95 328.05 41.86L328.05 41.86Q327.47 41.71 327.47 41.38L327.47 41.38Q327.47 41.14 327.76 40.97Q328.05 40.80 328.53 40.80L328.53 40.80L330.88 40.80Q331.65 40.80 332.49 40.66Q333.33 40.51 334.07 40.37Q334.82 40.22 335.25 40.22L335.25 40.22Q335.92 40.22 335.92 40.70L335.92 40.70Q335.92 40.99 335.58 41.21Q335.25 41.42 334.72 41.57L334.72 41.57Q333.81 41.81 333.02 42.24Q332.22 42.67 331.55 43.06L331.55 43.06Q331.26 43.25 330.23 44.09Q329.20 44.93 327.88 46.03Q326.56 47.14 325.41 48.14L325.41 48.14Q325.12 48.43 325.12 48.62L325.12 48.62Q325.12 48.67 325.17 48.77Q325.22 48.86 325.26 48.96L325.26 48.96Q326.51 50.50 327.95 52.08Q329.39 53.66 330.62 54.86Q331.84 56.06 332.32 56.54L332.32 56.54Q333.14 57.31 334.17 57.91Q335.20 58.51 335.92 58.75L335.92 58.75Q336.45 58.94 336.90 59.09Q337.36 59.23 337.36 59.62L337.36 59.62Q337.36 60.14 336.40 60.14L336.40 60.14Q334.53 60.14 332.20 60.07Q329.87 60 327.42 60L327.42 60Q326.56 60 326.56 59.57L326.56 59.57Q326.56 59.28 326.80 59.09Q327.04 58.90 327.38 58.80L327.38 58.80Q327.90 58.61 328.29 58.37Q328.67 58.13 328.67 57.70L328.67 57.70Q328.67 57.55 328.58 57.38Q328.48 57.22 328.34 57.02L328.34 57.02L322.53 50.45Q322.24 50.11 322.05 50.11L322.05 50.11Q321.81 50.11 321.81 50.45L321.81 50.45Q321.76 51.12 321.76 51.91Q321.76 52.70 321.76 53.52L321.76 53.52Q321.76 54.34 321.76 55.20Q321.76 56.06 321.81 56.88L321.81 56.88Q321.81 57.84 322.29 58.22Q322.77 58.61 323.49 58.85L323.49 58.85Q323.87 58.99 324.23 59.11Q324.59 59.23 324.59 59.62L324.59 59.62Q324.59 59.95 324.14 60.05Q323.68 60.14 323.49 60.14L323.49 60.14Q322.58 60.14 322.14 60.07Q321.71 60 321.35 59.95Q320.99 59.90 320.13 59.90L320.13 59.90Q319.31 59.90 318.83 59.95Q318.35 60 317.85 60.07Q317.34 60.14 316.38 60.14ZM338.99 60.14L338.99 60.14Q338.56 60.14 338.30 60.02Q338.03 59.90 338.03 59.62L338.03 59.62Q338.03 59.23 338.39 59.09Q338.75 58.94 339.14 58.85L339.14 58.85Q340.14 58.61 340.67 58.25Q341.20 57.89 341.20 57.02L341.20 57.02L341.20 46.61Q341.20 45.31 340.74 44.30Q340.29 43.30 339.04 43.10L339.04 43.10Q338.80 43.06 338.68 42.91Q338.56 42.77 338.56 42.48L338.56 42.48Q338.56 41.95 338.99 41.90L338.99 41.90Q340.91 41.47 342.16 40.73Q343.41 39.98 344.03 39.50L344.03 39.50Q344.46 39.17 344.70 39.17L344.70 39.17Q344.99 39.17 344.99 39.41L344.99 39.41Q344.99 39.79 344.87 40.92Q344.75 42.05 344.66 43.42Q344.56 44.78 344.56 45.89L344.56 45.89L344.56 57.02Q344.56 57.84 345.11 58.22Q345.66 58.61 346.62 58.85L346.62 58.85Q347.01 58.94 347.37 59.09Q347.73 59.23 347.73 59.62L347.73 59.62Q347.73 60.14 346.77 60.14L346.77 60.14Q345.86 60.14 345.30 60.07Q344.75 60 344.25 59.95Q343.74 59.90 342.88 59.90L342.88 59.90Q342.06 59.90 341.54 59.95Q341.01 60 340.48 60.07Q339.95 60.14 338.99 60.14ZM342.83 35.23L342.83 35.23Q341.82 35.23 341.13 34.54Q340.43 33.84 340.43 32.83L340.43 32.83Q340.43 31.78 341.13 31.08Q341.82 30.38 342.83 30.38L342.83 30.38Q343.89 30.38 344.58 31.08Q345.28 31.78 345.28 32.83L345.28 32.83Q345.28 33.84 344.58 34.54Q343.89 35.23 342.83 35.23ZM350.51 60.14L350.51 60.14Q350.27 60.14 349.91 60.07Q349.55 60 349.55 59.71L349.55 59.71Q349.55 59.33 349.91 59.16Q350.27 58.99 350.66 58.85L350.66 58.85Q351.38 58.61 352.05 58.30Q352.72 57.98 352.72 57.02L352.72 57.02L352.72 32.83Q352.72 31.44 352.22 30.50Q351.71 29.57 350.51 29.33L350.51 29.33Q350.13 29.23 350.13 28.70L350.13 28.70Q350.13 28.22 350.46 28.13L350.46 28.13Q351.71 27.84 352.62 27.53Q353.54 27.22 354.33 26.88Q355.12 26.54 355.89 26.26L355.89 26.26Q356.08 26.16 356.18 26.16L356.18 26.16Q356.27 26.16 356.34 26.28Q356.42 26.40 356.42 26.50L356.42 26.50Q356.42 26.93 356.25 28.34Q356.08 29.76 356.08 33.02L356.08 33.02L356.08 57.02Q356.08 57.98 356.75 58.30Q357.42 58.61 358.14 58.85L358.14 58.85Q358.53 58.99 358.89 59.16Q359.25 59.33 359.25 59.71L359.25 59.71Q359.25 60 358.89 60.07Q358.53 60.14 358.29 60.14L358.29 60.14Q357.38 60.14 356.82 60.07Q356.27 60 355.77 59.95Q355.26 59.90 354.40 59.90L354.40 59.90Q353.58 59.90 353.06 59.95Q352.53 60 352 60.07Q351.47 60.14 350.51 60.14ZM362.03 60.14L362.03 60.14Q361.79 60.14 361.43 60.07Q361.07 60 361.07 59.71L361.07 59.71Q361.07 59.33 361.43 59.16Q361.79 58.99 362.18 58.85L362.18 58.85Q362.90 58.61 363.57 58.30Q364.24 57.98 364.24 57.02L364.24 57.02L364.24 32.83Q364.24 31.44 363.74 30.50Q363.23 29.57 362.03 29.33L362.03 29.33Q361.65 29.23 361.65 28.70L361.65 28.70Q361.65 28.22 361.98 28.13L361.98 28.13Q363.23 27.84 364.14 27.53Q365.06 27.22 365.85 26.88Q366.64 26.54 367.41 26.26L367.41 26.26Q367.60 26.16 367.70 26.16L367.70 26.16Q367.79 26.16 367.86 26.28Q367.94 26.40 367.94 26.50L367.94 26.50Q367.94 26.93 367.77 28.34Q367.60 29.76 367.60 33.02L367.60 33.02L367.60 57.02Q367.60 57.98 368.27 58.30Q368.94 58.61 369.66 58.85L369.66 58.85Q370.05 58.99 370.41 59.16Q370.77 59.33 370.77 59.71L370.77 59.71Q370.77 60 370.41 60.07Q370.05 60.14 369.81 60.14L369.81 60.14Q368.90 60.14 368.34 60.07Q367.79 60 367.29 59.95Q366.78 59.90 365.92 59.90L365.92 59.90Q365.10 59.90 364.58 59.95Q364.05 60 363.52 60.07Q362.99 60.14 362.03 60.14ZM378.59 60.67L378.59 60.67Q377.10 60.67 375.81 60.22Q374.51 59.76 373.60 58.94L373.60 58.94Q373.36 58.42 373.24 57.17Q373.12 55.92 373.07 55.10L373.07 55.10Q373.07 54.67 373.70 54.67L373.70 54.67Q373.89 54.67 374.06 54.74Q374.22 54.82 374.27 55.01L374.27 55.01Q374.90 57.36 376.26 58.37Q377.63 59.38 379.02 59.38L379.02 59.38Q380.42 59.38 381.40 58.44Q382.38 57.50 382.38 56.11L382.38 56.11Q382.38 54.82 381.52 53.88Q380.66 52.94 378.50 51.60L378.50 51.60Q376.86 50.59 375.86 49.68Q374.85 48.77 374.39 47.81Q373.94 46.85 373.94 45.65L373.94 45.65Q373.94 44.11 374.66 42.86Q375.38 41.62 376.82 40.87Q378.26 40.13 380.42 40.13L380.42 40.13Q381.86 40.13 382.82 40.42Q383.78 40.70 384.26 41.04L384.26 41.04Q384.64 41.57 384.90 42.70Q385.17 43.82 385.17 44.83L385.17 44.83Q385.17 45.17 384.69 45.17L384.69 45.17Q384.40 45.17 384.14 45.05Q383.87 44.93 383.78 44.74L383.78 44.74Q383.15 43.15 382.22 42.31Q381.28 41.47 379.89 41.47L379.89 41.47Q378.69 41.47 377.75 42.19Q376.82 42.91 376.82 44.30L376.82 44.30Q376.82 45.41 377.51 46.27Q378.21 47.14 380.13 48.24L380.13 48.24Q382.91 49.82 384.28 51.19Q385.65 52.56 385.65 54.82L385.65 54.82Q385.65 57.41 383.68 59.04Q381.71 60.67 378.59 60.67Z"/>
    <!-- Decorative line -->
    <path d="M 100,80 L 750,80" fill="none" stroke="#14b8a6" stroke-width="1" opacity="0.5" />
    <circle cx="750" cy="80" r="3" fill="#14b8a6" opacity="0.8" />
  </svg>