<svg viewBox="0 0 800 120" width="100%" xmlns="http://www.w3.org/2000/svg">
    <rect width="800" height="120" fill="#0d1117" />
    <!-- Decorative magic circle on the left -->
    <g transform="translate(50, 60) rotate(0)">
    <circle cx="0" cy="0" r="40" fill="none" stroke="#14b8a6" stroke-width="1" opacity="0.4" />
    <circle cx="0" cy="0" r="36" fill="none" stroke="#14b8a6" stroke-width="0.5" stroke-dasharray="4 4" opacity="0.6" />
    <circle cx="0" cy="0" r="30" fill="none" stroke="#14b8a6" stroke-width="1" opacity="0.3" />
    <!-- Outer triangles -->
    <polygon points="0,-40 34.64,20 -34.64,20" fill="none" stroke="#14b8a6" stroke-width="0.5" opacity="0.5" />
    <polygon points="0,40 -34.64,-20 34.64,-20" fill="none" stroke="#14b8a6" stroke-width="0.5" opacity="0.5" />
    <!-- Inner square -->
    <rect x="-21.200000000000003" y="-21.200000000000003" width="42.400000000000006" height="42.400000000000006" fill="none" stroke="#14b8a6" stroke-width="0.5" opacity="0.4" transform="rotate(45)" />
    <!-- Central dot -->
    <circle cx="0" cy="0" r="2" fill="#14b8a6" opacity="0.8" />
  </g>
    <!-- The text -->
    <path fill="#e2e8f0" d="M110.27 60.24L110.27 60.24Q109.65 60.24 109.26 60.12Q108.88 60 108.88 59.71L108.88 59.71Q108.88 59.38 109.26 59.18Q109.65 58.99 110.46 58.85L110.46 58.85Q112.29 58.51 113.25 57.67Q114.21 56.83 114.21 55.10L114.21 55.10L114.21 36.48Q114.21 34.27 114.11 33.10Q114.02 31.92 113.80 31.44Q113.58 30.96 113.20 30.91L113.20 30.91Q112.53 30.77 111.78 30.74Q111.04 30.72 109.79 30.72L109.79 30.72L107.54 30.72Q106.38 30.72 105.26 31.18Q104.13 31.63 103.60 32.59L103.60 32.59Q103.46 32.83 103.12 33.29Q102.78 33.74 102.40 34.08Q102.02 34.42 101.63 34.42L101.63 34.42Q101.44 34.42 101.37 34.22Q101.30 34.03 101.30 33.79L101.30 33.79Q101.30 33.31 101.54 32.83L101.54 32.83Q102.21 31.44 102.52 30.36Q102.83 29.28 103.02 27.79L103.02 27.79Q103.12 26.98 103.38 26.83Q103.65 26.69 103.84 26.69L103.84 26.69Q104.03 26.69 104.44 27.26Q104.85 27.84 105.04 28.22L105.04 28.22Q105.33 28.70 106.36 28.94Q107.39 29.18 108.40 29.18L108.40 29.18L125.30 29.18Q126.98 29.18 128.03 28.99Q129.09 28.80 129.86 28.46L129.86 28.46Q130.43 28.18 130.79 27.84Q131.15 27.50 131.73 27.50L131.73 27.50Q131.87 27.50 131.97 27.86Q132.06 28.22 132.06 28.61L132.06 28.61Q132.06 28.85 131.99 29.28Q131.92 29.71 131.87 29.95L131.87 29.95Q131.73 30.82 131.61 31.20Q131.49 31.58 131.44 31.87Q131.39 32.16 131.39 32.78L131.39 32.78L131.39 33.36Q131.39 33.79 131.20 34.34Q131.01 34.90 130.62 34.90L130.62 34.90Q130.29 34.90 130.10 34.37Q129.90 33.84 129.71 32.93L129.71 32.93Q129.52 31.92 128.56 31.32Q127.60 30.72 125.30 30.72L125.30 30.72L120.45 30.72Q119.39 30.72 118.86 31.01Q118.34 31.30 118.19 32.45Q118.05 33.60 118.05 36.24L118.05 36.24L118.05 55.10Q118.05 56.83 119.06 57.67Q120.06 58.51 121.84 58.85L121.84 58.85Q122.66 58.99 123.04 59.18Q123.42 59.38 123.42 59.71L123.42 59.71Q123.42 60 123.04 60.12Q122.66 60.24 122.03 60.24L122.03 60.24Q120.74 60.24 119.90 60.17Q119.06 60.10 118.29 60.05Q117.52 60 116.42 60L116.42 60Q115.22 60 114.33 60.05Q113.44 60.10 112.50 60.17Q111.57 60.24 110.27 60.24ZM134.03 60.14L134.03 60.14Q133.07 60.14 133.07 59.62L133.07 59.62Q133.07 59.18 134.18 58.85L134.18 58.85Q134.90 58.61 135.54 58.22Q136.19 57.84 136.24 56.88L136.24 56.88L136.24 32.83Q136.24 31.54 135.81 30.55Q135.38 29.57 134.13 29.38L134.13 29.38Q133.70 29.28 133.70 28.70L133.70 28.70Q133.70 28.27 134.08 28.13L134.08 28.13Q134.75 27.89 135.69 27.60Q136.62 27.31 137.63 26.95Q138.64 26.59 139.41 26.26L139.41 26.26Q139.60 26.16 139.70 26.16L139.70 26.16Q139.84 26.16 139.94 26.26Q140.03 26.35 140.03 26.50L140.03 26.50Q140.03 26.78 139.91 27.31Q139.79 27.84 139.70 29.14Q139.60 30.43 139.60 33.02L139.60 33.02L139.60 41.38Q139.60 42.14 139.67 42.48Q139.74 42.82 139.94 43.15L139.94 43.15Q140.70 42.58 141.83 41.88Q142.96 41.18 144.35 40.66Q145.74 40.13 147.23 40.13L147.23 40.13Q149.58 40.13 151.14 41.98Q152.70 43.82 152.70 46.66L152.70 46.66L152.70 56.74Q152.70 57.70 153.33 58.15Q153.95 58.61 154.67 58.85L154.67 58.85Q155.20 58.99 155.49 59.16Q155.78 59.33 155.78 59.62L155.78 59.62Q155.78 60.14 154.82 60.14L154.82 60.14Q153.86 60.14 153.35 60.07Q152.85 60 152.39 59.95Q151.94 59.90 151.07 59.90L151.07 59.90Q150.26 59.90 149.78 59.95Q149.30 60 148.79 60.07Q148.29 60.14 147.33 60.14L147.33 60.14Q146.37 60.14 146.37 59.62L146.37 59.62Q146.37 59.28 146.66 59.16Q146.94 59.04 147.47 58.85L147.47 58.85Q148.19 58.61 148.77 58.15Q149.34 57.70 149.34 56.74L149.34 56.74L149.34 46.94Q149.34 45.74 148.65 44.76Q147.95 43.78 146.94 43.20Q145.94 42.62 144.88 42.62L144.88 42.62Q143.97 42.62 142.77 42.89Q141.57 43.15 140.90 43.68L140.90 43.68Q140.13 44.30 139.86 44.98Q139.60 45.65 139.60 47.14L139.60 47.14L139.60 56.88Q139.65 57.84 140.20 58.22Q140.75 58.61 141.47 58.85L141.47 58.85Q142 58.99 142.26 59.16Q142.53 59.33 142.53 59.62L142.53 59.62Q142.53 60.14 141.57 60.14L141.57 60.14Q140.61 60.14 140.13 60.07Q139.65 60 139.22 59.95Q138.78 59.90 137.92 59.90L137.92 59.90Q137.10 59.90 136.60 59.95Q136.10 60 135.54 60.07Q134.99 60.14 134.03 60.14ZM167.10 60.72L167.10 60.72Q164.46 60.72 162.50 59.42Q160.53 58.13 159.42 55.75Q158.32 53.38 158.32 50.26L158.32 50.26Q158.32 47.47 159.59 45.19Q160.86 42.91 162.98 41.52Q165.09 40.13 167.58 40.13L167.58 40.13Q169.50 40.13 170.99 40.90Q172.48 41.66 173.32 43.03Q174.16 44.40 174.16 46.18L174.16 46.18Q174.16 47.66 172.72 47.66L172.72 47.66L162.59 47.66Q161.92 47.66 161.66 48.02Q161.39 48.38 161.39 49.44L161.39 49.44Q161.39 51.74 162.40 53.64Q163.41 55.54 165.09 56.66Q166.77 57.79 168.78 57.79L168.78 57.79Q170.22 57.79 171.40 57.24Q172.58 56.69 173.49 55.63L173.49 55.63Q173.68 55.39 173.78 55.32Q173.87 55.25 174.02 55.25L174.02 55.25Q174.40 55.25 174.40 55.73L174.40 55.73Q174.40 56.64 173.54 57.74L173.54 57.74Q172.82 58.66 171.81 59.33Q170.80 60 169.60 60.36Q168.40 60.72 167.10 60.72ZM162.69 46.18L162.69 46.18L167.06 46.18Q168.21 46.18 169.02 46.13Q169.84 46.08 170.61 45.94L170.61 45.94Q170.85 45.89 170.92 45.62Q170.99 45.36 170.99 44.88L170.99 44.88Q170.99 43.49 169.77 42.50Q168.54 41.52 166.86 41.52L166.86 41.52Q165.76 41.52 164.66 42.17Q163.55 42.82 162.83 43.78Q162.11 44.74 162.11 45.70L162.11 45.70Q162.11 46.18 162.69 46.18ZM186.83 69.60L186.83 69.60Q181.89 69.60 181.89 67.25L181.89 67.25Q181.89 66.43 182.56 65.71Q183.23 64.99 183.76 64.99L183.76 64.99Q184.38 64.99 184.96 65.26Q185.54 65.52 186.02 66.19L186.02 66.19Q186.64 66.96 187.14 67.30Q187.65 67.63 188.27 67.63L188.27 67.63Q189.95 67.63 190.70 65.59Q191.44 63.55 191.44 60.05L191.44 60.05L191.44 33.55Q191.44 31.87 190.72 31.18Q190 30.48 188.27 30.14L188.27 30.14Q186.69 29.86 186.69 29.18L186.69 29.18Q186.69 28.90 187.07 28.78Q187.46 28.66 188.08 28.66L188.08 28.66Q189.38 28.66 190.22 28.70Q191.06 28.75 191.82 28.78Q192.59 28.80 193.70 28.80L193.70 28.80Q194.61 28.80 195.11 28.78Q195.62 28.75 196.26 28.70Q196.91 28.66 198.21 28.66L198.21 28.66Q198.83 28.66 199.22 28.78Q199.60 28.90 199.60 29.18L199.60 29.18Q199.60 29.52 199.22 29.76Q198.83 30 198.02 30.14L198.02 30.14Q196.24 30.48 195.76 31.18Q195.28 31.87 195.28 33.55L195.28 33.55L195.28 57.74Q195.28 59.76 194.66 61.54Q194.03 63.31 193.14 64.70Q192.26 66.10 191.49 67.01L191.49 67.01Q190.53 68.16 189.38 68.88Q188.22 69.60 186.83 69.60ZM212.75 60.67L212.75 60.67Q210.06 60.67 207.90 59.42Q205.74 58.18 204.47 55.99Q203.20 53.81 203.20 51.02L203.20 51.02Q203.20 49.01 203.99 47.09Q204.78 45.17 206.22 43.58Q207.66 42 209.58 41.06Q211.50 40.13 213.71 40.13L213.71 40.13Q216.50 40.13 218.73 41.47Q220.96 42.82 222.28 45Q223.60 47.18 223.60 49.78L223.60 49.78Q223.60 52.56 222.38 55.06Q221.15 57.55 218.75 59.11Q216.35 60.67 212.75 60.67ZM213.76 59.23L213.76 59.23Q215.39 59.23 216.69 58.61Q217.98 57.98 218.70 56.59L218.70 56.59Q219.28 55.49 219.47 53.90Q219.66 52.32 219.66 50.93L219.66 50.93Q219.66 48.62 218.82 46.49Q217.98 44.35 216.47 42.98Q214.96 41.62 212.90 41.62L212.90 41.62Q211.60 41.62 210.57 42.02Q209.54 42.43 208.67 43.54L208.67 43.54Q207.71 44.74 207.42 46.46Q207.14 48.19 207.14 49.92L207.14 49.92Q207.14 52.27 208.00 54.41Q208.86 56.54 210.35 57.89Q211.84 59.23 213.76 59.23ZM242.85 60.91L242.85 60.91Q242.51 60.91 242.51 60.53L242.51 60.53Q242.51 60.05 242.63 59.11Q242.75 58.18 242.75 57.55L242.75 57.55Q242.75 57.46 242.75 57.38Q242.75 57.31 242.75 57.26L242.75 57.26Q240.88 59.09 238.98 59.88Q237.09 60.67 234.83 60.67L234.83 60.67Q233.30 60.67 232.05 60.02Q230.80 59.38 230.08 58.10Q229.36 56.83 229.36 54.96L229.36 54.96L229.36 45.22Q229.36 44.16 228.88 43.54Q228.40 42.91 227.30 42.48L227.30 42.48Q227.06 42.38 226.86 42.24Q226.67 42.10 226.67 41.71L226.67 41.71Q226.67 41.28 226.89 41.14Q227.10 40.99 227.39 40.94L227.39 40.94Q229.02 40.85 229.91 40.68Q230.80 40.51 232.14 40.18L232.14 40.18Q232.29 40.13 232.36 40.13Q232.43 40.13 232.53 40.13L232.53 40.13Q233.06 40.13 233.01 40.80L233.01 40.80Q232.86 41.90 232.79 42.65Q232.72 43.39 232.72 44.50L232.72 44.50L232.72 53.86Q232.72 55.01 233.30 55.99Q233.87 56.98 234.81 57.60Q235.74 58.22 236.75 58.22L236.75 58.22Q238.00 58.22 238.94 58.08Q239.87 57.94 240.78 57.26L240.78 57.26Q241.31 56.88 242.13 56.02Q242.94 55.15 242.94 53.66L242.94 53.66L242.94 44.88Q242.94 43.87 242.34 43.37Q241.74 42.86 240.98 42.67Q240.21 42.48 239.73 42.48L239.73 42.48Q239.30 42.48 239.01 42.31Q238.72 42.14 238.72 41.66L238.72 41.66Q238.72 41.23 239.03 41.09Q239.34 40.94 239.73 40.94L239.73 40.94Q241.22 40.90 242.20 40.82Q243.18 40.75 243.98 40.58Q244.77 40.42 245.63 40.18L245.63 40.18Q245.73 40.13 245.87 40.10Q246.02 40.08 246.11 40.08L246.11 40.08Q246.74 40.08 246.74 40.61L246.74 40.61Q246.74 40.66 246.71 40.78Q246.69 40.90 246.64 41.04L246.64 41.04Q246.59 41.18 246.52 41.86Q246.45 42.53 246.38 43.25Q246.30 43.97 246.30 44.35L246.30 44.35L246.30 55.44Q246.30 56.74 246.57 57.29Q246.83 57.84 247.17 57.84L247.17 57.84Q247.55 57.84 248.30 57.77Q249.04 57.70 249.38 57.70L249.38 57.70Q249.62 57.70 249.86 57.79Q250.10 57.89 250.10 58.32L250.10 58.32Q250.10 58.70 249.90 58.82Q249.71 58.94 249.42 58.99L249.42 58.99Q247.55 59.23 246.21 59.71Q244.86 60.19 243.81 60.62L243.81 60.62Q243.66 60.67 243.38 60.79Q243.09 60.91 242.85 60.91ZM252.93 60.14L252.93 60.14Q252.45 60.14 252.21 60.02Q251.97 59.90 251.97 59.62L251.97 59.62Q251.97 59.23 252.26 59.11Q252.54 58.99 253.07 58.85L253.07 58.85Q253.98 58.61 254.44 58.15Q254.90 57.70 254.90 57.02L254.90 57.02L254.90 46.70Q254.90 45.41 254.51 44.45Q254.13 43.49 252.93 43.25L252.93 43.25Q252.74 43.20 252.59 43.01Q252.45 42.82 252.45 42.62L252.45 42.62Q252.45 42.14 252.88 42.05L252.88 42.05Q254.13 41.66 255.50 40.92Q256.86 40.18 257.63 39.70L257.63 39.70Q257.92 39.50 258.09 39.43Q258.26 39.36 258.35 39.36L258.35 39.36Q258.59 39.36 258.59 39.70L258.59 39.70Q258.59 39.84 258.57 40.42Q258.54 40.99 258.52 41.76Q258.50 42.53 258.45 43.30L258.45 43.30Q258.45 43.39 258.54 43.39L258.54 43.39Q259.31 42.43 260.25 41.71Q261.18 40.99 262.17 40.56Q263.15 40.13 264.06 40.13L264.06 40.13Q265.07 40.13 265.72 40.56Q266.37 40.99 266.37 41.66L266.37 41.66Q266.37 42.14 266.10 42.72Q265.84 43.30 265.41 43.73Q264.98 44.16 264.50 44.16L264.50 44.16Q264.21 44.16 263.87 44.04Q263.54 43.92 263.15 43.73L263.15 43.73Q262.77 43.58 262.38 43.44Q262.00 43.30 261.62 43.30L261.62 43.30Q260.46 43.30 259.38 44.11Q258.30 44.93 258.30 47.33L258.30 47.33L258.30 57.02Q258.30 57.65 258.98 58.06Q259.65 58.46 260.85 58.85L260.85 58.85Q261.38 58.99 261.66 59.14Q261.95 59.28 261.95 59.62L261.95 59.62Q261.95 60.14 260.99 60.14L260.99 60.14Q259.55 60.14 258.81 60.02Q258.06 59.90 256.82 59.90L256.82 59.90Q256.00 59.90 255.50 59.95Q254.99 60 254.44 60.07Q253.89 60.14 252.93 60.14ZM268.72 60.14L268.72 60.14Q268.29 60.14 268.02 60.02Q267.76 59.90 267.76 59.62L267.76 59.62Q267.76 59.23 268.05 59.11Q268.34 58.99 268.86 58.85L268.86 58.85Q269.58 58.66 270.26 58.32Q270.93 57.98 270.93 57.02L270.93 57.02L270.93 46.70Q270.93 45.41 270.66 44.50Q270.40 43.58 269.15 43.25L269.15 43.25Q268.96 43.15 268.82 43.03Q268.67 42.91 268.67 42.62L268.67 42.62Q268.67 42.10 269.10 42.05L269.10 42.05Q270.78 41.62 271.84 40.99Q272.90 40.37 273.90 39.60L273.90 39.60Q274.05 39.50 274.17 39.43Q274.29 39.36 274.43 39.36L274.43 39.36Q274.53 39.36 274.60 39.46Q274.67 39.55 274.67 39.70L274.67 39.70Q274.67 40.03 274.55 41.06Q274.43 42.10 274.43 42.77L274.43 42.77Q274.43 42.96 274.46 43.13Q274.48 43.30 274.53 43.34L274.53 43.34Q276.21 41.76 278.10 40.94Q280.00 40.13 282.26 40.13L282.26 40.13Q284.61 40.13 286.14 42.05Q287.68 43.97 287.68 46.80L287.68 46.80L287.68 57.02Q287.68 57.98 288.35 58.30Q289.02 58.61 289.74 58.85L289.74 58.85Q290.13 58.99 290.49 59.16Q290.85 59.33 290.85 59.71L290.85 59.71Q290.85 60 290.51 60.07Q290.18 60.14 289.89 60.14L289.89 60.14Q288.93 60.14 288.40 60.07Q287.87 60 287.39 59.95Q286.91 59.90 286.05 59.90L286.05 59.90Q285.23 59.90 284.70 59.95Q284.18 60 283.62 60.07Q283.07 60.14 282.11 60.14L282.11 60.14Q281.87 60.14 281.51 60.07Q281.15 60 281.15 59.71L281.15 59.71Q281.15 59.33 281.51 59.16Q281.87 58.99 282.26 58.85L282.26 58.85Q282.98 58.61 283.65 58.30Q284.32 57.98 284.32 57.02L284.32 57.02L284.32 46.94Q284.32 44.83 283.14 43.66Q281.97 42.48 280.00 42.43L280.00 42.43Q278.27 42.43 276.98 42.98Q275.68 43.54 274.67 44.35L274.67 44.35Q274.48 44.54 274.38 44.86Q274.29 45.17 274.29 45.46L274.29 45.46L274.29 57.02Q274.29 57.98 274.96 58.32Q275.63 58.66 276.35 58.85L276.35 58.85Q277.46 59.14 277.46 59.62L277.46 59.62Q277.46 59.90 277.22 60.02Q276.98 60.14 276.50 60.14L276.50 60.14Q275.54 60.14 274.98 60.07Q274.43 60 273.95 59.95Q273.47 59.90 272.61 59.90L272.61 59.90Q271.79 59.90 271.29 59.95Q270.78 60 270.23 60.07Q269.68 60.14 268.72 60.14ZM302.18 60.72L302.18 60.72Q299.54 60.72 297.57 59.42Q295.60 58.13 294.50 55.75Q293.39 53.38 293.39 50.26L293.39 50.26Q293.39 47.47 294.66 45.19Q295.94 42.91 298.05 41.52Q300.16 40.13 302.66 40.13L302.66 40.13Q304.58 40.13 306.06 40.90Q307.55 41.66 308.39 43.03Q309.23 44.40 309.23 46.18L309.23 46.18Q309.23 47.66 307.79 47.66L307.79 47.66L297.66 47.66Q296.99 47.66 296.73 48.02Q296.46 48.38 296.46 49.44L296.46 49.44Q296.46 51.74 297.47 53.64Q298.48 55.54 300.16 56.66Q301.84 57.79 303.86 57.79L303.86 57.79Q305.30 57.79 306.47 57.24Q307.65 56.69 308.56 55.63L308.56 55.63Q308.75 55.39 308.85 55.32Q308.94 55.25 309.09 55.25L309.09 55.25Q309.47 55.25 309.47 55.73L309.47 55.73Q309.47 56.64 308.61 57.74L308.61 57.74Q307.89 58.66 306.88 59.33Q305.87 60 304.67 60.36Q303.47 60.72 302.18 60.72ZM297.76 46.18L297.76 46.18L302.13 46.18Q303.28 46.18 304.10 46.13Q304.91 46.08 305.68 45.94L305.68 45.94Q305.92 45.89 305.99 45.62Q306.06 45.36 306.06 44.88L306.06 44.88Q306.06 43.49 304.84 42.50Q303.62 41.52 301.94 41.52L301.94 41.52Q300.83 41.52 299.73 42.17Q298.62 42.82 297.90 43.78Q297.18 44.74 297.18 45.70L297.18 45.70Q297.18 46.18 297.76 46.18ZM313.74 73.68L313.74 73.68Q312.83 73.68 312.06 73.22Q311.30 72.77 311.30 71.71L311.30 71.71Q311.30 70.85 311.70 70.20Q312.11 69.55 312.88 69.55L312.88 69.55Q313.41 69.55 313.91 69.70Q314.42 69.84 314.80 69.84L314.80 69.84Q315.09 69.84 315.30 69.72Q315.52 69.60 315.71 69.31L315.71 69.31Q316.24 68.45 316.94 67.15Q317.63 65.86 318.38 64.22Q319.12 62.59 319.79 60.77L319.79 60.77Q319.94 60.34 319.94 59.66L319.94 59.66Q319.94 59.28 319.89 58.92Q319.84 58.56 319.74 58.27L319.74 58.27L314.18 44.21Q313.84 43.34 313.29 42.70Q312.74 42.05 312.02 41.86L312.02 41.86Q311.63 41.71 311.27 41.52Q310.91 41.33 310.91 40.99L310.91 40.99Q310.91 40.70 311.27 40.63Q311.63 40.56 311.87 40.56L311.87 40.56Q312.83 40.56 313.29 40.61Q313.74 40.66 314.15 40.73Q314.56 40.80 315.38 40.80L315.38 40.80Q316.24 40.80 316.67 40.73Q317.10 40.66 317.58 40.61Q318.06 40.56 319.02 40.56L319.02 40.56Q319.31 40.56 319.65 40.68Q319.98 40.80 319.98 41.09L319.98 41.09Q319.98 41.42 319.48 41.74Q318.98 42.05 318.59 42.14L318.59 42.14Q318.11 42.29 317.87 42.65Q317.63 43.01 317.63 43.68L317.63 43.68Q317.63 43.97 317.78 44.38Q317.92 44.78 318.02 45.02L318.02 45.02L321.90 54.62Q322.00 54.91 322.19 54.91L322.19 54.91Q322.34 54.91 322.43 54.62L322.43 54.62L325.74 45.84Q325.89 45.50 326.01 44.95Q326.13 44.40 326.13 44.06L326.13 44.06Q326.13 43.15 325.86 42.79Q325.60 42.43 325.17 42.24L325.17 42.24Q324.78 42.05 324.28 41.74Q323.78 41.42 323.78 41.09L323.78 41.09Q323.78 40.80 324.14 40.68Q324.50 40.56 324.74 40.56L324.74 40.56Q325.41 40.56 326.10 40.68Q326.80 40.80 328.14 40.80L328.14 40.80Q329.06 40.80 329.46 40.73Q329.87 40.66 330.16 40.61Q330.45 40.56 330.98 40.56L330.98 40.56Q331.22 40.56 331.58 40.63Q331.94 40.70 331.94 40.99L331.94 40.99Q331.94 41.33 331.58 41.52Q331.22 41.71 330.83 41.86L330.83 41.86Q330.11 42.05 329.30 42.98Q328.48 43.92 328.00 45.07L328.00 45.07L321.47 60.62Q321.42 60.77 320.97 61.87Q320.51 62.98 319.84 64.61Q319.17 66.24 318.38 68.11Q317.58 69.98 316.86 71.71L316.86 71.71Q316.43 72.67 315.62 73.18Q314.80 73.68 313.74 73.68ZM351.09 60.77L351.09 60.77Q349.07 60.77 347.37 60.17Q345.66 59.57 344.32 58.46L344.32 58.46Q344.13 58.27 343.96 58.03Q343.79 57.79 343.70 57.50L343.70 57.50Q343.46 56.54 343.38 55.01Q343.31 53.47 343.22 52.46L343.22 52.46Q343.22 52.13 343.50 51.96Q343.79 51.79 344.18 51.79L344.18 51.79Q344.42 51.79 344.66 51.91Q344.90 52.03 344.94 52.32L344.94 52.32Q345.90 56.02 347.80 57.60Q349.70 59.18 351.76 59.18L351.76 59.18Q353.44 59.18 354.74 58.46Q356.03 57.74 356.78 56.42Q357.52 55.10 357.52 53.33L357.52 53.33Q357.52 51.36 356.87 50.14Q356.22 48.91 355.02 48Q353.82 47.09 352.10 46.03L352.10 46.03Q350.22 44.83 348.40 43.61Q346.58 42.38 345.38 40.78Q344.18 39.17 344.18 36.86L344.18 36.86Q344.18 34.42 345.28 32.45Q346.38 30.48 348.62 29.30Q350.85 28.13 354.21 28.13L354.21 28.13Q355.94 28.13 357.21 28.49Q358.48 28.85 359.25 29.18L359.25 29.18Q359.63 29.33 359.90 29.66Q360.16 30 360.26 30.38L360.26 30.38Q360.54 31.39 360.88 32.69Q361.22 33.98 361.22 35.14L361.22 35.14Q361.22 35.66 360.50 35.66L360.50 35.66Q360.06 35.66 359.66 35.47Q359.25 35.28 359.15 34.99L359.15 34.99Q358.14 32.45 356.80 31.10Q355.46 29.76 353.39 29.76L353.39 29.76Q351.95 29.76 350.70 30.29Q349.46 30.82 348.66 32.02Q347.87 33.22 347.87 35.23L347.87 35.23Q347.87 36.67 348.81 37.85Q349.74 39.02 351.28 40.08Q352.82 41.14 354.59 42.24L354.59 42.24Q356.27 43.25 357.88 44.45Q359.49 45.65 360.52 47.30Q361.55 48.96 361.55 51.36L361.55 51.36Q361.55 54.19 360.26 56.33Q358.96 58.46 356.61 59.62Q354.26 60.77 351.09 60.77ZM374.85 60.67L374.85 60.67Q372.16 60.67 370.00 59.42Q367.84 58.18 366.57 55.99Q365.30 53.81 365.30 51.02L365.30 51.02Q365.30 49.01 366.09 47.09Q366.88 45.17 368.32 43.58Q369.76 42 371.68 41.06Q373.60 40.13 375.81 40.13L375.81 40.13Q378.59 40.13 380.82 41.47Q383.06 42.82 384.38 45Q385.70 47.18 385.70 49.78L385.70 49.78Q385.70 52.56 384.47 55.06Q383.25 57.55 380.85 59.11Q378.45 60.67 374.85 60.67ZM375.86 59.23L375.86 59.23Q377.49 59.23 378.78 58.61Q380.08 57.98 380.80 56.59L380.80 56.59Q381.38 55.49 381.57 53.90Q381.76 52.32 381.76 50.93L381.76 50.93Q381.76 48.62 380.92 46.49Q380.08 44.35 378.57 42.98Q377.06 41.62 374.99 41.62L374.99 41.62Q373.70 41.62 372.66 42.02Q371.63 42.43 370.77 43.54L370.77 43.54Q369.81 44.74 369.52 46.46Q369.23 48.19 369.23 49.92L369.23 49.92Q369.23 52.27 370.10 54.41Q370.96 56.54 372.45 57.89Q373.94 59.23 375.86 59.23ZM399.81 60.24L399.81 60.24Q399.18 60.24 398.80 60.12Q398.42 60 398.42 59.71L398.42 59.71Q398.42 59.14 400.00 58.85L400.00 58.85Q401.82 58.51 402.52 57.74Q403.22 56.98 403.22 55.20L403.22 55.20L403.22 34.94Q403.22 32.78 402.66 31.63Q402.11 30.48 400.29 30.14L400.29 30.14Q399.47 30 399.09 29.76Q398.70 29.52 398.70 29.18L398.70 29.18Q398.70 28.90 399.09 28.78Q399.47 28.66 400.10 28.66L400.10 28.66Q401.87 28.66 403.10 28.70Q404.32 28.75 405.52 28.78Q406.72 28.80 408.35 28.80L408.35 28.80Q409.74 28.80 411.33 28.80Q412.91 28.80 414.40 28.80L414.40 28.80Q415.94 28.80 417.11 28.56Q418.29 28.32 419.15 28.32L419.15 28.32Q419.39 28.32 419.68 28.42Q419.97 28.51 420.02 28.75L420.02 28.75Q420.11 29.28 420.16 30.31Q420.21 31.34 420.23 32.30Q420.26 33.26 420.26 33.60L420.26 33.60Q420.26 34.61 419.82 34.61L419.82 34.61Q419.58 34.61 419.39 34.44Q419.20 34.27 419.10 34.03L419.10 34.03Q418.91 33.22 418.62 32.62Q418.34 32.02 418.00 31.68L418.00 31.68Q417.33 30.91 416.51 30.65Q415.70 30.38 414.78 30.38L414.78 30.38L408.69 30.38Q407.58 30.38 407.34 31.10Q407.10 31.82 407.06 32.78L407.06 32.78Q407.01 33.70 407.01 35.02Q407.01 36.34 407.01 37.58L407.01 37.58Q407.01 38.78 407.01 40.03Q407.01 41.28 407.06 42.14L407.06 42.14Q407.06 42.53 407.13 42.86Q407.20 43.20 407.54 43.20L407.54 43.20Q409.07 43.20 410.66 43.13Q412.24 43.06 413.10 43.06L413.10 43.06Q414.16 43.06 414.93 42.48Q415.70 41.90 416.03 41.09L416.03 41.09Q416.13 40.90 416.42 40.58Q416.70 40.27 416.90 40.27L416.90 40.27Q417.09 40.27 417.33 40.49Q417.57 40.70 417.52 41.04L417.52 41.04Q417.47 41.86 417.42 42.48Q417.38 43.10 417.38 43.68L417.38 43.68Q417.38 44.40 417.42 45.14Q417.47 45.89 417.52 46.94L417.52 46.94Q417.52 47.28 417.45 47.52Q417.38 47.76 417.09 47.76L417.09 47.76Q416.61 47.76 416.34 47.33Q416.08 46.90 415.98 46.66L415.98 46.66Q415.65 45.55 414.98 45.14Q414.30 44.74 413.73 44.74L413.73 44.74Q413.10 44.74 412.50 44.71Q411.90 44.69 411.33 44.69L411.33 44.69Q410.51 44.69 409.74 44.69Q408.98 44.69 408.21 44.78L408.21 44.78Q407.73 44.83 407.39 45.10Q407.06 45.36 407.06 45.98L407.06 45.98Q407.06 48.19 407.08 50.47Q407.10 52.75 407.20 55.15L407.20 55.15Q407.30 56.69 407.94 57.60Q408.59 58.51 410.37 58.85L410.37 58.85Q411.18 58.99 411.57 59.18Q411.95 59.38 411.95 59.71L411.95 59.71Q411.95 60 411.57 60.12Q411.18 60.24 410.56 60.24L410.56 60.24Q409.26 60.24 408.57 60.14Q407.87 60.05 407.32 59.98Q406.77 59.90 405.86 59.90L405.86 59.90Q404.70 59.90 403.82 59.98Q402.93 60.05 402.02 60.14Q401.10 60.24 399.81 60.24ZM427.17 60.67L427.17 60.67Q426.30 60.67 425.42 60Q424.53 59.33 423.93 58.37Q423.33 57.41 423.33 56.54L423.33 56.54Q423.33 55.01 424.14 54.14Q424.96 53.28 426.74 52.56L426.74 52.56L431.63 50.54Q432.59 50.16 432.76 49.87Q432.93 49.58 432.98 48.62L432.98 48.62L433.07 45.55Q433.12 44.30 432.38 43.39Q431.63 42.48 430.24 42.48L430.24 42.48Q429.52 42.48 428.80 42.72Q428.08 42.96 427.60 43.34L427.60 43.34Q427.31 43.54 427.22 43.92Q427.12 44.30 427.12 44.74L427.12 44.74Q427.12 44.93 427.14 45.17Q427.17 45.41 427.17 45.60L427.17 45.60Q427.17 45.84 426.57 46.25Q425.97 46.66 425.22 46.97Q424.48 47.28 424.00 47.28L424.00 47.28Q423.76 47.28 423.62 47.16Q423.47 47.04 423.47 46.85L423.47 46.85Q423.47 46.08 423.98 45.19Q424.48 44.30 425.39 43.54L425.39 43.54Q426.50 42.53 427.79 41.76Q429.09 40.99 430.34 40.56Q431.58 40.13 432.54 40.13L432.54 40.13Q434.27 40.13 435.40 41.35Q436.53 42.58 436.48 44.40L436.48 44.40L436.24 55.92Q436.19 56.93 436.70 57.55Q437.20 58.18 437.97 58.18L437.97 58.18Q439.17 58.18 439.74 57.65L439.74 57.65Q439.98 57.41 440.13 57.41L440.13 57.41Q440.37 57.41 440.51 57.55Q440.66 57.70 440.66 57.94L440.66 57.94Q440.66 58.46 440.13 58.99L440.13 58.99Q439.36 59.76 438.47 60.22Q437.58 60.67 436.82 60.67L436.82 60.67Q434.61 60.67 433.31 58.18L433.31 58.18L433.17 58.18Q431.58 59.47 430.14 60.07Q428.70 60.67 427.17 60.67ZM429.42 58.37L429.42 58.37Q430.38 58.37 431.06 58.06Q431.73 57.74 432.26 57.22L432.26 57.22Q432.50 56.98 432.66 56.57Q432.83 56.16 432.88 55.25L432.88 55.25L432.98 52.90Q433.02 52.37 432.93 52.13Q432.83 51.89 432.54 51.89L432.54 51.89Q432.45 51.89 432.21 51.94Q431.97 51.98 431.58 52.13L431.58 52.13Q429.04 53.04 428.06 54.02Q427.07 55.01 427.07 55.82L427.07 55.82Q427.07 57.07 427.82 57.72Q428.56 58.37 429.42 58.37ZM443.06 60.14L443.06 60.14Q442.58 60.14 442.34 60.02Q442.10 59.90 442.10 59.62L442.10 59.62Q442.10 59.23 442.38 59.11Q442.67 58.99 443.20 58.85L443.20 58.85Q444.11 58.61 444.57 58.15Q445.02 57.70 445.02 57.02L445.02 57.02L445.02 46.70Q445.02 45.41 444.64 44.45Q444.26 43.49 443.06 43.25L443.06 43.25Q442.86 43.20 442.72 43.01Q442.58 42.82 442.58 42.62L442.58 42.62Q442.58 42.14 443.01 42.05L443.01 42.05Q444.26 41.66 445.62 40.92Q446.99 40.18 447.76 39.70L447.76 39.70Q448.05 39.50 448.22 39.43Q448.38 39.36 448.48 39.36L448.48 39.36Q448.72 39.36 448.72 39.70L448.72 39.70Q448.72 39.84 448.70 40.42Q448.67 40.99 448.65 41.76Q448.62 42.53 448.58 43.30L448.58 43.30Q448.58 43.39 448.67 43.39L448.67 43.39Q449.44 42.43 450.38 41.71Q451.31 40.99 452.30 40.56Q453.28 40.13 454.19 40.13L454.19 40.13Q455.20 40.13 455.85 40.56Q456.50 40.99 456.50 41.66L456.50 41.66Q456.50 42.14 456.23 42.72Q455.97 43.30 455.54 43.73Q455.10 44.16 454.62 44.16L454.62 44.16Q454.34 44.16 454.00 44.04Q453.66 43.92 453.28 43.73L453.28 43.73Q452.90 43.58 452.51 43.44Q452.13 43.30 451.74 43.30L451.74 43.30Q450.59 43.30 449.51 44.11Q448.43 44.93 448.43 47.33L448.43 47.33L448.43 57.02Q448.43 57.65 449.10 58.06Q449.78 58.46 450.98 58.85L450.98 58.85Q451.50 58.99 451.79 59.14Q452.08 59.28 452.08 59.62L452.08 59.62Q452.08 60.14 451.12 60.14L451.12 60.14Q449.68 60.14 448.94 60.02Q448.19 59.90 446.94 59.90L446.94 59.90Q446.13 59.90 445.62 59.95Q445.12 60 444.57 60.07Q444.02 60.14 443.06 60.14Z"/>
    <!-- Decorative line -->
    <path d="M 100,80 L 750,80" fill="none" stroke="#14b8a6" stroke-width="1" opacity="0.5" />
    <circle cx="750" cy="80" r="3" fill="#14b8a6" opacity="0.8" />
  </svg>