<svg viewBox="0 0 800 400" width="100%" xmlns="http://www.w3.org/2000/svg">
    <defs>
      <radialGradient id="glow-hero" cx="50%" cy="50%" r="50%">
        <stop offset="0%" stop-color="#14b8a6" stop-opacity="0.15"/>
        <stop offset="100%" stop-color="#0d1117" stop-opacity="0"/>
      </radialGradient>
      <filter id="blur-glow-hero" x="-50%" y="-50%" width="200%" height="200%">
        <feGaussianBlur stdDeviation="4" result="coloredBlur"/>
        <feMerge>
          <feMergeNode in="coloredBlur"/>
          <feMergeNode in="SourceGraphic"/>
        </feMerge>
      </filter>
    </defs>
    <rect width="800" height="400" fill="#0d1117" />
    
    <circle cx="400" cy="200" r="270" fill="url(#glow-hero)" />
    
    <g transform="translate(400, 200)">
      <!-- Main rotating group 1 -->
      <g>
        <animateTransform attributeName="transform" type="rotate" from="0 0 0" to="360 0 0" dur="60s" repeatCount="indefinite" />
        <circle r="180" fill="none" stroke="#14b8a6" stroke-width="1.5" opacity="0.8" filter="url(#blur-glow-hero)"/>
        <circle r="171" fill="none" stroke="#14b8a6" stroke-width="0.5" opacity="0.5"/>
        <circle r="153" fill="none" stroke="#14b8a6" stroke-width="1" stroke-dasharray="10 5" opacity="0.6"/>
        
        <!-- Nested star -->
        <path d="M0,-153L26.554,-55.139L119.62,-95.394L59.666,-13.618L149.164,34.046L47.848,38.158L66.384,137.848L0,61.2L-66.384,137.848L-47.848,38.158L-149.164,34.046L-59.666,-13.618L-119.62,-95.394L-26.554,-55.139Z" fill="none" stroke="#14b8a6" stroke-width="1.5" opacity="0.4" />
      </g>
      
      <!-- Counter-rotating group -->
      <g>
        <animateTransform attributeName="transform" type="rotate" from="360 0 0" to="0 0 0" dur="40s" repeatCount="indefinite" />
        <circle r="125.99999999999999" fill="none" stroke="#14b8a6" stroke-width="2" opacity="0.7"/>
        <path d="M0,-126L119.833,-38.936L74.061,101.936L-74.061,101.936L-119.833,-38.936Z" fill="none" stroke="#14b8a6" stroke-width="1.5" opacity="0.5" />
        <path d="M74.061,-101.936L119.833,38.936L0,126L-119.833,38.936L-74.061,-101.936Z" fill="none" stroke="#14b8a6" stroke-width="1.5" opacity="0.5" /> 
        
        <!-- Arcs -->
        <path d="M0,-117A117,117,0,0,1,53.117,-104.248L49.031,-96.229A108,108,0,0,0,0,-108Z" fill="#14b8a6" opacity="0.6" />
<path d="M82.731,-82.731A117,117,0,0,1,111.274,-36.155L102.714,-33.374A108,108,0,0,0,76.368,-76.368Z" fill="#14b8a6" opacity="0.6" />
<path d="M117,0A117,117,0,0,1,104.248,53.117L96.229,49.031A108,108,0,0,0,108,0Z" fill="#14b8a6" opacity="0.6" />
<path d="M82.731,82.731A117,117,0,0,1,36.155,111.274L33.374,102.714A108,108,0,0,0,76.368,76.368Z" fill="#14b8a6" opacity="0.6" />
<path d="M0,117A117,117,0,0,1,-53.117,104.248L-49.031,96.229A108,108,0,0,0,0,108Z" fill="#14b8a6" opacity="0.6" />
<path d="M-82.731,82.731A117,117,0,0,1,-111.274,36.155L-102.714,33.374A108,108,0,0,0,-76.368,76.368Z" fill="#14b8a6" opacity="0.6" />
<path d="M-117,0A117,117,0,0,1,-104.248,-53.117L-96.229,-49.031A108,108,0,0,0,-108,0Z" fill="#14b8a6" opacity="0.6" />
<path d="M-82.731,-82.731A117,117,0,0,1,-36.155,-111.274L-33.374,-102.714A108,108,0,0,0,-76.368,-76.368Z" fill="#14b8a6" opacity="0.6" />

      </g>
      
      <!-- Inner core -->
      <g>
        <animateTransform attributeName="transform" type="rotate" from="0 0 0" to="360 0 0" dur="20s" repeatCount="indefinite" />
        <circle r="72" fill="none" stroke="#14b8a6" stroke-width="1" opacity="0.8"/>
        <path d="M0,-72L7.454,-27.819L36,-62.354L20.365,-20.365L62.354,-36L27.819,-7.454L72,0L27.819,7.454L62.354,36L20.365,20.365L36,62.354L7.454,27.819L0,72L-7.454,27.819L-36,62.354L-20.365,20.365L-62.354,36L-27.819,7.454L-72,0L-27.819,-7.454L-62.354,-36L-20.365,-20.365L-36,-62.354L-7.454,-27.819Z" fill="none" stroke="#14b8a6" stroke-width="1.5" opacity="0.4" />
        <circle r="18" fill="#14b8a6" opacity="0.9" filter="url(#blur-glow-hero)"/>
      </g>
    </g>
    
    <!-- Orbiting elements -->
    <g transform="translate(400, 200)">
      <animateTransform attributeName="transform" type="rotate" from="0 0 0" to="360 0 0" dur="30s" repeatCount="indefinite" />
      <g transform="translate(198.00000000000003, 0)">
        <circle r="27" fill="#0d1117" stroke="#14b8a6" stroke-width="1" />
        <path d="M0,-27L5.4,-9.353L23.383,-13.5L10.8,0L23.383,13.5L5.4,9.353L0,27L-5.4,9.353L-23.383,13.5L-10.8,0L-23.383,-13.5L-5.4,-9.353Z" fill="none" stroke="#14b8a6" stroke-width="1.5" opacity="0.6" />
      </g>
    </g>
    <g transform="translate(400, 200)">
      <animateTransform attributeName="transform" type="rotate" from="180 0 0" to="540 0 0" dur="45s" repeatCount="indefinite" />
      <g transform="translate(216, 0)">
        <circle r="18" fill="#0d1117" stroke="#14b8a6" stroke-width="1" stroke-dasharray="2 2" />
        <circle r="9" fill="#14b8a6" opacity="0.8" />
      </g>
    </g>

    <path fill="#e2e8f0" d="M45.14 84.29L45.14 84.29Q44.82 84.29 44.63 84.23Q44.44 84.17 44.44 84.02L44.44 84.02Q44.44 83.86 44.63 83.76Q44.82 83.66 45.23 83.59L45.23 83.59Q46.14 83.42 46.62 83.00Q47.10 82.58 47.10 81.72L47.10 81.72L47.10 72.41Q47.10 71.30 47.06 70.72Q47.01 70.13 46.90 69.89Q46.79 69.65 46.60 69.62L46.60 69.62Q46.26 69.55 45.89 69.54Q45.52 69.53 44.90 69.53L44.90 69.53L43.77 69.53Q43.19 69.53 42.63 69.76Q42.06 69.98 41.80 70.46L41.80 70.46Q41.73 70.58 41.56 70.81Q41.39 71.04 41.20 71.21Q41.01 71.38 40.82 71.38L40.82 71.38Q40.72 71.38 40.68 71.28Q40.65 71.18 40.65 71.06L40.65 71.06Q40.65 70.82 40.77 70.58L40.77 70.58Q41.10 69.89 41.26 69.35Q41.42 68.81 41.51 68.06L41.51 68.06Q41.56 67.66 41.69 67.58Q41.82 67.51 41.92 67.51L41.92 67.51Q42.02 67.51 42.22 67.80Q42.42 68.09 42.52 68.28L42.52 68.28Q42.66 68.52 43.18 68.64Q43.70 68.76 44.20 68.76L44.20 68.76L52.65 68.76Q53.49 68.76 54.02 68.66Q54.54 68.57 54.93 68.40L54.93 68.40Q55.22 68.26 55.40 68.09Q55.58 67.92 55.86 67.92L55.86 67.92Q55.94 67.92 55.98 68.10Q56.03 68.28 56.03 68.47L56.03 68.47Q56.03 68.59 56.00 68.81Q55.96 69.02 55.94 69.14L55.94 69.14Q55.86 69.58 55.80 69.77Q55.74 69.96 55.72 70.10Q55.70 70.25 55.70 70.56L55.70 70.56L55.70 70.85Q55.70 71.06 55.60 71.34Q55.50 71.62 55.31 71.62L55.31 71.62Q55.14 71.62 55.05 71.35Q54.95 71.09 54.86 70.63L54.86 70.63Q54.76 70.13 54.28 69.83Q53.80 69.53 52.65 69.53L52.65 69.53L50.22 69.53Q49.70 69.53 49.43 69.67Q49.17 69.82 49.10 70.39Q49.02 70.97 49.02 72.29L49.02 72.29L49.02 81.72Q49.02 82.58 49.53 83.00Q50.03 83.42 50.92 83.59L50.92 83.59Q51.33 83.66 51.52 83.76Q51.71 83.86 51.71 84.02L51.71 84.02Q51.71 84.17 51.52 84.23Q51.33 84.29 51.02 84.29L51.02 84.29Q50.37 84.29 49.95 84.25Q49.53 84.22 49.14 84.19Q48.76 84.17 48.21 84.17L48.21 84.17Q47.61 84.17 47.16 84.19Q46.72 84.22 46.25 84.25Q45.78 84.29 45.14 84.29ZM57.02 84.24L57.02 84.24Q56.54 84.24 56.54 83.98L56.54 83.98Q56.54 83.76 57.09 83.59L57.09 83.59Q57.45 83.47 57.77 83.28Q58.10 83.09 58.12 82.61L58.12 82.61L58.12 70.58Q58.12 69.94 57.90 69.44Q57.69 68.95 57.06 68.86L57.06 68.86Q56.85 68.81 56.85 68.52L56.85 68.52Q56.85 68.30 57.04 68.23L57.04 68.23Q57.38 68.11 57.84 67.97Q58.31 67.82 58.82 67.64Q59.32 67.46 59.70 67.30L59.70 67.30Q59.80 67.25 59.85 67.25L59.85 67.25Q59.92 67.25 59.97 67.30Q60.02 67.34 60.02 67.42L60.02 67.42Q60.02 67.56 59.96 67.82Q59.90 68.09 59.85 68.74Q59.80 69.38 59.80 70.68L59.80 70.68L59.80 74.86Q59.80 75.24 59.84 75.41Q59.87 75.58 59.97 75.74L59.97 75.74Q60.35 75.46 60.92 75.11Q61.48 74.76 62.18 74.50Q62.87 74.23 63.62 74.23L63.62 74.23Q64.79 74.23 65.57 75.16Q66.35 76.08 66.35 77.50L66.35 77.50L66.35 82.54Q66.35 83.02 66.66 83.24Q66.98 83.47 67.34 83.59L67.34 83.59Q67.60 83.66 67.74 83.75Q67.89 83.83 67.89 83.98L67.89 83.98Q67.89 84.24 67.41 84.24L67.41 84.24Q66.93 84.24 66.68 84.20Q66.42 84.17 66.20 84.14Q65.97 84.12 65.54 84.12L65.54 84.12Q65.13 84.12 64.89 84.14Q64.65 84.17 64.40 84.20Q64.14 84.24 63.66 84.24L63.66 84.24Q63.18 84.24 63.18 83.98L63.18 83.98Q63.18 83.81 63.33 83.75Q63.47 83.69 63.74 83.59L63.74 83.59Q64.10 83.47 64.38 83.24Q64.67 83.02 64.67 82.54L64.67 82.54L64.67 77.64Q64.67 77.04 64.32 76.55Q63.98 76.06 63.47 75.77Q62.97 75.48 62.44 75.48L62.44 75.48Q61.98 75.48 61.38 75.61Q60.78 75.74 60.45 76.01L60.45 76.01Q60.06 76.32 59.93 76.66Q59.80 76.99 59.80 77.74L59.80 77.74L59.80 82.61Q59.82 83.09 60.10 83.28Q60.38 83.47 60.74 83.59L60.74 83.59Q61 83.66 61.13 83.75Q61.26 83.83 61.26 83.98L61.26 83.98Q61.26 84.24 60.78 84.24L60.78 84.24Q60.30 84.24 60.06 84.20Q59.82 84.17 59.61 84.14Q59.39 84.12 58.96 84.12L58.96 84.12Q58.55 84.12 58.30 84.14Q58.05 84.17 57.77 84.20Q57.50 84.24 57.02 84.24ZM73.55 84.53L73.55 84.53Q72.23 84.53 71.25 83.88Q70.26 83.23 69.71 82.04Q69.16 80.86 69.16 79.30L69.16 79.30Q69.16 77.90 69.80 76.76Q70.43 75.62 71.49 74.93Q72.54 74.23 73.79 74.23L73.79 74.23Q74.75 74.23 75.50 74.62Q76.24 75 76.66 75.68Q77.08 76.37 77.08 77.26L77.08 77.26Q77.08 78 76.36 78L76.36 78L71.30 78Q70.96 78 70.83 78.18Q70.70 78.36 70.70 78.89L70.70 78.89Q70.70 80.04 71.20 80.99Q71.70 81.94 72.54 82.50Q73.38 83.06 74.39 83.06L74.39 83.06Q75.11 83.06 75.70 82.79Q76.29 82.51 76.74 81.98L76.74 81.98Q76.84 81.86 76.89 81.83Q76.94 81.79 77.01 81.79L77.01 81.79Q77.20 81.79 77.20 82.03L77.20 82.03Q77.20 82.49 76.77 83.04L76.77 83.04Q76.41 83.50 75.90 83.83Q75.40 84.17 74.80 84.35Q74.20 84.53 73.55 84.53ZM71.34 77.26L71.34 77.26L73.53 77.26Q74.10 77.26 74.51 77.23Q74.92 77.21 75.30 77.14L75.30 77.14Q75.42 77.11 75.46 76.98Q75.50 76.85 75.50 76.61L75.50 76.61Q75.50 75.91 74.88 75.42Q74.27 74.93 73.43 74.93L73.43 74.93Q72.88 74.93 72.33 75.25Q71.78 75.58 71.42 76.06Q71.06 76.54 71.06 77.02L71.06 77.02Q71.06 77.26 71.34 77.26ZM78.98 84.24L78.98 84.24Q78.74 84.24 78.62 84.18Q78.50 84.12 78.50 83.98L78.50 83.98Q78.50 83.78 78.64 83.72Q78.78 83.66 79.05 83.59L79.05 83.59Q79.50 83.47 79.73 83.24Q79.96 83.02 79.96 82.68L79.96 82.68L79.96 77.52Q79.96 76.87 79.77 76.39Q79.58 75.91 78.98 75.79L78.98 75.79Q78.88 75.77 78.81 75.67Q78.74 75.58 78.74 75.48L78.74 75.48Q78.74 75.24 78.95 75.19L78.95 75.19Q79.58 75 80.26 74.63Q80.94 74.26 81.33 74.02L81.33 74.02Q81.47 73.92 81.56 73.88Q81.64 73.85 81.69 73.85L81.69 73.85Q81.81 73.85 81.81 74.02L81.81 74.02Q81.81 74.09 81.80 74.38Q81.78 74.66 81.77 75.05Q81.76 75.43 81.74 75.82L81.74 75.82Q81.74 75.86 81.78 75.86L81.78 75.86Q82.17 75.38 82.64 75.02Q83.10 74.66 83.60 74.45Q84.09 74.23 84.54 74.23L84.54 74.23Q85.05 74.23 85.37 74.45Q85.70 74.66 85.70 75L85.70 75Q85.70 75.24 85.56 75.53Q85.43 75.82 85.22 76.03Q85 76.25 84.76 76.25L84.76 76.25Q84.62 76.25 84.45 76.19Q84.28 76.13 84.09 76.03L84.09 76.03Q83.90 75.96 83.70 75.89Q83.51 75.82 83.32 75.82L83.32 75.82Q82.74 75.82 82.20 76.22Q81.66 76.63 81.66 77.83L81.66 77.83L81.66 82.68Q81.66 82.99 82 83.20Q82.34 83.40 82.94 83.59L82.94 83.59Q83.20 83.66 83.34 83.74Q83.49 83.81 83.49 83.98L83.49 83.98Q83.49 84.24 83.01 84.24L83.01 84.24Q82.29 84.24 81.92 84.18Q81.54 84.12 80.92 84.12L80.92 84.12Q80.51 84.12 80.26 84.14Q80.01 84.17 79.73 84.20Q79.46 84.24 78.98 84.24ZM90.93 84.53L90.93 84.53Q89.61 84.53 88.62 83.88Q87.64 83.23 87.09 82.04Q86.54 80.86 86.54 79.30L86.54 79.30Q86.54 77.90 87.17 76.76Q87.81 75.62 88.86 74.93Q89.92 74.23 91.17 74.23L91.17 74.23Q92.13 74.23 92.87 74.62Q93.62 75 94.04 75.68Q94.46 76.37 94.46 77.26L94.46 77.26Q94.46 78 93.74 78L93.74 78L88.67 78Q88.34 78 88.20 78.18Q88.07 78.36 88.07 78.89L88.07 78.89Q88.07 80.04 88.58 80.99Q89.08 81.94 89.92 82.50Q90.76 83.06 91.77 83.06L91.77 83.06Q92.49 83.06 93.08 82.79Q93.66 82.51 94.12 81.98L94.12 81.98Q94.22 81.86 94.26 81.83Q94.31 81.79 94.38 81.79L94.38 81.79Q94.58 81.79 94.58 82.03L94.58 82.03Q94.58 82.49 94.14 83.04L94.14 83.04Q93.78 83.50 93.28 83.83Q92.78 84.17 92.18 84.35Q91.58 84.53 90.93 84.53ZM88.72 77.26L88.72 77.26L90.90 77.26Q91.48 77.26 91.89 77.23Q92.30 77.21 92.68 77.14L92.68 77.14Q92.80 77.11 92.84 76.98Q92.87 76.85 92.87 76.61L92.87 76.61Q92.87 75.91 92.26 75.42Q91.65 74.93 90.81 74.93L90.81 74.93Q90.26 74.93 89.70 75.25Q89.15 75.58 88.79 76.06Q88.43 76.54 88.43 77.02L88.43 77.02Q88.43 77.26 88.72 77.26ZM96.90 73.51L96.90 73.51Q96.81 73.51 96.77 73.32Q96.74 73.13 96.74 72.96L96.74 72.96Q96.76 72.58 96.76 72.24Q96.76 71.90 96.76 71.59L96.76 71.59Q96.76 71.16 96.74 70.62Q96.71 70.08 96.69 69.68Q96.66 69.29 96.66 69.29L96.66 69.29Q96.66 69.02 96.82 68.80Q96.98 68.57 97.12 68.45L97.12 68.45Q97.41 68.21 97.64 68.08Q97.86 67.94 98.15 67.94L98.15 67.94Q98.34 67.94 98.42 68.17Q98.49 68.40 98.49 68.71L98.49 68.71Q98.49 69.34 98.28 70.15Q98.08 70.97 97.82 71.72Q97.55 72.48 97.36 72.91L97.36 72.91Q97.26 73.13 97.13 73.32Q97 73.51 96.90 73.51ZM103.43 84.50L103.43 84.50Q102.69 84.50 102.04 84.28Q101.39 84.05 100.94 83.64L100.94 83.64Q100.82 83.38 100.76 82.75Q100.70 82.13 100.67 81.72L100.67 81.72Q100.67 81.50 100.98 81.50L100.98 81.50Q101.08 81.50 101.16 81.54Q101.25 81.58 101.27 81.67L101.27 81.67Q101.58 82.85 102.27 83.35Q102.95 83.86 103.65 83.86L103.65 83.86Q104.34 83.86 104.84 83.39Q105.33 82.92 105.33 82.22L105.33 82.22Q105.33 81.58 104.90 81.11Q104.46 80.64 103.38 79.97L103.38 79.97Q102.57 79.46 102.06 79.01Q101.56 78.55 101.33 78.07Q101.10 77.59 101.10 76.99L101.10 76.99Q101.10 76.22 101.46 75.60Q101.82 74.98 102.54 74.60Q103.26 74.23 104.34 74.23L104.34 74.23Q105.06 74.23 105.54 74.38Q106.02 74.52 106.26 74.69L106.26 74.69Q106.46 74.95 106.59 75.52Q106.72 76.08 106.72 76.58L106.72 76.58Q106.72 76.75 106.48 76.75L106.48 76.75Q106.34 76.75 106.20 76.69Q106.07 76.63 106.02 76.54L106.02 76.54Q105.71 75.74 105.24 75.32Q104.78 74.90 104.08 74.90L104.08 74.90Q103.48 74.90 103.01 75.26Q102.54 75.62 102.54 76.32L102.54 76.32Q102.54 76.87 102.89 77.30Q103.24 77.74 104.20 78.29L104.20 78.29Q105.59 79.08 106.28 79.76Q106.96 80.45 106.96 81.58L106.96 81.58Q106.96 82.87 105.98 83.69Q104.99 84.50 103.43 84.50ZM115.98 84.50L115.98 84.50Q115.24 84.50 114.59 84.28Q113.94 84.05 113.49 83.64L113.49 83.64Q113.37 83.38 113.31 82.75Q113.25 82.13 113.22 81.72L113.22 81.72Q113.22 81.50 113.54 81.50L113.54 81.50Q113.63 81.50 113.72 81.54Q113.80 81.58 113.82 81.67L113.82 81.67Q114.14 82.85 114.82 83.35Q115.50 83.86 116.20 83.86L116.20 83.86Q116.90 83.86 117.39 83.39Q117.88 82.92 117.88 82.22L117.88 82.22Q117.88 81.58 117.45 81.11Q117.02 80.64 115.94 79.97L115.94 79.97Q115.12 79.46 114.62 79.01Q114.11 78.55 113.88 78.07Q113.66 77.59 113.66 76.99L113.66 76.99Q113.66 76.22 114.02 75.60Q114.38 74.98 115.10 74.60Q115.82 74.23 116.90 74.23L116.90 74.23Q117.62 74.23 118.10 74.38Q118.58 74.52 118.82 74.69L118.82 74.69Q119.01 74.95 119.14 75.52Q119.27 76.08 119.27 76.58L119.27 76.58Q119.27 76.75 119.03 76.75L119.03 76.75Q118.89 76.75 118.76 76.69Q118.62 76.63 118.58 76.54L118.58 76.54Q118.26 75.74 117.80 75.32Q117.33 74.90 116.63 74.90L116.63 74.90Q116.03 74.90 115.56 75.26Q115.10 75.62 115.10 76.32L115.10 76.32Q115.10 76.87 115.44 77.30Q115.79 77.74 116.75 78.29L116.75 78.29Q118.14 79.08 118.83 79.76Q119.51 80.45 119.51 81.58L119.51 81.58Q119.51 82.87 118.53 83.69Q117.54 84.50 115.98 84.50ZM125.90 84.50L125.90 84.50Q124.55 84.50 123.47 83.88Q122.39 83.26 121.76 82.16Q121.12 81.07 121.12 79.68L121.12 79.68Q121.12 78.67 121.52 77.71Q121.91 76.75 122.63 75.96Q123.35 75.17 124.31 74.70Q125.27 74.23 126.38 74.23L126.38 74.23Q127.77 74.23 128.88 74.90Q130 75.58 130.66 76.67Q131.32 77.76 131.32 79.06L131.32 79.06Q131.32 80.45 130.71 81.70Q130.10 82.94 128.90 83.72Q127.70 84.50 125.90 84.50ZM126.40 83.78L126.40 83.78Q127.22 83.78 127.86 83.47Q128.51 83.16 128.87 82.46L128.87 82.46Q129.16 81.91 129.26 81.12Q129.35 80.33 129.35 79.63L129.35 79.63Q129.35 78.48 128.93 77.41Q128.51 76.34 127.76 75.66Q127.00 74.98 125.97 74.98L125.97 74.98Q125.32 74.98 124.80 75.18Q124.29 75.38 123.86 75.94L123.86 75.94Q123.38 76.54 123.23 77.40Q123.09 78.26 123.09 79.13L123.09 79.13Q123.09 80.30 123.52 81.37Q123.95 82.44 124.70 83.11Q125.44 83.78 126.40 83.78ZM133.22 84.24L133.22 84.24Q133.02 84.24 132.88 84.19Q132.74 84.14 132.74 83.98L132.74 83.98Q132.74 83.81 132.89 83.74Q133.05 83.66 133.29 83.59L133.29 83.59Q133.62 83.47 133.97 83.32Q134.32 83.16 134.32 82.68L134.32 82.68L134.32 77.52Q134.32 76.87 134.18 76.38Q134.03 75.89 133.41 75.79L133.41 75.79Q133.31 75.77 133.25 75.70Q133.19 75.62 133.19 75.48L133.19 75.48Q133.19 75.24 133.38 75.19L133.38 75.19Q134.03 75.02 134.42 74.84Q134.80 74.66 135.10 74.44Q135.40 74.21 135.83 73.94L135.83 73.94Q135.88 73.92 135.93 73.88Q135.98 73.85 136.05 73.85L136.05 73.85Q136.19 73.85 136.19 74.02L136.19 74.02Q136.19 74.18 136.13 74.70Q136.07 75.22 136.07 75.55L136.07 75.55Q136.07 75.79 136.12 75.84L136.12 75.84L136.17 75.84Q136.72 75.31 137.62 74.77Q138.52 74.23 139.91 74.23L139.91 74.23Q140.78 74.23 141.35 74.60Q141.93 74.98 142.31 75.89L142.31 75.89L142.38 75.89Q143.15 75.19 144.14 74.71Q145.12 74.23 146.30 74.23L146.30 74.23Q147.09 74.23 147.62 74.71Q148.14 75.19 148.42 75.96Q148.70 76.73 148.70 77.57L148.70 77.57L148.70 82.68Q148.70 83.16 149.03 83.32Q149.37 83.47 149.73 83.59L149.73 83.59Q149.97 83.66 150.12 83.74Q150.28 83.81 150.28 83.98L150.28 83.98Q150.28 84.12 150.17 84.18Q150.06 84.24 149.80 84.24L149.80 84.24Q149.32 84.24 149.06 84.20Q148.79 84.17 148.56 84.14Q148.34 84.12 147.90 84.12L147.90 84.12Q147.50 84.12 147.23 84.14Q146.97 84.17 146.68 84.20Q146.39 84.24 145.91 84.24L145.91 84.24Q145.70 84.24 145.56 84.18Q145.43 84.12 145.43 83.98L145.43 83.98Q145.43 83.78 145.59 83.71Q145.74 83.64 145.98 83.59L145.98 83.59Q146.37 83.50 146.69 83.33Q147.02 83.16 147.02 82.68L147.02 82.68L147.02 77.64Q147.02 77.06 146.75 76.55Q146.49 76.03 146.06 75.70Q145.62 75.36 145.10 75.36L145.10 75.36Q144.50 75.36 143.98 75.50Q143.46 75.65 143.01 76.01L143.01 76.01Q142.34 76.54 142.34 77.74L142.34 77.74L142.34 82.68Q142.34 83.16 142.70 83.33Q143.06 83.50 143.42 83.59L143.42 83.59Q143.66 83.64 143.81 83.72Q143.97 83.81 143.97 83.98L143.97 83.98Q143.97 84.12 143.85 84.18Q143.73 84.24 143.49 84.24L143.49 84.24Q143.01 84.24 142.73 84.20Q142.46 84.17 142.20 84.14Q141.95 84.12 141.52 84.12L141.52 84.12Q141.11 84.12 140.85 84.14Q140.58 84.17 140.30 84.20Q140.01 84.24 139.53 84.24L139.53 84.24Q139.34 84.24 139.19 84.18Q139.05 84.12 139.05 83.98L139.05 83.98Q139.05 83.78 139.23 83.72Q139.41 83.66 139.60 83.59L139.60 83.59Q139.96 83.47 140.31 83.32Q140.66 83.16 140.66 82.68L140.66 82.68L140.66 77.64Q140.66 77.06 140.39 76.55Q140.13 76.03 139.70 75.70Q139.26 75.36 138.74 75.36L138.74 75.36Q138.14 75.36 137.62 75.50Q137.10 75.65 136.65 76.01L136.65 76.01Q136 76.49 136 77.74L136 77.74L136 82.68Q136 83.16 136.34 83.32Q136.67 83.47 137.03 83.59L137.03 83.59Q137.22 83.66 137.40 83.72Q137.58 83.78 137.58 83.98L137.58 83.98Q137.58 84.12 137.45 84.18Q137.32 84.24 137.10 84.24L137.10 84.24Q136.62 84.24 136.35 84.20Q136.07 84.17 135.83 84.14Q135.59 84.12 135.16 84.12L135.16 84.12Q134.75 84.12 134.50 84.14Q134.25 84.17 133.97 84.20Q133.70 84.24 133.22 84.24ZM155.94 84.53L155.94 84.53Q154.62 84.53 153.64 83.88Q152.66 83.23 152.10 82.04Q151.55 80.86 151.55 79.30L151.55 79.30Q151.55 77.90 152.19 76.76Q152.82 75.62 153.88 74.93Q154.94 74.23 156.18 74.23L156.18 74.23Q157.14 74.23 157.89 74.62Q158.63 75 159.05 75.68Q159.47 76.37 159.47 77.26L159.47 77.26Q159.47 78 158.75 78L158.75 78L153.69 78Q153.35 78 153.22 78.18Q153.09 78.36 153.09 78.89L153.09 78.89Q153.09 80.04 153.59 80.99Q154.10 81.94 154.94 82.50Q155.78 83.06 156.78 83.06L156.78 83.06Q157.50 83.06 158.09 82.79Q158.68 82.51 159.14 81.98L159.14 81.98Q159.23 81.86 159.28 81.83Q159.33 81.79 159.40 81.79L159.40 81.79Q159.59 81.79 159.59 82.03L159.59 82.03Q159.59 82.49 159.16 83.04L159.16 83.04Q158.80 83.50 158.30 83.83Q157.79 84.17 157.19 84.35Q156.59 84.53 155.94 84.53ZM153.74 77.26L153.74 77.26L155.92 77.26Q156.50 77.26 156.90 77.23Q157.31 77.21 157.70 77.14L157.70 77.14Q157.82 77.11 157.85 76.98Q157.89 76.85 157.89 76.61L157.89 76.61Q157.89 75.91 157.28 75.42Q156.66 74.93 155.82 74.93L155.82 74.93Q155.27 74.93 154.72 75.25Q154.17 75.58 153.81 76.06Q153.45 76.54 153.45 77.02L153.45 77.02Q153.45 77.26 153.74 77.26ZM164.73 84.50L164.73 84.50Q163.55 84.50 162.89 83.78Q162.23 83.06 162.23 81.65L162.23 81.65L162.23 76.08Q162.23 75.89 162.09 75.80Q161.94 75.72 161.46 75.72L161.46 75.72L161.32 75.72Q161.20 75.72 161.12 75.56Q161.03 75.41 161.03 75.24L161.03 75.24Q161.03 75.19 161.10 75.10Q161.18 75 161.20 74.98L161.20 74.98Q161.68 74.64 162.08 74.30Q162.47 73.97 162.80 73.64Q163.12 73.32 163.34 73.06L163.34 73.06Q163.46 72.94 163.54 72.85Q163.62 72.77 163.74 72.77L163.74 72.77Q163.86 72.77 163.97 72.82Q164.08 72.86 164.06 73.03L164.06 73.03L163.94 74.11Q163.91 74.38 164.06 74.47Q164.20 74.57 164.51 74.57L164.51 74.57L167.25 74.57Q167.34 74.57 167.42 74.72Q167.49 74.88 167.49 75.10L167.49 75.10Q167.49 75.31 167.42 75.52Q167.34 75.72 167.25 75.72L167.25 75.72L164.87 75.72Q164.27 75.72 164.09 75.82Q163.91 75.91 163.91 76.39L163.91 76.39L163.91 81.12Q163.91 82.08 164.32 82.63Q164.73 83.18 165.50 83.18L165.50 83.18Q166.19 83.18 166.58 83.08Q166.96 82.97 167.27 82.75L167.27 82.75Q167.32 82.70 167.37 82.70L167.37 82.70Q167.46 82.70 167.50 82.81Q167.54 82.92 167.54 83.04L167.54 83.04Q167.54 83.16 167.14 83.52Q166.74 83.88 166.11 84.19Q165.47 84.50 164.73 84.50ZM168.66 84.24L168.66 84.24Q168.18 84.24 168.18 83.98L168.18 83.98Q168.18 83.76 168.74 83.59L168.74 83.59Q169.10 83.47 169.42 83.28Q169.74 83.09 169.77 82.61L169.77 82.61L169.77 70.58Q169.77 69.94 169.55 69.44Q169.34 68.95 168.71 68.86L168.71 68.86Q168.50 68.81 168.50 68.52L168.50 68.52Q168.50 68.30 168.69 68.23L168.69 68.23Q169.02 68.11 169.49 67.97Q169.96 67.82 170.46 67.64Q170.97 67.46 171.35 67.30L171.35 67.30Q171.45 67.25 171.50 67.25L171.50 67.25Q171.57 67.25 171.62 67.30Q171.66 67.34 171.66 67.42L171.66 67.42Q171.66 67.56 171.60 67.82Q171.54 68.09 171.50 68.74Q171.45 69.38 171.45 70.68L171.45 70.68L171.45 74.86Q171.45 75.24 171.48 75.41Q171.52 75.58 171.62 75.74L171.62 75.74Q172 75.46 172.56 75.11Q173.13 74.76 173.82 74.50Q174.52 74.23 175.26 74.23L175.26 74.23Q176.44 74.23 177.22 75.16Q178 76.08 178 77.50L178 77.50L178 82.54Q178 83.02 178.31 83.24Q178.62 83.47 178.98 83.59L178.98 83.59Q179.25 83.66 179.39 83.75Q179.54 83.83 179.54 83.98L179.54 83.98Q179.54 84.24 179.06 84.24L179.06 84.24Q178.58 84.24 178.32 84.20Q178.07 84.17 177.84 84.14Q177.62 84.12 177.18 84.12L177.18 84.12Q176.78 84.12 176.54 84.14Q176.30 84.17 176.04 84.20Q175.79 84.24 175.31 84.24L175.31 84.24Q174.83 84.24 174.83 83.98L174.83 83.98Q174.83 83.81 174.98 83.75Q175.12 83.69 175.38 83.59L175.38 83.59Q175.74 83.47 176.03 83.24Q176.32 83.02 176.32 82.54L176.32 82.54L176.32 77.64Q176.32 77.04 175.97 76.55Q175.62 76.06 175.12 75.77Q174.62 75.48 174.09 75.48L174.09 75.48Q173.63 75.48 173.03 75.61Q172.43 75.74 172.10 76.01L172.10 76.01Q171.71 76.32 171.58 76.66Q171.45 76.99 171.45 77.74L171.45 77.74L171.45 82.61Q171.47 83.09 171.75 83.28Q172.02 83.47 172.38 83.59L172.38 83.59Q172.65 83.66 172.78 83.75Q172.91 83.83 172.91 83.98L172.91 83.98Q172.91 84.24 172.43 84.24L172.43 84.24Q171.95 84.24 171.71 84.20Q171.47 84.17 171.26 84.14Q171.04 84.12 170.61 84.12L170.61 84.12Q170.20 84.12 169.95 84.14Q169.70 84.17 169.42 84.20Q169.14 84.24 168.66 84.24ZM181.14 84.24L181.14 84.24Q180.93 84.24 180.80 84.18Q180.66 84.12 180.66 83.98L180.66 83.98Q180.66 83.78 180.84 83.71Q181.02 83.64 181.22 83.59L181.22 83.59Q181.72 83.47 181.98 83.29Q182.25 83.11 182.25 82.68L182.25 82.68L182.25 77.47Q182.25 76.82 182.02 76.32Q181.79 75.82 181.17 75.72L181.17 75.72Q181.05 75.70 180.99 75.62Q180.93 75.55 180.93 75.41L180.93 75.41Q180.93 75.14 181.14 75.12L181.14 75.12Q182.10 74.90 182.73 74.53Q183.35 74.16 183.66 73.92L183.66 73.92Q183.88 73.75 184.00 73.75L184.00 73.75Q184.14 73.75 184.14 73.87L184.14 73.87Q184.14 74.06 184.08 74.63Q184.02 75.19 183.98 75.88Q183.93 76.56 183.93 77.11L183.93 77.11L183.93 82.68Q183.93 83.09 184.20 83.28Q184.48 83.47 184.96 83.59L184.96 83.59Q185.15 83.64 185.33 83.71Q185.51 83.78 185.51 83.98L185.51 83.98Q185.51 84.24 185.03 84.24L185.03 84.24Q184.58 84.24 184.30 84.20Q184.02 84.17 183.77 84.14Q183.52 84.12 183.09 84.12L183.09 84.12Q182.68 84.12 182.42 84.14Q182.15 84.17 181.89 84.20Q181.62 84.24 181.14 84.24ZM183.06 71.78L183.06 71.78Q182.56 71.78 182.21 71.44Q181.86 71.09 181.86 70.58L181.86 70.58Q181.86 70.06 182.21 69.71Q182.56 69.36 183.06 69.36L183.06 69.36Q183.59 69.36 183.94 69.71Q184.29 70.06 184.29 70.58L184.29 70.58Q184.29 71.09 183.94 71.44Q183.59 71.78 183.06 71.78ZM187.02 84.24L187.02 84.24Q186.81 84.24 186.68 84.18Q186.54 84.12 186.54 83.98L186.54 83.98Q186.54 83.78 186.69 83.72Q186.83 83.66 187.10 83.59L187.10 83.59Q187.46 83.50 187.79 83.33Q188.13 83.16 188.13 82.68L188.13 82.68L188.13 77.52Q188.13 76.87 188.00 76.42Q187.86 75.96 187.24 75.79L187.24 75.79Q187.14 75.74 187.07 75.68Q187.00 75.62 187.00 75.48L187.00 75.48Q187.00 75.22 187.22 75.19L187.22 75.19Q188.06 74.98 188.58 74.66Q189.11 74.35 189.62 73.97L189.62 73.97Q189.69 73.92 189.75 73.88Q189.81 73.85 189.88 73.85L189.88 73.85Q189.93 73.85 189.96 73.90Q190.00 73.94 190.00 74.02L190.00 74.02Q190.00 74.18 189.94 74.70Q189.88 75.22 189.88 75.55L189.88 75.55Q189.88 75.65 189.89 75.73Q189.90 75.82 189.93 75.84L189.93 75.84Q190.77 75.05 191.72 74.64Q192.66 74.23 193.79 74.23L193.79 74.23Q194.97 74.23 195.74 75.19Q196.50 76.15 196.50 77.57L196.50 77.57L196.50 82.68Q196.50 83.16 196.84 83.32Q197.18 83.47 197.54 83.59L197.54 83.59Q197.73 83.66 197.91 83.75Q198.09 83.83 198.09 84.02L198.09 84.02Q198.09 84.17 197.92 84.20Q197.75 84.24 197.61 84.24L197.61 84.24Q197.13 84.24 196.86 84.20Q196.60 84.17 196.36 84.14Q196.12 84.12 195.69 84.12L195.69 84.12Q195.28 84.12 195.02 84.14Q194.75 84.17 194.48 84.20Q194.20 84.24 193.72 84.24L193.72 84.24Q193.60 84.24 193.42 84.20Q193.24 84.17 193.24 84.02L193.24 84.02Q193.24 83.83 193.42 83.75Q193.60 83.66 193.79 83.59L193.79 83.59Q194.15 83.47 194.49 83.32Q194.82 83.16 194.82 82.68L194.82 82.68L194.82 77.64Q194.82 76.58 194.24 76.00Q193.65 75.41 192.66 75.38L192.66 75.38Q191.80 75.38 191.15 75.66Q190.50 75.94 190.00 76.34L190.00 76.34Q189.90 76.44 189.86 76.60Q189.81 76.75 189.81 76.90L189.81 76.90L189.81 82.68Q189.81 83.16 190.14 83.33Q190.48 83.50 190.84 83.59L190.84 83.59Q191.39 83.74 191.39 83.98L191.39 83.98Q191.39 84.12 191.27 84.18Q191.15 84.24 190.91 84.24L190.91 84.24Q190.43 84.24 190.16 84.20Q189.88 84.17 189.64 84.14Q189.40 84.12 188.97 84.12L188.97 84.12Q188.56 84.12 188.31 84.14Q188.06 84.17 187.78 84.20Q187.50 84.24 187.02 84.24ZM203.32 91.13L203.32 91.13Q201.28 91.13 200.09 90.35Q198.90 89.57 198.90 88.25L198.90 88.25Q198.90 87.62 199.10 87.19Q199.29 86.76 199.70 86.45L199.70 86.45Q200.03 86.16 200.60 85.72Q201.16 85.27 201.76 84.79L201.76 84.79L202.77 84.84Q201.62 85.58 201.16 86.26Q200.70 86.93 200.70 87.89L200.70 87.89Q200.70 88.85 201.56 89.51Q202.41 90.17 203.66 90.17L203.66 90.17Q205.07 90.17 205.94 89.52L205.94 89.52Q206.54 89.06 206.87 88.33Q207.21 87.60 207.21 86.78L207.21 86.78Q207.21 86.26 206.84 85.91Q206.46 85.56 205.67 85.34Q204.88 85.13 203.61 85.06L203.61 85.06Q201.35 84.89 200.48 84.46Q199.60 84.02 199.60 83.11L199.60 83.11Q199.60 82.87 199.73 82.67Q199.86 82.46 200.15 82.22L200.15 82.22Q200.70 81.79 200.97 81.59Q201.23 81.38 201.36 81.24Q201.50 81.10 201.62 80.88L201.62 80.88L202.43 81.29Q201.90 81.48 201.54 81.80Q201.18 82.13 201.18 82.39L201.18 82.39Q201.18 82.73 201.54 82.98Q201.90 83.23 202.60 83.38Q203.30 83.52 204.30 83.59L204.30 83.59Q206.51 83.71 207.59 84.31Q208.67 84.91 208.67 86.02L208.67 86.02Q208.67 86.95 208.20 87.85Q207.74 88.75 206.97 89.50Q206.20 90.24 205.25 90.68Q204.30 91.13 203.32 91.13ZM203.61 80.78L203.61 80.78Q204.52 80.78 205.12 79.86Q205.72 78.94 205.72 77.57L205.72 77.57Q205.72 76.87 205.40 76.26Q205.07 75.65 204.56 75.28Q204.04 74.90 203.44 74.90L203.44 74.90Q202.89 74.90 202.40 75.30Q201.90 75.70 201.60 76.32Q201.30 76.94 201.30 77.69L201.30 77.69Q201.30 78.53 201.62 79.24Q201.93 79.94 202.46 80.36Q202.98 80.78 203.61 80.78ZM203.46 81.62L203.46 81.62Q202.48 81.62 201.59 81.12Q200.70 80.62 200.14 79.79Q199.58 78.96 199.58 77.98L199.58 77.98Q199.58 76.85 200.16 76.00Q200.75 75.14 201.71 74.66Q202.67 74.18 203.75 74.18L203.75 74.18Q204.45 74.18 204.96 74.36Q205.48 74.54 205.98 74.69L205.98 74.69Q206.56 74.86 206.90 74.89Q207.23 74.93 207.59 74.93L207.59 74.93Q207.88 74.93 208.31 74.89Q208.74 74.86 208.91 74.86L208.91 74.86Q209.22 74.86 209.22 75.22L209.22 75.22Q209.22 75.43 208.98 75.67L208.98 75.67Q208.86 75.79 208.79 75.79L208.79 75.79L208.14 75.79Q207.50 75.79 207.42 75.98L207.42 75.98Q207.40 76.08 207.36 76.26Q207.33 76.44 207.30 76.66Q207.28 76.87 207.28 77.09L207.28 77.09Q207.28 78.31 206.75 79.34Q206.22 80.38 205.36 81Q204.50 81.62 203.46 81.62ZM216.69 84.50L216.69 84.50Q216.26 84.50 215.81 84.17Q215.37 83.83 215.07 83.35Q214.77 82.87 214.77 82.44L214.77 82.44Q214.77 81.67 215.18 81.24Q215.58 80.81 216.47 80.45L216.47 80.45L218.92 79.44Q219.40 79.25 219.48 79.10Q219.57 78.96 219.59 78.48L219.59 78.48L219.64 76.94Q219.66 76.32 219.29 75.86Q218.92 75.41 218.22 75.41L218.22 75.41Q217.86 75.41 217.50 75.53Q217.14 75.65 216.90 75.84L216.90 75.84Q216.76 75.94 216.71 76.13Q216.66 76.32 216.66 76.54L216.66 76.54Q216.66 76.63 216.68 76.75Q216.69 76.87 216.69 76.97L216.69 76.97Q216.69 77.09 216.39 77.29Q216.09 77.50 215.72 77.65Q215.34 77.81 215.10 77.81L215.10 77.81Q214.98 77.81 214.91 77.75Q214.84 77.69 214.84 77.59L214.84 77.59Q214.84 77.21 215.09 76.76Q215.34 76.32 215.80 75.94L215.80 75.94Q216.35 75.43 217.00 75.05Q217.65 74.66 218.27 74.45Q218.90 74.23 219.38 74.23L219.38 74.23Q220.24 74.23 220.80 74.84Q221.37 75.46 221.34 76.37L221.34 76.37L221.22 82.13Q221.20 82.63 221.45 82.94Q221.70 83.26 222.09 83.26L222.09 83.26Q222.69 83.26 222.98 82.99L222.98 82.99Q223.10 82.87 223.17 82.87L223.17 82.87Q223.29 82.87 223.36 82.94Q223.43 83.02 223.43 83.14L223.43 83.14Q223.43 83.40 223.17 83.66L223.17 83.66Q222.78 84.05 222.34 84.28Q221.90 84.50 221.51 84.50L221.51 84.50Q220.41 84.50 219.76 83.26L219.76 83.26L219.69 83.26Q218.90 83.90 218.18 84.20Q217.46 84.50 216.69 84.50ZM217.82 83.35L217.82 83.35Q218.30 83.35 218.63 83.20Q218.97 83.04 219.23 82.78L219.23 82.78Q219.35 82.66 219.44 82.45Q219.52 82.25 219.54 81.79L219.54 81.79L219.59 80.62Q219.62 80.35 219.57 80.23Q219.52 80.11 219.38 80.11L219.38 80.11Q219.33 80.11 219.21 80.14Q219.09 80.16 218.90 80.23L218.90 80.23Q217.62 80.69 217.13 81.18Q216.64 81.67 216.64 82.08L216.64 82.08Q216.64 82.70 217.01 83.03Q217.38 83.35 217.82 83.35ZM229.67 84.50L229.67 84.50Q229.14 84.50 228.62 84.41Q228.09 84.31 227.61 84.19L227.61 84.19Q227.08 84.05 226.68 83.93Q226.29 83.81 226.17 83.81L226.17 83.81Q226.02 83.81 225.89 83.90Q225.76 84 225.64 84.12L225.64 84.12Q225.52 84.24 225.42 84.24L225.42 84.24Q225.33 84.24 225.21 84.16Q225.09 84.07 225.09 83.95L225.09 83.95Q225.09 83.74 225.17 83.21Q225.26 82.68 225.26 82.22L225.26 82.22L225.26 70.58Q225.26 69.96 224.94 69.50Q224.63 69.05 224.15 68.83L224.15 68.83Q224.06 68.78 223.95 68.70Q223.84 68.62 223.84 68.47L223.84 68.47Q223.84 68.35 223.94 68.30Q224.03 68.26 224.13 68.23L224.13 68.23Q224.44 68.16 224.98 67.97Q225.52 67.78 226.00 67.58Q226.48 67.39 226.65 67.32L226.65 67.32Q226.79 67.25 226.86 67.25L226.86 67.25Q226.91 67.25 226.96 67.30Q227.01 67.34 227.01 67.42L227.01 67.42Q227.01 67.51 226.97 68.22Q226.94 68.93 226.94 69.94L226.94 69.94L226.94 74.86Q226.94 75.31 226.98 75.47Q227.03 75.62 227.15 75.65L227.15 75.65Q227.90 75.02 228.88 74.63Q229.86 74.23 230.66 74.23L230.66 74.23Q231.88 74.23 232.85 74.86Q233.82 75.48 234.40 76.55Q234.98 77.62 234.98 78.96L234.98 78.96Q234.98 80.59 234.30 81.85Q233.63 83.11 232.44 83.81Q231.26 84.50 229.67 84.50ZM230.22 83.76L230.22 83.76Q231.14 83.76 231.80 83.20Q232.46 82.63 232.82 81.66Q233.18 80.69 233.18 79.49L233.18 79.49Q233.18 78.55 232.83 77.57Q232.48 76.58 231.75 75.91Q231.02 75.24 229.86 75.24L229.86 75.24Q228.90 75.24 228.18 75.55Q227.46 75.86 226.94 76.34L226.94 76.34L226.94 81Q226.94 81.84 227.40 82.46Q227.87 83.09 228.63 83.42Q229.38 83.76 230.22 83.76ZM241.43 84.50L241.43 84.50Q240.09 84.50 239.01 83.88Q237.93 83.26 237.29 82.16Q236.66 81.07 236.66 79.68L236.66 79.68Q236.66 78.67 237.05 77.71Q237.45 76.75 238.17 75.96Q238.89 75.17 239.85 74.70Q240.81 74.23 241.91 74.23L241.91 74.23Q243.30 74.23 244.42 74.90Q245.54 75.58 246.20 76.67Q246.86 77.76 246.86 79.06L246.86 79.06Q246.86 80.45 246.24 81.70Q245.63 82.94 244.43 83.72Q243.23 84.50 241.43 84.50ZM241.94 83.78L241.94 83.78Q242.75 83.78 243.40 83.47Q244.05 83.16 244.41 82.46L244.41 82.46Q244.70 81.91 244.79 81.12Q244.89 80.33 244.89 79.63L244.89 79.63Q244.89 78.48 244.47 77.41Q244.05 76.34 243.29 75.66Q242.54 74.98 241.50 74.98L241.50 74.98Q240.86 74.98 240.34 75.18Q239.82 75.38 239.39 75.94L239.39 75.94Q238.91 76.54 238.77 77.40Q238.62 78.26 238.62 79.13L238.62 79.13Q238.62 80.30 239.06 81.37Q239.49 82.44 240.23 83.11Q240.98 83.78 241.94 83.78ZM256.48 84.62L256.48 84.62Q256.31 84.62 256.31 84.43L256.31 84.43Q256.31 84.19 256.37 83.72Q256.43 83.26 256.43 82.94L256.43 82.94Q256.43 82.90 256.43 82.86Q256.43 82.82 256.43 82.80L256.43 82.80Q255.50 83.71 254.55 84.11Q253.60 84.50 252.47 84.50L252.47 84.50Q251.70 84.50 251.08 84.18Q250.46 83.86 250.10 83.22Q249.74 82.58 249.74 81.65L249.74 81.65L249.74 76.78Q249.74 76.25 249.50 75.94Q249.26 75.62 248.70 75.41L248.70 75.41Q248.58 75.36 248.49 75.29Q248.39 75.22 248.39 75.02L248.39 75.02Q248.39 74.81 248.50 74.74Q248.61 74.66 248.75 74.64L248.75 74.64Q249.57 74.59 250.01 74.51Q250.46 74.42 251.13 74.26L251.13 74.26Q251.20 74.23 251.24 74.23Q251.27 74.23 251.32 74.23L251.32 74.23Q251.58 74.23 251.56 74.57L251.56 74.57Q251.49 75.12 251.45 75.49Q251.42 75.86 251.42 76.42L251.42 76.42L251.42 81.10Q251.42 81.67 251.70 82.16Q251.99 82.66 252.46 82.97Q252.93 83.28 253.43 83.28L253.43 83.28Q254.06 83.28 254.52 83.21Q254.99 83.14 255.45 82.80L255.45 82.80Q255.71 82.61 256.12 82.18Q256.53 81.74 256.53 81L256.53 81L256.53 76.61Q256.53 76.10 256.23 75.85Q255.93 75.60 255.54 75.50Q255.16 75.41 254.92 75.41L254.92 75.41Q254.70 75.41 254.56 75.32Q254.42 75.24 254.42 75L254.42 75Q254.42 74.78 254.57 74.71Q254.73 74.64 254.92 74.64L254.92 74.64Q255.66 74.62 256.16 74.58Q256.65 74.54 257.04 74.46Q257.44 74.38 257.87 74.26L257.87 74.26Q257.92 74.23 257.99 74.22Q258.06 74.21 258.11 74.21L258.11 74.21Q258.42 74.21 258.42 74.47L258.42 74.47Q258.42 74.50 258.41 74.56Q258.40 74.62 258.38 74.69L258.38 74.69Q258.35 74.76 258.32 75.10Q258.28 75.43 258.24 75.79Q258.21 76.15 258.21 76.34L258.21 76.34L258.21 81.89Q258.21 82.54 258.34 82.81Q258.47 83.09 258.64 83.09L258.64 83.09Q258.83 83.09 259.20 83.05Q259.58 83.02 259.74 83.02L259.74 83.02Q259.86 83.02 259.98 83.06Q260.10 83.11 260.10 83.33L260.10 83.33Q260.10 83.52 260.01 83.58Q259.91 83.64 259.77 83.66L259.77 83.66Q258.83 83.78 258.16 84.02Q257.49 84.26 256.96 84.48L256.96 84.48Q256.89 84.50 256.74 84.56Q256.60 84.62 256.48 84.62ZM264.88 84.50L264.88 84.50Q263.70 84.50 263.04 83.78Q262.38 83.06 262.38 81.65L262.38 81.65L262.38 76.08Q262.38 75.89 262.24 75.80Q262.10 75.72 261.62 75.72L261.62 75.72L261.47 75.72Q261.35 75.72 261.27 75.56Q261.18 75.41 261.18 75.24L261.18 75.24Q261.18 75.19 261.26 75.10Q261.33 75 261.35 74.98L261.35 74.98Q261.83 74.64 262.23 74.30Q262.62 73.97 262.95 73.64Q263.27 73.32 263.49 73.06L263.49 73.06Q263.61 72.94 263.69 72.85Q263.78 72.77 263.90 72.77L263.90 72.77Q264.02 72.77 264.12 72.82Q264.23 72.86 264.21 73.03L264.21 73.03L264.09 74.11Q264.06 74.38 264.21 74.47Q264.35 74.57 264.66 74.57L264.66 74.57L267.40 74.57Q267.50 74.57 267.57 74.72Q267.64 74.88 267.64 75.10L267.64 75.10Q267.64 75.31 267.57 75.52Q267.50 75.72 267.40 75.72L267.40 75.72L265.02 75.72Q264.42 75.72 264.24 75.82Q264.06 75.91 264.06 76.39L264.06 76.39L264.06 81.12Q264.06 82.08 264.47 82.63Q264.88 83.18 265.65 83.18L265.65 83.18Q266.34 83.18 266.73 83.08Q267.11 82.97 267.42 82.75L267.42 82.75Q267.47 82.70 267.52 82.70L267.52 82.70Q267.62 82.70 267.65 82.81Q267.69 82.92 267.69 83.04L267.69 83.04Q267.69 83.16 267.29 83.52Q266.90 83.88 266.26 84.19Q265.62 84.50 264.88 84.50ZM273.74 84.24L273.74 84.24Q273.54 84.24 273.40 84.19Q273.26 84.14 273.26 83.98L273.26 83.98Q273.26 83.81 273.41 83.74Q273.57 83.66 273.81 83.59L273.81 83.59Q274.14 83.47 274.49 83.32Q274.84 83.16 274.84 82.68L274.84 82.68L274.84 77.52Q274.84 76.87 274.70 76.38Q274.55 75.89 273.93 75.79L273.93 75.79Q273.83 75.77 273.77 75.70Q273.71 75.62 273.71 75.48L273.71 75.48Q273.71 75.24 273.90 75.19L273.90 75.19Q274.55 75.02 274.94 74.84Q275.32 74.66 275.62 74.44Q275.92 74.21 276.35 73.94L276.35 73.94Q276.40 73.92 276.45 73.88Q276.50 73.85 276.57 73.85L276.57 73.85Q276.71 73.85 276.71 74.02L276.71 74.02Q276.71 74.18 276.65 74.70Q276.59 75.22 276.59 75.55L276.59 75.55Q276.59 75.79 276.64 75.84L276.64 75.84L276.69 75.84Q277.24 75.31 278.14 74.77Q279.04 74.23 280.43 74.23L280.43 74.23Q281.30 74.23 281.87 74.60Q282.45 74.98 282.83 75.89L282.83 75.89L282.90 75.89Q283.67 75.19 284.66 74.71Q285.64 74.23 286.82 74.23L286.82 74.23Q287.61 74.23 288.14 74.71Q288.66 75.19 288.94 75.96Q289.22 76.73 289.22 77.57L289.22 77.57L289.22 82.68Q289.22 83.16 289.55 83.32Q289.89 83.47 290.25 83.59L290.25 83.59Q290.49 83.66 290.64 83.74Q290.80 83.81 290.80 83.98L290.80 83.98Q290.80 84.12 290.69 84.18Q290.58 84.24 290.32 84.24L290.32 84.24Q289.84 84.24 289.58 84.20Q289.31 84.17 289.08 84.14Q288.86 84.12 288.42 84.12L288.42 84.12Q288.02 84.12 287.75 84.14Q287.49 84.17 287.20 84.20Q286.91 84.24 286.43 84.24L286.43 84.24Q286.22 84.24 286.08 84.18Q285.95 84.12 285.95 83.98L285.95 83.98Q285.95 83.78 286.11 83.71Q286.26 83.64 286.50 83.59L286.50 83.59Q286.89 83.50 287.21 83.33Q287.54 83.16 287.54 82.68L287.54 82.68L287.54 77.64Q287.54 77.06 287.27 76.55Q287.01 76.03 286.58 75.70Q286.14 75.36 285.62 75.36L285.62 75.36Q285.02 75.36 284.50 75.50Q283.98 75.65 283.53 76.01L283.53 76.01Q282.86 76.54 282.86 77.74L282.86 77.74L282.86 82.68Q282.86 83.16 283.22 83.33Q283.58 83.50 283.94 83.59L283.94 83.59Q284.18 83.64 284.33 83.72Q284.49 83.81 284.49 83.98L284.49 83.98Q284.49 84.12 284.37 84.18Q284.25 84.24 284.01 84.24L284.01 84.24Q283.53 84.24 283.25 84.20Q282.98 84.17 282.72 84.14Q282.47 84.12 282.04 84.12L282.04 84.12Q281.63 84.12 281.37 84.14Q281.10 84.17 280.82 84.20Q280.53 84.24 280.05 84.24L280.05 84.24Q279.86 84.24 279.71 84.18Q279.57 84.12 279.57 83.98L279.57 83.98Q279.57 83.78 279.75 83.72Q279.93 83.66 280.12 83.59L280.12 83.59Q280.48 83.47 280.83 83.32Q281.18 83.16 281.18 82.68L281.18 82.68L281.18 77.64Q281.18 77.06 280.91 76.55Q280.65 76.03 280.22 75.70Q279.78 75.36 279.26 75.36L279.26 75.36Q278.66 75.36 278.14 75.50Q277.62 75.65 277.17 76.01L277.17 76.01Q276.52 76.49 276.52 77.74L276.52 77.74L276.52 82.68Q276.52 83.16 276.86 83.32Q277.19 83.47 277.55 83.59L277.55 83.59Q277.74 83.66 277.92 83.72Q278.10 83.78 278.10 83.98L278.10 83.98Q278.10 84.12 277.97 84.18Q277.84 84.24 277.62 84.24L277.62 84.24Q277.14 84.24 276.87 84.20Q276.59 84.17 276.35 84.14Q276.11 84.12 275.68 84.12L275.68 84.12Q275.27 84.12 275.02 84.14Q274.77 84.17 274.49 84.20Q274.22 84.24 273.74 84.24ZM294.16 84.50L294.16 84.50Q293.73 84.50 293.28 84.17Q292.84 83.83 292.54 83.35Q292.24 82.87 292.24 82.44L292.24 82.44Q292.24 81.67 292.65 81.24Q293.06 80.81 293.94 80.45L293.94 80.45L296.39 79.44Q296.87 79.25 296.96 79.10Q297.04 78.96 297.06 78.48L297.06 78.48L297.11 76.94Q297.14 76.32 296.76 75.86Q296.39 75.41 295.70 75.41L295.70 75.41Q295.34 75.41 294.98 75.53Q294.62 75.65 294.38 75.84L294.38 75.84Q294.23 75.94 294.18 76.13Q294.14 76.32 294.14 76.54L294.14 76.54Q294.14 76.63 294.15 76.75Q294.16 76.87 294.16 76.97L294.16 76.97Q294.16 77.09 293.86 77.29Q293.56 77.50 293.19 77.65Q292.82 77.81 292.58 77.81L292.58 77.81Q292.46 77.81 292.38 77.75Q292.31 77.69 292.31 77.59L292.31 77.59Q292.31 77.21 292.56 76.76Q292.82 76.32 293.27 75.94L293.27 75.94Q293.82 75.43 294.47 75.05Q295.12 74.66 295.74 74.45Q296.37 74.23 296.85 74.23L296.85 74.23Q297.71 74.23 298.28 74.84Q298.84 75.46 298.82 76.37L298.82 76.37L298.70 82.13Q298.67 82.63 298.92 82.94Q299.18 83.26 299.56 83.26L299.56 83.26Q300.16 83.26 300.45 82.99L300.45 82.99Q300.57 82.87 300.64 82.87L300.64 82.87Q300.76 82.87 300.83 82.94Q300.90 83.02 300.90 83.14L300.90 83.14Q300.90 83.40 300.64 83.66L300.64 83.66Q300.26 84.05 299.81 84.28Q299.37 84.50 298.98 84.50L298.98 84.50Q297.88 84.50 297.23 83.26L297.23 83.26L297.16 83.26Q296.37 83.90 295.65 84.20Q294.93 84.50 294.16 84.50ZM295.29 83.35L295.29 83.35Q295.77 83.35 296.10 83.20Q296.44 83.04 296.70 82.78L296.70 82.78Q296.82 82.66 296.91 82.45Q296.99 82.25 297.02 81.79L297.02 81.79L297.06 80.62Q297.09 80.35 297.04 80.23Q296.99 80.11 296.85 80.11L296.85 80.11Q296.80 80.11 296.68 80.14Q296.56 80.16 296.37 80.23L296.37 80.23Q295.10 80.69 294.60 81.18Q294.11 81.67 294.11 82.08L294.11 82.08Q294.11 82.70 294.48 83.03Q294.86 83.35 295.29 83.35ZM301.94 84.24L301.94 84.24Q301.38 84.24 301.38 83.98L301.38 83.98Q301.38 83.78 301.56 83.72Q301.74 83.66 301.94 83.59L301.94 83.59Q302.30 83.47 302.63 83.28Q302.97 83.09 302.97 82.61L302.97 82.61L302.97 70.58Q302.97 69.74 302.73 69.36Q302.49 68.98 301.89 68.83L301.89 68.83Q301.67 68.78 301.67 68.52L301.67 68.52Q301.67 68.28 301.86 68.23L301.86 68.23Q302.49 68.09 302.94 67.93Q303.40 67.78 303.77 67.62Q304.14 67.46 304.50 67.32L304.50 67.32Q304.65 67.25 304.72 67.25L304.72 67.25Q304.79 67.25 304.83 67.30Q304.86 67.34 304.86 67.46L304.86 67.46Q304.86 67.70 304.76 68.42Q304.65 69.14 304.65 70.68L304.65 70.68L304.65 78.55Q304.65 78.77 304.77 78.77L304.77 78.77Q304.91 78.77 305.14 78.65Q305.37 78.53 305.63 78.29L305.63 78.29Q306.62 77.45 307.28 76.76Q307.94 76.08 308.18 75.82L308.18 75.82Q308.30 75.67 308.34 75.59Q308.39 75.50 308.39 75.46L308.39 75.46Q308.39 75.34 308.19 75.24Q307.98 75.14 307.77 75.10L307.77 75.10Q307.48 75.02 307.48 74.86L307.48 74.86Q307.48 74.74 307.62 74.65Q307.77 74.57 308.01 74.57L308.01 74.57L309.18 74.57Q309.57 74.57 309.99 74.50Q310.41 74.42 310.78 74.35Q311.15 74.28 311.37 74.28L311.37 74.28Q311.70 74.28 311.70 74.52L311.70 74.52Q311.70 74.66 311.54 74.77Q311.37 74.88 311.10 74.95L311.10 74.95Q310.65 75.07 310.25 75.29Q309.86 75.50 309.52 75.70L309.52 75.70Q309.38 75.79 308.86 76.21Q308.34 76.63 307.68 77.18Q307.02 77.74 306.45 78.24L306.45 78.24Q306.30 78.38 306.30 78.48L306.30 78.48Q306.30 78.50 306.33 78.55Q306.35 78.60 306.38 78.65L306.38 78.65Q307.00 79.42 307.72 80.21Q308.44 81 309.05 81.60Q309.66 82.20 309.90 82.44L309.90 82.44Q310.31 82.82 310.83 83.12Q311.34 83.42 311.70 83.54L311.70 83.54Q311.97 83.64 312.20 83.71Q312.42 83.78 312.42 83.98L312.42 83.98Q312.42 84.24 311.94 84.24L311.94 84.24Q311.01 84.24 309.84 84.20Q308.68 84.17 307.46 84.17L307.46 84.17Q307.02 84.17 307.02 83.95L307.02 83.95Q307.02 83.81 307.14 83.71Q307.26 83.62 307.43 83.57L307.43 83.57Q307.70 83.47 307.89 83.35Q308.08 83.23 308.08 83.02L308.08 83.02Q308.08 82.94 308.03 82.86Q307.98 82.78 307.91 82.68L307.91 82.68L305.01 79.39Q304.86 79.22 304.77 79.22L304.77 79.22Q304.65 79.22 304.65 79.39L304.65 79.39Q304.62 79.73 304.62 80.12Q304.62 80.52 304.62 80.93L304.62 80.93Q304.62 81.34 304.62 81.77Q304.62 82.20 304.65 82.61L304.65 82.61Q304.65 83.09 304.89 83.28Q305.13 83.47 305.49 83.59L305.49 83.59Q305.68 83.66 305.86 83.72Q306.04 83.78 306.04 83.98L306.04 83.98Q306.04 84.14 305.81 84.19Q305.58 84.24 305.49 84.24L305.49 84.24Q305.03 84.24 304.82 84.20Q304.60 84.17 304.42 84.14Q304.24 84.12 303.81 84.12L303.81 84.12Q303.40 84.12 303.16 84.14Q302.92 84.17 302.67 84.20Q302.42 84.24 301.94 84.24ZM313.24 84.24L313.24 84.24Q313.02 84.24 312.89 84.18Q312.76 84.12 312.76 83.98L312.76 83.98Q312.76 83.78 312.94 83.71Q313.12 83.64 313.31 83.59L313.31 83.59Q313.82 83.47 314.08 83.29Q314.34 83.11 314.34 82.68L314.34 82.68L314.34 77.47Q314.34 76.82 314.12 76.32Q313.89 75.82 313.26 75.72L313.26 75.72Q313.14 75.70 313.08 75.62Q313.02 75.55 313.02 75.41L313.02 75.41Q313.02 75.14 313.24 75.12L313.24 75.12Q314.20 74.90 314.82 74.53Q315.45 74.16 315.76 73.92L315.76 73.92Q315.98 73.75 316.10 73.75L316.10 73.75Q316.24 73.75 316.24 73.87L316.24 73.87Q316.24 74.06 316.18 74.63Q316.12 75.19 316.07 75.88Q316.02 76.56 316.02 77.11L316.02 77.11L316.02 82.68Q316.02 83.09 316.30 83.28Q316.58 83.47 317.06 83.59L317.06 83.59Q317.25 83.64 317.43 83.71Q317.61 83.78 317.61 83.98L317.61 83.98Q317.61 84.24 317.13 84.24L317.13 84.24Q316.67 84.24 316.40 84.20Q316.12 84.17 315.87 84.14Q315.62 84.12 315.18 84.12L315.18 84.12Q314.78 84.12 314.51 84.14Q314.25 84.17 313.98 84.20Q313.72 84.24 313.24 84.24ZM315.16 71.78L315.16 71.78Q314.66 71.78 314.31 71.44Q313.96 71.09 313.96 70.58L313.96 70.58Q313.96 70.06 314.31 69.71Q314.66 69.36 315.16 69.36L315.16 69.36Q315.69 69.36 316.04 69.71Q316.38 70.06 316.38 70.58L316.38 70.58Q316.38 71.09 316.04 71.44Q315.69 71.78 315.16 71.78ZM319.12 84.24L319.12 84.24Q318.90 84.24 318.77 84.18Q318.64 84.12 318.64 83.98L318.64 83.98Q318.64 83.78 318.78 83.72Q318.93 83.66 319.19 83.59L319.19 83.59Q319.55 83.50 319.89 83.33Q320.22 83.16 320.22 82.68L320.22 82.68L320.22 77.52Q320.22 76.87 320.09 76.42Q319.96 75.96 319.34 75.79L319.34 75.79Q319.24 75.74 319.17 75.68Q319.10 75.62 319.10 75.48L319.10 75.48Q319.10 75.22 319.31 75.19L319.31 75.19Q320.15 74.98 320.68 74.66Q321.21 74.35 321.71 73.97L321.71 73.97Q321.78 73.92 321.84 73.88Q321.90 73.85 321.98 73.85L321.98 73.85Q322.02 73.85 322.06 73.90Q322.10 73.94 322.10 74.02L322.10 74.02Q322.10 74.18 322.04 74.70Q321.98 75.22 321.98 75.55L321.98 75.55Q321.98 75.65 321.99 75.73Q322.00 75.82 322.02 75.84L322.02 75.84Q322.86 75.05 323.81 74.64Q324.76 74.23 325.89 74.23L325.89 74.23Q327.06 74.23 327.83 75.19Q328.60 76.15 328.60 77.57L328.60 77.57L328.60 82.68Q328.60 83.16 328.94 83.32Q329.27 83.47 329.63 83.59L329.63 83.59Q329.82 83.66 330.00 83.75Q330.18 83.83 330.18 84.02L330.18 84.02Q330.18 84.17 330.02 84.20Q329.85 84.24 329.70 84.24L329.70 84.24Q329.22 84.24 328.96 84.20Q328.70 84.17 328.46 84.14Q328.22 84.12 327.78 84.12L327.78 84.12Q327.38 84.12 327.11 84.14Q326.85 84.17 326.57 84.20Q326.30 84.24 325.82 84.24L325.82 84.24Q325.70 84.24 325.52 84.20Q325.34 84.17 325.34 84.02L325.34 84.02Q325.34 83.83 325.52 83.75Q325.70 83.66 325.89 83.59L325.89 83.59Q326.25 83.47 326.58 83.32Q326.92 83.16 326.92 82.68L326.92 82.68L326.92 77.64Q326.92 76.58 326.33 76.00Q325.74 75.41 324.76 75.38L324.76 75.38Q323.90 75.38 323.25 75.66Q322.60 75.94 322.10 76.34L322.10 76.34Q322.00 76.44 321.95 76.60Q321.90 76.75 321.90 76.90L321.90 76.90L321.90 82.68Q321.90 83.16 322.24 83.33Q322.58 83.50 322.94 83.59L322.94 83.59Q323.49 83.74 323.49 83.98L323.49 83.98Q323.49 84.12 323.37 84.18Q323.25 84.24 323.01 84.24L323.01 84.24Q322.53 84.24 322.25 84.20Q321.98 84.17 321.74 84.14Q321.50 84.12 321.06 84.12L321.06 84.12Q320.66 84.12 320.40 84.14Q320.15 84.17 319.88 84.20Q319.60 84.24 319.12 84.24ZM335.42 91.13L335.42 91.13Q333.38 91.13 332.19 90.35Q331.00 89.57 331.00 88.25L331.00 88.25Q331.00 87.62 331.19 87.19Q331.38 86.76 331.79 86.45L331.79 86.45Q332.13 86.16 332.69 85.72Q333.26 85.27 333.86 84.79L333.86 84.79L334.86 84.84Q333.71 85.58 333.26 86.26Q332.80 86.93 332.80 87.89L332.80 87.89Q332.80 88.85 333.65 89.51Q334.50 90.17 335.75 90.17L335.75 90.17Q337.17 90.17 338.03 89.52L338.03 89.52Q338.63 89.06 338.97 88.33Q339.30 87.60 339.30 86.78L339.30 86.78Q339.30 86.26 338.93 85.91Q338.56 85.56 337.77 85.34Q336.98 85.13 335.70 85.06L335.70 85.06Q333.45 84.89 332.57 84.46Q331.70 84.02 331.70 83.11L331.70 83.11Q331.70 82.87 331.83 82.67Q331.96 82.46 332.25 82.22L332.25 82.22Q332.80 81.79 333.06 81.59Q333.33 81.38 333.46 81.24Q333.59 81.10 333.71 80.88L333.71 80.88L334.53 81.29Q334.00 81.48 333.64 81.80Q333.28 82.13 333.28 82.39L333.28 82.39Q333.28 82.73 333.64 82.98Q334.00 83.23 334.70 83.38Q335.39 83.52 336.40 83.59L336.40 83.59Q338.61 83.71 339.69 84.31Q340.77 84.91 340.77 86.02L340.77 86.02Q340.77 86.95 340.30 87.85Q339.83 88.75 339.06 89.50Q338.30 90.24 337.35 90.68Q336.40 91.13 335.42 91.13ZM335.70 80.78L335.70 80.78Q336.62 80.78 337.22 79.86Q337.82 78.94 337.82 77.57L337.82 77.57Q337.82 76.87 337.49 76.26Q337.17 75.65 336.65 75.28Q336.14 74.90 335.54 74.90L335.54 74.90Q334.98 74.90 334.49 75.30Q334.00 75.70 333.70 76.32Q333.40 76.94 333.40 77.69L333.40 77.69Q333.40 78.53 333.71 79.24Q334.02 79.94 334.55 80.36Q335.08 80.78 335.70 80.78ZM335.56 81.62L335.56 81.62Q334.58 81.62 333.69 81.12Q332.80 80.62 332.24 79.79Q331.67 78.96 331.67 77.98L331.67 77.98Q331.67 76.85 332.26 76.00Q332.85 75.14 333.81 74.66Q334.77 74.18 335.85 74.18L335.85 74.18Q336.54 74.18 337.06 74.36Q337.58 74.54 338.08 74.69L338.08 74.69Q338.66 74.86 338.99 74.89Q339.33 74.93 339.69 74.93L339.69 74.93Q339.98 74.93 340.41 74.89Q340.84 74.86 341.01 74.86L341.01 74.86Q341.32 74.86 341.32 75.22L341.32 75.22Q341.32 75.43 341.08 75.67L341.08 75.67Q340.96 75.79 340.89 75.79L340.89 75.79L340.24 75.79Q339.59 75.79 339.52 75.98L339.52 75.98Q339.50 76.08 339.46 76.26Q339.42 76.44 339.40 76.66Q339.38 76.87 339.38 77.09L339.38 77.09Q339.38 78.31 338.85 79.34Q338.32 80.38 337.46 81Q336.59 81.62 335.56 81.62Z"/>
    <path fill="#e2e8f0" d="M45.11 114.53L45.11 114.53Q43.91 114.53 42.94 113.92Q41.97 113.30 41.40 112.24Q40.84 111.17 40.84 109.85L40.84 109.85Q40.84 108.29 41.52 107.02Q42.21 105.74 43.36 104.99Q44.51 104.23 45.90 104.23L45.90 104.23Q47.46 104.23 48.64 105.07L48.64 105.07Q48.93 105.29 48.93 105.53L48.93 105.53Q48.93 105.72 48.76 105.96Q48.59 106.20 48.35 106.36Q48.11 106.51 47.90 106.51L47.90 106.51Q47.78 106.51 47.66 106.43Q47.54 106.34 47.39 106.25L47.39 106.25Q46.86 105.84 46.22 105.48Q45.57 105.12 45.14 105.12L45.14 105.12Q43.96 105.12 43.23 106.21Q42.50 107.30 42.50 109.08L42.50 109.08Q42.50 110.21 42.99 111.12Q43.48 112.03 44.31 112.56Q45.14 113.09 46.14 113.09L46.14 113.09Q46.84 113.09 47.34 112.86Q47.85 112.63 48.42 112.06L48.42 112.06Q48.47 112.01 48.54 111.97Q48.62 111.94 48.66 111.94L48.66 111.94Q48.93 111.94 48.93 112.27L48.93 112.27Q48.93 112.42 48.84 112.60Q48.76 112.78 48.57 113.02L48.57 113.02Q48.18 113.50 47.66 113.84Q47.13 114.19 46.49 114.36Q45.86 114.53 45.11 114.53ZM55.38 114.50L55.38 114.50Q54.04 114.50 52.96 113.88Q51.88 113.26 51.24 112.16Q50.61 111.07 50.61 109.68L50.61 109.68Q50.61 108.67 51.00 107.71Q51.40 106.75 52.12 105.96Q52.84 105.17 53.80 104.70Q54.76 104.23 55.86 104.23L55.86 104.23Q57.26 104.23 58.37 104.90Q59.49 105.58 60.15 106.67Q60.81 107.76 60.81 109.06L60.81 109.06Q60.81 110.45 60.20 111.70Q59.58 112.94 58.38 113.72Q57.18 114.50 55.38 114.50ZM55.89 113.78L55.89 113.78Q56.70 113.78 57.35 113.47Q58 113.16 58.36 112.46L58.36 112.46Q58.65 111.91 58.74 111.12Q58.84 110.33 58.84 109.63L58.84 109.63Q58.84 108.48 58.42 107.41Q58 106.34 57.24 105.66Q56.49 104.98 55.46 104.98L55.46 104.98Q54.81 104.98 54.29 105.18Q53.78 105.38 53.34 105.94L53.34 105.94Q52.86 106.54 52.72 107.40Q52.58 108.26 52.58 109.13L52.58 109.13Q52.58 110.30 53.01 111.37Q53.44 112.44 54.18 113.11Q54.93 113.78 55.89 113.78ZM70.22 114.62L70.22 114.62Q70.17 114.62 70.06 114.53Q69.95 114.43 69.95 114.38L69.95 114.38Q69.95 114.14 70.01 113.70Q70.07 113.26 70.07 112.94L70.07 112.94L70.07 112.80Q69.71 113.35 68.92 113.93Q68.13 114.50 66.93 114.50L66.93 114.50Q65.56 114.50 64.56 113.78Q63.57 113.06 63.03 111.94Q62.49 110.81 62.49 109.61L62.49 109.61Q62.49 108.22 63.14 106.99Q63.78 105.77 65.00 105Q66.21 104.23 67.89 104.23L67.89 104.23Q68.37 104.23 68.86 104.32Q69.35 104.40 69.62 104.50L69.62 104.50Q69.83 104.57 69.93 104.57L69.93 104.57Q70.10 104.57 70.10 103.99L70.10 103.99L70.10 100.58Q70.10 99.60 69.78 99.26Q69.47 98.93 68.90 98.83L68.90 98.83Q68.68 98.78 68.68 98.52L68.68 98.52Q68.68 98.30 68.87 98.23L68.87 98.23Q69.93 97.97 70.53 97.73Q71.13 97.49 71.46 97.34L71.46 97.34Q71.56 97.30 71.64 97.28Q71.73 97.27 71.78 97.27L71.78 97.27Q71.92 97.27 71.94 97.42L71.94 97.42Q71.94 97.56 71.91 97.91Q71.87 98.26 71.82 98.93Q71.78 99.60 71.78 100.68L71.78 100.68L71.78 111.53Q71.78 112.34 71.90 112.72Q72.02 113.09 72.28 113.09L72.28 113.09Q72.40 113.09 72.70 113.06Q73 113.04 73.31 113.02L73.31 113.02Q73.74 112.99 73.74 113.23L73.74 113.23Q73.74 113.40 73.64 113.53Q73.53 113.66 73.41 113.66L73.41 113.66Q72.74 113.76 72.09 113.94Q71.44 114.12 70.60 114.48L70.60 114.48Q70.41 114.58 70.35 114.60Q70.29 114.62 70.22 114.62ZM67.79 113.26L67.79 113.26Q68.42 113.26 69.02 112.93Q69.62 112.61 70.07 112.08L70.07 112.08L70.10 107.76Q70.10 107.11 69.72 106.49Q69.35 105.86 68.69 105.47Q68.03 105.07 67.14 105.07L67.14 105.07Q66.59 105.07 65.90 105.41Q65.20 105.74 64.70 106.60Q64.19 107.45 64.19 109.06L64.19 109.06Q64.19 110.42 64.60 111.25Q65.01 112.08 65.60 112.51Q66.18 112.94 66.80 113.10Q67.41 113.26 67.79 113.26ZM78.90 114.53L78.90 114.53Q77.58 114.53 76.60 113.88Q75.62 113.23 75.06 112.04Q74.51 110.86 74.51 109.30L74.51 109.30Q74.51 107.90 75.15 106.76Q75.78 105.62 76.84 104.93Q77.90 104.23 79.14 104.23L79.14 104.23Q80.10 104.23 80.85 104.62Q81.59 105 82.01 105.68Q82.43 106.37 82.43 107.26L82.43 107.26Q82.43 108 81.71 108L81.71 108L76.65 108Q76.31 108 76.18 108.18Q76.05 108.36 76.05 108.89L76.05 108.89Q76.05 110.04 76.55 110.99Q77.06 111.94 77.90 112.50Q78.74 113.06 79.74 113.06L79.74 113.06Q80.46 113.06 81.05 112.79Q81.64 112.51 82.10 111.98L82.10 111.98Q82.19 111.86 82.24 111.83Q82.29 111.79 82.36 111.79L82.36 111.79Q82.55 111.79 82.55 112.03L82.55 112.03Q82.55 112.49 82.12 113.04L82.12 113.04Q81.76 113.50 81.26 113.83Q80.75 114.17 80.15 114.35Q79.55 114.53 78.90 114.53ZM76.70 107.26L76.70 107.26L78.88 107.26Q79.46 107.26 79.86 107.23Q80.27 107.21 80.66 107.14L80.66 107.14Q80.78 107.11 80.81 106.98Q80.85 106.85 80.85 106.61L80.85 106.61Q80.85 105.91 80.24 105.42Q79.62 104.93 78.78 104.93L78.78 104.93Q78.23 104.93 77.68 105.25Q77.13 105.58 76.77 106.06Q76.41 106.54 76.41 107.02L76.41 107.02Q76.41 107.26 76.70 107.26ZM93.38 114.72L93.38 114.72Q93.33 114.72 93.28 114.67Q93.23 114.62 93.21 114.55L93.21 114.55L89.87 106.27Q89.70 105.79 89.34 105.49Q88.98 105.19 88.62 105.10L88.62 105.10Q88.43 105.02 88.25 104.93Q88.07 104.83 88.07 104.66L88.07 104.66Q88.07 104.52 88.25 104.48Q88.43 104.45 88.55 104.45L88.55 104.45Q88.86 104.45 89.14 104.47Q89.42 104.50 89.70 104.53Q89.99 104.57 90.30 104.57L90.30 104.57Q90.64 104.57 90.98 104.53Q91.31 104.50 91.64 104.47Q91.96 104.45 92.30 104.45L92.30 104.45Q92.39 104.45 92.58 104.48Q92.78 104.52 92.78 104.66L92.78 104.66Q92.78 104.83 92.60 104.93Q92.42 105.02 92.22 105.10L92.22 105.10Q91.98 105.17 91.85 105.44Q91.72 105.72 91.72 106.06L91.72 106.06Q91.72 106.37 91.84 106.68L91.84 106.68L93.71 111.50Q93.74 111.60 93.83 111.60L93.83 111.60Q93.93 111.60 93.95 111.50L93.95 111.50L95.58 107.62Q95.70 107.30 95.74 107.02Q95.78 106.73 95.78 106.46L95.78 106.46Q95.78 105.94 95.37 105.60Q94.96 105.26 94.55 105.10L94.55 105.10Q94.36 105.02 94.18 104.93Q94 104.83 94 104.66L94 104.66Q94 104.52 94.17 104.48Q94.34 104.45 94.48 104.45L94.48 104.45Q94.82 104.45 95.21 104.51Q95.61 104.57 96.28 104.57L96.28 104.57Q96.95 104.57 97.43 104.51Q97.91 104.45 98.30 104.45L98.30 104.45Q98.42 104.45 98.60 104.48Q98.78 104.52 98.78 104.66L98.78 104.66Q98.78 104.83 98.60 104.93Q98.42 105.02 98.22 105.10L98.22 105.10Q97.96 105.19 97.68 105.36Q97.41 105.53 97.41 105.96L97.41 105.96Q97.41 106.10 97.44 106.28Q97.48 106.46 97.58 106.68L97.58 106.68L99.38 111.31Q99.50 111.58 99.57 111.58L99.57 111.58Q99.66 111.58 99.76 111.34L99.76 111.34L101.58 107.09Q101.68 106.90 101.72 106.61Q101.75 106.32 101.75 106.15L101.75 106.15Q101.75 105.72 101.46 105.46Q101.18 105.19 100.91 105.10L100.91 105.10Q100.72 105.02 100.54 104.93Q100.36 104.83 100.36 104.66L100.36 104.66Q100.36 104.52 100.54 104.48Q100.72 104.45 100.84 104.45L100.84 104.45Q101.37 104.45 101.68 104.51Q101.99 104.57 102.64 104.57L102.64 104.57Q103.10 104.57 103.29 104.53Q103.48 104.50 103.62 104.47Q103.77 104.45 104.03 104.45L104.03 104.45Q104.18 104.45 104.34 104.48Q104.51 104.52 104.51 104.66L104.51 104.66Q104.51 104.83 104.33 104.93Q104.15 105.02 103.96 105.10L103.96 105.10Q103.60 105.19 103.26 105.66Q102.93 106.13 102.69 106.68L102.69 106.68L99.40 114.55Q99.33 114.72 99.18 114.72L99.18 114.72Q99.09 114.72 98.99 114.55L98.99 114.55L96.50 108.36Q96.42 108.17 96.35 108.14L96.35 108.14Q96.28 108.14 96.18 108.38L96.18 108.38L93.57 114.55Q93.50 114.72 93.38 114.72ZM110.01 114.50L110.01 114.50Q108.66 114.50 107.58 113.88Q106.50 113.26 105.87 112.16Q105.23 111.07 105.23 109.68L105.23 109.68Q105.23 108.67 105.63 107.71Q106.02 106.75 106.74 105.96Q107.46 105.17 108.42 104.70Q109.38 104.23 110.49 104.23L110.49 104.23Q111.88 104.23 113.00 104.90Q114.11 105.58 114.77 106.67Q115.43 107.76 115.43 109.06L115.43 109.06Q115.43 110.45 114.82 111.70Q114.21 112.94 113.01 113.72Q111.81 114.50 110.01 114.50ZM110.51 113.78L110.51 113.78Q111.33 113.78 111.98 113.47Q112.62 113.16 112.98 112.46L112.98 112.46Q113.27 111.91 113.37 111.12Q113.46 110.33 113.46 109.63L113.46 109.63Q113.46 108.48 113.04 107.41Q112.62 106.34 111.87 105.66Q111.11 104.98 110.08 104.98L110.08 104.98Q109.43 104.98 108.92 105.18Q108.40 105.38 107.97 105.94L107.97 105.94Q107.49 106.54 107.34 107.40Q107.20 108.26 107.20 109.13L107.20 109.13Q107.20 110.30 107.63 111.37Q108.06 112.44 108.81 113.11Q109.55 113.78 110.51 113.78ZM117.45 114.24L117.45 114.24Q117.21 114.24 117.09 114.18Q116.97 114.12 116.97 113.98L116.97 113.98Q116.97 113.78 117.11 113.72Q117.26 113.66 117.52 113.59L117.52 113.59Q117.98 113.47 118.20 113.24Q118.43 113.02 118.43 112.68L118.43 112.68L118.43 107.52Q118.43 106.87 118.24 106.39Q118.05 105.91 117.45 105.79L117.45 105.79Q117.35 105.77 117.28 105.67Q117.21 105.58 117.21 105.48L117.21 105.48Q117.21 105.24 117.42 105.19L117.42 105.19Q118.05 105 118.73 104.63Q119.42 104.26 119.80 104.02L119.80 104.02Q119.94 103.92 120.03 103.88Q120.11 103.85 120.16 103.85L120.16 103.85Q120.28 103.85 120.28 104.02L120.28 104.02Q120.28 104.09 120.27 104.38Q120.26 104.66 120.24 105.05Q120.23 105.43 120.21 105.82L120.21 105.82Q120.21 105.86 120.26 105.86L120.26 105.86Q120.64 105.38 121.11 105.02Q121.58 104.66 122.07 104.45Q122.56 104.23 123.02 104.23L123.02 104.23Q123.52 104.23 123.84 104.45Q124.17 104.66 124.17 105L124.17 105Q124.17 105.24 124.04 105.53Q123.90 105.82 123.69 106.03Q123.47 106.25 123.23 106.25L123.23 106.25Q123.09 106.25 122.92 106.19Q122.75 106.13 122.56 106.03L122.56 106.03Q122.37 105.96 122.18 105.89Q121.98 105.82 121.79 105.82L121.79 105.82Q121.22 105.82 120.68 106.22Q120.14 106.63 120.14 107.83L120.14 107.83L120.14 112.68Q120.14 112.99 120.47 113.20Q120.81 113.40 121.41 113.59L121.41 113.59Q121.67 113.66 121.82 113.74Q121.96 113.81 121.96 113.98L121.96 113.98Q121.96 114.24 121.48 114.24L121.48 114.24Q120.76 114.24 120.39 114.18Q120.02 114.12 119.39 114.12L119.39 114.12Q118.98 114.12 118.73 114.14Q118.48 114.17 118.20 114.20Q117.93 114.24 117.45 114.24ZM125.30 114.24L125.30 114.24Q124.74 114.24 124.74 113.98L124.74 113.98Q124.74 113.78 124.92 113.72Q125.10 113.66 125.30 113.59L125.30 113.59Q125.66 113.47 125.99 113.28Q126.33 113.09 126.33 112.61L126.33 112.61L126.33 100.58Q126.33 99.74 126.09 99.36Q125.85 98.98 125.25 98.83L125.25 98.83Q125.03 98.78 125.03 98.52L125.03 98.52Q125.03 98.28 125.22 98.23L125.22 98.23Q125.85 98.09 126.30 97.93Q126.76 97.78 127.13 97.62Q127.50 97.46 127.86 97.32L127.86 97.32Q128.01 97.25 128.08 97.25L128.08 97.25Q128.15 97.25 128.19 97.30Q128.22 97.34 128.22 97.46L128.22 97.46Q128.22 97.70 128.12 98.42Q128.01 99.14 128.01 100.68L128.01 100.68L128.01 108.55Q128.01 108.77 128.13 108.77L128.13 108.77Q128.27 108.77 128.50 108.65Q128.73 108.53 128.99 108.29L128.99 108.29Q129.98 107.45 130.64 106.76Q131.30 106.08 131.54 105.82L131.54 105.82Q131.66 105.67 131.70 105.59Q131.75 105.50 131.75 105.46L131.75 105.46Q131.75 105.34 131.55 105.24Q131.34 105.14 131.13 105.10L131.13 105.10Q130.84 105.02 130.84 104.86L130.84 104.86Q130.84 104.74 130.98 104.65Q131.13 104.57 131.37 104.57L131.37 104.57L132.54 104.57Q132.93 104.57 133.35 104.50Q133.77 104.42 134.14 104.35Q134.51 104.28 134.73 104.28L134.73 104.28Q135.06 104.28 135.06 104.52L135.06 104.52Q135.06 104.66 134.90 104.77Q134.73 104.88 134.46 104.95L134.46 104.95Q134.01 105.07 133.61 105.29Q133.22 105.50 132.88 105.70L132.88 105.70Q132.74 105.79 132.22 106.21Q131.70 106.63 131.04 107.18Q130.38 107.74 129.81 108.24L129.81 108.24Q129.66 108.38 129.66 108.48L129.66 108.48Q129.66 108.50 129.69 108.55Q129.71 108.60 129.74 108.65L129.74 108.65Q130.36 109.42 131.08 110.21Q131.80 111 132.41 111.60Q133.02 112.20 133.26 112.44L133.26 112.44Q133.67 112.82 134.19 113.12Q134.70 113.42 135.06 113.54L135.06 113.54Q135.33 113.64 135.56 113.71Q135.78 113.78 135.78 113.98L135.78 113.98Q135.78 114.24 135.30 114.24L135.30 114.24Q134.37 114.24 133.20 114.20Q132.04 114.17 130.82 114.17L130.82 114.17Q130.38 114.17 130.38 113.95L130.38 113.95Q130.38 113.81 130.50 113.71Q130.62 113.62 130.79 113.57L130.79 113.57Q131.06 113.47 131.25 113.35Q131.44 113.23 131.44 113.02L131.44 113.02Q131.44 112.94 131.39 112.86Q131.34 112.78 131.27 112.68L131.27 112.68L128.37 109.39Q128.22 109.22 128.13 109.22L128.13 109.22Q128.01 109.22 128.01 109.39L128.01 109.39Q127.98 109.73 127.98 110.12Q127.98 110.52 127.98 110.93L127.98 110.93Q127.98 111.34 127.98 111.77Q127.98 112.20 128.01 112.61L128.01 112.61Q128.01 113.09 128.25 113.28Q128.49 113.47 128.85 113.59L128.85 113.59Q129.04 113.66 129.22 113.72Q129.40 113.78 129.40 113.98L129.40 113.98Q129.40 114.14 129.17 114.19Q128.94 114.24 128.85 114.24L128.85 114.24Q128.39 114.24 128.18 114.20Q127.96 114.17 127.78 114.14Q127.60 114.12 127.17 114.12L127.17 114.12Q126.76 114.12 126.52 114.14Q126.28 114.17 126.03 114.20Q125.78 114.24 125.30 114.24ZM138.30 114.50L138.30 114.50Q137.78 114.50 137.38 114.11Q136.98 113.71 136.98 113.18L136.98 113.18Q136.98 112.63 137.38 112.25Q137.78 111.86 138.30 111.86L138.30 111.86Q138.86 111.86 139.24 112.25Q139.62 112.63 139.62 113.18L139.62 113.18Q139.62 113.71 139.24 114.11Q138.86 114.50 138.30 114.50ZM143.82 114.50L143.82 114.50Q143.30 114.50 142.90 114.11Q142.50 113.71 142.50 113.18L142.50 113.18Q142.50 112.63 142.90 112.25Q143.30 111.86 143.82 111.86L143.82 111.86Q144.38 111.86 144.76 112.25Q145.14 112.63 145.14 113.18L145.14 113.18Q145.14 113.71 144.76 114.11Q144.38 114.50 143.82 114.50ZM149.34 114.50L149.34 114.50Q148.82 114.50 148.42 114.11Q148.02 113.71 148.02 113.18L148.02 113.18Q148.02 112.63 148.42 112.25Q148.82 111.86 149.34 111.86L149.34 111.86Q149.90 111.86 150.28 112.25Q150.66 112.63 150.66 113.18L150.66 113.18Q150.66 113.71 150.28 114.11Q149.90 114.50 149.34 114.50Z"/>
  </svg>