<svg viewBox="0 0 800 150" width="100%" xmlns="http://www.w3.org/2000/svg">
    <rect width="800" height="150" fill="#0d1117" rx="8" />
    <rect width="800" height="150" fill="none" stroke="#581c87" stroke-width="2" stroke-opacity="0.2" rx="8" />
    
      <g transform="translate(150, 75)">
        <animateTransform attributeName="transform" type="rotate" from="360 0 0" to="0 0 0" dur="45s" repeatCount="indefinite" />
        <circle r="60" fill="none" stroke="#581c87" stroke-width="2" opacity="0.5" />
        <path d="M0,-51L48.504,-15.76L29.977,41.26L-29.977,41.26L-48.504,-15.76Z" fill="none" stroke="#581c87" stroke-width="1.5" opacity="0.8" />
        <path d="M29.977,-41.26L48.504,15.76L0,51L-48.504,15.76L-29.977,-41.26Z" fill="none" stroke="#581c87" stroke-width="1.5" opacity="0.8" />
        <circle r="24" fill="none" stroke="#581c87" stroke-width="1" opacity="0.6" stroke-dasharray="2 6" />
      </g>
    
    <path fill="#e2e8f0" d="M281.54 50.16L281.54 50.16Q281.12 50.16 280.86 50.08Q280.61 50 280.61 49.81L280.61 49.81Q280.61 49.42 281.66 49.23L281.66 49.23Q282.88 49.01 283.52 48.50Q284.16 47.98 284.16 46.83L284.16 46.83L284.16 32.43Q284.16 31.28 283.68 30.74Q283.20 30.19 282.02 30.10L282.02 30.10Q281.47 30.03 281.22 29.86Q280.96 29.68 280.96 29.46L280.96 29.46Q280.96 29.26 281.22 29.18Q281.47 29.10 281.89 29.10L281.89 29.10Q282.75 29.10 283.23 29.10Q283.71 29.10 284.14 29.12Q284.58 29.14 285.22 29.14L285.22 29.14Q285.82 29.14 286.27 29.09Q286.72 29.04 287.28 29.01Q287.84 28.98 288.77 28.98L288.77 28.98Q292.51 28.98 294.35 30.05Q296.19 31.12 296.19 33.74L296.19 33.74Q296.19 34.83 295.82 35.65Q295.46 36.46 295.10 36.82L295.10 36.82Q294.59 37.33 294.18 37.60Q293.76 37.87 292.96 38.19L292.96 38.19Q292.83 38.22 292.83 38.34Q292.83 38.45 292.96 38.51L292.96 38.51Q293.70 38.74 294.48 39.09Q295.26 39.44 295.95 40Q296.64 40.56 297.07 41.47Q297.50 42.38 297.50 43.79L297.50 43.79Q297.50 45.55 296.94 46.58Q296.38 47.60 295.62 48.14Q294.85 48.69 294.18 49.04L294.18 49.04Q293.18 49.55 291.87 49.84Q290.56 50.13 288.74 50.13L288.74 50.13Q288.32 50.13 287.49 50.06Q286.66 50 285.70 50L285.70 50Q284.86 50 284.29 50.03Q283.71 50.06 283.09 50.11Q282.46 50.16 281.54 50.16ZM289.18 48.82L289.18 48.82Q290.59 48.82 291.81 48.18Q293.02 47.54 293.76 46.43Q294.50 45.33 294.50 43.95L294.50 43.95Q294.50 42.70 294.08 41.89Q293.66 41.07 293.12 40.56Q292.58 40.05 292.13 39.82L292.13 39.82Q291.71 39.57 290.82 39.30Q289.92 39.02 288.48 39.02L288.48 39.02Q287.46 39.02 287.06 39.44Q286.66 39.86 286.66 40.18L286.66 40.18L286.66 46.54Q286.66 47.89 287.31 48.35Q287.97 48.82 289.18 48.82ZM288.13 38.13L288.13 38.13Q288.99 38.13 290 37.94Q291.01 37.74 292 37.20L292 37.20Q292.35 37.01 292.90 36.27Q293.44 35.54 293.44 34.16L293.44 34.16Q293.44 33.23 293.09 32.26Q292.74 31.28 291.74 30.61Q290.75 29.94 288.77 29.94L288.77 29.94Q287.46 29.94 287.06 30.29Q286.66 30.64 286.66 31.38L286.66 31.38L286.66 36.94Q286.66 37.78 287.20 37.95Q287.74 38.13 288.13 38.13ZM302.53 50.45L302.53 50.45Q301.95 50.45 301.36 50Q300.77 49.55 300.37 48.91Q299.97 48.27 299.97 47.70L299.97 47.70Q299.97 46.67 300.51 46.10Q301.06 45.52 302.24 45.04L302.24 45.04L305.50 43.70Q306.14 43.44 306.26 43.25Q306.37 43.06 306.40 42.42L306.40 42.42L306.46 40.37Q306.50 39.54 306 38.93Q305.50 38.32 304.58 38.32L304.58 38.32Q304.10 38.32 303.62 38.48Q303.14 38.64 302.82 38.90L302.82 38.90Q302.62 39.02 302.56 39.28Q302.50 39.54 302.50 39.82L302.50 39.82Q302.50 39.95 302.51 40.11Q302.53 40.27 302.53 40.40L302.53 40.40Q302.53 40.56 302.13 40.83Q301.73 41.10 301.23 41.31Q300.74 41.52 300.42 41.52L300.42 41.52Q300.26 41.52 300.16 41.44Q300.06 41.36 300.06 41.23L300.06 41.23Q300.06 40.72 300.40 40.13Q300.74 39.54 301.34 39.02L301.34 39.02Q302.08 38.35 302.94 37.84Q303.81 37.33 304.64 37.04Q305.47 36.75 306.11 36.75L306.11 36.75Q307.26 36.75 308.02 37.57Q308.77 38.38 308.74 39.60L308.74 39.60L308.58 47.28Q308.54 47.95 308.88 48.37Q309.22 48.78 309.73 48.78L309.73 48.78Q310.53 48.78 310.91 48.43L310.91 48.43Q311.07 48.27 311.17 48.27L311.17 48.27Q311.33 48.27 311.42 48.37Q311.52 48.46 311.52 48.62L311.52 48.62Q311.52 48.98 311.17 49.33L311.17 49.33Q310.66 49.84 310.06 50.14Q309.47 50.45 308.96 50.45L308.96 50.45Q307.49 50.45 306.62 48.78L306.62 48.78L306.53 48.78Q305.47 49.65 304.51 50.05Q303.55 50.45 302.53 50.45ZM304.03 48.91L304.03 48.91Q304.67 48.91 305.12 48.70Q305.57 48.50 305.92 48.14L305.92 48.14Q306.08 47.98 306.19 47.71Q306.30 47.44 306.34 46.83L306.34 46.83L306.40 45.26Q306.43 44.91 306.37 44.75Q306.30 44.59 306.11 44.59L306.11 44.59Q306.05 44.59 305.89 44.62Q305.73 44.66 305.47 44.75L305.47 44.75Q303.78 45.36 303.12 46.02Q302.46 46.67 302.46 47.22L302.46 47.22Q302.46 48.05 302.96 48.48Q303.46 48.91 304.03 48.91ZM318.37 50.48L318.37 50.48Q316.77 50.48 315.47 49.66Q314.18 48.85 313.42 47.42Q312.67 46 312.67 44.24L312.67 44.24Q312.67 42.16 313.58 40.46Q314.50 38.77 316.03 37.76Q317.57 36.75 319.42 36.75L319.42 36.75Q321.50 36.75 323.07 37.87L323.07 37.87Q323.46 38.16 323.46 38.48L323.46 38.48Q323.46 38.74 323.23 39.06Q323.01 39.38 322.69 39.58Q322.37 39.79 322.08 39.79L322.08 39.79Q321.92 39.79 321.76 39.68Q321.60 39.57 321.41 39.44L321.41 39.44Q320.70 38.90 319.84 38.42Q318.98 37.94 318.40 37.94L318.40 37.94Q316.83 37.94 315.86 39.39Q314.88 40.85 314.88 43.22L314.88 43.22Q314.88 44.72 315.54 45.94Q316.19 47.15 317.30 47.86Q318.40 48.56 319.74 48.56L319.74 48.56Q320.67 48.56 321.34 48.26Q322.02 47.95 322.78 47.18L322.78 47.18Q322.85 47.12 322.94 47.07Q323.04 47.02 323.10 47.02L323.10 47.02Q323.46 47.02 323.46 47.47L323.46 47.47Q323.46 47.66 323.34 47.90Q323.23 48.14 322.98 48.46L322.98 48.46Q322.46 49.10 321.76 49.57Q321.06 50.03 320.21 50.26Q319.36 50.48 318.37 50.48ZM325.92 50.10L325.92 50.10Q325.18 50.10 325.18 49.74L325.18 49.74Q325.18 49.49 325.42 49.41Q325.66 49.33 325.92 49.23L325.92 49.23Q326.40 49.07 326.85 48.82Q327.30 48.56 327.30 47.92L327.30 47.92L327.30 31.89Q327.30 30.77 326.98 30.26Q326.66 29.74 325.86 29.55L325.86 29.55Q325.57 29.49 325.57 29.14L325.57 29.14Q325.57 28.82 325.82 28.75L325.82 28.75Q326.66 28.56 327.26 28.35Q327.87 28.14 328.37 27.94Q328.86 27.73 329.34 27.54L329.34 27.54Q329.54 27.44 329.63 27.44L329.63 27.44Q329.73 27.44 329.78 27.50Q329.82 27.57 329.82 27.73L329.82 27.73Q329.82 28.05 329.68 29.01Q329.54 29.97 329.54 32.02L329.54 32.02L329.54 42.51Q329.54 42.80 329.70 42.80L329.70 42.80Q329.89 42.80 330.19 42.64Q330.50 42.48 330.85 42.16L330.85 42.16Q332.16 41.04 333.04 40.13Q333.92 39.22 334.24 38.86L334.24 38.86Q334.40 38.67 334.46 38.56Q334.53 38.45 334.53 38.38L334.53 38.38Q334.53 38.22 334.26 38.10Q333.98 37.97 333.70 37.90L333.70 37.90Q333.31 37.81 333.31 37.58L333.31 37.58Q333.31 37.42 333.50 37.31Q333.70 37.20 334.02 37.20L334.02 37.20L335.58 37.20Q336.10 37.20 336.66 37.10Q337.22 37.01 337.71 36.91Q338.21 36.82 338.50 36.82L338.50 36.82Q338.94 36.82 338.94 37.14L338.94 37.14Q338.94 37.33 338.72 37.47Q338.50 37.62 338.14 37.71L338.14 37.71Q337.54 37.87 337.01 38.16Q336.48 38.45 336.03 38.70L336.03 38.70Q335.84 38.83 335.15 39.39Q334.46 39.95 333.58 40.69Q332.70 41.42 331.94 42.10L331.94 42.10Q331.74 42.29 331.74 42.42L331.74 42.42Q331.74 42.45 331.78 42.51Q331.81 42.58 331.84 42.64L331.84 42.64Q332.67 43.66 333.63 44.72Q334.59 45.78 335.41 46.58Q336.22 47.38 336.54 47.70L336.54 47.70Q337.09 48.21 337.78 48.61Q338.46 49.01 338.94 49.17L338.94 49.17Q339.30 49.30 339.60 49.39Q339.90 49.49 339.90 49.74L339.90 49.74Q339.90 50.10 339.26 50.10L339.26 50.10Q338.02 50.10 336.46 50.05Q334.91 50 333.28 50L333.28 50Q332.70 50 332.70 49.71L332.70 49.71Q332.70 49.52 332.86 49.39Q333.02 49.26 333.25 49.20L333.25 49.20Q333.60 49.07 333.86 48.91Q334.11 48.75 334.11 48.46L334.11 48.46Q334.11 48.37 334.05 48.26Q333.98 48.14 333.89 48.02L333.89 48.02L330.02 43.63Q329.82 43.41 329.70 43.41L329.70 43.41Q329.54 43.41 329.54 43.63L329.54 43.63Q329.50 44.08 329.50 44.61Q329.50 45.14 329.50 45.68L329.50 45.68Q329.50 46.22 329.50 46.80Q329.50 47.38 329.54 47.92L329.54 47.92Q329.54 48.56 329.86 48.82Q330.18 49.07 330.66 49.23L330.66 49.23Q330.91 49.33 331.15 49.41Q331.39 49.49 331.39 49.74L331.39 49.74Q331.39 49.97 331.09 50.03Q330.78 50.10 330.66 50.10L330.66 50.10Q330.05 50.10 329.76 50.05Q329.47 50 329.23 49.97Q328.99 49.94 328.42 49.94L328.42 49.94Q327.87 49.94 327.55 49.97Q327.23 50 326.90 50.05Q326.56 50.10 325.92 50.10ZM346.40 50.48L346.40 50.48Q344.64 50.48 343.33 49.62Q342.02 48.75 341.28 47.17Q340.54 45.58 340.54 43.50L340.54 43.50Q340.54 41.65 341.39 40.13Q342.24 38.61 343.65 37.68Q345.06 36.75 346.72 36.75L346.72 36.75Q348 36.75 348.99 37.26Q349.98 37.78 350.54 38.69Q351.10 39.60 351.10 40.78L351.10 40.78Q351.10 41.78 350.14 41.78L350.14 41.78L343.39 41.78Q342.94 41.78 342.77 42.02Q342.59 42.26 342.59 42.96L342.59 42.96Q342.59 44.50 343.26 45.76Q343.94 47.02 345.06 47.78Q346.18 48.53 347.52 48.53L347.52 48.53Q348.48 48.53 349.26 48.16Q350.05 47.79 350.66 47.09L350.66 47.09Q350.78 46.93 350.85 46.88Q350.91 46.83 351.01 46.83L351.01 46.83Q351.26 46.83 351.26 47.15L351.26 47.15Q351.26 47.76 350.69 48.50L350.69 48.50Q350.21 49.10 349.54 49.55Q348.86 50 348.06 50.24Q347.26 50.48 346.40 50.48ZM343.46 40.78L343.46 40.78L346.37 40.78Q347.14 40.78 347.68 40.75Q348.22 40.72 348.74 40.62L348.74 40.62Q348.90 40.59 348.94 40.42Q348.99 40.24 348.99 39.92L348.99 39.92Q348.99 38.99 348.18 38.34Q347.36 37.68 346.24 37.68L346.24 37.68Q345.50 37.68 344.77 38.11Q344.03 38.54 343.55 39.18Q343.07 39.82 343.07 40.46L343.07 40.46Q343.07 40.78 343.46 40.78ZM353.47 50.10L353.47 50.10Q353.18 50.10 353.01 50.02Q352.83 49.94 352.83 49.74L352.83 49.74Q352.83 49.49 353.02 49.41Q353.22 49.33 353.57 49.23L353.57 49.23Q354.05 49.10 354.50 48.88Q354.94 48.66 354.94 48.02L354.94 48.02L354.94 41.14Q354.94 40.27 354.77 39.66Q354.59 39.06 353.76 38.83L353.76 38.83Q353.63 38.77 353.54 38.69Q353.44 38.61 353.44 38.42L353.44 38.42Q353.44 38.06 353.73 38.03L353.73 38.03Q354.85 37.74 355.55 37.33Q356.26 36.91 356.93 36.40L356.93 36.40Q357.02 36.34 357.10 36.29Q357.18 36.24 357.28 36.24L357.28 36.24Q357.34 36.24 357.39 36.30Q357.44 36.37 357.44 36.46L357.44 36.46Q357.44 36.69 357.36 37.38Q357.28 38.06 357.28 38.51L357.28 38.51Q357.28 38.64 357.30 38.75Q357.31 38.86 357.34 38.90L357.34 38.90Q358.46 37.84 359.73 37.30Q360.99 36.75 362.50 36.75L362.50 36.75Q364.06 36.75 365.09 38.03Q366.11 39.31 366.11 41.20L366.11 41.20L366.11 48.02Q366.11 48.66 366.56 48.86Q367.01 49.07 367.49 49.23L367.49 49.23Q367.74 49.33 367.98 49.44Q368.22 49.55 368.22 49.81L368.22 49.81Q368.22 50 368 50.05Q367.78 50.10 367.58 50.10L367.58 50.10Q366.94 50.10 366.59 50.05Q366.24 50 365.92 49.97Q365.60 49.94 365.02 49.94L365.02 49.94Q364.48 49.94 364.13 49.97Q363.78 50 363.41 50.05Q363.04 50.10 362.40 50.10L362.40 50.10Q362.24 50.10 362 50.05Q361.76 50 361.76 49.81L361.76 49.81Q361.76 49.55 362 49.44Q362.24 49.33 362.50 49.23L362.50 49.23Q362.98 49.07 363.42 48.86Q363.87 48.66 363.87 48.02L363.87 48.02L363.87 41.30Q363.87 39.89 363.09 39.10Q362.30 38.32 360.99 38.29L360.99 38.29Q359.84 38.29 358.98 38.66Q358.11 39.02 357.44 39.57L357.44 39.57Q357.31 39.70 357.25 39.90Q357.18 40.11 357.18 40.30L357.18 40.30L357.18 48.02Q357.18 48.66 357.63 48.88Q358.08 49.10 358.56 49.23L358.56 49.23Q359.30 49.42 359.30 49.74L359.30 49.74Q359.30 49.94 359.14 50.02Q358.98 50.10 358.66 50.10L358.66 50.10Q358.02 50.10 357.65 50.05Q357.28 50 356.96 49.97Q356.64 49.94 356.06 49.94L356.06 49.94Q355.52 49.94 355.18 49.97Q354.85 50 354.48 50.05Q354.11 50.10 353.47 50.10ZM380.38 50.61L380.38 50.61Q380.32 50.61 380.18 50.48Q380.03 50.35 380.03 50.29L380.03 50.29Q380.03 49.97 380.11 49.38Q380.19 48.78 380.19 48.37L380.19 48.37L380.19 48.18Q379.71 48.91 378.66 49.68Q377.60 50.45 376.00 50.45L376.00 50.45Q374.18 50.45 372.85 49.49Q371.52 48.53 370.80 47.02Q370.08 45.52 370.08 43.92L370.08 43.92Q370.08 42.06 370.94 40.43Q371.81 38.80 373.42 37.78Q375.04 36.75 377.28 36.75L377.28 36.75Q377.92 36.75 378.58 36.86Q379.23 36.98 379.58 37.10L379.58 37.10Q379.87 37.20 380.00 37.20L380.00 37.20Q380.22 37.20 380.22 36.43L380.22 36.43L380.22 31.89Q380.22 30.58 379.81 30.13Q379.39 29.68 378.62 29.55L378.62 29.55Q378.34 29.49 378.34 29.14L378.34 29.14Q378.34 28.85 378.59 28.75L378.59 28.75Q380.00 28.40 380.80 28.08Q381.60 27.76 382.05 27.57L382.05 27.57Q382.18 27.50 382.29 27.49Q382.40 27.47 382.46 27.47L382.46 27.47Q382.66 27.47 382.69 27.66L382.69 27.66Q382.69 27.86 382.64 28.32Q382.59 28.78 382.53 29.68Q382.46 30.58 382.46 32.02L382.46 32.02L382.46 46.48Q382.46 47.57 382.62 48.06Q382.78 48.56 383.14 48.56L383.14 48.56Q383.30 48.56 383.70 48.53Q384.10 48.50 384.51 48.46L384.51 48.46Q385.09 48.43 385.09 48.75L385.09 48.75Q385.09 48.98 384.94 49.15Q384.80 49.33 384.64 49.33L384.64 49.33Q383.74 49.46 382.88 49.70Q382.02 49.94 380.90 50.42L380.90 50.42Q380.64 50.54 380.56 50.58Q380.48 50.61 380.38 50.61ZM377.15 48.78L377.15 48.78Q377.98 48.78 378.78 48.35Q379.58 47.92 380.19 47.22L380.19 47.22L380.22 41.46Q380.22 40.59 379.73 39.76Q379.23 38.93 378.35 38.40Q377.47 37.87 376.29 37.87L376.29 37.87Q375.55 37.87 374.62 38.32Q373.70 38.77 373.02 39.90Q372.35 41.04 372.35 43.18L372.35 43.18Q372.35 45.01 372.90 46.11Q373.44 47.22 374.22 47.79Q375.01 48.37 375.82 48.58Q376.64 48.78 377.15 48.78ZM393.66 50.16L393.66 50.16Q393.25 50.16 392.99 50.08Q392.74 50 392.74 49.81L392.74 49.81Q392.74 49.42 393.79 49.23L393.79 49.23Q395.01 49.01 395.58 48.50Q396.16 47.98 396.16 46.83L396.16 46.83L396.16 32.43Q396.16 31.28 395.70 30.80Q395.23 30.32 394.02 30.10L394.02 30.10Q393.47 30 393.22 29.84Q392.96 29.68 392.96 29.46L392.96 29.46Q392.96 29.26 393.22 29.18Q393.47 29.10 393.89 29.10L393.89 29.10Q395.10 29.10 395.95 29.14Q396.80 29.17 397.62 29.18Q398.43 29.20 399.55 29.20L399.55 29.20Q400.61 29.20 401.78 29.18Q402.94 29.17 403.94 29.17L403.94 29.17Q405.02 29.14 405.78 29.12Q406.53 29.10 406.66 29.10L406.66 29.10Q406.82 29.10 407.01 29.17Q407.20 29.23 407.23 29.39L407.23 29.39Q407.39 30.29 407.55 31.17Q407.71 32.05 407.71 32.69L407.71 32.69Q407.71 32.98 407.57 33.07Q407.42 33.17 407.26 33.17L407.26 33.17Q407.10 33.17 407.04 33.09Q406.98 33.01 406.91 32.85L406.91 32.85Q406.75 32.30 406.59 31.81Q406.43 31.31 406.21 31.09L406.21 31.09Q405.76 30.58 405.22 30.40Q404.67 30.22 404.06 30.22L404.06 30.22L399.87 30.22Q399.62 30.22 399.17 30.51Q398.72 30.80 398.72 31.25L398.72 31.25L398.72 38.03Q398.72 38.32 398.90 38.53Q399.07 38.74 399.30 38.74L399.30 38.74L402.46 38.74Q403.39 38.74 403.74 38.40Q404.10 38.06 404.32 37.17L404.32 37.17Q404.51 36.46 404.90 36.46L404.90 36.46Q405.02 36.46 405.17 36.59Q405.31 36.72 405.31 36.98L405.31 36.98Q405.31 37.10 405.30 37.55Q405.28 38 405.25 38.48Q405.22 38.96 405.22 39.22L405.22 39.22Q405.22 39.54 405.23 40.06Q405.25 40.59 405.26 41.07Q405.28 41.55 405.28 41.68L405.28 41.68Q405.28 41.90 405.23 42.06Q405.18 42.22 404.99 42.22L404.99 42.22Q404.51 42.22 404.26 41.20L404.26 41.20Q404.06 40.46 403.74 40.11Q403.42 39.76 402.78 39.76L402.78 39.76L399.81 39.76Q399.26 39.76 398.99 39.90Q398.72 40.05 398.72 40.59L398.72 40.59L398.72 46.74Q398.72 47.95 399.23 48.42Q399.74 48.88 400.83 48.88L400.83 48.88L403.20 48.88Q404.22 48.88 404.91 48.77Q405.60 48.66 406.11 48.34L406.11 48.34Q406.62 47.98 407.02 47.41Q407.42 46.83 407.94 45.87L407.94 45.87Q408.03 45.68 408.16 45.55Q408.29 45.42 408.45 45.46L408.45 45.46Q408.61 45.49 408.70 45.60Q408.80 45.71 408.80 45.90L408.80 45.90Q408.80 46.19 408.64 46.91Q408.48 47.63 408.24 48.40Q408 49.17 407.81 49.62L407.81 49.62Q407.71 49.84 407.63 50Q407.55 50.16 407.36 50.16L407.36 50.16Q405.82 50.16 404.51 50.13Q403.20 50.10 402.02 50.06Q400.83 50.03 399.70 50Q398.56 49.97 397.34 49.97L397.34 49.97Q396.64 49.97 396.13 50.02Q395.62 50.06 395.07 50.11Q394.53 50.16 393.66 50.16ZM411.01 50.10L411.01 50.10Q410.72 50.10 410.54 50.02Q410.37 49.94 410.37 49.74L410.37 49.74Q410.37 49.49 410.56 49.41Q410.75 49.33 411.10 49.23L411.10 49.23Q411.58 49.10 412.03 48.88Q412.48 48.66 412.48 48.02L412.48 48.02L412.48 41.14Q412.48 40.27 412.30 39.66Q412.13 39.06 411.30 38.83L411.30 38.83Q411.17 38.77 411.07 38.69Q410.98 38.61 410.98 38.42L410.98 38.42Q410.98 38.06 411.26 38.03L411.26 38.03Q412.38 37.74 413.09 37.33Q413.79 36.91 414.46 36.40L414.46 36.40Q414.56 36.34 414.64 36.29Q414.72 36.24 414.82 36.24L414.82 36.24Q414.88 36.24 414.93 36.30Q414.98 36.37 414.98 36.46L414.98 36.46Q414.98 36.69 414.90 37.38Q414.82 38.06 414.82 38.51L414.82 38.51Q414.82 38.64 414.83 38.75Q414.85 38.86 414.88 38.90L414.88 38.90Q416 37.84 417.26 37.30Q418.53 36.75 420.03 36.75L420.03 36.75Q421.60 36.75 422.62 38.03Q423.65 39.31 423.65 41.20L423.65 41.20L423.65 48.02Q423.65 48.66 424.10 48.86Q424.54 49.07 425.02 49.23L425.02 49.23Q425.28 49.33 425.52 49.44Q425.76 49.55 425.76 49.81L425.76 49.81Q425.76 50 425.54 50.05Q425.31 50.10 425.12 50.10L425.12 50.10Q424.48 50.10 424.13 50.05Q423.78 50 423.46 49.97Q423.14 49.94 422.56 49.94L422.56 49.94Q422.02 49.94 421.66 49.97Q421.31 50 420.94 50.05Q420.58 50.10 419.94 50.10L419.94 50.10Q419.78 50.10 419.54 50.05Q419.30 50 419.30 49.81L419.30 49.81Q419.30 49.55 419.54 49.44Q419.78 49.33 420.03 49.23L420.03 49.23Q420.51 49.07 420.96 48.86Q421.41 48.66 421.41 48.02L421.41 48.02L421.41 41.30Q421.41 39.89 420.62 39.10Q419.84 38.32 418.53 38.29L418.53 38.29Q417.38 38.29 416.51 38.66Q415.65 39.02 414.98 39.57L414.98 39.57Q414.85 39.70 414.78 39.90Q414.72 40.11 414.72 40.30L414.72 40.30L414.72 48.02Q414.72 48.66 415.17 48.88Q415.62 49.10 416.10 49.23L416.10 49.23Q416.83 49.42 416.83 49.74L416.83 49.74Q416.83 49.94 416.67 50.02Q416.51 50.10 416.19 50.10L416.19 50.10Q415.55 50.10 415.18 50.05Q414.82 50 414.50 49.97Q414.18 49.94 413.60 49.94L413.60 49.94Q413.06 49.94 412.72 49.97Q412.38 50 412.02 50.05Q411.65 50.10 411.01 50.10ZM432.74 59.28L432.74 59.28Q430.02 59.28 428.43 58.24Q426.85 57.20 426.85 55.44L426.85 55.44Q426.85 54.61 427.10 54.03Q427.36 53.46 427.90 53.04L427.90 53.04Q428.35 52.66 429.10 52.06Q429.86 51.47 430.66 50.83L430.66 50.83L432.00 50.90Q430.46 51.89 429.86 52.78Q429.25 53.68 429.25 54.96L429.25 54.96Q429.25 56.24 430.38 57.12Q431.52 58 433.18 58L433.18 58Q435.07 58 436.22 57.14L436.22 57.14Q437.02 56.53 437.47 55.55Q437.92 54.58 437.92 53.49L437.92 53.49Q437.92 52.78 437.42 52.32Q436.93 51.86 435.87 51.57Q434.82 51.28 433.12 51.18L433.12 51.18Q430.11 50.96 428.94 50.38Q427.78 49.81 427.78 48.59L427.78 48.59Q427.78 48.27 427.95 48Q428.13 47.73 428.51 47.41L428.51 47.41Q429.25 46.83 429.60 46.56Q429.95 46.29 430.13 46.10Q430.30 45.90 430.46 45.62L430.46 45.62L431.55 46.16Q430.85 46.42 430.37 46.85Q429.89 47.28 429.89 47.63L429.89 47.63Q429.89 48.08 430.37 48.42Q430.85 48.75 431.78 48.94Q432.70 49.14 434.05 49.23L434.05 49.23Q436.99 49.39 438.43 50.19Q439.87 50.99 439.87 52.46L439.87 52.46Q439.87 53.71 439.25 54.91Q438.62 56.11 437.60 57.10Q436.58 58.10 435.31 58.69Q434.05 59.28 432.74 59.28ZM433.12 45.49L433.12 45.49Q434.34 45.49 435.14 44.26Q435.94 43.02 435.94 41.20L435.94 41.20Q435.94 40.27 435.50 39.46Q435.07 38.64 434.38 38.14Q433.70 37.65 432.90 37.65L432.90 37.65Q432.16 37.65 431.50 38.18Q430.85 38.70 430.45 39.54Q430.05 40.37 430.05 41.36L430.05 41.36Q430.05 42.48 430.46 43.42Q430.88 44.37 431.58 44.93Q432.29 45.49 433.12 45.49ZM432.93 46.61L432.93 46.61Q431.62 46.61 430.43 45.94Q429.25 45.26 428.50 44.16Q427.74 43.06 427.74 41.74L427.74 41.74Q427.74 40.24 428.53 39.10Q429.31 37.97 430.59 37.33Q431.87 36.69 433.31 36.69L433.31 36.69Q434.24 36.69 434.93 36.93Q435.62 37.17 436.29 37.36L436.29 37.36Q437.06 37.58 437.50 37.63Q437.95 37.68 438.43 37.68L438.43 37.68Q438.82 37.68 439.39 37.63Q439.97 37.58 440.19 37.58L440.19 37.58Q440.61 37.58 440.61 38.06L440.61 38.06Q440.61 38.35 440.29 38.67L440.29 38.67Q440.13 38.83 440.03 38.83L440.03 38.83L439.17 38.83Q438.30 38.83 438.21 39.09L438.21 39.09Q438.18 39.22 438.13 39.46Q438.08 39.70 438.05 39.98Q438.02 40.27 438.02 40.56L438.02 40.56Q438.02 42.19 437.31 43.57Q436.61 44.94 435.46 45.78Q434.30 46.61 432.93 46.61ZM441.82 50.10L441.82 50.10Q441.54 50.10 441.36 50.02Q441.18 49.94 441.18 49.74L441.18 49.74Q441.18 49.49 441.42 49.39Q441.66 49.30 441.92 49.23L441.92 49.23Q442.59 49.07 442.94 48.83Q443.30 48.59 443.30 48.02L443.30 48.02L443.30 41.07Q443.30 40.21 442.99 39.54Q442.69 38.86 441.86 38.74L441.86 38.74Q441.70 38.70 441.62 38.61Q441.54 38.51 441.54 38.32L441.54 38.32Q441.54 37.97 441.82 37.94L441.82 37.94Q443.10 37.65 443.94 37.15Q444.77 36.66 445.18 36.34L445.18 36.34Q445.47 36.11 445.63 36.11L445.63 36.11Q445.82 36.11 445.82 36.27L445.82 36.27Q445.82 36.53 445.74 37.28Q445.66 38.03 445.60 38.94Q445.54 39.86 445.54 40.59L445.54 40.59L445.54 48.02Q445.54 48.56 445.90 48.82Q446.27 49.07 446.91 49.23L446.91 49.23Q447.17 49.30 447.41 49.39Q447.65 49.49 447.65 49.74L447.65 49.74Q447.65 50.10 447.01 50.10L447.01 50.10Q446.40 50.10 446.03 50.05Q445.66 50 445.33 49.97Q444.99 49.94 444.42 49.94L444.42 49.94Q443.87 49.94 443.52 49.97Q443.17 50 442.82 50.05Q442.46 50.10 441.82 50.10ZM444.38 33.49L444.38 33.49Q443.71 33.49 443.25 33.02Q442.78 32.56 442.78 31.89L442.78 31.89Q442.78 31.18 443.25 30.72Q443.71 30.26 444.38 30.26L444.38 30.26Q445.09 30.26 445.55 30.72Q446.02 31.18 446.02 31.89L446.02 31.89Q446.02 32.56 445.55 33.02Q445.09 33.49 444.38 33.49ZM449.66 50.10L449.66 50.10Q449.38 50.10 449.20 50.02Q449.02 49.94 449.02 49.74L449.02 49.74Q449.02 49.49 449.22 49.41Q449.41 49.33 449.76 49.23L449.76 49.23Q450.24 49.10 450.69 48.88Q451.14 48.66 451.14 48.02L451.14 48.02L451.14 41.14Q451.14 40.27 450.96 39.66Q450.78 39.06 449.95 38.83L449.95 38.83Q449.82 38.77 449.73 38.69Q449.63 38.61 449.63 38.42L449.63 38.42Q449.63 38.06 449.92 38.03L449.92 38.03Q451.04 37.74 451.74 37.33Q452.45 36.91 453.12 36.40L453.12 36.40Q453.22 36.34 453.30 36.29Q453.38 36.24 453.47 36.24L453.47 36.24Q453.54 36.24 453.58 36.30Q453.63 36.37 453.63 36.46L453.63 36.46Q453.63 36.69 453.55 37.38Q453.47 38.06 453.47 38.51L453.47 38.51Q453.47 38.64 453.49 38.75Q453.50 38.86 453.54 38.90L453.54 38.90Q454.66 37.84 455.92 37.30Q457.18 36.75 458.69 36.75L458.69 36.75Q460.26 36.75 461.28 38.03Q462.30 39.31 462.30 41.20L462.30 41.20L462.30 48.02Q462.30 48.66 462.75 48.86Q463.20 49.07 463.68 49.23L463.68 49.23Q463.94 49.33 464.18 49.44Q464.42 49.55 464.42 49.81L464.42 49.81Q464.42 50 464.19 50.05Q463.97 50.10 463.78 50.10L463.78 50.10Q463.14 50.10 462.78 50.05Q462.43 50 462.11 49.97Q461.79 49.94 461.22 49.94L461.22 49.94Q460.67 49.94 460.32 49.97Q459.97 50 459.60 50.05Q459.23 50.10 458.59 50.10L458.59 50.10Q458.43 50.10 458.19 50.05Q457.95 50 457.95 49.81L457.95 49.81Q457.95 49.55 458.19 49.44Q458.43 49.33 458.69 49.23L458.69 49.23Q459.17 49.07 459.62 48.86Q460.06 48.66 460.06 48.02L460.06 48.02L460.06 41.30Q460.06 39.89 459.28 39.10Q458.50 38.32 457.18 38.29L457.18 38.29Q456.03 38.29 455.17 38.66Q454.30 39.02 453.63 39.57L453.63 39.57Q453.50 39.70 453.44 39.90Q453.38 40.11 453.38 40.30L453.38 40.30L453.38 48.02Q453.38 48.66 453.82 48.88Q454.27 49.10 454.75 49.23L454.75 49.23Q455.49 49.42 455.49 49.74L455.49 49.74Q455.49 49.94 455.33 50.02Q455.17 50.10 454.85 50.10L454.85 50.10Q454.21 50.10 453.84 50.05Q453.47 50 453.15 49.97Q452.83 49.94 452.26 49.94L452.26 49.94Q451.71 49.94 451.38 49.97Q451.04 50 450.67 50.05Q450.30 50.10 449.66 50.10ZM471.97 50.48L471.97 50.48Q470.21 50.48 468.90 49.62Q467.58 48.75 466.85 47.17Q466.11 45.58 466.11 43.50L466.11 43.50Q466.11 41.65 466.96 40.13Q467.81 38.61 469.22 37.68Q470.62 36.75 472.29 36.75L472.29 36.75Q473.57 36.75 474.56 37.26Q475.55 37.78 476.11 38.69Q476.67 39.60 476.67 40.78L476.67 40.78Q476.67 41.78 475.71 41.78L475.71 41.78L468.96 41.78Q468.51 41.78 468.34 42.02Q468.16 42.26 468.16 42.96L468.16 42.96Q468.16 44.50 468.83 45.76Q469.50 47.02 470.62 47.78Q471.74 48.53 473.09 48.53L473.09 48.53Q474.05 48.53 474.83 48.16Q475.62 47.79 476.22 47.09L476.22 47.09Q476.35 46.93 476.42 46.88Q476.48 46.83 476.58 46.83L476.58 46.83Q476.83 46.83 476.83 47.15L476.83 47.15Q476.83 47.76 476.26 48.50L476.26 48.50Q475.78 49.10 475.10 49.55Q474.43 50 473.63 50.24Q472.83 50.48 471.97 50.48ZM469.02 40.78L469.02 40.78L471.94 40.78Q472.70 40.78 473.25 40.75Q473.79 40.72 474.30 40.62L474.30 40.62Q474.46 40.59 474.51 40.42Q474.56 40.24 474.56 39.92L474.56 39.92Q474.56 38.99 473.74 38.34Q472.93 37.68 471.81 37.68L471.81 37.68Q471.07 37.68 470.34 38.11Q469.60 38.54 469.12 39.18Q468.64 39.82 468.64 40.46L468.64 40.46Q468.64 40.78 469.02 40.78ZM484.45 50.48L484.45 50.48Q482.69 50.48 481.38 49.62Q480.06 48.75 479.33 47.17Q478.59 45.58 478.59 43.50L478.59 43.50Q478.59 41.65 479.44 40.13Q480.29 38.61 481.70 37.68Q483.10 36.75 484.77 36.75L484.77 36.75Q486.05 36.75 487.04 37.26Q488.03 37.78 488.59 38.69Q489.15 39.60 489.15 40.78L489.15 40.78Q489.15 41.78 488.19 41.78L488.19 41.78L481.44 41.78Q480.99 41.78 480.82 42.02Q480.64 42.26 480.64 42.96L480.64 42.96Q480.64 44.50 481.31 45.76Q481.98 47.02 483.10 47.78Q484.22 48.53 485.57 48.53L485.57 48.53Q486.53 48.53 487.31 48.16Q488.10 47.79 488.70 47.09L488.70 47.09Q488.83 46.93 488.90 46.88Q488.96 46.83 489.06 46.83L489.06 46.83Q489.31 46.83 489.31 47.15L489.31 47.15Q489.31 47.76 488.74 48.50L488.74 48.50Q488.26 49.10 487.58 49.55Q486.91 50 486.11 50.24Q485.31 50.48 484.45 50.48ZM481.50 40.78L481.50 40.78L484.42 40.78Q485.18 40.78 485.73 40.75Q486.27 40.72 486.78 40.62L486.78 40.62Q486.94 40.59 486.99 40.42Q487.04 40.24 487.04 39.92L487.04 39.92Q487.04 38.99 486.22 38.34Q485.41 37.68 484.29 37.68L484.29 37.68Q483.55 37.68 482.82 38.11Q482.08 38.54 481.60 39.18Q481.12 39.82 481.12 40.46L481.12 40.46Q481.12 40.78 481.50 40.78ZM491.68 50.10L491.68 50.10Q491.36 50.10 491.20 50.02Q491.04 49.94 491.04 49.74L491.04 49.74Q491.04 49.49 491.23 49.41Q491.42 49.33 491.78 49.23L491.78 49.23Q492.38 49.07 492.69 48.77Q492.99 48.46 492.99 48.02L492.99 48.02L492.99 41.14Q492.99 40.27 492.74 39.63Q492.48 38.99 491.68 38.83L491.68 38.83Q491.55 38.80 491.46 38.67Q491.36 38.54 491.36 38.42L491.36 38.42Q491.36 38.10 491.65 38.03L491.65 38.03Q492.48 37.78 493.39 37.28Q494.30 36.78 494.82 36.46L494.82 36.46Q495.01 36.34 495.12 36.29Q495.23 36.24 495.30 36.24L495.30 36.24Q495.46 36.24 495.46 36.46L495.46 36.46Q495.46 36.56 495.44 36.94Q495.42 37.33 495.41 37.84Q495.39 38.35 495.36 38.86L495.36 38.86Q495.36 38.93 495.42 38.93L495.42 38.93Q495.94 38.29 496.56 37.81Q497.18 37.33 497.84 37.04Q498.50 36.75 499.10 36.75L499.10 36.75Q499.78 36.75 500.21 37.04Q500.64 37.33 500.64 37.78L500.64 37.78Q500.64 38.10 500.46 38.48Q500.29 38.86 500.00 39.15Q499.71 39.44 499.39 39.44L499.39 39.44Q499.20 39.44 498.98 39.36Q498.75 39.28 498.50 39.15L498.50 39.15Q498.24 39.06 497.98 38.96Q497.73 38.86 497.47 38.86L497.47 38.86Q496.70 38.86 495.98 39.41Q495.26 39.95 495.26 41.55L495.26 41.55L495.26 48.02Q495.26 48.43 495.71 48.70Q496.16 48.98 496.96 49.23L496.96 49.23Q497.31 49.33 497.50 49.42Q497.70 49.52 497.70 49.74L497.70 49.74Q497.70 50.10 497.06 50.10L497.06 50.10Q496.10 50.10 495.60 50.02Q495.10 49.94 494.27 49.94L494.27 49.94Q493.73 49.94 493.39 49.97Q493.06 50 492.69 50.05Q492.32 50.10 491.68 50.10ZM502.21 50.10L502.21 50.10Q501.92 50.10 501.74 50.02Q501.57 49.94 501.57 49.74L501.57 49.74Q501.57 49.49 501.81 49.39Q502.05 49.30 502.30 49.23L502.30 49.23Q502.98 49.07 503.33 48.83Q503.68 48.59 503.68 48.02L503.68 48.02L503.68 41.07Q503.68 40.21 503.38 39.54Q503.07 38.86 502.24 38.74L502.24 38.74Q502.08 38.70 502.00 38.61Q501.92 38.51 501.92 38.32L501.92 38.32Q501.92 37.97 502.21 37.94L502.21 37.94Q503.49 37.65 504.32 37.15Q505.15 36.66 505.57 36.34L505.57 36.34Q505.86 36.11 506.02 36.11L506.02 36.11Q506.21 36.11 506.21 36.27L506.21 36.27Q506.21 36.53 506.13 37.28Q506.05 38.03 505.98 38.94Q505.92 39.86 505.92 40.59L505.92 40.59L505.92 48.02Q505.92 48.56 506.29 48.82Q506.66 49.07 507.30 49.23L507.30 49.23Q507.55 49.30 507.79 49.39Q508.03 49.49 508.03 49.74L508.03 49.74Q508.03 50.10 507.39 50.10L507.39 50.10Q506.78 50.10 506.42 50.05Q506.05 50 505.71 49.97Q505.38 49.94 504.80 49.94L504.80 49.94Q504.26 49.94 503.90 49.97Q503.55 50 503.20 50.05Q502.85 50.10 502.21 50.10ZM504.77 33.49L504.77 33.49Q504.10 33.49 503.63 33.02Q503.17 32.56 503.17 31.89L503.17 31.89Q503.17 31.18 503.63 30.72Q504.10 30.26 504.77 30.26L504.77 30.26Q505.47 30.26 505.94 30.72Q506.40 31.18 506.40 31.89L506.40 31.89Q506.40 32.56 505.94 33.02Q505.47 33.49 504.77 33.49ZM510.05 50.10L510.05 50.10Q509.76 50.10 509.58 50.02Q509.41 49.94 509.41 49.74L509.41 49.74Q509.41 49.49 509.60 49.41Q509.79 49.33 510.14 49.23L510.14 49.23Q510.62 49.10 511.07 48.88Q511.52 48.66 511.52 48.02L511.52 48.02L511.52 41.14Q511.52 40.27 511.34 39.66Q511.17 39.06 510.34 38.83L510.34 38.83Q510.21 38.77 510.11 38.69Q510.02 38.61 510.02 38.42L510.02 38.42Q510.02 38.06 510.30 38.03L510.30 38.03Q511.42 37.74 512.13 37.33Q512.83 36.91 513.50 36.40L513.50 36.40Q513.60 36.34 513.68 36.29Q513.76 36.24 513.86 36.24L513.86 36.24Q513.92 36.24 513.97 36.30Q514.02 36.37 514.02 36.46L514.02 36.46Q514.02 36.69 513.94 37.38Q513.86 38.06 513.86 38.51L513.86 38.51Q513.86 38.64 513.87 38.75Q513.89 38.86 513.92 38.90L513.92 38.90Q515.04 37.84 516.30 37.30Q517.57 36.75 519.07 36.75L519.07 36.75Q520.64 36.75 521.66 38.03Q522.69 39.31 522.69 41.20L522.69 41.20L522.69 48.02Q522.69 48.66 523.14 48.86Q523.58 49.07 524.06 49.23L524.06 49.23Q524.32 49.33 524.56 49.44Q524.80 49.55 524.80 49.81L524.80 49.81Q524.80 50 524.58 50.05Q524.35 50.10 524.16 50.10L524.16 50.10Q523.52 50.10 523.17 50.05Q522.82 50 522.50 49.97Q522.18 49.94 521.60 49.94L521.60 49.94Q521.06 49.94 520.70 49.97Q520.35 50 519.98 50.05Q519.62 50.10 518.98 50.10L518.98 50.10Q518.82 50.10 518.58 50.05Q518.34 50 518.34 49.81L518.34 49.81Q518.34 49.55 518.58 49.44Q518.82 49.33 519.07 49.23L519.07 49.23Q519.55 49.07 520 48.86Q520.45 48.66 520.45 48.02L520.45 48.02L520.45 41.30Q520.45 39.89 519.66 39.10Q518.88 38.32 517.57 38.29L517.57 38.29Q516.42 38.29 515.55 38.66Q514.69 39.02 514.02 39.57L514.02 39.57Q513.89 39.70 513.82 39.90Q513.76 40.11 513.76 40.30L513.76 40.30L513.76 48.02Q513.76 48.66 514.21 48.88Q514.66 49.10 515.14 49.23L515.14 49.23Q515.87 49.42 515.87 49.74L515.87 49.74Q515.87 49.94 515.71 50.02Q515.55 50.10 515.23 50.10L515.23 50.10Q514.59 50.10 514.22 50.05Q513.86 50 513.54 49.97Q513.22 49.94 512.64 49.94L512.64 49.94Q512.10 49.94 511.76 49.97Q511.42 50 511.06 50.05Q510.69 50.10 510.05 50.10ZM531.78 59.28L531.78 59.28Q529.06 59.28 527.47 58.24Q525.89 57.20 525.89 55.44L525.89 55.44Q525.89 54.61 526.14 54.03Q526.40 53.46 526.94 53.04L526.94 53.04Q527.39 52.66 528.14 52.06Q528.90 51.47 529.70 50.83L529.70 50.83L531.04 50.90Q529.50 51.89 528.90 52.78Q528.29 53.68 528.29 54.96L528.29 54.96Q528.29 56.24 529.42 57.12Q530.56 58 532.22 58L532.22 58Q534.11 58 535.26 57.14L535.26 57.14Q536.06 56.53 536.51 55.55Q536.96 54.58 536.96 53.49L536.96 53.49Q536.96 52.78 536.46 52.32Q535.97 51.86 534.91 51.57Q533.86 51.28 532.16 51.18L532.16 51.18Q529.15 50.96 527.98 50.38Q526.82 49.81 526.82 48.59L526.82 48.59Q526.82 48.27 526.99 48Q527.17 47.73 527.55 47.41L527.55 47.41Q528.29 46.83 528.64 46.56Q528.99 46.29 529.17 46.10Q529.34 45.90 529.50 45.62L529.50 45.62L530.59 46.16Q529.89 46.42 529.41 46.85Q528.93 47.28 528.93 47.63L528.93 47.63Q528.93 48.08 529.41 48.42Q529.89 48.75 530.82 48.94Q531.74 49.14 533.09 49.23L533.09 49.23Q536.03 49.39 537.47 50.19Q538.91 50.99 538.91 52.46L538.91 52.46Q538.91 53.71 538.29 54.91Q537.66 56.11 536.64 57.10Q535.62 58.10 534.35 58.69Q533.09 59.28 531.78 59.28ZM532.16 45.49L532.16 45.49Q533.38 45.49 534.18 44.26Q534.98 43.02 534.98 41.20L534.98 41.20Q534.98 40.27 534.54 39.46Q534.11 38.64 533.42 38.14Q532.74 37.65 531.94 37.65L531.94 37.65Q531.20 37.65 530.54 38.18Q529.89 38.70 529.49 39.54Q529.09 40.37 529.09 41.36L529.09 41.36Q529.09 42.48 529.50 43.42Q529.92 44.37 530.62 44.93Q531.33 45.49 532.16 45.49ZM531.97 46.61L531.97 46.61Q530.66 46.61 529.47 45.94Q528.29 45.26 527.54 44.16Q526.78 43.06 526.78 41.74L526.78 41.74Q526.78 40.24 527.57 39.10Q528.35 37.97 529.63 37.33Q530.91 36.69 532.35 36.69L532.35 36.69Q533.28 36.69 533.97 36.93Q534.66 37.17 535.33 37.36L535.33 37.36Q536.10 37.58 536.54 37.63Q536.99 37.68 537.47 37.68L537.47 37.68Q537.86 37.68 538.43 37.63Q539.01 37.58 539.23 37.58L539.23 37.58Q539.65 37.58 539.65 38.06L539.65 38.06Q539.65 38.35 539.33 38.67L539.33 38.67Q539.17 38.83 539.07 38.83L539.07 38.83L538.21 38.83Q537.34 38.83 537.25 39.09L537.25 39.09Q537.22 39.22 537.17 39.46Q537.12 39.70 537.09 39.98Q537.06 40.27 537.06 40.56L537.06 40.56Q537.06 42.19 536.35 43.57Q535.65 44.94 534.50 45.78Q533.34 46.61 531.97 46.61Z"/>
    <path fill="#581c87" opacity="0.8" d="M292.02 90.31L292.02 90.31Q291.86 90.31 291.38 90.04Q290.91 89.77 290.48 89.17L290.48 89.17Q290.40 89.08 290.04 88.63Q289.67 88.18 289.10 87.51Q288.53 86.83 287.87 86.04Q287.20 85.25 286.53 84.46Q285.87 83.66 285.29 82.99Q284.72 82.31 284.33 81.86Q283.94 81.40 283.85 81.29L283.85 81.29Q283.73 81.13 283.64 81.06Q283.55 81 283.47 81L283.47 81Q283.38 81 283.35 81.14Q283.31 81.27 283.31 81.38L283.31 81.38Q283.29 82.26 283.28 83.41Q283.26 84.56 283.24 85.79Q283.22 87.01 283.22 88.13L283.22 88.13Q283.22 88.61 283.46 89.03Q283.71 89.44 284.37 89.57L284.37 89.57Q284.68 89.62 284.82 89.69Q284.97 89.77 284.97 89.89L284.97 89.89Q284.97 90 284.82 90.05Q284.68 90.09 284.45 90.09L284.45 90.09Q283.96 90.09 283.72 90.06Q283.47 90.04 283.29 90.02Q283.10 90 282.75 90L282.75 90Q282.43 90 282.25 90.02Q282.07 90.04 281.84 90.06Q281.60 90.09 281.12 90.09L281.12 90.09Q280.88 90.09 280.74 90.05Q280.59 90 280.59 89.89L280.59 89.89Q280.59 89.77 280.74 89.69Q280.88 89.62 281.19 89.55L281.19 89.55Q281.71 89.41 281.94 89.02Q282.18 88.63 282.23 88.07L282.23 88.07Q282.30 87.39 282.38 86.27Q282.45 85.14 282.50 83.75Q282.56 82.35 282.56 80.87L282.56 80.87Q282.56 79.92 282.06 79.51Q281.57 79.09 280.77 78.84L280.77 78.84Q280.70 78.80 280.46 78.69Q280.22 78.57 280.22 78.41L280.22 78.41Q280.22 78.25 280.38 78.20Q280.54 78.16 280.63 78.16L280.63 78.16Q281.15 78.17 281.48 78.18Q281.80 78.19 282.05 78.21Q282.30 78.23 282.61 78.24Q282.92 78.25 283.40 78.25L283.40 78.25Q283.56 78.25 283.65 78.34Q283.74 78.43 283.83 78.55L283.83 78.55Q283.91 78.66 284.31 79.16Q284.72 79.65 285.32 80.40Q285.92 81.14 286.64 82.02Q287.36 82.89 288.08 83.76Q288.80 84.64 289.41 85.38Q290.03 86.13 290.43 86.62Q290.84 87.10 290.91 87.19L290.91 87.19Q290.98 87.26 291.12 87.41Q291.25 87.55 291.36 87.55L291.36 87.55Q291.52 87.55 291.54 87.17L291.54 87.17Q291.54 86.92 291.55 86.21Q291.56 85.50 291.56 84.48Q291.57 83.47 291.57 82.28Q291.57 81.09 291.57 79.85L291.57 79.85Q291.56 79.49 291.20 79.20Q290.84 78.91 290.53 78.86L290.53 78.86Q290.22 78.80 289.97 78.71Q289.72 78.62 289.72 78.50L289.72 78.50Q289.72 78.39 289.97 78.34Q290.22 78.30 290.46 78.30L290.46 78.30Q290.64 78.30 290.81 78.30Q290.98 78.30 291.15 78.30Q291.32 78.30 291.48 78.30L291.48 78.30Q291.92 78.30 292.17 78.29Q292.42 78.28 292.72 78.26Q293.01 78.25 293.55 78.25L293.55 78.25Q293.79 78.25 293.93 78.29Q294.08 78.34 294.08 78.44L294.08 78.44Q294.08 78.70 293.48 78.80L293.48 78.80Q292.82 78.93 292.60 79.13Q292.38 79.33 292.35 79.78L292.35 79.78Q292.35 79.87 292.34 80.48Q292.33 81.09 292.33 82.03Q292.33 82.96 292.32 84.04Q292.31 85.12 292.31 86.19Q292.31 87.26 292.31 88.11L292.31 88.11Q292.31 88.54 292.34 88.89Q292.37 89.24 292.38 89.49Q292.40 89.73 292.40 89.86L292.40 89.86Q292.40 90.14 292.29 90.22Q292.17 90.31 292.02 90.31ZM298.47 90.25L298.47 90.25Q297.46 90.25 296.65 89.78Q295.84 89.32 295.36 88.50Q294.89 87.68 294.89 86.63L294.89 86.63Q294.89 85.88 295.18 85.16Q295.48 84.44 296.02 83.84Q296.56 83.25 297.28 82.90Q298.00 82.55 298.83 82.55L298.83 82.55Q299.87 82.55 300.71 83.05Q301.55 83.56 302.04 84.38Q302.54 85.19 302.54 86.17L302.54 86.17Q302.54 87.21 302.08 88.15Q301.62 89.08 300.72 89.67Q299.82 90.25 298.47 90.25ZM298.85 89.71L298.85 89.71Q299.46 89.71 299.94 89.48Q300.43 89.24 300.70 88.72L300.70 88.72Q300.92 88.31 300.99 87.71Q301.06 87.12 301.06 86.60L301.06 86.60Q301.06 85.73 300.75 84.93Q300.43 84.13 299.86 83.62Q299.30 83.11 298.52 83.11L298.52 83.11Q298.04 83.11 297.65 83.26Q297.26 83.41 296.94 83.83L296.94 83.83Q296.58 84.28 296.47 84.92Q296.36 85.57 296.36 86.22L296.36 86.22Q296.36 87.10 296.69 87.90Q297.01 88.70 297.57 89.21Q298.13 89.71 298.85 89.71ZM309.59 90.34L309.59 90.34Q309.56 90.34 309.48 90.27Q309.39 90.20 309.39 90.16L309.39 90.16Q309.39 89.98 309.44 89.65Q309.48 89.32 309.48 89.08L309.48 89.08L309.48 88.97Q309.21 89.39 308.62 89.82Q308.03 90.25 307.13 90.25L307.13 90.25Q306.10 90.25 305.35 89.71Q304.61 89.17 304.20 88.33Q303.80 87.48 303.80 86.58L303.80 86.58Q303.80 85.54 304.28 84.62Q304.77 83.70 305.68 83.12Q306.59 82.55 307.85 82.55L307.85 82.55Q308.21 82.55 308.58 82.61Q308.94 82.67 309.14 82.75L309.14 82.75Q309.30 82.80 309.38 82.80L309.38 82.80Q309.50 82.80 309.50 82.37L309.50 82.37L309.50 79.81Q309.50 79.07 309.27 78.82Q309.03 78.57 308.60 78.50L308.60 78.50Q308.44 78.46 308.44 78.26L308.44 78.26Q308.44 78.10 308.58 78.05L308.58 78.05Q309.38 77.85 309.83 77.67Q310.28 77.49 310.53 77.38L310.53 77.38Q310.60 77.35 310.66 77.34Q310.73 77.33 310.76 77.33L310.76 77.33Q310.87 77.33 310.89 77.44L310.89 77.44Q310.89 77.54 310.86 77.80Q310.83 78.07 310.80 78.57Q310.76 79.07 310.76 79.88L310.76 79.88L310.76 88.02Q310.76 88.63 310.85 88.91Q310.94 89.19 311.14 89.19L311.14 89.19Q311.23 89.19 311.46 89.17Q311.68 89.15 311.91 89.14L311.91 89.14Q312.24 89.12 312.24 89.30L312.24 89.30Q312.24 89.42 312.16 89.52Q312.08 89.62 311.99 89.62L311.99 89.62Q311.48 89.69 311.00 89.83Q310.51 89.96 309.88 90.23L309.88 90.23Q309.74 90.31 309.69 90.32Q309.65 90.34 309.59 90.34ZM307.77 89.32L307.77 89.32Q308.24 89.32 308.69 89.07Q309.14 88.83 309.48 88.43L309.48 88.43L309.50 85.19Q309.50 84.71 309.22 84.24Q308.94 83.77 308.45 83.47Q307.95 83.18 307.29 83.18L307.29 83.18Q306.87 83.18 306.35 83.43Q305.83 83.68 305.45 84.32Q305.07 84.96 305.07 86.17L305.07 86.17Q305.07 87.19 305.38 87.81Q305.69 88.43 306.13 88.76Q306.57 89.08 307.03 89.20Q307.49 89.32 307.77 89.32ZM316.11 90.27L316.11 90.27Q315.12 90.27 314.38 89.78Q313.64 89.30 313.23 88.41Q312.81 87.52 312.81 86.35L312.81 86.35Q312.81 85.30 313.29 84.45Q313.77 83.59 314.56 83.07Q315.35 82.55 316.29 82.55L316.29 82.55Q317.01 82.55 317.57 82.84Q318.12 83.12 318.44 83.64Q318.75 84.15 318.75 84.82L318.75 84.82Q318.75 85.37 318.21 85.37L318.21 85.37L314.42 85.37Q314.16 85.37 314.07 85.51Q313.97 85.64 313.97 86.04L313.97 86.04Q313.97 86.90 314.34 87.61Q314.72 88.33 315.35 88.75Q315.98 89.17 316.74 89.17L316.74 89.17Q317.28 89.17 317.72 88.97Q318.16 88.76 318.50 88.36L318.50 88.36Q318.57 88.27 318.61 88.25Q318.65 88.22 318.70 88.22L318.70 88.22Q318.84 88.22 318.84 88.40L318.84 88.40Q318.84 88.74 318.52 89.15L318.52 89.15Q318.25 89.50 317.87 89.75Q317.49 90 317.04 90.14Q316.59 90.27 316.11 90.27ZM314.45 84.82L314.45 84.82L316.09 84.82Q316.52 84.82 316.83 84.80Q317.13 84.78 317.42 84.73L317.42 84.73Q317.51 84.71 317.54 84.61Q317.57 84.51 317.57 84.33L317.57 84.33Q317.57 83.81 317.11 83.44Q316.65 83.07 316.02 83.07L316.02 83.07Q315.60 83.07 315.19 83.31Q314.78 83.56 314.51 83.92Q314.24 84.28 314.24 84.64L314.24 84.64Q314.24 84.82 314.45 84.82ZM321.36 90.25L321.36 90.25Q320.97 90.25 320.67 89.95Q320.37 89.66 320.37 89.26L320.37 89.26Q320.37 88.85 320.67 88.56Q320.97 88.27 321.36 88.27L321.36 88.27Q321.78 88.27 322.07 88.56Q322.35 88.85 322.35 89.26L322.35 89.26Q322.35 89.66 322.07 89.95Q321.78 90.25 321.36 90.25ZM323.45 95.17L323.45 95.17Q323.36 95.17 323.22 95.12Q323.07 95.08 323.07 94.99L323.07 94.99Q323.07 94.88 323.16 94.79Q323.25 94.70 323.27 94.68L323.27 94.68Q323.60 94.59 323.90 94.34Q324.21 94.09 324.46 93.55L324.46 93.55Q324.66 93.13 324.78 92.51Q324.89 91.89 324.95 91.21Q325 90.52 325.02 89.87Q325.04 89.23 325.04 88.76L325.04 88.76L325.04 84.98Q325.04 84.49 324.86 84.12Q324.68 83.75 324.21 83.66L324.21 83.66Q324.14 83.65 324.10 83.57Q324.06 83.50 324.06 83.43L324.06 83.43Q324.06 83.25 324.19 83.21L324.19 83.21Q324.87 83.05 325.34 82.76Q325.81 82.48 326.06 82.31L326.06 82.31Q326.15 82.26 326.22 82.22Q326.28 82.19 326.30 82.19L326.30 82.19Q326.42 82.19 326.42 82.28L326.42 82.28Q326.37 82.84 326.33 83.64Q326.30 84.44 326.30 85.05L326.30 85.05L326.30 88.36Q326.30 88.92 326.27 89.67Q326.24 90.41 326.13 91.22Q326.03 92.02 325.76 92.74L325.76 92.74Q325.54 93.35 325.13 93.91Q324.71 94.46 324.26 94.81Q323.81 95.17 323.45 95.17ZM325.52 80.71L325.52 80.71Q325.14 80.71 324.88 80.45Q324.62 80.19 324.62 79.81L324.62 79.81Q324.62 79.42 324.88 79.16Q325.14 78.89 325.52 78.89L325.52 78.89Q325.92 78.89 326.18 79.16Q326.44 79.42 326.44 79.81L326.44 79.81Q326.44 80.19 326.18 80.45Q325.92 80.71 325.52 80.71ZM330.09 90.25L330.09 90.25Q329.54 90.25 329.05 90.08Q328.56 89.91 328.22 89.60L328.22 89.60Q328.13 89.41 328.09 88.94Q328.04 88.47 328.02 88.16L328.02 88.16Q328.02 88.00 328.26 88.00L328.26 88.00Q328.33 88.00 328.39 88.03Q328.46 88.06 328.47 88.13L328.47 88.13Q328.71 89.01 329.22 89.39Q329.73 89.77 330.26 89.77L330.26 89.77Q330.78 89.77 331.15 89.42Q331.52 89.06 331.52 88.54L331.52 88.54Q331.52 88.06 331.19 87.70Q330.87 87.35 330.06 86.85L330.06 86.85Q329.45 86.47 329.07 86.13Q328.69 85.79 328.52 85.43Q328.35 85.07 328.35 84.62L328.35 84.62Q328.35 84.04 328.62 83.57Q328.89 83.11 329.43 82.83Q329.97 82.55 330.78 82.55L330.78 82.55Q331.32 82.55 331.68 82.66Q332.04 82.76 332.22 82.89L332.22 82.89Q332.36 83.09 332.46 83.51Q332.56 83.93 332.56 84.31L332.56 84.31Q332.56 84.44 332.38 84.44L332.38 84.44Q332.27 84.44 332.17 84.39Q332.07 84.35 332.04 84.28L332.04 84.28Q331.80 83.68 331.45 83.37Q331.10 83.05 330.58 83.05L330.58 83.05Q330.13 83.05 329.78 83.32Q329.43 83.59 329.43 84.11L329.43 84.11Q329.43 84.53 329.69 84.85Q329.95 85.18 330.67 85.59L330.67 85.59Q331.71 86.18 332.23 86.70Q332.74 87.21 332.74 88.06L332.74 88.06Q332.74 89.03 332.00 89.64Q331.26 90.25 330.09 90.25ZM334.00 92.65L334.00 92.65Q333.68 92.65 333.68 92.45L333.68 92.45Q333.68 92.38 333.74 92.31Q333.80 92.25 333.93 92.23L333.93 92.23Q334.32 92.14 334.72 91.93Q335.12 91.71 335.39 91.31Q335.66 90.90 335.66 90.27L335.66 90.27Q335.66 90.05 335.46 89.78Q335.26 89.50 334.95 89.48L334.95 89.48Q334.56 89.44 334.33 89.23Q334.11 89.01 334.11 88.72L334.11 88.72Q334.11 88.36 334.41 88.13Q334.70 87.89 335.10 87.89L335.10 87.89Q335.75 87.89 336.17 88.39Q336.59 88.88 336.59 89.64L336.59 89.64Q336.59 90.32 336.32 90.87Q336.05 91.42 335.64 91.82Q335.22 92.21 334.78 92.43Q334.34 92.65 334.00 92.65ZM348.11 90.25L348.11 90.25Q346.87 90.25 345.75 89.81Q344.62 89.37 343.75 88.58Q342.87 87.79 342.37 86.72Q341.87 85.64 341.87 84.40L341.87 84.40Q341.87 83.07 342.39 81.92Q342.91 80.77 343.83 79.90Q344.75 79.04 345.94 78.55Q347.14 78.07 348.49 78.07L348.49 78.07Q348.80 78.07 349.33 78.13Q349.86 78.19 350.43 78.28Q350.99 78.37 351.45 78.47Q351.91 78.57 352.09 78.66L352.09 78.66Q352.18 78.70 352.21 78.74Q352.23 78.79 352.25 78.88L352.25 78.88Q352.32 79.40 352.38 79.91Q352.43 80.42 352.43 80.78L352.43 80.78Q352.43 80.91 352.35 81.03Q352.27 81.14 352.16 81.14L352.16 81.14Q351.98 81.14 351.89 80.98Q351.80 80.82 351.75 80.66L351.75 80.66Q351.64 80.37 351.52 80.16Q351.41 79.96 351.19 79.70L351.19 79.70Q351.08 79.56 350.73 79.33Q350.38 79.11 349.79 78.93Q349.19 78.75 348.33 78.75L348.33 78.75Q347.28 78.75 346.42 79.19Q345.56 79.63 344.94 80.40Q344.31 81.16 343.98 82.13Q343.65 83.11 343.65 84.17L343.65 84.17Q343.65 85.45 344.04 86.45Q344.44 87.46 345.11 88.16Q345.77 88.87 346.62 89.23Q347.46 89.59 348.36 89.59L348.36 89.59Q349.41 89.59 349.90 89.33Q350.40 89.08 350.56 88.92L350.56 88.92Q350.76 88.72 350.93 88.36Q351.10 88.00 351.10 87.53L351.10 87.53Q351.10 87.37 351.11 87.19Q351.12 87.01 351.13 86.83Q351.14 86.65 351.14 86.49L351.14 86.49Q351.14 86.29 351.12 86.16Q351.10 86.02 351.05 85.95L351.05 85.95Q350.90 85.75 350.54 85.63Q350.18 85.50 349.82 85.45Q349.46 85.39 349.28 85.39L349.28 85.39Q349.21 85.39 349.07 85.30Q348.92 85.21 348.92 85.09L348.92 85.09Q348.92 84.94 349.07 84.86Q349.21 84.78 349.28 84.78L349.28 84.78Q349.73 84.78 350.06 84.80Q350.38 84.82 350.72 84.83Q351.06 84.85 351.55 84.85L351.55 84.85Q352.02 84.85 352.34 84.82Q352.67 84.78 353.15 84.78L353.15 84.78Q353.22 84.78 353.38 84.83Q353.53 84.89 353.53 85.07L353.53 85.07Q353.53 85.19 353.38 85.28Q353.22 85.37 353.15 85.39L353.15 85.39Q352.76 85.50 352.60 85.71Q352.45 85.91 352.40 86.27L352.40 86.27Q352.34 86.67 352.32 86.98Q352.31 87.28 352.31 87.62L352.31 87.62L352.31 88.11Q352.31 88.20 352.34 88.25Q352.38 88.31 352.41 88.40L352.41 88.40Q352.47 88.49 352.56 88.56Q352.65 88.63 352.65 88.70L352.65 88.70Q352.65 88.78 352.62 88.89Q352.59 89.01 352.40 89.05L352.40 89.05Q352.27 89.06 351.90 89.25Q351.53 89.44 350.97 89.68Q350.42 89.91 349.70 90.08Q348.98 90.25 348.11 90.25ZM358.39 90.25L358.39 90.25Q357.38 90.25 356.57 89.78Q355.76 89.32 355.29 88.50Q354.81 87.68 354.81 86.63L354.81 86.63Q354.81 85.88 355.11 85.16Q355.40 84.44 355.94 83.84Q356.48 83.25 357.20 82.90Q357.92 82.55 358.75 82.55L358.75 82.55Q359.79 82.55 360.63 83.05Q361.47 83.56 361.96 84.38Q362.46 85.19 362.46 86.17L362.46 86.17Q362.46 87.21 362.00 88.15Q361.54 89.08 360.64 89.67Q359.74 90.25 358.39 90.25ZM358.77 89.71L358.77 89.71Q359.38 89.71 359.87 89.48Q360.35 89.24 360.62 88.72L360.62 88.72Q360.84 88.31 360.91 87.71Q360.98 87.12 360.98 86.60L360.98 86.60Q360.98 85.73 360.67 84.93Q360.35 84.13 359.79 83.62Q359.22 83.11 358.44 83.11L358.44 83.11Q357.96 83.11 357.57 83.26Q357.18 83.41 356.86 83.83L356.86 83.83Q356.50 84.28 356.39 84.92Q356.28 85.57 356.28 86.22L356.28 86.22Q356.28 87.10 356.61 87.90Q356.93 88.70 357.49 89.21Q358.05 89.71 358.77 89.71ZM363.77 92.65L363.77 92.65Q363.45 92.65 363.45 92.45L363.45 92.45Q363.45 92.38 363.51 92.31Q363.57 92.25 363.70 92.23L363.70 92.23Q364.10 92.14 364.49 91.93Q364.89 91.71 365.16 91.31Q365.43 90.90 365.43 90.27L365.43 90.27Q365.43 90.05 365.23 89.78Q365.03 89.50 364.73 89.48L364.73 89.48Q364.33 89.44 364.11 89.23Q363.88 89.01 363.88 88.72L363.88 88.72Q363.88 88.36 364.18 88.13Q364.47 87.89 364.87 87.89L364.87 87.89Q365.52 87.89 365.94 88.39Q366.36 88.88 366.36 89.64L366.36 89.64Q366.36 90.32 366.09 90.87Q365.82 91.42 365.41 91.82Q365.00 92.21 364.56 92.43Q364.11 92.65 363.77 92.65ZM371.78 90.09L371.78 90.09Q371.55 90.09 371.40 90.05Q371.26 90 371.26 89.89L371.26 89.89Q371.26 89.68 371.85 89.57L371.85 89.57Q372.54 89.44 372.85 89.15Q373.17 88.87 373.17 88.20L373.17 88.20L373.17 80.60Q373.17 79.79 372.96 79.36Q372.75 78.93 372.07 78.80L372.07 78.80Q371.76 78.75 371.62 78.66Q371.48 78.57 371.48 78.44L371.48 78.44Q371.48 78.34 371.62 78.29Q371.76 78.25 372.00 78.25L372.00 78.25Q372.48 78.25 372.73 78.25Q372.97 78.25 373.19 78.25Q373.40 78.26 373.76 78.26L373.76 78.26Q374.12 78.26 374.49 78.24Q374.86 78.21 375.18 78.18Q375.51 78.16 375.76 78.16L375.76 78.16Q377.81 78.16 379.06 79.00Q380.31 79.85 380.31 81.36L380.31 81.36Q380.31 82.46 379.88 83.39Q379.45 84.31 378.56 84.87Q377.67 85.43 376.28 85.43L376.28 85.43Q375.89 85.43 375.68 85.31Q375.47 85.19 375.47 85.09L375.47 85.09Q375.47 85.01 375.57 84.92Q375.67 84.83 375.76 84.83L375.76 84.83Q375.85 84.83 376.04 84.85Q376.23 84.87 376.59 84.87L376.59 84.87Q377.67 84.87 378.22 83.97Q378.77 83.07 378.77 81.49L378.77 81.49Q378.77 80.05 377.92 79.35Q377.07 78.66 375.76 78.66L375.76 78.66Q375.26 78.66 374.93 78.83Q374.61 79.00 374.61 79.42L374.61 79.42L374.61 88.00Q374.61 88.65 374.88 89.05Q375.15 89.44 375.81 89.57L375.81 89.57Q376.12 89.62 376.26 89.69Q376.41 89.77 376.41 89.89L376.41 89.89Q376.41 90 376.26 90.05Q376.12 90.09 375.89 90.09L375.89 90.09Q375.40 90.09 375.14 90.05Q374.88 90.02 374.67 89.99Q374.46 89.96 374.12 89.96L374.12 89.96Q373.67 89.96 373.32 89.99Q372.97 90.02 372.62 90.05Q372.27 90.09 371.78 90.09ZM384.98 90.25L384.98 90.25Q383.97 90.25 383.16 89.78Q382.35 89.32 381.87 88.50Q381.39 87.68 381.39 86.63L381.39 86.63Q381.39 85.88 381.69 85.16Q381.99 84.44 382.53 83.84Q383.07 83.25 383.79 82.90Q384.51 82.55 385.34 82.55L385.34 82.55Q386.38 82.55 387.22 83.05Q388.05 83.56 388.55 84.38Q389.04 85.19 389.04 86.17L389.04 86.17Q389.04 87.21 388.59 88.15Q388.13 89.08 387.23 89.67Q386.33 90.25 384.98 90.25ZM385.35 89.71L385.35 89.71Q385.97 89.71 386.45 89.48Q386.94 89.24 387.21 88.72L387.21 88.72Q387.42 88.31 387.50 87.71Q387.57 87.12 387.57 86.60L387.57 86.60Q387.57 85.73 387.25 84.93Q386.94 84.13 386.37 83.62Q385.80 83.11 385.03 83.11L385.03 83.11Q384.54 83.11 384.16 83.26Q383.77 83.41 383.45 83.83L383.45 83.83Q383.09 84.28 382.98 84.92Q382.87 85.57 382.87 86.22L382.87 86.22Q382.87 87.10 383.19 87.90Q383.52 88.70 384.08 89.21Q384.63 89.71 385.35 89.71ZM392.27 90.25L392.27 90.25Q391.71 90.25 391.22 90.08Q390.74 89.91 390.39 89.60L390.39 89.60Q390.30 89.41 390.26 88.94Q390.21 88.47 390.20 88.16L390.20 88.16Q390.20 88.00 390.43 88.00L390.43 88.00Q390.50 88.00 390.57 88.03Q390.63 88.06 390.65 88.13L390.65 88.13Q390.88 89.01 391.39 89.39Q391.91 89.77 392.43 89.77L392.43 89.77Q392.95 89.77 393.32 89.42Q393.69 89.06 393.69 88.54L393.69 88.54Q393.69 88.06 393.36 87.70Q393.04 87.35 392.23 86.85L392.23 86.85Q391.62 86.47 391.24 86.13Q390.86 85.79 390.69 85.43Q390.52 85.07 390.52 84.62L390.52 84.62Q390.52 84.04 390.79 83.57Q391.06 83.11 391.60 82.83Q392.14 82.55 392.95 82.55L392.95 82.55Q393.49 82.55 393.85 82.66Q394.21 82.76 394.39 82.89L394.39 82.89Q394.53 83.09 394.63 83.51Q394.73 83.93 394.73 84.31L394.73 84.31Q394.73 84.44 394.55 84.44L394.55 84.44Q394.44 84.44 394.35 84.39Q394.25 84.35 394.21 84.28L394.21 84.28Q393.98 83.68 393.63 83.37Q393.27 83.05 392.75 83.05L392.75 83.05Q392.30 83.05 391.95 83.32Q391.60 83.59 391.60 84.11L391.60 84.11Q391.60 84.53 391.86 84.85Q392.12 85.18 392.84 85.59L392.84 85.59Q393.89 86.18 394.40 86.70Q394.91 87.21 394.91 88.06L394.91 88.06Q394.91 89.03 394.17 89.64Q393.44 90.25 392.27 90.25ZM398.89 90.25L398.89 90.25Q398.01 90.25 397.51 89.71Q397.02 89.17 397.02 88.11L397.02 88.11L397.02 83.93Q397.02 83.79 396.91 83.73Q396.80 83.66 396.44 83.66L396.44 83.66L396.33 83.66Q396.24 83.66 396.18 83.55Q396.12 83.43 396.12 83.30L396.12 83.30Q396.12 83.27 396.17 83.20Q396.23 83.12 396.24 83.11L396.24 83.11Q396.60 82.85 396.90 82.60Q397.20 82.35 397.44 82.11Q397.68 81.86 397.85 81.67L397.85 81.67Q397.94 81.58 398.00 81.51Q398.06 81.45 398.15 81.45L398.15 81.45Q398.24 81.45 398.32 81.49Q398.40 81.52 398.39 81.65L398.39 81.65L398.30 82.46Q398.28 82.66 398.39 82.73Q398.49 82.80 398.73 82.80L398.73 82.80L400.78 82.80Q400.85 82.80 400.91 82.92Q400.96 83.03 400.96 83.20L400.96 83.20Q400.96 83.36 400.91 83.51Q400.85 83.66 400.78 83.66L400.78 83.66L399.00 83.66Q398.55 83.66 398.41 83.74Q398.28 83.81 398.28 84.17L398.28 84.17L398.28 87.71Q398.28 88.43 398.58 88.85Q398.89 89.26 399.47 89.26L399.47 89.26Q399.99 89.26 400.28 89.18Q400.56 89.10 400.80 88.94L400.80 88.94Q400.83 88.90 400.87 88.90L400.87 88.90Q400.94 88.90 400.97 88.98Q401.00 89.06 401.00 89.15L401.00 89.15Q401.00 89.24 400.70 89.51Q400.40 89.78 399.93 90.02Q399.45 90.25 398.89 90.25ZM404.65 95.22L404.65 95.22Q403.12 95.22 402.23 94.64Q401.34 94.05 401.34 93.06L401.34 93.06Q401.34 92.59 401.48 92.27Q401.63 91.94 401.93 91.71L401.93 91.71Q402.18 91.49 402.61 91.16Q403.03 90.83 403.48 90.47L403.48 90.47L404.24 90.50Q403.37 91.06 403.03 91.57Q402.69 92.07 402.69 92.79L402.69 92.79Q402.69 93.51 403.33 94.00Q403.97 94.50 404.90 94.50L404.90 94.50Q405.96 94.50 406.61 94.01L406.61 94.01Q407.06 93.67 407.31 93.12Q407.57 92.57 407.57 91.96L407.57 91.96Q407.57 91.57 407.29 91.31Q407.01 91.04 406.41 90.88Q405.82 90.72 404.87 90.67L404.87 90.67Q403.17 90.54 402.52 90.22Q401.86 89.89 401.86 89.21L401.86 89.21Q401.86 89.03 401.96 88.88Q402.06 88.72 402.27 88.54L402.27 88.54Q402.69 88.22 402.89 88.06Q403.08 87.91 403.18 87.80Q403.28 87.70 403.37 87.53L403.37 87.53L403.98 87.84Q403.59 87.98 403.32 88.23Q403.05 88.47 403.05 88.67L403.05 88.67Q403.05 88.92 403.32 89.11Q403.59 89.30 404.11 89.41Q404.63 89.51 405.39 89.57L405.39 89.57Q407.04 89.66 407.85 90.11Q408.66 90.56 408.66 91.39L408.66 91.39Q408.66 92.09 408.31 92.76Q407.96 93.44 407.39 94.00Q406.81 94.55 406.10 94.89Q405.39 95.22 404.65 95.22ZM404.87 87.46L404.87 87.46Q405.55 87.46 406.00 86.77Q406.45 86.08 406.45 85.05L406.45 85.05Q406.45 84.53 406.21 84.07Q405.96 83.61 405.58 83.33Q405.19 83.05 404.74 83.05L404.74 83.05Q404.33 83.05 403.96 83.35Q403.59 83.65 403.36 84.11Q403.14 84.58 403.14 85.14L403.14 85.14Q403.14 85.77 403.37 86.30Q403.61 86.83 404.00 87.15Q404.40 87.46 404.87 87.46ZM404.76 88.09L404.76 88.09Q404.02 88.09 403.35 87.71Q402.69 87.34 402.27 86.72Q401.84 86.09 401.84 85.36L401.84 85.36Q401.84 84.51 402.28 83.87Q402.72 83.23 403.44 82.87Q404.16 82.51 404.97 82.51L404.97 82.51Q405.50 82.51 405.88 82.65Q406.27 82.78 406.65 82.89L406.65 82.89Q407.08 83.02 407.33 83.04Q407.58 83.07 407.85 83.07L407.85 83.07Q408.07 83.07 408.39 83.04Q408.72 83.02 408.84 83.02L408.84 83.02Q409.08 83.02 409.08 83.29L409.08 83.29Q409.08 83.45 408.90 83.63L408.90 83.63Q408.81 83.72 408.75 83.72L408.75 83.72L408.27 83.72Q407.78 83.72 407.73 83.86L407.73 83.86Q407.71 83.93 407.68 84.07Q407.66 84.20 407.64 84.37Q407.62 84.53 407.62 84.69L407.62 84.69Q407.62 85.61 407.22 86.38Q406.83 87.16 406.18 87.62Q405.53 88.09 404.76 88.09ZM409.85 90.05L409.85 90.05Q409.67 90.05 409.58 90.01Q409.49 89.96 409.49 89.86L409.49 89.86Q409.49 89.71 409.60 89.67Q409.71 89.62 409.91 89.57L409.91 89.57Q410.25 89.48 410.42 89.31Q410.59 89.14 410.59 88.88L410.59 88.88L410.59 85.01Q410.59 84.53 410.45 84.17Q410.30 83.81 409.85 83.72L409.85 83.72Q409.78 83.70 409.73 83.63Q409.67 83.56 409.67 83.48L409.67 83.48Q409.67 83.30 409.83 83.27L409.83 83.27Q410.30 83.12 410.82 82.84Q411.33 82.57 411.62 82.39L411.62 82.39Q411.72 82.31 411.79 82.29Q411.85 82.26 411.89 82.26L411.89 82.26Q411.98 82.26 411.98 82.39L411.98 82.39Q411.98 82.44 411.97 82.66Q411.96 82.87 411.95 83.16Q411.94 83.45 411.92 83.74L411.92 83.74Q411.92 83.77 411.96 83.77L411.96 83.77Q412.25 83.41 412.60 83.14Q412.95 82.87 413.32 82.71Q413.69 82.55 414.03 82.55L414.03 82.55Q414.41 82.55 414.65 82.71Q414.89 82.87 414.89 83.12L414.89 83.12Q414.89 83.30 414.79 83.52Q414.69 83.74 414.53 83.90Q414.37 84.06 414.19 84.06L414.19 84.06Q414.08 84.06 413.96 84.02Q413.83 83.97 413.69 83.90L413.69 83.90Q413.54 83.84 413.40 83.79Q413.25 83.74 413.11 83.74L413.11 83.74Q412.68 83.74 412.27 84.04Q411.87 84.35 411.87 85.25L411.87 85.25L411.87 88.88Q411.87 89.12 412.12 89.27Q412.37 89.42 412.82 89.57L412.82 89.57Q413.02 89.62 413.13 89.68Q413.24 89.73 413.24 89.86L413.24 89.86Q413.24 90.05 412.88 90.05L412.88 90.05Q412.34 90.05 412.06 90.01Q411.78 89.96 411.31 89.96L411.31 89.96Q411.00 89.96 410.82 89.98Q410.63 90 410.42 90.03Q410.21 90.05 409.85 90.05ZM418.82 90.27L418.82 90.27Q417.83 90.27 417.09 89.78Q416.35 89.30 415.94 88.41Q415.52 87.52 415.52 86.35L415.52 86.35Q415.52 85.30 416.00 84.45Q416.48 83.59 417.27 83.07Q418.06 82.55 419.00 82.55L419.00 82.55Q419.72 82.55 420.27 82.84Q420.83 83.12 421.15 83.64Q421.46 84.15 421.46 84.82L421.46 84.82Q421.46 85.37 420.92 85.37L420.92 85.37L417.12 85.37Q416.87 85.37 416.77 85.51Q416.67 85.64 416.67 86.04L416.67 86.04Q416.67 86.90 417.05 87.61Q417.43 88.33 418.06 88.75Q418.69 89.17 419.45 89.17L419.45 89.17Q419.99 89.17 420.43 88.97Q420.87 88.76 421.21 88.36L421.21 88.36Q421.28 88.27 421.32 88.25Q421.35 88.22 421.41 88.22L421.41 88.22Q421.55 88.22 421.55 88.40L421.55 88.40Q421.55 88.74 421.23 89.15L421.23 89.15Q420.96 89.50 420.58 89.75Q420.20 90 419.75 90.14Q419.30 90.27 418.82 90.27ZM417.16 84.82L417.16 84.82L418.80 84.82Q419.23 84.82 419.54 84.80Q419.84 84.78 420.13 84.73L420.13 84.73Q420.22 84.71 420.25 84.61Q420.27 84.51 420.27 84.33L420.27 84.33Q420.27 83.81 419.82 83.44Q419.36 83.07 418.73 83.07L418.73 83.07Q418.31 83.07 417.90 83.31Q417.48 83.56 417.21 83.92Q416.94 84.28 416.94 84.64L416.94 84.64Q416.94 84.82 417.16 84.82ZM425.67 90.29L425.67 90.29Q424.92 90.29 424.28 90.06Q423.64 89.84 423.14 89.42L423.14 89.42Q423.06 89.35 423.00 89.26Q422.94 89.17 422.90 89.06L422.90 89.06Q422.81 88.70 422.79 88.13Q422.76 87.55 422.72 87.17L422.72 87.17Q422.72 87.05 422.83 86.98Q422.94 86.92 423.08 86.92L423.08 86.92Q423.17 86.92 423.26 86.97Q423.35 87.01 423.37 87.12L423.37 87.12Q423.73 88.51 424.44 89.10Q425.15 89.69 425.93 89.69L425.93 89.69Q426.56 89.69 427.04 89.42Q427.53 89.15 427.81 88.66Q428.09 88.16 428.09 87.50L428.09 87.50Q428.09 86.76 427.84 86.30Q427.60 85.84 427.15 85.50Q426.70 85.16 426.05 84.76L426.05 84.76Q425.35 84.31 424.67 83.85Q423.98 83.39 423.53 82.79Q423.08 82.19 423.08 81.32L423.08 81.32Q423.08 80.41 423.50 79.67Q423.91 78.93 424.75 78.49Q425.58 78.05 426.84 78.05L426.84 78.05Q427.49 78.05 427.97 78.18Q428.45 78.32 428.73 78.44L428.73 78.44Q428.88 78.50 428.98 78.62Q429.08 78.75 429.11 78.89L429.11 78.89Q429.22 79.27 429.35 79.76Q429.47 80.24 429.47 80.68L429.47 80.68Q429.47 80.87 429.20 80.87L429.20 80.87Q429.04 80.87 428.89 80.80Q428.73 80.73 428.70 80.62L428.70 80.62Q428.32 79.67 427.82 79.16Q427.31 78.66 426.54 78.66L426.54 78.66Q426.00 78.66 425.53 78.86Q425.06 79.06 424.77 79.51Q424.47 79.96 424.47 80.71L424.47 80.71Q424.47 81.25 424.82 81.69Q425.17 82.13 425.75 82.53Q426.32 82.93 426.99 83.34L426.99 83.34Q427.62 83.72 428.22 84.17Q428.82 84.62 429.21 85.24Q429.60 85.86 429.60 86.76L429.60 86.76Q429.60 87.82 429.11 88.62Q428.63 89.42 427.74 89.86Q426.86 90.29 425.67 90.29ZM443.76 94.46L443.76 94.46Q442.47 94.46 441.56 94.09Q440.65 93.73 439.79 93.11L439.79 93.11Q439.08 92.61 438.45 92.15Q437.82 91.69 436.94 90.97L436.94 90.97Q436.31 90.45 435.78 90.22Q435.25 90 434.87 89.82L434.87 89.82Q434.13 89.48 433.47 88.99Q432.80 88.51 432.29 87.84Q431.78 87.17 431.48 86.30Q431.18 85.43 431.18 84.33L431.18 84.33Q431.18 83.11 431.58 81.98Q431.97 80.86 432.75 79.97Q433.52 79.09 434.67 78.57Q435.83 78.05 437.32 78.05L437.32 78.05Q438.51 78.05 439.59 78.47Q440.67 78.89 441.50 79.68Q442.32 80.46 442.81 81.55Q443.30 82.64 443.30 83.97L443.30 83.97Q443.30 85.34 442.80 86.58Q442.31 87.82 441.33 88.74Q440.36 89.66 438.92 90.04L438.92 90.04Q438.78 90.07 438.78 90.16L438.78 90.16Q438.78 90.25 438.85 90.32L438.85 90.32Q439.37 90.88 439.92 91.36Q440.47 91.84 441.14 92.32L441.14 92.32Q442.04 92.97 442.82 93.21Q443.60 93.46 444.65 93.46L444.65 93.46Q444.97 93.46 445.25 93.42Q445.53 93.38 445.65 93.33L445.65 93.33Q445.74 93.29 445.83 93.28Q445.92 93.26 446.00 93.26L446.00 93.26Q446.19 93.26 446.19 93.40L446.19 93.40Q446.19 93.56 446.13 93.65Q446.07 93.74 445.87 93.87L445.87 93.87Q445.37 94.18 444.82 94.32Q444.27 94.46 443.76 94.46ZM437.43 89.53L437.43 89.53Q439.50 89.53 440.53 88.25Q441.57 86.98 441.57 84.85L441.57 84.85Q441.57 83.61 441.28 82.51Q440.99 81.41 440.43 80.58Q439.86 79.74 439.01 79.27Q438.17 78.80 437.03 78.80L437.03 78.80Q435.00 78.80 433.95 80.06Q432.91 81.32 432.91 83.43L432.91 83.43Q432.91 84.69 433.19 85.79Q433.47 86.89 434.04 87.73Q434.60 88.58 435.45 89.06Q436.29 89.53 437.43 89.53ZM445.10 90.09L445.10 90.09Q444.86 90.09 444.73 90.03Q444.59 89.96 444.59 89.87L444.59 89.87Q444.59 89.71 444.76 89.65Q444.93 89.59 444.99 89.57L444.99 89.57Q445.69 89.42 446.07 89.14Q446.45 88.87 446.45 88.27L446.45 88.27L446.45 79.92Q446.45 79.49 446.36 79.28Q446.27 79.07 446.03 78.97Q445.80 78.88 445.35 78.80L445.35 78.80Q444.75 78.70 444.75 78.44L444.75 78.44Q444.75 78.34 444.90 78.29Q445.04 78.25 445.28 78.25L445.28 78.25Q445.76 78.25 446.06 78.26Q446.36 78.28 446.63 78.29Q446.90 78.30 447.29 78.30L447.29 78.30Q447.74 78.30 448.07 78.29Q448.39 78.28 448.73 78.26Q449.07 78.25 449.56 78.25L449.56 78.25Q449.79 78.25 449.94 78.29Q450.08 78.34 450.08 78.44L450.08 78.44Q450.08 78.57 449.94 78.66Q449.79 78.75 449.49 78.80L449.49 78.80Q448.82 78.93 448.35 79.10Q447.89 79.27 447.89 79.79L447.89 79.79L447.89 88.27Q447.89 88.83 448.14 89.10Q448.39 89.37 449.27 89.37L449.27 89.37L451.50 89.37Q451.99 89.37 452.36 89.22Q452.73 89.06 452.91 88.90L452.91 88.90Q453.27 88.60 453.44 88.35Q453.61 88.11 453.84 87.62L453.84 87.62Q453.88 87.52 454.00 87.30Q454.11 87.08 454.24 87.08L454.24 87.08Q454.35 87.08 454.40 87.19Q454.46 87.30 454.46 87.41L454.46 87.41Q454.46 87.43 454.45 87.45Q454.44 87.48 454.44 87.50L454.44 87.50Q454.31 87.97 454.21 88.34Q454.11 88.72 454.05 89.06Q453.99 89.41 453.95 89.78L453.95 89.78Q453.93 89.91 453.89 90Q453.84 90.09 453.70 90.09L453.70 90.09Q452.80 90.09 451.97 90.07Q451.14 90.05 450.38 90.05Q449.61 90.04 448.91 90.02Q448.21 90 447.53 90L447.53 90Q447.08 90 446.51 90.02Q445.94 90.04 445.52 90.06Q445.10 90.09 445.10 90.09ZM455.30 92.65L455.30 92.65Q454.98 92.65 454.98 92.45L454.98 92.45Q454.98 92.38 455.04 92.31Q455.10 92.25 455.23 92.23L455.23 92.23Q455.63 92.14 456.02 91.93Q456.42 91.71 456.69 91.31Q456.96 90.90 456.96 90.27L456.96 90.27Q456.96 90.05 456.76 89.78Q456.56 89.50 456.26 89.48L456.26 89.48Q455.86 89.44 455.64 89.23Q455.41 89.01 455.41 88.72L455.41 88.72Q455.41 88.36 455.71 88.13Q456.00 87.89 456.40 87.89L456.40 87.89Q457.05 87.89 457.47 88.39Q457.89 88.88 457.89 89.64L457.89 89.64Q457.89 90.32 457.62 90.87Q457.35 91.42 456.94 91.82Q456.53 92.21 456.09 92.43Q455.64 92.65 455.30 92.65ZM462.84 90.09L462.84 90.09Q462.61 90.09 462.47 90.03Q462.32 89.96 462.32 89.86L462.32 89.86Q462.32 89.73 462.48 89.63Q462.63 89.53 462.92 89.44L462.92 89.44Q463.38 89.30 463.78 89.01Q464.18 88.72 464.46 88.06L464.46 88.06Q464.97 86.90 465.39 85.90Q465.81 84.89 466.19 83.92Q466.57 82.94 466.98 81.89Q467.38 80.84 467.83 79.60L467.83 79.60Q467.92 79.34 467.99 79.09Q468.06 78.84 468.08 78.55L468.08 78.55Q468.24 78.50 468.41 78.44Q468.57 78.39 468.73 78.28L468.73 78.28Q468.89 78.17 468.96 77.96Q469.02 77.74 469.07 77.67L469.07 77.67Q469.09 77.65 469.12 77.65Q469.14 77.65 469.16 77.69L469.16 77.69Q469.20 77.76 469.23 77.87Q469.25 77.98 469.29 78.08L469.29 78.08Q469.72 79.45 470.19 80.87Q470.66 82.30 471.10 83.62Q471.54 84.94 471.91 86.00Q472.28 87.05 472.49 87.70L472.49 87.70Q472.74 88.42 473.03 88.78Q473.32 89.14 473.64 89.28Q473.95 89.42 474.31 89.50L474.31 89.50Q474.62 89.55 474.76 89.67Q474.90 89.78 474.90 89.91L474.90 89.91Q474.90 90.02 474.76 90.05Q474.62 90.09 474.38 90.09L474.38 90.09Q474.13 90.09 473.70 90.06Q473.27 90.04 472.78 90.01Q472.29 89.98 471.88 89.98L471.88 89.98Q471.54 89.98 471.18 89.98Q470.82 89.98 470.51 89.99Q470.21 90 469.99 90L469.99 90Q469.76 90 469.61 89.95Q469.47 89.89 469.47 89.78L469.47 89.78Q469.47 89.66 469.65 89.57Q469.83 89.48 470.06 89.44L470.06 89.44Q470.66 89.35 470.91 89.14Q471.16 88.92 471.16 88.63L471.16 88.63Q471.16 88.36 471.04 87.85Q470.93 87.34 470.76 86.75Q470.60 86.17 470.46 85.72L470.46 85.72Q470.42 85.57 470.32 85.55Q470.22 85.52 469.97 85.52L469.97 85.52L466.57 85.52Q466.50 85.52 466.42 85.58Q466.34 85.64 466.26 85.84L466.26 85.84Q466.21 86.02 466.08 86.41Q465.96 86.80 465.83 87.23Q465.71 87.66 465.62 88.00Q465.53 88.34 465.53 88.43L465.53 88.43Q465.53 88.83 465.83 89.09Q466.14 89.35 466.57 89.46L466.57 89.46Q467.16 89.62 467.16 89.82L467.16 89.82Q467.16 89.93 467.02 89.97Q466.88 90.02 466.64 90.02L466.64 90.02Q466.41 90.02 465.96 90Q465.51 89.98 465.00 89.98L465.00 89.98Q464.41 89.98 463.85 90.04Q463.29 90.09 462.84 90.09ZM467.06 84.92L467.06 84.92L469.85 84.92Q470.10 84.92 470.10 84.83L470.10 84.83Q470.10 84.80 470.09 84.75Q470.08 84.71 470.06 84.65L470.06 84.65L468.66 80.26Q468.55 79.94 468.50 79.94L468.50 79.94Q468.46 79.94 468.35 80.24L468.35 80.24L466.71 84.65Q466.68 84.76 466.68 84.80L466.68 84.80Q466.68 84.89 466.78 84.91Q466.88 84.92 467.06 84.92ZM480.84 90.29L480.84 90.29Q480.81 90.29 480.74 90.13Q480.66 89.96 480.59 89.78L480.59 89.78L476.70 80.03Q476.49 79.56 476.18 79.26Q475.88 78.97 475.41 78.84L475.41 78.84Q475.12 78.75 474.97 78.66Q474.81 78.57 474.81 78.44L474.81 78.44Q474.81 78.34 474.96 78.29Q475.10 78.25 475.34 78.25L475.34 78.25Q475.75 78.25 476.12 78.27Q476.49 78.30 476.94 78.30L476.94 78.30Q477.44 78.30 477.89 78.28Q478.34 78.26 478.61 78.26L478.61 78.26Q478.85 78.26 478.99 78.31Q479.13 78.35 479.13 78.46L479.13 78.46Q479.13 78.59 478.99 78.66Q478.85 78.73 478.54 78.82L478.54 78.82Q478.32 78.88 478.25 79.05Q478.18 79.22 478.18 79.42L478.18 79.42Q478.18 79.70 478.25 79.95Q478.32 80.19 478.32 80.19L478.32 80.19Q478.74 81.23 479.08 82.10Q479.42 82.96 479.76 83.76Q480.09 84.56 480.46 85.40Q480.83 86.24 481.28 87.26L481.28 87.26Q481.37 87.46 481.43 87.44Q481.49 87.43 481.55 87.28L481.55 87.28L482.95 83.81Q483.00 83.66 483.03 83.56Q483.06 83.47 483.06 83.39L483.06 83.39Q483.06 83.29 483.02 83.17Q482.99 83.05 482.91 82.87L482.91 82.87L481.89 80.32Q481.65 79.74 481.15 79.35Q480.65 78.97 480.18 78.84L480.18 78.84Q479.89 78.75 479.74 78.66Q479.58 78.57 479.58 78.44L479.58 78.44Q479.58 78.34 479.73 78.29Q479.87 78.25 480.11 78.25L480.11 78.25Q480.39 78.25 480.66 78.26Q480.92 78.28 481.20 78.29Q481.47 78.30 481.80 78.30L481.80 78.30Q482.21 78.30 482.56 78.28Q482.91 78.26 483.18 78.26L483.18 78.26Q483.42 78.26 483.56 78.31Q483.71 78.35 483.71 78.46L483.71 78.46Q483.71 78.61 483.53 78.70Q483.35 78.79 483.16 78.89Q482.97 79.00 482.97 79.22L482.97 79.22Q482.97 79.25 482.98 79.29Q482.99 79.33 483.00 79.36L483.00 79.36Q483.04 79.43 483.14 79.71Q483.24 79.99 483.37 80.33Q483.51 80.68 483.63 80.97Q483.76 81.27 483.81 81.40L483.81 81.40Q483.90 81.61 483.97 81.62Q484.03 81.63 484.14 81.40L484.14 81.40Q484.28 81.07 484.44 80.66Q484.59 80.24 484.71 79.88Q484.82 79.51 484.86 79.36L484.86 79.36Q484.88 79.31 484.88 79.24L484.88 79.24Q484.88 79.02 484.71 78.91Q484.55 78.80 484.38 78.70Q484.21 78.61 484.21 78.46L484.21 78.46Q484.21 78.35 484.35 78.31Q484.50 78.26 484.73 78.26L484.73 78.26Q485.13 78.26 485.27 78.28Q485.42 78.30 485.67 78.30L485.67 78.30Q485.97 78.30 486.19 78.27Q486.41 78.25 486.73 78.25L486.73 78.25Q486.96 78.25 487.11 78.29Q487.25 78.34 487.25 78.44L487.25 78.44Q487.25 78.57 487.11 78.65Q486.96 78.73 486.66 78.80L486.66 78.80Q486.08 78.93 485.88 79.11Q485.67 79.29 485.43 79.67L485.43 79.67Q485.34 79.83 485.17 80.21Q485.00 80.59 484.81 81.04Q484.62 81.49 484.48 81.88L484.48 81.88Q484.43 82.01 484.38 82.24Q484.34 82.48 484.37 82.57L484.37 82.57L486.23 87.34Q486.26 87.43 486.32 87.39Q486.37 87.35 486.42 87.23L486.42 87.23Q486.87 86.04 487.44 84.19Q488.01 82.33 488.62 80.26L488.62 80.26Q488.67 80.10 488.70 79.93Q488.73 79.76 488.73 79.61L488.73 79.61Q488.73 79.34 488.61 79.13Q488.49 78.91 488.19 78.84L488.19 78.84Q488.01 78.79 487.80 78.70Q487.59 78.61 487.59 78.48L487.59 78.48Q487.59 78.37 487.74 78.33Q487.88 78.28 488.12 78.28L488.12 78.28Q488.48 78.28 488.77 78.29Q489.07 78.30 489.41 78.30L489.41 78.30Q489.86 78.30 490.28 78.27Q490.69 78.25 491.03 78.25L491.03 78.25Q491.27 78.25 491.41 78.29Q491.55 78.34 491.55 78.44L491.55 78.44Q491.55 78.57 491.41 78.65Q491.27 78.73 490.96 78.80L490.96 78.80Q490.53 78.89 490.23 79.17Q489.93 79.45 489.76 79.78Q489.59 80.12 489.48 80.39L489.48 80.39L486.30 89.80Q486.28 89.87 486.19 90.05Q486.10 90.22 486.01 90.22L486.01 90.22Q485.94 90.22 485.85 90.11Q485.76 90 485.70 89.87L485.70 89.87Q485.24 88.79 484.89 87.94Q484.55 87.08 484.24 86.22Q483.92 85.36 483.49 84.31L483.49 84.31Q483.44 84.19 483.40 84.21Q483.36 84.24 483.29 84.42L483.29 84.42Q482.86 85.45 482.55 86.24Q482.23 87.03 481.92 87.85Q481.62 88.67 481.24 89.73L481.24 89.73Q481.17 89.91 481.06 90.10Q480.95 90.29 480.84 90.29ZM494.97 90.29L494.97 90.29Q494.22 90.29 493.58 90.06Q492.94 89.84 492.44 89.42L492.44 89.42Q492.36 89.35 492.30 89.26Q492.24 89.17 492.20 89.06L492.20 89.06Q492.11 88.70 492.09 88.13Q492.06 87.55 492.02 87.17L492.02 87.17Q492.02 87.05 492.13 86.98Q492.24 86.92 492.38 86.92L492.38 86.92Q492.47 86.92 492.56 86.97Q492.65 87.01 492.67 87.12L492.67 87.12Q493.03 88.51 493.74 89.10Q494.45 89.69 495.23 89.69L495.23 89.69Q495.86 89.69 496.34 89.42Q496.83 89.15 497.11 88.66Q497.39 88.16 497.39 87.50L497.39 87.50Q497.39 86.76 497.14 86.30Q496.90 85.84 496.45 85.50Q496.00 85.16 495.35 84.76L495.35 84.76Q494.65 84.31 493.97 83.85Q493.28 83.39 492.83 82.79Q492.38 82.19 492.38 81.32L492.38 81.32Q492.38 80.41 492.80 79.67Q493.21 78.93 494.05 78.49Q494.88 78.05 496.14 78.05L496.14 78.05Q496.79 78.05 497.27 78.18Q497.75 78.32 498.03 78.44L498.03 78.44Q498.18 78.50 498.28 78.62Q498.38 78.75 498.41 78.89L498.41 78.89Q498.52 79.27 498.65 79.76Q498.77 80.24 498.77 80.68L498.77 80.68Q498.77 80.87 498.50 80.87L498.50 80.87Q498.34 80.87 498.19 80.80Q498.03 80.73 498.00 80.62L498.00 80.62Q497.62 79.67 497.12 79.16Q496.61 78.66 495.84 78.66L495.84 78.66Q495.30 78.66 494.83 78.86Q494.36 79.06 494.07 79.51Q493.77 79.96 493.77 80.71L493.77 80.71Q493.77 81.25 494.12 81.69Q494.47 82.13 495.05 82.53Q495.62 82.93 496.29 83.34L496.29 83.34Q496.92 83.72 497.52 84.17Q498.12 84.62 498.51 85.24Q498.90 85.86 498.90 86.76L498.90 86.76Q498.90 87.82 498.41 88.62Q497.93 89.42 497.04 89.86Q496.16 90.29 494.97 90.29ZM500.36 92.65L500.36 92.65Q500.03 92.65 500.03 92.45L500.03 92.45Q500.03 92.38 500.10 92.31Q500.16 92.25 500.28 92.23L500.28 92.23Q500.68 92.14 501.08 91.93Q501.47 91.71 501.74 91.31Q502.01 90.90 502.01 90.27L502.01 90.27Q502.01 90.05 501.81 89.78Q501.62 89.50 501.31 89.48L501.31 89.48Q500.91 89.44 500.69 89.23Q500.46 89.01 500.46 88.72L500.46 88.72Q500.46 88.36 500.76 88.13Q501.06 87.89 501.45 87.89L501.45 87.89Q502.10 87.89 502.53 88.39Q502.95 88.88 502.95 89.64L502.95 89.64Q502.95 90.32 502.68 90.87Q502.41 91.42 501.99 91.82Q501.58 92.21 501.14 92.43Q500.70 92.65 500.36 92.65ZM518.88 90.38L518.88 90.38Q518.37 90.38 517.92 90.30Q517.47 90.22 517.10 90Q516.72 89.78 516.39 89.41L516.39 89.41Q515.96 88.87 515.57 88.37Q515.17 87.88 514.73 87.23Q514.29 86.58 513.66 85.57L513.66 85.57Q513.39 85.12 512.88 84.87L512.88 84.87Q512.49 84.67 512.10 84.59Q511.71 84.51 511.46 84.49L511.46 84.49Q511.32 84.47 511.26 84.58Q511.19 84.69 511.19 84.85L511.19 84.85L511.19 88.02Q511.19 88.60 511.46 89.02Q511.73 89.44 512.40 89.57L512.40 89.57Q512.70 89.62 512.85 89.69Q512.99 89.77 512.99 89.89L512.99 89.89Q512.99 90 512.85 90.05Q512.70 90.09 512.47 90.09L512.47 90.09Q511.98 90.09 511.72 90.05Q511.46 90.02 511.26 89.99Q511.05 89.96 510.71 89.96L510.71 89.96Q510.26 89.96 509.91 89.99Q509.55 90.02 509.20 90.05Q508.85 90.09 508.37 90.09L508.37 90.09Q508.13 90.09 507.99 90.05Q507.84 90 507.84 89.89L507.84 89.89Q507.84 89.68 508.44 89.57L508.44 89.57Q509.12 89.44 509.44 89.15Q509.75 88.87 509.75 88.20L509.75 88.20L509.75 80.53Q509.75 79.85 509.69 79.50Q509.63 79.15 509.40 79.00Q509.18 78.86 508.65 78.80L508.65 78.80Q508.35 78.77 508.20 78.67Q508.06 78.57 508.06 78.44L508.06 78.44Q508.06 78.34 508.20 78.29Q508.35 78.25 508.58 78.25L508.58 78.25Q509.07 78.25 509.31 78.25Q509.55 78.25 509.77 78.25Q509.99 78.26 510.35 78.26L510.35 78.26Q510.69 78.26 510.96 78.24Q511.23 78.21 511.56 78.19Q511.89 78.17 512.42 78.17L512.42 78.17Q514.40 78.17 515.43 78.91Q516.47 79.65 516.47 81.13L516.47 81.13Q516.47 81.94 516.14 82.52Q515.82 83.11 515.33 83.50Q514.85 83.90 514.34 84.15L514.34 84.15Q514.27 84.17 514.28 84.23Q514.29 84.29 514.34 84.38L514.34 84.38Q514.90 85.23 515.41 85.99Q515.93 86.74 516.54 87.46Q517.15 88.18 518.00 88.96L518.00 88.96Q518.46 89.37 518.95 89.46Q519.44 89.55 520.07 89.55L520.07 89.55Q520.34 89.55 520.34 89.75L520.34 89.75Q520.34 90.02 520.07 90.15Q519.80 90.29 519.45 90.33Q519.11 90.38 518.88 90.38ZM512.15 84.08L512.15 84.08Q512.97 84.08 513.58 83.70Q514.18 83.32 514.51 82.71Q514.85 82.10 514.85 81.41L514.85 81.41Q514.85 80.68 514.66 80.06Q514.47 79.45 513.90 79.08Q513.33 78.71 512.20 78.71L512.20 78.71Q511.62 78.71 511.44 79.08Q511.26 79.45 511.23 80.39L511.23 80.39Q511.21 80.84 511.20 81.60Q511.19 82.37 511.19 83.45L511.19 83.45Q511.19 83.90 511.44 83.99Q511.70 84.08 512.15 84.08ZM524.08 90.27L524.08 90.27Q523.09 90.27 522.35 89.78Q521.61 89.30 521.20 88.41Q520.79 87.52 520.79 86.35L520.79 86.35Q520.79 85.30 521.26 84.45Q521.74 83.59 522.53 83.07Q523.32 82.55 524.26 82.55L524.26 82.55Q524.98 82.55 525.54 82.84Q526.10 83.12 526.41 83.64Q526.73 84.15 526.73 84.82L526.73 84.82Q526.73 85.37 526.19 85.37L526.19 85.37L522.39 85.37Q522.14 85.37 522.04 85.51Q521.94 85.64 521.94 86.04L521.94 86.04Q521.94 86.90 522.32 87.61Q522.69 88.33 523.32 88.75Q523.95 89.17 524.71 89.17L524.71 89.17Q525.25 89.17 525.69 88.97Q526.13 88.76 526.47 88.36L526.47 88.36Q526.55 88.27 526.58 88.25Q526.62 88.22 526.67 88.22L526.67 88.22Q526.82 88.22 526.82 88.40L526.82 88.40Q526.82 88.74 526.49 89.15L526.49 89.15Q526.22 89.50 525.84 89.75Q525.47 90 525.02 90.14Q524.57 90.27 524.08 90.27ZM522.42 84.82L522.42 84.82L524.06 84.82Q524.49 84.82 524.80 84.80Q525.11 84.78 525.39 84.73L525.39 84.73Q525.48 84.71 525.51 84.61Q525.54 84.51 525.54 84.33L525.54 84.33Q525.54 83.81 525.08 83.44Q524.62 83.07 523.99 83.07L523.99 83.07Q523.58 83.07 523.16 83.31Q522.75 83.56 522.48 83.92Q522.21 84.28 522.21 84.64L522.21 84.64Q522.21 84.82 522.42 84.82ZM533.69 90.34L533.69 90.34Q533.66 90.34 533.58 90.27Q533.49 90.20 533.49 90.16L533.49 90.16Q533.49 89.98 533.54 89.65Q533.58 89.32 533.58 89.08L533.58 89.08L533.58 88.97Q533.31 89.39 532.72 89.82Q532.13 90.25 531.23 90.25L531.23 90.25Q530.20 90.25 529.45 89.71Q528.71 89.17 528.30 88.33Q527.90 87.48 527.90 86.58L527.90 86.58Q527.90 85.54 528.38 84.62Q528.87 83.70 529.78 83.12Q530.69 82.55 531.95 82.55L531.95 82.55Q532.31 82.55 532.68 82.61Q533.04 82.67 533.24 82.75L533.24 82.75Q533.40 82.80 533.48 82.80L533.48 82.80Q533.60 82.80 533.60 82.37L533.60 82.37L533.60 79.81Q533.60 79.07 533.37 78.82Q533.13 78.57 532.70 78.50L532.70 78.50Q532.54 78.46 532.54 78.26L532.54 78.26Q532.54 78.10 532.68 78.05L532.68 78.05Q533.48 77.85 533.93 77.67Q534.38 77.49 534.63 77.38L534.63 77.38Q534.70 77.35 534.76 77.34Q534.83 77.33 534.86 77.33L534.86 77.33Q534.97 77.33 534.99 77.44L534.99 77.44Q534.99 77.54 534.96 77.80Q534.93 78.07 534.90 78.57Q534.86 79.07 534.86 79.88L534.86 79.88L534.86 88.02Q534.86 88.63 534.95 88.91Q535.04 89.19 535.24 89.19L535.24 89.19Q535.33 89.19 535.56 89.17Q535.78 89.15 536.01 89.14L536.01 89.14Q536.34 89.12 536.34 89.30L536.34 89.30Q536.34 89.42 536.26 89.52Q536.18 89.62 536.09 89.62L536.09 89.62Q535.58 89.69 535.10 89.83Q534.61 89.96 533.98 90.23L533.98 90.23Q533.84 90.31 533.79 90.32Q533.75 90.34 533.69 90.34ZM531.87 89.32L531.87 89.32Q532.34 89.32 532.79 89.07Q533.24 88.83 533.58 88.43L533.58 88.43L533.60 85.19Q533.60 84.71 533.32 84.24Q533.04 83.77 532.55 83.47Q532.05 83.18 531.39 83.18L531.39 83.18Q530.97 83.18 530.45 83.43Q529.93 83.68 529.55 84.32Q529.17 84.96 529.17 86.17L529.17 86.17Q529.17 87.19 529.48 87.81Q529.79 88.43 530.23 88.76Q530.67 89.08 531.13 89.20Q531.59 89.32 531.87 89.32ZM537.17 90.05L537.17 90.05Q537.00 90.05 536.90 90.01Q536.81 89.96 536.81 89.86L536.81 89.86Q536.81 89.71 536.94 89.66Q537.08 89.60 537.22 89.57L537.22 89.57Q537.60 89.48 537.80 89.34Q537.99 89.21 537.99 88.88L537.99 88.88L537.99 84.98Q537.99 84.49 537.82 84.11Q537.65 83.74 537.18 83.66L537.18 83.66Q537.09 83.65 537.05 83.59Q537.00 83.54 537.00 83.43L537.00 83.43Q537.00 83.23 537.17 83.21L537.17 83.21Q537.89 83.05 538.35 82.77Q538.82 82.49 539.06 82.31L539.06 82.31Q539.22 82.19 539.31 82.19L539.31 82.19Q539.42 82.19 539.42 82.28L539.42 82.28Q539.42 82.42 539.37 82.84Q539.33 83.27 539.29 83.78Q539.25 84.29 539.25 84.71L539.25 84.71L539.25 88.88Q539.25 89.19 539.46 89.33Q539.67 89.48 540.03 89.57L540.03 89.57Q540.17 89.60 540.31 89.66Q540.44 89.71 540.44 89.86L540.44 89.86Q540.44 90.05 540.08 90.05L540.08 90.05Q539.74 90.05 539.53 90.03Q539.33 90 539.14 89.98Q538.95 89.96 538.62 89.96L538.62 89.96Q538.32 89.96 538.12 89.98Q537.92 90 537.72 90.03Q537.53 90.05 537.17 90.05ZM538.61 80.71L538.61 80.71Q538.23 80.71 537.97 80.45Q537.71 80.19 537.71 79.81L537.71 79.81Q537.71 79.42 537.97 79.16Q538.23 78.89 538.61 78.89L538.61 78.89Q539.00 78.89 539.26 79.16Q539.52 79.42 539.52 79.81L539.52 79.81Q539.52 80.19 539.26 80.45Q539.00 80.71 538.61 80.71ZM543.38 90.25L543.38 90.25Q542.82 90.25 542.33 90.08Q541.85 89.91 541.50 89.60L541.50 89.60Q541.41 89.41 541.37 88.94Q541.32 88.47 541.31 88.16L541.31 88.16Q541.31 88.00 541.54 88.00L541.54 88.00Q541.61 88.00 541.67 88.03Q541.74 88.06 541.76 88.13L541.76 88.13Q541.99 89.01 542.50 89.39Q543.02 89.77 543.54 89.77L543.54 89.77Q544.06 89.77 544.43 89.42Q544.80 89.06 544.80 88.54L544.80 88.54Q544.80 88.06 544.47 87.70Q544.15 87.35 543.34 86.85L543.34 86.85Q542.73 86.47 542.35 86.13Q541.97 85.79 541.80 85.43Q541.63 85.07 541.63 84.62L541.63 84.62Q541.63 84.04 541.90 83.57Q542.17 83.11 542.71 82.83Q543.25 82.55 544.06 82.55L544.06 82.55Q544.60 82.55 544.96 82.66Q545.32 82.76 545.50 82.89L545.50 82.89Q545.64 83.09 545.74 83.51Q545.84 83.93 545.84 84.31L545.84 84.31Q545.84 84.44 545.66 84.44L545.66 84.44Q545.55 84.44 545.46 84.39Q545.36 84.35 545.32 84.28L545.32 84.28Q545.09 83.68 544.74 83.37Q544.38 83.05 543.86 83.05L543.86 83.05Q543.41 83.05 543.06 83.32Q542.71 83.59 542.71 84.11L542.71 84.11Q542.71 84.53 542.97 84.85Q543.23 85.18 543.95 85.59L543.95 85.59Q545.00 86.18 545.51 86.70Q546.02 87.21 546.02 88.06L546.02 88.06Q546.02 89.03 545.28 89.64Q544.55 90.25 543.38 90.25Z"/>
  </svg>