<svg viewBox="0 0 800 150" width="100%" xmlns="http://www.w3.org/2000/svg">
    <rect width="800" height="150" fill="#0d1117" rx="8" />
    <rect width="800" height="150" fill="none" stroke="#14b8a6" stroke-width="2" stroke-opacity="0.2" rx="8" />
    
      <g transform="translate(150, 75)">
        <animateTransform attributeName="transform" type="rotate" from="0 0 0" to="360 0 0" dur="40s" repeatCount="indefinite" />
        <circle r="60" fill="none" stroke="#14b8a6" stroke-width="1" opacity="0.6" stroke-dasharray="4 4" />
        <circle r="54" fill="none" stroke="#14b8a6" stroke-width="0.5" opacity="0.4" />
        <path d="M0,-48L41.569,24L-41.569,24Z" fill="none" stroke="#14b8a6" stroke-width="1.5" opacity="0.7" />
        <path d="M41.569,-24L0,48L-41.569,-24Z" fill="none" stroke="#14b8a6" stroke-width="1.5" opacity="0.7" />
        <path d="M0,24L-20.785,-12L20.785,-12Z" fill="none" stroke="#14b8a6" stroke-width="1.5" opacity="0.9" />
      </g>
    
    <path fill="#e2e8f0" d="M281.89 50.16L281.89 50.16Q281.47 50.16 281.22 50.08Q280.96 50 280.96 49.81L280.96 49.81Q280.96 49.42 282.02 49.23L282.02 49.23Q283.23 49.01 283.70 48.50Q284.16 47.98 284.16 46.80L284.16 46.80L284.16 33.30Q284.16 31.86 283.79 31.09Q283.42 30.32 282.21 30.10L282.21 30.10Q281.66 30 281.41 29.84Q281.15 29.68 281.15 29.46L281.15 29.46Q281.15 29.26 281.41 29.18Q281.66 29.10 282.08 29.10L282.08 29.10Q283.26 29.10 284.08 29.14Q284.90 29.17 285.70 29.18Q286.50 29.20 287.58 29.20L287.58 29.20Q288.51 29.20 289.57 29.20Q290.62 29.20 291.62 29.20L291.62 29.20Q292.64 29.20 293.42 29.04Q294.21 28.88 294.78 28.88L294.78 28.88Q294.94 28.88 295.14 28.94Q295.33 29.01 295.36 29.17L295.36 29.17Q295.42 29.52 295.46 30.21Q295.49 30.90 295.50 31.54Q295.52 32.18 295.52 32.40L295.52 32.40Q295.52 33.07 295.23 33.07L295.23 33.07Q295.07 33.07 294.94 32.96Q294.82 32.85 294.75 32.69L294.75 32.69Q294.62 32.14 294.43 31.74Q294.24 31.34 294.02 31.12L294.02 31.12Q293.57 30.61 293.02 30.43Q292.48 30.26 291.87 30.26L291.87 30.26L287.81 30.26Q287.07 30.26 286.91 30.74Q286.75 31.22 286.72 31.86L286.72 31.86Q286.69 32.46 286.69 33.34Q286.69 34.22 286.69 35.06L286.69 35.06Q286.69 35.86 286.69 36.69Q286.69 37.52 286.72 38.10L286.72 38.10Q286.72 38.35 286.77 38.58Q286.82 38.80 287.04 38.80L287.04 38.80Q288.06 38.80 289.12 38.75Q290.18 38.70 290.75 38.70L290.75 38.70Q291.46 38.70 291.97 38.32Q292.48 37.94 292.70 37.39L292.70 37.39Q292.77 37.26 292.96 37.06Q293.15 36.85 293.28 36.85L293.28 36.85Q293.41 36.85 293.57 36.99Q293.73 37.14 293.70 37.36L293.70 37.36Q293.66 37.90 293.63 38.32Q293.60 38.74 293.60 39.12L293.60 39.12Q293.60 39.60 293.63 40.10Q293.66 40.59 293.70 41.30L293.70 41.30Q293.70 41.52 293.65 41.68Q293.60 41.84 293.41 41.84L293.41 41.84Q293.09 41.84 292.91 41.55Q292.74 41.26 292.67 41.10L292.67 41.10Q292.45 40.37 292 40.10Q291.55 39.82 291.17 39.82L291.17 39.82Q290.75 39.82 290.35 39.81Q289.95 39.79 289.57 39.79L289.57 39.79Q289.02 39.79 288.51 39.79Q288 39.79 287.49 39.86L287.49 39.86Q287.17 39.89 286.94 40.06Q286.72 40.24 286.72 40.66L286.72 40.66Q286.72 42.13 286.74 43.65Q286.75 45.17 286.82 46.77L286.82 46.77Q286.88 47.79 287.31 48.40Q287.74 49.01 288.93 49.23L288.93 49.23Q289.47 49.33 289.73 49.46Q289.98 49.58 289.98 49.81L289.98 49.81Q289.98 50 289.73 50.08Q289.47 50.16 289.06 50.16L289.06 50.16Q288.19 50.16 287.73 50.10Q287.26 50.03 286.90 49.98Q286.53 49.94 285.92 49.94L285.92 49.94Q285.15 49.94 284.56 49.98Q283.97 50.03 283.36 50.10Q282.75 50.16 281.89 50.16ZM297.95 50.10L297.95 50.10Q297.63 50.10 297.47 50.02Q297.31 49.94 297.31 49.74L297.31 49.74Q297.31 49.49 297.50 49.41Q297.70 49.33 298.05 49.23L298.05 49.23Q298.66 49.07 298.96 48.77Q299.26 48.46 299.26 48.02L299.26 48.02L299.26 41.14Q299.26 40.27 299.01 39.63Q298.75 38.99 297.95 38.83L297.95 38.83Q297.82 38.80 297.73 38.67Q297.63 38.54 297.63 38.42L297.63 38.42Q297.63 38.10 297.92 38.03L297.92 38.03Q298.75 37.78 299.66 37.28Q300.58 36.78 301.09 36.46L301.09 36.46Q301.28 36.34 301.39 36.29Q301.50 36.24 301.57 36.24L301.57 36.24Q301.73 36.24 301.73 36.46L301.73 36.46Q301.73 36.56 301.71 36.94Q301.70 37.33 301.68 37.84Q301.66 38.35 301.63 38.86L301.63 38.86Q301.63 38.93 301.70 38.93L301.70 38.93Q302.21 38.29 302.83 37.81Q303.46 37.33 304.11 37.04Q304.77 36.75 305.38 36.75L305.38 36.75Q306.05 36.75 306.48 37.04Q306.91 37.33 306.91 37.78L306.91 37.78Q306.91 38.10 306.74 38.48Q306.56 38.86 306.27 39.15Q305.98 39.44 305.66 39.44L305.66 39.44Q305.47 39.44 305.25 39.36Q305.02 39.28 304.77 39.15L304.77 39.15Q304.51 39.06 304.26 38.96Q304 38.86 303.74 38.86L303.74 38.86Q302.98 38.86 302.26 39.41Q301.54 39.95 301.54 41.55L301.54 41.55L301.54 48.02Q301.54 48.43 301.98 48.70Q302.43 48.98 303.23 49.23L303.23 49.23Q303.58 49.33 303.78 49.42Q303.97 49.52 303.97 49.74L303.97 49.74Q303.97 50.10 303.33 50.10L303.33 50.10Q302.37 50.10 301.87 50.02Q301.38 49.94 300.54 49.94L300.54 49.94Q300 49.94 299.66 49.97Q299.33 50 298.96 50.05Q298.59 50.10 297.95 50.10ZM314.56 50.45L314.56 50.45Q312.77 50.45 311.33 49.62Q309.89 48.78 309.04 47.33Q308.19 45.87 308.19 44.02L308.19 44.02Q308.19 42.67 308.72 41.39Q309.25 40.11 310.21 39.06Q311.17 38 312.45 37.38Q313.73 36.75 315.20 36.75L315.20 36.75Q317.06 36.75 318.54 37.65Q320.03 38.54 320.91 40Q321.79 41.46 321.79 43.18L321.79 43.18Q321.79 45.04 320.98 46.70Q320.16 48.37 318.56 49.41Q316.96 50.45 314.56 50.45ZM315.23 49.49L315.23 49.49Q316.32 49.49 317.18 49.07Q318.05 48.66 318.53 47.73L318.53 47.73Q318.91 46.99 319.04 45.94Q319.17 44.88 319.17 43.95L319.17 43.95Q319.17 42.42 318.61 40.99Q318.05 39.57 317.04 38.66Q316.03 37.74 314.66 37.74L314.66 37.74Q313.79 37.74 313.10 38.02Q312.42 38.29 311.84 39.02L311.84 39.02Q311.20 39.82 311.01 40.98Q310.82 42.13 310.82 43.28L310.82 43.28Q310.82 44.85 311.39 46.27Q311.97 47.70 312.96 48.59Q313.95 49.49 315.23 49.49ZM324.32 50.10L324.32 50.10Q324.03 50.10 323.86 50.02Q323.68 49.94 323.68 49.74L323.68 49.74Q323.68 49.49 323.87 49.41Q324.06 49.33 324.42 49.23L324.42 49.23Q324.90 49.10 325.34 48.88Q325.79 48.66 325.79 48.02L325.79 48.02L325.79 41.14Q325.79 40.27 325.62 39.66Q325.44 39.06 324.61 38.83L324.61 38.83Q324.48 38.77 324.38 38.69Q324.29 38.61 324.29 38.42L324.29 38.42Q324.29 38.06 324.58 38.03L324.58 38.03Q325.70 37.74 326.40 37.33Q327.10 36.91 327.78 36.40L327.78 36.40Q327.87 36.34 327.95 36.29Q328.03 36.24 328.13 36.24L328.13 36.24Q328.19 36.24 328.24 36.30Q328.29 36.37 328.29 36.46L328.29 36.46Q328.29 36.69 328.21 37.38Q328.13 38.06 328.13 38.51L328.13 38.51Q328.13 38.64 328.14 38.75Q328.16 38.86 328.19 38.90L328.19 38.90Q329.31 37.84 330.58 37.30Q331.84 36.75 333.34 36.75L333.34 36.75Q334.91 36.75 335.94 38.03Q336.96 39.31 336.96 41.20L336.96 41.20L336.96 48.02Q336.96 48.66 337.41 48.86Q337.86 49.07 338.34 49.23L338.34 49.23Q338.59 49.33 338.83 49.44Q339.07 49.55 339.07 49.81L339.07 49.81Q339.07 50 338.85 50.05Q338.62 50.10 338.43 50.10L338.43 50.10Q337.79 50.10 337.44 50.05Q337.09 50 336.77 49.97Q336.45 49.94 335.87 49.94L335.87 49.94Q335.33 49.94 334.98 49.97Q334.62 50 334.26 50.05Q333.89 50.10 333.25 50.10L333.25 50.10Q333.09 50.10 332.85 50.05Q332.61 50 332.61 49.81L332.61 49.81Q332.61 49.55 332.85 49.44Q333.09 49.33 333.34 49.23L333.34 49.23Q333.82 49.07 334.27 48.86Q334.72 48.66 334.72 48.02L334.72 48.02L334.72 41.30Q334.72 39.89 333.94 39.10Q333.15 38.32 331.84 38.29L331.84 38.29Q330.69 38.29 329.82 38.66Q328.96 39.02 328.29 39.57L328.29 39.57Q328.16 39.70 328.10 39.90Q328.03 40.11 328.03 40.30L328.03 40.30L328.03 48.02Q328.03 48.66 328.48 48.88Q328.93 49.10 329.41 49.23L329.41 49.23Q330.14 49.42 330.14 49.74L330.14 49.74Q330.14 49.94 329.98 50.02Q329.82 50.10 329.50 50.10L329.50 50.10Q328.86 50.10 328.50 50.05Q328.13 50 327.81 49.97Q327.49 49.94 326.91 49.94L326.91 49.94Q326.37 49.94 326.03 49.97Q325.70 50 325.33 50.05Q324.96 50.10 324.32 50.10ZM345.86 50.45L345.86 50.45Q344.29 50.45 343.41 49.49Q342.53 48.53 342.53 46.64L342.53 46.64L342.53 39.22Q342.53 38.96 342.34 38.85Q342.14 38.74 341.50 38.74L341.50 38.74L341.31 38.74Q341.15 38.74 341.04 38.53Q340.93 38.32 340.93 38.10L340.93 38.10Q340.93 38.03 341.02 37.90Q341.12 37.78 341.15 37.74L341.15 37.74Q341.79 37.30 342.32 36.85Q342.85 36.40 343.28 35.97Q343.71 35.54 344 35.18L344 35.18Q344.16 35.02 344.27 34.91Q344.38 34.80 344.54 34.80L344.54 34.80Q344.70 34.80 344.85 34.86Q344.99 34.93 344.96 35.15L344.96 35.15L344.80 36.59Q344.77 36.94 344.96 37.07Q345.15 37.20 345.57 37.20L345.57 37.20L349.22 37.20Q349.34 37.20 349.44 37.41Q349.54 37.62 349.54 37.90L349.54 37.90Q349.54 38.19 349.44 38.46Q349.34 38.74 349.22 38.74L349.22 38.74L346.05 38.74Q345.25 38.74 345.01 38.86Q344.77 38.99 344.77 39.63L344.77 39.63L344.77 45.94Q344.77 47.22 345.31 47.95Q345.86 48.69 346.88 48.69L346.88 48.69Q347.81 48.69 348.32 48.54Q348.83 48.40 349.25 48.11L349.25 48.11Q349.31 48.05 349.38 48.05L349.38 48.05Q349.50 48.05 349.55 48.19Q349.60 48.34 349.60 48.50L349.60 48.50Q349.60 48.66 349.07 49.14Q348.54 49.62 347.70 50.03Q346.85 50.45 345.86 50.45ZM356.67 50.48L356.67 50.48Q354.91 50.48 353.60 49.62Q352.29 48.75 351.55 47.17Q350.82 45.58 350.82 43.50L350.82 43.50Q350.82 41.65 351.66 40.13Q352.51 38.61 353.92 37.68Q355.33 36.75 356.99 36.75L356.99 36.75Q358.27 36.75 359.26 37.26Q360.26 37.78 360.82 38.69Q361.38 39.60 361.38 40.78L361.38 40.78Q361.38 41.78 360.42 41.78L360.42 41.78L353.66 41.78Q353.22 41.78 353.04 42.02Q352.86 42.26 352.86 42.96L352.86 42.96Q352.86 44.50 353.54 45.76Q354.21 47.02 355.33 47.78Q356.45 48.53 357.79 48.53L357.79 48.53Q358.75 48.53 359.54 48.16Q360.32 47.79 360.93 47.09L360.93 47.09Q361.06 46.93 361.12 46.88Q361.18 46.83 361.28 46.83L361.28 46.83Q361.54 46.83 361.54 47.15L361.54 47.15Q361.54 47.76 360.96 48.50L360.96 48.50Q360.48 49.10 359.81 49.55Q359.14 50 358.34 50.24Q357.54 50.48 356.67 50.48ZM353.73 40.78L353.73 40.78L356.64 40.78Q357.41 40.78 357.95 40.75Q358.50 40.72 359.01 40.62L359.01 40.62Q359.17 40.59 359.22 40.42Q359.26 40.24 359.26 39.92L359.26 39.92Q359.26 38.99 358.45 38.34Q357.63 37.68 356.51 37.68L356.51 37.68Q355.78 37.68 355.04 38.11Q354.30 38.54 353.82 39.18Q353.34 39.82 353.34 40.46L353.34 40.46Q353.34 40.78 353.73 40.78ZM363.74 50.10L363.74 50.10Q363.46 50.10 363.28 50.02Q363.10 49.94 363.10 49.74L363.10 49.74Q363.10 49.49 363.30 49.41Q363.49 49.33 363.84 49.23L363.84 49.23Q364.32 49.10 364.77 48.88Q365.22 48.66 365.22 48.02L365.22 48.02L365.22 41.14Q365.22 40.27 365.04 39.66Q364.86 39.06 364.03 38.83L364.03 38.83Q363.90 38.77 363.81 38.69Q363.71 38.61 363.71 38.42L363.71 38.42Q363.71 38.06 364 38.03L364 38.03Q365.12 37.74 365.82 37.33Q366.53 36.91 367.20 36.40L367.20 36.40Q367.30 36.34 367.38 36.29Q367.46 36.24 367.55 36.24L367.55 36.24Q367.62 36.24 367.66 36.30Q367.71 36.37 367.71 36.46L367.71 36.46Q367.71 36.69 367.63 37.38Q367.55 38.06 367.55 38.51L367.55 38.51Q367.55 38.64 367.57 38.75Q367.58 38.86 367.62 38.90L367.62 38.90Q368.74 37.84 370 37.30Q371.26 36.75 372.77 36.75L372.77 36.75Q374.34 36.75 375.36 38.03Q376.38 39.31 376.38 41.20L376.38 41.20L376.38 48.02Q376.38 48.66 376.83 48.86Q377.28 49.07 377.76 49.23L377.76 49.23Q378.02 49.33 378.26 49.44Q378.50 49.55 378.50 49.81L378.50 49.81Q378.50 50 378.27 50.05Q378.05 50.10 377.86 50.10L377.86 50.10Q377.22 50.10 376.86 50.05Q376.51 50 376.19 49.97Q375.87 49.94 375.30 49.94L375.30 49.94Q374.75 49.94 374.40 49.97Q374.05 50 373.68 50.05Q373.31 50.10 372.67 50.10L372.67 50.10Q372.51 50.10 372.27 50.05Q372.03 50 372.03 49.81L372.03 49.81Q372.03 49.55 372.27 49.44Q372.51 49.33 372.77 49.23L372.77 49.23Q373.25 49.07 373.70 48.86Q374.14 48.66 374.14 48.02L374.14 48.02L374.14 41.30Q374.14 39.89 373.36 39.10Q372.58 38.32 371.26 38.29L371.26 38.29Q370.11 38.29 369.25 38.66Q368.38 39.02 367.71 39.57L367.71 39.57Q367.58 39.70 367.52 39.90Q367.46 40.11 367.46 40.30L367.46 40.30L367.46 48.02Q367.46 48.66 367.90 48.88Q368.35 49.10 368.83 49.23L368.83 49.23Q369.57 49.42 369.57 49.74L369.57 49.74Q369.57 49.94 369.41 50.02Q369.25 50.10 368.93 50.10L368.93 50.10Q368.29 50.10 367.92 50.05Q367.55 50 367.23 49.97Q366.91 49.94 366.34 49.94L366.34 49.94Q365.79 49.94 365.46 49.97Q365.12 50 364.75 50.05Q364.38 50.10 363.74 50.10ZM390.66 50.61L390.66 50.61Q390.59 50.61 390.45 50.48Q390.30 50.35 390.30 50.29L390.30 50.29Q390.30 49.97 390.38 49.38Q390.46 48.78 390.46 48.37L390.46 48.37L390.46 48.18Q389.98 48.91 388.93 49.68Q387.87 50.45 386.27 50.45L386.27 50.45Q384.45 50.45 383.12 49.49Q381.79 48.53 381.07 47.02Q380.35 45.52 380.35 43.92L380.35 43.92Q380.35 42.06 381.22 40.43Q382.08 38.80 383.70 37.78Q385.31 36.75 387.55 36.75L387.55 36.75Q388.19 36.75 388.85 36.86Q389.50 36.98 389.86 37.10L389.86 37.10Q390.14 37.20 390.27 37.20L390.27 37.20Q390.50 37.20 390.50 36.43L390.50 36.43L390.50 31.89Q390.50 30.58 390.08 30.13Q389.66 29.68 388.90 29.55L388.90 29.55Q388.61 29.49 388.61 29.14L388.61 29.14Q388.61 28.85 388.86 28.75L388.86 28.75Q390.27 28.40 391.07 28.08Q391.87 27.76 392.32 27.57L392.32 27.57Q392.45 27.50 392.56 27.49Q392.67 27.47 392.74 27.47L392.74 27.47Q392.93 27.47 392.96 27.66L392.96 27.66Q392.96 27.86 392.91 28.32Q392.86 28.78 392.80 29.68Q392.74 30.58 392.74 32.02L392.74 32.02L392.74 46.48Q392.74 47.57 392.90 48.06Q393.06 48.56 393.41 48.56L393.41 48.56Q393.57 48.56 393.97 48.53Q394.37 48.50 394.78 48.46L394.78 48.46Q395.36 48.43 395.36 48.75L395.36 48.75Q395.36 48.98 395.22 49.15Q395.07 49.33 394.91 49.33L394.91 49.33Q394.02 49.46 393.15 49.70Q392.29 49.94 391.17 50.42L391.17 50.42Q390.91 50.54 390.83 50.58Q390.75 50.61 390.66 50.61ZM387.42 48.78L387.42 48.78Q388.26 48.78 389.06 48.35Q389.86 47.92 390.46 47.22L390.46 47.22L390.50 41.46Q390.50 40.59 390 39.76Q389.50 38.93 388.62 38.40Q387.74 37.87 386.56 37.87L386.56 37.87Q385.82 37.87 384.90 38.32Q383.97 38.77 383.30 39.90Q382.62 41.04 382.62 43.18L382.62 43.18Q382.62 45.01 383.17 46.11Q383.71 47.22 384.50 47.79Q385.28 48.37 386.10 48.58Q386.91 48.78 387.42 48.78ZM403.94 50.16L403.94 50.16Q403.52 50.16 403.26 50.08Q403.01 50 403.01 49.81L403.01 49.81Q403.01 49.42 404.06 49.23L404.06 49.23Q405.28 49.01 405.86 48.50Q406.43 47.98 406.43 46.83L406.43 46.83L406.43 32.43Q406.43 31.28 405.97 30.80Q405.50 30.32 404.29 30.10L404.29 30.10Q403.74 30 403.49 29.84Q403.23 29.68 403.23 29.46L403.23 29.46Q403.23 29.26 403.49 29.18Q403.74 29.10 404.16 29.10L404.16 29.10Q405.38 29.10 406.22 29.14Q407.07 29.17 407.89 29.18Q408.70 29.20 409.82 29.20L409.82 29.20Q410.88 29.20 412.05 29.18Q413.22 29.17 414.21 29.17L414.21 29.17Q415.30 29.14 416.05 29.12Q416.80 29.10 416.93 29.10L416.93 29.10Q417.09 29.10 417.28 29.17Q417.47 29.23 417.50 29.39L417.50 29.39Q417.66 30.29 417.82 31.17Q417.98 32.05 417.98 32.69L417.98 32.69Q417.98 32.98 417.84 33.07Q417.70 33.17 417.54 33.17L417.54 33.17Q417.38 33.17 417.31 33.09Q417.25 33.01 417.18 32.85L417.18 32.85Q417.02 32.30 416.86 31.81Q416.70 31.31 416.48 31.09L416.48 31.09Q416.03 30.58 415.49 30.40Q414.94 30.22 414.34 30.22L414.34 30.22L410.14 30.22Q409.89 30.22 409.44 30.51Q408.99 30.80 408.99 31.25L408.99 31.25L408.99 38.03Q408.99 38.32 409.17 38.53Q409.34 38.74 409.57 38.74L409.57 38.74L412.74 38.74Q413.66 38.74 414.02 38.40Q414.37 38.06 414.59 37.17L414.59 37.17Q414.78 36.46 415.17 36.46L415.17 36.46Q415.30 36.46 415.44 36.59Q415.58 36.72 415.58 36.98L415.58 36.98Q415.58 37.10 415.57 37.55Q415.55 38 415.52 38.48Q415.49 38.96 415.49 39.22L415.49 39.22Q415.49 39.54 415.50 40.06Q415.52 40.59 415.54 41.07Q415.55 41.55 415.55 41.68L415.55 41.68Q415.55 41.90 415.50 42.06Q415.46 42.22 415.26 42.22L415.26 42.22Q414.78 42.22 414.53 41.20L414.53 41.20Q414.34 40.46 414.02 40.11Q413.70 39.76 413.06 39.76L413.06 39.76L410.08 39.76Q409.54 39.76 409.26 39.90Q408.99 40.05 408.99 40.59L408.99 40.59L408.99 46.74Q408.99 47.95 409.50 48.42Q410.02 48.88 411.10 48.88L411.10 48.88L413.47 48.88Q414.50 48.88 415.18 48.77Q415.87 48.66 416.38 48.34L416.38 48.34Q416.90 47.98 417.30 47.41Q417.70 46.83 418.21 45.87L418.21 45.87Q418.30 45.68 418.43 45.55Q418.56 45.42 418.72 45.46L418.72 45.46Q418.88 45.49 418.98 45.60Q419.07 45.71 419.07 45.90L419.07 45.90Q419.07 46.19 418.91 46.91Q418.75 47.63 418.51 48.40Q418.27 49.17 418.08 49.62L418.08 49.62Q417.98 49.84 417.90 50Q417.82 50.16 417.63 50.16L417.63 50.16Q416.10 50.16 414.78 50.13Q413.47 50.10 412.29 50.06Q411.10 50.03 409.97 50Q408.83 49.97 407.62 49.97L407.62 49.97Q406.91 49.97 406.40 50.02Q405.89 50.06 405.34 50.11Q404.80 50.16 403.94 50.16ZM421.28 50.10L421.28 50.10Q420.99 50.10 420.82 50.02Q420.64 49.94 420.64 49.74L420.64 49.74Q420.64 49.49 420.83 49.41Q421.02 49.33 421.38 49.23L421.38 49.23Q421.86 49.10 422.30 48.88Q422.75 48.66 422.75 48.02L422.75 48.02L422.75 41.14Q422.75 40.27 422.58 39.66Q422.40 39.06 421.57 38.83L421.57 38.83Q421.44 38.77 421.34 38.69Q421.25 38.61 421.25 38.42L421.25 38.42Q421.25 38.06 421.54 38.03L421.54 38.03Q422.66 37.74 423.36 37.33Q424.06 36.91 424.74 36.40L424.74 36.40Q424.83 36.34 424.91 36.29Q424.99 36.24 425.09 36.24L425.09 36.24Q425.15 36.24 425.20 36.30Q425.25 36.37 425.25 36.46L425.25 36.46Q425.25 36.69 425.17 37.38Q425.09 38.06 425.09 38.51L425.09 38.51Q425.09 38.64 425.10 38.75Q425.12 38.86 425.15 38.90L425.15 38.90Q426.27 37.84 427.54 37.30Q428.80 36.75 430.30 36.75L430.30 36.75Q431.87 36.75 432.90 38.03Q433.92 39.31 433.92 41.20L433.92 41.20L433.92 48.02Q433.92 48.66 434.37 48.86Q434.82 49.07 435.30 49.23L435.30 49.23Q435.55 49.33 435.79 49.44Q436.03 49.55 436.03 49.81L436.03 49.81Q436.03 50 435.81 50.05Q435.58 50.10 435.39 50.10L435.39 50.10Q434.75 50.10 434.40 50.05Q434.05 50 433.73 49.97Q433.41 49.94 432.83 49.94L432.83 49.94Q432.29 49.94 431.94 49.97Q431.58 50 431.22 50.05Q430.85 50.10 430.21 50.10L430.21 50.10Q430.05 50.10 429.81 50.05Q429.57 50 429.57 49.81L429.57 49.81Q429.57 49.55 429.81 49.44Q430.05 49.33 430.30 49.23L430.30 49.23Q430.78 49.07 431.23 48.86Q431.68 48.66 431.68 48.02L431.68 48.02L431.68 41.30Q431.68 39.89 430.90 39.10Q430.11 38.32 428.80 38.29L428.80 38.29Q427.65 38.29 426.78 38.66Q425.92 39.02 425.25 39.57L425.25 39.57Q425.12 39.70 425.06 39.90Q424.99 40.11 424.99 40.30L424.99 40.30L424.99 48.02Q424.99 48.66 425.44 48.88Q425.89 49.10 426.37 49.23L426.37 49.23Q427.10 49.42 427.10 49.74L427.10 49.74Q427.10 49.94 426.94 50.02Q426.78 50.10 426.46 50.10L426.46 50.10Q425.82 50.10 425.46 50.05Q425.09 50 424.77 49.97Q424.45 49.94 423.87 49.94L423.87 49.94Q423.33 49.94 422.99 49.97Q422.66 50 422.29 50.05Q421.92 50.10 421.28 50.10ZM443.01 59.28L443.01 59.28Q440.29 59.28 438.70 58.24Q437.12 57.20 437.12 55.44L437.12 55.44Q437.12 54.61 437.38 54.03Q437.63 53.46 438.18 53.04L438.18 53.04Q438.62 52.66 439.38 52.06Q440.13 51.47 440.93 50.83L440.93 50.83L442.27 50.90Q440.74 51.89 440.13 52.78Q439.52 53.68 439.52 54.96L439.52 54.96Q439.52 56.24 440.66 57.12Q441.79 58 443.46 58L443.46 58Q445.34 58 446.50 57.14L446.50 57.14Q447.30 56.53 447.74 55.55Q448.19 54.58 448.19 53.49L448.19 53.49Q448.19 52.78 447.70 52.32Q447.20 51.86 446.14 51.57Q445.09 51.28 443.39 51.18L443.39 51.18Q440.38 50.96 439.22 50.38Q438.05 49.81 438.05 48.59L438.05 48.59Q438.05 48.27 438.22 48Q438.40 47.73 438.78 47.41L438.78 47.41Q439.52 46.83 439.87 46.56Q440.22 46.29 440.40 46.10Q440.58 45.90 440.74 45.62L440.74 45.62L441.82 46.16Q441.12 46.42 440.64 46.85Q440.16 47.28 440.16 47.63L440.16 47.63Q440.16 48.08 440.64 48.42Q441.12 48.75 442.05 48.94Q442.98 49.14 444.32 49.23L444.32 49.23Q447.26 49.39 448.70 50.19Q450.14 50.99 450.14 52.46L450.14 52.46Q450.14 53.71 449.52 54.91Q448.90 56.11 447.87 57.10Q446.85 58.10 445.58 58.69Q444.32 59.28 443.01 59.28ZM443.39 45.49L443.39 45.49Q444.61 45.49 445.41 44.26Q446.21 43.02 446.21 41.20L446.21 41.20Q446.21 40.27 445.78 39.46Q445.34 38.64 444.66 38.14Q443.97 37.65 443.17 37.65L443.17 37.65Q442.43 37.65 441.78 38.18Q441.12 38.70 440.72 39.54Q440.32 40.37 440.32 41.36L440.32 41.36Q440.32 42.48 440.74 43.42Q441.15 44.37 441.86 44.93Q442.56 45.49 443.39 45.49ZM443.20 46.61L443.20 46.61Q441.89 46.61 440.70 45.94Q439.52 45.26 438.77 44.16Q438.02 43.06 438.02 41.74L438.02 41.74Q438.02 40.24 438.80 39.10Q439.58 37.97 440.86 37.33Q442.14 36.69 443.58 36.69L443.58 36.69Q444.51 36.69 445.20 36.93Q445.89 37.17 446.56 37.36L446.56 37.36Q447.33 37.58 447.78 37.63Q448.22 37.68 448.70 37.68L448.70 37.68Q449.09 37.68 449.66 37.63Q450.24 37.58 450.46 37.58L450.46 37.58Q450.88 37.58 450.88 38.06L450.88 38.06Q450.88 38.35 450.56 38.67L450.56 38.67Q450.40 38.83 450.30 38.83L450.30 38.83L449.44 38.83Q448.58 38.83 448.48 39.09L448.48 39.09Q448.45 39.22 448.40 39.46Q448.35 39.70 448.32 39.98Q448.29 40.27 448.29 40.56L448.29 40.56Q448.29 42.19 447.58 43.57Q446.88 44.94 445.73 45.78Q444.58 46.61 443.20 46.61ZM452.10 50.10L452.10 50.10Q451.81 50.10 451.63 50.02Q451.46 49.94 451.46 49.74L451.46 49.74Q451.46 49.49 451.70 49.39Q451.94 49.30 452.19 49.23L452.19 49.23Q452.86 49.07 453.22 48.83Q453.57 48.59 453.57 48.02L453.57 48.02L453.57 41.07Q453.57 40.21 453.26 39.54Q452.96 38.86 452.13 38.74L452.13 38.74Q451.97 38.70 451.89 38.61Q451.81 38.51 451.81 38.32L451.81 38.32Q451.81 37.97 452.10 37.94L452.10 37.94Q453.38 37.65 454.21 37.15Q455.04 36.66 455.46 36.34L455.46 36.34Q455.74 36.11 455.90 36.11L455.90 36.11Q456.10 36.11 456.10 36.27L456.10 36.27Q456.10 36.53 456.02 37.28Q455.94 38.03 455.87 38.94Q455.81 39.86 455.81 40.59L455.81 40.59L455.81 48.02Q455.81 48.56 456.18 48.82Q456.54 49.07 457.18 49.23L457.18 49.23Q457.44 49.30 457.68 49.39Q457.92 49.49 457.92 49.74L457.92 49.74Q457.92 50.10 457.28 50.10L457.28 50.10Q456.67 50.10 456.30 50.05Q455.94 50 455.60 49.97Q455.26 49.94 454.69 49.94L454.69 49.94Q454.14 49.94 453.79 49.97Q453.44 50 453.09 50.05Q452.74 50.10 452.10 50.10ZM454.66 33.49L454.66 33.49Q453.98 33.49 453.52 33.02Q453.06 32.56 453.06 31.89L453.06 31.89Q453.06 31.18 453.52 30.72Q453.98 30.26 454.66 30.26L454.66 30.26Q455.36 30.26 455.82 30.72Q456.29 31.18 456.29 31.89L456.29 31.89Q456.29 32.56 455.82 33.02Q455.36 33.49 454.66 33.49ZM459.94 50.10L459.94 50.10Q459.65 50.10 459.47 50.02Q459.30 49.94 459.30 49.74L459.30 49.74Q459.30 49.49 459.49 49.41Q459.68 49.33 460.03 49.23L460.03 49.23Q460.51 49.10 460.96 48.88Q461.41 48.66 461.41 48.02L461.41 48.02L461.41 41.14Q461.41 40.27 461.23 39.66Q461.06 39.06 460.22 38.83L460.22 38.83Q460.10 38.77 460 38.69Q459.90 38.61 459.90 38.42L459.90 38.42Q459.90 38.06 460.19 38.03L460.19 38.03Q461.31 37.74 462.02 37.33Q462.72 36.91 463.39 36.40L463.39 36.40Q463.49 36.34 463.57 36.29Q463.65 36.24 463.74 36.24L463.74 36.24Q463.81 36.24 463.86 36.30Q463.90 36.37 463.90 36.46L463.90 36.46Q463.90 36.69 463.82 37.38Q463.74 38.06 463.74 38.51L463.74 38.51Q463.74 38.64 463.76 38.75Q463.78 38.86 463.81 38.90L463.81 38.90Q464.93 37.84 466.19 37.30Q467.46 36.75 468.96 36.75L468.96 36.75Q470.53 36.75 471.55 38.03Q472.58 39.31 472.58 41.20L472.58 41.20L472.58 48.02Q472.58 48.66 473.02 48.86Q473.47 49.07 473.95 49.23L473.95 49.23Q474.21 49.33 474.45 49.44Q474.69 49.55 474.69 49.81L474.69 49.81Q474.69 50 474.46 50.05Q474.24 50.10 474.05 50.10L474.05 50.10Q473.41 50.10 473.06 50.05Q472.70 50 472.38 49.97Q472.06 49.94 471.49 49.94L471.49 49.94Q470.94 49.94 470.59 49.97Q470.24 50 469.87 50.05Q469.50 50.10 468.86 50.10L468.86 50.10Q468.70 50.10 468.46 50.05Q468.22 50 468.22 49.81L468.22 49.81Q468.22 49.55 468.46 49.44Q468.70 49.33 468.96 49.23L468.96 49.23Q469.44 49.07 469.89 48.86Q470.34 48.66 470.34 48.02L470.34 48.02L470.34 41.30Q470.34 39.89 469.55 39.10Q468.77 38.32 467.46 38.29L467.46 38.29Q466.30 38.29 465.44 38.66Q464.58 39.02 463.90 39.57L463.90 39.57Q463.78 39.70 463.71 39.90Q463.65 40.11 463.65 40.30L463.65 40.30L463.65 48.02Q463.65 48.66 464.10 48.88Q464.54 49.10 465.02 49.23L465.02 49.23Q465.76 49.42 465.76 49.74L465.76 49.74Q465.76 49.94 465.60 50.02Q465.44 50.10 465.12 50.10L465.12 50.10Q464.48 50.10 464.11 50.05Q463.74 50 463.42 49.97Q463.10 49.94 462.53 49.94L462.53 49.94Q461.98 49.94 461.65 49.97Q461.31 50 460.94 50.05Q460.58 50.10 459.94 50.10ZM482.24 50.48L482.24 50.48Q480.48 50.48 479.17 49.62Q477.86 48.75 477.12 47.17Q476.38 45.58 476.38 43.50L476.38 43.50Q476.38 41.65 477.23 40.13Q478.08 38.61 479.49 37.68Q480.90 36.75 482.56 36.75L482.56 36.75Q483.84 36.75 484.83 37.26Q485.82 37.78 486.38 38.69Q486.94 39.60 486.94 40.78L486.94 40.78Q486.94 41.78 485.98 41.78L485.98 41.78L479.23 41.78Q478.78 41.78 478.61 42.02Q478.43 42.26 478.43 42.96L478.43 42.96Q478.43 44.50 479.10 45.76Q479.78 47.02 480.90 47.78Q482.02 48.53 483.36 48.53L483.36 48.53Q484.32 48.53 485.10 48.16Q485.89 47.79 486.50 47.09L486.50 47.09Q486.62 46.93 486.69 46.88Q486.75 46.83 486.85 46.83L486.85 46.83Q487.10 46.83 487.10 47.15L487.10 47.15Q487.10 47.76 486.53 48.50L486.53 48.50Q486.05 49.10 485.38 49.55Q484.70 50 483.90 50.24Q483.10 50.48 482.24 50.48ZM479.30 40.78L479.30 40.78L482.21 40.78Q482.98 40.78 483.52 40.75Q484.06 40.72 484.58 40.62L484.58 40.62Q484.74 40.59 484.78 40.42Q484.83 40.24 484.83 39.92L484.83 39.92Q484.83 38.99 484.02 38.34Q483.20 37.68 482.08 37.68L482.08 37.68Q481.34 37.68 480.61 38.11Q479.87 38.54 479.39 39.18Q478.91 39.82 478.91 40.46L478.91 40.46Q478.91 40.78 479.30 40.78ZM494.72 50.48L494.72 50.48Q492.96 50.48 491.65 49.62Q490.34 48.75 489.60 47.17Q488.86 45.58 488.86 43.50L488.86 43.50Q488.86 41.65 489.71 40.13Q490.56 38.61 491.97 37.68Q493.38 36.75 495.04 36.75L495.04 36.75Q496.32 36.75 497.31 37.26Q498.30 37.78 498.86 38.69Q499.42 39.60 499.42 40.78L499.42 40.78Q499.42 41.78 498.46 41.78L498.46 41.78L491.71 41.78Q491.26 41.78 491.09 42.02Q490.91 42.26 490.91 42.96L490.91 42.96Q490.91 44.50 491.58 45.76Q492.26 47.02 493.38 47.78Q494.50 48.53 495.84 48.53L495.84 48.53Q496.80 48.53 497.58 48.16Q498.37 47.79 498.98 47.09L498.98 47.09Q499.10 46.93 499.17 46.88Q499.23 46.83 499.33 46.83L499.33 46.83Q499.58 46.83 499.58 47.15L499.58 47.15Q499.58 47.76 499.01 48.50L499.01 48.50Q498.53 49.10 497.86 49.55Q497.18 50 496.38 50.24Q495.58 50.48 494.72 50.48ZM491.78 40.78L491.78 40.78L494.69 40.78Q495.46 40.78 496.00 40.75Q496.54 40.72 497.06 40.62L497.06 40.62Q497.22 40.59 497.26 40.42Q497.31 40.24 497.31 39.92L497.31 39.92Q497.31 38.99 496.50 38.34Q495.68 37.68 494.56 37.68L494.56 37.68Q493.82 37.68 493.09 38.11Q492.35 38.54 491.87 39.18Q491.39 39.82 491.39 40.46L491.39 40.46Q491.39 40.78 491.78 40.78ZM501.95 50.10L501.95 50.10Q501.63 50.10 501.47 50.02Q501.31 49.94 501.31 49.74L501.31 49.74Q501.31 49.49 501.50 49.41Q501.70 49.33 502.05 49.23L502.05 49.23Q502.66 49.07 502.96 48.77Q503.26 48.46 503.26 48.02L503.26 48.02L503.26 41.14Q503.26 40.27 503.01 39.63Q502.75 38.99 501.95 38.83L501.95 38.83Q501.82 38.80 501.73 38.67Q501.63 38.54 501.63 38.42L501.63 38.42Q501.63 38.10 501.92 38.03L501.92 38.03Q502.75 37.78 503.66 37.28Q504.58 36.78 505.09 36.46L505.09 36.46Q505.28 36.34 505.39 36.29Q505.50 36.24 505.57 36.24L505.57 36.24Q505.73 36.24 505.73 36.46L505.73 36.46Q505.73 36.56 505.71 36.94Q505.70 37.33 505.68 37.84Q505.66 38.35 505.63 38.86L505.63 38.86Q505.63 38.93 505.70 38.93L505.70 38.93Q506.21 38.29 506.83 37.81Q507.46 37.33 508.11 37.04Q508.77 36.75 509.38 36.75L509.38 36.75Q510.05 36.75 510.48 37.04Q510.91 37.33 510.91 37.78L510.91 37.78Q510.91 38.10 510.74 38.48Q510.56 38.86 510.27 39.15Q509.98 39.44 509.66 39.44L509.66 39.44Q509.47 39.44 509.25 39.36Q509.02 39.28 508.77 39.15L508.77 39.15Q508.51 39.06 508.26 38.96Q508.00 38.86 507.74 38.86L507.74 38.86Q506.98 38.86 506.26 39.41Q505.54 39.95 505.54 41.55L505.54 41.55L505.54 48.02Q505.54 48.43 505.98 48.70Q506.43 48.98 507.23 49.23L507.23 49.23Q507.58 49.33 507.78 49.42Q507.97 49.52 507.97 49.74L507.97 49.74Q507.97 50.10 507.33 50.10L507.33 50.10Q506.37 50.10 505.87 50.02Q505.38 49.94 504.54 49.94L504.54 49.94Q504.00 49.94 503.66 49.97Q503.33 50 502.96 50.05Q502.59 50.10 501.95 50.10ZM512.48 50.10L512.48 50.10Q512.19 50.10 512.02 50.02Q511.84 49.94 511.84 49.74L511.84 49.74Q511.84 49.49 512.08 49.39Q512.32 49.30 512.58 49.23L512.58 49.23Q513.25 49.07 513.60 48.83Q513.95 48.59 513.95 48.02L513.95 48.02L513.95 41.07Q513.95 40.21 513.65 39.54Q513.34 38.86 512.51 38.74L512.51 38.74Q512.35 38.70 512.27 38.61Q512.19 38.51 512.19 38.32L512.19 38.32Q512.19 37.97 512.48 37.94L512.48 37.94Q513.76 37.65 514.59 37.15Q515.42 36.66 515.84 36.34L515.84 36.34Q516.13 36.11 516.29 36.11L516.29 36.11Q516.48 36.11 516.48 36.27L516.48 36.27Q516.48 36.53 516.40 37.28Q516.32 38.03 516.26 38.94Q516.19 39.86 516.19 40.59L516.19 40.59L516.19 48.02Q516.19 48.56 516.56 48.82Q516.93 49.07 517.57 49.23L517.57 49.23Q517.82 49.30 518.06 49.39Q518.30 49.49 518.30 49.74L518.30 49.74Q518.30 50.10 517.66 50.10L517.66 50.10Q517.06 50.10 516.69 50.05Q516.32 50 515.98 49.97Q515.65 49.94 515.07 49.94L515.07 49.94Q514.53 49.94 514.18 49.97Q513.82 50 513.47 50.05Q513.12 50.10 512.48 50.10ZM515.04 33.49L515.04 33.49Q514.37 33.49 513.90 33.02Q513.44 32.56 513.44 31.89L513.44 31.89Q513.44 31.18 513.90 30.72Q514.37 30.26 515.04 30.26L515.04 30.26Q515.74 30.26 516.21 30.72Q516.67 31.18 516.67 31.89L516.67 31.89Q516.67 32.56 516.21 33.02Q515.74 33.49 515.04 33.49ZM520.32 50.10L520.32 50.10Q520.03 50.10 519.86 50.02Q519.68 49.94 519.68 49.74L519.68 49.74Q519.68 49.49 519.87 49.41Q520.06 49.33 520.42 49.23L520.42 49.23Q520.90 49.10 521.34 48.88Q521.79 48.66 521.79 48.02L521.79 48.02L521.79 41.14Q521.79 40.27 521.62 39.66Q521.44 39.06 520.61 38.83L520.61 38.83Q520.48 38.77 520.38 38.69Q520.29 38.61 520.29 38.42L520.29 38.42Q520.29 38.06 520.58 38.03L520.58 38.03Q521.70 37.74 522.40 37.33Q523.10 36.91 523.78 36.40L523.78 36.40Q523.87 36.34 523.95 36.29Q524.03 36.24 524.13 36.24L524.13 36.24Q524.19 36.24 524.24 36.30Q524.29 36.37 524.29 36.46L524.29 36.46Q524.29 36.69 524.21 37.38Q524.13 38.06 524.13 38.51L524.13 38.51Q524.13 38.64 524.14 38.75Q524.16 38.86 524.19 38.90L524.19 38.90Q525.31 37.84 526.58 37.30Q527.84 36.75 529.34 36.75L529.34 36.75Q530.91 36.75 531.94 38.03Q532.96 39.31 532.96 41.20L532.96 41.20L532.96 48.02Q532.96 48.66 533.41 48.86Q533.86 49.07 534.34 49.23L534.34 49.23Q534.59 49.33 534.83 49.44Q535.07 49.55 535.07 49.81L535.07 49.81Q535.07 50 534.85 50.05Q534.62 50.10 534.43 50.10L534.43 50.10Q533.79 50.10 533.44 50.05Q533.09 50 532.77 49.97Q532.45 49.94 531.87 49.94L531.87 49.94Q531.33 49.94 530.98 49.97Q530.62 50 530.26 50.05Q529.89 50.10 529.25 50.10L529.25 50.10Q529.09 50.10 528.85 50.05Q528.61 50 528.61 49.81L528.61 49.81Q528.61 49.55 528.85 49.44Q529.09 49.33 529.34 49.23L529.34 49.23Q529.82 49.07 530.27 48.86Q530.72 48.66 530.72 48.02L530.72 48.02L530.72 41.30Q530.72 39.89 529.94 39.10Q529.15 38.32 527.84 38.29L527.84 38.29Q526.69 38.29 525.82 38.66Q524.96 39.02 524.29 39.57L524.29 39.57Q524.16 39.70 524.10 39.90Q524.03 40.11 524.03 40.30L524.03 40.30L524.03 48.02Q524.03 48.66 524.48 48.88Q524.93 49.10 525.41 49.23L525.41 49.23Q526.14 49.42 526.14 49.74L526.14 49.74Q526.14 49.94 525.98 50.02Q525.82 50.10 525.50 50.10L525.50 50.10Q524.86 50.10 524.50 50.05Q524.13 50 523.81 49.97Q523.49 49.94 522.91 49.94L522.91 49.94Q522.37 49.94 522.03 49.97Q521.70 50 521.33 50.05Q520.96 50.10 520.32 50.10ZM542.05 59.28L542.05 59.28Q539.33 59.28 537.74 58.24Q536.16 57.20 536.16 55.44L536.16 55.44Q536.16 54.61 536.42 54.03Q536.67 53.46 537.22 53.04L537.22 53.04Q537.66 52.66 538.42 52.06Q539.17 51.47 539.97 50.83L539.97 50.83L541.31 50.90Q539.78 51.89 539.17 52.78Q538.56 53.68 538.56 54.96L538.56 54.96Q538.56 56.24 539.70 57.12Q540.83 58 542.50 58L542.50 58Q544.38 58 545.54 57.14L545.54 57.14Q546.34 56.53 546.78 55.55Q547.23 54.58 547.23 53.49L547.23 53.49Q547.23 52.78 546.74 52.32Q546.24 51.86 545.18 51.57Q544.13 51.28 542.43 51.18L542.43 51.18Q539.42 50.96 538.26 50.38Q537.09 49.81 537.09 48.59L537.09 48.59Q537.09 48.27 537.26 48Q537.44 47.73 537.82 47.41L537.82 47.41Q538.56 46.83 538.91 46.56Q539.26 46.29 539.44 46.10Q539.62 45.90 539.78 45.62L539.78 45.62L540.86 46.16Q540.16 46.42 539.68 46.85Q539.20 47.28 539.20 47.63L539.20 47.63Q539.20 48.08 539.68 48.42Q540.16 48.75 541.09 48.94Q542.02 49.14 543.36 49.23L543.36 49.23Q546.30 49.39 547.74 50.19Q549.18 50.99 549.18 52.46L549.18 52.46Q549.18 53.71 548.56 54.91Q547.94 56.11 546.91 57.10Q545.89 58.10 544.62 58.69Q543.36 59.28 542.05 59.28ZM542.43 45.49L542.43 45.49Q543.65 45.49 544.45 44.26Q545.25 43.02 545.25 41.20L545.25 41.20Q545.25 40.27 544.82 39.46Q544.38 38.64 543.70 38.14Q543.01 37.65 542.21 37.65L542.21 37.65Q541.47 37.65 540.82 38.18Q540.16 38.70 539.76 39.54Q539.36 40.37 539.36 41.36L539.36 41.36Q539.36 42.48 539.78 43.42Q540.19 44.37 540.90 44.93Q541.60 45.49 542.43 45.49ZM542.24 46.61L542.24 46.61Q540.93 46.61 539.74 45.94Q538.56 45.26 537.81 44.16Q537.06 43.06 537.06 41.74L537.06 41.74Q537.06 40.24 537.84 39.10Q538.62 37.97 539.90 37.33Q541.18 36.69 542.62 36.69L542.62 36.69Q543.55 36.69 544.24 36.93Q544.93 37.17 545.60 37.36L545.60 37.36Q546.37 37.58 546.82 37.63Q547.26 37.68 547.74 37.68L547.74 37.68Q548.13 37.68 548.70 37.63Q549.28 37.58 549.50 37.58L549.50 37.58Q549.92 37.58 549.92 38.06L549.92 38.06Q549.92 38.35 549.60 38.67L549.60 38.67Q549.44 38.83 549.34 38.83L549.34 38.83L548.48 38.83Q547.62 38.83 547.52 39.09L547.52 39.09Q547.49 39.22 547.44 39.46Q547.39 39.70 547.36 39.98Q547.33 40.27 547.33 40.56L547.33 40.56Q547.33 42.19 546.62 43.57Q545.92 44.94 544.77 45.78Q543.62 46.61 542.24 46.61Z"/>
    <path fill="#14b8a6" opacity="0.8" d="M291.47 90.38L291.47 90.38Q290.96 90.38 290.51 90.30Q290.06 90.22 289.68 90Q289.31 89.78 288.98 89.41L288.98 89.41Q288.55 88.87 288.15 88.37Q287.76 87.88 287.32 87.23Q286.88 86.58 286.25 85.57L286.25 85.57Q285.98 85.12 285.47 84.87L285.47 84.87Q285.08 84.67 284.69 84.59Q284.30 84.51 284.05 84.49L284.05 84.49Q283.91 84.47 283.84 84.58Q283.78 84.69 283.78 84.85L283.78 84.85L283.78 88.02Q283.78 88.60 284.05 89.02Q284.32 89.44 284.99 89.57L284.99 89.57Q285.29 89.62 285.44 89.69Q285.58 89.77 285.58 89.89L285.58 89.89Q285.58 90 285.44 90.05Q285.29 90.09 285.06 90.09L285.06 90.09Q284.57 90.09 284.31 90.05Q284.05 90.02 283.84 89.99Q283.64 89.96 283.29 89.96L283.29 89.96Q282.84 89.96 282.49 89.99Q282.14 90.02 281.79 90.05Q281.44 90.09 280.95 90.09L280.95 90.09Q280.72 90.09 280.58 90.05Q280.43 90 280.43 89.89L280.43 89.89Q280.43 89.68 281.03 89.57L281.03 89.57Q281.71 89.44 282.02 89.15Q282.34 88.87 282.34 88.20L282.34 88.20L282.34 80.53Q282.34 79.85 282.28 79.50Q282.21 79.15 281.99 79.00Q281.76 78.86 281.24 78.80L281.24 78.80Q280.94 78.77 280.79 78.67Q280.65 78.57 280.65 78.44L280.65 78.44Q280.65 78.34 280.79 78.29Q280.94 78.25 281.17 78.25L281.17 78.25Q281.66 78.25 281.90 78.25Q282.14 78.25 282.36 78.25Q282.57 78.26 282.93 78.26L282.93 78.26Q283.28 78.26 283.55 78.24Q283.82 78.21 284.15 78.19Q284.48 78.17 285.00 78.17L285.00 78.17Q286.98 78.17 288.02 78.91Q289.05 79.65 289.05 81.13L289.05 81.13Q289.05 81.94 288.73 82.52Q288.41 83.11 287.92 83.50Q287.43 83.90 286.93 84.15L286.93 84.15Q286.86 84.17 286.87 84.23Q286.88 84.29 286.93 84.38L286.93 84.38Q287.49 85.23 288.00 85.99Q288.51 86.74 289.13 87.46Q289.74 88.18 290.58 88.96L290.58 88.96Q291.05 89.37 291.54 89.46Q292.02 89.55 292.65 89.55L292.65 89.55Q292.92 89.55 292.92 89.75L292.92 89.75Q292.92 90.02 292.65 90.15Q292.38 90.29 292.04 90.33Q291.70 90.38 291.47 90.38ZM284.73 84.08L284.73 84.08Q285.56 84.08 286.17 83.70Q286.77 83.32 287.10 82.71Q287.43 82.10 287.43 81.41L287.43 81.41Q287.43 80.68 287.25 80.06Q287.06 79.45 286.49 79.08Q285.92 78.71 284.79 78.71L284.79 78.71Q284.21 78.71 284.03 79.08Q283.85 79.45 283.82 80.39L283.82 80.39Q283.80 80.84 283.79 81.60Q283.78 82.37 283.78 83.45L283.78 83.45Q283.78 83.90 284.03 83.99Q284.28 84.08 284.73 84.08ZM296.67 90.27L296.67 90.27Q295.68 90.27 294.94 89.78Q294.20 89.30 293.79 88.41Q293.37 87.52 293.37 86.35L293.37 86.35Q293.37 85.30 293.85 84.45Q294.33 83.59 295.12 83.07Q295.91 82.55 296.85 82.55L296.85 82.55Q297.57 82.55 298.13 82.84Q298.68 83.12 299.00 83.64Q299.31 84.15 299.31 84.82L299.31 84.82Q299.31 85.37 298.77 85.37L298.77 85.37L294.98 85.37Q294.72 85.37 294.63 85.51Q294.53 85.64 294.53 86.04L294.53 86.04Q294.53 86.90 294.90 87.61Q295.28 88.33 295.91 88.75Q296.54 89.17 297.30 89.17L297.30 89.17Q297.84 89.17 298.28 88.97Q298.72 88.76 299.06 88.36L299.06 88.36Q299.13 88.27 299.17 88.25Q299.21 88.22 299.26 88.22L299.26 88.22Q299.40 88.22 299.40 88.40L299.40 88.40Q299.40 88.74 299.08 89.15L299.08 89.15Q298.81 89.50 298.43 89.75Q298.05 90 297.60 90.14Q297.15 90.27 296.67 90.27ZM295.01 84.82L295.01 84.82L296.65 84.82Q297.08 84.82 297.39 84.80Q297.69 84.78 297.98 84.73L297.98 84.73Q298.07 84.71 298.10 84.61Q298.13 84.51 298.13 84.33L298.13 84.33Q298.13 83.81 297.67 83.44Q297.21 83.07 296.58 83.07L296.58 83.07Q296.16 83.07 295.75 83.31Q295.34 83.56 295.07 83.92Q294.80 84.28 294.80 84.64L294.80 84.64Q294.80 84.82 295.01 84.82ZM301.96 90.25L301.96 90.25Q301.64 90.25 301.30 90Q300.97 89.75 300.75 89.39Q300.52 89.03 300.52 88.70L300.52 88.70Q300.52 88.13 300.83 87.80Q301.13 87.48 301.80 87.21L301.80 87.21L303.63 86.45Q303.99 86.31 304.06 86.20Q304.12 86.09 304.14 85.73L304.14 85.73L304.17 84.58Q304.19 84.11 303.91 83.77Q303.63 83.43 303.11 83.43L303.11 83.43Q302.84 83.43 302.57 83.52Q302.30 83.61 302.12 83.75L302.12 83.75Q302.01 83.83 301.98 83.97Q301.94 84.11 301.94 84.28L301.94 84.28Q301.94 84.35 301.95 84.44Q301.96 84.53 301.96 84.60L301.96 84.60Q301.96 84.69 301.74 84.84Q301.51 85.00 301.23 85.11Q300.95 85.23 300.77 85.23L300.77 85.23Q300.68 85.23 300.63 85.19Q300.57 85.14 300.57 85.07L300.57 85.07Q300.57 84.78 300.76 84.45Q300.95 84.11 301.29 83.83L301.29 83.83Q301.71 83.45 302.19 83.16Q302.68 82.87 303.15 82.71Q303.62 82.55 303.98 82.55L303.98 82.55Q304.62 82.55 305.05 83.01Q305.47 83.47 305.45 84.15L305.45 84.15L305.36 88.47Q305.34 88.85 305.53 89.08Q305.72 89.32 306.01 89.32L306.01 89.32Q306.46 89.32 306.68 89.12L306.68 89.12Q306.77 89.03 306.82 89.03L306.82 89.03Q306.91 89.03 306.96 89.08Q307.02 89.14 307.02 89.23L307.02 89.23Q307.02 89.42 306.82 89.62L306.82 89.62Q306.53 89.91 306.20 90.08Q305.87 90.25 305.58 90.25L305.58 90.25Q304.75 90.25 304.26 89.32L304.26 89.32L304.21 89.32Q303.62 89.80 303.08 90.03Q302.54 90.25 301.96 90.25ZM302.81 89.39L302.81 89.39Q303.17 89.39 303.42 89.27Q303.67 89.15 303.87 88.96L303.87 88.96Q303.96 88.87 304.02 88.71Q304.08 88.56 304.10 88.22L304.10 88.22L304.14 87.34Q304.16 87.14 304.12 87.05Q304.08 86.96 303.98 86.96L303.98 86.96Q303.94 86.96 303.85 86.98Q303.76 86.99 303.62 87.05L303.62 87.05Q302.66 87.39 302.29 87.76Q301.92 88.13 301.92 88.43L301.92 88.43Q301.92 88.90 302.20 89.14Q302.48 89.39 302.81 89.39ZM310.87 90.27L310.87 90.27Q309.97 90.27 309.24 89.81Q308.51 89.35 308.09 88.55Q307.67 87.75 307.67 86.76L307.67 86.76Q307.67 85.59 308.18 84.64Q308.69 83.68 309.56 83.11Q310.42 82.55 311.46 82.55L311.46 82.55Q312.63 82.55 313.52 83.18L313.52 83.18Q313.73 83.34 313.73 83.52L313.73 83.52Q313.73 83.66 313.61 83.84Q313.48 84.02 313.30 84.14Q313.12 84.26 312.96 84.26L312.96 84.26Q312.87 84.26 312.78 84.19Q312.69 84.13 312.58 84.06L312.58 84.06Q312.18 83.75 311.70 83.48Q311.21 83.21 310.89 83.21L310.89 83.21Q310.01 83.21 309.46 84.03Q308.91 84.85 308.91 86.18L308.91 86.18Q308.91 87.03 309.28 87.71Q309.65 88.40 310.27 88.79Q310.89 89.19 311.64 89.19L311.64 89.19Q312.17 89.19 312.54 89.02Q312.92 88.85 313.35 88.42L313.35 88.42Q313.39 88.38 313.44 88.35Q313.50 88.33 313.53 88.33L313.53 88.33Q313.73 88.33 313.73 88.58L313.73 88.58Q313.73 88.69 313.67 88.82Q313.61 88.96 313.46 89.14L313.46 89.14Q313.17 89.50 312.78 89.76Q312.38 90.02 311.91 90.14Q311.43 90.27 310.87 90.27ZM317.76 90.25L317.76 90.25Q316.88 90.25 316.39 89.71Q315.89 89.17 315.89 88.11L315.89 88.11L315.89 83.93Q315.89 83.79 315.78 83.73Q315.68 83.66 315.32 83.66L315.32 83.66L315.21 83.66Q315.12 83.66 315.06 83.55Q314.99 83.43 314.99 83.30L314.99 83.30Q314.99 83.27 315.05 83.20Q315.10 83.12 315.12 83.11L315.12 83.11Q315.48 82.85 315.78 82.60Q316.07 82.35 316.31 82.11Q316.56 81.86 316.72 81.67L316.72 81.67Q316.81 81.58 316.87 81.51Q316.94 81.45 317.03 81.45L317.03 81.45Q317.12 81.45 317.20 81.49Q317.28 81.52 317.26 81.65L317.26 81.65L317.17 82.46Q317.15 82.66 317.26 82.73Q317.37 82.80 317.60 82.80L317.60 82.80L319.65 82.80Q319.73 82.80 319.78 82.92Q319.83 83.03 319.83 83.20L319.83 83.20Q319.83 83.36 319.78 83.51Q319.73 83.66 319.65 83.66L319.65 83.66L317.87 83.66Q317.42 83.66 317.29 83.74Q317.15 83.81 317.15 84.17L317.15 84.17L317.15 87.71Q317.15 88.43 317.46 88.85Q317.76 89.26 318.34 89.26L318.34 89.26Q318.86 89.26 319.15 89.18Q319.44 89.10 319.67 88.94L319.67 88.94Q319.71 88.90 319.74 88.90L319.74 88.90Q319.82 88.90 319.84 88.98Q319.87 89.06 319.87 89.15L319.87 89.15Q319.87 89.24 319.57 89.51Q319.28 89.78 318.80 90.02Q318.32 90.25 317.76 90.25ZM325.54 90.05L325.54 90.05Q325.41 90.05 325.34 89.98Q325.27 89.91 325.27 89.84L325.27 89.84Q325.27 89.68 325.54 89.60L325.54 89.60Q326.22 89.42 326.67 89.27Q327.11 89.12 327.31 88.84Q327.52 88.56 327.52 88.04L327.52 88.04L327.52 81.16Q327.52 80.82 327.30 80.64Q327.09 80.46 326.75 80.39Q326.40 80.32 326.01 80.30L326.01 80.30Q325.83 80.28 325.68 80.21Q325.54 80.14 325.54 79.99L325.54 79.99Q325.54 79.87 325.68 79.78Q325.81 79.69 325.99 79.67L325.99 79.67Q326.80 79.54 327.44 79.35Q328.08 79.16 328.69 78.55L328.69 78.55Q328.71 78.53 328.74 78.53Q328.76 78.53 328.78 78.53L328.78 78.53Q328.87 78.53 328.94 78.58Q329.01 78.62 329.00 78.70L329.00 78.70Q328.96 78.97 328.94 79.28Q328.92 79.60 328.92 79.97L328.92 79.97L328.92 88.25Q328.92 88.70 329.10 88.94Q329.27 89.17 329.68 89.31Q330.09 89.44 330.83 89.62L330.83 89.62Q330.94 89.64 331.04 89.70Q331.14 89.77 331.14 89.86L331.14 89.86Q331.14 90.05 330.89 90.05L330.89 90.05Q330.38 90.05 329.96 90.03Q329.54 90 329.13 89.98Q328.73 89.96 328.24 89.96L328.24 89.96Q327.75 89.96 327.32 89.98Q326.89 90 326.46 90.03Q326.03 90.05 325.54 90.05ZM336.61 90.25L336.61 90.25Q335.78 90.25 335.05 89.90Q334.32 89.55 333.87 88.92Q333.42 88.29 333.42 87.46L333.42 87.46Q333.42 86.67 333.84 86.11Q334.25 85.55 334.82 85.19Q335.39 84.82 335.84 84.56L335.84 84.56Q335.96 84.49 335.93 84.46Q335.89 84.42 335.78 84.33L335.78 84.33Q335.24 83.86 334.77 83.44Q334.29 83.02 333.99 82.48Q333.69 81.95 333.69 81.20L333.69 81.20Q333.69 80.50 334.18 79.92Q334.67 79.34 335.42 79.00Q336.18 78.66 336.97 78.66L336.97 78.66Q337.69 78.66 338.35 78.96Q339.00 79.25 339.42 79.79Q339.83 80.33 339.83 81.07L339.83 81.07Q339.83 81.72 339.51 82.13Q339.18 82.53 338.88 82.80L338.88 82.80Q338.63 83.02 338.43 83.17Q338.23 83.32 337.92 83.56L337.92 83.56Q337.69 83.72 337.69 83.78Q337.69 83.84 337.83 83.93L337.83 83.93Q338.52 84.40 339.04 84.85Q339.56 85.30 339.86 85.82Q340.16 86.35 340.16 87.05L340.16 87.05Q340.16 87.98 339.63 88.70Q339.11 89.42 338.30 89.84Q337.49 90.25 336.61 90.25ZM336.86 89.73L336.86 89.73Q337.65 89.73 338.19 89.14Q338.72 88.56 338.72 87.77L338.72 87.77Q338.72 87.21 338.40 86.71Q338.09 86.20 337.60 85.76Q337.11 85.32 336.59 84.96L336.59 84.96Q336.48 84.87 336.40 84.83Q336.32 84.78 336.23 84.78L336.23 84.78Q336.16 84.78 336.02 84.89L336.02 84.89Q335.44 85.36 335.15 85.83Q334.86 86.31 334.86 87.17L334.86 87.17Q334.86 87.80 335.10 88.39Q335.33 88.97 335.78 89.35Q336.23 89.73 336.86 89.73ZM337.44 83.56L337.44 83.56Q338.07 83.03 338.26 82.40Q338.45 81.77 338.45 80.95L338.45 80.95Q338.45 80.19 338.06 79.64Q337.67 79.09 336.88 79.09L336.88 79.09Q336.47 79.09 336.05 79.33Q335.64 79.56 335.36 79.96Q335.08 80.35 335.08 80.84L335.08 80.84Q335.08 81.52 335.34 81.92Q335.60 82.31 336.08 82.65Q336.56 82.98 337.19 83.50L337.19 83.50Q337.24 83.54 337.31 83.56Q337.38 83.59 337.44 83.56ZM341.58 92.65L341.58 92.65Q341.25 92.65 341.25 92.45L341.25 92.45Q341.25 92.38 341.32 92.31Q341.38 92.25 341.51 92.23L341.51 92.23Q341.90 92.14 342.30 91.93Q342.69 91.71 342.96 91.31Q343.23 90.90 343.23 90.27L343.23 90.27Q343.23 90.05 343.04 89.78Q342.84 89.50 342.53 89.48L342.53 89.48Q342.14 89.44 341.91 89.23Q341.69 89.01 341.69 88.72L341.69 88.72Q341.69 88.36 341.98 88.13Q342.28 87.89 342.68 87.89L342.68 87.89Q343.32 87.89 343.75 88.39Q344.17 88.88 344.17 89.64L344.17 89.64Q344.17 90.32 343.90 90.87Q343.63 91.42 343.22 91.82Q342.80 92.21 342.36 92.43Q341.92 92.65 341.58 92.65ZM352.49 90.09L352.49 90.09Q352.25 90.09 352.11 90.05Q351.96 90 351.96 89.89L351.96 89.89Q351.96 89.77 352.11 89.69Q352.25 89.62 352.56 89.57L352.56 89.57Q353.24 89.44 353.60 89.13Q353.96 88.81 353.96 88.16L353.96 88.16L353.96 81.18Q353.96 80.35 353.93 79.91Q353.89 79.47 353.81 79.29Q353.73 79.11 353.58 79.09L353.58 79.09Q353.33 79.04 353.05 79.03Q352.77 79.02 352.31 79.02L352.31 79.02L351.46 79.02Q351.03 79.02 350.61 79.19Q350.18 79.36 349.98 79.72L349.98 79.72Q349.93 79.81 349.80 79.98Q349.68 80.15 349.53 80.28Q349.39 80.41 349.25 80.41L349.25 80.41Q349.17 80.41 349.15 80.33Q349.12 80.26 349.12 80.17L349.12 80.17Q349.12 79.99 349.21 79.81L349.21 79.81Q349.46 79.29 349.58 78.88Q349.70 78.48 349.77 77.92L349.77 77.92Q349.80 77.62 349.90 77.56Q350.00 77.51 350.07 77.51L350.07 77.51Q350.15 77.51 350.30 77.72Q350.45 77.94 350.52 78.08L350.52 78.08Q350.63 78.26 351.02 78.35Q351.41 78.44 351.78 78.44L351.78 78.44L358.12 78.44Q358.75 78.44 359.15 78.37Q359.54 78.30 359.83 78.17L359.83 78.17Q360.05 78.07 360.18 77.94Q360.32 77.81 360.53 77.81L360.53 77.81Q360.59 77.81 360.62 77.95Q360.66 78.08 360.66 78.23L360.66 78.23Q360.66 78.32 360.63 78.48Q360.60 78.64 360.59 78.73L360.59 78.73Q360.53 79.06 360.49 79.20Q360.44 79.34 360.42 79.45Q360.41 79.56 360.41 79.79L360.41 79.79L360.41 80.01Q360.41 80.17 360.33 80.38Q360.26 80.59 360.12 80.59L360.12 80.59Q359.99 80.59 359.92 80.39Q359.85 80.19 359.78 79.85L359.78 79.85Q359.70 79.47 359.34 79.25Q358.98 79.02 358.12 79.02L358.12 79.02L356.30 79.02Q355.91 79.02 355.71 79.13Q355.51 79.24 355.46 79.67Q355.40 80.10 355.40 81.09L355.40 81.09L355.40 88.16Q355.40 88.81 355.78 89.13Q356.16 89.44 356.82 89.57L356.82 89.57Q357.13 89.62 357.27 89.69Q357.42 89.77 357.42 89.89L357.42 89.89Q357.42 90 357.27 90.05Q357.13 90.09 356.90 90.09L356.90 90.09Q356.41 90.09 356.10 90.06Q355.78 90.04 355.49 90.02Q355.20 90 354.79 90L354.79 90Q354.34 90 354.01 90.02Q353.67 90.04 353.32 90.06Q352.97 90.09 352.49 90.09ZM361.85 95.13L361.85 95.13Q361.50 95.13 361.22 94.96Q360.93 94.79 360.93 94.39L360.93 94.39Q360.93 94.07 361.08 93.83Q361.23 93.58 361.52 93.58L361.52 93.58Q361.72 93.58 361.91 93.64Q362.10 93.69 362.24 93.69L362.24 93.69Q362.35 93.69 362.43 93.64Q362.51 93.60 362.58 93.49L362.58 93.49Q362.78 93.17 363.04 92.68Q363.30 92.20 363.58 91.58Q363.86 90.97 364.11 90.29L364.11 90.29Q364.17 90.13 364.17 89.87L364.17 89.87Q364.17 89.73 364.15 89.59Q364.13 89.46 364.10 89.35L364.10 89.35L362.01 84.08Q361.88 83.75 361.68 83.51Q361.47 83.27 361.20 83.20L361.20 83.20Q361.05 83.14 360.92 83.07Q360.78 83.00 360.78 82.87L360.78 82.87Q360.78 82.76 360.92 82.74Q361.05 82.71 361.14 82.71L361.14 82.71Q361.50 82.71 361.68 82.73Q361.85 82.75 362.00 82.77Q362.15 82.80 362.46 82.80L362.46 82.80Q362.78 82.80 362.94 82.77Q363.11 82.75 363.29 82.73Q363.47 82.71 363.83 82.71L363.83 82.71Q363.93 82.71 364.06 82.75Q364.19 82.80 364.19 82.91L364.19 82.91Q364.19 83.03 364.00 83.15Q363.81 83.27 363.66 83.30L363.66 83.30Q363.48 83.36 363.39 83.49Q363.30 83.63 363.30 83.88L363.30 83.88Q363.30 83.99 363.36 84.14Q363.41 84.29 363.45 84.38L363.45 84.38L364.91 87.98Q364.94 88.09 365.01 88.09L365.01 88.09Q365.07 88.09 365.10 87.98L365.10 87.98L366.35 84.69Q366.40 84.56 366.44 84.36Q366.49 84.15 366.49 84.02L366.49 84.02Q366.49 83.68 366.39 83.55Q366.29 83.41 366.13 83.34L366.13 83.34Q365.99 83.27 365.80 83.15Q365.61 83.03 365.61 82.91L365.61 82.91Q365.61 82.80 365.74 82.75Q365.88 82.71 365.97 82.71L365.97 82.71Q366.22 82.71 366.48 82.75Q366.74 82.80 367.25 82.80L367.25 82.80Q367.59 82.80 367.74 82.77Q367.89 82.75 368.00 82.73Q368.11 82.71 368.31 82.71L368.31 82.71Q368.40 82.71 368.53 82.74Q368.67 82.76 368.67 82.87L368.67 82.87Q368.67 83.00 368.53 83.07Q368.40 83.14 368.25 83.20L368.25 83.20Q367.98 83.27 367.68 83.62Q367.37 83.97 367.19 84.40L367.19 84.40L364.74 90.23Q364.73 90.29 364.56 90.70Q364.38 91.12 364.13 91.73Q363.88 92.34 363.58 93.04Q363.29 93.74 363.02 94.39L363.02 94.39Q362.85 94.75 362.55 94.94Q362.24 95.13 361.85 95.13ZM369.30 95.13L369.30 95.13Q369.21 95.13 369.06 95.10Q368.92 95.08 368.92 94.97L368.92 94.97Q368.92 94.82 369.06 94.76Q369.19 94.70 369.33 94.64L369.33 94.64Q369.60 94.55 369.86 94.44Q370.11 94.32 370.11 93.96L370.11 93.96L370.11 84.83Q370.11 84.69 370.03 84.40Q369.95 84.11 369.77 83.84Q369.59 83.57 369.28 83.52L369.28 83.52Q369.21 83.50 369.17 83.43Q369.14 83.36 369.14 83.29L369.14 83.29Q369.14 83.20 369.17 83.14Q369.21 83.09 369.26 83.07L369.26 83.07Q369.95 82.91 370.43 82.72Q370.92 82.53 371.35 82.35L371.35 82.35Q371.37 82.35 371.37 82.34Q371.37 82.33 371.39 82.33L371.39 82.33Q371.42 82.33 371.46 82.39Q371.49 82.44 371.49 82.49L371.49 82.49Q371.49 82.66 371.45 83.01Q371.40 83.36 371.40 83.57L371.40 83.57Q371.40 83.72 371.42 83.74L371.42 83.74Q371.60 83.56 372.08 83.28Q372.56 83.00 373.17 82.77Q373.78 82.55 374.34 82.55L374.34 82.55Q375.27 82.55 375.93 83.04Q376.59 83.54 376.94 84.32Q377.29 85.10 377.29 85.95L377.29 85.95Q377.29 86.76 376.98 87.53Q376.68 88.29 376.12 88.90Q375.56 89.51 374.82 89.88Q374.09 90.25 373.24 90.25L373.24 90.25Q372.99 90.25 372.64 90.17Q372.29 90.09 371.95 89.96Q371.62 89.84 371.44 89.68L371.44 89.68Q371.42 89.68 371.40 89.88Q371.39 90.09 371.38 90.31Q371.37 90.54 371.37 90.59L371.37 90.59L371.37 93.96Q371.37 94.19 371.56 94.33Q371.75 94.46 371.99 94.53Q372.23 94.59 372.41 94.64L372.41 94.64Q372.56 94.70 372.69 94.76Q372.83 94.82 372.83 94.97L372.83 94.97Q372.83 95.08 372.68 95.10Q372.54 95.13 372.43 95.13L372.43 95.13Q371.91 95.13 371.56 95.09Q371.21 95.04 370.74 95.04L370.74 95.04Q370.43 95.04 370.24 95.06Q370.05 95.08 369.86 95.10Q369.66 95.13 369.30 95.13ZM373.51 89.69L373.51 89.69Q373.78 89.69 374.17 89.53Q374.55 89.37 374.94 89.01Q375.33 88.65 375.59 88.04Q375.85 87.43 375.85 86.53L375.85 86.53Q375.85 85.48 375.58 84.85Q375.31 84.22 374.91 83.90Q374.52 83.57 374.10 83.47Q373.69 83.36 373.40 83.36L373.40 83.36Q372.97 83.36 372.51 83.54Q372.05 83.72 371.74 83.94Q371.42 84.17 371.42 84.29L371.42 84.29Q371.42 84.69 371.41 85.09Q371.40 85.50 371.40 85.88Q371.39 86.26 371.38 86.55Q371.37 86.85 371.37 87.01L371.37 87.01Q371.37 87.73 371.70 88.34Q372.03 88.96 372.53 89.33Q373.02 89.69 373.51 89.69ZM381.75 90.27L381.75 90.27Q380.76 90.27 380.03 89.78Q379.29 89.30 378.87 88.41Q378.46 87.52 378.46 86.35L378.46 86.35Q378.46 85.30 378.94 84.45Q379.41 83.59 380.21 83.07Q381.00 82.55 381.93 82.55L381.93 82.55Q382.65 82.55 383.21 82.84Q383.77 83.12 384.09 83.64Q384.40 84.15 384.40 84.82L384.40 84.82Q384.40 85.37 383.86 85.37L383.86 85.37L380.06 85.37Q379.81 85.37 379.71 85.51Q379.61 85.64 379.61 86.04L379.61 86.04Q379.61 86.90 379.99 87.61Q380.37 88.33 381.00 88.75Q381.63 89.17 382.38 89.17L382.38 89.17Q382.92 89.17 383.37 88.97Q383.81 88.76 384.15 88.36L384.15 88.36Q384.22 88.27 384.26 88.25Q384.29 88.22 384.35 88.22L384.35 88.22Q384.49 88.22 384.49 88.40L384.49 88.40Q384.49 88.74 384.17 89.15L384.17 89.15Q383.90 89.50 383.52 89.75Q383.14 90 382.69 90.14Q382.24 90.27 381.75 90.27ZM380.10 84.82L380.10 84.82L381.74 84.82Q382.17 84.82 382.47 84.80Q382.78 84.78 383.07 84.73L383.07 84.73Q383.16 84.71 383.19 84.61Q383.21 84.51 383.21 84.33L383.21 84.33Q383.21 83.81 382.75 83.44Q382.29 83.07 381.66 83.07L381.66 83.07Q381.25 83.07 380.84 83.31Q380.42 83.56 380.15 83.92Q379.88 84.28 379.88 84.64L379.88 84.64Q379.88 84.82 380.10 84.82ZM388.61 90.29L388.61 90.29Q387.86 90.29 387.22 90.06Q386.58 89.84 386.07 89.42L386.07 89.42Q386.00 89.35 385.94 89.26Q385.88 89.17 385.84 89.06L385.84 89.06Q385.75 88.70 385.72 88.13Q385.70 87.55 385.66 87.17L385.66 87.17Q385.66 87.05 385.77 86.98Q385.88 86.92 386.02 86.92L386.02 86.92Q386.11 86.92 386.20 86.97Q386.29 87.01 386.31 87.12L386.31 87.12Q386.67 88.51 387.38 89.10Q388.09 89.69 388.86 89.69L388.86 89.69Q389.49 89.69 389.98 89.42Q390.47 89.15 390.75 88.66Q391.02 88.16 391.02 87.50L391.02 87.50Q391.02 86.76 390.78 86.30Q390.54 85.84 390.09 85.50Q389.64 85.16 388.99 84.76L388.99 84.76Q388.29 84.31 387.60 83.85Q386.92 83.39 386.47 82.79Q386.02 82.19 386.02 81.32L386.02 81.32Q386.02 80.41 386.43 79.67Q386.85 78.93 387.69 78.49Q388.52 78.05 389.78 78.05L389.78 78.05Q390.43 78.05 390.91 78.18Q391.38 78.32 391.67 78.44L391.67 78.44Q391.82 78.50 391.92 78.62Q392.01 78.75 392.05 78.89L392.05 78.89Q392.16 79.27 392.28 79.76Q392.41 80.24 392.41 80.68L392.41 80.68Q392.41 80.87 392.14 80.87L392.14 80.87Q391.98 80.87 391.82 80.80Q391.67 80.73 391.64 80.62L391.64 80.62Q391.26 79.67 390.75 79.16Q390.25 78.66 389.48 78.66L389.48 78.66Q388.94 78.66 388.47 78.86Q388 79.06 387.70 79.51Q387.41 79.96 387.41 80.71L387.41 80.71Q387.41 81.25 387.76 81.69Q388.11 82.13 388.68 82.53Q389.26 82.93 389.93 83.34L389.93 83.34Q390.56 83.72 391.16 84.17Q391.76 84.62 392.15 85.24Q392.54 85.86 392.54 86.76L392.54 86.76Q392.54 87.82 392.05 88.62Q391.56 89.42 390.68 89.86Q389.80 90.29 388.61 90.29ZM397.14 90.27L397.14 90.27Q396.24 90.27 395.51 89.81Q394.79 89.35 394.36 88.55Q393.94 87.75 393.94 86.76L393.94 86.76Q393.94 85.59 394.45 84.64Q394.97 83.68 395.83 83.11Q396.69 82.55 397.74 82.55L397.74 82.55Q398.91 82.55 399.79 83.18L399.79 83.18Q400.01 83.34 400.01 83.52L400.01 83.52Q400.01 83.66 399.88 83.84Q399.75 84.02 399.57 84.14Q399.39 84.26 399.23 84.26L399.23 84.26Q399.14 84.26 399.05 84.19Q398.96 84.13 398.85 84.06L398.85 84.06Q398.46 83.75 397.97 83.48Q397.49 83.21 397.16 83.21L397.16 83.21Q396.28 83.21 395.73 84.03Q395.18 84.85 395.18 86.18L395.18 86.18Q395.18 87.03 395.55 87.71Q395.92 88.40 396.54 88.79Q397.16 89.19 397.92 89.19L397.92 89.19Q398.44 89.19 398.82 89.02Q399.20 88.85 399.63 88.42L399.63 88.42Q399.66 88.38 399.72 88.35Q399.77 88.33 399.81 88.33L399.81 88.33Q400.01 88.33 400.01 88.58L400.01 88.58Q400.01 88.69 399.94 88.82Q399.88 88.96 399.74 89.14L399.74 89.14Q399.45 89.50 399.05 89.76Q398.66 90.02 398.18 90.14Q397.70 90.27 397.14 90.27ZM401.52 90.05L401.52 90.05Q401.34 90.05 401.25 90.01Q401.16 89.96 401.16 89.86L401.16 89.86Q401.16 89.71 401.27 89.67Q401.37 89.62 401.57 89.57L401.57 89.57Q401.91 89.48 402.09 89.31Q402.26 89.14 402.26 88.88L402.26 88.88L402.26 85.01Q402.26 84.53 402.11 84.17Q401.97 83.81 401.52 83.72L401.52 83.72Q401.45 83.70 401.39 83.63Q401.34 83.56 401.34 83.48L401.34 83.48Q401.34 83.30 401.50 83.27L401.50 83.27Q401.97 83.12 402.48 82.84Q402.99 82.57 403.28 82.39L403.28 82.39Q403.39 82.31 403.45 82.29Q403.52 82.26 403.55 82.26L403.55 82.26Q403.64 82.26 403.64 82.39L403.64 82.39Q403.64 82.44 403.63 82.66Q403.62 82.87 403.62 83.16Q403.61 83.45 403.59 83.74L403.59 83.74Q403.59 83.77 403.62 83.77L403.62 83.77Q403.91 83.41 404.26 83.14Q404.61 82.87 404.98 82.71Q405.35 82.55 405.69 82.55L405.69 82.55Q406.07 82.55 406.31 82.71Q406.56 82.87 406.56 83.12L406.56 83.12Q406.56 83.30 406.46 83.52Q406.36 83.74 406.20 83.90Q406.04 84.06 405.86 84.06L405.86 84.06Q405.75 84.06 405.62 84.02Q405.50 83.97 405.35 83.90L405.35 83.90Q405.21 83.84 405.06 83.79Q404.92 83.74 404.78 83.74L404.78 83.74Q404.34 83.74 403.94 84.04Q403.53 84.35 403.53 85.25L403.53 85.25L403.53 88.88Q403.53 89.12 403.79 89.27Q404.04 89.42 404.49 89.57L404.49 89.57Q404.69 89.62 404.79 89.68Q404.90 89.73 404.90 89.86L404.90 89.86Q404.90 90.05 404.54 90.05L404.54 90.05Q404.00 90.05 403.72 90.01Q403.44 89.96 402.98 89.96L402.98 89.96Q402.67 89.96 402.48 89.98Q402.29 90 402.09 90.03Q401.88 90.05 401.52 90.05ZM407.44 90.05L407.44 90.05Q407.28 90.05 407.18 90.01Q407.08 89.96 407.08 89.86L407.08 89.86Q407.08 89.71 407.22 89.66Q407.35 89.60 407.49 89.57L407.49 89.57Q407.87 89.48 408.07 89.34Q408.27 89.21 408.27 88.88L408.27 88.88L408.27 84.98Q408.27 84.49 408.10 84.11Q407.93 83.74 407.46 83.66L407.46 83.66Q407.37 83.65 407.32 83.59Q407.28 83.54 407.28 83.43L407.28 83.43Q407.28 83.23 407.44 83.21L407.44 83.21Q408.16 83.05 408.63 82.77Q409.10 82.49 409.33 82.31L409.33 82.31Q409.49 82.19 409.58 82.19L409.58 82.19Q409.69 82.19 409.69 82.28L409.69 82.28Q409.69 82.42 409.65 82.84Q409.60 83.27 409.56 83.78Q409.53 84.29 409.53 84.71L409.53 84.71L409.53 88.88Q409.53 89.19 409.74 89.33Q409.94 89.48 410.30 89.57L410.30 89.57Q410.45 89.60 410.58 89.66Q410.72 89.71 410.72 89.86L410.72 89.86Q410.72 90.05 410.36 90.05L410.36 90.05Q410.01 90.05 409.81 90.03Q409.60 90 409.41 89.98Q409.22 89.96 408.90 89.96L408.90 89.96Q408.59 89.96 408.39 89.98Q408.20 90 408.00 90.03Q407.80 90.05 407.44 90.05ZM408.88 80.71L408.88 80.71Q408.50 80.71 408.24 80.45Q407.98 80.19 407.98 79.81L407.98 79.81Q407.98 79.42 408.24 79.16Q408.50 78.89 408.88 78.89L408.88 78.89Q409.28 78.89 409.54 79.16Q409.80 79.42 409.80 79.81L409.80 79.81Q409.80 80.19 409.54 80.45Q409.28 80.71 408.88 80.71ZM411.78 95.13L411.78 95.13Q411.69 95.13 411.54 95.10Q411.40 95.08 411.40 94.97L411.40 94.97Q411.40 94.82 411.54 94.76Q411.67 94.70 411.81 94.64L411.81 94.64Q412.08 94.55 412.34 94.44Q412.59 94.32 412.59 93.96L412.59 93.96L412.59 84.83Q412.59 84.69 412.51 84.40Q412.43 84.11 412.25 83.84Q412.07 83.57 411.76 83.52L411.76 83.52Q411.69 83.50 411.65 83.43Q411.62 83.36 411.62 83.29L411.62 83.29Q411.62 83.20 411.65 83.14Q411.69 83.09 411.74 83.07L411.74 83.07Q412.43 82.91 412.91 82.72Q413.40 82.53 413.83 82.35L413.83 82.35Q413.85 82.35 413.85 82.34Q413.85 82.33 413.87 82.33L413.87 82.33Q413.90 82.33 413.94 82.39Q413.97 82.44 413.97 82.49L413.97 82.49Q413.97 82.66 413.93 83.01Q413.88 83.36 413.88 83.57L413.88 83.57Q413.88 83.72 413.90 83.74L413.90 83.74Q414.08 83.56 414.56 83.28Q415.04 83.00 415.65 82.77Q416.26 82.55 416.82 82.55L416.82 82.55Q417.75 82.55 418.41 83.04Q419.07 83.54 419.42 84.32Q419.77 85.10 419.77 85.95L419.77 85.95Q419.77 86.76 419.46 87.53Q419.16 88.29 418.60 88.90Q418.04 89.51 417.30 89.88Q416.57 90.25 415.72 90.25L415.72 90.25Q415.47 90.25 415.12 90.17Q414.77 90.09 414.43 89.96Q414.10 89.84 413.92 89.68L413.92 89.68Q413.90 89.68 413.88 89.88Q413.87 90.09 413.86 90.31Q413.85 90.54 413.85 90.59L413.85 90.59L413.85 93.96Q413.85 94.19 414.04 94.33Q414.23 94.46 414.47 94.53Q414.71 94.59 414.89 94.64L414.89 94.64Q415.04 94.70 415.17 94.76Q415.31 94.82 415.31 94.97L415.31 94.97Q415.31 95.08 415.16 95.10Q415.02 95.13 414.91 95.13L414.91 95.13Q414.39 95.13 414.04 95.09Q413.69 95.04 413.22 95.04L413.22 95.04Q412.91 95.04 412.72 95.06Q412.53 95.08 412.34 95.10Q412.14 95.13 411.78 95.13ZM415.99 89.69L415.99 89.69Q416.26 89.69 416.65 89.53Q417.03 89.37 417.42 89.01Q417.81 88.65 418.07 88.04Q418.33 87.43 418.33 86.53L418.33 86.53Q418.33 85.48 418.06 84.85Q417.79 84.22 417.39 83.90Q417.00 83.57 416.58 83.47Q416.17 83.36 415.88 83.36L415.88 83.36Q415.45 83.36 414.99 83.54Q414.53 83.72 414.22 83.94Q413.90 84.17 413.90 84.29L413.90 84.29Q413.90 84.69 413.89 85.09Q413.88 85.50 413.88 85.88Q413.87 86.26 413.86 86.55Q413.85 86.85 413.85 87.01L413.85 87.01Q413.85 87.73 414.18 88.34Q414.51 88.96 415.01 89.33Q415.50 89.69 415.99 89.69ZM423.80 90.25L423.80 90.25Q422.92 90.25 422.43 89.71Q421.93 89.17 421.93 88.11L421.93 88.11L421.93 83.93Q421.93 83.79 421.82 83.73Q421.71 83.66 421.35 83.66L421.35 83.66L421.25 83.66Q421.16 83.66 421.09 83.55Q421.03 83.43 421.03 83.30L421.03 83.30Q421.03 83.27 421.08 83.20Q421.14 83.12 421.16 83.11L421.16 83.11Q421.52 82.85 421.81 82.60Q422.11 82.35 422.35 82.11Q422.60 81.86 422.76 81.67L422.76 81.67Q422.85 81.58 422.91 81.51Q422.97 81.45 423.06 81.45L423.06 81.45Q423.15 81.45 423.24 81.49Q423.32 81.52 423.30 81.65L423.30 81.65L423.21 82.46Q423.19 82.66 423.30 82.73Q423.41 82.80 423.64 82.80L423.64 82.80L425.69 82.80Q425.76 82.80 425.82 82.92Q425.87 83.03 425.87 83.20L425.87 83.20Q425.87 83.36 425.82 83.51Q425.76 83.66 425.69 83.66L425.69 83.66L423.91 83.66Q423.46 83.66 423.33 83.74Q423.19 83.81 423.19 84.17L423.19 84.17L423.19 87.71Q423.19 88.43 423.50 88.85Q423.80 89.26 424.38 89.26L424.38 89.26Q424.90 89.26 425.19 89.18Q425.48 89.10 425.71 88.94L425.71 88.94Q425.75 88.90 425.78 88.90L425.78 88.90Q425.85 88.90 425.88 88.98Q425.91 89.06 425.91 89.15L425.91 89.15Q425.91 89.24 425.61 89.51Q425.31 89.78 424.84 90.02Q424.36 90.25 423.80 90.25ZM426.74 92.65L426.74 92.65Q426.41 92.65 426.41 92.45L426.41 92.45Q426.41 92.38 426.48 92.31Q426.54 92.25 426.66 92.23L426.66 92.23Q427.06 92.14 427.46 91.93Q427.85 91.71 428.12 91.31Q428.39 90.90 428.39 90.27L428.39 90.27Q428.39 90.05 428.19 89.78Q428.00 89.50 427.69 89.48L427.69 89.48Q427.29 89.44 427.07 89.23Q426.84 89.01 426.84 88.72L426.84 88.72Q426.84 88.36 427.14 88.13Q427.44 87.89 427.83 87.89L427.83 87.89Q428.48 87.89 428.91 88.39Q429.33 88.88 429.33 89.64L429.33 89.64Q429.33 90.32 429.06 90.87Q428.79 91.42 428.37 91.82Q427.96 92.21 427.52 92.43Q427.08 92.65 426.74 92.65ZM445.26 90.38L445.26 90.38Q444.75 90.38 444.30 90.30Q443.85 90.22 443.48 90Q443.10 89.78 442.77 89.41L442.77 89.41Q442.34 88.87 441.95 88.37Q441.55 87.88 441.11 87.23Q440.67 86.58 440.04 85.57L440.04 85.57Q439.77 85.12 439.26 84.87L439.26 84.87Q438.87 84.67 438.48 84.59Q438.09 84.51 437.84 84.49L437.84 84.49Q437.70 84.47 437.64 84.58Q437.57 84.69 437.57 84.85L437.57 84.85L437.57 88.02Q437.57 88.60 437.84 89.02Q438.11 89.44 438.78 89.57L438.78 89.57Q439.08 89.62 439.23 89.69Q439.37 89.77 439.37 89.89L439.37 89.89Q439.37 90 439.23 90.05Q439.08 90.09 438.85 90.09L438.85 90.09Q438.36 90.09 438.10 90.05Q437.84 90.02 437.64 89.99Q437.43 89.96 437.09 89.96L437.09 89.96Q436.64 89.96 436.29 89.99Q435.93 90.02 435.58 90.05Q435.23 90.09 434.75 90.09L434.75 90.09Q434.51 90.09 434.37 90.05Q434.22 90 434.22 89.89L434.22 89.89Q434.22 89.68 434.82 89.57L434.82 89.57Q435.50 89.44 435.82 89.15Q436.13 88.87 436.13 88.20L436.13 88.20L436.13 80.53Q436.13 79.85 436.07 79.50Q436.01 79.15 435.78 79.00Q435.56 78.86 435.03 78.80L435.03 78.80Q434.73 78.77 434.58 78.67Q434.44 78.57 434.44 78.44L434.44 78.44Q434.44 78.34 434.58 78.29Q434.73 78.25 434.96 78.25L434.96 78.25Q435.45 78.25 435.69 78.25Q435.93 78.25 436.15 78.25Q436.37 78.26 436.73 78.26L436.73 78.26Q437.07 78.26 437.34 78.24Q437.61 78.21 437.94 78.19Q438.27 78.17 438.80 78.17L438.80 78.17Q440.78 78.17 441.81 78.91Q442.85 79.65 442.85 81.13L442.85 81.13Q442.85 81.94 442.52 82.52Q442.20 83.11 441.71 83.50Q441.23 83.90 440.72 84.15L440.72 84.15Q440.65 84.17 440.66 84.23Q440.67 84.29 440.72 84.38L440.72 84.38Q441.28 85.23 441.79 85.99Q442.31 86.74 442.92 87.46Q443.53 88.18 444.38 88.96L444.38 88.96Q444.84 89.37 445.33 89.46Q445.82 89.55 446.45 89.55L446.45 89.55Q446.72 89.55 446.72 89.75L446.72 89.75Q446.72 90.02 446.45 90.15Q446.18 90.29 445.83 90.33Q445.49 90.38 445.26 90.38ZM438.53 84.08L438.53 84.08Q439.35 84.08 439.96 83.70Q440.56 83.32 440.89 82.71Q441.23 82.10 441.23 81.41L441.23 81.41Q441.23 80.68 441.04 80.06Q440.85 79.45 440.28 79.08Q439.71 78.71 438.58 78.71L438.58 78.71Q438.00 78.71 437.82 79.08Q437.64 79.45 437.61 80.39L437.61 80.39Q437.59 80.84 437.58 81.60Q437.57 82.37 437.57 83.45L437.57 83.45Q437.57 83.90 437.82 83.99Q438.08 84.08 438.53 84.08ZM450.46 90.27L450.46 90.27Q449.47 90.27 448.73 89.78Q447.99 89.30 447.58 88.41Q447.17 87.52 447.17 86.35L447.17 86.35Q447.17 85.30 447.64 84.45Q448.12 83.59 448.91 83.07Q449.70 82.55 450.64 82.55L450.64 82.55Q451.36 82.55 451.92 82.84Q452.48 83.12 452.79 83.64Q453.11 84.15 453.11 84.82L453.11 84.82Q453.11 85.37 452.57 85.37L452.57 85.37L448.77 85.37Q448.52 85.37 448.42 85.51Q448.32 85.64 448.32 86.04L448.32 86.04Q448.32 86.90 448.70 87.61Q449.07 88.33 449.70 88.75Q450.33 89.17 451.09 89.17L451.09 89.17Q451.63 89.17 452.07 88.97Q452.51 88.76 452.85 88.36L452.85 88.36Q452.93 88.27 452.96 88.25Q453.00 88.22 453.05 88.22L453.05 88.22Q453.20 88.22 453.20 88.40L453.20 88.40Q453.20 88.74 452.87 89.15L452.87 89.15Q452.60 89.50 452.22 89.75Q451.85 90 451.40 90.14Q450.95 90.27 450.46 90.27ZM448.80 84.82L448.80 84.82L450.44 84.82Q450.87 84.82 451.18 84.80Q451.49 84.78 451.77 84.73L451.77 84.73Q451.86 84.71 451.89 84.61Q451.92 84.51 451.92 84.33L451.92 84.33Q451.92 83.81 451.46 83.44Q451.00 83.07 450.37 83.07L450.37 83.07Q449.96 83.07 449.54 83.31Q449.13 83.56 448.86 83.92Q448.59 84.28 448.59 84.64L448.59 84.64Q448.59 84.82 448.80 84.82ZM460.07 90.34L460.07 90.34Q460.04 90.34 459.96 90.27Q459.87 90.20 459.87 90.16L459.87 90.16Q459.87 89.98 459.92 89.65Q459.96 89.32 459.96 89.08L459.96 89.08L459.96 88.97Q459.69 89.39 459.10 89.82Q458.51 90.25 457.61 90.25L457.61 90.25Q456.58 90.25 455.83 89.71Q455.09 89.17 454.68 88.33Q454.28 87.48 454.28 86.58L454.28 86.58Q454.28 85.54 454.76 84.62Q455.25 83.70 456.16 83.12Q457.07 82.55 458.33 82.55L458.33 82.55Q458.69 82.55 459.06 82.61Q459.42 82.67 459.62 82.75L459.62 82.75Q459.78 82.80 459.86 82.80L459.86 82.80Q459.98 82.80 459.98 82.37L459.98 82.37L459.98 79.81Q459.98 79.07 459.75 78.82Q459.51 78.57 459.08 78.50L459.08 78.50Q458.92 78.46 458.92 78.26L458.92 78.26Q458.92 78.10 459.06 78.05L459.06 78.05Q459.86 77.85 460.31 77.67Q460.76 77.49 461.01 77.38L461.01 77.38Q461.08 77.35 461.14 77.34Q461.21 77.33 461.24 77.33L461.24 77.33Q461.35 77.33 461.37 77.44L461.37 77.44Q461.37 77.54 461.34 77.80Q461.31 78.07 461.28 78.57Q461.24 79.07 461.24 79.88L461.24 79.88L461.24 88.02Q461.24 88.63 461.33 88.91Q461.42 89.19 461.62 89.19L461.62 89.19Q461.71 89.19 461.94 89.17Q462.16 89.15 462.39 89.14L462.39 89.14Q462.72 89.12 462.72 89.30L462.72 89.30Q462.72 89.42 462.64 89.52Q462.56 89.62 462.47 89.62L462.47 89.62Q461.96 89.69 461.48 89.83Q460.99 89.96 460.36 90.23L460.36 90.23Q460.22 90.31 460.17 90.32Q460.13 90.34 460.07 90.34ZM458.25 89.32L458.25 89.32Q458.72 89.32 459.17 89.07Q459.62 88.83 459.96 88.43L459.96 88.43L459.98 85.19Q459.98 84.71 459.70 84.24Q459.42 83.77 458.93 83.47Q458.43 83.18 457.77 83.18L457.77 83.18Q457.35 83.18 456.83 83.43Q456.31 83.68 455.93 84.32Q455.55 84.96 455.55 86.17L455.55 86.17Q455.55 87.19 455.86 87.81Q456.17 88.43 456.61 88.76Q457.05 89.08 457.51 89.20Q457.97 89.32 458.25 89.32ZM469.34 90.34L469.34 90.34Q469.22 90.34 469.22 90.20L469.22 90.20Q469.22 90.02 469.26 89.67Q469.31 89.32 469.31 89.08L469.31 89.08Q469.31 89.05 469.31 89.02Q469.31 88.99 469.31 88.97L469.31 88.97Q468.60 89.66 467.89 89.95Q467.18 90.25 466.34 90.25L466.34 90.25Q465.76 90.25 465.29 90.01Q464.82 89.77 464.55 89.29Q464.28 88.81 464.28 88.11L464.28 88.11L464.28 84.46Q464.28 84.06 464.10 83.83Q463.92 83.59 463.51 83.43L463.51 83.43Q463.42 83.39 463.35 83.34Q463.28 83.29 463.28 83.14L463.28 83.14Q463.28 82.98 463.36 82.93Q463.44 82.87 463.55 82.85L463.55 82.85Q464.16 82.82 464.49 82.75Q464.82 82.69 465.33 82.57L465.33 82.57Q465.38 82.55 465.41 82.55Q465.44 82.55 465.47 82.55L465.47 82.55Q465.67 82.55 465.65 82.80L465.65 82.80Q465.60 83.21 465.57 83.49Q465.54 83.77 465.54 84.19L465.54 84.19L465.54 87.70Q465.54 88.13 465.76 88.50Q465.98 88.87 466.33 89.10Q466.68 89.33 467.06 89.33L467.06 89.33Q467.52 89.33 467.88 89.28Q468.23 89.23 468.57 88.97L468.57 88.97Q468.77 88.83 469.07 88.51Q469.38 88.18 469.38 87.62L469.38 87.62L469.38 84.33Q469.38 83.95 469.15 83.76Q468.93 83.57 468.64 83.50Q468.35 83.43 468.17 83.43L468.17 83.43Q468.01 83.43 467.90 83.37Q467.79 83.30 467.79 83.12L467.79 83.12Q467.79 82.96 467.91 82.91Q468.03 82.85 468.17 82.85L468.17 82.85Q468.73 82.84 469.10 82.81Q469.47 82.78 469.77 82.72Q470.06 82.66 470.39 82.57L470.39 82.57Q470.42 82.55 470.48 82.54Q470.53 82.53 470.57 82.53L470.57 82.53Q470.80 82.53 470.80 82.73L470.80 82.73Q470.80 82.75 470.79 82.79Q470.78 82.84 470.76 82.89L470.76 82.89Q470.75 82.94 470.72 83.20Q470.69 83.45 470.67 83.72Q470.64 83.99 470.64 84.13L470.64 84.13L470.64 88.29Q470.64 88.78 470.74 88.98Q470.84 89.19 470.96 89.19L470.96 89.19Q471.11 89.19 471.38 89.16Q471.66 89.14 471.79 89.14L471.79 89.14Q471.88 89.14 471.97 89.17Q472.06 89.21 472.06 89.37L472.06 89.37Q472.06 89.51 471.99 89.56Q471.92 89.60 471.81 89.62L471.81 89.62Q471.11 89.71 470.60 89.89Q470.10 90.07 469.70 90.23L469.70 90.23Q469.65 90.25 469.54 90.30Q469.43 90.34 469.34 90.34ZM472.78 90.07L472.78 90.07Q472.67 90.07 472.55 90.05Q472.42 90.02 472.42 89.91L472.42 89.91Q472.42 89.77 472.56 89.69Q472.69 89.62 472.83 89.59L472.83 89.59Q473.10 89.50 473.38 89.29Q473.66 89.08 474.04 88.56L474.04 88.56L475.43 86.63Q475.55 86.49 475.54 86.41Q475.53 86.33 475.46 86.22L475.46 86.22L473.99 83.97Q473.77 83.61 473.60 83.45Q473.43 83.29 473.16 83.21L473.16 83.21Q473.01 83.18 472.88 83.11Q472.74 83.03 472.74 82.89L472.74 82.89Q472.74 82.75 472.92 82.74Q473.09 82.73 473.16 82.73L473.16 82.73Q473.52 82.73 473.65 82.75Q473.79 82.76 473.97 82.78Q474.15 82.80 474.58 82.80L474.58 82.80Q474.90 82.80 475.05 82.78Q475.19 82.76 475.50 82.76L475.50 82.76Q475.57 82.76 475.74 82.77Q475.91 82.78 475.91 82.93L475.91 82.93Q475.91 83.03 475.81 83.09Q475.71 83.14 475.59 83.18L475.59 83.18Q475.46 83.21 475.34 83.28Q475.21 83.34 475.21 83.48L475.21 83.48Q475.21 83.57 475.27 83.73Q475.34 83.88 475.44 84.06L475.44 84.06L476.27 85.30Q476.34 85.43 476.43 85.30L476.43 85.30L477.35 83.92Q477.42 83.83 477.46 83.72Q477.50 83.61 477.50 83.52L477.50 83.52Q477.50 83.30 477.26 83.23L477.26 83.23Q477.12 83.18 476.98 83.11Q476.85 83.03 476.85 82.91L476.85 82.91Q476.85 82.76 477.02 82.75Q477.19 82.75 477.26 82.75L477.26 82.75Q477.41 82.75 477.68 82.77Q477.95 82.80 478.16 82.80L478.16 82.80Q478.67 82.80 478.86 82.75Q479.06 82.71 479.30 82.71L479.30 82.71Q479.40 82.71 479.53 82.74Q479.66 82.76 479.66 82.87L479.66 82.87Q479.66 83.00 479.52 83.07Q479.39 83.14 479.24 83.20L479.24 83.20Q478.97 83.27 478.59 83.47Q478.22 83.68 477.96 84.04L477.96 84.04L476.83 85.75Q476.81 85.79 476.80 85.85Q476.79 85.91 476.85 85.99L476.85 85.99L478.59 88.83Q478.81 89.17 479.01 89.33Q479.21 89.50 479.48 89.59L479.48 89.59Q479.62 89.62 479.75 89.69Q479.89 89.77 479.89 89.91L479.89 89.91Q479.89 90.02 479.76 90.05Q479.64 90.07 479.53 90.07L479.53 90.07Q479.17 90.07 479.01 90.05Q478.85 90.04 478.66 90.02Q478.47 90 478.02 90L478.02 90Q477.69 90 477.35 90.02Q477.01 90.04 476.70 90.04L476.70 90.04Q476.29 90.04 476.29 89.86L476.29 89.86Q476.29 89.69 476.41 89.62Q476.52 89.55 476.74 89.50L476.74 89.50Q476.94 89.44 477.09 89.34Q477.24 89.24 477.24 89.06L477.24 89.06Q477.24 88.99 477.22 88.91Q477.19 88.83 477.14 88.74L477.14 88.74L476.07 87.01Q476.02 86.96 475.97 87.01L475.97 87.01L474.78 88.79Q474.76 88.83 474.72 88.93Q474.69 89.03 474.69 89.14L474.69 89.14Q474.69 89.26 474.75 89.38Q474.81 89.50 474.94 89.53L474.94 89.53Q475.08 89.59 475.22 89.65Q475.35 89.71 475.35 89.86L475.35 89.86Q475.35 89.98 475.18 90Q475.01 90.02 474.94 90.02L474.94 90.02Q474.80 90.02 474.50 90Q474.20 89.98 473.99 89.98L473.99 89.98Q473.48 89.98 473.26 90.03Q473.03 90.07 472.78 90.07ZM480.66 92.65L480.66 92.65Q480.34 92.65 480.34 92.45L480.34 92.45Q480.34 92.38 480.40 92.31Q480.47 92.25 480.59 92.23L480.59 92.23Q480.99 92.14 481.38 91.93Q481.78 91.71 482.05 91.31Q482.32 90.90 482.32 90.27L482.32 90.27Q482.32 90.05 482.12 89.78Q481.92 89.50 481.62 89.48L481.62 89.48Q481.22 89.44 481.00 89.23Q480.77 89.01 480.77 88.72L480.77 88.72Q480.77 88.36 481.07 88.13Q481.37 87.89 481.76 87.89L481.76 87.89Q482.41 87.89 482.83 88.39Q483.26 88.88 483.26 89.64L483.26 89.64Q483.26 90.32 482.99 90.87Q482.72 91.42 482.30 91.82Q481.89 92.21 481.45 92.43Q481.01 92.65 480.66 92.65ZM491.57 90.09L491.57 90.09Q491.34 90.09 491.19 90.05Q491.05 90 491.05 89.89L491.05 89.89Q491.05 89.77 491.19 89.69Q491.34 89.62 491.64 89.57L491.64 89.57Q492.33 89.44 492.69 89.13Q493.05 88.81 493.05 88.16L493.05 88.16L493.05 81.18Q493.05 80.35 493.01 79.91Q492.98 79.47 492.90 79.29Q492.81 79.11 492.67 79.09L492.67 79.09Q492.42 79.04 492.14 79.03Q491.86 79.02 491.39 79.02L491.39 79.02L490.55 79.02Q490.11 79.02 489.69 79.19Q489.27 79.36 489.07 79.72L489.07 79.72Q489.02 79.81 488.89 79.98Q488.76 80.15 488.62 80.28Q488.48 80.41 488.33 80.41L488.33 80.41Q488.26 80.41 488.23 80.33Q488.21 80.26 488.21 80.17L488.21 80.17Q488.21 79.99 488.30 79.81L488.30 79.81Q488.55 79.29 488.67 78.88Q488.78 78.48 488.85 77.92L488.85 77.92Q488.89 77.62 488.99 77.56Q489.09 77.51 489.16 77.51L489.16 77.51Q489.23 77.51 489.39 77.72Q489.54 77.94 489.61 78.08L489.61 78.08Q489.72 78.26 490.11 78.35Q490.49 78.44 490.87 78.44L490.87 78.44L497.21 78.44Q497.84 78.44 498.23 78.37Q498.63 78.30 498.92 78.17L498.92 78.17Q499.13 78.07 499.27 77.94Q499.40 77.81 499.62 77.81L499.62 77.81Q499.67 77.81 499.71 77.95Q499.74 78.08 499.74 78.23L499.74 78.23Q499.74 78.32 499.72 78.48Q499.69 78.64 499.67 78.73L499.67 78.73Q499.62 79.06 499.57 79.20Q499.53 79.34 499.51 79.45Q499.49 79.56 499.49 79.79L499.49 79.79L499.49 80.01Q499.49 80.17 499.42 80.38Q499.35 80.59 499.20 80.59L499.20 80.59Q499.08 80.59 499.01 80.39Q498.93 80.19 498.86 79.85L498.86 79.85Q498.79 79.47 498.43 79.25Q498.07 79.02 497.21 79.02L497.21 79.02L495.39 79.02Q494.99 79.02 494.79 79.13Q494.60 79.24 494.54 79.67Q494.49 80.10 494.49 81.09L494.49 81.09L494.49 88.16Q494.49 88.81 494.87 89.13Q495.24 89.44 495.91 89.57L495.91 89.57Q496.22 89.62 496.36 89.69Q496.50 89.77 496.50 89.89L496.50 89.89Q496.50 90 496.36 90.05Q496.22 90.09 495.98 90.09L495.98 90.09Q495.50 90.09 495.18 90.06Q494.87 90.04 494.58 90.02Q494.29 90 493.88 90L493.88 90Q493.43 90 493.09 90.02Q492.76 90.04 492.41 90.06Q492.06 90.09 491.57 90.09ZM501.89 90.25L501.89 90.25Q501.56 90.25 501.23 90Q500.90 89.75 500.67 89.39Q500.45 89.03 500.45 88.70L500.45 88.70Q500.45 88.13 500.75 87.80Q501.06 87.48 501.72 87.21L501.72 87.21L503.56 86.45Q503.92 86.31 503.98 86.20Q504.05 86.09 504.06 85.73L504.06 85.73L504.10 84.58Q504.12 84.11 503.84 83.77Q503.56 83.43 503.04 83.43L503.04 83.43Q502.77 83.43 502.50 83.52Q502.23 83.61 502.05 83.75L502.05 83.75Q501.94 83.83 501.90 83.97Q501.87 84.11 501.87 84.28L501.87 84.28Q501.87 84.35 501.88 84.44Q501.89 84.53 501.89 84.60L501.89 84.60Q501.89 84.69 501.66 84.84Q501.44 85.00 501.16 85.11Q500.88 85.23 500.70 85.23L500.70 85.23Q500.61 85.23 500.55 85.19Q500.50 85.14 500.50 85.07L500.50 85.07Q500.50 84.78 500.69 84.45Q500.88 84.11 501.22 83.83L501.22 83.83Q501.63 83.45 502.12 83.16Q502.61 82.87 503.07 82.71Q503.54 82.55 503.90 82.55L503.90 82.55Q504.55 82.55 504.97 83.01Q505.40 83.47 505.38 84.15L505.38 84.15L505.29 88.47Q505.27 88.85 505.46 89.08Q505.65 89.32 505.94 89.32L505.94 89.32Q506.39 89.32 506.60 89.12L506.60 89.12Q506.69 89.03 506.75 89.03L506.75 89.03Q506.84 89.03 506.89 89.08Q506.94 89.14 506.94 89.23L506.94 89.23Q506.94 89.42 506.75 89.62L506.75 89.62Q506.46 89.91 506.13 90.08Q505.79 90.25 505.50 90.25L505.50 90.25Q504.68 90.25 504.19 89.32L504.19 89.32L504.14 89.32Q503.54 89.80 503.00 90.03Q502.46 90.25 501.89 90.25ZM502.73 89.39L502.73 89.39Q503.09 89.39 503.34 89.27Q503.60 89.15 503.79 88.96L503.79 88.96Q503.88 88.87 503.95 88.71Q504.01 88.56 504.03 88.22L504.03 88.22L504.06 87.34Q504.08 87.14 504.05 87.05Q504.01 86.96 503.90 86.96L503.90 86.96Q503.87 86.96 503.78 86.98Q503.69 86.99 503.54 87.05L503.54 87.05Q502.59 87.39 502.22 87.76Q501.85 88.13 501.85 88.43L501.85 88.43Q501.85 88.90 502.13 89.14Q502.41 89.39 502.73 89.39ZM507.75 90.05L507.75 90.05Q507.59 90.05 507.49 90.01Q507.39 89.96 507.39 89.86L507.39 89.86Q507.39 89.71 507.53 89.66Q507.66 89.60 507.81 89.57L507.81 89.57Q508.19 89.48 508.38 89.34Q508.58 89.21 508.58 88.88L508.58 88.88L508.58 84.98Q508.58 84.49 508.41 84.11Q508.24 83.74 507.77 83.66L507.77 83.66Q507.68 83.65 507.64 83.59Q507.59 83.54 507.59 83.43L507.59 83.43Q507.59 83.23 507.75 83.21L507.75 83.21Q508.47 83.05 508.94 82.77Q509.41 82.49 509.64 82.31L509.64 82.31Q509.81 82.19 509.90 82.19L509.90 82.19Q510.00 82.19 510.00 82.28L510.00 82.28Q510.00 82.42 509.96 82.84Q509.91 83.27 509.88 83.78Q509.84 84.29 509.84 84.71L509.84 84.71L509.84 88.88Q509.84 89.19 510.05 89.33Q510.26 89.48 510.62 89.57L510.62 89.57Q510.76 89.60 510.90 89.66Q511.03 89.71 511.03 89.86L511.03 89.86Q511.03 90.05 510.67 90.05L510.67 90.05Q510.33 90.05 510.12 90.03Q509.91 90 509.73 89.98Q509.54 89.96 509.21 89.96L509.21 89.96Q508.91 89.96 508.71 89.98Q508.51 90 508.31 90.03Q508.11 90.05 507.75 90.05ZM509.19 80.71L509.19 80.71Q508.82 80.71 508.56 80.45Q508.29 80.19 508.29 79.81L508.29 79.81Q508.29 79.42 508.56 79.16Q508.82 78.89 509.19 78.89L509.19 78.89Q509.59 78.89 509.85 79.16Q510.11 79.42 510.11 79.81L510.11 79.81Q510.11 80.19 509.85 80.45Q509.59 80.71 509.19 80.71ZM512.07 90.05L512.07 90.05Q511.98 90.05 511.85 90.03Q511.71 90 511.71 89.89L511.71 89.89Q511.71 89.75 511.85 89.69Q511.98 89.62 512.13 89.57L512.13 89.57Q512.40 89.48 512.65 89.36Q512.90 89.24 512.90 88.88L512.90 88.88L512.90 79.81Q512.90 79.29 512.71 78.94Q512.52 78.59 512.07 78.50L512.07 78.50Q511.93 78.46 511.93 78.26L511.93 78.26Q511.93 78.08 512.06 78.05L512.06 78.05Q512.52 77.94 512.87 77.82Q513.21 77.71 513.51 77.58Q513.80 77.45 514.09 77.35L514.09 77.35Q514.16 77.31 514.20 77.31L514.20 77.31Q514.23 77.31 514.26 77.36Q514.29 77.40 514.29 77.44L514.29 77.44Q514.29 77.60 514.23 78.13Q514.16 78.66 514.16 79.88L514.16 79.88L514.16 88.88Q514.16 89.24 514.41 89.36Q514.67 89.48 514.94 89.57L514.94 89.57Q515.08 89.62 515.22 89.69Q515.35 89.75 515.35 89.89L515.35 89.89Q515.35 90 515.22 90.03Q515.08 90.05 514.99 90.05L514.99 90.05Q514.65 90.05 514.44 90.03Q514.23 90 514.05 89.98Q513.86 89.96 513.53 89.96L513.53 89.96Q513.23 89.96 513.03 89.98Q512.83 90 512.63 90.03Q512.43 90.05 512.07 90.05ZM519.76 90.41L519.76 90.41Q519.72 90.41 519.69 90.38Q519.65 90.34 519.63 90.29L519.63 90.29L517.13 84.08Q517.01 83.72 516.74 83.49Q516.47 83.27 516.20 83.20L516.20 83.20Q516.05 83.14 515.92 83.07Q515.78 83.00 515.78 82.87L515.78 82.87Q515.78 82.76 515.92 82.74Q516.05 82.71 516.14 82.71L516.14 82.71Q516.38 82.71 516.58 82.73Q516.79 82.75 517.01 82.77Q517.22 82.80 517.46 82.80L517.46 82.80Q517.71 82.80 517.96 82.77Q518.21 82.75 518.46 82.73Q518.70 82.71 518.95 82.71L518.95 82.71Q519.02 82.71 519.17 82.74Q519.31 82.76 519.31 82.87L519.31 82.87Q519.31 83.00 519.18 83.07Q519.04 83.14 518.90 83.20L518.90 83.20Q518.72 83.25 518.62 83.46Q518.52 83.66 518.52 83.92L518.52 83.92Q518.52 84.15 518.61 84.38L518.61 84.38L520.01 88.00Q520.03 88.07 520.10 88.07L520.10 88.07Q520.17 88.07 520.19 88.00L520.19 88.00L521.42 85.09Q521.51 84.85 521.53 84.64Q521.56 84.42 521.56 84.22L521.56 84.22Q521.56 83.83 521.25 83.57Q520.95 83.32 520.64 83.20L520.64 83.20Q520.50 83.14 520.36 83.07Q520.23 83.00 520.23 82.87L520.23 82.87Q520.23 82.76 520.35 82.74Q520.48 82.71 520.59 82.71L520.59 82.71Q520.84 82.71 521.14 82.75Q521.43 82.80 521.94 82.80L521.94 82.80Q522.44 82.80 522.80 82.75Q523.16 82.71 523.45 82.71L523.45 82.71Q523.54 82.71 523.68 82.74Q523.81 82.76 523.81 82.87L523.81 82.87Q523.81 83.00 523.68 83.07Q523.54 83.14 523.40 83.20L523.40 83.20Q523.20 83.27 522.99 83.39Q522.78 83.52 522.78 83.84L522.78 83.84Q522.78 83.95 522.81 84.09Q522.84 84.22 522.91 84.38L522.91 84.38L524.26 87.86Q524.35 88.06 524.40 88.06L524.40 88.06Q524.48 88.06 524.55 87.88L524.55 87.88L525.92 84.69Q525.99 84.55 526.02 84.33Q526.04 84.11 526.04 83.99L526.04 83.99Q526.04 83.66 525.83 83.47Q525.61 83.27 525.41 83.20L525.41 83.20Q525.27 83.14 525.13 83.07Q525.00 83.00 525.00 82.87L525.00 82.87Q525.00 82.76 525.13 82.74Q525.27 82.71 525.36 82.71L525.36 82.71Q525.75 82.71 525.99 82.75Q526.22 82.80 526.71 82.80L526.71 82.80Q527.05 82.80 527.19 82.77Q527.34 82.75 527.45 82.73Q527.55 82.71 527.75 82.71L527.75 82.71Q527.86 82.71 527.99 82.74Q528.11 82.76 528.11 82.87L528.11 82.87Q528.11 83.00 527.98 83.07Q527.84 83.14 527.70 83.20L527.70 83.20Q527.43 83.27 527.18 83.62Q526.92 83.97 526.74 84.38L526.74 84.38L524.28 90.29Q524.22 90.41 524.12 90.41L524.12 90.41Q524.04 90.41 523.97 90.29L523.97 90.29L522.10 85.64Q522.05 85.50 521.99 85.48L521.99 85.48Q521.94 85.48 521.87 85.66L521.87 85.66L519.90 90.29Q519.85 90.41 519.76 90.41ZM528.81 90.05L528.81 90.05Q528.65 90.05 528.55 90.01Q528.45 89.96 528.45 89.86L528.45 89.86Q528.45 89.71 528.59 89.66Q528.72 89.60 528.87 89.57L528.87 89.57Q529.25 89.48 529.44 89.34Q529.64 89.21 529.64 88.88L529.64 88.88L529.64 84.98Q529.64 84.49 529.47 84.11Q529.30 83.74 528.83 83.66L528.83 83.66Q528.74 83.65 528.70 83.59Q528.65 83.54 528.65 83.43L528.65 83.43Q528.65 83.23 528.81 83.21L528.81 83.21Q529.53 83.05 530.00 82.77Q530.47 82.49 530.70 82.31L530.70 82.31Q530.87 82.19 530.96 82.19L530.96 82.19Q531.06 82.19 531.06 82.28L531.06 82.28Q531.06 82.42 531.02 82.84Q530.97 83.27 530.94 83.78Q530.90 84.29 530.90 84.71L530.90 84.71L530.90 88.88Q530.90 89.19 531.11 89.33Q531.32 89.48 531.68 89.57L531.68 89.57Q531.82 89.60 531.96 89.66Q532.09 89.71 532.09 89.86L532.09 89.86Q532.09 90.05 531.73 90.05L531.73 90.05Q531.39 90.05 531.18 90.03Q530.97 90 530.79 89.98Q530.60 89.96 530.27 89.96L530.27 89.96Q529.97 89.96 529.77 89.98Q529.57 90 529.37 90.03Q529.17 90.05 528.81 90.05ZM530.25 80.71L530.25 80.71Q529.88 80.71 529.62 80.45Q529.35 80.19 529.35 79.81L529.35 79.81Q529.35 79.42 529.62 79.16Q529.88 78.89 530.25 78.89L530.25 78.89Q530.65 78.89 530.91 79.16Q531.17 79.42 531.17 79.81L531.17 79.81Q531.17 80.19 530.91 80.45Q530.65 80.71 530.25 80.71ZM533.22 90.05L533.22 90.05Q533.06 90.05 532.96 90.01Q532.86 89.96 532.86 89.86L532.86 89.86Q532.86 89.71 532.97 89.67Q533.08 89.62 533.28 89.57L533.28 89.57Q533.55 89.50 533.80 89.37Q534.05 89.24 534.05 88.88L534.05 88.88L534.05 85.01Q534.05 84.53 533.95 84.19Q533.85 83.84 533.39 83.72L533.39 83.72Q533.31 83.68 533.26 83.64Q533.21 83.59 533.21 83.48L533.21 83.48Q533.21 83.29 533.37 83.27L533.37 83.27Q534.00 83.11 534.39 82.87Q534.79 82.64 535.17 82.35L535.17 82.35Q535.22 82.31 535.27 82.29Q535.31 82.26 535.37 82.26L535.37 82.26Q535.40 82.26 535.43 82.30Q535.46 82.33 535.46 82.39L535.46 82.39Q535.46 82.51 535.41 82.90Q535.37 83.29 535.37 83.54L535.37 83.54Q535.37 83.61 535.38 83.67Q535.38 83.74 535.40 83.75L535.40 83.75Q536.03 83.16 536.74 82.85Q537.45 82.55 538.30 82.55L538.30 82.55Q539.18 82.55 539.76 83.27Q540.33 83.99 540.33 85.05L540.33 85.05L540.33 88.88Q540.33 89.24 540.59 89.36Q540.84 89.48 541.11 89.57L541.11 89.57Q541.25 89.62 541.39 89.69Q541.52 89.75 541.52 89.89L541.52 89.89Q541.52 90 541.40 90.03Q541.27 90.05 541.16 90.05L541.16 90.05Q540.80 90.05 540.60 90.03Q540.41 90 540.23 89.98Q540.05 89.96 539.72 89.96L539.72 89.96Q539.42 89.96 539.22 89.98Q539.02 90 538.81 90.03Q538.61 90.05 538.25 90.05L538.25 90.05Q538.16 90.05 538.02 90.03Q537.89 90 537.89 89.89L537.89 89.89Q537.89 89.75 538.02 89.69Q538.16 89.62 538.30 89.57L538.30 89.57Q538.57 89.48 538.82 89.36Q539.07 89.24 539.07 88.88L539.07 88.88L539.07 85.10Q539.07 84.31 538.63 83.87Q538.19 83.43 537.45 83.41L537.45 83.41Q536.81 83.41 536.32 83.62Q535.83 83.83 535.46 84.13L535.46 84.13Q535.38 84.20 535.35 84.32Q535.31 84.44 535.31 84.55L535.31 84.55L535.31 88.88Q535.31 89.24 535.56 89.37Q535.82 89.50 536.09 89.57L536.09 89.57Q536.50 89.68 536.50 89.86L536.50 89.86Q536.50 89.96 536.41 90.01Q536.32 90.05 536.14 90.05L536.14 90.05Q535.78 90.05 535.57 90.03Q535.37 90 535.19 89.98Q535.01 89.96 534.68 89.96L534.68 89.96Q534.38 89.96 534.19 89.98Q534.00 90 533.79 90.03Q533.58 90.05 533.22 90.05ZM548.36 90.34L548.36 90.34Q548.33 90.34 548.25 90.27Q548.16 90.20 548.16 90.16L548.16 90.16Q548.16 89.98 548.21 89.65Q548.25 89.32 548.25 89.08L548.25 89.08L548.25 88.97Q547.98 89.39 547.39 89.82Q546.80 90.25 545.90 90.25L545.90 90.25Q544.87 90.25 544.12 89.71Q543.38 89.17 542.97 88.33Q542.57 87.48 542.57 86.58L542.57 86.58Q542.57 85.54 543.05 84.62Q543.54 83.70 544.45 83.12Q545.36 82.55 546.62 82.55L546.62 82.55Q546.98 82.55 547.35 82.61Q547.71 82.67 547.91 82.75L547.91 82.75Q548.07 82.80 548.15 82.80L548.15 82.80Q548.27 82.80 548.27 82.37L548.27 82.37L548.27 79.81Q548.27 79.07 548.04 78.82Q547.80 78.57 547.37 78.50L547.37 78.50Q547.21 78.46 547.21 78.26L547.21 78.26Q547.21 78.10 547.35 78.05L547.35 78.05Q548.15 77.85 548.60 77.67Q549.05 77.49 549.30 77.38L549.30 77.38Q549.37 77.35 549.43 77.34Q549.50 77.33 549.53 77.33L549.53 77.33Q549.64 77.33 549.66 77.44L549.66 77.44Q549.66 77.54 549.63 77.80Q549.60 78.07 549.57 78.57Q549.53 79.07 549.53 79.88L549.53 79.88L549.53 88.02Q549.53 88.63 549.62 88.91Q549.71 89.19 549.91 89.19L549.91 89.19Q550.00 89.19 550.23 89.17Q550.45 89.15 550.68 89.14L550.68 89.14Q551.01 89.12 551.01 89.30L551.01 89.30Q551.01 89.42 550.93 89.52Q550.85 89.62 550.76 89.62L550.76 89.62Q550.25 89.69 549.77 89.83Q549.28 89.96 548.65 90.23L548.65 90.23Q548.51 90.31 548.46 90.32Q548.42 90.34 548.36 90.34ZM546.54 89.32L546.54 89.32Q547.01 89.32 547.46 89.07Q547.91 88.83 548.25 88.43L548.25 88.43L548.27 85.19Q548.27 84.71 547.99 84.24Q547.71 83.77 547.22 83.47Q546.72 83.18 546.06 83.18L546.06 83.18Q545.64 83.18 545.12 83.43Q544.60 83.68 544.22 84.32Q543.84 84.96 543.84 86.17L543.84 86.17Q543.84 87.19 544.15 87.81Q544.46 88.43 544.90 88.76Q545.34 89.08 545.80 89.20Q546.26 89.32 546.54 89.32ZM561.97 90.27L561.97 90.27Q560.71 90.27 559.54 89.84Q558.37 89.41 557.45 88.61Q556.53 87.80 556.00 86.68Q555.47 85.55 555.47 84.19L555.47 84.19Q555.47 82.87 556.03 81.76Q556.59 80.64 557.56 79.81Q558.53 78.98 559.78 78.53Q561.03 78.07 562.42 78.07L562.42 78.07Q563.12 78.07 563.61 78.12Q564.09 78.17 564.55 78.27Q565.01 78.37 565.62 78.53L565.62 78.53Q565.89 78.61 566.01 78.75Q566.13 78.89 566.15 79.15L566.15 79.15Q566.18 79.56 566.24 80.04Q566.29 80.51 566.31 81.22L566.31 81.22Q566.33 81.34 566.19 81.42Q566.06 81.50 565.90 81.47Q565.75 81.43 565.70 81.23L565.70 81.23Q565.52 80.55 565.28 80.06Q565.05 79.56 564.58 79.24L564.58 79.24Q564.13 78.93 563.49 78.78Q562.85 78.62 562.11 78.62L562.11 78.62Q561.07 78.62 560.18 79.05Q559.29 79.47 558.65 80.20Q558.01 80.93 557.65 81.85Q557.29 82.76 557.29 83.75L557.29 83.75Q557.29 84.85 557.64 85.91Q557.99 86.98 558.65 87.83Q559.31 88.69 560.22 89.20Q561.12 89.71 562.24 89.71L562.24 89.71Q563.54 89.71 564.38 89.12Q565.23 88.52 565.82 87.46L565.82 87.46Q565.95 87.23 566.19 87.23Q566.43 87.23 566.43 87.52L566.43 87.52Q566.43 87.66 566.36 87.97Q566.29 88.29 566.17 88.64Q566.06 88.99 565.95 89.26L565.95 89.26Q565.82 89.51 565.74 89.59Q565.66 89.66 565.37 89.75L565.37 89.75Q564.71 90.02 563.78 90.14Q562.85 90.27 561.97 90.27ZM571.10 90.29L571.10 90.29Q570.34 90.29 569.70 90.06Q569.06 89.84 568.56 89.42L568.56 89.42Q568.49 89.35 568.42 89.26Q568.36 89.17 568.32 89.06L568.32 89.06Q568.23 88.70 568.21 88.13Q568.18 87.55 568.14 87.17L568.14 87.17Q568.14 87.05 568.25 86.98Q568.36 86.92 568.50 86.92L568.50 86.92Q568.59 86.92 568.68 86.97Q568.77 87.01 568.79 87.12L568.79 87.12Q569.15 88.51 569.86 89.10Q570.57 89.69 571.35 89.69L571.35 89.69Q571.98 89.69 572.46 89.42Q572.95 89.15 573.23 88.66Q573.51 88.16 573.51 87.50L573.51 87.50Q573.51 86.76 573.27 86.30Q573.02 85.84 572.57 85.50Q572.12 85.16 571.47 84.76L571.47 84.76Q570.77 84.31 570.09 83.85Q569.40 83.39 568.95 82.79Q568.50 82.19 568.50 81.32L568.50 81.32Q568.50 80.41 568.92 79.67Q569.33 78.93 570.17 78.49Q571.01 78.05 572.27 78.05L572.27 78.05Q572.91 78.05 573.39 78.18Q573.87 78.32 574.16 78.44L574.16 78.44Q574.30 78.50 574.40 78.62Q574.50 78.75 574.53 78.89L574.53 78.89Q574.64 79.27 574.77 79.76Q574.89 80.24 574.89 80.68L574.89 80.68Q574.89 80.87 574.62 80.87L574.62 80.87Q574.46 80.87 574.31 80.80Q574.16 80.73 574.12 80.62L574.12 80.62Q573.74 79.67 573.24 79.16Q572.73 78.66 571.96 78.66L571.96 78.66Q571.42 78.66 570.95 78.86Q570.48 79.06 570.19 79.51Q569.89 79.96 569.89 80.71L569.89 80.71Q569.89 81.25 570.24 81.69Q570.59 82.13 571.17 82.53Q571.74 82.93 572.41 83.34L572.41 83.34Q573.04 83.72 573.64 84.17Q574.25 84.62 574.63 85.24Q575.02 85.86 575.02 86.76L575.02 86.76Q575.02 87.82 574.53 88.62Q574.05 89.42 573.17 89.86Q572.28 90.29 571.10 90.29ZM579.47 90.29L579.47 90.29Q578.71 90.29 578.07 90.06Q577.43 89.84 576.93 89.42L576.93 89.42Q576.86 89.35 576.79 89.26Q576.73 89.17 576.69 89.06L576.69 89.06Q576.60 88.70 576.58 88.13Q576.55 87.55 576.51 87.17L576.51 87.17Q576.51 87.05 576.62 86.98Q576.73 86.92 576.87 86.92L576.87 86.92Q576.96 86.92 577.05 86.97Q577.14 87.01 577.16 87.12L577.16 87.12Q577.52 88.51 578.23 89.10Q578.94 89.69 579.72 89.69L579.72 89.69Q580.35 89.69 580.83 89.42Q581.32 89.15 581.60 88.66Q581.88 88.16 581.88 87.50L581.88 87.50Q581.88 86.76 581.64 86.30Q581.39 85.84 580.94 85.50Q580.49 85.16 579.84 84.76L579.84 84.76Q579.14 84.31 578.46 83.85Q577.77 83.39 577.32 82.79Q576.87 82.19 576.87 81.32L576.87 81.32Q576.87 80.41 577.29 79.67Q577.70 78.93 578.54 78.49Q579.38 78.05 580.64 78.05L580.64 78.05Q581.28 78.05 581.76 78.18Q582.24 78.32 582.53 78.44L582.53 78.44Q582.67 78.50 582.77 78.62Q582.87 78.75 582.90 78.89L582.90 78.89Q583.01 79.27 583.14 79.76Q583.26 80.24 583.26 80.68L583.26 80.68Q583.26 80.87 582.99 80.87L582.99 80.87Q582.83 80.87 582.68 80.80Q582.53 80.73 582.49 80.62L582.49 80.62Q582.11 79.67 581.61 79.16Q581.10 78.66 580.33 78.66L580.33 78.66Q579.79 78.66 579.32 78.86Q578.85 79.06 578.56 79.51Q578.26 79.96 578.26 80.71L578.26 80.71Q578.26 81.25 578.61 81.69Q578.96 82.13 579.54 82.53Q580.11 82.93 580.78 83.34L580.78 83.34Q581.41 83.72 582.01 84.17Q582.62 84.62 583.00 85.24Q583.39 85.86 583.39 86.76L583.39 86.76Q583.39 87.82 582.90 88.62Q582.42 89.42 581.54 89.86Q580.65 90.29 579.47 90.29Z"/>
  </svg>