<svg viewBox="0 0 800 150" width="100%" xmlns="http://www.w3.org/2000/svg">
    <rect width="800" height="150" fill="#0d1117" rx="8" />
    <rect width="800" height="150" fill="none" stroke="#94a3b8" stroke-width="2" stroke-opacity="0.2" rx="8" />
    
      <g transform="translate(150, 75)">
        <animateTransform attributeName="transform" type="rotate" from="0 0 0" to="360 0 0" dur="35s" repeatCount="indefinite" />
        <path d="M0,-60L51.962,-30L51.962,30L0,60L-51.962,30L-51.962,-30Z" fill="none" stroke="#94a3b8" stroke-width="1.5" opacity="0.6" />
        <path d="M24,-41.569L48,0L24,41.569L-24,41.569L-48,0L-24,-41.569Z" fill="none" stroke="#94a3b8" stroke-width="1.5" opacity="0.6" />
        <circle r="36" fill="none" stroke="#94a3b8" stroke-width="2" opacity="0.5" stroke-dasharray="8 4" />
        <circle r="12" fill="#94a3b8" opacity="0.7" />
      </g>
      <!-- Small interlocked gear -->
      <g transform="translate(216, 105)">
        <animateTransform attributeName="transform" type="rotate" from="360 0 0" to="0 0 0" dur="20s" repeatCount="indefinite" />
        <path d="M0,-24L20.785,-12L20.785,12L0,24L-20.785,12L-20.785,-12Z" fill="none" stroke="#94a3b8" stroke-width="1.5" opacity="0.8" />
        <circle r="12" fill="none" stroke="#94a3b8" stroke-width="1" opacity="0.8" />
      </g>
    
    <path fill="#e2e8f0" d="M286.85 50.16L286.85 50.16Q286.43 50.16 286.18 50.08Q285.92 50 285.92 49.81L285.92 49.81Q285.92 49.58 286.18 49.46Q286.43 49.33 286.98 49.23L286.98 49.23Q288.19 49.01 288.83 48.45Q289.47 47.89 289.47 46.74L289.47 46.74L289.47 34.32Q289.47 32.85 289.41 32.06Q289.34 31.28 289.20 30.96Q289.06 30.64 288.80 30.61L288.80 30.61Q288.35 30.51 287.86 30.50Q287.36 30.48 286.53 30.48L286.53 30.48L285.02 30.48Q284.26 30.48 283.50 30.78Q282.75 31.09 282.40 31.73L282.40 31.73Q282.30 31.89 282.08 32.19Q281.86 32.50 281.60 32.72Q281.34 32.94 281.09 32.94L281.09 32.94Q280.96 32.94 280.91 32.82Q280.86 32.69 280.86 32.53L280.86 32.53Q280.86 32.21 281.02 31.89L281.02 31.89Q281.47 30.96 281.68 30.24Q281.89 29.52 282.02 28.53L282.02 28.53Q282.08 27.98 282.26 27.89Q282.43 27.79 282.56 27.79L282.56 27.79Q282.69 27.79 282.96 28.18Q283.23 28.56 283.36 28.82L283.36 28.82Q283.55 29.14 284.24 29.30Q284.93 29.46 285.60 29.46L285.60 29.46L296.86 29.46Q297.98 29.46 298.69 29.33Q299.39 29.20 299.90 28.98L299.90 28.98Q300.29 28.78 300.53 28.56Q300.77 28.34 301.15 28.34L301.15 28.34Q301.25 28.34 301.31 28.58Q301.38 28.82 301.38 29.07L301.38 29.07Q301.38 29.23 301.33 29.52Q301.28 29.81 301.25 29.97L301.25 29.97Q301.15 30.54 301.07 30.80Q300.99 31.06 300.96 31.25Q300.93 31.44 300.93 31.86L300.93 31.86L300.93 32.24Q300.93 32.53 300.80 32.90Q300.67 33.26 300.42 33.26L300.42 33.26Q300.19 33.26 300.06 32.91Q299.94 32.56 299.81 31.95L299.81 31.95Q299.68 31.28 299.04 30.88Q298.40 30.48 296.86 30.48L296.86 30.48L293.63 30.48Q292.93 30.48 292.58 30.67Q292.22 30.86 292.13 31.63Q292.03 32.40 292.03 34.16L292.03 34.16L292.03 46.74Q292.03 47.89 292.70 48.45Q293.38 49.01 294.56 49.23L294.56 49.23Q295.10 49.33 295.36 49.46Q295.62 49.58 295.62 49.81L295.62 49.81Q295.62 50 295.36 50.08Q295.10 50.16 294.69 50.16L294.69 50.16Q293.82 50.16 293.26 50.11Q292.70 50.06 292.19 50.03Q291.68 50 290.94 50L290.94 50Q290.14 50 289.55 50.03Q288.96 50.06 288.34 50.11Q287.71 50.16 286.85 50.16ZM308.93 50.45L308.93 50.45Q307.14 50.45 305.70 49.62Q304.26 48.78 303.41 47.33Q302.56 45.87 302.56 44.02L302.56 44.02Q302.56 42.67 303.09 41.39Q303.62 40.11 304.58 39.06Q305.54 38 306.82 37.38Q308.10 36.75 309.57 36.75L309.57 36.75Q311.42 36.75 312.91 37.65Q314.40 38.54 315.28 40Q316.16 41.46 316.16 43.18L316.16 43.18Q316.16 45.04 315.34 46.70Q314.53 48.37 312.93 49.41Q311.33 50.45 308.93 50.45ZM309.60 49.49L309.60 49.49Q310.69 49.49 311.55 49.07Q312.42 48.66 312.90 47.73L312.90 47.73Q313.28 46.99 313.41 45.94Q313.54 44.88 313.54 43.95L313.54 43.95Q313.54 42.42 312.98 40.99Q312.42 39.57 311.41 38.66Q310.40 37.74 309.02 37.74L309.02 37.74Q308.16 37.74 307.47 38.02Q306.78 38.29 306.21 39.02L306.21 39.02Q305.57 39.82 305.38 40.98Q305.18 42.13 305.18 43.28L305.18 43.28Q305.18 44.85 305.76 46.27Q306.34 47.70 307.33 48.59Q308.32 49.49 309.60 49.49ZM324.77 50.45L324.77 50.45Q322.98 50.45 321.54 49.62Q320.10 48.78 319.25 47.33Q318.40 45.87 318.40 44.02L318.40 44.02Q318.40 42.67 318.93 41.39Q319.46 40.11 320.42 39.06Q321.38 38 322.66 37.38Q323.94 36.75 325.41 36.75L325.41 36.75Q327.26 36.75 328.75 37.65Q330.24 38.54 331.12 40Q332 41.46 332 43.18L332 43.18Q332 45.04 331.18 46.70Q330.37 48.37 328.77 49.41Q327.17 50.45 324.77 50.45ZM325.44 49.49L325.44 49.49Q326.53 49.49 327.39 49.07Q328.26 48.66 328.74 47.73L328.74 47.73Q329.12 46.99 329.25 45.94Q329.38 44.88 329.38 43.95L329.38 43.95Q329.38 42.42 328.82 40.99Q328.26 39.57 327.25 38.66Q326.24 37.74 324.86 37.74L324.86 37.74Q324 37.74 323.31 38.02Q322.62 38.29 322.05 39.02L322.05 39.02Q321.41 39.82 321.22 40.98Q321.02 42.13 321.02 43.28L321.02 43.28Q321.02 44.85 321.60 46.27Q322.18 47.70 323.17 48.59Q324.16 49.49 325.44 49.49ZM334.37 50.10L334.37 50.10Q334.21 50.10 333.97 50.05Q333.73 50 333.73 49.81L333.73 49.81Q333.73 49.55 333.97 49.44Q334.21 49.33 334.46 49.23L334.46 49.23Q334.94 49.07 335.39 48.86Q335.84 48.66 335.84 48.02L335.84 48.02L335.84 31.89Q335.84 30.96 335.50 30.34Q335.17 29.71 334.37 29.55L334.37 29.55Q334.11 29.49 334.11 29.14L334.11 29.14Q334.11 28.82 334.34 28.75L334.34 28.75Q335.17 28.56 335.78 28.35Q336.38 28.14 336.91 27.92Q337.44 27.70 337.95 27.50L337.95 27.50Q338.08 27.44 338.14 27.44L338.14 27.44Q338.21 27.44 338.26 27.52Q338.30 27.60 338.30 27.66L338.30 27.66Q338.30 27.95 338.19 28.90Q338.08 29.84 338.08 32.02L338.08 32.02L338.08 48.02Q338.08 48.66 338.53 48.86Q338.98 49.07 339.46 49.23L339.46 49.23Q339.71 49.33 339.95 49.44Q340.19 49.55 340.19 49.81L340.19 49.81Q340.19 50 339.95 50.05Q339.71 50.10 339.55 50.10L339.55 50.10Q338.94 50.10 338.58 50.05Q338.21 50 337.87 49.97Q337.54 49.94 336.96 49.94L336.96 49.94Q336.42 49.94 336.06 49.97Q335.71 50 335.36 50.05Q335.01 50.10 334.37 50.10ZM342.21 50.10L342.21 50.10Q341.92 50.10 341.74 50.02Q341.57 49.94 341.57 49.74L341.57 49.74Q341.57 49.49 341.81 49.39Q342.05 49.30 342.30 49.23L342.30 49.23Q342.98 49.07 343.33 48.83Q343.68 48.59 343.68 48.02L343.68 48.02L343.68 41.07Q343.68 40.21 343.38 39.54Q343.07 38.86 342.24 38.74L342.24 38.74Q342.08 38.70 342.00 38.61Q341.92 38.51 341.92 38.32L341.92 38.32Q341.92 37.97 342.21 37.94L342.21 37.94Q343.49 37.65 344.32 37.15Q345.15 36.66 345.57 36.34L345.57 36.34Q345.86 36.11 346.02 36.11L346.02 36.11Q346.21 36.11 346.21 36.27L346.21 36.27Q346.21 36.53 346.13 37.28Q346.05 38.03 345.98 38.94Q345.92 39.86 345.92 40.59L345.92 40.59L345.92 48.02Q345.92 48.56 346.29 48.82Q346.66 49.07 347.30 49.23L347.30 49.23Q347.55 49.30 347.79 49.39Q348.03 49.49 348.03 49.74L348.03 49.74Q348.03 50.10 347.39 50.10L347.39 50.10Q346.78 50.10 346.42 50.05Q346.05 50 345.71 49.97Q345.38 49.94 344.80 49.94L344.80 49.94Q344.26 49.94 343.90 49.97Q343.55 50 343.20 50.05Q342.85 50.10 342.21 50.10ZM344.77 33.49L344.77 33.49Q344.10 33.49 343.63 33.02Q343.17 32.56 343.17 31.89L343.17 31.89Q343.17 31.18 343.63 30.72Q344.10 30.26 344.77 30.26L344.77 30.26Q345.47 30.26 345.94 30.72Q346.40 31.18 346.40 31.89L346.40 31.89Q346.40 32.56 345.94 33.02Q345.47 33.49 344.77 33.49ZM350.05 50.10L350.05 50.10Q349.76 50.10 349.58 50.02Q349.41 49.94 349.41 49.74L349.41 49.74Q349.41 49.49 349.60 49.41Q349.79 49.33 350.14 49.23L350.14 49.23Q350.62 49.10 351.07 48.88Q351.52 48.66 351.52 48.02L351.52 48.02L351.52 41.14Q351.52 40.27 351.34 39.66Q351.17 39.06 350.34 38.83L350.34 38.83Q350.21 38.77 350.11 38.69Q350.02 38.61 350.02 38.42L350.02 38.42Q350.02 38.06 350.30 38.03L350.30 38.03Q351.42 37.74 352.13 37.33Q352.83 36.91 353.50 36.40L353.50 36.40Q353.60 36.34 353.68 36.29Q353.76 36.24 353.86 36.24L353.86 36.24Q353.92 36.24 353.97 36.30Q354.02 36.37 354.02 36.46L354.02 36.46Q354.02 36.69 353.94 37.38Q353.86 38.06 353.86 38.51L353.86 38.51Q353.86 38.64 353.87 38.75Q353.89 38.86 353.92 38.90L353.92 38.90Q355.04 37.84 356.30 37.30Q357.57 36.75 359.07 36.75L359.07 36.75Q360.64 36.75 361.66 38.03Q362.69 39.31 362.69 41.20L362.69 41.20L362.69 48.02Q362.69 48.66 363.14 48.86Q363.58 49.07 364.06 49.23L364.06 49.23Q364.32 49.33 364.56 49.44Q364.80 49.55 364.80 49.81L364.80 49.81Q364.80 50 364.58 50.05Q364.35 50.10 364.16 50.10L364.16 50.10Q363.52 50.10 363.17 50.05Q362.82 50 362.50 49.97Q362.18 49.94 361.60 49.94L361.60 49.94Q361.06 49.94 360.70 49.97Q360.35 50 359.98 50.05Q359.62 50.10 358.98 50.10L358.98 50.10Q358.82 50.10 358.58 50.05Q358.34 50 358.34 49.81L358.34 49.81Q358.34 49.55 358.58 49.44Q358.82 49.33 359.07 49.23L359.07 49.23Q359.55 49.07 360.00 48.86Q360.45 48.66 360.45 48.02L360.45 48.02L360.45 41.30Q360.45 39.89 359.66 39.10Q358.88 38.32 357.57 38.29L357.57 38.29Q356.42 38.29 355.55 38.66Q354.69 39.02 354.02 39.57L354.02 39.57Q353.89 39.70 353.82 39.90Q353.76 40.11 353.76 40.30L353.76 40.30L353.76 48.02Q353.76 48.66 354.21 48.88Q354.66 49.10 355.14 49.23L355.14 49.23Q355.87 49.42 355.87 49.74L355.87 49.74Q355.87 49.94 355.71 50.02Q355.55 50.10 355.23 50.10L355.23 50.10Q354.59 50.10 354.22 50.05Q353.86 50 353.54 49.97Q353.22 49.94 352.64 49.94L352.64 49.94Q352.10 49.94 351.76 49.97Q351.42 50 351.06 50.05Q350.69 50.10 350.05 50.10ZM371.78 59.28L371.78 59.28Q369.06 59.28 367.47 58.24Q365.89 57.20 365.89 55.44L365.89 55.44Q365.89 54.61 366.14 54.03Q366.40 53.46 366.94 53.04L366.94 53.04Q367.39 52.66 368.14 52.06Q368.90 51.47 369.70 50.83L369.70 50.83L371.04 50.90Q369.50 51.89 368.90 52.78Q368.29 53.68 368.29 54.96L368.29 54.96Q368.29 56.24 369.42 57.12Q370.56 58 372.22 58L372.22 58Q374.11 58 375.26 57.14L375.26 57.14Q376.06 56.53 376.51 55.55Q376.96 54.58 376.96 53.49L376.96 53.49Q376.96 52.78 376.46 52.32Q375.97 51.86 374.91 51.57Q373.86 51.28 372.16 51.18L372.16 51.18Q369.15 50.96 367.98 50.38Q366.82 49.81 366.82 48.59L366.82 48.59Q366.82 48.27 366.99 48Q367.17 47.73 367.55 47.41L367.55 47.41Q368.29 46.83 368.64 46.56Q368.99 46.29 369.17 46.10Q369.34 45.90 369.50 45.62L369.50 45.62L370.59 46.16Q369.89 46.42 369.41 46.85Q368.93 47.28 368.93 47.63L368.93 47.63Q368.93 48.08 369.41 48.42Q369.89 48.75 370.82 48.94Q371.74 49.14 373.09 49.23L373.09 49.23Q376.03 49.39 377.47 50.19Q378.91 50.99 378.91 52.46L378.91 52.46Q378.91 53.71 378.29 54.91Q377.66 56.11 376.64 57.10Q375.62 58.10 374.35 58.69Q373.09 59.28 371.78 59.28ZM372.16 45.49L372.16 45.49Q373.38 45.49 374.18 44.26Q374.98 43.02 374.98 41.20L374.98 41.20Q374.98 40.27 374.54 39.46Q374.11 38.64 373.42 38.14Q372.74 37.65 371.94 37.65L371.94 37.65Q371.20 37.65 370.54 38.18Q369.89 38.70 369.49 39.54Q369.09 40.37 369.09 41.36L369.09 41.36Q369.09 42.48 369.50 43.42Q369.92 44.37 370.62 44.93Q371.33 45.49 372.16 45.49ZM371.97 46.61L371.97 46.61Q370.66 46.61 369.47 45.94Q368.29 45.26 367.54 44.16Q366.78 43.06 366.78 41.74L366.78 41.74Q366.78 40.24 367.57 39.10Q368.35 37.97 369.63 37.33Q370.91 36.69 372.35 36.69L372.35 36.69Q373.28 36.69 373.97 36.93Q374.66 37.17 375.33 37.36L375.33 37.36Q376.10 37.58 376.54 37.63Q376.99 37.68 377.47 37.68L377.47 37.68Q377.86 37.68 378.43 37.63Q379.01 37.58 379.23 37.58L379.23 37.58Q379.65 37.58 379.65 38.06L379.65 38.06Q379.65 38.35 379.33 38.67L379.33 38.67Q379.17 38.83 379.07 38.83L379.07 38.83L378.21 38.83Q377.34 38.83 377.25 39.09L377.25 39.09Q377.22 39.22 377.17 39.46Q377.12 39.70 377.09 39.98Q377.06 40.27 377.06 40.56L377.06 40.56Q377.06 42.19 376.35 43.57Q375.65 44.94 374.50 45.78Q373.34 46.61 371.97 46.61ZM392.64 50.48L392.64 50.48Q391.01 50.48 389.74 49.89Q388.48 49.30 387.78 48.27Q387.07 47.25 387.07 45.94L387.07 45.94Q387.07 43.38 388.59 41.74Q390.11 40.11 392.42 39.06L392.42 39.06L393.06 38.77L392.58 38.26Q392.29 37.90 391.79 37.39Q391.30 36.88 390.90 36.16Q390.50 35.44 390.50 34.51L390.50 34.51Q390.50 33.39 391.15 32.56Q391.81 31.73 392.83 31.28Q393.86 30.83 394.94 30.83L394.94 30.83Q396.32 30.83 397.22 31.46Q398.11 32.08 398.56 32.99Q399.01 33.90 399.01 34.74L399.01 34.74Q399.04 35.95 398.14 36.85Q397.25 37.74 395.65 38.32L395.65 38.32L395.20 38.48L395.62 38.93Q396.83 40.24 397.82 41.20Q398.82 42.16 399.78 43.57L399.78 43.57L400.16 44.14L400.74 43.54Q401.50 42.70 402.32 41.68Q403.14 40.66 403.70 39.81Q404.26 38.96 404.26 38.74L404.26 38.74Q404.26 38.54 404.02 38.22Q403.78 37.90 403.36 37.84L403.36 37.84Q403.30 37.81 403.14 37.68Q402.98 37.55 402.98 37.49L402.98 37.49Q402.98 37.23 403.28 37.18Q403.58 37.14 403.68 37.14L403.68 37.14Q403.78 37.14 404.24 37.17Q404.70 37.20 405.22 37.25Q405.73 37.30 405.95 37.30L405.95 37.30Q406.43 37.30 407.01 37.18Q407.58 37.07 408.11 36.94Q408.64 36.82 409.02 36.82L409.02 36.82Q409.09 36.82 409.25 36.91Q409.41 37.01 409.41 37.10L409.41 37.10Q409.41 37.30 409.12 37.49Q408.83 37.68 408.61 37.71L408.61 37.71Q407.87 37.74 407.26 38.05Q406.66 38.35 406.27 38.70L406.27 38.70Q406.14 38.80 405.54 39.44Q404.93 40.08 404.08 40.96Q403.23 41.84 402.43 42.70Q401.63 43.57 401.09 44.14Q400.54 44.72 400.54 44.72L400.54 44.72L401.09 45.49Q402.11 46.96 403.10 47.84Q404.10 48.72 405.31 48.72L405.31 48.72Q405.98 48.72 406.61 48.59Q407.23 48.46 407.81 48.14L407.81 48.14Q407.94 48.08 408.08 48.03Q408.22 47.98 408.35 47.98L408.35 47.98Q408.58 47.98 408.66 48.06Q408.74 48.14 408.74 48.37L408.74 48.37Q408.74 48.62 408.06 49.14Q407.39 49.65 406.45 50.06Q405.50 50.48 404.61 50.48L404.61 50.48Q403.42 50.48 402.62 50.08Q401.82 49.68 401.17 48.86Q400.51 48.05 399.68 46.77L399.68 46.77L399.26 46.10L399.07 46.29Q398.08 47.38 397.17 48.34Q396.26 49.30 395.20 49.89Q394.14 50.48 392.64 50.48ZM393.47 48.40L393.47 48.40Q395.07 48.40 396.24 47.73Q397.41 47.06 398.59 45.81L398.59 45.81L398.88 45.52L398.50 44.91Q397.70 43.70 396.50 42.45Q395.30 41.20 393.92 39.73L393.92 39.73L393.54 39.31L392.86 39.57Q391.39 40.14 390.67 41.02Q389.95 41.90 389.74 42.91Q389.54 43.92 389.54 44.88L389.54 44.88Q389.54 46.35 390.62 47.38Q391.71 48.40 393.47 48.40ZM394.27 37.42L394.78 37.97L395.20 37.78Q396.10 37.36 396.53 36.45Q396.96 35.54 396.96 34.58L396.96 34.58Q396.96 33.46 396.43 32.56Q395.90 31.66 394.78 31.66L394.78 31.66Q393.82 31.66 393.09 32.26Q392.35 32.85 392.35 33.71L392.35 33.71Q392.35 34.35 392.48 34.86Q392.61 35.38 393.02 35.95Q393.44 36.53 394.27 37.42L394.27 37.42ZM417.98 50.16L417.98 50.16Q417.57 50.16 417.31 50.08Q417.06 50 417.06 49.81L417.06 49.81Q417.06 49.42 418.11 49.23L418.11 49.23Q419.33 49.01 419.97 48.50Q420.61 47.98 420.61 46.86L420.61 46.86L420.61 32.40Q420.61 31.28 420.14 30.80Q419.68 30.32 418.46 30.10L418.46 30.10Q417.41 29.90 417.41 29.46L417.41 29.46Q417.41 29.26 417.66 29.18Q417.92 29.10 418.34 29.10L418.34 29.10Q419.20 29.10 419.76 29.14Q420.32 29.17 420.83 29.18Q421.34 29.20 422.08 29.20L422.08 29.20Q422.78 29.20 423.23 29.18Q423.68 29.17 424.19 29.14Q424.70 29.10 425.57 29.10L425.57 29.10Q425.98 29.10 426.24 29.18Q426.50 29.26 426.50 29.46L426.50 29.46Q426.50 29.68 426.24 29.84Q425.98 30 425.44 30.10L425.44 30.10Q424.26 30.32 423.71 30.80Q423.17 31.28 423.17 32.40L423.17 32.40L423.17 46.86Q423.17 47.98 423.84 48.50Q424.51 49.01 425.70 49.23L425.70 49.23Q426.24 49.33 426.50 49.46Q426.75 49.58 426.75 49.81L426.75 49.81Q426.75 50 426.50 50.08Q426.24 50.16 425.82 50.16L425.82 50.16Q424.96 50.16 424.40 50.11Q423.84 50.06 423.33 50.03Q422.82 50 422.08 50L422.08 50Q421.28 50 420.69 50.03Q420.10 50.06 419.47 50.11Q418.85 50.16 417.98 50.16ZM428.74 50.10L428.74 50.10Q428.45 50.10 428.27 50.02Q428.10 49.94 428.10 49.74L428.10 49.74Q428.10 49.49 428.29 49.41Q428.48 49.33 428.83 49.23L428.83 49.23Q429.31 49.10 429.76 48.88Q430.21 48.66 430.21 48.02L430.21 48.02L430.21 41.14Q430.21 40.27 430.03 39.66Q429.86 39.06 429.02 38.83L429.02 38.83Q428.90 38.77 428.80 38.69Q428.70 38.61 428.70 38.42L428.70 38.42Q428.70 38.06 428.99 38.03L428.99 38.03Q430.11 37.74 430.82 37.33Q431.52 36.91 432.19 36.40L432.19 36.40Q432.29 36.34 432.37 36.29Q432.45 36.24 432.54 36.24L432.54 36.24Q432.61 36.24 432.66 36.30Q432.70 36.37 432.70 36.46L432.70 36.46Q432.70 36.69 432.62 37.38Q432.54 38.06 432.54 38.51L432.54 38.51Q432.54 38.64 432.56 38.75Q432.58 38.86 432.61 38.90L432.61 38.90Q433.73 37.84 434.99 37.30Q436.26 36.75 437.76 36.75L437.76 36.75Q439.33 36.75 440.35 38.03Q441.38 39.31 441.38 41.20L441.38 41.20L441.38 48.02Q441.38 48.66 441.82 48.86Q442.27 49.07 442.75 49.23L442.75 49.23Q443.01 49.33 443.25 49.44Q443.49 49.55 443.49 49.81L443.49 49.81Q443.49 50 443.26 50.05Q443.04 50.10 442.85 50.10L442.85 50.10Q442.21 50.10 441.86 50.05Q441.50 50 441.18 49.97Q440.86 49.94 440.29 49.94L440.29 49.94Q439.74 49.94 439.39 49.97Q439.04 50 438.67 50.05Q438.30 50.10 437.66 50.10L437.66 50.10Q437.50 50.10 437.26 50.05Q437.02 50 437.02 49.81L437.02 49.81Q437.02 49.55 437.26 49.44Q437.50 49.33 437.76 49.23L437.76 49.23Q438.24 49.07 438.69 48.86Q439.14 48.66 439.14 48.02L439.14 48.02L439.14 41.30Q439.14 39.89 438.35 39.10Q437.57 38.32 436.26 38.29L436.26 38.29Q435.10 38.29 434.24 38.66Q433.38 39.02 432.70 39.57L432.70 39.57Q432.58 39.70 432.51 39.90Q432.45 40.11 432.45 40.30L432.45 40.30L432.45 48.02Q432.45 48.66 432.90 48.88Q433.34 49.10 433.82 49.23L433.82 49.23Q434.56 49.42 434.56 49.74L434.56 49.74Q434.56 49.94 434.40 50.02Q434.24 50.10 433.92 50.10L433.92 50.10Q433.28 50.10 432.91 50.05Q432.54 50 432.22 49.97Q431.90 49.94 431.33 49.94L431.33 49.94Q430.78 49.94 430.45 49.97Q430.11 50 429.74 50.05Q429.38 50.10 428.74 50.10ZM445.63 50.10L445.63 50.10Q445.31 50.10 445.15 50.02Q444.99 49.94 444.99 49.74L444.99 49.74Q444.99 49.49 445.20 49.39Q445.41 49.30 445.73 49.23L445.73 49.23Q446.46 49.07 446.78 48.77Q447.10 48.46 447.10 47.82L447.10 47.82L447.10 38.80Q446.78 38.80 446.37 38.78Q445.95 38.77 445.44 38.74L445.44 38.74Q445.34 38.70 445.17 38.51Q444.99 38.32 444.99 38.16L444.99 38.16Q444.99 38.10 445.09 38.05Q445.18 38 445.22 37.97L445.22 37.97Q445.79 37.68 446.21 37.46Q446.62 37.23 447.10 37.01L447.10 37.01Q447.10 34.22 447.79 32.37Q448.48 30.51 449.57 29.42Q450.66 28.34 451.87 27.87Q453.09 27.41 454.14 27.41L454.14 27.41Q455.94 27.41 456.80 27.95Q457.66 28.50 457.66 29.33L457.66 29.33Q457.66 29.97 457.34 30.29Q457.02 30.61 456.58 30.61L456.58 30.61Q456.29 30.61 456.05 30.38Q455.81 30.16 455.49 29.87L455.49 29.87Q455.07 29.46 454.46 29.09Q453.86 28.72 452.80 28.72L452.80 28.72Q451.30 28.72 450.32 30.03Q449.34 31.34 449.34 34.06L449.34 34.06L449.34 36.88Q449.34 37.07 449.46 37.14Q449.57 37.20 449.70 37.20L449.70 37.20L453.70 37.20Q453.86 37.20 453.98 37.30Q454.11 37.39 454.11 37.55L454.11 37.55Q454.11 37.78 454.06 38.03Q454.02 38.29 453.92 38.48L453.92 38.48Q453.82 38.74 453.63 38.74L453.63 38.74L449.95 38.74Q449.57 38.74 449.46 38.85Q449.34 38.96 449.34 39.15L449.34 39.15L449.34 47.82Q449.34 48.46 449.76 48.77Q450.18 49.07 451.46 49.23L451.46 49.23Q452.19 49.33 452.19 49.74L452.19 49.74Q452.19 49.94 452.03 50.02Q451.87 50.10 451.55 50.10L451.55 50.10Q450.59 50.10 449.86 50.02Q449.12 49.94 448.29 49.94L448.29 49.94Q447.74 49.94 447.39 49.97Q447.04 50 446.66 50.05Q446.27 50.10 445.63 50.10ZM455.97 50.10L455.97 50.10Q455.65 50.10 455.49 50.02Q455.33 49.94 455.33 49.74L455.33 49.74Q455.33 49.49 455.52 49.41Q455.71 49.33 456.06 49.23L456.06 49.23Q456.67 49.07 456.98 48.77Q457.28 48.46 457.28 48.02L457.28 48.02L457.28 41.14Q457.28 40.27 457.02 39.63Q456.77 38.99 455.97 38.83L455.97 38.83Q455.84 38.80 455.74 38.67Q455.65 38.54 455.65 38.42L455.65 38.42Q455.65 38.10 455.94 38.03L455.94 38.03Q456.77 37.78 457.68 37.28Q458.59 36.78 459.10 36.46L459.10 36.46Q459.30 36.34 459.41 36.29Q459.52 36.24 459.58 36.24L459.58 36.24Q459.74 36.24 459.74 36.46L459.74 36.46Q459.74 36.56 459.73 36.94Q459.71 37.33 459.70 37.84Q459.68 38.35 459.65 38.86L459.65 38.86Q459.65 38.93 459.71 38.93L459.71 38.93Q460.22 38.29 460.85 37.81Q461.47 37.33 462.13 37.04Q462.78 36.75 463.39 36.75L463.39 36.75Q464.06 36.75 464.50 37.04Q464.93 37.33 464.93 37.78L464.93 37.78Q464.93 38.10 464.75 38.48Q464.58 38.86 464.29 39.15Q464.00 39.44 463.68 39.44L463.68 39.44Q463.49 39.44 463.26 39.36Q463.04 39.28 462.78 39.15L462.78 39.15Q462.53 39.06 462.27 38.96Q462.02 38.86 461.76 38.86L461.76 38.86Q460.99 38.86 460.27 39.41Q459.55 39.95 459.55 41.55L459.55 41.55L459.55 48.02Q459.55 48.43 460.00 48.70Q460.45 48.98 461.25 49.23L461.25 49.23Q461.60 49.33 461.79 49.42Q461.98 49.52 461.98 49.74L461.98 49.74Q461.98 50.10 461.34 50.10L461.34 50.10Q460.38 50.10 459.89 50.02Q459.39 49.94 458.56 49.94L458.56 49.94Q458.02 49.94 457.68 49.97Q457.34 50 456.98 50.05Q456.61 50.10 455.97 50.10ZM468.83 50.45L468.83 50.45Q468.26 50.45 467.66 50Q467.07 49.55 466.67 48.91Q466.27 48.27 466.27 47.70L466.27 47.70Q466.27 46.67 466.82 46.10Q467.36 45.52 468.54 45.04L468.54 45.04L471.81 43.70Q472.45 43.44 472.56 43.25Q472.67 43.06 472.70 42.42L472.70 42.42L472.77 40.37Q472.80 39.54 472.30 38.93Q471.81 38.32 470.88 38.32L470.88 38.32Q470.40 38.32 469.92 38.48Q469.44 38.64 469.12 38.90L469.12 38.90Q468.93 39.02 468.86 39.28Q468.80 39.54 468.80 39.82L468.80 39.82Q468.80 39.95 468.82 40.11Q468.83 40.27 468.83 40.40L468.83 40.40Q468.83 40.56 468.43 40.83Q468.03 41.10 467.54 41.31Q467.04 41.52 466.72 41.52L466.72 41.52Q466.56 41.52 466.46 41.44Q466.37 41.36 466.37 41.23L466.37 41.23Q466.37 40.72 466.70 40.13Q467.04 39.54 467.65 39.02L467.65 39.02Q468.38 38.35 469.25 37.84Q470.11 37.33 470.94 37.04Q471.78 36.75 472.42 36.75L472.42 36.75Q473.57 36.75 474.32 37.57Q475.07 38.38 475.04 39.60L475.04 39.60L474.88 47.28Q474.85 47.95 475.18 48.37Q475.52 48.78 476.03 48.78L476.03 48.78Q476.83 48.78 477.22 48.43L477.22 48.43Q477.38 48.27 477.47 48.27L477.47 48.27Q477.63 48.27 477.73 48.37Q477.82 48.46 477.82 48.62L477.82 48.62Q477.82 48.98 477.47 49.33L477.47 49.33Q476.96 49.84 476.37 50.14Q475.78 50.45 475.26 50.45L475.26 50.45Q473.79 50.45 472.93 48.78L472.93 48.78L472.83 48.78Q471.78 49.65 470.82 50.05Q469.86 50.45 468.83 50.45ZM470.34 48.91L470.34 48.91Q470.98 48.91 471.42 48.70Q471.87 48.50 472.22 48.14L472.22 48.14Q472.38 47.98 472.50 47.71Q472.61 47.44 472.64 46.83L472.64 46.83L472.70 45.26Q472.74 44.91 472.67 44.75Q472.61 44.59 472.42 44.59L472.42 44.59Q472.35 44.59 472.19 44.62Q472.03 44.66 471.78 44.75L471.78 44.75Q470.08 45.36 469.42 46.02Q468.77 46.67 468.77 47.22L468.77 47.22Q468.77 48.05 469.26 48.48Q469.76 48.91 470.34 48.91ZM482.46 50.45L482.46 50.45Q481.47 50.45 480.61 50.14Q479.74 49.84 479.14 49.30L479.14 49.30Q478.98 48.94 478.90 48.11Q478.82 47.28 478.78 46.74L478.78 46.74Q478.78 46.45 479.20 46.45L479.20 46.45Q479.33 46.45 479.44 46.50Q479.55 46.54 479.58 46.67L479.58 46.67Q480.00 48.24 480.91 48.91Q481.82 49.58 482.75 49.58L482.75 49.58Q483.68 49.58 484.34 48.96Q484.99 48.34 484.99 47.41L484.99 47.41Q484.99 46.54 484.42 45.92Q483.84 45.30 482.40 44.40L482.40 44.40Q481.31 43.73 480.64 43.12Q479.97 42.51 479.66 41.87Q479.36 41.23 479.36 40.43L479.36 40.43Q479.36 39.41 479.84 38.58Q480.32 37.74 481.28 37.25Q482.24 36.75 483.68 36.75L483.68 36.75Q484.64 36.75 485.28 36.94Q485.92 37.14 486.24 37.36L486.24 37.36Q486.50 37.71 486.67 38.46Q486.85 39.22 486.85 39.89L486.85 39.89Q486.85 40.11 486.53 40.11L486.53 40.11Q486.34 40.11 486.16 40.03Q485.98 39.95 485.92 39.82L485.92 39.82Q485.50 38.77 484.88 38.21Q484.26 37.65 483.33 37.65L483.33 37.65Q482.53 37.65 481.90 38.13Q481.28 38.61 481.28 39.54L481.28 39.54Q481.28 40.27 481.74 40.85Q482.21 41.42 483.49 42.16L483.49 42.16Q485.34 43.22 486.26 44.13Q487.17 45.04 487.17 46.54L487.17 46.54Q487.17 48.27 485.86 49.36Q484.54 50.45 482.46 50.45ZM494.24 50.45L494.24 50.45Q492.67 50.45 491.79 49.49Q490.91 48.53 490.91 46.64L490.91 46.64L490.91 39.22Q490.91 38.96 490.72 38.85Q490.53 38.74 489.89 38.74L489.89 38.74L489.70 38.74Q489.54 38.74 489.42 38.53Q489.31 38.32 489.31 38.10L489.31 38.10Q489.31 38.03 489.41 37.90Q489.50 37.78 489.54 37.74L489.54 37.74Q490.18 37.30 490.70 36.85Q491.23 36.40 491.66 35.97Q492.10 35.54 492.38 35.18L492.38 35.18Q492.54 35.02 492.66 34.91Q492.77 34.80 492.93 34.80L492.93 34.80Q493.09 34.80 493.23 34.86Q493.38 34.93 493.34 35.15L493.34 35.15L493.18 36.59Q493.15 36.94 493.34 37.07Q493.54 37.20 493.95 37.20L493.95 37.20L497.60 37.20Q497.73 37.20 497.82 37.41Q497.92 37.62 497.92 37.90L497.92 37.90Q497.92 38.19 497.82 38.46Q497.73 38.74 497.60 38.74L497.60 38.74L494.43 38.74Q493.63 38.74 493.39 38.86Q493.15 38.99 493.15 39.63L493.15 39.63L493.15 45.94Q493.15 47.22 493.70 47.95Q494.24 48.69 495.26 48.69L495.26 48.69Q496.19 48.69 496.70 48.54Q497.22 48.40 497.63 48.11L497.63 48.11Q497.70 48.05 497.76 48.05L497.76 48.05Q497.89 48.05 497.94 48.19Q497.98 48.34 497.98 48.50L497.98 48.50Q497.98 48.66 497.46 49.14Q496.93 49.62 496.08 50.03Q495.23 50.45 494.24 50.45ZM499.81 50.10L499.81 50.10Q499.49 50.10 499.33 50.02Q499.17 49.94 499.17 49.74L499.17 49.74Q499.17 49.49 499.36 49.41Q499.55 49.33 499.90 49.23L499.90 49.23Q500.51 49.07 500.82 48.77Q501.12 48.46 501.12 48.02L501.12 48.02L501.12 41.14Q501.12 40.27 500.86 39.63Q500.61 38.99 499.81 38.83L499.81 38.83Q499.68 38.80 499.58 38.67Q499.49 38.54 499.49 38.42L499.49 38.42Q499.49 38.10 499.78 38.03L499.78 38.03Q500.61 37.78 501.52 37.28Q502.43 36.78 502.94 36.46L502.94 36.46Q503.14 36.34 503.25 36.29Q503.36 36.24 503.42 36.24L503.42 36.24Q503.58 36.24 503.58 36.46L503.58 36.46Q503.58 36.56 503.57 36.94Q503.55 37.33 503.54 37.84Q503.52 38.35 503.49 38.86L503.49 38.86Q503.49 38.93 503.55 38.93L503.55 38.93Q504.06 38.29 504.69 37.81Q505.31 37.33 505.97 37.04Q506.62 36.75 507.23 36.75L507.23 36.75Q507.90 36.75 508.34 37.04Q508.77 37.33 508.77 37.78L508.77 37.78Q508.77 38.10 508.59 38.48Q508.42 38.86 508.13 39.15Q507.84 39.44 507.52 39.44L507.52 39.44Q507.33 39.44 507.10 39.36Q506.88 39.28 506.62 39.15L506.62 39.15Q506.37 39.06 506.11 38.96Q505.86 38.86 505.60 38.86L505.60 38.86Q504.83 38.86 504.11 39.41Q503.39 39.95 503.39 41.55L503.39 41.55L503.39 48.02Q503.39 48.43 503.84 48.70Q504.29 48.98 505.09 49.23L505.09 49.23Q505.44 49.33 505.63 49.42Q505.82 49.52 505.82 49.74L505.82 49.74Q505.82 50.10 505.18 50.10L505.18 50.10Q504.22 50.10 503.73 50.02Q503.23 49.94 502.40 49.94L502.40 49.94Q501.86 49.94 501.52 49.97Q501.18 50 500.82 50.05Q500.45 50.10 499.81 50.10ZM520.64 50.61L520.64 50.61Q520.42 50.61 520.42 50.35L520.42 50.35Q520.42 50.03 520.50 49.41Q520.58 48.78 520.58 48.37L520.58 48.37Q520.58 48.30 520.58 48.26Q520.58 48.21 520.58 48.18L520.58 48.18Q519.33 49.39 518.06 49.92Q516.80 50.45 515.30 50.45L515.30 50.45Q514.27 50.45 513.44 50.02Q512.61 49.58 512.13 48.74Q511.65 47.89 511.65 46.64L511.65 46.64L511.65 40.14Q511.65 39.44 511.33 39.02Q511.01 38.61 510.27 38.32L510.27 38.32Q510.11 38.26 509.98 38.16Q509.86 38.06 509.86 37.81L509.86 37.81Q509.86 37.52 510.00 37.42Q510.14 37.33 510.34 37.30L510.34 37.30Q511.42 37.23 512.02 37.12Q512.61 37.01 513.50 36.78L513.50 36.78Q513.60 36.75 513.65 36.75Q513.70 36.75 513.76 36.75L513.76 36.75Q514.11 36.75 514.08 37.20L514.08 37.20Q513.98 37.94 513.94 38.43Q513.89 38.93 513.89 39.66L513.89 39.66L513.89 45.90Q513.89 46.67 514.27 47.33Q514.66 47.98 515.28 48.40Q515.90 48.82 516.58 48.82L516.58 48.82Q517.41 48.82 518.03 48.72Q518.66 48.62 519.26 48.18L519.26 48.18Q519.62 47.92 520.16 47.34Q520.70 46.77 520.70 45.78L520.70 45.78L520.70 39.92Q520.70 39.25 520.30 38.91Q519.90 38.58 519.39 38.45Q518.88 38.32 518.56 38.32L518.56 38.32Q518.27 38.32 518.08 38.21Q517.89 38.10 517.89 37.78L517.89 37.78Q517.89 37.49 518.10 37.39Q518.30 37.30 518.56 37.30L518.56 37.30Q519.55 37.26 520.21 37.22Q520.86 37.17 521.39 37.06Q521.92 36.94 522.50 36.78L522.50 36.78Q522.56 36.75 522.66 36.74Q522.75 36.72 522.82 36.72L522.82 36.72Q523.23 36.72 523.23 37.07L523.23 37.07Q523.23 37.10 523.22 37.18Q523.20 37.26 523.17 37.36L523.17 37.36Q523.14 37.46 523.09 37.90Q523.04 38.35 522.99 38.83Q522.94 39.31 522.94 39.57L522.94 39.57L522.94 46.96Q522.94 47.82 523.12 48.19Q523.30 48.56 523.52 48.56L523.52 48.56Q523.78 48.56 524.27 48.51Q524.77 48.46 524.99 48.46L524.99 48.46Q525.15 48.46 525.31 48.53Q525.47 48.59 525.47 48.88L525.47 48.88Q525.47 49.14 525.34 49.22Q525.22 49.30 525.02 49.33L525.02 49.33Q523.78 49.49 522.88 49.81Q521.98 50.13 521.28 50.42L521.28 50.42Q521.18 50.45 520.99 50.53Q520.80 50.61 520.64 50.61ZM532.61 50.48L532.61 50.48Q531.01 50.48 529.71 49.66Q528.42 48.85 527.66 47.42Q526.91 46 526.91 44.24L526.91 44.24Q526.91 42.16 527.82 40.46Q528.74 38.77 530.27 37.76Q531.81 36.75 533.66 36.75L533.66 36.75Q535.74 36.75 537.31 37.87L537.31 37.87Q537.70 38.16 537.70 38.48L537.70 38.48Q537.70 38.74 537.47 39.06Q537.25 39.38 536.93 39.58Q536.61 39.79 536.32 39.79L536.32 39.79Q536.16 39.79 536.00 39.68Q535.84 39.57 535.65 39.44L535.65 39.44Q534.94 38.90 534.08 38.42Q533.22 37.94 532.64 37.94L532.64 37.94Q531.07 37.94 530.10 39.39Q529.12 40.85 529.12 43.22L529.12 43.22Q529.12 44.72 529.78 45.94Q530.43 47.15 531.54 47.86Q532.64 48.56 533.98 48.56L533.98 48.56Q534.91 48.56 535.58 48.26Q536.26 47.95 537.02 47.18L537.02 47.18Q537.09 47.12 537.18 47.07Q537.28 47.02 537.34 47.02L537.34 47.02Q537.70 47.02 537.70 47.47L537.70 47.47Q537.70 47.66 537.58 47.90Q537.47 48.14 537.22 48.46L537.22 48.46Q536.70 49.10 536.00 49.57Q535.30 50.03 534.45 50.26Q533.60 50.48 532.61 50.48ZM544.86 50.45L544.86 50.45Q543.30 50.45 542.42 49.49Q541.54 48.53 541.54 46.64L541.54 46.64L541.54 39.22Q541.54 38.96 541.34 38.85Q541.15 38.74 540.51 38.74L540.51 38.74L540.32 38.74Q540.16 38.74 540.05 38.53Q539.94 38.32 539.94 38.10L539.94 38.10Q539.94 38.03 540.03 37.90Q540.13 37.78 540.16 37.74L540.16 37.74Q540.80 37.30 541.33 36.85Q541.86 36.40 542.29 35.97Q542.72 35.54 543.01 35.18L543.01 35.18Q543.17 35.02 543.28 34.91Q543.39 34.80 543.55 34.80L543.55 34.80Q543.71 34.80 543.86 34.86Q544.00 34.93 543.97 35.15L543.97 35.15L543.81 36.59Q543.78 36.94 543.97 37.07Q544.16 37.20 544.58 37.20L544.58 37.20L548.22 37.20Q548.35 37.20 548.45 37.41Q548.54 37.62 548.54 37.90L548.54 37.90Q548.54 38.19 548.45 38.46Q548.35 38.74 548.22 38.74L548.22 38.74L545.06 38.74Q544.26 38.74 544.02 38.86Q543.78 38.99 543.78 39.63L543.78 39.63L543.78 45.94Q543.78 47.22 544.32 47.95Q544.86 48.69 545.89 48.69L545.89 48.69Q546.82 48.69 547.33 48.54Q547.84 48.40 548.26 48.11L548.26 48.11Q548.32 48.05 548.38 48.05L548.38 48.05Q548.51 48.05 548.56 48.19Q548.61 48.34 548.61 48.50L548.61 48.50Q548.61 48.66 548.08 49.14Q547.55 49.62 546.70 50.03Q545.86 50.45 544.86 50.45ZM560.58 50.61L560.58 50.61Q560.35 50.61 560.35 50.35L560.35 50.35Q560.35 50.03 560.43 49.41Q560.51 48.78 560.51 48.37L560.51 48.37Q560.51 48.30 560.51 48.26Q560.51 48.21 560.51 48.18L560.51 48.18Q559.26 49.39 558.00 49.92Q556.74 50.45 555.23 50.45L555.23 50.45Q554.21 50.45 553.38 50.02Q552.54 49.58 552.06 48.74Q551.58 47.89 551.58 46.64L551.58 46.64L551.58 40.14Q551.58 39.44 551.26 39.02Q550.94 38.61 550.21 38.32L550.21 38.32Q550.05 38.26 549.92 38.16Q549.79 38.06 549.79 37.81L549.79 37.81Q549.79 37.52 549.94 37.42Q550.08 37.33 550.27 37.30L550.27 37.30Q551.36 37.23 551.95 37.12Q552.54 37.01 553.44 36.78L553.44 36.78Q553.54 36.75 553.58 36.75Q553.63 36.75 553.70 36.75L553.70 36.75Q554.05 36.75 554.02 37.20L554.02 37.20Q553.92 37.94 553.87 38.43Q553.82 38.93 553.82 39.66L553.82 39.66L553.82 45.90Q553.82 46.67 554.21 47.33Q554.59 47.98 555.22 48.40Q555.84 48.82 556.51 48.82L556.51 48.82Q557.34 48.82 557.97 48.72Q558.59 48.62 559.20 48.18L559.20 48.18Q559.55 47.92 560.10 47.34Q560.64 46.77 560.64 45.78L560.64 45.78L560.64 39.92Q560.64 39.25 560.24 38.91Q559.84 38.58 559.33 38.45Q558.82 38.32 558.50 38.32L558.50 38.32Q558.21 38.32 558.02 38.21Q557.82 38.10 557.82 37.78L557.82 37.78Q557.82 37.49 558.03 37.39Q558.24 37.30 558.50 37.30L558.50 37.30Q559.49 37.26 560.14 37.22Q560.80 37.17 561.33 37.06Q561.86 36.94 562.43 36.78L562.43 36.78Q562.50 36.75 562.59 36.74Q562.69 36.72 562.75 36.72L562.75 36.72Q563.17 36.72 563.17 37.07L563.17 37.07Q563.17 37.10 563.15 37.18Q563.14 37.26 563.10 37.36L563.10 37.36Q563.07 37.46 563.02 37.90Q562.98 38.35 562.93 38.83Q562.88 39.31 562.88 39.57L562.88 39.57L562.88 46.96Q562.88 47.82 563.06 48.19Q563.23 48.56 563.46 48.56L563.46 48.56Q563.71 48.56 564.21 48.51Q564.70 48.46 564.93 48.46L564.93 48.46Q565.09 48.46 565.25 48.53Q565.41 48.59 565.41 48.88L565.41 48.88Q565.41 49.14 565.28 49.22Q565.15 49.30 564.96 49.33L564.96 49.33Q563.71 49.49 562.82 49.81Q561.92 50.13 561.22 50.42L561.22 50.42Q561.12 50.45 560.93 50.53Q560.74 50.61 560.58 50.61ZM567.30 50.10L567.30 50.10Q566.98 50.10 566.82 50.02Q566.66 49.94 566.66 49.74L566.66 49.74Q566.66 49.49 566.85 49.41Q567.04 49.33 567.39 49.23L567.39 49.23Q568 49.07 568.30 48.77Q568.61 48.46 568.61 48.02L568.61 48.02L568.61 41.14Q568.61 40.27 568.35 39.63Q568.10 38.99 567.30 38.83L567.30 38.83Q567.17 38.80 567.07 38.67Q566.98 38.54 566.98 38.42L566.98 38.42Q566.98 38.10 567.26 38.03L567.26 38.03Q568.10 37.78 569.01 37.28Q569.92 36.78 570.43 36.46L570.43 36.46Q570.62 36.34 570.74 36.29Q570.85 36.24 570.91 36.24L570.91 36.24Q571.07 36.24 571.07 36.46L571.07 36.46Q571.07 36.56 571.06 36.94Q571.04 37.33 571.02 37.84Q571.01 38.35 570.98 38.86L570.98 38.86Q570.98 38.93 571.04 38.93L571.04 38.93Q571.55 38.29 572.18 37.81Q572.80 37.33 573.46 37.04Q574.11 36.75 574.72 36.75L574.72 36.75Q575.39 36.75 575.82 37.04Q576.26 37.33 576.26 37.78L576.26 37.78Q576.26 38.10 576.08 38.48Q575.90 38.86 575.62 39.15Q575.33 39.44 575.01 39.44L575.01 39.44Q574.82 39.44 574.59 39.36Q574.37 39.28 574.11 39.15L574.11 39.15Q573.86 39.06 573.60 38.96Q573.34 38.86 573.09 38.86L573.09 38.86Q572.32 38.86 571.60 39.41Q570.88 39.95 570.88 41.55L570.88 41.55L570.88 48.02Q570.88 48.43 571.33 48.70Q571.78 48.98 572.58 49.23L572.58 49.23Q572.93 49.33 573.12 49.42Q573.31 49.52 573.31 49.74L573.31 49.74Q573.31 50.10 572.67 50.10L572.67 50.10Q571.71 50.10 571.22 50.02Q570.72 49.94 569.89 49.94L569.89 49.94Q569.34 49.94 569.01 49.97Q568.67 50 568.30 50.05Q567.94 50.10 567.30 50.10ZM583.23 50.48L583.23 50.48Q581.47 50.48 580.16 49.62Q578.85 48.75 578.11 47.17Q577.38 45.58 577.38 43.50L577.38 43.50Q577.38 41.65 578.22 40.13Q579.07 38.61 580.48 37.68Q581.89 36.75 583.55 36.75L583.55 36.75Q584.83 36.75 585.82 37.26Q586.82 37.78 587.38 38.69Q587.94 39.60 587.94 40.78L587.94 40.78Q587.94 41.78 586.98 41.78L586.98 41.78L580.22 41.78Q579.78 41.78 579.60 42.02Q579.42 42.26 579.42 42.96L579.42 42.96Q579.42 44.50 580.10 45.76Q580.77 47.02 581.89 47.78Q583.01 48.53 584.35 48.53L584.35 48.53Q585.31 48.53 586.10 48.16Q586.88 47.79 587.49 47.09L587.49 47.09Q587.62 46.93 587.68 46.88Q587.74 46.83 587.84 46.83L587.84 46.83Q588.10 46.83 588.10 47.15L588.10 47.15Q588.10 47.76 587.52 48.50L587.52 48.50Q587.04 49.10 586.37 49.55Q585.70 50 584.90 50.24Q584.10 50.48 583.23 50.48ZM580.29 40.78L580.29 40.78L583.20 40.78Q583.97 40.78 584.51 40.75Q585.06 40.72 585.57 40.62L585.57 40.62Q585.73 40.59 585.78 40.42Q585.82 40.24 585.82 39.92L585.82 39.92Q585.82 38.99 585.01 38.34Q584.19 37.68 583.07 37.68L583.07 37.68Q582.34 37.68 581.60 38.11Q580.86 38.54 580.38 39.18Q579.90 39.82 579.90 40.46L579.90 40.46Q579.90 40.78 580.29 40.78Z"/>
    <path fill="#94a3b8" opacity="0.8" d="M287.06 90.25L287.06 90.25Q285.81 90.25 284.69 89.81Q283.56 89.37 282.69 88.58Q281.82 87.79 281.31 86.72Q280.81 85.64 280.81 84.40L280.81 84.40Q280.81 83.07 281.33 81.92Q281.85 80.77 282.77 79.90Q283.69 79.04 284.89 78.55Q286.08 78.07 287.43 78.07L287.43 78.07Q287.74 78.07 288.27 78.13Q288.80 78.19 289.37 78.28Q289.94 78.37 290.39 78.47Q290.85 78.57 291.03 78.66L291.03 78.66Q291.12 78.70 291.15 78.74Q291.18 78.79 291.20 78.88L291.20 78.88Q291.27 79.40 291.32 79.91Q291.38 80.42 291.38 80.78L291.38 80.78Q291.38 80.91 291.30 81.03Q291.21 81.14 291.11 81.14L291.11 81.14Q290.93 81.14 290.84 80.98Q290.75 80.82 290.69 80.66L290.69 80.66Q290.58 80.37 290.47 80.16Q290.35 79.96 290.13 79.70L290.13 79.70Q290.03 79.56 289.68 79.33Q289.32 79.11 288.73 78.93Q288.14 78.75 287.27 78.75L287.27 78.75Q286.23 78.75 285.36 79.19Q284.50 79.63 283.88 80.40Q283.26 81.16 282.93 82.13Q282.59 83.11 282.59 84.17L282.59 84.17Q282.59 85.45 282.99 86.45Q283.38 87.46 284.05 88.16Q284.72 88.87 285.56 89.23Q286.41 89.59 287.31 89.59L287.31 89.59Q288.35 89.59 288.85 89.33Q289.34 89.08 289.50 88.92L289.50 88.92Q289.70 88.72 289.87 88.36Q290.04 88.00 290.04 87.53L290.04 87.53Q290.04 87.37 290.05 87.19Q290.06 87.01 290.07 86.83Q290.08 86.65 290.08 86.49L290.08 86.49Q290.08 86.29 290.06 86.16Q290.04 86.02 289.99 85.95L289.99 85.95Q289.85 85.75 289.49 85.63Q289.13 85.50 288.77 85.45Q288.41 85.39 288.23 85.39L288.23 85.39Q288.15 85.39 288.01 85.30Q287.87 85.21 287.87 85.09L287.87 85.09Q287.87 84.94 288.01 84.86Q288.15 84.78 288.23 84.78L288.23 84.78Q288.68 84.78 289 84.80Q289.32 84.82 289.67 84.83Q290.01 84.85 290.49 84.85L290.49 84.85Q290.96 84.85 291.29 84.82Q291.61 84.78 292.10 84.78L292.10 84.78Q292.17 84.78 292.32 84.83Q292.47 84.89 292.47 85.07L292.47 85.07Q292.47 85.19 292.32 85.28Q292.17 85.37 292.10 85.39L292.10 85.39Q291.70 85.50 291.55 85.71Q291.39 85.91 291.34 86.27L291.34 86.27Q291.29 86.67 291.27 86.98Q291.25 87.28 291.25 87.62L291.25 87.62L291.25 88.11Q291.25 88.20 291.29 88.25Q291.32 88.31 291.36 88.40L291.36 88.40Q291.41 88.49 291.50 88.56Q291.59 88.63 291.59 88.70L291.59 88.70Q291.59 88.78 291.56 88.89Q291.54 89.01 291.34 89.05L291.34 89.05Q291.21 89.06 290.85 89.25Q290.48 89.44 289.92 89.68Q289.36 89.91 288.64 90.08Q287.92 90.25 287.06 90.25ZM293.91 90.05L293.91 90.05Q293.75 90.05 293.65 90.01Q293.55 89.96 293.55 89.86L293.55 89.86Q293.55 89.71 293.69 89.66Q293.82 89.60 293.97 89.57L293.97 89.57Q294.35 89.48 294.54 89.34Q294.74 89.21 294.74 88.88L294.74 88.88L294.74 84.98Q294.74 84.49 294.57 84.11Q294.40 83.74 293.93 83.66L293.93 83.66Q293.84 83.65 293.80 83.59Q293.75 83.54 293.75 83.43L293.75 83.43Q293.75 83.23 293.91 83.21L293.91 83.21Q294.63 83.05 295.10 82.77Q295.57 82.49 295.80 82.31L295.80 82.31Q295.97 82.19 296.06 82.19L296.06 82.19Q296.16 82.19 296.16 82.28L296.16 82.28Q296.16 82.42 296.12 82.84Q296.07 83.27 296.04 83.78Q296.00 84.29 296.00 84.71L296.00 84.71L296.00 88.88Q296.00 89.19 296.21 89.33Q296.42 89.48 296.78 89.57L296.78 89.57Q296.92 89.60 297.06 89.66Q297.19 89.71 297.19 89.86L297.19 89.86Q297.19 90.05 296.83 90.05L296.83 90.05Q296.49 90.05 296.28 90.03Q296.07 90 295.88 89.98Q295.70 89.96 295.37 89.96L295.37 89.96Q295.07 89.96 294.87 89.98Q294.67 90 294.47 90.03Q294.27 90.05 293.91 90.05ZM295.35 80.71L295.35 80.71Q294.98 80.71 294.72 80.45Q294.45 80.19 294.45 79.81L294.45 79.81Q294.45 79.42 294.72 79.16Q294.98 78.89 295.35 78.89L295.35 78.89Q295.75 78.89 296.01 79.16Q296.27 79.42 296.27 79.81L296.27 79.81Q296.27 80.19 296.01 80.45Q295.75 80.71 295.35 80.71ZM300.93 90.25L300.93 90.25Q300.05 90.25 299.56 89.71Q299.06 89.17 299.06 88.11L299.06 88.11L299.06 83.93Q299.06 83.79 298.95 83.73Q298.85 83.66 298.49 83.66L298.49 83.66L298.38 83.66Q298.29 83.66 298.23 83.55Q298.16 83.43 298.16 83.30L298.16 83.30Q298.16 83.27 298.22 83.20Q298.27 83.12 298.29 83.11L298.29 83.11Q298.65 82.85 298.95 82.60Q299.24 82.35 299.49 82.11Q299.73 81.86 299.89 81.67L299.89 81.67Q299.98 81.58 300.04 81.51Q300.11 81.45 300.20 81.45L300.20 81.45Q300.29 81.45 300.37 81.49Q300.45 81.52 300.43 81.65L300.43 81.65L300.34 82.46Q300.32 82.66 300.43 82.73Q300.54 82.80 300.77 82.80L300.77 82.80L302.82 82.80Q302.90 82.80 302.95 82.92Q303.00 83.03 303.00 83.20L303.00 83.20Q303.00 83.36 302.95 83.51Q302.90 83.66 302.82 83.66L302.82 83.66L301.04 83.66Q300.59 83.66 300.46 83.74Q300.32 83.81 300.32 84.17L300.32 84.17L300.32 87.71Q300.32 88.43 300.63 88.85Q300.93 89.26 301.51 89.26L301.51 89.26Q302.03 89.26 302.32 89.18Q302.61 89.10 302.84 88.94L302.84 88.94Q302.88 88.90 302.91 88.90L302.91 88.90Q302.99 88.90 303.01 88.98Q303.04 89.06 303.04 89.15L303.04 89.15Q303.04 89.24 302.74 89.51Q302.45 89.78 301.97 90.02Q301.49 90.25 300.93 90.25ZM304.37 90.09L304.37 90.09Q304.14 90.09 303.99 90.03Q303.85 89.96 303.85 89.86L303.85 89.86Q303.85 89.68 304.43 89.57L304.43 89.57Q305.11 89.44 305.32 89.15Q305.52 88.87 305.52 88.22L305.52 88.22L305.52 80.08Q305.52 79.45 305.39 79.19Q305.25 78.93 304.57 78.80L304.57 78.80Q303.98 78.70 303.98 78.48L303.98 78.48Q303.98 78.37 304.10 78.31Q304.23 78.25 304.50 78.25L304.50 78.25Q304.98 78.25 305.25 78.26Q305.52 78.28 305.76 78.29Q305.99 78.30 306.35 78.30L306.35 78.30Q306.73 78.30 306.97 78.29Q307.22 78.28 307.50 78.26Q307.77 78.25 308.26 78.25L308.26 78.25Q308.78 78.25 308.78 78.48L308.78 78.48Q308.78 78.61 308.64 78.68Q308.49 78.75 308.19 78.80L308.19 78.80Q307.52 78.93 307.24 79.25Q306.96 79.56 306.96 80.08L306.96 80.08L306.96 83.63Q306.96 83.74 307.05 83.76Q307.14 83.79 307.22 83.79L307.22 83.79L313.89 83.79Q314.02 83.79 314.02 83.57L314.02 83.57L314.02 80.06Q314.02 79.58 313.77 79.25Q313.52 78.93 312.83 78.80L312.83 78.80Q312.53 78.75 312.38 78.68Q312.24 78.61 312.24 78.48L312.24 78.48Q312.24 78.25 312.76 78.25L312.76 78.25Q313.25 78.25 313.56 78.26Q313.88 78.28 314.16 78.29Q314.45 78.30 314.85 78.30L314.85 78.30Q315.17 78.30 315.35 78.29Q315.53 78.28 315.77 78.26Q316 78.25 316.49 78.25L316.49 78.25Q316.74 78.25 316.87 78.31Q317.01 78.37 317.01 78.48L317.01 78.48Q317.01 78.70 316.41 78.80L316.41 78.80Q315.75 78.93 315.60 79.24Q315.46 79.54 315.46 80.06L315.46 80.06L315.46 88.20Q315.46 88.87 315.63 89.15Q315.80 89.44 316.47 89.57L316.47 89.57Q317.04 89.68 317.04 89.86L317.04 89.86Q317.04 89.96 316.90 90.03Q316.76 90.09 316.52 90.09L316.52 90.09Q316.04 90.09 315.77 90.06Q315.50 90.04 315.26 90.02Q315.03 90 314.65 90L314.65 90Q314.27 90 314.03 90.02Q313.79 90.04 313.50 90.06Q313.21 90.09 312.72 90.09L312.72 90.09Q312.49 90.09 312.35 90.03Q312.20 89.96 312.20 89.86L312.20 89.86Q312.20 89.73 312.34 89.68Q312.47 89.62 312.78 89.57L312.78 89.57Q313.35 89.46 313.69 89.14Q314.02 88.83 314.02 88.25L314.02 88.25L314.02 84.74Q314.02 84.65 314.02 84.56Q314.02 84.47 313.93 84.47L313.93 84.47L307.05 84.47Q306.96 84.47 306.96 84.67L306.96 84.67L306.96 88.09Q306.96 88.65 307.38 89.06Q307.79 89.46 308.40 89.57L308.40 89.57Q308.71 89.62 308.85 89.68Q308.98 89.73 308.98 89.86L308.98 89.86Q308.98 89.96 308.84 90.03Q308.69 90.09 308.46 90.09L308.46 90.09Q307.97 90.09 307.66 90.06Q307.34 90.04 307.05 90.02Q306.77 90 306.35 90L306.35 90Q305.97 90 305.71 90.02Q305.45 90.04 305.16 90.06Q304.86 90.09 304.37 90.09ZM324.35 90.34L324.35 90.34Q324.23 90.34 324.23 90.20L324.23 90.20Q324.23 90.02 324.27 89.67Q324.32 89.32 324.32 89.08L324.32 89.08Q324.32 89.05 324.32 89.02Q324.32 88.99 324.32 88.97L324.32 88.97Q323.61 89.66 322.90 89.95Q322.19 90.25 321.35 90.25L321.35 90.25Q320.77 90.25 320.30 90.01Q319.83 89.77 319.56 89.29Q319.29 88.81 319.29 88.11L319.29 88.11L319.29 84.46Q319.29 84.06 319.11 83.83Q318.93 83.59 318.52 83.43L318.52 83.43Q318.43 83.39 318.36 83.34Q318.29 83.29 318.29 83.14L318.29 83.14Q318.29 82.98 318.37 82.93Q318.45 82.87 318.56 82.85L318.56 82.85Q319.17 82.82 319.50 82.75Q319.83 82.69 320.34 82.57L320.34 82.57Q320.39 82.55 320.42 82.55Q320.45 82.55 320.48 82.55L320.48 82.55Q320.68 82.55 320.66 82.80L320.66 82.80Q320.61 83.21 320.58 83.49Q320.55 83.77 320.55 84.19L320.55 84.19L320.55 87.70Q320.55 88.13 320.77 88.50Q320.99 88.87 321.34 89.10Q321.69 89.33 322.07 89.33L322.07 89.33Q322.53 89.33 322.88 89.28Q323.24 89.23 323.58 88.97L323.58 88.97Q323.78 88.83 324.08 88.51Q324.39 88.18 324.39 87.62L324.39 87.62L324.39 84.33Q324.39 83.95 324.16 83.76Q323.94 83.57 323.65 83.50Q323.36 83.43 323.18 83.43L323.18 83.43Q323.02 83.43 322.91 83.37Q322.80 83.30 322.80 83.12L322.80 83.12Q322.80 82.96 322.92 82.91Q323.04 82.85 323.18 82.85L323.18 82.85Q323.74 82.84 324.11 82.81Q324.48 82.78 324.78 82.72Q325.07 82.66 325.40 82.57L325.40 82.57Q325.43 82.55 325.49 82.54Q325.54 82.53 325.58 82.53L325.58 82.53Q325.81 82.53 325.81 82.73L325.81 82.73Q325.81 82.75 325.80 82.79Q325.79 82.84 325.77 82.89L325.77 82.89Q325.76 82.94 325.73 83.20Q325.70 83.45 325.68 83.72Q325.65 83.99 325.65 84.13L325.65 84.13L325.65 88.29Q325.65 88.78 325.75 88.98Q325.85 89.19 325.97 89.19L325.97 89.19Q326.12 89.19 326.39 89.16Q326.67 89.14 326.80 89.14L326.80 89.14Q326.89 89.14 326.98 89.17Q327.07 89.21 327.07 89.37L327.07 89.37Q327.07 89.51 327.00 89.56Q326.93 89.60 326.82 89.62L326.82 89.62Q326.12 89.71 325.61 89.89Q325.11 90.07 324.71 90.23L324.71 90.23Q324.66 90.25 324.55 90.30Q324.44 90.34 324.35 90.34ZM331.91 90.25L331.91 90.25Q331.52 90.25 331.12 90.18Q330.72 90.11 330.36 90.02L330.36 90.02Q329.97 89.91 329.67 89.82Q329.37 89.73 329.28 89.73L329.28 89.73Q329.18 89.73 329.08 89.80Q328.98 89.87 328.89 89.96L328.89 89.96Q328.80 90.05 328.73 90.05L328.73 90.05Q328.65 90.05 328.56 89.99Q328.47 89.93 328.47 89.84L328.47 89.84Q328.47 89.68 328.54 89.28Q328.60 88.88 328.60 88.54L328.60 88.54L328.60 79.81Q328.60 79.34 328.37 79.00Q328.13 78.66 327.77 78.50L327.77 78.50Q327.70 78.46 327.62 78.40Q327.54 78.34 327.54 78.23L327.54 78.23Q327.54 78.14 327.61 78.10Q327.68 78.07 327.75 78.05L327.75 78.05Q327.99 77.99 328.39 77.85Q328.80 77.71 329.16 77.56Q329.52 77.42 329.64 77.36L329.64 77.36Q329.75 77.31 329.81 77.31L329.81 77.31Q329.84 77.31 329.88 77.35Q329.91 77.38 329.91 77.44L329.91 77.44Q329.91 77.51 329.89 78.04Q329.86 78.57 329.86 79.33L329.86 79.33L329.86 83.02Q329.86 83.36 329.90 83.47Q329.93 83.59 330.02 83.61L330.02 83.61Q330.58 83.14 331.32 82.84Q332.06 82.55 332.65 82.55L332.65 82.55Q333.57 82.55 334.30 83.02Q335.03 83.48 335.46 84.28Q335.89 85.09 335.89 86.09L335.89 86.09Q335.89 87.32 335.39 88.26Q334.88 89.21 333.99 89.73Q333.10 90.25 331.91 90.25ZM332.33 89.69L332.33 89.69Q333.01 89.69 333.50 89.27Q334 88.85 334.27 88.12Q334.54 87.39 334.54 86.49L334.54 86.49Q334.54 85.79 334.28 85.05Q334.02 84.31 333.47 83.81Q332.92 83.30 332.06 83.30L332.06 83.30Q331.34 83.30 330.80 83.54Q330.26 83.77 329.86 84.13L329.86 84.13L329.86 87.62Q329.86 88.25 330.21 88.72Q330.56 89.19 331.13 89.44Q331.70 89.69 332.33 89.69ZM340.61 90.09L340.61 90.09Q340.37 90.09 340.23 90.03Q340.08 89.96 340.08 89.86L340.08 89.86Q340.08 89.73 340.24 89.63Q340.39 89.53 340.68 89.44L340.68 89.44Q341.15 89.30 341.54 89.01Q341.94 88.72 342.23 88.06L342.23 88.06Q342.73 86.90 343.15 85.90Q343.58 84.89 343.95 83.92Q344.33 82.94 344.74 81.89Q345.14 80.84 345.59 79.60L345.59 79.60Q345.68 79.34 345.75 79.09Q345.83 78.84 345.84 78.55L345.84 78.55Q346.01 78.50 346.17 78.44Q346.33 78.39 346.49 78.28L346.49 78.28Q346.65 78.17 346.72 77.96Q346.78 77.74 346.83 77.67L346.83 77.67Q346.85 77.65 346.88 77.65Q346.91 77.65 346.92 77.69L346.92 77.69Q346.96 77.76 346.99 77.87Q347.01 77.98 347.05 78.08L347.05 78.08Q347.48 79.45 347.95 80.87Q348.42 82.30 348.86 83.62Q349.30 84.94 349.67 86.00Q350.04 87.05 350.25 87.70L350.25 87.70Q350.51 88.42 350.79 88.78Q351.08 89.14 351.40 89.28Q351.71 89.42 352.07 89.50L352.07 89.50Q352.38 89.55 352.52 89.67Q352.67 89.78 352.67 89.91L352.67 89.91Q352.67 90.02 352.52 90.05Q352.38 90.09 352.14 90.09L352.14 90.09Q351.89 90.09 351.46 90.06Q351.03 90.04 350.54 90.01Q350.06 89.98 349.64 89.98L349.64 89.98Q349.30 89.98 348.94 89.98Q348.58 89.98 348.27 89.99Q347.97 90 347.75 90L347.75 90Q347.52 90 347.37 89.95Q347.23 89.89 347.23 89.78L347.23 89.78Q347.23 89.66 347.41 89.57Q347.59 89.48 347.82 89.44L347.82 89.44Q348.42 89.35 348.67 89.14Q348.92 88.92 348.92 88.63L348.92 88.63Q348.92 88.36 348.81 87.85Q348.69 87.34 348.53 86.75Q348.36 86.17 348.22 85.72L348.22 85.72Q348.18 85.57 348.08 85.55Q347.99 85.52 347.73 85.52L347.73 85.52L344.33 85.52Q344.26 85.52 344.18 85.58Q344.10 85.64 344.03 85.84L344.03 85.84Q343.97 86.02 343.85 86.41Q343.72 86.80 343.59 87.23Q343.47 87.66 343.38 88.00Q343.29 88.34 343.29 88.43L343.29 88.43Q343.29 88.83 343.59 89.09Q343.90 89.35 344.33 89.46L344.33 89.46Q344.93 89.62 344.93 89.82L344.93 89.82Q344.93 89.93 344.78 89.97Q344.64 90.02 344.40 90.02L344.40 90.02Q344.17 90.02 343.72 90Q343.27 89.98 342.77 89.98L342.77 89.98Q342.17 89.98 341.61 90.04Q341.06 90.09 340.61 90.09ZM344.82 84.92L344.82 84.92L347.61 84.92Q347.86 84.92 347.86 84.83L347.86 84.83Q347.86 84.80 347.85 84.75Q347.84 84.71 347.82 84.65L347.82 84.65L346.42 80.26Q346.31 79.94 346.26 79.94L346.26 79.94Q346.22 79.94 346.11 80.24L346.11 80.24L344.48 84.65Q344.44 84.76 344.44 84.80L344.44 84.80Q344.44 84.89 344.54 84.91Q344.64 84.92 344.82 84.92ZM356.41 90.27L356.41 90.27Q355.51 90.27 354.78 89.81Q354.05 89.35 353.63 88.55Q353.21 87.75 353.21 86.76L353.21 86.76Q353.21 85.59 353.72 84.64Q354.23 83.68 355.10 83.11Q355.96 82.55 357.00 82.55L357.00 82.55Q358.17 82.55 359.06 83.18L359.06 83.18Q359.27 83.34 359.27 83.52L359.27 83.52Q359.27 83.66 359.15 83.84Q359.02 84.02 358.84 84.14Q358.66 84.26 358.50 84.26L358.50 84.26Q358.41 84.26 358.32 84.19Q358.23 84.13 358.12 84.06L358.12 84.06Q357.72 83.75 357.24 83.48Q356.75 83.21 356.43 83.21L356.43 83.21Q355.55 83.21 355.00 84.03Q354.45 84.85 354.45 86.18L354.45 86.18Q354.45 87.03 354.82 87.71Q355.19 88.40 355.81 88.79Q356.43 89.19 357.18 89.19L357.18 89.19Q357.71 89.19 358.08 89.02Q358.46 88.85 358.89 88.42L358.89 88.42Q358.93 88.38 358.98 88.35Q359.04 88.33 359.07 88.33L359.07 88.33Q359.27 88.33 359.27 88.58L359.27 88.58Q359.27 88.69 359.21 88.82Q359.15 88.96 359.00 89.14L359.00 89.14Q358.71 89.50 358.32 89.76Q357.92 90.02 357.45 90.14Q356.97 90.27 356.41 90.27ZM363.30 90.25L363.30 90.25Q362.42 90.25 361.93 89.71Q361.43 89.17 361.43 88.11L361.43 88.11L361.43 83.93Q361.43 83.79 361.32 83.73Q361.22 83.66 360.86 83.66L360.86 83.66L360.75 83.66Q360.66 83.66 360.60 83.55Q360.53 83.43 360.53 83.30L360.53 83.30Q360.53 83.27 360.59 83.20Q360.64 83.12 360.66 83.11L360.66 83.11Q361.02 82.85 361.32 82.60Q361.61 82.35 361.86 82.11Q362.10 81.86 362.26 81.67L362.26 81.67Q362.35 81.58 362.41 81.51Q362.48 81.45 362.57 81.45L362.57 81.45Q362.66 81.45 362.74 81.49Q362.82 81.52 362.80 81.65L362.80 81.65L362.71 82.46Q362.69 82.66 362.80 82.73Q362.91 82.80 363.14 82.80L363.14 82.80L365.19 82.80Q365.27 82.80 365.32 82.92Q365.37 83.03 365.37 83.20L365.37 83.20Q365.37 83.36 365.32 83.51Q365.27 83.66 365.19 83.66L365.19 83.66L363.41 83.66Q362.96 83.66 362.83 83.74Q362.69 83.81 362.69 84.17L362.69 84.17L362.69 87.71Q362.69 88.43 363.00 88.85Q363.30 89.26 363.88 89.26L363.88 89.26Q364.40 89.26 364.69 89.18Q364.98 89.10 365.21 88.94L365.21 88.94Q365.25 88.90 365.28 88.90L365.28 88.90Q365.36 88.90 365.38 88.98Q365.41 89.06 365.41 89.15L365.41 89.15Q365.41 89.24 365.11 89.51Q364.82 89.78 364.34 90.02Q363.86 90.25 363.30 90.25ZM366.35 90.05L366.35 90.05Q366.18 90.05 366.09 90.01Q365.99 89.96 365.99 89.86L365.99 89.86Q365.99 89.71 366.12 89.66Q366.26 89.60 366.40 89.57L366.40 89.57Q366.78 89.48 366.98 89.34Q367.17 89.21 367.17 88.88L367.17 88.88L367.17 84.98Q367.17 84.49 367.00 84.11Q366.83 83.74 366.36 83.66L366.36 83.66Q366.27 83.65 366.23 83.59Q366.18 83.54 366.18 83.43L366.18 83.43Q366.18 83.23 366.35 83.21L366.35 83.21Q367.07 83.05 367.53 82.77Q368.00 82.49 368.24 82.31L368.24 82.31Q368.40 82.19 368.49 82.19L368.49 82.19Q368.60 82.19 368.60 82.28L368.60 82.28Q368.60 82.42 368.55 82.84Q368.51 83.27 368.47 83.78Q368.43 84.29 368.43 84.71L368.43 84.71L368.43 88.88Q368.43 89.19 368.64 89.33Q368.85 89.48 369.21 89.57L369.21 89.57Q369.35 89.60 369.49 89.66Q369.62 89.71 369.62 89.86L369.62 89.86Q369.62 90.05 369.26 90.05L369.26 90.05Q368.92 90.05 368.71 90.03Q368.51 90 368.32 89.98Q368.13 89.96 367.80 89.96L367.80 89.96Q367.50 89.96 367.30 89.98Q367.10 90 366.90 90.03Q366.71 90.05 366.35 90.05ZM367.79 80.71L367.79 80.71Q367.41 80.71 367.15 80.45Q366.89 80.19 366.89 79.81L366.89 79.81Q366.89 79.42 367.15 79.16Q367.41 78.89 367.79 78.89L367.79 78.89Q368.18 78.89 368.44 79.16Q368.70 79.42 368.70 79.81L368.70 79.81Q368.70 80.19 368.44 80.45Q368.18 80.71 367.79 80.71ZM374.18 90.25L374.18 90.25Q373.17 90.25 372.36 89.78Q371.55 89.32 371.07 88.50Q370.59 87.68 370.59 86.63L370.59 86.63Q370.59 85.88 370.89 85.16Q371.19 84.44 371.73 83.84Q372.27 83.25 372.99 82.90Q373.71 82.55 374.54 82.55L374.54 82.55Q375.58 82.55 376.42 83.05Q377.25 83.56 377.75 84.38Q378.24 85.19 378.24 86.17L378.24 86.17Q378.24 87.21 377.79 88.15Q377.33 89.08 376.43 89.67Q375.53 90.25 374.18 90.25ZM374.55 89.71L374.55 89.71Q375.17 89.71 375.65 89.48Q376.14 89.24 376.41 88.72L376.41 88.72Q376.62 88.31 376.70 87.71Q376.77 87.12 376.77 86.60L376.77 86.60Q376.77 85.73 376.45 84.93Q376.14 84.13 375.57 83.62Q375.00 83.11 374.23 83.11L374.23 83.11Q373.74 83.11 373.36 83.26Q372.97 83.41 372.65 83.83L372.65 83.83Q372.29 84.28 372.18 84.92Q372.07 85.57 372.07 86.22L372.07 86.22Q372.07 87.10 372.39 87.90Q372.72 88.70 373.28 89.21Q373.83 89.71 374.55 89.71ZM379.67 90.05L379.67 90.05Q379.50 90.05 379.41 90.01Q379.31 89.96 379.31 89.86L379.31 89.86Q379.31 89.71 379.41 89.67Q379.52 89.62 379.72 89.57L379.72 89.57Q379.99 89.50 380.24 89.37Q380.49 89.24 380.49 88.88L380.49 88.88L380.49 85.01Q380.49 84.53 380.40 84.19Q380.30 83.84 379.83 83.72L379.83 83.72Q379.76 83.68 379.70 83.64Q379.65 83.59 379.65 83.48L379.65 83.48Q379.65 83.29 379.81 83.27L379.81 83.27Q380.44 83.11 380.84 82.87Q381.23 82.64 381.61 82.35L381.61 82.35Q381.66 82.31 381.71 82.29Q381.75 82.26 381.81 82.26L381.81 82.26Q381.84 82.26 381.87 82.30Q381.90 82.33 381.90 82.39L381.90 82.39Q381.90 82.51 381.85 82.90Q381.81 83.29 381.81 83.54L381.81 83.54Q381.81 83.61 381.82 83.67Q381.83 83.74 381.84 83.75L381.84 83.75Q382.47 83.16 383.19 82.85Q383.90 82.55 384.74 82.55L384.74 82.55Q385.62 82.55 386.20 83.27Q386.78 83.99 386.78 85.05L386.78 85.05L386.78 88.88Q386.78 89.24 387.03 89.36Q387.28 89.48 387.55 89.57L387.55 89.57Q387.69 89.62 387.83 89.69Q387.96 89.75 387.96 89.89L387.96 89.89Q387.96 90 387.84 90.03Q387.71 90.05 387.60 90.05L387.60 90.05Q387.24 90.05 387.05 90.03Q386.85 90 386.67 89.98Q386.49 89.96 386.16 89.96L386.16 89.96Q385.86 89.96 385.66 89.98Q385.46 90 385.26 90.03Q385.05 90.05 384.69 90.05L384.69 90.05Q384.60 90.05 384.46 90.03Q384.33 90 384.33 89.89L384.33 89.89Q384.33 89.75 384.46 89.69Q384.60 89.62 384.74 89.57L384.74 89.57Q385.01 89.48 385.26 89.36Q385.52 89.24 385.52 88.88L385.52 88.88L385.52 85.10Q385.52 84.31 385.08 83.87Q384.63 83.43 383.90 83.41L383.90 83.41Q383.25 83.41 382.76 83.62Q382.28 83.83 381.90 84.13L381.90 84.13Q381.83 84.20 381.79 84.32Q381.75 84.44 381.75 84.55L381.75 84.55L381.75 88.88Q381.75 89.24 382.01 89.37Q382.26 89.50 382.53 89.57L382.53 89.57Q382.94 89.68 382.94 89.86L382.94 89.86Q382.94 89.96 382.85 90.01Q382.76 90.05 382.58 90.05L382.58 90.05Q382.22 90.05 382.02 90.03Q381.81 90 381.63 89.98Q381.45 89.96 381.12 89.96L381.12 89.96Q380.82 89.96 380.63 89.98Q380.44 90 380.23 90.03Q380.03 90.05 379.67 90.05ZM390.97 90.25L390.97 90.25Q390.41 90.25 389.93 90.08Q389.44 89.91 389.10 89.60L389.10 89.60Q389.01 89.41 388.96 88.94Q388.92 88.47 388.90 88.16L388.90 88.16Q388.90 88.00 389.13 88.00L389.13 88.00Q389.21 88.00 389.27 88.03Q389.33 88.06 389.35 88.13L389.35 88.13Q389.58 89.01 390.10 89.39Q390.61 89.77 391.13 89.77L391.13 89.77Q391.65 89.77 392.02 89.42Q392.39 89.06 392.39 88.54L392.39 88.54Q392.39 88.06 392.07 87.70Q391.74 87.35 390.93 86.85L390.93 86.85Q390.32 86.47 389.94 86.13Q389.57 85.79 389.40 85.43Q389.22 85.07 389.22 84.62L389.22 84.62Q389.22 84.04 389.49 83.57Q389.76 83.11 390.30 82.83Q390.84 82.55 391.65 82.55L391.65 82.55Q392.19 82.55 392.55 82.66Q392.91 82.76 393.09 82.89L393.09 82.89Q393.24 83.09 393.34 83.51Q393.44 83.93 393.44 84.31L393.44 84.31Q393.44 84.44 393.26 84.44L393.26 84.44Q393.15 84.44 393.05 84.39Q392.95 84.35 392.91 84.28L392.91 84.28Q392.68 83.68 392.33 83.37Q391.98 83.05 391.46 83.05L391.46 83.05Q391.01 83.05 390.66 83.32Q390.30 83.59 390.30 84.11L390.30 84.11Q390.30 84.53 390.57 84.85Q390.83 85.18 391.55 85.59L391.55 85.59Q392.59 86.18 393.10 86.70Q393.62 87.21 393.62 88.06L393.62 88.06Q393.62 89.03 392.88 89.64Q392.14 90.25 390.97 90.25ZM394.88 92.65L394.88 92.65Q394.55 92.65 394.55 92.45L394.55 92.45Q394.55 92.38 394.62 92.31Q394.68 92.25 394.80 92.23L394.80 92.23Q395.20 92.14 395.60 91.93Q395.99 91.71 396.26 91.31Q396.53 90.90 396.53 90.27L396.53 90.27Q396.53 90.05 396.33 89.78Q396.14 89.50 395.83 89.48L395.83 89.48Q395.43 89.44 395.21 89.23Q394.98 89.01 394.98 88.72L394.98 88.72Q394.98 88.36 395.28 88.13Q395.58 87.89 395.97 87.89L395.97 87.89Q396.62 87.89 397.05 88.39Q397.47 88.88 397.47 89.64L397.47 89.64Q397.47 90.32 397.20 90.87Q396.93 91.42 396.51 91.82Q396.10 92.21 395.66 92.43Q395.22 92.65 394.88 92.65ZM407.66 90.22L407.66 90.22Q407.51 90.22 407.46 90.09L407.46 90.09Q407.39 89.89 407.28 89.56Q407.17 89.23 407.08 88.99L407.08 88.99L403.79 80.15Q403.61 79.65 403.30 79.31Q402.99 78.97 402.53 78.84L402.53 78.84Q402.24 78.75 402.09 78.66Q401.93 78.57 401.93 78.44L401.93 78.44Q401.93 78.34 402.08 78.29Q402.22 78.25 402.45 78.25L402.45 78.25Q402.74 78.25 403.09 78.26Q403.44 78.28 403.84 78.29Q404.24 78.30 404.65 78.30L404.65 78.30Q405.01 78.30 405.36 78.29Q405.71 78.28 406.01 78.27Q406.31 78.26 406.49 78.26L406.49 78.26Q406.72 78.26 406.86 78.31Q407.01 78.35 407.01 78.46L407.01 78.46Q407.01 78.59 406.86 78.69Q406.72 78.79 406.41 78.82L406.41 78.82Q405.91 78.88 405.58 79.05Q405.24 79.22 405.24 79.52L405.24 79.52Q405.24 79.83 405.33 80.06Q405.41 80.28 405.44 80.41L405.44 80.41L408.03 87.25Q408.07 87.32 408.12 87.34Q408.18 87.35 408.23 87.23L408.23 87.23L410.70 80.75Q411.06 79.79 410.74 79.35Q410.43 78.91 409.85 78.84L409.85 78.84Q409.58 78.80 409.42 78.70Q409.26 78.61 409.26 78.48L409.26 78.48Q409.26 78.37 409.40 78.33Q409.55 78.28 409.78 78.28L409.78 78.28Q410.01 78.28 410.30 78.28Q410.59 78.28 410.91 78.29Q411.22 78.30 411.56 78.30L411.56 78.30Q412.08 78.30 412.68 78.27Q413.27 78.25 413.61 78.25L413.61 78.25Q413.85 78.25 413.99 78.29Q414.14 78.34 414.14 78.44L414.14 78.44Q414.14 78.57 413.99 78.65Q413.85 78.73 413.54 78.80L413.54 78.80Q412.88 78.95 412.43 79.42Q411.98 79.88 411.78 80.37L411.78 80.37L408.39 88.58Q408.36 88.67 408.26 88.95Q408.16 89.23 408.05 89.55Q407.94 89.87 407.84 90.09L407.84 90.09Q407.82 90.14 407.76 90.18Q407.71 90.22 407.66 90.22ZM414.82 90.05L414.82 90.05Q414.66 90.05 414.56 90.01Q414.46 89.96 414.46 89.86L414.46 89.86Q414.46 89.71 414.60 89.66Q414.73 89.60 414.87 89.57L414.87 89.57Q415.25 89.48 415.45 89.34Q415.65 89.21 415.65 88.88L415.65 88.88L415.65 84.98Q415.65 84.49 415.48 84.11Q415.31 83.74 414.84 83.66L414.84 83.66Q414.75 83.65 414.70 83.59Q414.66 83.54 414.66 83.43L414.66 83.43Q414.66 83.23 414.82 83.21L414.82 83.21Q415.54 83.05 416.01 82.77Q416.48 82.49 416.71 82.31L416.71 82.31Q416.87 82.19 416.96 82.19L416.96 82.19Q417.07 82.19 417.07 82.28L417.07 82.28Q417.07 82.42 417.03 82.84Q416.98 83.27 416.94 83.78Q416.91 84.29 416.91 84.71L416.91 84.71L416.91 88.88Q416.91 89.19 417.12 89.33Q417.32 89.48 417.68 89.57L417.68 89.57Q417.83 89.60 417.96 89.66Q418.10 89.71 418.10 89.86L418.10 89.86Q418.10 90.05 417.74 90.05L417.74 90.05Q417.39 90.05 417.19 90.03Q416.98 90 416.79 89.98Q416.60 89.96 416.28 89.96L416.28 89.96Q415.97 89.96 415.77 89.98Q415.58 90 415.38 90.03Q415.18 90.05 414.82 90.05ZM416.26 80.71L416.26 80.71Q415.88 80.71 415.62 80.45Q415.36 80.19 415.36 79.81L415.36 79.81Q415.36 79.42 415.62 79.16Q415.88 78.89 416.26 78.89L416.26 78.89Q416.66 78.89 416.92 79.16Q417.18 79.42 417.18 79.81L417.18 79.81Q417.18 80.19 416.92 80.45Q416.66 80.71 416.26 80.71ZM421.84 90.25L421.84 90.25Q420.96 90.25 420.46 89.71Q419.97 89.17 419.97 88.11L419.97 88.11L419.97 83.93Q419.97 83.79 419.86 83.73Q419.75 83.66 419.39 83.66L419.39 83.66L419.28 83.66Q419.19 83.66 419.13 83.55Q419.07 83.43 419.07 83.30L419.07 83.30Q419.07 83.27 419.12 83.20Q419.18 83.12 419.19 83.11L419.19 83.11Q419.55 82.85 419.85 82.60Q420.15 82.35 420.39 82.11Q420.63 81.86 420.80 81.67L420.80 81.67Q420.89 81.58 420.95 81.51Q421.01 81.45 421.10 81.45L421.10 81.45Q421.19 81.45 421.27 81.49Q421.35 81.52 421.34 81.65L421.34 81.65L421.25 82.46Q421.23 82.66 421.34 82.73Q421.44 82.80 421.68 82.80L421.68 82.80L423.73 82.80Q423.80 82.80 423.86 82.92Q423.91 83.03 423.91 83.20L423.91 83.20Q423.91 83.36 423.86 83.51Q423.80 83.66 423.73 83.66L423.73 83.66L421.95 83.66Q421.50 83.66 421.36 83.74Q421.23 83.81 421.23 84.17L421.23 84.17L421.23 87.71Q421.23 88.43 421.53 88.85Q421.84 89.26 422.42 89.26L422.42 89.26Q422.94 89.26 423.23 89.18Q423.51 89.10 423.75 88.94L423.75 88.94Q423.78 88.90 423.82 88.90L423.82 88.90Q423.89 88.90 423.92 88.98Q423.95 89.06 423.95 89.15L423.95 89.15Q423.95 89.24 423.65 89.51Q423.35 89.78 422.88 90.02Q422.40 90.25 421.84 90.25ZM427.92 90.27L427.92 90.27Q426.93 90.27 426.20 89.78Q425.46 89.30 425.04 88.41Q424.63 87.52 424.63 86.35L424.63 86.35Q424.63 85.30 425.11 84.45Q425.58 83.59 426.38 83.07Q427.17 82.55 428.10 82.55L428.10 82.55Q428.82 82.55 429.38 82.84Q429.94 83.12 430.26 83.64Q430.57 84.15 430.57 84.82L430.57 84.82Q430.57 85.37 430.03 85.37L430.03 85.37L426.23 85.37Q425.98 85.37 425.88 85.51Q425.78 85.64 425.78 86.04L425.78 86.04Q425.78 86.90 426.16 87.61Q426.54 88.33 427.17 88.75Q427.80 89.17 428.55 89.17L428.55 89.17Q429.09 89.17 429.54 88.97Q429.98 88.76 430.32 88.36L430.32 88.36Q430.39 88.27 430.43 88.25Q430.46 88.22 430.52 88.22L430.52 88.22Q430.66 88.22 430.66 88.40L430.66 88.40Q430.66 88.74 430.34 89.15L430.34 89.15Q430.07 89.50 429.69 89.75Q429.31 90 428.86 90.14Q428.41 90.27 427.92 90.27ZM426.27 84.82L426.27 84.82L427.91 84.82Q428.34 84.82 428.64 84.80Q428.95 84.78 429.24 84.73L429.24 84.73Q429.33 84.71 429.36 84.61Q429.38 84.51 429.38 84.33L429.38 84.33Q429.38 83.81 428.92 83.44Q428.46 83.07 427.83 83.07L427.83 83.07Q427.42 83.07 427.01 83.31Q426.59 83.56 426.32 83.92Q426.05 84.28 426.05 84.64L426.05 84.64Q426.05 84.82 426.27 84.82ZM431.79 92.65L431.79 92.65Q431.47 92.65 431.47 92.45L431.47 92.45Q431.47 92.38 431.53 92.31Q431.60 92.25 431.72 92.23L431.72 92.23Q432.12 92.14 432.51 91.93Q432.91 91.71 433.18 91.31Q433.45 90.90 433.45 90.27L433.45 90.27Q433.45 90.05 433.25 89.78Q433.05 89.50 432.75 89.48L432.75 89.48Q432.35 89.44 432.13 89.23Q431.90 89.01 431.90 88.72L431.90 88.72Q431.90 88.36 432.20 88.13Q432.50 87.89 432.89 87.89L432.89 87.89Q433.54 87.89 433.96 88.39Q434.39 88.88 434.39 89.64L434.39 89.64Q434.39 90.32 434.12 90.87Q433.85 91.42 433.43 91.82Q433.02 92.21 432.58 92.43Q432.14 92.65 431.79 92.65ZM445.53 90.13L445.53 90.13Q445.35 90.13 444.73 90.09Q444.11 90.05 443.31 90.03Q442.50 90 441.78 90L441.78 90Q441.42 90 441.18 90.02Q440.94 90.04 440.66 90.06Q440.38 90.09 439.89 90.09L439.89 90.09Q439.66 90.09 439.52 90.04Q439.37 89.98 439.37 89.86L439.37 89.86Q439.37 89.71 439.52 89.67Q439.66 89.62 439.97 89.57L439.97 89.57Q440.65 89.44 440.91 89.15Q441.17 88.87 441.17 88.22L441.17 88.22L441.17 80.12Q441.17 79.47 440.91 79.20Q440.65 78.93 439.97 78.80L439.97 78.80Q439.66 78.75 439.52 78.69Q439.37 78.62 439.37 78.48L439.37 78.48Q439.37 78.35 439.52 78.30Q439.66 78.25 439.89 78.25L439.89 78.25Q440.36 78.25 440.64 78.25Q440.92 78.26 441.19 78.27Q441.46 78.28 441.89 78.28L441.89 78.28Q442.18 78.28 442.62 78.26Q443.06 78.25 443.54 78.21Q444.02 78.17 444.40 78.16Q444.79 78.14 444.97 78.14L444.97 78.14Q446.81 78.14 448.10 78.58Q449.40 79.02 450.21 79.80Q451.02 80.59 451.41 81.62Q451.79 82.66 451.79 83.84L451.79 83.84Q451.79 85.14 451.31 86.27Q450.82 87.41 449.96 88.28Q449.09 89.15 447.96 89.64Q446.82 90.13 445.53 90.13ZM445.31 89.50L445.31 89.50Q446.72 89.50 447.80 88.81Q448.88 88.13 449.48 86.92Q450.08 85.72 450.08 84.15L450.08 84.15Q450.08 82.85 449.65 81.84Q449.22 80.82 448.50 80.13Q447.78 79.43 446.88 79.06Q445.98 78.70 445.06 78.70L445.06 78.70Q444.29 78.70 443.74 78.74Q443.19 78.79 442.90 79.02Q442.61 79.25 442.61 79.79L442.61 79.79L442.61 87.82Q442.61 88.54 443.01 88.90Q443.40 89.26 444.03 89.38Q444.65 89.50 445.31 89.50ZM456.63 90.25L456.63 90.25Q455.63 90.25 454.82 89.78Q454.01 89.32 453.53 88.50Q453.05 87.68 453.05 86.63L453.05 86.63Q453.05 85.88 453.35 85.16Q453.65 84.44 454.19 83.84Q454.73 83.25 455.45 82.90Q456.17 82.55 456.99 82.55L456.99 82.55Q458.04 82.55 458.88 83.05Q459.71 83.56 460.21 84.38Q460.70 85.19 460.70 86.17L460.70 86.17Q460.70 87.21 460.24 88.15Q459.78 89.08 458.88 89.67Q457.98 90.25 456.63 90.25ZM457.01 89.71L457.01 89.71Q457.62 89.71 458.11 89.48Q458.60 89.24 458.87 88.72L458.87 88.72Q459.08 88.31 459.15 87.71Q459.23 87.12 459.23 86.60L459.23 86.60Q459.23 85.73 458.91 84.93Q458.60 84.13 458.03 83.62Q457.46 83.11 456.69 83.11L456.69 83.11Q456.20 83.11 455.82 83.26Q455.43 83.41 455.10 83.83L455.10 83.83Q454.74 84.28 454.64 84.92Q454.53 85.57 454.53 86.22L454.53 86.22Q454.53 87.10 454.85 87.90Q455.18 88.70 455.73 89.21Q456.29 89.71 457.01 89.71ZM465.17 90.27L465.17 90.27Q464.27 90.27 463.54 89.81Q462.81 89.35 462.39 88.55Q461.96 87.75 461.96 86.76L461.96 86.76Q461.96 85.59 462.48 84.64Q462.99 83.68 463.85 83.11Q464.72 82.55 465.76 82.55L465.76 82.55Q466.93 82.55 467.81 83.18L467.81 83.18Q468.03 83.34 468.03 83.52L468.03 83.52Q468.03 83.66 467.90 83.84Q467.78 84.02 467.60 84.14Q467.42 84.26 467.25 84.26L467.25 84.26Q467.16 84.26 467.07 84.19Q466.98 84.13 466.88 84.06L466.88 84.06Q466.48 83.75 465.99 83.48Q465.51 83.21 465.18 83.21L465.18 83.21Q464.30 83.21 463.75 84.03Q463.20 84.85 463.20 86.18L463.20 86.18Q463.20 87.03 463.57 87.71Q463.94 88.40 464.56 88.79Q465.18 89.19 465.94 89.19L465.94 89.19Q466.46 89.19 466.84 89.02Q467.22 88.85 467.65 88.42L467.65 88.42Q467.69 88.38 467.74 88.35Q467.79 88.33 467.83 88.33L467.83 88.33Q468.03 88.33 468.03 88.58L468.03 88.58Q468.03 88.69 467.97 88.82Q467.90 88.96 467.76 89.14L467.76 89.14Q467.47 89.50 467.07 89.76Q466.68 90.02 466.20 90.14Q465.72 90.27 465.17 90.27ZM469.41 90.05L469.41 90.05Q469.00 90.05 469.00 89.86L469.00 89.86Q469.00 89.71 469.14 89.67Q469.27 89.62 469.41 89.57L469.41 89.57Q469.68 89.48 469.94 89.33Q470.19 89.19 470.19 88.83L470.19 88.83L470.19 79.81Q470.19 79.18 470.01 78.89Q469.83 78.61 469.38 78.50L469.38 78.50Q469.22 78.46 469.22 78.26L469.22 78.26Q469.22 78.08 469.36 78.05L469.36 78.05Q469.83 77.94 470.17 77.82Q470.51 77.71 470.79 77.59Q471.07 77.47 471.34 77.36L471.34 77.36Q471.45 77.31 471.50 77.31L471.50 77.31Q471.56 77.31 471.58 77.35Q471.61 77.38 471.61 77.47L471.61 77.47Q471.61 77.65 471.53 78.19Q471.45 78.73 471.45 79.88L471.45 79.88L471.45 85.79Q471.45 85.95 471.54 85.95L471.54 85.95Q471.65 85.95 471.82 85.86Q471.99 85.77 472.19 85.59L472.19 85.59Q472.92 84.96 473.42 84.45Q473.91 83.93 474.09 83.74L474.09 83.74Q474.18 83.63 474.22 83.56Q474.26 83.50 474.26 83.47L474.26 83.47Q474.26 83.38 474.10 83.30Q473.95 83.23 473.79 83.20L473.79 83.20Q473.57 83.14 473.57 83.02L473.57 83.02Q473.57 82.93 473.68 82.86Q473.79 82.80 473.97 82.80L473.97 82.80L474.85 82.80Q475.14 82.80 475.45 82.75Q475.77 82.69 476.05 82.64Q476.33 82.58 476.49 82.58L476.49 82.58Q476.74 82.58 476.74 82.76L476.74 82.76Q476.74 82.87 476.61 82.95Q476.49 83.03 476.29 83.09L476.29 83.09Q475.95 83.18 475.65 83.34Q475.35 83.50 475.10 83.65L475.10 83.65Q474.99 83.72 474.61 84.03Q474.22 84.35 473.73 84.76Q473.23 85.18 472.80 85.55L472.80 85.55Q472.69 85.66 472.69 85.73L472.69 85.73Q472.69 85.75 472.71 85.79Q472.73 85.82 472.74 85.86L472.74 85.86Q473.21 86.44 473.75 87.03Q474.29 87.62 474.75 88.07Q475.21 88.52 475.39 88.70L475.39 88.70Q475.70 88.99 476.08 89.22Q476.47 89.44 476.74 89.53L476.74 89.53Q476.94 89.60 477.11 89.66Q477.28 89.71 477.28 89.86L477.28 89.86Q477.28 90.05 476.92 90.05L476.92 90.05Q476.22 90.05 475.35 90.03Q474.47 90 473.55 90L473.55 90Q473.23 90 473.23 89.84L473.23 89.84Q473.23 89.73 473.32 89.66Q473.41 89.59 473.54 89.55L473.54 89.55Q473.73 89.48 473.88 89.39Q474.02 89.30 474.02 89.14L474.02 89.14Q474.02 89.08 473.99 89.02Q473.95 88.96 473.90 88.88L473.90 88.88L471.72 86.42Q471.61 86.29 471.54 86.29L471.54 86.29Q471.45 86.29 471.45 86.42L471.45 86.42Q471.43 86.67 471.43 86.97Q471.43 87.26 471.43 87.57L471.43 87.57Q471.43 87.88 471.43 88.20Q471.43 88.52 471.45 88.83L471.45 88.83Q471.45 89.19 471.63 89.33Q471.81 89.48 472.08 89.57L472.08 89.57Q472.22 89.62 472.36 89.67Q472.49 89.71 472.49 89.86L472.49 89.86Q472.49 89.98 472.32 90.02Q472.15 90.05 472.08 90.05L472.08 90.05Q471.74 90.05 471.57 90.03Q471.41 90 471.28 89.98Q471.14 89.96 470.82 89.96L470.82 89.96Q470.51 89.96 470.33 89.98Q470.15 90 469.96 90.03Q469.77 90.05 469.41 90.05ZM480.93 90.27L480.93 90.27Q479.94 90.27 479.21 89.78Q478.47 89.30 478.05 88.41Q477.64 87.52 477.64 86.35L477.64 86.35Q477.64 85.30 478.12 84.45Q478.59 83.59 479.39 83.07Q480.18 82.55 481.11 82.55L481.11 82.55Q481.83 82.55 482.39 82.84Q482.95 83.12 483.27 83.64Q483.58 84.15 483.58 84.82L483.58 84.82Q483.58 85.37 483.04 85.37L483.04 85.37L479.24 85.37Q478.99 85.37 478.89 85.51Q478.79 85.64 478.79 86.04L478.79 86.04Q478.79 86.90 479.17 87.61Q479.55 88.33 480.18 88.75Q480.81 89.17 481.56 89.17L481.56 89.17Q482.10 89.17 482.55 88.97Q482.99 88.76 483.33 88.36L483.33 88.36Q483.40 88.27 483.44 88.25Q483.47 88.22 483.53 88.22L483.53 88.22Q483.67 88.22 483.67 88.40L483.67 88.40Q483.67 88.74 483.35 89.15L483.35 89.15Q483.08 89.50 482.70 89.75Q482.32 90 481.87 90.14Q481.42 90.27 480.93 90.27ZM479.28 84.82L479.28 84.82L480.92 84.82Q481.35 84.82 481.65 84.80Q481.96 84.78 482.25 84.73L482.25 84.73Q482.34 84.71 482.37 84.61Q482.39 84.51 482.39 84.33L482.39 84.33Q482.39 83.81 481.93 83.44Q481.47 83.07 480.84 83.07L480.84 83.07Q480.43 83.07 480.02 83.31Q479.60 83.56 479.33 83.92Q479.06 84.28 479.06 84.64L479.06 84.64Q479.06 84.82 479.28 84.82ZM485.00 90.05L485.00 90.05Q484.82 90.05 484.73 90.01Q484.64 89.96 484.64 89.86L484.64 89.86Q484.64 89.71 484.75 89.67Q484.86 89.62 485.06 89.57L485.06 89.57Q485.40 89.48 485.57 89.31Q485.74 89.14 485.74 88.88L485.74 88.88L485.74 85.01Q485.74 84.53 485.60 84.17Q485.45 83.81 485.00 83.72L485.00 83.72Q484.93 83.70 484.88 83.63Q484.82 83.56 484.82 83.48L484.82 83.48Q484.82 83.30 484.98 83.27L484.98 83.27Q485.45 83.12 485.97 82.84Q486.48 82.57 486.77 82.39L486.77 82.39Q486.87 82.31 486.94 82.29Q487.00 82.26 487.04 82.26L487.04 82.26Q487.13 82.26 487.13 82.39L487.13 82.39Q487.13 82.44 487.12 82.66Q487.11 82.87 487.10 83.16Q487.09 83.45 487.07 83.74L487.07 83.74Q487.07 83.77 487.11 83.77L487.11 83.77Q487.40 83.41 487.75 83.14Q488.10 82.87 488.47 82.71Q488.84 82.55 489.18 82.55L489.18 82.55Q489.56 82.55 489.80 82.71Q490.04 82.87 490.04 83.12L490.04 83.12Q490.04 83.30 489.94 83.52Q489.84 83.74 489.68 83.90Q489.52 84.06 489.34 84.06L489.34 84.06Q489.23 84.06 489.11 84.02Q488.98 83.97 488.84 83.90L488.84 83.90Q488.69 83.84 488.55 83.79Q488.40 83.74 488.26 83.74L488.26 83.74Q487.83 83.74 487.42 84.04Q487.02 84.35 487.02 85.25L487.02 85.25L487.02 88.88Q487.02 89.12 487.27 89.27Q487.52 89.42 487.97 89.57L487.97 89.57Q488.17 89.62 488.28 89.68Q488.39 89.73 488.39 89.86L488.39 89.86Q488.39 90.05 488.03 90.05L488.03 90.05Q487.49 90.05 487.21 90.01Q486.93 89.96 486.46 89.96L486.46 89.96Q486.15 89.96 485.97 89.98Q485.78 90 485.57 90.03Q485.36 90.05 485.00 90.05ZM490.82 92.65L490.82 92.65Q490.49 92.65 490.49 92.45L490.49 92.45Q490.49 92.38 490.56 92.31Q490.62 92.25 490.74 92.23L490.74 92.23Q491.14 92.14 491.54 91.93Q491.93 91.71 492.20 91.31Q492.47 90.90 492.47 90.27L492.47 90.27Q492.47 90.05 492.27 89.78Q492.08 89.50 491.77 89.48L491.77 89.48Q491.37 89.44 491.15 89.23Q490.92 89.01 490.92 88.72L490.92 88.72Q490.92 88.36 491.22 88.13Q491.52 87.89 491.91 87.89L491.91 87.89Q492.56 87.89 492.99 88.39Q493.41 88.88 493.41 89.64L493.41 89.64Q493.41 90.32 493.14 90.87Q492.87 91.42 492.45 91.82Q492.04 92.21 491.60 92.43Q491.16 92.65 490.82 92.65ZM498.83 90.09L498.83 90.09Q498.59 90.09 498.45 90.05Q498.30 90 498.30 89.89L498.30 89.89Q498.30 89.68 498.90 89.57L498.90 89.57Q499.58 89.44 499.90 89.15Q500.21 88.87 500.21 88.20L500.21 88.20L500.21 80.60Q500.21 79.79 500.01 79.36Q499.80 78.93 499.11 78.80L499.11 78.80Q498.81 78.75 498.66 78.66Q498.52 78.57 498.52 78.44L498.52 78.44Q498.52 78.34 498.66 78.29Q498.81 78.25 499.04 78.25L499.04 78.25Q499.53 78.25 499.77 78.25Q500.01 78.25 500.23 78.25Q500.45 78.26 500.81 78.26L500.81 78.26Q501.17 78.26 501.54 78.24Q501.90 78.21 502.23 78.18Q502.55 78.16 502.80 78.16L502.80 78.16Q504.86 78.16 506.11 79.00Q507.36 79.85 507.36 81.36L507.36 81.36Q507.36 82.46 506.93 83.39Q506.49 84.31 505.60 84.87Q504.71 85.43 503.33 85.43L503.33 85.43Q502.93 85.43 502.72 85.31Q502.52 85.19 502.52 85.09L502.52 85.09Q502.52 85.01 502.62 84.92Q502.71 84.83 502.80 84.83L502.80 84.83Q502.89 84.83 503.08 84.85Q503.27 84.87 503.63 84.87L503.63 84.87Q504.71 84.87 505.26 83.97Q505.81 83.07 505.81 81.49L505.81 81.49Q505.81 80.05 504.96 79.35Q504.12 78.66 502.80 78.66L502.80 78.66Q502.30 78.66 501.98 78.83Q501.65 79.00 501.65 79.42L501.65 79.42L501.65 88.00Q501.65 88.65 501.92 89.05Q502.19 89.44 502.86 89.57L502.86 89.57Q503.16 89.62 503.31 89.69Q503.45 89.77 503.45 89.89L503.45 89.89Q503.45 90 503.31 90.05Q503.16 90.09 502.93 90.09L502.93 90.09Q502.44 90.09 502.18 90.05Q501.92 90.02 501.72 89.99Q501.51 89.96 501.17 89.96L501.17 89.96Q500.72 89.96 500.37 89.99Q500.01 90.02 499.66 90.05Q499.31 90.09 498.83 90.09ZM508.51 90.05L508.51 90.05Q508.42 90.05 508.29 90.03Q508.15 90 508.15 89.89L508.15 89.89Q508.15 89.75 508.29 89.69Q508.42 89.62 508.56 89.57L508.56 89.57Q508.83 89.48 509.09 89.36Q509.34 89.24 509.34 88.88L509.34 88.88L509.34 79.81Q509.34 79.29 509.15 78.94Q508.96 78.59 508.51 78.50L508.51 78.50Q508.37 78.46 508.37 78.26L508.37 78.26Q508.37 78.08 508.49 78.05L508.49 78.05Q508.96 77.94 509.30 77.82Q509.64 77.71 509.94 77.58Q510.24 77.45 510.53 77.35L510.53 77.35Q510.60 77.31 510.63 77.31L510.63 77.31Q510.67 77.31 510.70 77.36Q510.72 77.40 510.72 77.44L510.72 77.44Q510.72 77.60 510.66 78.13Q510.60 78.66 510.60 79.88L510.60 79.88L510.60 88.88Q510.60 89.24 510.85 89.36Q511.10 89.48 511.37 89.57L511.37 89.57Q511.52 89.62 511.65 89.69Q511.79 89.75 511.79 89.89L511.79 89.89Q511.79 90 511.65 90.03Q511.52 90.05 511.43 90.05L511.43 90.05Q511.08 90.05 510.88 90.03Q510.67 90 510.48 89.98Q510.29 89.96 509.97 89.96L509.97 89.96Q509.66 89.96 509.46 89.98Q509.27 90 509.07 90.03Q508.87 90.05 508.51 90.05ZM514.23 90.25L514.23 90.25Q513.91 90.25 513.58 90Q513.24 89.75 513.02 89.39Q512.79 89.03 512.79 88.70L512.79 88.70Q512.79 88.13 513.10 87.80Q513.41 87.48 514.07 87.21L514.07 87.21L515.91 86.45Q516.27 86.31 516.33 86.20Q516.39 86.09 516.41 85.73L516.41 85.73L516.45 84.58Q516.47 84.11 516.19 83.77Q515.91 83.43 515.39 83.43L515.39 83.43Q515.12 83.43 514.85 83.52Q514.58 83.61 514.40 83.75L514.40 83.75Q514.29 83.83 514.25 83.97Q514.22 84.11 514.22 84.28L514.22 84.28Q514.22 84.35 514.23 84.44Q514.23 84.53 514.23 84.60L514.23 84.60Q514.23 84.69 514.01 84.84Q513.78 85.00 513.51 85.11Q513.23 85.23 513.05 85.23L513.05 85.23Q512.96 85.23 512.90 85.19Q512.85 85.14 512.85 85.07L512.85 85.07Q512.85 84.78 513.04 84.45Q513.23 84.11 513.57 83.83L513.57 83.83Q513.98 83.45 514.47 83.16Q514.95 82.87 515.42 82.71Q515.89 82.55 516.25 82.55L516.25 82.55Q516.90 82.55 517.32 83.01Q517.74 83.47 517.73 84.15L517.73 84.15L517.64 88.47Q517.62 88.85 517.81 89.08Q518.00 89.32 518.28 89.32L518.28 89.32Q518.73 89.32 518.95 89.12L518.95 89.12Q519.04 89.03 519.09 89.03L519.09 89.03Q519.18 89.03 519.24 89.08Q519.29 89.14 519.29 89.23L519.29 89.23Q519.29 89.42 519.09 89.62L519.09 89.62Q518.81 89.91 518.47 90.08Q518.14 90.25 517.85 90.25L517.85 90.25Q517.02 90.25 516.54 89.32L516.54 89.32L516.48 89.32Q515.89 89.80 515.35 90.03Q514.81 90.25 514.23 90.25ZM515.08 89.39L515.08 89.39Q515.44 89.39 515.69 89.27Q515.94 89.15 516.14 88.96L516.14 88.96Q516.23 88.87 516.30 88.71Q516.36 88.56 516.38 88.22L516.38 88.22L516.41 87.34Q516.43 87.14 516.39 87.05Q516.36 86.96 516.25 86.96L516.25 86.96Q516.21 86.96 516.12 86.98Q516.03 86.99 515.89 87.05L515.89 87.05Q514.94 87.39 514.57 87.76Q514.20 88.13 514.20 88.43L514.20 88.43Q514.20 88.90 514.48 89.14Q514.76 89.39 515.08 89.39ZM520.46 95.13L520.46 95.13Q520.12 95.13 519.83 94.96Q519.54 94.79 519.54 94.39L519.54 94.39Q519.54 94.07 519.70 93.83Q519.85 93.58 520.14 93.58L520.14 93.58Q520.34 93.58 520.53 93.64Q520.71 93.69 520.86 93.69L520.86 93.69Q520.97 93.69 521.05 93.64Q521.13 93.60 521.20 93.49L521.20 93.49Q521.40 93.17 521.66 92.68Q521.92 92.20 522.20 91.58Q522.48 90.97 522.73 90.29L522.73 90.29Q522.78 90.13 522.78 89.87L522.78 89.87Q522.78 89.73 522.77 89.59Q522.75 89.46 522.71 89.35L522.71 89.35L520.62 84.08Q520.50 83.75 520.29 83.51Q520.08 83.27 519.81 83.20L519.81 83.20Q519.67 83.14 519.54 83.07Q519.40 83.00 519.40 82.87L519.40 82.87Q519.40 82.76 519.54 82.74Q519.67 82.71 519.76 82.71L519.76 82.71Q520.12 82.71 520.29 82.73Q520.46 82.75 520.62 82.77Q520.77 82.80 521.07 82.80L521.07 82.80Q521.40 82.80 521.56 82.77Q521.72 82.75 521.90 82.73Q522.08 82.71 522.44 82.71L522.44 82.71Q522.55 82.71 522.68 82.75Q522.80 82.80 522.80 82.91L522.80 82.91Q522.80 83.03 522.61 83.15Q522.42 83.27 522.28 83.30L522.28 83.30Q522.10 83.36 522.01 83.49Q521.92 83.63 521.92 83.88L521.92 83.88Q521.92 83.99 521.97 84.14Q522.03 84.29 522.06 84.38L522.06 84.38L523.52 87.98Q523.56 88.09 523.63 88.09L523.63 88.09Q523.68 88.09 523.72 87.98L523.72 87.98L524.96 84.69Q525.02 84.56 525.06 84.36Q525.11 84.15 525.11 84.02L525.11 84.02Q525.11 83.68 525.01 83.55Q524.91 83.41 524.75 83.34L524.75 83.34Q524.60 83.27 524.41 83.15Q524.22 83.03 524.22 82.91L524.22 82.91Q524.22 82.80 524.36 82.75Q524.49 82.71 524.58 82.71L524.58 82.71Q524.84 82.71 525.10 82.75Q525.36 82.80 525.86 82.80L525.86 82.80Q526.20 82.80 526.36 82.77Q526.51 82.75 526.62 82.73Q526.73 82.71 526.92 82.71L526.92 82.71Q527.01 82.71 527.15 82.74Q527.28 82.76 527.28 82.87L527.28 82.87Q527.28 83.00 527.15 83.07Q527.01 83.14 526.87 83.20L526.87 83.20Q526.60 83.27 526.29 83.62Q525.99 83.97 525.81 84.40L525.81 84.40L523.36 90.23Q523.34 90.29 523.17 90.70Q523.00 91.12 522.75 91.73Q522.50 92.34 522.20 93.04Q521.90 93.74 521.63 94.39L521.63 94.39Q521.47 94.75 521.16 94.94Q520.86 95.13 520.46 95.13ZM531.26 90.41L531.26 90.41Q531.23 90.41 531.19 90.38Q531.15 90.34 531.14 90.29L531.14 90.29L528.63 84.08Q528.51 83.72 528.24 83.49Q527.97 83.27 527.70 83.20L527.70 83.20Q527.55 83.14 527.42 83.07Q527.28 83.00 527.28 82.87L527.28 82.87Q527.28 82.76 527.42 82.74Q527.55 82.71 527.64 82.71L527.64 82.71Q527.88 82.71 528.09 82.73Q528.29 82.75 528.51 82.77Q528.72 82.80 528.96 82.80L528.96 82.80Q529.21 82.80 529.46 82.77Q529.71 82.75 529.96 82.73Q530.20 82.71 530.45 82.71L530.45 82.71Q530.52 82.71 530.67 82.74Q530.81 82.76 530.81 82.87L530.81 82.87Q530.81 83.00 530.68 83.07Q530.54 83.14 530.40 83.20L530.40 83.20Q530.22 83.25 530.12 83.46Q530.02 83.66 530.02 83.92L530.02 83.92Q530.02 84.15 530.11 84.38L530.11 84.38L531.51 88.00Q531.53 88.07 531.60 88.07L531.60 88.07Q531.68 88.07 531.69 88.00L531.69 88.00L532.92 85.09Q533.01 84.85 533.04 84.64Q533.06 84.42 533.06 84.22L533.06 84.22Q533.06 83.83 532.76 83.57Q532.45 83.32 532.14 83.20L532.14 83.20Q532.00 83.14 531.87 83.07Q531.73 83.00 531.73 82.87L531.73 82.87Q531.73 82.76 531.86 82.74Q531.98 82.71 532.09 82.71L532.09 82.71Q532.34 82.71 532.64 82.75Q532.94 82.80 533.44 82.80L533.44 82.80Q533.94 82.80 534.30 82.75Q534.66 82.71 534.95 82.71L534.95 82.71Q535.04 82.71 535.18 82.74Q535.31 82.76 535.31 82.87L535.31 82.87Q535.31 83.00 535.18 83.07Q535.04 83.14 534.90 83.20L534.90 83.20Q534.70 83.27 534.49 83.39Q534.29 83.52 534.29 83.84L534.29 83.84Q534.29 83.95 534.31 84.09Q534.34 84.22 534.41 84.38L534.41 84.38L535.76 87.86Q535.85 88.06 535.91 88.06L535.91 88.06Q535.98 88.06 536.05 87.88L536.05 87.88L537.42 84.69Q537.49 84.55 537.52 84.33Q537.54 84.11 537.54 83.99L537.54 83.99Q537.54 83.66 537.33 83.47Q537.11 83.27 536.91 83.20L536.91 83.20Q536.77 83.14 536.64 83.07Q536.50 83.00 536.50 82.87L536.50 82.87Q536.50 82.76 536.64 82.74Q536.77 82.71 536.86 82.71L536.86 82.71Q537.26 82.71 537.49 82.75Q537.72 82.80 538.21 82.80L538.21 82.80Q538.55 82.80 538.70 82.77Q538.84 82.75 538.95 82.73Q539.06 82.71 539.25 82.71L539.25 82.71Q539.36 82.71 539.49 82.74Q539.61 82.76 539.61 82.87L539.61 82.87Q539.61 83.00 539.48 83.07Q539.34 83.14 539.20 83.20L539.20 83.20Q538.93 83.27 538.68 83.62Q538.43 83.97 538.25 84.38L538.25 84.38L535.78 90.29Q535.73 90.41 535.62 90.41L535.62 90.41Q535.55 90.41 535.47 90.29L535.47 90.29L533.60 85.64Q533.55 85.50 533.49 85.48L533.49 85.48Q533.44 85.48 533.37 85.66L533.37 85.66L531.41 90.29Q531.35 90.41 531.26 90.41ZM540.41 90.05L540.41 90.05Q540.23 90.05 540.14 90.01Q540.05 89.96 540.05 89.86L540.05 89.86Q540.05 89.71 540.15 89.67Q540.26 89.62 540.46 89.57L540.46 89.57Q540.80 89.48 540.97 89.31Q541.14 89.14 541.14 88.88L541.14 88.88L541.14 85.01Q541.14 84.53 541.00 84.17Q540.86 83.81 540.41 83.72L540.41 83.72Q540.33 83.70 540.28 83.63Q540.23 83.56 540.23 83.48L540.23 83.48Q540.23 83.30 540.39 83.27L540.39 83.27Q540.86 83.12 541.37 82.84Q541.88 82.57 542.17 82.39L542.17 82.39Q542.28 82.31 542.34 82.29Q542.40 82.26 542.44 82.26L542.44 82.26Q542.53 82.26 542.53 82.39L542.53 82.39Q542.53 82.44 542.52 82.66Q542.51 82.87 542.50 83.16Q542.49 83.45 542.48 83.74L542.48 83.74Q542.48 83.77 542.51 83.77L542.51 83.77Q542.80 83.41 543.15 83.14Q543.50 82.87 543.87 82.71Q544.24 82.55 544.58 82.55L544.58 82.55Q544.96 82.55 545.20 82.71Q545.45 82.87 545.45 83.12L545.45 83.12Q545.45 83.30 545.35 83.52Q545.25 83.74 545.09 83.90Q544.92 84.06 544.74 84.06L544.74 84.06Q544.64 84.06 544.51 84.02Q544.38 83.97 544.24 83.90L544.24 83.90Q544.10 83.84 543.95 83.79Q543.81 83.74 543.66 83.74L543.66 83.74Q543.23 83.74 542.83 84.04Q542.42 84.35 542.42 85.25L542.42 85.25L542.42 88.88Q542.42 89.12 542.67 89.27Q542.93 89.42 543.38 89.57L543.38 89.57Q543.57 89.62 543.68 89.68Q543.79 89.73 543.79 89.86L543.79 89.86Q543.79 90.05 543.43 90.05L543.43 90.05Q542.89 90.05 542.61 90.01Q542.33 89.96 541.86 89.96L541.86 89.96Q541.56 89.96 541.37 89.98Q541.18 90 540.97 90.03Q540.77 90.05 540.41 90.05ZM546.33 90.05L546.33 90.05Q546.17 90.05 546.07 90.01Q545.97 89.96 545.97 89.86L545.97 89.86Q545.97 89.71 546.10 89.66Q546.24 89.60 546.38 89.57L546.38 89.57Q546.76 89.48 546.96 89.34Q547.16 89.21 547.16 88.88L547.16 88.88L547.16 84.98Q547.16 84.49 546.99 84.11Q546.81 83.74 546.35 83.66L546.35 83.66Q546.26 83.65 546.21 83.59Q546.17 83.54 546.17 83.43L546.17 83.43Q546.17 83.23 546.33 83.21L546.33 83.21Q547.05 83.05 547.52 82.77Q547.98 82.49 548.22 82.31L548.22 82.31Q548.38 82.19 548.47 82.19L548.47 82.19Q548.58 82.19 548.58 82.28L548.58 82.28Q548.58 82.42 548.53 82.84Q548.49 83.27 548.45 83.78Q548.42 84.29 548.42 84.71L548.42 84.71L548.42 88.88Q548.42 89.19 548.62 89.33Q548.83 89.48 549.19 89.57L549.19 89.57Q549.33 89.60 549.47 89.66Q549.60 89.71 549.60 89.86L549.60 89.86Q549.60 90.05 549.24 90.05L549.24 90.05Q548.90 90.05 548.70 90.03Q548.49 90 548.30 89.98Q548.11 89.96 547.79 89.96L547.79 89.96Q547.48 89.96 547.28 89.98Q547.08 90 546.89 90.03Q546.69 90.05 546.33 90.05ZM547.77 80.71L547.77 80.71Q547.39 80.71 547.13 80.45Q546.87 80.19 546.87 79.81L546.87 79.81Q546.87 79.42 547.13 79.16Q547.39 78.89 547.77 78.89L547.77 78.89Q548.16 78.89 548.43 79.16Q548.69 79.42 548.69 79.81L548.69 79.81Q548.69 80.19 548.43 80.45Q548.16 80.71 547.77 80.71ZM553.46 95.22L553.46 95.22Q551.93 95.22 551.04 94.64Q550.14 94.05 550.14 93.06L550.14 93.06Q550.14 92.59 550.29 92.27Q550.43 91.94 550.74 91.71L550.74 91.71Q550.99 91.49 551.41 91.16Q551.84 90.83 552.29 90.47L552.29 90.47L553.04 90.50Q552.18 91.06 551.84 91.57Q551.49 92.07 551.49 92.79L551.49 92.79Q551.49 93.51 552.13 94.00Q552.77 94.50 553.71 94.50L553.71 94.50Q554.77 94.50 555.42 94.01L555.42 94.01Q555.87 93.67 556.12 93.12Q556.37 92.57 556.37 91.96L556.37 91.96Q556.37 91.57 556.09 91.31Q555.81 91.04 555.22 90.88Q554.63 90.72 553.67 90.67L553.67 90.67Q551.98 90.54 551.32 90.22Q550.67 89.89 550.67 89.21L550.67 89.21Q550.67 89.03 550.77 88.88Q550.86 88.72 551.08 88.54L551.08 88.54Q551.49 88.22 551.69 88.06Q551.89 87.91 551.99 87.80Q552.09 87.70 552.18 87.53L552.18 87.53L552.79 87.84Q552.39 87.98 552.12 88.23Q551.85 88.47 551.85 88.67L551.85 88.67Q551.85 88.92 552.12 89.11Q552.39 89.30 552.92 89.41Q553.44 89.51 554.19 89.57L554.19 89.57Q555.85 89.66 556.66 90.11Q557.47 90.56 557.47 91.39L557.47 91.39Q557.47 92.09 557.12 92.76Q556.77 93.44 556.19 94.00Q555.62 94.55 554.91 94.89Q554.19 95.22 553.46 95.22ZM553.67 87.46L553.67 87.46Q554.36 87.46 554.81 86.77Q555.26 86.08 555.26 85.05L555.26 85.05Q555.26 84.53 555.01 84.07Q554.77 83.61 554.38 83.33Q554.00 83.05 553.55 83.05L553.55 83.05Q553.13 83.05 552.76 83.35Q552.39 83.65 552.17 84.11Q551.94 84.58 551.94 85.14L551.94 85.14Q551.94 85.77 552.18 86.30Q552.41 86.83 552.81 87.15Q553.20 87.46 553.67 87.46ZM553.56 88.09L553.56 88.09Q552.83 88.09 552.16 87.71Q551.49 87.34 551.07 86.72Q550.65 86.09 550.65 85.36L550.65 85.36Q550.65 84.51 551.09 83.87Q551.53 83.23 552.25 82.87Q552.97 82.51 553.78 82.51L553.78 82.51Q554.30 82.51 554.69 82.65Q555.08 82.78 555.45 82.89L555.45 82.89Q555.89 83.02 556.14 83.04Q556.39 83.07 556.66 83.07L556.66 83.07Q556.88 83.07 557.20 83.04Q557.52 83.02 557.65 83.02L557.65 83.02Q557.88 83.02 557.88 83.29L557.88 83.29Q557.88 83.45 557.70 83.63L557.70 83.63Q557.61 83.72 557.56 83.72L557.56 83.72L557.07 83.72Q556.59 83.72 556.53 83.86L556.53 83.86Q556.52 83.93 556.49 84.07Q556.46 84.20 556.44 84.37Q556.43 84.53 556.43 84.69L556.43 84.69Q556.43 85.61 556.03 86.38Q555.63 87.16 554.99 87.62Q554.34 88.09 553.56 88.09ZM558.48 90.05L558.48 90.05Q558.12 90.05 558.12 89.86L558.12 89.86Q558.12 89.69 558.53 89.57L558.53 89.57Q558.80 89.48 559.05 89.33Q559.29 89.19 559.31 88.83L559.31 88.83L559.31 79.81Q559.31 79.33 559.14 78.96Q558.98 78.59 558.51 78.52L558.51 78.52Q558.35 78.48 558.35 78.26L558.35 78.26Q558.35 78.10 558.50 78.05L558.50 78.05Q558.75 77.96 559.10 77.85Q559.45 77.74 559.83 77.61Q560.21 77.47 560.49 77.35L560.49 77.35Q560.57 77.31 560.60 77.31L560.60 77.31Q560.66 77.31 560.69 77.35Q560.73 77.38 560.73 77.44L560.73 77.44Q560.73 77.54 560.68 77.74Q560.64 77.94 560.60 78.43Q560.57 78.91 560.57 79.88L560.57 79.88L560.57 83.02Q560.57 83.30 560.59 83.43Q560.62 83.56 560.69 83.68L560.69 83.68Q560.98 83.47 561.40 83.20Q561.83 82.94 562.35 82.75Q562.87 82.55 563.43 82.55L563.43 82.55Q564.31 82.55 564.90 83.24Q565.48 83.93 565.48 85.00L565.48 85.00L565.48 88.78Q565.48 89.14 565.71 89.31Q565.95 89.48 566.22 89.57L566.22 89.57Q566.42 89.62 566.52 89.69Q566.63 89.75 566.63 89.86L566.63 89.86Q566.63 90.05 566.27 90.05L566.27 90.05Q565.91 90.05 565.72 90.03Q565.53 90 565.36 89.98Q565.19 89.96 564.87 89.96L564.87 89.96Q564.56 89.96 564.38 89.98Q564.20 90 564.01 90.03Q563.82 90.05 563.46 90.05L563.46 90.05Q563.10 90.05 563.10 89.86L563.10 89.86Q563.10 89.73 563.21 89.69Q563.32 89.64 563.52 89.57L563.52 89.57Q563.79 89.48 564.00 89.31Q564.22 89.14 564.22 88.78L564.22 88.78L564.22 85.10Q564.22 84.65 563.96 84.28Q563.70 83.92 563.32 83.70Q562.94 83.48 562.55 83.48L562.55 83.48Q562.20 83.48 561.75 83.58Q561.30 83.68 561.05 83.88L561.05 83.88Q560.76 84.11 560.67 84.37Q560.57 84.62 560.57 85.18L560.57 85.18L560.57 88.83Q560.58 89.19 560.79 89.33Q561.00 89.48 561.27 89.57L561.27 89.57Q561.47 89.62 561.57 89.69Q561.66 89.75 561.66 89.86L561.66 89.86Q561.66 90.05 561.30 90.05L561.30 90.05Q560.94 90.05 560.76 90.03Q560.58 90 560.42 89.98Q560.26 89.96 559.94 89.96L559.94 89.96Q559.63 89.96 559.44 89.98Q559.25 90 559.05 90.03Q558.84 90.05 558.48 90.05ZM570.45 90.25L570.45 90.25Q569.57 90.25 569.07 89.71Q568.58 89.17 568.58 88.11L568.58 88.11L568.58 83.93Q568.58 83.79 568.47 83.73Q568.36 83.66 568.00 83.66L568.00 83.66L567.89 83.66Q567.80 83.66 567.74 83.55Q567.68 83.43 567.68 83.30L567.68 83.30Q567.68 83.27 567.73 83.20Q567.78 83.12 567.80 83.11L567.80 83.11Q568.16 82.85 568.46 82.60Q568.76 82.35 569.00 82.11Q569.24 81.86 569.40 81.67L569.40 81.67Q569.49 81.58 569.56 81.51Q569.62 81.45 569.71 81.45L569.71 81.45Q569.80 81.45 569.88 81.49Q569.96 81.52 569.94 81.65L569.94 81.65L569.85 82.46Q569.84 82.66 569.94 82.73Q570.05 82.80 570.29 82.80L570.29 82.80L572.34 82.80Q572.41 82.80 572.46 82.92Q572.52 83.03 572.52 83.20L572.52 83.20Q572.52 83.36 572.46 83.51Q572.41 83.66 572.34 83.66L572.34 83.66L570.56 83.66Q570.11 83.66 569.97 83.74Q569.84 83.81 569.84 84.17L569.84 84.17L569.84 87.71Q569.84 88.43 570.14 88.85Q570.45 89.26 571.02 89.26L571.02 89.26Q571.55 89.26 571.83 89.18Q572.12 89.10 572.36 88.94L572.36 88.94Q572.39 88.90 572.43 88.90L572.43 88.90Q572.50 88.90 572.53 88.98Q572.55 89.06 572.55 89.15L572.55 89.15Q572.55 89.24 572.26 89.51Q571.96 89.78 571.48 90.02Q571.01 90.25 570.45 90.25Z"/>
  </svg>